<svg width="1170" height="784" viewBox="0 0 1170 784" fill="none" xmlns="http://www.w3.org/2000/svg">
<rect x="100" y="3" width="970" height="780" fill="#0F2572"/>
<path d="M228.525 393.237C227.034 388.662 221.579 384.009 216.281 384.798C213.848 385.153 212.789 385.981 212.436 388.465C212.2 390.082 212.279 391.778 212.082 393.395C211.808 395.564 211.572 397.772 210.984 399.862C209.532 404.752 206.235 408.302 202.115 411.102C199.603 412.837 197.013 414.454 194.345 415.992C188.929 419.107 185.947 423.84 184.848 429.873C184.73 430.426 184.848 431.017 184.848 432.042C184.848 432.042 184.338 439.733 189.4 442.809C189.4 442.809 187.752 433.423 194.463 432.042C194.463 432.042 198.034 430.426 201.997 433.304C201.997 433.304 207.02 428.099 203.214 424.076V422.696L220.127 418.2C221.54 416.741 222.913 415.479 224.13 414.02C225.189 412.758 226.249 411.457 226.877 409.958C227.74 408.026 228.329 405.975 228.8 403.885C229.624 400.296 229.702 396.747 228.525 393.158V393.237Z" fill="#271515"/>
<path d="M201.094 522.628C202.546 525.231 203.919 527.873 205.528 530.436C206.391 531.817 207.569 533 208.668 534.262C210.63 536.51 212.513 538.836 214.554 541.005C220.126 546.921 226.562 551.574 234.411 554.059C237.785 555.124 241.121 556.149 244.496 557.214C249.637 558.791 254.856 559.58 260.193 559.935C264.274 560.211 268.316 560.526 272.397 560.526C275.497 560.526 278.598 560.014 282.051 559.698C280.717 556.74 277.459 555.202 278.401 551.338C281.58 553.27 284.248 555.321 286.132 558.357C284.641 560.29 282.796 561.591 280.717 562.538C273.143 566.087 265.216 568.414 256.975 569.952C253.051 570.701 249.205 571.726 245.281 572.594C238.806 574.014 232.331 573.738 225.973 572.002C224.561 571.608 223.148 571.095 221.775 570.504C212.513 566.323 203.88 561 196.11 554.453C189.321 548.774 185.593 545.186 178.961 539.31C178.804 539.152 178.647 539.073 178.529 538.915C178.529 538.718 177.077 537.417 177.156 537.338C179.707 534.695 194.972 508.115 195.718 507.563C196.581 509.101 200.152 521.169 201.015 522.707L201.094 522.628Z" fill="#ED1C24"/>
<path d="M175.312 481.93C175.665 480.904 176.293 479.958 176.921 479.051C178.844 476.172 180.885 473.372 182.729 470.454C184.259 468.087 185.594 465.564 186.967 463.079C189.557 458.307 192.108 453.535 194.737 448.764C195.169 448.014 195.914 447.423 196.739 446.555C195.483 446.121 194.227 445.845 193.128 445.254C191.833 444.623 190.813 443.558 190.617 442.02C190.46 440.719 190.224 439.338 190.499 438.076C190.734 436.814 191.323 435.474 192.108 434.488C194.58 431.333 198.583 431.648 202.389 435.276C204.352 431.648 207.334 428.414 204.744 423.722C210.238 422.46 215.104 419.699 220.598 419.62C222.089 421.513 221.657 423.919 223.07 425.693C224.365 427.35 225.228 429.361 226.602 430.938C228.015 432.555 229.82 433.817 231.9 435.631C229.427 435.75 227.505 435.828 225.346 435.947C225.425 436.736 225.503 437.406 225.582 438.076C226.053 441.35 225.582 444.426 224.051 447.423C221.579 452.273 213.809 454.797 209.375 453.575C208.472 453.338 207.491 453.338 206.824 453.259C205.921 454.758 205.254 455.862 204.587 457.006C202.586 460.555 200.192 463.947 198.74 467.733C197.052 472.11 196.15 476.763 195.012 481.338C194.462 483.547 194.227 485.834 193.835 488.082C193.756 488.516 193.678 489.107 193.364 489.383C191.519 490.961 189.714 492.577 187.752 493.958C186.143 495.062 184.259 494.865 182.611 493.958C179.433 492.223 177 489.738 175.077 486.662C174.056 485.006 174.802 483.428 175.351 481.93H175.312Z" fill="#ED1C24"/>
<path d="M150.629 497.231C149.02 492.538 145.409 489.423 141.642 486.544C135.246 481.693 128.26 477.789 120.883 474.555C118.214 473.411 115.467 472.544 112.564 471.479C111.779 475.502 110.994 479.248 110.327 483.034C109.424 488.239 108.561 493.445 107.737 498.651C106.442 506.972 105.147 515.332 102.91 523.456C102.557 524.758 102.164 526.059 101.536 527.203C100.673 528.82 99.1819 529.253 97.7691 528.189C94.669 525.862 91.6866 523.417 90.8232 519.315C90.7447 518.96 90.7447 518.566 90.7055 518.172C93.5702 518.172 94.512 520.853 96.6703 522.391C96.7881 521.524 96.9843 521.051 96.8666 520.617C94.3551 510.758 92.9816 500.662 91.9613 490.566C91.3726 484.769 90.4701 479.011 89.9207 473.175C89.3713 467.22 89.0966 461.226 88.7434 455.231C88.6257 453.259 88.5079 451.288 88.3902 449.316C88.037 443.913 88.8611 438.628 89.4497 433.305C89.5675 432.319 89.9207 431.293 90.3916 430.386C91.2157 428.769 92.079 427.192 93.1385 425.693C93.7272 424.826 94.5905 423.919 95.5323 423.564C98.4755 422.46 101.458 422.262 104.48 423.406C108.011 424.707 111.269 426.443 114.329 428.769C117.508 431.175 120.804 433.423 123.748 436.183C129.516 441.626 135.363 446.95 140.7 452.865C143.565 456.059 147.058 458.662 150.197 461.659C152.238 463.592 154.121 465.682 156.123 467.693C156.633 468.206 157.064 468.797 157.614 469.192C160.4 471.164 162.519 473.806 164.677 476.409C165.266 477.118 165.972 477.749 166.64 478.42C168.366 480.116 170.132 481.811 171.859 483.547C172.84 484.532 173.154 485.637 172.644 486.978C171.741 489.344 171.035 491.749 170.054 494.076C168.759 497.034 167.346 499.913 165.855 502.792C165.384 503.699 164.756 504.527 164.05 505.237C162.087 507.287 160.518 507.524 158.242 505.828C155.063 503.541 152.002 501.096 150.629 497.113V497.231Z" fill="#ED1C24"/>
<path d="M153.336 503.896C154.239 504.606 155.181 505.237 156.083 505.986C160.792 510.008 163.853 508.786 166.482 504.369C168.719 500.622 170.25 496.442 172.055 492.42C172.683 491 173.193 489.541 173.899 487.806C174.566 488.555 175.037 489.028 175.43 489.58C176.999 491.789 179.079 493.485 181.355 494.904C183.592 496.284 185.986 496.521 188.301 495.22C189.714 494.431 190.97 493.287 192.265 492.301C192.657 491.986 193.05 491.67 193.638 491.197C193.874 494.194 193.952 496.915 194.305 499.637C194.658 502.239 195.051 503.58 195.561 506.262C195.051 506.222 165.266 556.662 161.773 560.014C161.773 560.014 138.267 557.766 136.344 557.332C139.758 549.445 154.239 511.704 153.375 503.896H153.336Z" fill="#27306E"/>
<path d="M8.9634 636.165C7.47219 637.861 6.13794 639.794 3.94037 640.858C3.43022 641.095 2.44916 641.292 2.25295 641.056C1.82128 640.543 1.38961 639.596 1.58583 639.005C2.64537 635.692 4.29355 632.656 6.80507 630.211C7.07976 629.934 7.6684 629.737 8.06082 629.816C9.47355 630.092 10.8863 630.487 12.8876 630.96C11.0825 632.301 9.66976 633.365 8.13931 634.509C8.37476 634.982 8.64946 635.495 9.00264 636.165H8.9634Z" fill="#27306E"/>
<path d="M136.148 633.563C131.989 640.425 128.065 647.444 123.591 654.109C119.51 660.182 115.939 666.571 111.073 672.092C108.443 675.089 105.539 677.653 102.125 679.664C98.358 681.872 94.1983 682.148 90.0387 681.36C81.994 679.861 74.2632 677.219 67.1211 673.157C64.1387 671.461 61.0385 669.923 57.9776 668.267C56.8004 667.636 55.6623 666.926 54.6028 666.137C49.9329 662.706 45.3023 659.157 40.5932 655.805C37.7678 653.794 34.8246 652.019 31.8814 650.205C26.7014 646.971 21.4429 643.777 16.8123 639.715C15.7136 638.729 14.4578 637.901 13.2413 637.033C12.6134 636.599 11.9463 636.165 11.2007 635.692C12.2602 634.233 13.2413 632.932 14.3008 631.473C16.0667 632.143 17.7934 632.813 19.5593 633.484C22.581 634.588 25.6026 635.653 28.6243 636.718C29.1345 636.915 29.6839 637.033 30.194 637.23C34.7854 639.044 39.3767 640.898 43.9288 642.712C45.0276 643.146 46.1264 643.54 47.2644 643.856C52.5229 645.433 57.7814 646.971 63.0006 648.588C65.7476 649.416 68.5731 650.165 71.2416 651.23C74.2632 652.413 77.4026 652.334 80.5028 652.334C82.975 652.334 85.4865 652.058 87.9588 651.703C88.8222 651.585 89.764 651.072 90.3526 650.402C91.5691 649.061 92.6679 647.602 93.6489 646.103C95.5326 643.185 97.1023 640.109 99.1037 637.309C102.322 632.813 104.676 627.844 107.266 622.994C107.698 622.166 108.09 621.337 108.6 620.351C117.901 624.808 127.751 627.292 137.6 630.723C137.012 631.867 136.619 632.774 136.109 633.641L136.148 633.563Z" fill="#ED1C24"/>
<path d="M138.659 629.146C133.95 628.672 112.092 620.943 109.463 618.892C111.19 616.013 112.995 613.135 114.604 610.216C116.683 606.509 118.528 602.684 120.608 598.977C122.648 595.27 124.846 591.642 127.161 587.619C127.868 588.408 128.338 588.881 128.731 589.394C130.458 591.721 132.655 593.377 135.324 594.599C137.757 595.704 140.033 597.123 142.466 598.228C145.644 599.687 148.941 600.988 152.512 602.526C148.98 612.07 142.78 620.154 138.659 629.185V629.146Z" fill="#27306E"/>
<path d="M181.316 608.363C179.393 607.89 177.51 607.456 175.626 606.943C170.171 605.484 164.795 603.867 159.301 602.487C152.277 600.752 145.37 598.701 139.17 594.836C138.385 594.363 137.522 593.89 136.658 593.574C133.519 592.43 131.321 590.222 129.163 587.698C127.083 585.253 126.652 582.769 127.319 579.85C127.397 579.535 127.436 579.219 127.436 578.904C127.358 571.371 131.282 565.456 134.932 559.383C135.442 558.555 136.07 558.476 136.894 558.555C143.487 559.343 150.119 560.172 156.711 560.921C158.83 561.157 160.949 561.157 163.029 561.355C163.932 561.433 164.834 561.71 165.659 562.064C167.699 563.05 169.701 564.115 171.741 565.14C173.782 566.166 175.783 567.231 177.824 568.217C179.433 569.005 181.081 569.755 182.768 570.386C185.711 571.49 188.694 572.436 191.598 574.171C191.048 576.025 190.577 577.839 189.989 579.614C189.439 581.349 188.772 583.005 188.262 584.74C187.517 587.383 186.849 590.064 186.143 592.707C186.065 593.022 186.025 593.338 185.868 593.614C183.592 597.597 183.043 602.092 182.023 606.43C181.905 606.943 181.63 607.416 181.316 608.244V608.363Z" fill="#27306E"/>
<path d="M297.16 698.317C293.118 691.376 289.154 684.396 285.112 677.455C282.522 673.038 279.972 668.622 277.186 664.323C275.145 661.168 272.79 658.21 270.554 655.174C270.043 654.464 269.533 653.793 269.062 653.044C267.139 650.086 265.334 647.01 263.294 644.132C259.056 638.216 253.915 633.168 248.382 628.436C246.263 626.622 243.751 625.596 241.161 624.571C233.98 621.732 226.327 620.509 219.028 618.222C213.927 616.644 208.904 614.83 203.802 613.292C201.016 612.464 198.151 611.912 195.326 611.281C191.284 610.335 187.242 609.427 182.925 608.442C184.181 603.63 184.573 598.859 186.928 594.678C187.281 594.087 187.438 593.337 187.517 592.667C188.419 586.633 191.205 581.152 192.736 574.96C194.345 575.512 195.875 575.867 197.21 576.577C201.605 578.904 206.471 579.969 211.18 581.507C215.496 582.926 219.97 583.833 224.287 585.214C230.252 587.106 236.256 588.999 241.828 591.957C245.085 593.692 248.499 595.152 251.717 596.887C255.995 599.174 260.311 601.422 263.765 605.011C265.177 606.47 266.983 607.574 268.317 609.073C272.947 614.278 276.44 620.273 279.226 626.622C280.521 629.579 281.934 632.498 283.15 635.456C284.956 639.912 286.682 644.368 288.409 648.864C289.39 651.348 290.136 653.951 291.234 656.396C294.021 662.706 294.884 669.568 296.885 676.114C298.887 682.582 300.809 689.089 302.732 695.557C303.125 696.819 303.556 698.12 303.949 699.382C304.851 702.379 305.754 705.416 306.657 708.413C306.892 709.162 307.01 709.911 307.245 710.858C306.382 711.016 305.676 711.173 304.694 711.371C302.104 706.993 299.554 702.655 297.042 698.317H297.16Z" fill="#ED1C24"/>
<path d="M476.223 508.628C478.224 512.177 480.108 515.805 482.266 519.275C483.443 521.168 485.052 522.785 486.543 524.481C489.212 527.557 491.802 530.712 494.588 533.67C502.24 541.754 510.991 548.103 521.704 551.495C526.296 552.954 530.887 554.374 535.518 555.793C542.503 557.923 549.724 559.067 556.983 559.501C562.556 559.855 568.089 560.329 573.661 560.289C577.9 560.289 582.138 559.579 586.847 559.146C585.002 555.084 580.568 552.994 581.863 547.748C586.18 550.391 589.829 553.151 592.419 557.371C590.379 559.974 587.867 561.788 585.042 563.089C574.682 567.94 563.812 571.134 552.627 573.224C547.251 574.25 541.993 575.669 536.656 576.853C527.787 578.785 518.958 578.43 510.246 576.024C508.284 575.512 506.361 574.802 504.516 573.974C491.841 568.255 480.068 560.96 469.434 552.047C460.133 544.278 451.264 535.996 442.199 527.912C441.964 527.715 441.846 527.399 441.689 527.163C441.689 526.887 441.611 526.611 441.728 526.492C445.221 522.864 448.36 518.802 452.324 515.805C457.936 511.506 464.136 507.997 470.061 504.171C470.886 503.659 471.631 503.067 472.691 502.357C473.868 504.447 475.045 506.537 476.223 508.628Z" fill="#F1645F"/>
<path d="M469.512 491.157C470.493 494.115 471.514 497.112 470.729 500.307C470.572 500.977 470.179 501.766 469.63 502.121C465.588 504.723 461.467 507.287 457.308 509.732C456.601 510.166 455.424 510.205 454.6 509.968C446.712 507.563 438.864 505.078 431.015 502.594C430.505 502.436 430.034 502.16 429.367 501.845C432.585 494.036 435.724 486.504 438.942 478.774C439.884 479.05 440.708 479.169 441.454 479.484C447.144 481.693 452.834 483.901 458.524 486.149C461.703 487.411 464.882 488.712 468.06 490.053C468.61 490.29 469.316 490.724 469.473 491.197L469.512 491.157Z" fill="#27306E"/>
<path d="M440.944 452.983C441.415 451.603 442.317 450.301 443.141 449.079C445.771 445.135 448.557 441.31 451.108 437.327C453.187 434.054 455.032 430.662 456.876 427.271C460.447 420.763 463.901 414.217 467.472 407.71C468.06 406.645 469.081 405.896 470.179 404.713C468.453 404.121 466.765 403.727 465.235 402.938C463.469 402.031 462.056 400.611 461.821 398.521C461.625 396.707 461.311 394.854 461.625 393.119C461.978 391.383 462.763 389.569 463.861 388.228C467.275 383.93 472.691 384.364 477.91 389.293C480.618 384.324 484.66 379.947 481.167 373.519C488.702 371.783 495.334 368.037 502.829 367.879C504.83 370.443 504.281 373.755 506.204 376.161C507.97 378.409 509.147 381.209 511.031 383.338C512.954 385.547 515.426 387.282 518.291 389.727C514.876 389.885 512.286 390.003 509.343 390.161C509.461 391.226 509.539 392.133 509.657 393.04C510.324 397.535 509.657 401.716 507.538 405.817C504.163 412.442 493.529 415.873 487.485 414.217C486.23 413.862 484.895 413.902 484.032 413.783C482.815 415.834 481.874 417.372 480.971 418.91C478.224 423.761 474.967 428.414 472.966 433.58C470.65 439.535 469.395 445.963 467.864 452.194C467.118 455.191 466.805 458.346 466.255 461.383C466.137 462.014 466.02 462.803 465.627 463.158C463.116 465.327 460.643 467.535 457.936 469.428C455.738 470.927 453.187 470.651 450.872 469.428C446.555 467.062 443.181 463.67 440.591 459.451C439.217 457.203 440.237 455.034 440.944 452.944V452.983Z" fill="#F1645F"/>
<path d="M407.195 473.924C404.998 467.535 400.053 463.236 394.913 459.332C386.161 452.667 376.586 447.343 366.54 442.966C362.93 441.389 359.123 440.205 355.199 438.746C354.14 444.228 353.041 449.394 352.099 454.56C350.843 461.659 349.666 468.797 348.567 475.895C346.801 487.293 345.035 498.69 341.975 509.811C341.504 511.585 340.915 513.36 340.091 514.937C338.914 517.146 336.873 517.698 334.95 516.278C330.712 513.123 326.631 509.771 325.493 504.132C325.375 503.619 325.375 503.107 325.336 502.594C329.26 502.594 330.516 506.222 333.498 508.391C333.655 507.247 333.93 506.538 333.773 505.946C330.32 492.459 328.475 478.695 327.102 464.853C326.317 456.927 325.061 449.039 324.315 441.113C323.57 432.949 323.217 424.786 322.667 416.583C322.51 413.901 322.353 411.22 322.157 408.499C321.686 401.124 322.785 393.868 323.609 386.611C323.766 385.271 324.237 383.851 324.865 382.628C326.003 380.42 327.18 378.251 328.632 376.24C329.456 375.057 330.594 373.795 331.889 373.321C335.892 371.783 340.012 371.547 344.133 373.085C348.999 374.859 353.433 377.226 357.632 380.42C361.988 383.733 366.501 386.809 370.504 390.555C378.391 397.969 386.397 405.265 393.657 413.389C397.581 417.766 402.369 421.315 406.646 425.377C409.432 428.02 412.022 430.898 414.73 433.659C415.397 434.369 415.986 435.158 416.771 435.71C420.616 438.431 423.481 442.02 426.424 445.608C427.248 446.594 428.19 447.462 429.093 448.369C431.447 450.696 433.841 453.022 436.196 455.389C437.53 456.729 437.961 458.228 437.255 460.081C436.039 463.315 435.058 466.628 433.684 469.783C431.918 473.845 429.956 477.788 427.955 481.693C427.327 482.915 426.463 484.059 425.522 485.045C422.853 487.845 420.734 488.16 417.555 485.873C413.2 482.718 409.04 479.405 407.156 473.924H407.195Z" fill="#F1645F"/>
<path d="M410.924 483.033C412.179 483.98 413.474 484.848 414.652 485.873C421.087 491.394 425.286 489.659 428.897 483.664C431.958 478.538 434.077 472.819 436.549 467.338C437.412 465.405 438.119 463.394 439.06 461.067C439.963 462.093 440.63 462.724 441.179 463.473C443.338 466.51 446.163 468.797 449.303 470.729C452.324 472.622 455.621 472.938 458.76 471.203C460.722 470.138 462.37 468.56 464.176 467.219C464.725 466.786 465.235 466.352 466.02 465.681C466.334 469.783 466.452 473.49 466.962 477.197C467.433 480.786 468.296 484.295 469.002 487.963C468.296 487.884 467.943 487.963 467.668 487.845C459.192 484.493 450.755 481.101 442.278 477.749C441.768 477.552 441.297 477.315 440.787 477.118C438.354 476.369 437.883 476.566 436.902 478.972C434.587 484.65 432.311 490.329 429.956 496.008C429.054 498.177 427.876 500.228 426.817 502.357C428.112 504.053 430.035 504.29 431.683 504.802C435.764 506.064 439.963 507.011 444.044 508.312C447.262 509.338 450.401 510.678 453.541 511.861C448.989 516.278 444.554 520.537 439.806 525.112C435.686 523.14 431.447 520.853 427.052 519.039C424.227 517.856 421.127 517.225 418.144 516.476C415.79 515.884 413.435 515.45 410.767 514.859C415.397 504.053 412.219 493.721 411.002 483.073L410.924 483.033Z" fill="#27306E"/>
<path d="M410.649 516.554C414.652 517.422 418.811 518.29 423.01 519.197C423.834 519.394 424.658 519.709 425.404 520.104C429.407 522.115 433.41 524.126 437.883 526.374C437.726 527.084 437.608 528.228 437.177 529.214C434.94 534.459 432.428 539.546 430.388 544.87C428.543 549.681 427.209 554.65 425.522 559.935C413.003 559.146 400.524 557.489 387.535 556.188C395.462 542.582 403.036 529.608 410.649 516.554Z" fill="#F1645F"/>
<path d="M213.534 663.849C211.494 666.137 209.688 668.818 206.667 670.238C205.96 670.554 204.626 670.83 204.351 670.514C203.763 669.804 203.174 668.503 203.449 667.714C204.901 663.179 207.138 659.038 210.591 655.686C210.983 655.292 211.768 655.055 212.318 655.173C214.28 655.528 216.203 656.08 218.91 656.751C216.438 658.604 214.515 660.024 212.396 661.602C212.71 662.233 213.063 662.942 213.573 663.889L213.534 663.849Z" fill="#F78F43"/>
<path d="M387.417 660.3C381.766 669.686 376.351 679.269 370.268 688.379C364.696 696.661 359.791 705.415 353.159 712.987C349.548 717.089 345.585 720.598 340.954 723.359C335.814 726.396 330.084 726.751 324.433 725.686C313.406 723.635 302.889 720.046 293.079 714.446C288.997 712.12 284.72 710.029 280.6 707.782C278.991 706.914 277.421 705.968 275.969 704.863C269.572 700.17 263.254 695.32 256.819 690.745C252.973 688.024 248.931 685.579 244.928 683.094C237.825 678.678 230.683 674.34 224.365 668.779C222.835 667.438 221.108 666.334 219.46 665.111C218.597 664.48 217.733 663.928 216.713 663.258C218.165 661.247 219.499 659.472 220.951 657.5C223.384 658.407 225.739 659.354 228.132 660.221C232.253 661.72 236.373 663.179 240.494 664.678C241.2 664.914 241.946 665.072 242.652 665.348C248.931 667.833 255.17 670.356 261.449 672.801C262.94 673.393 264.471 673.906 266.001 674.379C273.183 676.548 280.364 678.678 287.545 680.847C291.313 681.99 295.158 683.016 298.808 684.435C302.928 686.052 307.245 685.934 311.483 685.934C314.897 685.934 318.311 685.539 321.686 685.066C322.864 684.908 324.159 684.199 324.943 683.292C326.592 681.478 328.083 679.506 329.417 677.416C331.968 673.433 334.165 669.213 336.873 665.387C341.268 659.235 344.486 652.413 348.057 645.788C348.646 644.683 349.195 643.5 349.862 642.159C362.577 648.233 376.076 651.664 389.497 656.317C388.712 657.855 388.124 659.117 387.417 660.3Z" fill="#F1645F"/>
<path d="M390.871 654.266C384.435 653.596 354.532 643.067 350.961 640.267C353.316 636.323 355.749 632.419 357.986 628.396C360.811 623.309 363.362 618.103 366.187 613.016C369.013 607.929 371.956 602.96 375.135 597.478C376.116 598.582 376.744 599.213 377.293 599.923C379.648 603.117 382.669 605.405 386.28 607.022C389.615 608.52 392.715 610.453 396.012 611.951C400.368 613.962 404.841 615.737 409.747 617.788C404.92 630.841 396.443 641.883 390.832 654.227L390.871 654.266Z" fill="#27306E"/>
<path d="M449.146 625.872C446.516 625.202 443.926 624.65 441.376 623.94C433.92 621.928 426.542 619.72 419.047 617.827C409.432 615.421 400.014 612.621 391.499 607.376C390.4 606.706 389.262 606.075 388.045 605.641C383.768 604.064 380.746 601.067 377.803 597.636C374.978 594.323 374.35 590.892 375.252 586.909C375.331 586.475 375.409 586.041 375.409 585.607C375.291 575.315 380.628 567.191 385.651 558.909C386.358 557.765 387.182 557.647 388.359 557.805C397.385 558.909 406.411 560.013 415.476 561.039C418.34 561.354 421.244 561.354 424.109 561.67C425.326 561.788 426.581 562.143 427.68 562.655C430.466 563.996 433.213 565.455 435.96 566.875C438.707 568.295 441.493 569.754 444.28 571.095C446.477 572.16 448.714 573.185 451.029 574.053C455.032 575.551 459.113 576.853 463.116 579.219C462.37 581.743 461.703 584.227 460.918 586.672C460.173 589.038 459.231 591.326 458.564 593.692C457.504 597.32 456.641 600.948 455.66 604.576C455.542 605.01 455.503 605.444 455.307 605.799C452.207 611.241 451.461 617.393 450.048 623.348C449.891 624.058 449.538 624.728 449.106 625.793L449.146 625.872Z" fill="#27306E"/>
<path d="M607.488 748.835C601.994 739.331 596.579 729.787 591.046 720.322C587.514 714.289 584.021 708.215 580.215 702.339C577.429 698.001 574.172 693.979 571.15 689.799C570.444 688.852 569.737 687.906 569.109 686.92C566.48 682.858 564.047 678.678 561.222 674.734C555.453 666.649 548.389 659.748 540.855 653.281C537.951 650.796 534.537 649.416 531.005 647.996C521.194 644.092 510.756 642.435 500.749 639.281C493.803 637.112 486.936 634.667 479.951 632.537C476.183 631.393 472.259 630.683 468.374 629.776C462.841 628.514 457.308 627.252 451.421 625.872C453.109 619.286 453.658 612.779 456.876 607.022C457.347 606.193 457.543 605.208 457.7 604.261C458.917 595.979 462.762 588.526 464.842 580.087C467.04 580.875 469.12 581.349 470.964 582.295C477.007 585.489 483.639 586.909 490.036 589.039C495.922 590.971 502.044 592.233 507.97 594.126C516.132 596.729 524.334 599.292 531.947 603.354C536.381 605.72 541.051 607.692 545.485 610.098C551.333 613.253 557.258 616.289 561.967 621.179C563.89 623.191 566.362 624.689 568.207 626.74C574.564 633.838 579.273 642.041 583.158 650.757C584.924 654.779 586.847 658.762 588.534 662.824C591.007 668.897 593.361 675.049 595.716 681.162C597.05 684.593 598.07 688.103 599.561 691.455C603.368 700.092 604.545 709.477 607.292 718.429C610 727.263 612.629 736.136 615.298 745.01C615.808 746.745 616.436 748.48 616.946 750.255C618.202 754.356 619.418 758.497 620.635 762.598C620.949 763.624 621.145 764.649 621.419 765.95C620.242 766.187 619.261 766.384 617.927 766.66C614.395 760.666 610.902 754.75 607.449 748.835H607.488Z" fill="#F1645F"/>
<path d="M625.854 780.621C623.264 776.756 620.635 773.167 619.575 768.592C623.539 767.054 622.401 771.59 624.323 772.378C626.207 771.471 624.48 770.091 624.873 768.908C629.582 768.514 634.33 768.08 639.118 767.804C640.531 767.725 641.865 768.316 642.728 769.933C638.568 775.691 632.211 777.939 625.854 780.581V780.621Z" fill="#F78F43"/>
<path d="M500.239 381.682C496.668 380.735 495.333 378.645 496.354 375.727C496.864 374.189 498.08 373.834 499.297 374.859C500.945 376.2 501.416 379.237 500.239 381.682Z" fill="#F1645F"/>
<path d="M450.716 305.254C451.619 304.308 452.482 303.282 453.424 302.375C455.347 300.561 457.23 298.747 459.271 297.051C461.39 295.277 463.823 294.133 466.57 293.699C469.238 293.265 471.907 292.635 474.536 292.122C476.027 291.846 477.401 292.122 478.696 292.95C480.736 294.251 482.934 295.316 483.837 297.958C484.975 301.271 485.563 304.544 484.504 307.975C484.268 308.803 483.876 309.553 483.68 310.381C483.523 311.209 483.562 312.116 483.444 313.575C485.642 312.156 487.29 311.012 488.977 309.987C491.528 308.488 494.118 306.989 496.708 305.57C498.553 304.584 500.554 304.347 502.634 304.465C505.852 304.663 509.03 305.096 512.091 306.319C515.034 307.463 516.526 309.75 516.879 312.708C517.389 317.006 516.408 320.989 513.857 324.578C511.542 327.772 508.795 330.454 505.655 332.899C502.398 335.462 499.494 338.499 496.433 341.338C496.276 341.496 496.276 341.772 496.12 342.206C496.669 342.285 497.101 342.443 497.571 342.443C499.965 342.443 502.32 342.324 504.714 342.443C508.128 342.561 509.815 344.02 510.561 347.372C511.228 350.527 510.561 353.445 509.03 356.245C507.264 359.44 503.576 363.817 500.318 366.578C499.455 365.631 498.592 364.606 497.65 363.659C495.806 361.767 493.765 360.11 491.096 359.44C486.701 358.296 482.699 359.045 479.716 362.555C477.048 365.71 473.948 368.51 472.025 372.335C470.612 375.214 469.984 378.29 469.317 381.366C469.199 381.958 469.121 382.51 468.964 383.22C467.786 382.904 466.688 382.51 465.55 382.313C463.705 381.997 462.214 382.628 461.547 384.324C460.684 386.533 459.82 388.82 459.506 391.147C458.878 395.366 460.252 399.073 463.588 402.347C460.566 403.806 457.819 405.225 454.993 406.448C453.895 406.921 453.031 406.448 452.6 405.265C451.893 403.49 452.011 401.755 452.6 400.02C452.914 399.073 453.228 398.166 453.62 396.904C452.678 396.904 452.09 396.825 451.54 396.904C445.889 397.772 440.199 397.338 434.509 397.102C431.213 396.944 428.348 395.287 425.915 393.04C423.992 391.226 423.796 390.042 424.855 387.558C426.504 383.614 429.25 380.735 433.057 378.842C433.881 378.448 434.627 377.975 435.882 377.304C434.156 376.082 432.782 375.214 431.487 374.189C429.407 372.572 427.288 370.995 425.405 369.181C422.579 366.499 419.754 363.738 417.242 360.781C411.317 353.879 409.119 345.795 410.296 336.724C411.788 325.012 415.908 314.285 422.54 304.544C425.326 300.482 429.133 297.682 433.41 295.513C436.746 293.818 440.435 293.542 444.084 294.291C447.577 295.001 449.46 297.367 449.696 300.956C449.774 302.296 449.813 303.637 449.853 304.939C450.088 305.057 450.324 305.136 450.598 305.254H450.716Z" fill="#F78F43"/>
<path d="M502.79 367.879C502.79 367.879 490.743 352.893 484.856 357.981C484.856 357.981 466.844 368.155 468.963 381.682L469.984 385.271C469.984 385.271 462.449 379.395 460.605 382.786C460.605 382.786 450.755 400.651 470.18 404.673H490.743L492.705 390.397L502.79 367.879Z" fill="#F1645F"/>
<path d="M742.875 359.953C731.652 365.592 721.528 373.716 719.33 385.783C719.173 386.533 719.33 387.361 719.33 388.741C719.33 388.741 718.624 399.231 725.57 403.451C725.57 403.451 723.333 390.595 732.476 388.741C732.476 388.741 737.342 386.533 742.758 390.476C742.758 390.476 749.625 383.338 744.406 377.896V376.003L767.52 369.851C769.443 367.84 771.326 366.105 772.974 364.133C774.387 362.437 775.839 360.623 776.742 358.572C777.919 355.93 778.743 353.13 779.371 350.291C780.077 347.175 762.379 352.302 761.084 352.736C755.394 354.55 748.958 356.877 742.836 359.953H742.875Z" fill="#271515"/>
<path d="M741.541 512.532C743.542 516.081 745.426 519.709 747.584 523.18C748.761 525.073 750.37 526.69 751.861 528.385C754.53 531.461 757.12 534.616 759.906 537.574C767.558 545.659 776.309 552.008 787.022 555.399C791.614 556.859 796.205 558.278 800.836 559.698C807.821 561.827 815.041 562.971 822.301 563.405C827.874 563.76 833.407 564.233 838.979 564.194C843.218 564.194 847.456 563.484 852.165 563.05C850.32 558.988 845.886 556.898 847.181 551.653C851.498 554.295 855.147 557.056 857.737 561.275C855.697 563.878 853.185 565.692 850.36 566.994C840 571.844 829.13 575.039 817.945 577.129C812.569 578.154 807.311 579.574 801.974 580.757C793.105 582.689 784.276 582.334 775.564 579.929C773.602 579.416 771.679 578.706 769.834 577.878C757.159 572.16 745.386 564.864 734.752 555.951C725.451 548.183 720.389 543.292 711.324 535.247C711.088 535.05 710.892 534.932 710.735 534.695C710.735 534.419 708.773 532.645 708.891 532.526C712.383 528.898 733.26 492.577 734.281 491.828C735.458 493.918 740.324 510.442 741.541 512.532Z" fill="#5EBDEB"/>
<path d="M706.262 456.887C706.733 455.507 707.635 454.206 708.459 452.983C711.088 449.039 713.875 445.214 716.425 441.231C718.505 437.958 720.35 434.566 722.194 431.175C725.765 424.668 729.218 418.121 732.789 411.614C733.378 410.549 734.398 409.8 735.497 408.617C733.771 408.026 732.083 407.631 730.553 406.842C728.787 405.935 727.374 404.516 727.139 402.426C726.942 400.611 726.628 398.758 726.942 397.023C727.296 395.288 728.08 393.473 729.179 392.133C732.593 387.834 738.009 388.268 743.228 393.197C745.936 388.228 749.978 383.851 746.485 377.423C754.02 375.688 760.652 371.941 768.147 371.783C770.148 374.347 769.599 377.659 771.522 380.065C773.288 382.313 774.465 385.113 776.349 387.243C778.271 389.451 780.744 391.186 783.608 393.631C780.194 393.789 777.604 393.907 774.661 394.065C774.779 395.13 774.857 396.037 774.975 396.944C775.642 401.44 774.975 405.62 772.856 409.721C769.481 416.347 758.846 419.778 752.803 418.121C751.547 417.766 750.213 417.806 749.35 417.687C748.133 419.738 747.191 421.276 746.289 422.814C743.542 427.665 740.285 432.318 738.283 437.484C735.968 443.439 734.712 449.868 733.182 456.098C732.436 459.096 732.122 462.251 731.573 465.287C731.455 465.918 731.338 466.707 730.945 467.062C728.434 469.231 725.961 471.439 723.254 473.332C721.056 474.831 718.505 474.555 716.19 473.332C711.873 470.966 708.498 467.574 705.908 463.355C704.535 461.107 705.555 458.938 706.262 456.848V456.887Z" fill="#5EBDEB"/>
<path d="M672.553 477.828C670.356 471.439 665.411 467.141 660.27 463.236C651.519 456.572 641.944 451.248 631.898 446.87C628.288 445.293 624.481 444.11 620.557 442.651C619.498 448.132 618.399 453.298 617.457 458.465C616.201 465.563 615.024 472.701 613.925 479.8C612.159 491.197 610.393 502.594 607.332 513.715C606.861 515.49 606.273 517.264 605.449 518.842C604.272 521.05 602.231 521.602 600.308 520.182C596.07 517.028 591.989 513.675 590.851 508.036C590.733 507.523 590.733 507.011 590.694 506.498C594.618 506.498 595.874 510.126 598.856 512.295C599.013 511.152 599.288 510.442 599.131 509.85C595.677 496.363 593.833 482.6 592.46 468.757C591.675 460.831 590.419 452.943 589.673 445.017C588.928 436.853 588.575 428.69 588.025 420.487C587.868 417.806 587.711 415.124 587.515 412.403C587.044 405.028 588.143 397.772 588.967 390.516C589.124 389.175 589.595 387.755 590.223 386.533C591.361 384.324 592.538 382.155 593.99 380.144C594.814 378.961 595.952 377.699 597.247 377.226C601.25 375.688 605.37 375.451 609.491 376.989C614.357 378.764 618.791 381.13 622.99 384.324C627.346 387.637 631.859 390.713 635.862 394.459C643.749 401.873 651.755 409.169 659.015 417.293C662.939 421.67 667.727 425.22 672.004 429.282C674.79 431.924 677.38 434.803 680.088 437.563C680.755 438.273 681.344 439.062 682.128 439.614C685.974 442.335 688.839 445.924 691.782 449.512C692.606 450.498 693.548 451.366 694.451 452.273C696.805 454.6 699.199 456.926 701.553 459.293C702.888 460.634 703.319 462.132 702.613 463.986C701.396 467.219 700.415 470.532 699.042 473.687C697.276 477.749 695.314 481.693 693.313 485.597C692.685 486.819 691.821 487.963 690.88 488.949C688.211 491.749 686.092 492.064 682.913 489.777C678.557 486.622 674.398 483.309 672.514 477.828H672.553Z" fill="#5EBDEB"/>
<path d="M676.281 486.938C677.537 487.884 678.832 488.752 680.009 489.777C686.445 495.298 690.644 493.563 694.254 487.569C697.315 482.442 699.434 476.724 701.906 471.242C702.769 469.31 703.476 467.298 704.418 464.972C705.32 465.997 705.987 466.628 706.537 467.377C708.695 470.414 711.52 472.701 714.66 474.633C717.682 476.526 720.978 476.842 724.117 475.107C726.079 474.042 727.728 472.464 729.533 471.124C730.082 470.69 730.592 470.256 731.377 469.586C731.691 473.687 731.809 477.394 732.319 481.101C732.79 484.69 733.3 486.504 734.046 490.171C733.339 490.093 692.606 559.067 687.857 563.641C687.857 563.641 655.757 560.565 653.049 559.974C657.68 549.168 677.537 497.585 676.32 486.938H676.281Z" fill="#27306E"/>
<path d="M478.892 667.754C476.851 670.041 475.046 672.723 472.024 674.142C471.318 674.458 469.984 674.734 469.709 674.418C469.12 673.709 468.532 672.407 468.806 671.618C470.258 667.083 472.495 662.942 475.948 659.59C476.341 659.196 477.126 658.959 477.675 659.078C479.637 659.433 481.56 659.985 484.268 660.655C481.796 662.509 479.873 663.928 477.754 665.506C478.068 666.137 478.421 666.847 478.931 667.793L478.892 667.754Z" fill="#5EBDEB"/>
<path d="M652.774 664.204C647.123 673.59 641.708 683.173 635.625 692.283C630.053 700.565 625.148 709.32 618.516 716.891C614.905 720.993 610.942 724.503 606.311 727.263C601.171 730.3 595.441 730.655 589.79 729.59C578.763 727.539 568.246 723.951 558.436 718.351C554.354 716.024 550.077 713.934 545.956 711.686C544.348 710.818 542.778 709.872 541.326 708.767C534.929 704.075 528.611 699.224 522.176 694.649C518.33 691.928 514.288 689.483 510.285 686.999C503.182 682.582 496.04 678.244 489.722 672.683C488.192 671.342 486.465 670.238 484.817 669.016C483.953 668.385 483.09 667.832 482.07 667.162C483.522 665.151 484.856 663.376 486.308 661.404C488.741 662.311 491.096 663.258 493.489 664.125C497.61 665.624 501.73 667.083 505.851 668.582C506.557 668.818 507.303 668.976 508.009 669.252C514.288 671.737 520.527 674.261 526.806 676.706C528.297 677.297 529.828 677.81 531.358 678.283C538.54 680.452 545.721 682.582 552.902 684.751C556.67 685.894 560.515 686.92 564.165 688.339C568.285 689.956 572.602 689.838 576.84 689.838C580.254 689.838 583.668 689.444 587.043 688.97C588.221 688.813 589.516 688.103 590.3 687.196C591.949 685.382 593.44 683.41 594.774 681.32C597.325 677.337 599.522 673.117 602.23 669.292C606.625 663.14 609.843 656.317 613.414 649.692C614.003 648.588 614.552 647.404 615.219 646.064C627.934 652.137 641.433 655.568 654.854 660.221C654.069 661.759 653.481 663.021 652.774 664.204Z" fill="#5EBDEB"/>
<path d="M656.189 658.131C649.753 657.461 619.85 646.931 616.279 644.131C618.634 640.188 621.067 636.283 623.304 632.261C626.129 627.174 628.68 621.968 631.505 616.881C634.331 611.793 637.274 606.824 640.453 601.343C641.434 602.447 642.062 603.078 642.611 603.788C644.966 606.982 647.987 609.269 651.597 610.886C654.933 612.385 658.033 614.317 661.33 615.816C665.686 617.827 670.159 619.602 675.064 621.652C670.238 634.706 661.761 645.748 656.15 658.092L656.189 658.131Z" fill="#27306E"/>
<path d="M714.503 629.776C711.874 629.106 709.284 628.554 706.733 627.844C699.277 625.833 691.899 623.624 684.404 621.731C674.79 619.326 665.372 616.526 656.856 611.281C655.757 610.61 654.619 609.979 653.403 609.546C649.125 607.968 646.104 604.971 643.16 601.54C640.335 598.227 639.707 594.796 640.61 590.813C640.688 590.38 640.767 589.946 640.767 589.512C640.649 579.219 645.986 571.095 651.009 562.813C651.715 561.67 652.539 561.552 653.717 561.709C662.742 562.813 671.768 563.918 680.833 564.943C683.698 565.259 686.602 565.259 689.466 565.574C690.683 565.692 691.939 566.047 693.038 566.56C695.824 567.901 698.571 569.36 701.318 570.78C704.065 572.199 706.851 573.658 709.637 574.999C711.835 576.064 714.071 577.089 716.387 577.957C720.389 579.456 724.471 580.757 728.473 583.123C727.728 585.647 727.061 588.132 726.276 590.577C725.53 592.943 724.588 595.23 723.921 597.596C722.862 601.225 721.998 604.853 721.017 608.481C720.9 608.915 720.86 609.348 720.664 609.703C717.564 615.146 716.818 621.298 715.406 627.253C715.249 627.962 714.895 628.633 714.464 629.698L714.503 629.776Z" fill="#27306E"/>
<path d="M872.846 752.739C867.352 743.235 861.936 733.691 856.403 724.227C852.871 718.193 849.379 712.12 845.572 706.244C842.786 701.906 839.529 697.883 836.507 693.703C835.801 692.756 835.095 691.81 834.467 690.824C831.838 686.762 829.405 682.582 826.579 678.638C820.81 670.554 813.747 663.652 806.212 657.185C803.308 654.7 799.894 653.32 796.362 651.9C786.552 647.996 776.113 646.34 766.107 643.185C759.161 641.016 752.293 638.571 745.308 636.441C741.541 635.297 737.617 634.588 733.732 633.681C728.198 632.419 722.665 631.157 716.779 629.776C718.466 623.191 719.016 616.684 722.234 610.926C722.704 610.098 722.901 609.112 723.058 608.165C724.274 599.884 728.12 592.43 730.2 583.991C732.397 584.779 734.477 585.253 736.322 586.199C742.365 589.394 748.997 590.813 755.393 592.943C761.28 594.875 767.402 596.137 773.327 598.03C781.49 600.633 789.691 603.196 797.304 607.258C801.739 609.624 806.408 611.596 810.843 614.002C816.69 617.157 822.616 620.193 827.325 625.083C829.248 627.095 831.72 628.593 833.564 630.644C839.922 637.743 844.631 645.945 848.516 654.661C850.281 658.683 852.204 662.666 853.892 666.728C856.364 672.801 858.719 678.954 861.073 685.066C862.407 688.497 863.428 692.007 864.919 695.359C868.725 703.996 869.903 713.382 872.65 722.334C875.357 731.167 877.987 740.041 880.655 748.914C881.165 750.649 881.793 752.384 882.303 754.159C883.559 758.26 884.776 762.401 885.992 766.502C886.306 767.528 886.502 768.553 886.777 769.854C885.6 770.091 884.619 770.288 883.284 770.564C879.753 764.57 876.26 758.655 872.807 752.739H872.846Z" fill="#5EBDEB"/>
<path d="M888.857 782.987C886.345 779.24 883.795 775.731 882.774 771.314C886.62 769.815 885.521 774.232 887.366 774.981C889.171 774.114 887.523 772.733 887.915 771.59C892.507 771.235 897.098 770.801 901.729 770.525C903.102 770.446 904.358 770.998 905.221 772.576C901.218 778.176 895.018 780.345 888.857 782.908V782.987Z" fill="#271515"/>
<path d="M961.416 589.788C962.711 592.115 963.966 594.481 965.34 596.729C966.125 597.951 967.184 599.016 968.126 600.12C969.853 602.131 971.54 604.182 973.385 606.115C978.368 611.36 984.098 615.54 991.083 617.748C994.065 618.695 997.087 619.641 1000.07 620.548C1004.62 621.929 1009.33 622.678 1014.08 622.954C1017.69 623.191 1021.34 623.506 1024.95 623.467C1027.7 623.467 1030.48 622.993 1033.54 622.717C1032.33 620.075 1029.46 618.695 1030.29 615.264C1033.11 616.999 1035.47 618.813 1037.15 621.534C1035.82 623.23 1034.17 624.413 1032.33 625.281C1025.58 628.436 1018.51 630.526 1011.17 631.906C1007.68 632.576 1004.23 633.483 1000.78 634.272C995.007 635.534 989.239 635.298 983.548 633.76C982.293 633.405 981.037 632.971 979.82 632.419C971.54 628.712 963.888 623.94 956.942 618.103C950.899 613.016 945.091 607.653 939.204 602.368C939.047 602.25 938.969 602.013 938.89 601.855C938.89 601.698 938.851 601.501 938.89 601.422C941.167 599.055 943.207 596.413 945.797 594.441C949.447 591.641 953.489 589.354 957.374 586.87C957.884 586.515 958.394 586.16 959.1 585.687C959.846 587.027 960.631 588.408 961.416 589.788Z" fill="#F78F43"/>
<path d="M957.06 578.391C957.688 580.323 958.355 582.255 957.845 584.346C957.727 584.779 957.491 585.292 957.138 585.529C954.509 587.224 951.841 588.92 949.133 590.498C948.662 590.774 947.916 590.813 947.367 590.655C942.226 589.078 937.125 587.461 931.984 585.844C931.67 585.726 931.356 585.568 930.924 585.371C933.043 580.284 935.084 575.354 937.164 570.306C937.792 570.464 938.302 570.582 938.812 570.74C942.54 572.16 946.229 573.619 949.918 575.078C951.997 575.906 954.077 576.734 956.118 577.602C956.471 577.76 956.942 578.036 957.02 578.351L957.06 578.391Z" fill="#27306E"/>
<path d="M948.544 527.833C944.855 528.543 941.088 529.095 937.281 528.622C935.79 528.464 934.259 527.991 932.964 527.281C929.433 525.349 926.882 522.391 924.802 518.999C921.702 513.991 920.25 508.509 919.622 502.712C919.151 498.374 918.288 494.076 916.247 490.171C913.736 485.36 910.008 481.929 904.474 480.943C902.316 480.549 900.158 480.864 898.117 481.732C891.76 484.414 885.049 485.952 878.261 486.662C871.668 487.371 864.957 487.45 858.6 484.848C856.246 483.862 853.93 482.6 851.772 481.219C846.749 477.986 842.668 473.805 839.921 468.403C839.803 468.166 839.646 467.929 839.489 467.693C835.212 461.896 834.662 455.231 835.133 448.408C835.369 444.977 836.153 441.625 836.781 438.234C837.017 436.932 837.331 435.591 837.919 434.408C839.685 430.859 840.392 426.955 841.53 423.208C842.158 421.158 843.099 419.147 844.159 417.293C845.532 414.848 847.965 414.375 850.516 414.493C851.811 414.572 852.518 415.597 853.185 416.662C855.382 420.251 856.481 424.234 857.266 428.335C858.168 432.87 860.17 436.853 863.427 440.087C866.056 442.69 869.274 444.189 873.12 444.622C877.633 445.135 881.832 444.622 885.952 442.611C888.974 441.152 892.074 439.811 895.252 438.746C899.569 437.327 904.043 436.853 908.477 437.918C910.322 438.352 912.166 439.22 913.775 440.284C917.699 442.848 920.839 446.2 923.075 450.38C925.116 454.205 927.157 458.07 929.55 461.698C932.572 466.312 935.437 471.203 939.596 474.91C943.952 478.774 949.054 481.141 955.136 480.391C958.119 479.997 961.101 479.721 964.084 479.326C965.261 479.169 966.438 478.932 967.537 478.498C970.716 477.236 973.855 475.895 976.994 474.476C980.016 473.096 983.234 473.096 986.452 473.135C987.354 473.135 988.257 473.805 989.12 474.279C989.944 474.791 990.651 475.501 991.475 476.014C994.693 478.064 995.007 481.18 994.183 484.374C993.358 487.726 991.907 490.842 989.317 493.326C987.668 494.904 986.334 496.836 984.764 498.571C983.901 499.557 982.842 500.385 981.625 501.49C981.076 500.031 980.644 498.926 980.291 497.822C980.016 496.915 979.506 496.6 978.564 496.757C976.013 497.231 973.463 497.507 971.03 498.532C968.91 499.4 966.634 499.912 964.437 500.622C963.927 500.78 963.456 501.056 962.985 501.253C964.986 505.512 964.986 505.591 962.279 509.85C960.042 508.115 957.53 507.839 954.862 508.746C953.449 509.219 952.546 510.323 951.84 511.507C950.663 513.518 950.427 515.687 950.859 518.014C951.33 520.419 953.057 521.642 954.862 522.746C954.155 526.256 951.526 527.321 948.622 527.873L948.544 527.833Z" fill="#F1645F"/>
<path d="M938.42 553.506C938.733 552.599 939.322 551.771 939.832 550.943C941.559 548.38 943.364 545.895 945.012 543.292C946.346 541.163 947.563 538.954 948.78 536.746C951.095 532.487 953.371 528.228 955.686 524.008C956.079 523.337 956.746 522.825 957.452 522.036C956.314 521.642 955.215 521.405 954.234 520.892C953.096 520.301 952.154 519.394 951.997 518.014C951.84 516.83 951.644 515.608 951.88 514.464C952.115 513.321 952.625 512.177 953.332 511.27C955.568 508.47 959.1 508.746 962.475 511.98C964.241 508.746 966.87 505.867 964.594 501.687C969.499 500.543 973.816 498.138 978.721 498.019C980.016 499.676 979.663 501.845 980.919 503.422C982.096 504.881 982.842 506.695 984.058 508.115C985.314 509.535 986.923 510.678 988.807 512.295C986.609 512.414 984.882 512.492 982.96 512.571C983.038 513.281 983.077 513.873 983.156 514.464C983.587 517.383 983.156 520.104 981.782 522.785C979.585 527.084 972.639 529.332 968.715 528.267C967.891 528.03 967.027 528.07 966.439 527.991C965.654 529.332 965.026 530.318 964.437 531.343C962.671 534.498 960.513 537.535 959.218 540.887C957.727 544.791 956.903 548.932 955.882 553.033C955.411 555.005 955.176 557.016 954.823 559.027C954.744 559.422 954.666 559.934 954.43 560.171C952.782 561.591 951.173 563.05 949.407 564.272C947.995 565.258 946.307 565.101 944.816 564.272C941.991 562.734 939.793 560.526 938.106 557.765C937.203 556.306 937.87 554.887 938.341 553.546L938.42 553.506Z" fill="#F78F43"/>
<path d="M916.444 567.151C915.031 562.971 911.774 560.171 908.439 557.647C902.748 553.309 896.509 549.839 889.955 546.96C887.601 545.935 885.129 545.146 882.539 544.199C881.832 547.788 881.126 551.14 880.537 554.492C879.713 559.106 878.968 563.76 878.222 568.413C877.045 575.827 875.907 583.281 873.945 590.537C873.631 591.681 873.277 592.824 872.728 593.889C871.982 595.309 870.609 595.703 869.392 594.757C866.645 592.706 863.938 590.498 863.231 586.83C863.153 586.515 863.153 586.16 863.114 585.805C865.664 585.805 866.488 588.171 868.411 589.591C868.49 588.841 868.686 588.368 868.608 588.013C866.371 579.219 865.154 570.227 864.252 561.236C863.742 556.07 862.917 550.943 862.447 545.737C861.976 540.413 861.74 535.09 861.387 529.766C861.269 528.03 861.191 526.256 861.073 524.521C860.759 519.709 861.465 514.977 862.015 510.245C862.133 509.377 862.447 508.47 862.839 507.642C863.585 506.222 864.369 504.802 865.272 503.462C865.821 502.712 866.567 501.884 867.391 501.569C869.981 500.583 872.689 500.425 875.396 501.411C878.575 502.594 881.44 504.132 884.187 506.183C887.012 508.352 889.955 510.324 892.585 512.808C897.725 517.659 902.945 522.391 907.693 527.676C910.244 530.515 913.383 532.842 916.169 535.484C917.975 537.219 919.701 539.073 921.428 540.887C921.86 541.321 922.252 541.873 922.762 542.228C925.274 544.002 927.157 546.329 929.041 548.656C929.551 549.287 930.179 549.878 930.807 550.47C932.337 552.008 933.907 553.506 935.437 555.044C936.301 555.912 936.575 556.898 936.144 558.12C935.359 560.211 934.731 562.38 933.828 564.43C932.69 567.073 931.395 569.636 930.1 572.199C929.708 572.988 929.119 573.737 928.492 574.408C926.726 576.222 925.352 576.458 923.311 574.96C920.486 572.909 917.739 570.74 916.523 567.191L916.444 567.151Z" fill="#F78F43"/>
<path d="M918.877 573.106C919.701 573.737 920.525 574.289 921.31 574.96C925.509 578.548 928.256 577.444 930.571 573.5C932.572 570.148 933.946 566.441 935.555 562.853C936.104 561.591 936.575 560.289 937.203 558.751C937.792 559.422 938.223 559.855 938.577 560.329C939.989 562.301 941.834 563.799 943.874 565.061C945.836 566.284 947.995 566.481 950.035 565.377C951.291 564.667 952.39 563.681 953.567 562.774C953.92 562.498 954.274 562.182 954.784 561.788C954.98 564.47 955.058 566.875 955.372 569.281C955.686 571.607 956.236 573.895 956.706 576.3C956.236 576.261 956 576.3 955.843 576.222C950.31 574.053 944.816 571.844 939.283 569.636C938.969 569.517 938.655 569.36 938.302 569.241C936.732 568.729 936.418 568.886 935.751 570.464C934.221 574.171 932.769 577.878 931.199 581.545C930.61 582.965 929.825 584.306 929.158 585.686C930.022 586.791 931.238 586.948 932.337 587.264C935.005 588.092 937.713 588.723 940.382 589.551C942.501 590.221 944.541 591.089 946.582 591.878C943.6 594.757 940.735 597.517 937.635 600.514C934.966 599.213 932.18 597.754 929.315 596.531C927.471 595.743 925.47 595.348 923.507 594.875C921.977 594.481 920.447 594.205 918.681 593.81C921.702 586.751 919.622 580.047 918.838 573.106H918.877Z" fill="#27306E"/>
<path d="M918.681 594.954C921.271 595.506 924.018 596.058 926.725 596.689C927.275 596.807 927.785 597.005 928.295 597.281C930.924 598.582 933.514 599.923 936.418 601.382C936.3 601.855 936.222 602.565 935.947 603.235C934.495 606.627 932.847 609.979 931.513 613.45C930.296 616.565 929.433 619.838 928.334 623.269C920.172 622.757 912.049 621.652 903.572 620.824C908.752 611.951 913.697 603.512 918.641 594.993L918.681 594.954Z" fill="#F78F43"/>
<path d="M790.201 690.981C788.867 692.48 787.69 694.215 785.728 695.162C785.257 695.359 784.394 695.556 784.237 695.319C783.844 694.846 783.491 694.018 783.648 693.505C784.59 690.548 786.042 687.866 788.318 685.658C788.593 685.421 789.103 685.263 789.456 685.303C790.712 685.539 791.967 685.894 793.733 686.328C792.124 687.551 790.869 688.458 789.495 689.483C789.691 689.917 789.927 690.351 790.241 690.981H790.201Z" fill="#F78F43"/>
<path d="M903.533 688.694C899.844 694.807 896.313 701.077 892.349 706.993C888.739 712.396 885.521 718.114 881.204 723.043C878.85 725.725 876.26 728.012 873.238 729.787C869.863 731.759 866.174 731.995 862.446 731.286C855.265 729.945 848.398 727.618 842.001 723.95C839.333 722.412 836.546 721.072 833.878 719.612C832.818 719.06 831.798 718.429 830.856 717.719C826.697 714.643 822.576 711.489 818.377 708.491C815.866 706.717 813.236 705.1 810.646 703.483C806.016 700.604 801.346 697.765 797.225 694.136C796.244 693.269 795.106 692.52 794.047 691.77C793.497 691.376 792.909 691.021 792.242 690.587C793.184 689.286 794.047 688.103 795.028 686.801C796.598 687.393 798.128 688.024 799.698 688.576C802.366 689.562 805.074 690.508 807.782 691.494C808.253 691.652 808.723 691.77 809.194 691.928C813.276 693.545 817.357 695.201 821.438 696.779C822.419 697.173 823.4 697.528 824.42 697.804C829.09 699.224 833.799 700.604 838.469 702.024C840.942 702.773 843.414 703.443 845.808 704.351C848.515 705.415 851.302 705.336 854.048 705.336C856.285 705.336 858.483 705.1 860.72 704.784C861.465 704.666 862.329 704.193 862.839 703.641C863.938 702.458 864.879 701.156 865.782 699.815C867.43 697.213 868.882 694.452 870.648 691.967C873.513 687.945 875.632 683.528 877.947 679.19C878.34 678.441 878.693 677.692 879.124 676.824C887.405 680.807 896.195 683.015 904.985 686.052C904.475 687.077 904.083 687.866 903.651 688.655L903.533 688.694Z" fill="#F78F43"/>
<path d="M905.809 684.711C901.61 684.277 882.107 677.416 879.792 675.562C881.322 672.999 882.931 670.435 884.383 667.832C886.227 664.52 887.875 661.128 889.72 657.816C891.564 654.503 893.487 651.269 895.567 647.68C896.195 648.39 896.626 648.824 896.98 649.258C898.51 651.348 900.472 652.807 902.827 653.872C904.985 654.858 907.026 656.12 909.184 657.106C912.049 658.407 914.953 659.551 918.131 660.931C914.992 669.449 909.459 676.627 905.809 684.711Z" fill="#27306E"/>
<path d="M943.796 666.216C942.069 665.782 940.382 665.427 938.734 664.954C933.868 663.652 929.08 662.193 924.175 660.971C917.896 659.393 911.774 657.579 906.202 654.148C905.495 653.714 904.75 653.32 903.965 653.004C901.179 651.979 899.217 650.007 897.294 647.799C895.449 645.63 895.057 643.421 895.645 640.819C895.724 640.542 895.763 640.266 895.724 639.99C895.645 633.286 899.138 628.002 902.395 622.599C902.866 621.85 903.415 621.771 904.161 621.889C910.047 622.599 915.934 623.348 921.82 623.979C923.704 624.176 925.587 624.176 927.471 624.374C928.256 624.452 929.08 624.689 929.786 625.005C931.631 625.872 933.397 626.858 935.202 627.765C937.007 628.672 938.812 629.619 940.617 630.526C942.069 631.235 943.521 631.906 945.012 632.458C947.642 633.444 950.271 634.272 952.9 635.85C952.429 637.506 951.958 639.123 951.487 640.7C951.017 642.238 950.389 643.737 949.957 645.275C949.29 647.641 948.701 650.007 948.073 652.373C947.995 652.649 947.995 652.926 947.838 653.162C945.837 656.711 945.326 660.734 944.424 664.599C944.306 665.072 944.071 665.506 943.796 666.216Z" fill="#27306E"/>
<path d="M1047 746.39C1043.43 740.198 1039.9 733.967 1036.29 727.815C1034.01 723.872 1031.7 719.928 1029.23 716.103C1027.42 713.303 1025.3 710.66 1023.3 707.939C1022.83 707.308 1022.4 706.717 1021.97 706.046C1020.24 703.404 1018.67 700.683 1016.83 698.12C1013.06 692.835 1008.47 688.339 1003.52 684.159C1001.64 682.542 999.402 681.635 997.087 680.728C990.69 678.165 983.862 677.1 977.348 675.049C972.835 673.63 968.322 672.013 963.809 670.632C961.337 669.883 958.786 669.41 956.275 668.818C952.665 667.99 949.054 667.162 945.208 666.294C946.307 661.996 946.66 657.776 948.78 654.03C949.094 653.478 949.211 652.847 949.329 652.216C950.114 646.813 952.625 641.962 953.999 636.441C955.412 636.954 956.785 637.269 958.001 637.9C961.926 639.99 966.282 640.937 970.441 642.317C974.287 643.579 978.29 644.407 982.136 645.63C987.473 647.325 992.81 648.982 997.793 651.624C1000.7 653.162 1003.72 654.463 1006.62 656.001C1010.43 658.052 1014.28 660.063 1017.38 663.218C1018.63 664.52 1020.24 665.506 1021.46 666.846C1025.62 671.5 1028.68 676.824 1031.19 682.503C1032.37 685.145 1033.58 687.708 1034.68 690.39C1036.29 694.334 1037.82 698.356 1039.35 702.339C1040.21 704.548 1040.88 706.874 1041.86 709.043C1044.33 714.683 1045.12 720.795 1046.89 726.632C1048.65 732.39 1050.38 738.187 1052.1 743.945C1052.46 745.088 1052.85 746.232 1053.2 747.336C1054.03 750.018 1054.81 752.7 1055.64 755.381C1055.83 756.052 1055.95 756.722 1056.15 757.55C1055.4 757.708 1054.73 757.826 1053.87 758.023C1051.56 754.119 1049.28 750.254 1047.04 746.39H1047Z" fill="#F78F43"/>
<path d="M1058.97 767.094C1057.28 764.57 1055.56 762.243 1054.89 759.246C1057.48 758.221 1056.74 761.218 1057.99 761.73C1059.21 761.139 1058.11 760.232 1058.34 759.483C1061.41 759.246 1064.51 758.97 1067.64 758.773C1068.59 758.733 1069.41 759.088 1070 760.153C1067.29 763.899 1063.17 765.398 1059.01 767.094H1058.97Z" fill="#F78F43"/>
<path d="M977.073 507.05C974.758 506.459 973.895 505.078 974.562 503.146C974.915 502.16 975.66 501.923 976.485 502.594C977.544 503.461 977.858 505.433 977.073 507.05Z" fill="#F78F43"/>
<g clip-path="url(#clip0_903_869)">
<path d="M914.525 290.479C912.595 292.845 910.512 295.11 908.328 297.221C898.015 307.169 884.807 314.318 870.075 317.345V308.415C882.318 305.541 893.291 299.409 901.952 291.064C904.797 288.317 907.388 285.34 909.699 282.16L914.551 290.479H914.525Z" fill="#ED1C24"/>
<path d="M946.479 281.168C936.827 271.856 930.833 259.008 930.833 244.888V205.759H921.815V244.888C921.815 251.757 920.672 259.848 918.615 266.081C916.532 259.848 915.414 251.757 915.414 244.888V205.759H906.372V244.888C906.372 259.008 900.377 271.856 890.725 281.168C884.985 286.739 877.898 291.039 870.049 293.583V302.716C880.413 299.867 889.684 294.499 897.101 287.324C902.689 281.931 907.21 275.545 910.36 268.447C912.722 274.604 915.313 280.43 918.564 284.857C921.815 280.43 924.406 274.604 926.768 268.447C929.918 275.545 934.439 281.956 940.028 287.324C947.444 294.499 956.716 299.867 967.079 302.716V293.583C959.23 291.013 952.169 286.714 946.403 281.168" fill="#ED1C24"/>
<path d="M891.97 244.074C891.97 254.378 887.601 263.74 880.565 270.508C877.517 273.459 873.986 275.901 870.075 277.759V287.248C876.45 284.908 882.191 281.269 886.966 276.69C895.628 268.32 900.987 256.795 900.987 244.074V235.246H891.97V244.074Z" fill="#ED1C24"/>
<path d="M945.285 235.246H936.268V244.074C936.268 256.769 941.653 268.32 950.315 276.69C955.064 281.269 960.805 284.908 967.18 287.248V277.759C963.294 275.901 959.738 273.459 956.69 270.508C949.654 263.715 945.285 254.352 945.285 244.074V235.246Z" fill="#ED1C24"/>
<path d="M927.556 282.16C929.868 285.34 932.458 288.317 935.303 291.09C943.965 299.435 954.912 305.566 967.155 308.441V317.371C952.423 314.343 939.215 307.194 928.902 297.247C926.692 295.11 924.635 292.871 922.705 290.505L927.556 282.185V282.16Z" fill="#ED1C24"/>
<path d="M737.484 259.848L716.199 301.877V305.54H737.484V317.371H703.803V300.198L725.063 258.169V246.338H716.199V258.169H703.803V239.927C703.803 236.747 705.937 234.483 709.239 234.483H732.049C735.351 234.483 737.484 236.747 737.484 239.927V259.822V259.848Z" fill="#5EBDEB"/>
<path d="M746.476 317.371C743.174 317.371 741.041 315.132 741.041 311.926V239.953C741.041 236.772 743.174 234.508 746.476 234.508H769.286C772.588 234.508 774.722 236.772 774.722 239.953V311.926C774.722 315.132 772.588 317.371 769.286 317.371H746.476ZM762.301 305.541V246.364H753.436V305.541H762.301Z" fill="#5EBDEB"/>
<path d="M812.771 259.848L791.486 301.877V305.54H812.771V317.371H779.09V300.198L800.35 258.169V246.338H791.486V258.169H779.09V239.927C779.09 236.747 781.224 234.483 784.526 234.483H807.336C810.638 234.483 812.771 236.747 812.771 239.927V259.822V259.848Z" fill="#5EBDEB"/>
<path d="M833.473 317.371V301.979H812.797V291.319L829.104 234.508H842.109L826.158 290.148H833.473V279.489L845.894 277.122V290.148H850.618V301.979H845.894V317.371H833.473Z" fill="#5EBDEB"/>
<path d="M860.473 210.848H702V218.48H860.473V210.848Z" fill="#ED1C24"/>
<path d="M970 338.385H705.022V345.025H970V338.385Z" fill="#ED1C24"/>
</g>
<g clip-path="url(#clip1_903_869)">
<path d="M247.923 136.428C247.923 139.412 245.924 141.517 242.824 141.517H214.139V116.045H225.767V130.442H236.294V104.97H225.767V93.8952H236.294V75.075H225.767V86.1501H214.139V64H242.824C245.924 64 247.923 66.1048 247.923 69.0894V90.7955C247.923 95.2271 245.817 98.2117 242.273 99.4286C245.817 100.654 247.923 103.531 247.923 108.07V136.419V136.428Z" fill="#ED1C24"/>
<path d="M288.903 64V141.517H277.274V116.045H266.197V141.517H254.568V64H288.903ZM277.274 75.075H266.197V104.978H277.274V75.075Z" fill="#ED1C24"/>
<path d="M324.233 92.7934C327.333 92.7934 329.332 94.8983 329.332 97.8911V136.428C329.332 139.42 327.342 141.525 324.233 141.525H295.548V64H328.222V75.075H307.177V92.7934H324.233ZM307.177 130.442H317.703V103.86H307.177V130.442Z" fill="#ED1C24"/>
<path d="M335.417 64H364.218V75.075H347.046V93.8952H363.659V104.978H347.046V130.442H364.218V141.517H335.417V64Z" fill="#ED1C24"/>
<path d="M398.002 64V75.075H381.94V141.517H370.312V64H398.002Z" fill="#ED1C24"/>
<path d="M258.63 176.345C256.977 176.543 256.147 176.641 254.494 176.806V192.107C256.147 191.934 256.977 191.844 258.63 191.646C258.63 187.182 258.63 180.818 258.63 176.345Z" fill="#5EBDEB"/>
<path d="M334.916 180.645C336.569 180.464 337.4 180.374 339.053 180.226C339.053 175.761 339.053 167.383 339.053 162.919C337.4 163.075 336.569 163.157 334.916 163.338C334.916 167.803 334.916 176.181 334.916 180.645Z" fill="#5EBDEB"/>
<path d="M383.807 136.617L381.505 145.061C381.077 144.633 380.633 144.288 380.189 144.049C324.052 113.505 269.832 174.734 213.374 154.236C211.91 153.554 210.561 154.343 209.871 156.358C209.18 158.372 209.254 161.299 210.076 163.971C213.933 175.309 217.848 186.516 221.853 197.673C215.537 206.602 208.908 214.808 201.902 221.788C196.383 227.281 204.18 236.53 208.744 239.161C222.544 247.104 239.592 246.479 254.823 244.037C271.649 241.34 287.678 235.215 303.854 230.092C321.256 224.575 339.53 219.848 357.927 222.125C357.68 222.092 358.798 222.339 360.386 222.676L343.403 285.065L354.218 288.008L394.622 139.568L383.807 136.625V136.617ZM246.426 218.368C244.691 218.475 243.819 218.516 242.084 218.582V197.533C240.184 197.607 239.23 197.624 237.33 197.64V218.689C235.595 218.705 234.723 218.689 232.988 218.656C232.988 209.011 232.988 183.276 232.988 173.632C234.723 173.673 235.595 173.673 237.33 173.665V193.505C239.23 193.488 240.184 193.472 242.084 193.398C242.084 188.933 242.084 178.023 242.084 173.558C243.819 173.492 244.691 173.451 246.426 173.344V218.368ZM262.973 215.531C261.238 215.77 260.366 215.885 258.631 216.09V195.774C256.978 195.971 256.147 196.07 254.494 196.234V217.069C252.759 217.25 251.887 217.332 250.152 217.472C250.152 207.827 250.152 182.717 250.152 173.073C255.283 172.654 257.841 172.358 262.973 171.65V215.531ZM287.571 171.568V207.663C289.141 207.359 289.931 207.202 291.502 206.898V201.521C293.237 201.176 294.109 201.011 295.844 200.666V210.179C291.559 211.026 289.421 211.453 285.136 212.275C283.977 212.497 283.237 211.848 283.237 210.738V170.179C283.237 169.061 283.985 168.14 285.136 167.918C289.421 167.096 291.559 166.668 295.844 165.821C295.844 169.126 295.844 170.779 295.844 174.092C294.109 174.438 293.237 174.61 291.502 174.948V170.812C289.931 171.124 289.141 171.272 287.571 171.576V171.568ZM311.14 166.98C309.487 167.285 308.657 167.441 307.004 167.753V208.016C305.269 208.345 304.397 208.518 302.662 208.855V168.592C301.009 168.913 300.178 169.077 298.525 169.406V165.27C303.566 164.275 306.091 163.774 311.14 162.845V166.98ZM326.856 204.711C325.121 204.958 324.249 205.089 322.514 205.369V185.957C320.861 186.22 320.031 186.351 318.378 186.631V206.043C316.642 206.339 315.771 206.487 314.035 206.8V162.327C319.167 161.406 321.725 160.978 326.856 160.238V204.711ZM343.395 182.101C343.395 183.219 342.646 184.049 341.495 184.148C338.863 184.362 337.548 184.485 334.916 184.781V203.511C333.181 203.708 332.309 203.807 330.574 204.037V159.729C334.941 159.161 337.128 158.923 341.495 158.569C342.655 158.479 343.395 159.211 343.395 160.329V182.101ZM358.7 162.171C357.047 162.129 356.216 162.121 354.563 162.129C354.563 170.401 354.563 194.039 354.563 202.31C352.828 202.31 351.956 202.335 350.221 202.384V162.203C348.568 162.253 347.737 162.294 346.084 162.384V158.249C351.125 157.969 353.65 157.912 358.7 158.027V162.162V162.171ZM366.142 201.965C364.489 201.833 363.659 201.776 362.006 201.702V197.525C363.659 197.607 364.489 197.657 366.142 197.788V201.965ZM366.142 184C365.813 188.07 365.649 190.101 365.312 194.171C364.317 194.097 363.823 194.064 362.828 194.014C362.499 189.903 362.335 187.848 361.997 183.737V157.977C363.65 158.06 364.481 158.109 366.134 158.24C366.134 162.754 366.134 179.486 366.134 184H366.142Z" fill="#5EBDEB"/>
<path d="M322.514 165.024C320.861 165.287 320.03 165.418 318.377 165.698V182.495C320.03 182.216 320.861 182.076 322.514 181.821V165.024Z" fill="#5EBDEB"/>
</g>
<path d="M593.269 83.6V66.2H619.369V188H601.099V83.6H593.269ZM656.792 123.62H643.742V130.58H625.472V66.2H674.192V83.6H643.742V106.22H667.058C671.93 106.22 675.062 109.526 675.062 114.224V179.996C675.062 184.694 671.93 188 667.058 188H633.476C628.604 188 625.472 184.694 625.472 179.996V147.98H643.742V170.6H656.792V123.62ZM761.131 188H742.861V119.792L722.851 161.726V188H704.581V66.2H722.851V128.144L742.861 86.21V66.2H761.131V188ZM834.866 188H802.154C797.282 188 794.15 184.694 794.15 179.996V132.32H784.58V188H766.31V66.2H784.58V114.92H794.15V74.204C794.15 69.506 797.282 66.2 802.154 66.2H834.866C839.738 66.2 842.87 69.506 842.87 74.204V179.996C842.87 184.694 839.738 188 834.866 188ZM812.42 170.6H824.6V83.6H812.42V170.6ZM886.37 66.2H904.64V188H886.37V130.58H866.36V188H848.09V66.2H866.36V113.18H886.37V66.2ZM925.654 188H906.34L924.262 130.58H918.694C913.822 130.58 910.69 127.274 910.69 122.576V74.204C910.69 69.506 913.822 66.2 918.694 66.2H963.76V188H945.49V130.58H943.75L925.654 188ZM945.49 113.18V83.6H928.96V113.18H945.49Z" fill="#F78F43"/>
<defs>
<clipPath id="clip0_903_869">
<rect width="268" height="281" fill="white" transform="translate(702 64)"/>
</clipPath>
<clipPath id="clip1_903_869">
<rect width="198" height="224" fill="white" transform="translate(200 64)"/>
</clipPath>
</defs>
</svg>
