<svg width="1170" height="1595" viewBox="0 0 1170 1595" fill="none" xmlns="http://www.w3.org/2000/svg">
<g clip-path="url(#clip0_903_9720)">
<rect width="1170" height="1595" fill="white" fill-opacity="0.34"/>
<g clip-path="url(#clip1_903_9720)">
<path d="M199.062 219.429C199.062 226.411 194.389 231.334 187.139 231.334H120.062V171.749H147.254V205.427H171.87V145.841H147.254V119.933H171.87V75.9076H147.254V101.815H120.062V50H187.139C194.389 50 199.062 54.9238 199.062 61.9056V112.682C199.062 123.049 194.139 130.031 185.85 132.878C194.139 135.743 199.062 142.475 199.062 153.092V219.409V219.429Z" fill="#ED1C24"/>
<path d="M294.889 50V231.334H267.697V171.749H241.793V231.334H214.601V50H294.889ZM267.697 75.9076H241.793V145.86H267.697V75.9076Z" fill="#ED1C24"/>
<path d="M377.504 117.356C384.754 117.356 389.427 122.28 389.427 129.281V219.429C389.427 226.43 384.773 231.354 377.504 231.354H310.427V50H386.831V75.9076H337.62V117.356H377.504ZM337.62 205.427H362.235V143.244H337.62V205.427Z" fill="#ED1C24"/>
<path d="M403.658 50H471.004V75.9076H430.851V119.933H469.697V145.86H430.851V205.427H471.004V231.334H403.658V50Z" fill="#ED1C24"/>
<path d="M550.004 50V75.9076H512.447V231.334H485.254V50H550.004Z" fill="#ED1C24"/>
<path d="M224.101 312.808C220.235 313.269 218.293 313.5 214.428 313.885V349.679C218.293 349.275 220.235 349.063 224.101 348.602C224.101 338.158 224.101 323.271 224.101 312.808Z" fill="#5EBDEB"/>
<path d="M402.485 322.867C406.351 322.444 408.293 322.232 412.158 321.886C412.158 311.442 412.158 291.843 412.158 281.399C408.293 281.765 406.351 281.957 402.485 282.38C402.485 292.824 402.485 312.423 402.485 322.867Z" fill="#5EBDEB"/>
<path d="M516.812 219.871L511.428 239.624C510.428 238.624 509.389 237.816 508.351 237.258C377.081 165.805 250.293 309.038 118.274 261.089C114.851 259.492 111.697 261.339 110.081 266.051C108.466 270.763 108.639 277.61 110.562 283.861C119.581 310.384 128.735 336.6 138.101 362.7C123.331 383.587 107.831 402.783 91.4468 419.112C78.543 431.96 96.7737 453.598 107.447 459.752C139.716 478.332 179.581 476.87 215.197 471.158C254.543 464.849 292.024 450.52 329.851 438.538C370.543 425.632 413.274 414.573 456.293 419.9C455.716 419.824 458.331 420.401 462.043 421.189L422.331 567.134L447.62 574.019L542.101 226.776L516.812 219.89V219.871ZM195.562 411.111C191.505 411.361 189.466 411.457 185.408 411.611V362.373C180.966 362.546 178.735 362.584 174.293 362.623V411.861C170.235 411.899 168.197 411.861 164.139 411.784C164.139 389.223 164.139 329.022 164.139 306.461C168.197 306.557 170.235 306.557 174.293 306.538V352.948C178.735 352.91 180.966 352.871 185.408 352.698C185.408 342.254 185.408 316.731 185.408 306.288C189.466 306.134 191.505 306.038 195.562 305.788V411.111ZM234.255 404.475C230.197 405.033 228.158 405.302 224.101 405.783V358.257C220.235 358.718 218.293 358.949 214.428 359.334V408.072C210.37 408.495 208.331 408.687 204.274 409.014C204.274 386.453 204.274 327.714 204.274 305.153C216.274 304.172 222.255 303.48 234.255 301.825V404.475ZM291.774 301.633V386.069C295.447 385.357 297.293 384.991 300.966 384.28V371.701C305.024 370.893 307.062 370.509 311.12 369.701V391.954C301.101 393.935 296.101 394.935 286.081 396.859C283.37 397.378 281.639 395.858 281.639 393.262V298.383C281.639 295.767 283.389 293.613 286.081 293.093C296.101 291.17 301.101 290.17 311.12 288.189C311.12 295.921 311.12 299.787 311.12 307.538C307.062 308.346 305.024 308.75 300.966 309.538V299.864C297.293 300.594 295.447 300.941 291.774 301.652V301.633ZM346.889 290.901C343.024 291.612 341.081 291.978 337.216 292.709V386.896C333.158 387.665 331.12 388.069 327.062 388.857V294.671C323.197 295.421 321.255 295.805 317.389 296.575V286.9C329.178 284.573 335.081 283.4 346.889 281.226V290.901ZM383.639 379.164C379.581 379.741 377.543 380.048 373.485 380.702V335.292C369.62 335.907 367.678 336.215 363.812 336.869V382.28C359.755 382.972 357.716 383.318 353.658 384.049V280.015C365.658 277.86 371.639 276.86 383.639 275.129V379.164ZM422.312 326.271C422.312 328.887 420.562 330.83 417.87 331.061C411.716 331.561 408.639 331.849 402.485 332.541V376.356C398.428 376.817 396.389 377.048 392.331 377.587V273.937C402.543 272.61 407.658 272.052 417.87 271.225C420.581 271.013 422.312 272.725 422.312 275.341V326.271ZM458.101 279.649C454.235 279.553 452.293 279.534 448.428 279.553C448.428 298.902 448.428 354.199 448.428 373.548C444.37 373.548 442.331 373.605 438.274 373.721V279.726C434.408 279.841 432.466 279.938 428.601 280.149V270.475C440.389 269.821 446.293 269.686 458.101 269.955V279.63V279.649ZM475.505 372.74C471.639 372.432 469.697 372.297 465.831 372.124V362.354C469.697 362.546 471.639 362.661 475.505 362.969V372.74ZM475.505 330.714C474.735 340.235 474.351 344.986 473.562 354.506C471.235 354.333 470.081 354.256 467.755 354.141C466.985 344.524 466.601 339.716 465.812 330.099V269.84C469.678 270.032 471.62 270.148 475.485 270.455C475.485 281.015 475.485 320.155 475.485 330.714H475.505Z" fill="#5EBDEB"/>
<path d="M373.485 286.323C369.62 286.939 367.677 287.246 363.812 287.9V327.195C367.677 326.541 369.62 326.214 373.485 325.617V286.323Z" fill="#5EBDEB"/>
</g>
<path d="M46.5036 2438.97C46.5036 2438.97 -111.293 1799.28 115.095 1646.28C341.483 1493.28 849.245 1311.31 1043.25 1278.96C1237.26 1246.6 1356.29 1432.86 1358 1588.28L46.5036 2438.97Z" fill="#CAEFFC"/>
<g filter="url(#filter0_d_903_9720)">
<path d="M1208.86 1554.69C1155.17 1678.69 993.259 1661.65 847.071 1669.07C732.186 1674.81 515.309 1917.86 219.657 2125.09C-79.2862 2334.74 -357.234 2102.06 -350.894 1941.26C-344.543 1777.3 -199.68 1709.73 200.094 1483.99C483.487 1323.95 1084.67 1258.29 1191.55 1406.48C1222.85 1450.52 1232.44 1501.04 1208.86 1554.69Z" fill="#88D8FC"/>
</g>
<path d="M-297.11 2082.6C-334.21 2036.89 -353.661 1986.88 -351.889 1941.77C-345.46 1775.23 -195.098 1705.75 199.427 1482.56C334.317 1406.22 549.646 1346.94 761.363 1327.86C981.557 1308.05 1142.2 1336.92 1191.31 1405.14C1209.54 1430.84 1223.58 1462.67 1221.86 1500.95C1220.65 1520.56 1216.11 1539.31 1208.73 1555.24C1162.75 1661.67 1040.79 1664.81 911.682 1668.13C800.441 1671.04 795.824 1658.73 536.349 1877.09C443.559 1955.16 338.388 2043.67 219.551 2127.14C21.7695 2266.16 -187.533 2216.9 -297.11 2082.6ZM862.76 1324.46C663.129 1328.9 380.927 1382.41 199.937 1484.85C-195.486 1708.66 -344.007 1777.77 -350.336 1941.93C-356.603 2101.28 -79.7708 2334.89 218.92 2124.92C337.711 2041.47 442.851 1953 535.611 1874.94C794.848 1656.82 801.685 1668.52 911.66 1665.7C1040.36 1662.39 1161.92 1659.26 1207.44 1553.86C1214.68 1538.29 1219.12 1519.95 1220.3 1500.76C1222.01 1463.11 1207.99 1431.97 1190.28 1406.95C1149.34 1350.08 1029.9 1320.74 862.76 1324.46Z" fill="#0F2572"/>
<path d="M250.543 1406.43C233.28 1396.93 240.702 1374.63 237.3 1353.42C235.579 1342.76 230.984 1336.8 230.785 1329.77C230.767 1329.74 230.767 1329.74 230.784 1329.7C230.746 1329.46 230.714 1329.22 230.69 1328.98C229.034 1313.5 212.796 1300.97 204.315 1301.81C195.617 1302.66 187.305 1319.28 182.12 1332.42C170.308 1362.37 181.597 1364.11 167.187 1389.56C163.395 1399.41 137.221 1413.43 165.575 1467.19C169.994 1475.64 175.139 1482.65 180.799 1487.94C192.127 1497.35 201.71 1484.2 212.781 1482.58C223.492 1480.97 230.757 1484.99 244.338 1457.89C250.826 1445.18 258.553 1410.86 250.543 1406.43Z" fill="white"/>
<path d="M190.562 1491.79C179.896 1492.84 172.47 1479.55 165.354 1467.59C162.135 1461.74 159.215 1455.35 156.631 1448.49C142.8 1410.27 164.082 1396.7 166.936 1389.22C181.244 1363.94 170.035 1362.1 181.874 1332.08C189.106 1313.76 197.87 1297.85 209.505 1301.93C214.651 1303.63 229.32 1313.2 230.991 1328.87C231.887 1338.23 235.883 1342.6 237.592 1353.26C241.069 1374.85 233.581 1396.5 250.629 1405.88C256.595 1409.19 253.921 1428.1 251.157 1439.25C246.926 1456.11 239.734 1469.77 230.773 1477.95C225.031 1481.91 218.922 1483.68 212.807 1483.16C205.159 1484.27 198.082 1491.05 190.562 1491.79ZM165.914 1467.02C188.588 1508.99 195.827 1482.6 216.54 1481.72C220.554 1482.26 224.582 1481.17 228.348 1478.53C248.819 1465.23 259.277 1411.86 250.454 1406.99C238.229 1400.25 238.162 1386.88 238.089 1372.72C238.73 1361.74 237.15 1350.72 233.659 1341.81C232.155 1338.37 231.079 1334.35 230.508 1330.05C230.472 1329.94 230.457 1329.82 230.464 1329.7C230.432 1329.5 230.405 1329.29 230.386 1329.08C228.756 1313.83 212.614 1301.57 204.334 1302.38C195.298 1303.27 186.699 1321.79 182.375 1332.75C170.589 1362.6 181.948 1364.27 167.396 1389.98C163.084 1401.29 137.462 1413.27 165.759 1466.73C165.824 1466.8 165.877 1466.9 165.914 1467.02Z" fill="#0F2572"/>
<path d="M230.646 1477.43C230.611 1477.4 230.595 1477.43 230.578 1477.47C224.894 1481.41 218.838 1483.15 212.781 1482.58C200.846 1484.32 191.635 1498.59 179.035 1486.38C174.127 1481.08 169.603 1474.63 165.575 1467.19C157.535 1451.94 164.609 1467.04 172.444 1462.47C173.611 1461.92 174.668 1460.74 175.483 1459.09C176.298 1457.44 176.837 1455.37 177.032 1453.16C177.914 1441.1 168.72 1424.96 172.971 1415.23C175.41 1409.63 180.649 1410.6 184.915 1409.34C189.897 1407.31 194.262 1401.75 197.091 1393.83C199.919 1385.92 200.99 1376.26 200.077 1366.9C198.732 1354.58 194.309 1341.05 198.096 1330.79C201.423 1321.81 207.242 1324.08 209.444 1302.49C216.134 1305.32 222.431 1310.75 227.924 1318.42C231.321 1322.94 229.862 1327.87 231.569 1334.38C226.751 1342.17 219.46 1360.37 220.059 1372.16C220.139 1374.88 220.708 1377.48 221.673 1379.52C222.639 1381.57 223.945 1382.95 225.383 1383.45C227.82 1383.09 230.198 1381.85 232.384 1379.81C234.719 1378.42 238.01 1379.19 238.567 1383.12C239.021 1386.38 237.215 1389.45 235.776 1392.09C233.451 1396.05 231.693 1401.03 230.66 1406.58C229.627 1412.13 229.352 1418.07 229.859 1423.87C230.181 1426.45 230.83 1428.85 231.752 1430.87C232.675 1432.89 233.843 1434.46 235.16 1435.46C236.476 1436.45 237.902 1436.84 239.316 1436.6C240.731 1436.35 242.093 1435.48 243.288 1434.04C247.402 1429.09 250.981 1422.74 253.839 1415.32C255.065 1432.17 245.69 1464.29 230.646 1477.43Z" fill="white"/>
<path d="M179.787 1487.7C172.932 1480.8 166.82 1471.59 161.759 1460.54C161.713 1460.44 161.686 1460.31 161.682 1460.18C161.679 1460.05 161.7 1459.92 161.741 1459.82C161.782 1459.71 161.841 1459.64 161.908 1459.6C161.976 1459.57 162.048 1459.58 162.112 1459.63C165.279 1462.59 168.901 1463.4 172.355 1461.93C173.469 1461.42 174.478 1460.31 175.256 1458.73C176.034 1457.16 176.547 1455.2 176.73 1453.08C177.587 1441.21 168.324 1424.97 172.731 1414.87C175.267 1409.04 180.643 1410.02 184.861 1408.78C189.76 1406.77 194.052 1401.3 196.833 1393.51C199.615 1385.72 200.67 1376.23 199.777 1367.02C198.408 1354.65 193.972 1340.94 197.844 1330.47C199.812 1326.53 202.04 1323.07 204.475 1320.18C209.288 1312.16 208.445 1301.65 209.497 1301.93C216.233 1304.77 222.573 1310.23 228.104 1317.95C229.015 1319.3 229.751 1321.02 230.258 1322.97C230.766 1324.93 231.031 1327.07 231.035 1329.24C231.046 1329.34 231.06 1329.43 231.078 1329.52C231.099 1329.81 231.129 1330.09 231.17 1330.37C231.318 1331.52 231.513 1332.66 231.756 1333.76L231.843 1334.12C231.873 1334.24 231.882 1334.37 231.868 1334.49C231.855 1334.62 231.82 1334.73 231.769 1334.81C227.03 1342.49 219.783 1360.58 220.363 1372.1C220.443 1374.69 220.983 1377.16 221.897 1379.11C222.812 1381.06 224.048 1382.38 225.412 1382.88C229.308 1383.56 233.208 1375.43 237.445 1379.76C237.788 1380.09 238.092 1380.54 238.336 1381.09C238.581 1381.64 238.762 1382.28 238.868 1382.97C239.789 1389.58 233.381 1392.59 230.591 1408.65C228.868 1418.82 229.775 1430.35 234.908 1434.63C244.456 1442.55 252.774 1414.18 253.923 1414.77C254.315 1415.01 254.222 1418.24 254.197 1419.01C253.698 1444.07 239.203 1477.12 224.072 1481.77C214.788 1484.74 216.29 1479.89 201.874 1487.49C193.615 1491.84 187.538 1494.54 179.787 1487.7ZM165.914 1467.02C188.361 1507.56 195.627 1484.52 212.757 1482.01C217.974 1482.32 223.187 1481.16 228.221 1478.59C228.257 1478.55 228.298 1478.53 228.339 1478.53C228.947 1478.11 229.62 1477.6 230.461 1476.94C241.325 1468.98 254.198 1438.24 253.592 1416.76C243.529 1439.44 238.576 1438.91 234.663 1435.68C227.483 1429.73 226.908 1407.29 235.808 1391.22C237.141 1388.78 238.653 1386.01 238.274 1383.26C238.19 1382.72 238.046 1382.22 237.852 1381.79C237.658 1381.37 237.418 1381.02 237.147 1380.77C233.203 1376.71 229.491 1384.72 225.358 1384.02C223.852 1383.5 222.482 1382.06 221.465 1379.92C220.449 1377.78 219.844 1375.07 219.747 1372.21C219.147 1360.36 226.292 1342.28 231.193 1334.22C230.855 1332.83 230.615 1331.37 230.477 1329.87L230.486 1329.87L230.475 1329.81C230.051 1327.09 230.353 1322.36 227.752 1318.89C222.367 1311.4 216.219 1306.05 209.686 1303.16C209.431 1307.55 208.634 1311.77 207.358 1315.49C206.081 1319.21 204.36 1322.33 202.33 1324.6C192.652 1336.88 198.281 1347.67 200.372 1366.78C201.305 1376.3 200.218 1386.12 197.343 1394.16C194.467 1402.21 190.027 1407.85 184.961 1409.91C180.776 1411.15 175.547 1410.23 173.216 1415.6C169.122 1424.93 178.242 1440.99 177.337 1453.23C177.141 1455.56 176.581 1457.73 175.728 1459.47C174.875 1461.21 173.766 1462.44 172.54 1463.02C165.299 1467.26 159.65 1455.19 165.759 1466.73C165.822 1466.8 165.875 1466.9 165.914 1467.02Z" fill="#0F2572"/>
<path d="M247.221 1449.15L247.403 1450.59C246.487 1453.17 245.462 1455.61 244.338 1457.89C240.542 1466.15 235.853 1472.82 230.578 1477.47C224.894 1481.41 218.838 1483.15 212.78 1482.58C196.853 1484.9 189.276 1505.61 169.426 1473.81C171.96 1476.11 174.591 1478.02 177.293 1479.52C178.82 1480.27 180.416 1480.41 181.974 1479.92C183.532 1479.43 185.016 1478.34 186.33 1476.7C187.643 1475.06 188.756 1472.92 189.593 1470.42C190.43 1467.92 190.973 1465.12 191.186 1462.2C191.28 1455.16 187.925 1447.82 188.626 1440.98C189.479 1432.78 195.168 1431.35 199.257 1427.55C201.624 1425.2 203.662 1421.84 205.208 1417.76C206.754 1413.67 207.765 1408.96 208.159 1404.01C209.199 1390.3 205.296 1376.91 205.082 1363.2C204.962 1357.03 206.052 1355.19 208.741 1352.05C222.599 1335.75 215.253 1323.82 218.07 1307.71C221.526 1310.7 224.825 1314.29 227.924 1318.42C231.113 1322.66 230.257 1328.88 230.785 1329.77C230.785 1329.78 230.786 1329.8 230.789 1329.82C230.793 1329.83 230.798 1329.85 230.804 1329.86C230.811 1330.09 230.835 1330.31 230.875 1330.53C231.378 1334.29 231.749 1333.27 230.608 1335.08C224.844 1344.79 217.761 1355.92 214.398 1371.49C213.096 1376.67 212.787 1382.53 213.524 1388.08C213.94 1390.8 214.856 1393.17 216.111 1394.77C217.366 1396.36 218.881 1397.08 220.392 1396.81C221.653 1396.4 222.856 1395.12 224.114 1394.58C225.372 1394.04 226.95 1394.53 227.437 1396.54C228 1398.82 226.959 1401.56 227.064 1404.08C227.199 1407.02 228.609 1408.23 230.303 1408.48C230.015 1410.1 229.803 1411.77 229.668 1413.46C229.101 1420.03 230.125 1416.8 228.566 1420.72C225.366 1427.39 223.327 1435.72 222.719 1444.6C222.623 1446.58 222.769 1448.57 223.146 1450.42C223.523 1452.27 224.122 1453.94 224.896 1455.3C225.67 1456.66 226.6 1457.68 227.615 1458.26C228.63 1458.85 229.704 1459 230.755 1458.7C236.023 1456.77 242.178 1444.79 247.221 1449.15Z" fill="white"/>
<path d="M169.22 1474.24C169.165 1474.15 169.13 1474.03 169.119 1473.89C169.109 1473.76 169.125 1473.62 169.164 1473.5C169.203 1473.39 169.263 1473.3 169.333 1473.26C169.403 1473.22 169.478 1473.23 169.545 1473.28C172.071 1475.54 174.685 1477.44 177.365 1478.96C178.848 1479.69 180.398 1479.83 181.911 1479.36C183.424 1478.89 184.867 1477.83 186.144 1476.25C187.421 1474.66 188.504 1472.59 189.32 1470.16C190.136 1467.74 190.668 1465.02 190.879 1462.19C190.97 1455.23 187.592 1447.96 188.327 1440.87C189.221 1432.31 195.029 1430.84 199.121 1427.03C201.443 1424.72 203.442 1421.42 204.959 1417.41C206.477 1413.4 207.469 1408.78 207.858 1403.93C208.995 1388.81 202.899 1366.33 205.301 1357.15C206.093 1354.75 207.23 1352.81 208.583 1351.57C216.937 1341.73 217.409 1335.24 217.183 1321.51C217.133 1318.59 217.077 1307.91 217.94 1307.18C221.541 1310.03 224.952 1313.64 228.104 1317.95C228.861 1318.98 229.494 1320.29 229.961 1321.81C230.429 1323.32 230.721 1325 230.819 1326.73C230.817 1326.66 230.842 1326.96 230.842 1326.93C230.86 1327.57 230.977 1328.61 231.035 1329.24C231.042 1329.31 231.088 1329.59 231.09 1329.64C231.135 1329.92 231.099 1330 231.161 1330.34C231.308 1331.41 231.487 1332.45 231.697 1333.48C232.158 1335.91 219.486 1349.45 214.678 1371.71C213.385 1376.75 213.081 1382.48 213.819 1387.9C214.22 1390.49 215.089 1392.73 216.278 1394.26C217.467 1395.78 218.902 1396.48 220.338 1396.25C221.561 1395.84 222.78 1394.57 224.05 1394.02C224.711 1393.61 225.425 1393.61 226.086 1394.02C226.747 1394.44 227.319 1395.23 227.716 1396.3C228.353 1398.85 227.262 1401.59 227.375 1404.03C227.507 1406.89 229.052 1407.72 230.329 1407.91C230.375 1407.92 230.42 1407.94 230.459 1407.99C230.499 1408.03 230.533 1408.09 230.559 1408.16C230.585 1408.23 230.602 1408.31 230.609 1408.4C230.616 1408.48 230.613 1408.57 230.6 1408.65C230.042 1411.79 229.768 1415.09 229.791 1418.39C229.816 1419.87 223.06 1432.26 223.034 1444.6C222.999 1446.72 223.218 1448.83 223.676 1450.78C224.134 1452.72 224.818 1454.45 225.68 1455.84C232.278 1465.93 240.162 1442.46 247.355 1448.63C247.536 1448.77 247.572 1449.39 247.61 1449.76L247.699 1450.46C247.972 1452.45 239.673 1470.22 230.773 1477.95C230.753 1477.97 230.73 1477.99 230.706 1477.99C226.293 1481.87 221.418 1483.54 216.555 1482.86C196.451 1483.73 190.083 1507.49 169.22 1474.24ZM171.307 1475.99C190.455 1504.82 197.107 1482.55 216.54 1481.72C220.549 1482.17 224.564 1481.09 228.339 1478.53C238.617 1471.41 247.281 1452 246.96 1449.55C240.115 1444.2 232.187 1467.36 225.292 1456.73C224.36 1455.23 223.619 1453.36 223.121 1451.27C222.623 1449.17 222.382 1446.89 222.414 1444.6C223.007 1435.59 225.067 1427.14 228.317 1420.38C229.786 1416.67 228.787 1419.98 229.366 1413.37C229.482 1411.88 229.659 1410.41 229.896 1408.98C227.991 1408.51 226.886 1406.81 226.758 1404.13C226.651 1401.64 227.652 1398.77 227.162 1396.77C226.735 1395.06 225.331 1394.63 224.185 1395.15C222.755 1396.2 221.275 1397 219.764 1397.52C214.964 1397.99 210.529 1387.87 214.116 1371.28C217.39 1356.07 223.972 1345.44 230.397 1334.65C231.352 1333.16 231.01 1334.06 230.577 1330.67C229.864 1327.28 230.582 1322.67 227.752 1318.89C224.76 1314.91 221.584 1311.43 218.261 1308.5C215.835 1324.15 222.645 1336.63 208.819 1352.64C206.212 1355.68 205.291 1357.37 205.394 1363.18C205.598 1376.91 209.519 1390.13 208.464 1404.09C208.06 1409.13 207.029 1413.93 205.454 1418.09C203.878 1422.25 201.801 1425.66 199.391 1428.06C192.208 1434.77 186.303 1433.68 190.141 1452.15C191.037 1454.87 191.506 1458 191.494 1461.19C191.482 1464.39 190.99 1467.51 190.074 1470.21C188.812 1474.26 186.869 1477.42 184.547 1479.21C182.224 1480.99 179.65 1481.3 177.225 1480.08C175.196 1479.02 173.216 1477.66 171.307 1475.99Z" fill="#0F2572"/>
<path d="M210.809 1510.44L198.266 1511.68C200.8 1502.05 202.442 1491.69 203.122 1481.04C203.279 1479.3 204.532 1471.12 206.923 1471.89C207.128 1471.96 208.731 1473.4 208.889 1479C209.04 1484.38 207.194 1499.43 210.809 1510.44Z" fill="white"/>
<path d="M210.824 1511.02L198.281 1512.25C198.227 1512.26 198.173 1512.24 198.124 1512.19C198.076 1512.14 198.036 1512.07 198.008 1511.98C197.424 1510.39 200.559 1508.16 202.659 1482.74C203.964 1467.8 208.901 1468.41 209.198 1478.97C209.355 1484.54 207.512 1499.31 211.074 1510.15C211.101 1510.23 211.115 1510.33 211.116 1510.43C211.117 1510.53 211.105 1510.63 211.08 1510.72C211.055 1510.8 211.018 1510.88 210.973 1510.93C210.928 1510.99 210.877 1511.02 210.824 1511.02ZM198.798 1511.05L210.285 1509.92C206.955 1498.78 208.729 1484.26 208.581 1479.03C208.428 1473.6 206.874 1472.46 206.865 1472.45C205.069 1471.83 203.696 1477.99 203.422 1481.14C202.771 1491.52 201.208 1501.62 198.798 1511.05Z" fill="#0F2572"/>
<path d="M901.115 72.284C965.21 63.1388 1030.62 65.605 1061.13 69.4909C1097.21 74.0845 1109.18 77.5316 1141.12 79.2665C1169.5 80.8084 1244.94 69.7485 1235.29 78.0678C1222.7 88.9123 1226.14 131.384 1244.94 149.092C1247.67 151.667 1158.33 158.044 1104.2 153.282C1029.57 146.715 1005.55 135.703 956.543 140.713C938.39 142.612 916.876 146.168 901.5 151.187C910.5 138 927 120.5 932 107.5C923.5 91 910.5 84.5 901.115 72.284Z" fill="#FC645D"/>
<path d="M991.799 97.4L995.179 90H998.519L993.139 100.82C991.919 103.26 990.519 104.22 988.559 104.22C987.359 104.22 986.419 103.9 985.539 103.4L986.739 101.14C987.299 101.48 987.859 101.6 988.399 101.6C988.959 101.6 989.599 101.34 990.159 100.48L984.559 90H987.999L991.799 97.4ZM1008.69 104V98.78C1007.75 99.24 1006.41 99.82 1004.99 99.82C1002.21 99.82 1000.29 98.36 1000.29 95.12V90H1003.37V94.22C1003.37 95.96 1004.05 96.94 1005.63 96.94C1006.87 96.94 1008.05 96.54 1008.69 96.04V90H1011.77V104H1008.69ZM1013.92 104L1019.92 89.9H1022.76L1028.76 104H1025.54L1024.26 100.86H1018.34L1017.06 104H1013.92ZM1019.44 98.14H1023.16L1021.3 93.6L1019.44 98.14ZM1037.48 104.24C1033.36 104.24 1030.3 101.06 1030.3 97C1030.3 93.02 1033.3 89.76 1037.6 89.76C1040.24 89.76 1041.72 90.76 1043.02 92.04L1041.18 94.16C1040.1 93.18 1039.18 92.6 1037.58 92.6C1035.22 92.6 1033.52 94.56 1033.52 97C1033.52 99.4 1035.18 101.4 1037.58 101.4C1039.18 101.4 1040.16 100.76 1041.26 99.76L1043.22 101.86C1041.78 103.4 1040.18 104.24 1037.48 104.24ZM1048.94 104V92.84H1044.68V90H1056.28V92.84H1052.02V104H1048.94ZM1070.71 90V104H1067.67V94.82L1061.55 104H1058.65V90H1061.69V99.18L1067.85 90H1070.71ZM1074.08 104V90H1084.64V92.74H1077.14V95.58H1083.74V98.32H1077.14V101.26H1084.74V104H1074.08ZM972.953 111.78V114.22H976.653C979.813 114.22 981.573 115.94 981.573 118.56C981.573 121.42 979.593 123 976.353 123H969.873V109H980.613V111.78H972.953ZM976.333 116.78H972.953V120.22H976.353C977.793 120.22 978.493 119.66 978.493 118.44C978.493 117.36 977.793 116.78 976.333 116.78ZM984.112 123V109H994.672V111.74H987.172V114.58H993.772V117.32H987.172V120.26H994.772V123H984.112ZM1004.07 123.24C999.95 123.24 996.89 120.06 996.89 116C996.89 112.02 999.89 108.76 1004.19 108.76C1006.83 108.76 1008.31 109.76 1009.61 111.04L1007.77 113.16C1006.69 112.18 1005.77 111.6 1004.17 111.6C1001.81 111.6 1000.11 113.56 1000.11 116C1000.11 118.4 1001.77 120.4 1004.17 120.4C1005.77 120.4 1006.75 119.76 1007.85 118.76L1009.81 120.86C1008.37 122.4 1006.77 123.24 1004.07 123.24ZM1012.28 123V109H1023.96V123H1020.88V111.78H1015.36V123H1012.28ZM1029.17 109H1039.17V123H1036.09V111.78H1032.05V112.84C1032.05 121.08 1030.71 123.18 1027.51 123.18C1027.01 123.18 1026.27 123.1 1025.89 123L1026.09 120.46C1026.23 120.48 1026.37 120.5 1026.57 120.5C1028.23 120.5 1029.17 119.44 1029.17 111.9V109ZM1041.33 123L1047.33 108.9H1050.17L1056.17 123H1052.95L1051.67 119.86H1045.75L1044.47 123H1041.33ZM1046.85 117.14H1050.57L1048.71 112.6L1046.85 117.14ZM1061.59 123V111.84H1057.33V109H1068.93V111.84H1064.67V123H1061.59ZM1071.3 123V109H1074.38V114.54H1080.06V109H1083.14V123H1080.06V117.38H1074.38V123H1071.3ZM1093.29 123.24C1088.97 123.24 1085.87 120.02 1085.87 116C1085.87 112.02 1089.01 108.76 1093.33 108.76C1097.65 108.76 1100.75 111.98 1100.75 116C1100.75 119.98 1097.61 123.24 1093.29 123.24ZM1093.33 120.4C1095.81 120.4 1097.53 118.44 1097.53 116C1097.53 113.6 1095.77 111.6 1093.29 111.6C1090.81 111.6 1089.09 113.56 1089.09 116C1089.09 118.4 1090.85 120.4 1093.33 120.4Z" fill="white"/>
</g>
<defs>
<filter id="filter0_d_903_9720" x="-355" y="1313.59" width="1581" height="894.872" filterUnits="userSpaceOnUse" color-interpolation-filters="sRGB">
<feFlood flood-opacity="0" result="BackgroundImageFix"/>
<feColorMatrix in="SourceAlpha" type="matrix" values="0 0 0 0 0 0 0 0 0 0 0 0 0 0 0 0 0 0 127 0" result="hardAlpha"/>
<feOffset dy="-6"/>
<feGaussianBlur stdDeviation="2"/>
<feComposite in2="hardAlpha" operator="out"/>
<feColorMatrix type="matrix" values="0 0 0 0 0 0 0 0 0 0 0 0 0 0 0 0 0 0 0.25 0"/>
<feBlend mode="normal" in2="BackgroundImageFix" result="effect1_dropShadow_903_9720"/>
<feBlend mode="normal" in="SourceGraphic" in2="effect1_dropShadow_903_9720" result="shape"/>
</filter>
<clipPath id="clip0_903_9720">
<rect width="1170" height="1595" fill="white"/>
</clipPath>
<clipPath id="clip1_903_9720">
<rect width="463" height="524" fill="white" transform="translate(87 50)"/>
</clipPath>
</defs>
</svg>
