<svg width="1170" height="1403" viewBox="0 0 1170 1403" fill="none" xmlns="http://www.w3.org/2000/svg">
<g clip-path="url(#clip0_903_9720)">
<rect width="1170" height="1403" fill="#0098D7"/>
<path d="M46.5036 2145.38C46.5036 2145.38 -111.293 1582.69 115.095 1448.11C341.483 1313.52 849.245 1153.46 1043.25 1125C1237.26 1096.54 1356.29 1260.38 1358 1397.09L46.5036 2145.38Z" fill="#CAEFFC"/>
<g filter="url(#filter0_d_903_9720)">
<path d="M1208.86 1367.54C1155.17 1476.61 993.259 1461.62 847.071 1468.15C732.186 1473.2 515.309 1687 219.657 1869.28C-79.2862 2053.69 -357.234 1849.02 -350.894 1707.58C-344.543 1563.36 -199.68 1503.92 200.094 1305.35C483.487 1164.58 1084.67 1106.82 1191.55 1237.17C1222.85 1275.91 1232.44 1320.35 1208.86 1367.54Z" fill="#88D8FC"/>
</g>
<path d="M-297.11 1831.9C-334.21 1791.7 -353.661 1747.71 -351.889 1708.03C-345.46 1561.53 -195.098 1500.42 199.427 1304.09C334.317 1236.94 549.646 1184.8 761.363 1168.02C981.557 1150.59 1142.2 1175.98 1191.31 1236C1209.54 1258.6 1223.58 1286.6 1221.86 1320.27C1220.65 1337.52 1216.11 1354.01 1208.73 1368.02C1162.75 1461.64 1040.79 1464.41 911.682 1467.33C800.441 1469.89 795.824 1459.06 536.349 1651.13C443.559 1719.81 338.388 1797.66 219.551 1871.08C21.7695 1993.37 -187.533 1950.04 -297.11 1831.9ZM862.76 1165.03C663.129 1168.93 380.927 1216 199.937 1306.11C-195.486 1502.98 -344.007 1563.77 -350.336 1708.17C-356.603 1848.34 -79.7708 2053.83 218.92 1869.13C337.711 1795.72 442.851 1717.91 535.611 1649.24C794.848 1457.38 801.685 1467.67 911.66 1465.19C1040.36 1462.27 1161.92 1459.53 1207.44 1366.81C1214.68 1353.12 1219.12 1336.99 1220.3 1320.11C1222.01 1286.99 1207.99 1259.6 1190.28 1237.59C1149.34 1187.57 1029.9 1161.76 862.76 1165.03Z" fill="#0F2572"/>
<path d="M250.543 1237.13C233.28 1228.77 240.702 1209.16 237.3 1190.5C235.579 1181.13 230.984 1175.88 230.785 1169.69C230.767 1169.67 230.767 1169.67 230.784 1169.64C230.746 1169.43 230.714 1169.22 230.69 1169C229.034 1155.38 212.796 1144.37 204.315 1145.1C195.617 1145.85 187.305 1160.47 182.12 1172.03C170.308 1198.37 181.597 1199.9 167.187 1222.29C163.395 1230.96 137.221 1243.29 165.575 1290.57C169.994 1298.01 175.139 1304.18 180.799 1308.82C192.127 1317.1 201.71 1305.53 212.781 1304.12C223.492 1302.7 230.757 1306.24 244.338 1282.39C250.826 1271.21 258.553 1241.03 250.543 1237.13Z" fill="white"/>
<path d="M190.562 1312.21C179.896 1313.13 172.47 1301.44 165.354 1290.93C162.135 1285.79 159.215 1280.16 156.631 1274.12C142.8 1240.51 164.082 1228.57 166.936 1222C181.244 1199.75 170.035 1198.14 181.874 1171.73C189.106 1155.61 197.87 1141.62 209.505 1145.2C214.651 1146.71 229.32 1155.12 230.991 1168.91C231.887 1177.14 235.883 1180.98 237.592 1190.36C241.069 1209.35 233.581 1228.4 250.629 1236.65C256.595 1239.56 253.921 1256.19 251.157 1266C246.926 1280.83 239.734 1292.84 230.773 1300.04C225.031 1303.52 218.922 1305.08 212.807 1304.62C205.159 1305.6 198.082 1311.56 190.562 1312.21ZM165.914 1290.42C188.588 1327.35 195.827 1304.13 216.54 1303.35C220.554 1303.83 224.582 1302.88 228.348 1300.55C248.819 1288.85 259.277 1241.91 250.454 1237.62C238.229 1231.69 238.162 1219.93 238.089 1207.47C238.73 1197.82 237.15 1188.12 233.659 1180.28C232.155 1177.26 231.079 1173.73 230.508 1169.94C230.472 1169.85 230.457 1169.75 230.464 1169.64C230.432 1169.46 230.405 1169.28 230.386 1169.09C228.756 1155.68 212.614 1144.89 204.334 1145.61C195.298 1146.39 186.699 1162.68 182.375 1172.32C170.589 1198.57 181.948 1200.05 167.396 1222.66C163.084 1232.61 137.462 1243.14 165.759 1290.17C165.824 1290.23 165.877 1290.32 165.914 1290.42Z" fill="#0F2572"/>
<path d="M230.646 1299.58C230.611 1299.56 230.595 1299.59 230.578 1299.61C224.894 1303.09 218.838 1304.62 212.781 1304.11C200.846 1305.64 191.635 1318.2 179.035 1307.45C174.127 1302.79 169.603 1297.12 165.575 1290.57C157.535 1277.16 164.609 1290.44 172.444 1286.42C173.611 1285.94 174.668 1284.91 175.483 1283.45C176.298 1282 176.837 1280.18 177.032 1278.23C177.914 1267.62 168.72 1253.43 172.971 1244.87C175.41 1239.95 180.649 1240.79 184.915 1239.69C189.897 1237.91 194.262 1233.02 197.091 1226.05C199.919 1219.09 200.99 1210.59 200.077 1202.36C198.732 1191.52 194.309 1179.62 198.096 1170.59C201.423 1162.7 207.242 1164.69 209.444 1145.7C216.134 1148.19 222.431 1152.97 227.924 1159.72C231.321 1163.69 229.862 1168.03 231.569 1173.75C226.751 1180.61 219.46 1196.61 220.059 1206.99C220.139 1209.38 220.708 1211.66 221.673 1213.46C222.639 1215.26 223.945 1216.48 225.383 1216.91C227.82 1216.6 230.198 1215.51 232.384 1213.71C234.719 1212.49 238.01 1213.17 238.567 1216.62C239.021 1219.49 237.215 1222.19 235.776 1224.52C233.451 1228 231.693 1232.38 230.66 1237.26C229.627 1242.14 229.352 1247.37 229.859 1252.47C230.181 1254.74 230.83 1256.85 231.752 1258.63C232.675 1260.4 233.843 1261.78 235.16 1262.66C236.476 1263.54 237.902 1263.88 239.316 1263.67C240.731 1263.45 242.093 1262.68 243.288 1261.42C247.402 1257.06 250.981 1251.48 253.839 1244.95C255.065 1259.77 245.69 1288.03 230.646 1299.58Z" fill="white"/>
<path d="M179.787 1308.62C172.932 1302.55 166.82 1294.44 161.759 1284.72C161.713 1284.64 161.686 1284.53 161.682 1284.41C161.679 1284.3 161.7 1284.18 161.741 1284.09C161.782 1284 161.841 1283.93 161.908 1283.9C161.976 1283.87 162.048 1283.88 162.112 1283.92C165.279 1286.53 168.901 1287.24 172.355 1285.95C173.469 1285.5 174.478 1284.52 175.256 1283.14C176.034 1281.75 176.547 1280.03 176.73 1278.17C177.587 1267.72 168.324 1253.44 172.731 1244.56C175.267 1239.43 180.643 1240.28 184.861 1239.19C189.76 1237.43 194.052 1232.62 196.833 1225.77C199.615 1218.92 200.67 1210.56 199.777 1202.46C198.408 1191.58 193.972 1179.52 197.844 1170.31C199.812 1166.85 202.04 1163.81 204.475 1161.27C209.288 1154.21 208.445 1144.96 209.497 1145.2C216.233 1147.71 222.573 1152.51 228.104 1159.3C229.015 1160.49 229.751 1162 230.258 1163.72C230.766 1165.44 231.031 1167.32 231.035 1169.23C231.046 1169.32 231.06 1169.4 231.078 1169.48C231.099 1169.73 231.129 1169.98 231.17 1170.22C231.318 1171.24 231.513 1172.24 231.756 1173.2L231.843 1173.53C231.873 1173.63 231.882 1173.74 231.868 1173.85C231.855 1173.96 231.82 1174.06 231.769 1174.13C227.03 1180.88 219.783 1196.8 220.363 1206.94C220.443 1209.21 220.983 1211.38 221.897 1213.1C222.812 1214.81 224.048 1215.98 225.412 1216.41C229.308 1217.01 233.208 1209.86 237.445 1213.67C237.788 1213.96 238.092 1214.35 238.336 1214.84C238.581 1215.32 238.762 1215.89 238.868 1216.49C239.789 1222.3 233.381 1224.95 230.591 1239.08C228.868 1248.03 229.775 1258.17 234.908 1261.94C244.456 1268.9 252.774 1243.94 253.923 1244.46C254.315 1244.67 254.222 1247.52 254.197 1248.19C253.698 1270.24 239.203 1299.31 224.072 1303.4C214.788 1306.01 216.29 1301.74 201.874 1308.43C193.615 1312.26 187.538 1314.63 179.787 1308.62ZM165.914 1290.42C188.361 1326.09 195.627 1305.82 212.757 1303.61C217.974 1303.88 223.187 1302.87 228.221 1300.6C228.257 1300.57 228.298 1300.55 228.339 1300.55C228.947 1300.18 229.62 1299.74 230.461 1299.15C241.325 1292.15 254.198 1265.11 253.592 1246.21C243.529 1266.16 238.576 1265.7 234.663 1262.86C227.483 1257.63 226.908 1237.89 235.808 1223.75C237.141 1221.6 238.653 1219.17 238.274 1216.75C238.19 1216.28 238.046 1215.84 237.852 1215.46C237.658 1215.08 237.418 1214.78 237.147 1214.56C233.203 1210.99 229.491 1218.03 225.358 1217.42C223.852 1216.96 222.482 1215.69 221.465 1213.81C220.449 1211.93 219.844 1209.54 219.747 1207.03C219.147 1196.6 226.292 1180.7 231.193 1173.61C230.855 1172.39 230.615 1171.11 230.477 1169.79L230.486 1169.79L230.475 1169.73C230.051 1167.34 230.353 1163.18 227.752 1160.12C222.367 1153.54 216.219 1148.83 209.686 1146.29C209.431 1150.15 208.634 1153.86 207.358 1157.14C206.081 1160.41 204.36 1163.15 202.33 1165.15C192.652 1175.95 198.281 1185.44 200.372 1202.26C201.305 1210.62 200.218 1219.26 197.343 1226.34C194.467 1233.42 190.027 1238.38 184.961 1240.19C180.776 1241.28 175.547 1240.47 173.216 1245.19C169.122 1253.4 178.242 1267.53 177.337 1278.3C177.141 1280.35 176.581 1282.26 175.728 1283.79C174.875 1285.32 173.766 1286.4 172.54 1286.9C165.299 1290.64 159.65 1280.02 165.759 1290.17C165.822 1290.23 165.875 1290.32 165.914 1290.42Z" fill="#0F2572"/>
<path d="M247.221 1274.7L247.403 1275.97C246.487 1278.24 245.462 1280.39 244.338 1282.39C240.542 1289.66 235.853 1295.53 230.578 1299.61C224.894 1303.09 218.838 1304.62 212.78 1304.12C196.853 1306.16 189.276 1324.37 169.426 1296.39C171.96 1298.42 174.591 1300.1 177.293 1301.42C178.82 1302.08 180.416 1302.2 181.974 1301.77C183.532 1301.35 185.016 1300.38 186.33 1298.94C187.643 1297.5 188.756 1295.62 189.593 1293.42C190.43 1291.22 190.973 1288.76 191.186 1286.19C191.28 1280 187.925 1273.54 188.626 1267.52C189.479 1260.3 195.168 1259.05 199.257 1255.7C201.624 1253.64 203.662 1250.69 205.208 1247.09C206.754 1243.5 207.765 1239.36 208.159 1235C209.199 1222.94 205.296 1211.17 205.082 1199.1C204.962 1193.68 206.052 1192.06 208.741 1189.3C222.599 1174.96 215.253 1164.46 218.07 1150.29C221.526 1152.92 224.825 1156.08 227.924 1159.72C231.113 1163.44 230.257 1168.91 230.785 1169.69C230.785 1169.71 230.786 1169.72 230.789 1169.74C230.793 1169.75 230.798 1169.77 230.804 1169.78C230.811 1169.98 230.835 1170.17 230.875 1170.36C231.378 1173.67 231.749 1172.77 230.608 1174.37C224.844 1182.91 217.761 1192.7 214.398 1206.4C213.096 1210.95 212.787 1216.1 213.524 1220.99C213.94 1223.38 214.856 1225.47 216.111 1226.87C217.366 1228.27 218.881 1228.91 220.392 1228.67C221.653 1228.3 222.856 1227.18 224.114 1226.71C225.372 1226.23 226.95 1226.66 227.437 1228.43C228 1230.44 226.959 1232.84 227.064 1235.07C227.199 1237.65 228.609 1238.72 230.303 1238.94C230.015 1240.36 229.803 1241.83 229.668 1243.31C229.101 1249.09 230.125 1246.25 228.566 1249.7C225.366 1255.57 223.327 1262.89 222.719 1270.7C222.623 1272.44 222.769 1274.19 223.146 1275.82C223.523 1277.46 224.122 1278.92 224.896 1280.12C225.67 1281.32 226.6 1282.21 227.615 1282.72C228.63 1283.24 229.704 1283.38 230.755 1283.11C236.023 1281.41 242.178 1270.87 247.221 1274.7Z" fill="white"/>
<path d="M169.22 1296.78C169.165 1296.7 169.13 1296.59 169.119 1296.47C169.109 1296.35 169.125 1296.23 169.164 1296.13C169.203 1296.03 169.263 1295.95 169.333 1295.91C169.403 1295.88 169.478 1295.88 169.545 1295.93C172.071 1297.92 174.685 1299.59 177.365 1300.93C178.848 1301.57 180.398 1301.69 181.911 1301.28C183.424 1300.87 184.867 1299.93 186.144 1298.54C187.421 1297.15 188.504 1295.32 189.32 1293.19C190.136 1291.06 190.668 1288.67 190.879 1286.17C190.97 1280.05 187.592 1273.66 188.327 1267.42C189.221 1259.89 195.029 1258.6 199.121 1255.25C201.443 1253.22 203.442 1250.32 204.959 1246.79C206.477 1243.26 207.469 1239.2 207.858 1234.93C208.995 1221.63 202.899 1201.86 205.301 1193.78C206.093 1191.67 207.23 1189.97 208.583 1188.87C216.937 1180.21 217.409 1174.51 217.183 1162.43C217.133 1159.87 217.077 1150.47 217.94 1149.83C221.541 1152.33 224.952 1155.51 228.104 1159.3C228.861 1160.21 229.494 1161.36 229.961 1162.69C230.429 1164.02 230.721 1165.5 230.819 1167.03C230.817 1166.96 230.842 1167.23 230.842 1167.2C230.86 1167.76 230.977 1168.68 231.035 1169.23C231.042 1169.29 231.088 1169.54 231.09 1169.59C231.135 1169.83 231.099 1169.9 231.161 1170.2C231.308 1171.14 231.487 1172.06 231.697 1172.96C232.158 1175.1 219.486 1187.01 214.678 1206.59C213.385 1211.02 213.081 1216.07 213.819 1220.83C214.22 1223.11 215.089 1225.08 216.278 1226.42C217.467 1227.76 218.902 1228.38 220.338 1228.17C221.561 1227.82 222.78 1226.7 224.05 1226.22C224.711 1225.86 225.425 1225.86 226.086 1226.22C226.747 1226.58 227.319 1227.28 227.716 1228.22C228.353 1230.46 227.262 1232.87 227.375 1235.02C227.507 1237.54 229.052 1238.26 230.329 1238.43C230.375 1238.44 230.42 1238.46 230.459 1238.5C230.499 1238.54 230.533 1238.59 230.559 1238.65C230.585 1238.71 230.602 1238.78 230.609 1238.86C230.616 1238.93 230.613 1239.01 230.6 1239.08C230.042 1241.85 229.768 1244.74 229.791 1247.65C229.816 1248.95 223.06 1259.85 223.034 1270.71C222.999 1272.57 223.218 1274.43 223.676 1276.14C224.134 1277.85 224.818 1279.37 225.68 1280.59C232.278 1289.46 240.162 1268.83 247.355 1274.25C247.536 1274.37 247.572 1274.92 247.61 1275.24L247.699 1275.86C247.972 1277.61 239.673 1293.24 230.773 1300.04C230.753 1300.06 230.73 1300.07 230.706 1300.08C226.293 1303.48 221.418 1304.96 216.555 1304.36C196.451 1305.12 190.083 1326.03 169.22 1296.78ZM171.307 1298.32C190.455 1323.67 197.107 1304.09 216.54 1303.35C220.549 1303.75 224.564 1302.8 228.339 1300.55C238.617 1294.29 247.281 1277.21 246.96 1275.06C240.115 1270.35 232.187 1290.73 225.292 1281.37C224.36 1280.05 223.619 1278.41 223.121 1276.57C222.623 1274.72 222.382 1272.72 222.414 1270.7C223.007 1262.78 225.067 1255.35 228.317 1249.4C229.786 1246.13 228.787 1249.05 229.366 1243.23C229.482 1241.92 229.659 1240.63 229.896 1239.37C227.991 1238.96 226.886 1237.46 226.758 1235.1C226.651 1232.92 227.652 1230.39 227.162 1228.64C226.735 1227.13 225.331 1226.75 224.185 1227.21C222.755 1228.13 221.275 1228.83 219.764 1229.3C214.964 1229.71 210.529 1220.8 214.116 1206.21C217.39 1192.83 223.972 1183.48 230.397 1173.99C231.352 1172.68 231.01 1173.47 230.577 1170.49C229.864 1167.51 230.582 1163.45 227.752 1160.12C224.76 1156.62 221.584 1153.56 218.261 1150.99C215.835 1164.76 222.645 1175.73 208.819 1189.82C206.212 1192.49 205.291 1193.97 205.394 1199.08C205.598 1211.17 209.519 1222.79 208.464 1235.07C208.06 1239.51 207.029 1243.72 205.454 1247.38C203.878 1251.04 201.801 1254.05 199.391 1256.15C192.208 1262.06 186.303 1261.1 190.141 1277.34C191.037 1279.73 191.506 1282.49 191.494 1285.3C191.482 1288.11 190.99 1290.86 190.074 1293.23C188.812 1296.79 186.869 1299.58 184.547 1301.15C182.224 1302.72 179.65 1302.99 177.225 1301.91C175.196 1300.98 173.216 1299.78 171.307 1298.32Z" fill="#0F2572"/>
<path d="M210.809 1328.62L198.266 1329.71C200.8 1321.24 202.442 1312.13 203.122 1302.76C203.279 1301.22 204.532 1294.03 206.923 1294.71C207.128 1294.77 208.731 1296.04 208.889 1300.96C209.04 1305.7 207.194 1318.93 210.809 1328.62Z" fill="white"/>
<path d="M210.824 1329.13L198.281 1330.21C198.227 1330.22 198.173 1330.2 198.124 1330.16C198.076 1330.12 198.036 1330.05 198.008 1329.98C197.424 1328.58 200.559 1326.61 202.659 1304.26C203.964 1291.11 208.901 1291.65 209.198 1300.94C209.355 1305.84 207.512 1318.83 211.074 1328.36C211.101 1328.44 211.115 1328.52 211.116 1328.61C211.117 1328.7 211.105 1328.78 211.08 1328.86C211.055 1328.94 211.018 1329 210.973 1329.05C210.928 1329.1 210.877 1329.13 210.824 1329.13ZM198.798 1329.15L210.285 1328.16C206.955 1318.36 208.729 1305.59 208.581 1300.99C208.428 1296.22 206.874 1295.21 206.865 1295.2C205.069 1294.66 203.696 1300.08 203.422 1302.85C202.771 1311.97 201.208 1320.86 198.798 1329.15Z" fill="#0F2572"/>
<path d="M901.115 97.284C965.21 88.1388 1030.62 90.605 1061.13 94.4909C1097.21 99.0845 1109.18 102.532 1141.12 104.266C1169.5 105.808 1244.94 94.7485 1235.29 103.068C1222.7 113.912 1226.14 156.384 1244.94 174.092C1247.67 176.667 1158.33 183.044 1104.2 178.282C1029.57 171.715 1005.55 160.703 956.543 165.713C938.39 167.612 916.876 171.168 901.5 176.187C910.5 163 927 145.5 932 132.5C923.5 116 910.5 109.5 901.115 97.284Z" fill="#FC645D"/>
<path d="M991.799 122.4L995.179 115H998.519L993.139 125.82C991.919 128.26 990.519 129.22 988.559 129.22C987.359 129.22 986.419 128.9 985.539 128.4L986.739 126.14C987.299 126.48 987.859 126.6 988.399 126.6C988.959 126.6 989.599 126.34 990.159 125.48L984.559 115H987.999L991.799 122.4ZM1008.69 129V123.78C1007.75 124.24 1006.41 124.82 1004.99 124.82C1002.21 124.82 1000.29 123.36 1000.29 120.12V115H1003.37V119.22C1003.37 120.96 1004.05 121.94 1005.63 121.94C1006.87 121.94 1008.05 121.54 1008.69 121.04V115H1011.77V129H1008.69ZM1013.92 129L1019.92 114.9H1022.76L1028.76 129H1025.54L1024.26 125.86H1018.34L1017.06 129H1013.92ZM1019.44 123.14H1023.16L1021.3 118.6L1019.44 123.14ZM1037.48 129.24C1033.36 129.24 1030.3 126.06 1030.3 122C1030.3 118.02 1033.3 114.76 1037.6 114.76C1040.24 114.76 1041.72 115.76 1043.02 117.04L1041.18 119.16C1040.1 118.18 1039.18 117.6 1037.58 117.6C1035.22 117.6 1033.52 119.56 1033.52 122C1033.52 124.4 1035.18 126.4 1037.58 126.4C1039.18 126.4 1040.16 125.76 1041.26 124.76L1043.22 126.86C1041.78 128.4 1040.18 129.24 1037.48 129.24ZM1048.94 129V117.84H1044.68V115H1056.28V117.84H1052.02V129H1048.94ZM1070.71 115V129H1067.67V119.82L1061.55 129H1058.65V115H1061.69V124.18L1067.85 115H1070.71ZM1074.08 129V115H1084.64V117.74H1077.14V120.58H1083.74V123.32H1077.14V126.26H1084.74V129H1074.08ZM972.953 136.78V139.22H976.653C979.813 139.22 981.573 140.94 981.573 143.56C981.573 146.42 979.593 148 976.353 148H969.873V134H980.613V136.78H972.953ZM976.333 141.78H972.953V145.22H976.353C977.793 145.22 978.493 144.66 978.493 143.44C978.493 142.36 977.793 141.78 976.333 141.78ZM984.112 148V134H994.672V136.74H987.172V139.58H993.772V142.32H987.172V145.26H994.772V148H984.112ZM1004.07 148.24C999.95 148.24 996.89 145.06 996.89 141C996.89 137.02 999.89 133.76 1004.19 133.76C1006.83 133.76 1008.31 134.76 1009.61 136.04L1007.77 138.16C1006.69 137.18 1005.77 136.6 1004.17 136.6C1001.81 136.6 1000.11 138.56 1000.11 141C1000.11 143.4 1001.77 145.4 1004.17 145.4C1005.77 145.4 1006.75 144.76 1007.85 143.76L1009.81 145.86C1008.37 147.4 1006.77 148.24 1004.07 148.24ZM1012.28 148V134H1023.96V148H1020.88V136.78H1015.36V148H1012.28ZM1029.17 134H1039.17V148H1036.09V136.78H1032.05V137.84C1032.05 146.08 1030.71 148.18 1027.51 148.18C1027.01 148.18 1026.27 148.1 1025.89 148L1026.09 145.46C1026.23 145.48 1026.37 145.5 1026.57 145.5C1028.23 145.5 1029.17 144.44 1029.17 136.9V134ZM1041.33 148L1047.33 133.9H1050.17L1056.17 148H1052.95L1051.67 144.86H1045.75L1044.47 148H1041.33ZM1046.85 142.14H1050.57L1048.71 137.6L1046.85 142.14ZM1061.59 148V136.84H1057.33V134H1068.93V136.84H1064.67V148H1061.59ZM1071.3 148V134H1074.38V139.54H1080.06V134H1083.14V148H1080.06V142.38H1074.38V148H1071.3ZM1093.29 148.24C1088.97 148.24 1085.87 145.02 1085.87 141C1085.87 137.02 1089.01 133.76 1093.33 133.76C1097.65 133.76 1100.75 136.98 1100.75 141C1100.75 144.98 1097.61 148.24 1093.29 148.24ZM1093.33 145.4C1095.81 145.4 1097.53 143.44 1097.53 141C1097.53 138.6 1095.77 136.6 1093.29 136.6C1090.81 136.6 1089.09 138.56 1089.09 141C1089.09 143.4 1090.85 145.4 1093.33 145.4Z" fill="white"/>
</g>
<defs>
<filter id="filter0_d_903_9720" x="-355" y="1154.26" width="1581" height="788.354" filterUnits="userSpaceOnUse" color-interpolation-filters="sRGB">
<feFlood flood-opacity="0" result="BackgroundImageFix"/>
<feColorMatrix in="SourceAlpha" type="matrix" values="0 0 0 0 0 0 0 0 0 0 0 0 0 0 0 0 0 0 127 0" result="hardAlpha"/>
<feOffset dy="-6"/>
<feGaussianBlur stdDeviation="2"/>
<feComposite in2="hardAlpha" operator="out"/>
<feColorMatrix type="matrix" values="0 0 0 0 0 0 0 0 0 0 0 0 0 0 0 0 0 0 0.25 0"/>
<feBlend mode="normal" in2="BackgroundImageFix" result="effect1_dropShadow_903_9720"/>
<feBlend mode="normal" in="SourceGraphic" in2="effect1_dropShadow_903_9720" result="shape"/>
</filter>
<clipPath id="clip0_903_9720">
<rect width="1170" height="1403" fill="white"/>
</clipPath>
</defs>
</svg>
