<svg width="175" height="197" viewBox="0 0 175 197" fill="none" xmlns="http://www.w3.org/2000/svg">
<path d="M42.6138 63.6974C42.6138 66.3223 40.8576 68.1734 38.133 68.1734H12.9248V45.7719H23.1439V58.4333H32.3947V36.0318H23.1439V26.2917H32.3947V9.74009H23.1439V19.4802H12.9248V0H38.133C40.8576 0 42.6138 1.85112 42.6138 4.47596V23.5657C42.6138 27.4631 40.7636 30.088 37.6488 31.1582C40.7636 32.2356 42.6138 34.7664 42.6138 38.7579V63.6902V63.6974Z" fill="#ED1C24"/>
<path d="M78.6263 0V68.1734H68.4072V45.7719H58.6723V68.1734H48.4531V0H78.6263ZM68.4072 9.74009H58.6723V36.039H68.4072V9.74009Z" fill="#ED1C24"/>
<path d="M109.674 25.3228C112.399 25.3228 114.155 27.1739 114.155 29.806V63.6974C114.155 66.3295 112.406 68.1806 109.674 68.1806H84.4658V0H113.179V9.74009H94.685V25.3228H109.674ZM94.685 58.4333H103.936V35.0556H94.685V58.4333Z" fill="#ED1C24"/>
<path d="M119.503 0H144.812V9.74009H129.722V26.2917H144.321V36.039H129.722V58.4333H144.812V68.1734H119.503V0Z" fill="#ED1C24"/>
<path d="M174.502 0V9.74009H160.387V68.1734H150.168V0H174.502Z" fill="#ED1C24"/>
<path d="M52.0239 98.8037C50.5713 98.9773 49.8413 99.064 48.3887 99.2086V112.665C49.8413 112.514 50.5713 112.434 52.0239 112.261C52.0239 108.334 52.0239 102.737 52.0239 98.8037Z" fill="#5EBDEB"/>
<path d="M119.062 102.586C120.515 102.426 121.245 102.347 122.698 102.217C122.698 98.2904 122.698 90.922 122.698 86.9956C121.245 87.133 120.515 87.2053 119.062 87.3644C119.062 91.2908 119.062 98.6591 119.062 102.586Z" fill="#5EBDEB"/>
<path d="M162.028 63.8638L160.004 71.2899C159.628 70.9139 159.238 70.6102 158.848 70.4005C109.515 43.5376 61.8671 97.3864 12.253 79.3597C10.9666 78.7595 9.78131 79.4537 9.17423 81.2253C8.56715 82.9969 8.63219 85.5711 9.35491 87.9211C12.7444 97.8926 16.1845 107.748 19.7041 117.561C14.1537 125.414 8.32866 132.63 2.17115 138.769C-2.67824 143.599 4.17306 151.734 8.18411 154.048C20.3112 161.033 35.293 160.484 48.6776 158.336C63.4643 155.964 77.55 150.577 91.7657 146.072C107.058 141.22 123.117 137.063 139.284 139.066C139.067 139.037 140.05 139.254 141.445 139.55L126.521 194.419L136.025 197.007L171.531 66.4597L162.028 63.871V63.8638ZM41.2988 135.761C39.7738 135.855 39.0078 135.891 37.4828 135.949V117.438C35.8134 117.503 34.975 117.517 33.3056 117.532V136.043C31.7806 136.058 31.0146 136.043 29.4896 136.014C29.4896 127.532 29.4896 104.899 29.4896 96.4175C31.0146 96.4536 31.7806 96.4537 33.3056 96.4464V113.895C34.975 113.88 35.8134 113.866 37.4828 113.801C37.4828 109.874 37.4828 100.279 37.4828 96.3524C39.0078 96.2946 39.7738 96.2584 41.2988 96.1644V135.761ZM55.8397 133.266C54.3148 133.476 53.5487 133.577 52.0238 133.758V115.89C50.5711 116.064 49.8412 116.151 48.3886 116.295V134.619C46.8636 134.778 46.0976 134.85 44.5726 134.973C44.5726 126.491 44.5726 104.408 44.5726 95.9258C49.0824 95.557 51.33 95.2967 55.8397 94.6748V133.266ZM77.456 94.6025V126.346C78.8364 126.079 79.5302 125.941 80.9106 125.674V120.945C82.4355 120.641 83.2016 120.497 84.7265 120.193V128.559C80.9612 129.304 79.0821 129.68 75.3168 130.403C74.2978 130.598 73.6473 130.027 73.6473 129.051V93.3805C73.6473 92.3971 74.305 91.5872 75.3168 91.392C79.0821 90.6689 80.9612 90.2929 84.7265 89.5481C84.7265 92.4549 84.7265 93.9083 84.7265 96.8224C83.2016 97.1261 82.4355 97.278 80.9106 97.5744V93.9373C79.5302 94.2121 78.8364 94.3422 77.456 94.6098V94.6025ZM98.1689 90.5677C96.7163 90.8352 95.9863 90.9726 94.5337 91.2474V126.657C93.0088 126.947 92.2427 127.098 90.7178 127.395V91.9849C89.2651 92.2669 88.5352 92.4115 87.0825 92.7008V89.0636C91.5127 88.1887 93.7315 87.7476 98.1689 86.9305V90.5677ZM111.98 123.75C110.455 123.967 109.689 124.083 108.164 124.329V107.257C106.711 107.488 105.981 107.604 104.529 107.85V124.922C103.004 125.182 102.238 125.312 100.713 125.587V86.4749C105.223 85.6651 107.47 85.2891 111.98 84.6383V123.75ZM126.514 103.865C126.514 104.849 125.856 105.579 124.844 105.666C122.532 105.854 121.375 105.962 119.062 106.223V122.695C117.538 122.868 116.772 122.955 115.247 123.158V84.19C119.084 83.691 121.007 83.4813 124.844 83.1704C125.863 83.0909 126.514 83.7344 126.514 84.7178V103.865ZM139.963 86.3376C138.511 86.3014 137.781 86.2942 136.328 86.3014C136.328 93.5757 136.328 114.365 136.328 121.639C134.803 121.639 134.037 121.661 132.512 121.704V86.3665C131.06 86.4099 130.33 86.446 128.877 86.5256V82.8884C133.307 82.6425 135.526 82.5919 139.963 82.6932V86.3303V86.3376ZM146.504 121.335C145.051 121.22 144.321 121.169 142.869 121.104V117.431C144.321 117.503 145.051 117.546 146.504 117.662V121.335ZM146.504 105.536C146.215 109.115 146.07 110.901 145.774 114.48C144.899 114.415 144.466 114.386 143.591 114.343C143.302 110.728 143.158 108.92 142.861 105.304V82.6498C144.314 82.7221 145.044 82.7655 146.497 82.8812C146.497 86.8509 146.497 101.566 146.497 105.536H146.504Z" fill="#5EBDEB"/>
<path d="M108.164 88.8467C106.711 89.0781 105.981 89.1938 104.528 89.4396V104.212C105.981 103.967 106.711 103.844 108.164 103.62V88.8467Z" fill="#5EBDEB"/>
</svg>
