<svg width="572" height="658" viewBox="0 0 572 658" fill="none" xmlns="http://www.w3.org/2000/svg">
<path d="M261.818 499.047C250.463 512.996 238.305 526.268 225.406 538.793C163.19 598.83 85.2796 639.916 0.726562 657.278V604.665C71.1472 588.148 135.82 552.857 187.921 502.515C204.572 486.392 219.781 468.834 233.373 450.042L261.818 499.047Z" fill="#E04646"/>
<path d="M449.485 444.238C420.616 416.699 397.597 383.58 381.814 346.877C366.031 310.173 357.81 270.643 357.647 230.667V0.402466H304.688V230.667C304.68 272.944 298.333 314.98 285.859 355.36C273.398 314.977 267.059 272.943 267.053 230.667V0.402466H214.025V230.667C213.876 270.647 205.66 310.181 189.874 346.887C174.088 383.593 151.059 416.709 122.175 444.238C87.7372 477.536 46.2133 502.547 0.737793 517.382V571.081C60.423 554.706 115.064 523.567 159.66 480.515C192.511 448.85 218.962 411.115 237.559 369.383C251.36 405.591 266.65 439.845 285.732 465.926L285.859 466.088L285.997 465.926C305.045 439.845 320.3 405.591 334.136 369.383C352.733 411.124 379.197 448.861 412.07 480.515C456.644 523.566 511.266 554.705 570.934 571.081V517.382C525.462 502.531 483.938 477.522 449.485 444.238Z" fill="#E04646"/>
<path d="M0.325195 480.514V423.833L0.555999 423.723C23.2582 413.024 44.0543 398.653 62.1129 381.184C83.1564 361.186 99.9302 337.103 111.415 310.398C122.9 283.692 128.857 254.922 128.923 225.835V173.549H182.682V225.835C182.629 261.815 175.285 297.409 161.097 330.452C146.909 363.494 126.174 393.295 100.153 418.041C71.6716 445.427 37.8725 466.625 0.865032 480.314L0.325195 480.514ZM1.12712 424.343V479.36C37.8212 465.701 71.3349 444.634 99.597 417.46C125.541 392.789 146.214 363.079 160.36 330.136C174.505 297.193 181.827 261.707 181.88 225.835V174.354H129.725V225.835C129.659 255.03 123.681 283.908 112.153 310.713C100.626 337.519 83.79 361.692 62.6684 381.765C44.6072 399.234 23.8185 413.617 1.12712 424.343Z" fill="#082054"/>
<path d="M571.334 480.538L570.794 480.338C533.798 466.657 500.019 445.448 471.577 418.041C445.546 393.298 424.8 363.5 410.6 330.458C396.4 297.415 389.044 261.82 388.977 225.835V173.549H442.806V225.835C442.868 254.923 448.822 283.694 460.308 310.4C471.793 337.107 488.569 361.189 509.617 381.184C527.668 398.631 548.437 413 571.105 423.723L571.334 423.833V480.538ZM389.779 174.354V225.835C389.845 261.711 397.18 297.199 411.338 330.142C425.495 363.084 446.179 392.792 472.133 417.46C500.354 444.657 533.848 465.735 570.532 479.383V424.343C547.876 413.593 527.114 399.212 509.061 381.765C487.936 361.695 471.098 337.522 459.57 310.716C448.043 283.91 442.066 255.031 442.005 225.835V174.354H389.779Z" fill="#082054"/>
<path d="M338.345 450.042C351.928 468.852 367.138 486.422 383.797 502.55C435.899 552.853 500.545 588.128 570.934 604.665V657.266C486.397 639.906 408.505 598.819 346.312 538.781C333.38 526.293 321.22 513.024 309.899 499.047L338.345 450.042Z" fill="#E04646"/>
<path d="M442.482 0.404419V11.3473H391.612V3.6869H435.216V0.404419H442.482Z" fill="#E04646"/>
<path d="M391.612 19.4357C391.586 18.9883 391.655 18.5405 391.814 18.1217C391.972 17.7029 392.218 17.3226 392.533 17.0057C392.849 16.6888 393.228 16.4426 393.645 16.2831C394.062 16.1237 394.509 16.0547 394.954 16.0806H439.139C439.585 16.0547 440.031 16.1237 440.448 16.2831C440.866 16.4426 441.244 16.6888 441.56 17.0057C441.876 17.3226 442.121 17.7029 442.28 18.1217C442.439 18.5405 442.508 18.9883 442.482 19.4357V33.5137C442.508 33.9611 442.439 34.4088 442.28 34.8276C442.121 35.2463 441.875 35.6265 441.56 35.9434C441.244 36.2602 440.865 36.5065 440.448 36.666C440.031 36.8255 439.585 36.8946 439.139 36.8689H394.954C394.509 36.8946 394.063 36.8255 393.645 36.666C393.228 36.5065 392.849 36.2602 392.534 35.9434C392.218 35.6265 391.973 35.2463 391.814 34.8275C391.655 34.4088 391.586 33.9611 391.612 33.5137V19.4357ZM398.88 29.2104H435.216V23.739H398.88V29.2104Z" fill="#E04646"/>
<path d="M391.612 69.6779H420.099L402.586 61.2891H391.612V53.6308H442.482V61.2892H416.612L434.124 69.678H442.482V77.3364H391.612V69.6779Z" fill="#E04646"/>
<path d="M391.612 96.7287C391.586 96.2814 391.655 95.8337 391.814 95.4149C391.973 94.9962 392.218 94.616 392.534 94.2991C392.849 93.9823 393.228 93.736 393.645 93.5765C394.063 93.417 394.509 93.3479 394.954 93.3736H414.867V89.3611H391.612V81.7024H442.482V89.3608H422.135V93.3734H439.139C439.585 93.3477 440.031 93.4168 440.448 93.5763C440.865 93.7358 441.244 93.9821 441.56 94.2989C441.875 94.6158 442.121 94.996 442.28 95.4147C442.439 95.8335 442.508 96.2812 442.482 96.7285V110.441C442.508 110.889 442.439 111.337 442.28 111.755C442.121 112.174 441.876 112.555 441.56 112.871C441.244 113.188 440.866 113.435 440.448 113.594C440.031 113.753 439.585 113.822 439.139 113.797H394.954C394.509 113.822 394.062 113.753 393.645 113.594C393.228 113.435 392.849 113.188 392.533 112.871C392.218 112.555 391.972 112.174 391.814 111.755C391.655 111.337 391.586 110.889 391.612 110.441V96.7287ZM398.88 106.138H435.216V101.032H398.88V106.138Z" fill="#E04646"/>
<path d="M442.482 141.867H391.612V134.208H415.595V125.819H391.612V118.161H442.482V125.819H422.861V134.208H442.482V141.867Z" fill="#E04646"/>
<path d="M391.612 144.774L415.595 152.287V149.953C415.569 149.505 415.637 149.058 415.796 148.639C415.955 148.22 416.2 147.839 416.516 147.522C416.832 147.205 417.211 146.959 417.628 146.799C418.045 146.639 418.491 146.57 418.937 146.596H439.139C439.585 146.57 440.031 146.639 440.449 146.799C440.866 146.959 441.245 147.205 441.561 147.522C441.876 147.839 442.121 148.22 442.28 148.639C442.439 149.058 442.508 149.505 442.482 149.953V168.845H391.612V161.187H415.595V160.456L391.612 152.87V144.774ZM435.216 161.186V154.256H422.861V161.187L435.216 161.186Z" fill="#E04646"/>
<path d="M0.325195 657.771V604.349L0.634228 604.274C70.9903 587.787 135.602 552.528 187.642 502.223C204.274 486.115 219.467 468.576 233.048 449.806L233.409 449.307L233.719 449.837L262.303 499.086L262.129 499.302C250.76 513.261 238.591 526.545 225.684 539.084C163.451 599.227 85.4559 640.356 0.806349 657.669L0.325195 657.771ZM1.12712 604.985V656.782C85.4465 639.443 163.127 598.426 225.128 538.503C237.948 526.052 250.036 512.865 261.333 499.007L233.335 450.776C219.817 469.396 204.714 486.804 188.198 502.804C136.132 553.134 71.5054 588.434 1.12712 604.985Z" fill="#082054"/>
<path d="M571.334 571.607L570.827 571.469C511.109 555.042 456.436 523.874 411.792 480.805C379.086 449.366 352.729 411.89 334.164 370.43C322.755 400.22 307.05 437.78 286.32 466.167L285.842 466.721L285.418 466.175C269.08 443.846 254.296 414.292 237.53 370.43C218.967 411.882 192.623 449.356 159.938 480.805C115.276 523.881 60.5825 555.05 0.843464 571.469L0.336914 571.607V517.093L0.614663 517.002C46.0131 502.142 87.4751 477.167 121.898 443.948C150.8 416.501 173.837 383.439 189.606 346.773C205.375 310.107 213.547 270.604 213.624 230.668V0H267.453V230.668C267.418 272.496 273.621 314.094 285.858 354.078C298.109 314.097 304.321 272.498 304.286 230.668V0H358.047V230.668C358.138 270.601 366.315 310.099 382.081 346.763C397.848 383.427 420.875 416.491 449.763 443.948C484.204 477.149 525.665 502.12 571.056 517.002L571.334 517.093L571.334 571.607ZM334.109 368.333L334.502 369.217C353.041 410.932 379.48 448.633 412.348 480.224C456.766 523.077 511.137 554.125 570.532 570.554V517.674C525.132 502.745 483.665 477.745 449.208 444.529C420.753 417.139 397.91 384.427 381.965 348.236C365.627 311.212 357.205 271.161 357.245 230.668V0.804927H305.088V230.668C305.134 272.992 298.779 315.077 286.237 355.486L285.858 356.633L285.479 355.486C272.951 315.075 266.604 272.99 266.651 230.668V0.804927H214.426V230.668C214.469 271.159 206.055 311.21 189.727 348.236C173.785 384.437 150.93 417.151 122.453 444.529C88.0146 477.764 46.5458 502.767 1.1388 517.674V570.554C60.5539 554.132 114.946 523.083 159.382 480.224C192.229 448.622 218.654 410.923 237.192 369.217L237.585 368.329L237.931 369.236C254.75 413.361 269.542 443.045 285.866 465.429C306.643 436.884 322.374 399.042 333.763 369.236L334.109 368.333Z" fill="#082054"/>
<path d="M129.324 225.835C129.205 254.968 123.214 283.776 111.711 310.524C100.208 337.272 83.4311 361.407 62.3905 381.475C44.2924 398.965 23.4618 413.36 0.726562 424.088V479.937C37.7055 466.316 71.4666 445.141 99.8755 417.753C125.807 393.004 146.478 363.24 160.64 330.256C174.803 297.272 182.165 261.751 182.283 225.835V173.951H129.324V225.835Z" fill="#E04646"/>
<path d="M442.406 173.951H389.378V225.835C389.509 261.756 396.884 297.278 411.058 330.262C425.233 363.245 445.914 393.007 471.854 417.753C500.225 445.162 533.967 466.346 570.934 479.961V424.088C548.233 413.336 527.429 398.943 509.339 381.476C488.292 361.412 471.51 337.279 460.007 310.529C448.503 283.78 442.516 254.97 442.406 225.835V173.951Z" fill="#E04646"/>
<path d="M571.334 657.76L570.853 657.658C486.221 640.343 408.245 599.213 346.034 539.073C333.094 526.569 320.923 513.288 309.588 499.302L309.414 499.086L309.553 498.843L338.308 449.307L338.67 449.806C352.244 468.592 367.438 486.144 384.075 502.259C436.121 552.516 500.704 587.759 571.025 604.274L571.334 604.349L571.334 657.76ZM310.384 499.008C321.647 512.891 333.737 526.076 346.589 538.491C408.569 598.412 486.23 639.43 570.532 656.77V604.985C500.189 588.406 435.591 553.122 383.52 502.84C366.996 486.834 351.894 469.413 338.382 450.776L310.384 499.008Z" fill="#082054"/>
</svg>
