<svg width="1170" height="2550" viewBox="0 0 1170 2550" fill="none" xmlns="http://www.w3.org/2000/svg">
<g clip-path="url(#clip0_903_19211)">
<rect width="1170" height="2550" fill="#0461B5"/>
<path d="M409.704 2831.02C409.704 2831.02 307.691 2608.93 454.048 2555.81C600.404 2502.69 928.664 2439.52 1054.09 2428.28C1179.51 2417.05 1256.46 2481.72 1257.57 2535.67L409.704 2831.02Z" fill="#CAEFFC"/>
<path d="M-99.9896 2563.45C-99.9896 2563.45 -107.811 2466.5 305.357 2470.57C424.549 2471.75 574.211 2520.98 680.218 2483.45C940.158 2391.42 1156.32 2412.76 1170 2563.45H-99.9896Z" fill="#60D0FF"/>
<path d="M1171 2563.45H-99.9613L-99.9917 2563.05C-100.006 2562.91 -100.908 2548.45 -79.0079 2531.23C-43.1771 2503.07 48.4463 2470.16 280.704 2470.16C288.923 2470.16 297.295 2470.2 305.872 2470.29C347.862 2470.7 394.643 2477.17 439.884 2483.44C524.46 2495.14 611.909 2507.24 680.433 2483.12C762.904 2454.1 843.383 2435.83 913.167 2430.28C983.217 2424.7 1043.25 2431.91 1086.77 2451.09C1111.11 2461.68 1131.33 2476.88 1145.38 2495.16C1160.7 2516.01 1169.45 2539.21 1170.96 2562.99L1171 2563.45ZM-98.8671 2562.6H1169.78C1164.96 2511.42 1136.84 2474.15 1086.19 2451.82C1042.88 2432.73 983.078 2425.57 913.289 2431.12C843.627 2436.66 763.275 2454.91 680.915 2483.9C612.054 2508.13 524.424 2496 439.68 2484.27C392.405 2477.73 347.752 2471.55 305.856 2471.14C55.5169 2468.72 -41.133 2502.75 -78.1159 2531.77C-97.6929 2547.13 -98.8339 2560.18 -98.8671 2562.6Z" fill="#082054"/>
</g>
<defs>
<clipPath id="clip0_903_19211">
<rect width="1170" height="2550" fill="white"/>
</clipPath>
</defs>
</svg>
