<svg width="400" height="581" viewBox="0 0 400 581" fill="none" xmlns="http://www.w3.org/2000/svg">
<g clip-path="url(#clip0_1065_18440)">
<g clip-path="url(#clip1_1065_18440)">
<path d="M262.334 524.213L72.5688 -184L32 -173.13L221.765 535.083L262.334 524.213Z" fill="#5EBDEB"/>
<path d="M138.113 128.028C137.627 128.158 137.204 127.926 137.07 127.425L135.827 122.788L139.949 121.684L140.454 123.566L138.128 124.189L138.584 125.892L142.706 124.788L142.25 123.084L144.039 122.605L144.495 124.308L147.544 123.491L147.087 121.788L145.298 122.267L144.794 120.385L148.379 119.425L149.622 124.062C149.756 124.563 149.499 124.977 149.019 125.105L145.506 126.047C144.79 126.239 144.211 126.026 143.865 125.505C143.818 126.131 143.445 126.599 142.715 126.795L138.128 128.024L138.113 128.028Z" fill="white"/>
<path d="M151.604 131.515L139.059 134.877L138.555 132.995L142.677 131.89L142.198 130.101L138.076 131.206L137.571 129.324L150.116 125.962L151.604 131.515ZM149.313 130.12L148.833 128.331L143.996 129.627L144.475 131.416L149.313 130.12Z" fill="white"/>
<path d="M148.477 138.482C148.612 138.983 148.354 139.397 147.875 139.525L141.642 141.195C141.155 141.326 140.733 141.094 140.598 140.593L139.356 135.956L151.894 132.596L153.311 137.885L151.522 138.364L150.609 134.958L147.739 135.726L148.479 138.489L148.477 138.482ZM141.649 137.358L142.106 139.061L146.406 137.909L145.95 136.206L141.649 137.358Z" fill="white"/>
<path d="M153.621 139.044L154.869 143.703L153.08 144.182L152.336 141.405L149.288 142.222L150.007 144.906L148.218 145.385L147.499 142.702L143.377 143.806L144.121 146.583L142.332 147.062L141.083 142.403L153.621 139.044Z" fill="white"/>
<path d="M156.333 149.163L154.544 149.642L153.848 147.044L143.099 149.925L142.596 148.05L155.134 144.69L156.333 149.163Z" fill="white"/>
<path d="M134.729 144.022C134.829 144.279 134.879 144.411 134.979 144.668L137.777 143.918C137.685 143.659 137.634 143.527 137.527 143.272L134.729 144.022Z" fill="white"/>
<path d="M136.716 141.334C136.603 141.081 136.545 140.95 136.431 140.697L133.711 141.426C133.825 141.679 133.883 141.809 133.997 142.063L136.716 141.334Z" fill="white"/>
<path d="M132.116 131.491C132.009 131.236 131.958 131.104 131.866 130.845L129.39 131.508C129.489 131.765 129.54 131.897 129.64 132.155L132.116 131.491Z" fill="white"/>
<path d="M143.969 150.021L142.495 150.017C142.547 149.927 142.585 149.84 142.609 149.757C145.114 139.352 132.86 133.24 133.732 123.211C133.776 122.947 133.595 122.757 133.237 122.738C132.877 122.712 132.409 122.853 132.016 123.104C130.351 124.217 128.704 125.341 127.073 126.468C125.353 125.832 123.742 125.114 122.308 124.286C122.063 124.145 121.582 124.212 121.09 124.436C120.591 124.662 120.139 125.036 120.033 125.356C117.728 134.932 127.802 140.839 129.019 149.532C129.007 149.49 129.022 149.685 129.04 149.956L118.568 149.917L119.072 151.799L143.973 151.899L143.985 150.025L143.969 150.021ZM124.79 131.345C124.701 131.069 124.655 130.928 124.566 130.653L127.973 129.74C127.876 129.436 127.834 129.279 127.753 128.978L124.347 129.891C124.272 129.612 124.234 129.469 124.159 129.19L131.444 127.238C131.519 127.517 131.55 127.662 131.632 127.939L128.419 128.8C128.501 129.108 128.541 129.258 128.638 129.562C129.361 129.368 131.128 128.895 131.851 128.701C131.933 128.978 131.979 129.119 132.075 129.393L124.79 131.345ZM125.963 133.891C125.853 133.622 125.793 133.484 125.682 133.215L128.967 132.335C128.86 132.08 128.809 131.947 128.717 131.688L125.346 132.592C125.243 132.32 125.19 132.181 125.094 131.908C126.654 131.49 130.719 130.4 132.279 129.982C132.566 130.795 132.727 131.197 133.064 131.996L125.965 133.898L125.963 133.891ZM134.143 135.964L128.303 137.529C128.422 137.773 128.476 137.889 128.595 138.133L129.468 137.899C129.6 138.163 129.667 138.298 129.792 138.564L128.254 138.976C127.932 138.319 127.768 137.994 127.453 137.335C127.368 137.158 127.442 137.008 127.621 136.96L134.184 135.202C134.363 135.154 134.545 135.235 134.631 135.411C134.953 136.069 135.109 136.395 135.431 137.053C134.895 137.197 134.63 137.268 134.093 137.412C133.961 137.148 133.894 137.013 133.769 136.747L134.435 136.569C134.316 136.324 134.262 136.208 134.143 135.964ZM135.909 139.579C135.788 139.328 135.73 139.197 135.602 138.948L129.09 140.693C128.965 140.427 128.898 140.292 128.766 140.028L135.278 138.283C135.157 138.032 135.092 137.904 134.971 137.652L135.636 137.474C136.019 138.246 136.207 138.632 136.576 139.408L135.911 139.586L135.909 139.579ZM130.485 143.755C130.368 143.488 130.308 143.35 130.19 143.083L133.332 142.241C133.218 141.988 133.16 141.857 133.046 141.604L129.904 142.446C129.779 142.18 129.72 142.043 129.595 141.777L136.794 139.848C137.167 140.638 137.349 141.034 137.686 141.833L130.487 143.762L130.485 143.755ZM134.859 145.452C134.68 145.5 134.512 145.414 134.448 145.232C134.299 144.82 134.22 144.611 134.062 144.193L131.027 145.006C130.924 144.734 130.864 144.597 130.754 144.328L137.924 142.406C138.207 143.09 138.337 143.431 138.584 144.124C138.648 144.306 138.559 144.46 138.38 144.508L134.859 145.452ZM138.75 147.063C138.679 146.798 138.65 146.66 138.572 146.398L132.074 148.139C131.999 147.86 131.961 147.716 131.872 147.441L138.37 145.7C138.292 145.437 138.248 145.303 138.163 145.042L138.828 144.864C139.09 145.668 139.213 146.072 139.411 146.894L138.745 147.072L138.75 147.063ZM132.632 149.991C132.582 149.721 132.553 149.583 132.496 149.314L133.169 149.134C133.226 149.402 133.255 149.54 133.304 149.811L132.632 149.991ZM135.537 149.213C134.865 149.339 134.529 149.398 133.855 149.518C133.827 149.356 133.804 149.27 133.776 149.109C134.428 148.881 134.75 148.764 135.4 148.528L139.565 147.412C139.621 147.681 139.651 147.819 139.7 148.089L135.535 149.205L135.537 149.213Z" fill="white"/>
<path d="M184.951 302.827C184.464 302.957 184.041 302.725 183.907 302.224L182.665 297.587L186.787 296.483L187.291 298.365L184.965 298.988L185.422 300.691L189.544 299.587L189.087 297.883L190.876 297.404L191.333 299.107L194.381 298.29L193.925 296.587L192.136 297.066L191.632 295.184L195.217 294.224L196.459 298.861C196.594 299.362 196.336 299.776 195.857 299.904L192.343 300.846C191.628 301.038 191.049 300.825 190.702 300.304C190.655 300.93 190.282 301.398 189.552 301.594L184.965 302.823L184.951 302.827Z" fill="white"/>
<path d="M198.441 306.314L185.896 309.676L185.392 307.794L189.514 306.689L189.035 304.9L184.912 306.005L184.408 304.123L196.953 300.761L198.441 306.314ZM196.148 304.912L195.668 303.123L190.831 304.419L191.31 306.208L196.148 304.912Z" fill="white"/>
<path d="M195.315 313.281C195.449 313.782 195.192 314.196 194.712 314.324L188.479 315.994C187.993 316.125 187.57 315.893 187.436 315.392L186.193 310.755L198.731 307.395L200.148 312.684L198.359 313.163L197.446 309.757L194.577 310.525L195.317 313.288L195.315 313.281ZM188.485 312.15L188.941 313.853L193.242 312.701L192.786 310.998L188.485 312.15Z" fill="white"/>
<path d="M200.458 313.843L201.707 318.502L199.918 318.981L199.174 316.204L196.125 317.021L196.844 319.705L195.055 320.184L194.336 317.501L190.214 318.605L190.958 321.382L189.169 321.861L187.921 317.202L200.458 313.843Z" fill="white"/>
<path d="M203.17 323.962L201.381 324.441L200.685 321.844L189.936 324.724L189.432 322.842L201.97 319.482L203.17 323.962Z" fill="white"/>
<path d="M181.566 318.821C181.666 319.078 181.717 319.21 181.816 319.467L184.614 318.717C184.522 318.458 184.471 318.326 184.364 318.071L181.566 318.821Z" fill="white"/>
<path d="M183.554 316.133C183.44 315.88 183.382 315.749 183.268 315.496L180.549 316.225C180.663 316.478 180.721 316.608 180.834 316.861L183.554 316.133Z" fill="white"/>
<path d="M178.953 306.29C178.847 306.035 178.796 305.903 178.703 305.644L176.227 306.307C176.327 306.564 176.378 306.696 176.477 306.954L178.953 306.29Z" fill="white"/>
<path d="M190.804 324.813L189.33 324.809C189.383 324.719 189.421 324.632 189.444 324.549C191.949 314.144 179.696 308.032 180.568 298.003C180.612 297.738 180.431 297.549 180.073 297.53C179.713 297.504 179.244 297.645 178.851 297.896C177.186 299.009 175.539 300.133 173.908 301.26C172.189 300.624 170.577 299.906 169.143 299.078C168.898 298.936 168.418 299.004 167.926 299.228C167.426 299.454 166.974 299.828 166.868 300.148C164.564 309.724 174.637 315.631 175.854 324.324C175.843 324.281 175.857 324.477 175.876 324.748L165.403 324.709L165.908 326.591L190.809 326.691L190.82 324.817L190.804 324.813ZM171.625 306.137C171.536 305.861 171.491 305.72 171.402 305.445L174.808 304.532C174.711 304.228 174.669 304.071 174.589 303.77L171.182 304.683C171.107 304.404 171.069 304.261 170.994 303.982L178.279 302.03C178.354 302.309 178.385 302.454 178.467 302.731L175.254 303.592C175.336 303.9 175.377 304.05 175.474 304.354C176.196 304.16 177.964 303.687 178.687 303.493C178.769 303.77 178.814 303.911 178.91 304.185L171.625 306.137ZM172.8 308.69C172.69 308.421 172.63 308.283 172.52 308.014L175.804 307.134C175.698 306.879 175.647 306.746 175.554 306.487L172.184 307.391C172.08 307.119 172.028 306.98 171.931 306.707C173.491 306.288 177.556 305.199 179.116 304.781C179.403 305.594 179.564 305.996 179.901 306.795L172.802 308.697L172.8 308.69ZM180.98 310.763L175.14 312.328C175.26 312.572 175.314 312.688 175.433 312.932L176.306 312.698C176.438 312.962 176.505 313.097 176.63 313.363L175.091 313.775C174.769 313.118 174.606 312.793 174.291 312.134C174.205 311.957 174.28 311.807 174.459 311.759L181.021 310.001C181.2 309.953 181.383 310.034 181.468 310.21C181.79 310.868 181.947 311.194 182.269 311.852C181.732 311.996 181.467 312.067 180.931 312.211C180.799 311.947 180.732 311.812 180.607 311.546L181.272 311.368C181.153 311.123 181.099 311.007 180.98 310.763ZM182.746 314.378C182.625 314.127 182.567 313.996 182.439 313.747L175.927 315.492C175.802 315.226 175.735 315.091 175.603 314.827L182.115 313.082C181.994 312.831 181.929 312.702 181.808 312.451L182.474 312.273C182.857 313.045 183.045 313.431 183.414 314.207L182.748 314.385L182.746 314.378ZM177.323 318.554C177.205 318.287 177.145 318.149 177.027 317.882L180.169 317.04C180.055 316.787 179.997 316.656 179.883 316.403L176.742 317.245C176.617 316.979 176.557 316.842 176.432 316.576L183.631 314.647C184.004 315.437 184.187 315.833 184.524 316.632L177.325 318.561L177.323 318.554ZM181.697 320.251C181.518 320.299 181.349 320.213 181.285 320.031C181.136 319.619 181.057 319.41 180.899 318.992L177.865 319.805C177.761 319.533 177.702 319.396 177.591 319.127L184.762 317.205C185.045 317.889 185.174 318.23 185.421 318.923C185.485 319.105 185.396 319.259 185.218 319.307L181.697 320.251ZM185.588 321.862C185.517 321.597 185.487 321.459 185.409 321.197L178.911 322.938C178.837 322.659 178.798 322.515 178.709 322.24L185.207 320.499C185.129 320.236 185.085 320.102 185 319.841L185.666 319.663C185.927 320.467 186.051 320.871 186.248 321.693L185.582 321.871L185.588 321.862ZM179.469 324.79C179.42 324.52 179.39 324.382 179.334 324.113L180.006 323.933C180.063 324.201 180.092 324.339 180.142 324.61L179.469 324.79ZM182.375 324.012C181.703 324.138 181.366 324.197 180.692 324.317C180.664 324.155 180.641 324.069 180.613 323.908C181.266 323.68 181.587 323.563 182.237 323.327L186.402 322.211C186.459 322.48 186.488 322.618 186.538 322.888L182.373 324.004L182.375 324.012Z" fill="white"/>
<path fill-rule="evenodd" clip-rule="evenodd" d="M101.377 21.0946C101.02 21.5966 100.686 22.1234 100.388 22.6712C98.9951 25.2304 98.3047 28.2072 98.4912 31.279L100.23 30.813C100.14 28.2447 100.754 25.7561 101.921 23.6104C102.308 22.9084 102.749 22.2379 103.249 21.6131L101.368 21.0894L101.377 21.0946Z" fill="white"/>
<path fill-rule="evenodd" clip-rule="evenodd" d="M101.494 14.2905C103.815 15.709 106.638 16.2258 109.386 15.4894L117 13.4492L117.477 15.2311L109.863 17.2713C108.525 17.6299 107.017 18.2717 105.912 19.0127C107.238 19.0947 108.864 18.8966 110.203 18.538L117.817 16.4978L118.294 18.2797L110.68 20.3199C107.932 21.0562 105.744 22.9081 104.445 25.304C103.67 26.7314 103.206 28.3512 103.121 30.0384L101.347 30.5139C101.349 28.3196 101.91 26.2057 102.905 24.3667C103.662 22.9827 104.668 21.7545 105.875 20.7638C104.555 20.6188 103.286 20.4065 102.25 20.0017C102.943 19.1256 103.938 18.3145 105.008 17.5291C103.46 17.2766 101.975 16.7157 100.635 15.8936C98.8466 14.8005 97.3109 13.2485 96.2114 11.3494L97.9862 10.8739C98.9032 12.2926 100.114 13.4637 101.5 14.312L101.494 14.2905Z" fill="white"/>
<path fill-rule="evenodd" clip-rule="evenodd" d="M111.61 23.1312C109.606 23.6681 108.013 25.0229 107.068 26.7641C106.657 27.5186 106.365 28.3484 106.215 29.2171L104.368 29.7119C104.489 28.3296 104.892 27.002 105.528 25.8267C106.702 23.6792 108.656 22.0127 111.132 21.3493L112.85 20.8891L113.327 22.671L111.61 23.1312Z" fill="white"/>
<path fill-rule="evenodd" clip-rule="evenodd" d="M110.496 12.1317L110.973 13.9136L109.256 14.3738C106.787 15.0354 104.254 14.5712 102.164 13.298C101.018 12.6002 100.005 11.6522 99.2165 10.5135L101.063 10.0188C101.628 10.6958 102.295 11.2686 103.029 11.7164C104.725 12.7499 106.774 13.1288 108.778 12.5919L110.496 12.1317Z" fill="white"/>
<path fill-rule="evenodd" clip-rule="evenodd" d="M102.311 18.0831C101.565 17.7919 100.85 17.4391 100.161 17.0176C98.0787 15.7425 96.3026 13.8944 95.0963 11.6252L93.3574 12.0911C94.7246 14.8465 96.82 17.0846 99.3039 18.5973C99.8359 18.9227 100.382 19.2136 100.949 19.4682L102.316 18.074L102.311 18.0831Z" fill="white"/>
<path fill-rule="evenodd" clip-rule="evenodd" d="M104.883 37.873L104.871 37.83L110.29 35.0665L109.797 33.2274L99.7353 35.9234L100.14 37.4334L104.455 36.2771L107.259 35.2343L107.278 35.3059L102.394 37.7729L102.772 39.1826L108.227 38.8483L108.247 38.9198L105.305 39.4474L100.989 40.6036L101.394 42.1136L111.456 39.4176L110.963 37.5784L104.885 37.8801L104.883 37.873ZM103.472 44.0878L110.657 42.1626L111.062 43.6726L103.877 45.5978L103.472 44.0878ZM102.667 46.8348C102.774 47.2356 103.115 47.4203 103.501 47.3168L112.239 44.9755C112.626 44.8719 112.829 44.5414 112.721 44.1407L111.862 40.9347C111.755 40.5339 111.414 40.3492 111.027 40.4527L102.29 42.794C101.903 42.8976 101.7 43.228 101.808 43.6288L102.667 46.8348ZM104.249 52.7387L107.555 51.8528L107.15 50.3428L105.282 50.8433L104.916 49.4765L112.101 47.5513L112.467 48.9181L111.029 49.3036L111.434 50.8135L114.31 50.0427L113.313 46.3214C113.206 45.9207 112.865 45.7359 112.478 45.8395L103.741 48.1808C103.354 48.2843 103.151 48.6148 103.259 49.0155L104.256 52.7368L104.249 52.7387ZM114.523 50.837L104.461 53.5331L104.866 55.043L113.489 52.7324L114.047 54.8149L115.486 54.4295L114.523 50.837ZM107.42 58.8226L114.605 56.8974L115.01 58.4074L107.825 60.3325L107.42 58.8226ZM106.613 61.5624C106.72 61.9631 107.061 62.1479 107.448 62.0444L116.186 59.7031C116.572 59.5995 116.775 59.269 116.668 58.8683L115.808 55.6623C115.701 55.2615 115.36 55.0768 114.974 55.1803L106.236 57.5216C105.849 57.6251 105.647 57.9556 105.754 58.3564L106.613 61.5624ZM116.049 62.2861L116.435 63.7245L112.556 64.7637L112.171 63.3254L116.049 62.2861ZM111.346 66.0008C111.453 66.4015 111.794 66.5863 112.181 66.4827L117.612 65.0273C117.999 64.9238 118.202 64.5933 118.094 64.1925L117.078 60.3997L107.016 63.0958L107.421 64.6057L110.727 63.7198L111.339 66.0027L111.346 66.0008ZM109.602 72.719L112.909 71.8331L112.504 70.3232L110.636 70.8236L110.27 69.4568L117.455 67.5316L117.821 68.8984L116.383 69.2839L116.787 70.7938L119.664 70.023L118.667 66.3017C118.56 65.901 118.219 65.7162 117.832 65.8198L109.094 68.1611C108.708 68.2646 108.505 68.5951 108.612 68.9959L109.61 72.7171L109.602 72.719ZM119.877 70.8173L109.815 73.5134L110.22 75.0233L118.843 72.7127L119.267 74.2943L110.644 76.6049L111.048 78.1148L121.11 75.4188L119.877 70.8173ZM113.121 80.0981L120.306 78.173L120.711 79.6829L113.526 81.6081L113.121 80.0981ZM112.314 82.838C112.421 83.2387 112.762 83.4235 113.149 83.32L121.886 80.9787C122.273 80.8751 122.476 80.5446 122.368 80.1439L121.509 76.9379C121.402 76.5371 121.061 76.3524 120.674 76.4559L111.937 78.7972C111.55 78.9007 111.347 79.2312 111.455 79.632L112.314 82.838ZM121.75 83.5616L122.135 85L118.257 86.0393L117.871 84.6009L121.75 83.5616ZM117.045 87.2692C117.152 87.6699 117.493 87.8547 117.879 87.7512L123.311 86.2958C123.697 86.1922 123.9 85.8617 123.793 85.461L122.777 81.6682L112.715 84.3642L113.12 85.8742L116.426 84.9883L117.037 87.2711L117.045 87.2692ZM122.674 87.011L123.06 88.4494L114.436 90.76L114.841 92.2699L123.464 89.9593L123.85 91.3978L125.288 91.0123L124.113 86.6255L122.674 87.011Z" fill="white"/>
<path d="M161.696 231.268L161.309 229.822L170.748 227.293L171.135 228.739L167.435 229.73L167.499 229.966C167.708 230.746 168.628 230.776 169.258 230.607L171.476 230.013L171.864 231.458L169.702 232.037C168.708 232.304 167.866 232.138 167.187 231.553C166.851 232.472 166.246 232.963 165.251 233.23L162.417 233.989L162.03 232.544L164.921 231.769C165.529 231.606 166.195 231.113 165.992 230.385L165.925 230.135L161.689 231.27L161.696 231.268ZM168.26 255.764L177.699 253.235L178.044 254.523L172.526 256.001L178.441 256.004L178.872 257.614L169.433 260.144L169.084 258.841L175.654 257.081L168.594 257.07L168.258 255.757L168.26 255.764ZM169.707 261.167L179.146 258.638L179.492 259.926L173.974 261.404L179.888 261.407L180.32 263.017L170.881 265.547L170.532 264.244L177.101 262.484L170.042 262.473L169.705 261.16L169.707 261.167ZM182.399 261.816L181.29 262.113L180.438 258.936L181.547 258.639L182.399 261.816ZM167.276 252.093L166.889 250.647L176.328 248.118L176.715 249.564L173.015 250.555L173.078 250.791C173.287 251.571 174.208 251.601 174.838 251.432L177.056 250.837L177.444 252.283L175.282 252.862C174.288 253.129 173.446 252.963 172.767 252.378C172.431 253.296 171.826 253.788 170.831 254.055L167.997 254.814L167.61 253.368L170.501 252.594C171.109 252.431 171.775 251.938 171.572 251.21L171.505 250.96L167.269 252.095L167.276 252.093ZM160.287 225.954L159.9 224.509L169.339 221.979L170.488 226.266L166.695 227.282L166.302 225.815L168.742 225.161L168.374 223.787L161.633 225.594L162.001 226.968L164.441 226.314L164.834 227.781L161.042 228.797L160.28 225.956L160.287 225.954ZM165.867 246.779L165.48 245.333L174.919 242.804L176.068 247.091L172.275 248.107L171.882 246.64L174.322 245.986L173.954 244.612L167.213 246.418L167.581 247.792L170.021 247.139L170.414 248.606L166.621 249.622L165.86 246.781L165.867 246.779ZM167.327 219.85L166.966 218.504L160.225 220.31L160.585 221.656L167.327 219.85ZM158.867 220.651L158.479 219.206L167.918 216.677L169.067 220.963L159.628 223.492L158.867 220.651ZM171.56 235.651L171.2 234.305L164.459 236.112L164.819 237.457L171.56 235.651ZM163.098 236.445L162.711 235L172.15 232.471L173.299 236.757L163.86 239.286L163.098 236.445ZM172.613 239.579L170.08 240.258C170.195 240.803 170.398 241.446 171.364 241.187L172.223 240.957L172.931 240.767L172.613 239.579ZM168.727 240.621L165.865 241.388L166.183 242.576C166.798 242.411 167.407 242.248 168.015 242.085C168.981 241.826 168.893 241.152 168.72 240.623L168.727 240.621ZM173.004 242.297L171.845 242.608C171.093 242.809 170.46 242.649 169.977 242.249C169.696 242.892 169.118 243.338 168.317 243.553L165.225 244.382C164.989 243.501 164.755 242.628 164.519 241.748L164.132 240.303L173.571 237.773L173.958 239.219C174.194 240.099 174.428 240.972 174.664 241.852L173.004 242.297ZM160.505 214.314C162.625 214.153 165.011 214.042 167.11 213.718L167.63 215.657L158.191 218.186L157.853 216.927L161.589 215.926L165.007 215.171C163.871 215.284 159.681 215.647 157.521 215.259L157.485 215.123L157.449 214.987C159.132 213.57 162.943 211.79 163.982 211.319L160.645 212.374L156.909 213.375L156.572 212.116L166.011 209.587L166.531 211.526C164.56 212.3 162.438 213.397 160.512 214.312L160.505 214.314Z" fill="white"/>
<path d="M158.367 230.181L154.159 231.309C154.275 231.853 154.542 232.479 155.501 232.222L156.36 231.992L158.686 231.369L158.367 230.181ZM157.141 233.332L155.981 233.643C154.529 234.032 153.311 233.553 152.935 232.15L152.807 231.671L150.266 232.352L149.879 230.906L159.318 228.377C159.675 229.738 160.047 231.096 160.411 232.456L157.134 233.334L157.141 233.332ZM160.524 232.848L161.718 237.306L160.373 237.666L159.968 236.157L151.875 238.325L151.487 236.88L159.581 234.711L159.176 233.201L160.522 232.84L160.524 232.848ZM157.324 226.288L156.964 224.943L150.222 226.749L150.583 228.094L157.324 226.288ZM148.862 227.083L148.475 225.637L157.914 223.108L159.063 227.395L149.624 229.924L148.862 227.083ZM146.022 216.484L145.635 215.039L155.074 212.51L156.223 216.796L152.43 217.812L152.037 216.345L154.477 215.691L154.109 214.317L147.368 216.124L147.736 217.498L150.176 216.844L150.569 218.311L146.777 219.327L146.015 216.486L146.022 216.484ZM147.443 221.787L147.056 220.342L156.495 217.812L157.644 222.099L148.205 224.628L147.811 223.161L155.905 220.992L155.537 219.618L147.443 221.787Z" fill="white"/>
<path d="M147.17 201.128C146.836 201.601 146.525 202.099 146.247 202.61C144.942 205.008 144.295 207.804 144.469 210.688L146.101 210.251C146.016 207.842 146.593 205.501 147.687 203.49C148.046 202.826 148.462 202.201 148.934 201.614L147.17 201.128Z" fill="white"/>
<path d="M147.283 194.739C149.466 196.072 152.11 196.552 154.686 195.862L161.828 193.948L162.277 195.623L155.135 197.537C153.876 197.874 152.464 198.475 151.423 199.168C152.664 199.249 154.194 199.062 155.453 198.725L162.595 196.811L163.044 198.485L155.902 200.399C153.319 201.091 151.276 202.828 150.052 205.073C149.322 206.412 148.885 207.932 148.811 209.517L147.144 209.963C147.145 207.907 147.671 205.918 148.612 204.193C149.314 202.893 150.264 201.741 151.402 200.807C150.161 200.672 148.974 200.476 148.004 200.092C148.652 199.274 149.589 198.509 150.589 197.773C149.136 197.533 147.745 197.009 146.48 196.236C144.802 195.212 143.36 193.75 142.323 191.973L143.991 191.526C144.847 192.861 145.985 193.96 147.287 194.754L147.283 194.739Z" fill="white"/>
<path d="M156.77 203.035C154.888 203.54 153.394 204.807 152.505 206.441C152.12 207.15 151.845 207.929 151.703 208.742L149.971 209.206C150.084 207.91 150.464 206.666 151.065 205.561C152.158 203.542 154.002 201.982 156.321 201.361L157.931 200.929L158.38 202.604L156.77 203.035Z" fill="white"/>
<path d="M155.732 192.721L156.18 194.396L154.57 194.827C152.252 195.448 149.874 195.019 147.918 193.818C146.845 193.162 145.894 192.274 145.148 191.208L146.88 190.744C147.41 191.377 148.037 191.914 148.725 192.336C150.312 193.306 152.24 193.657 154.122 193.152L155.732 192.721Z" fill="white"/>
<path d="M148.045 198.301C147.351 198.027 146.671 197.695 146.028 197.3C144.075 196.105 142.412 194.365 141.274 192.238L139.643 192.675C140.926 195.261 142.892 197.358 145.221 198.782C145.717 199.086 146.236 199.361 146.761 199.604L148.045 198.301Z" fill="white"/>
</g>
<g clip-path="url(#clip2_1065_18440)">
<path d="M321.765 -184L132 524.213L172.569 535.083L362.334 -173.13L321.765 -184Z" fill="#5EBDEB"/>
<path d="M231.25 221.217C231.737 221.347 231.987 221.759 231.853 222.26L230.61 226.897L226.488 225.793L226.992 223.911L229.318 224.534L229.775 222.831L225.653 221.726L225.196 223.43L223.407 222.95L223.864 221.247L220.815 220.43L220.359 222.133L222.148 222.613L221.643 224.495L218.058 223.534L219.301 218.897C219.435 218.396 219.865 218.166 220.344 218.294L223.858 219.236C224.573 219.428 224.968 219.902 225.008 220.526C225.362 220.007 225.919 219.788 226.649 219.984L231.236 221.213L231.25 221.217Z" fill="white"/>
<path d="M221.311 211.451L233.856 214.812L233.352 216.694L229.23 215.59L228.75 217.379L232.872 218.484L232.368 220.366L219.823 217.004L221.311 211.451ZM222.598 213.805L222.119 215.594L226.956 216.891L227.436 215.102L222.598 213.805Z" fill="white"/>
<path d="M227.502 206.981C227.637 206.48 228.066 206.25 228.546 206.379L234.779 208.049C235.266 208.18 235.516 208.592 235.381 209.093L234.139 213.73L221.601 210.37L223.018 205.082L224.807 205.561L223.894 208.968L226.764 209.737L227.504 206.974L227.502 206.981ZM232.854 211.368L233.31 209.665L229.01 208.513L228.553 210.216L232.854 211.368Z" fill="white"/>
<path d="M223.329 203.923L224.577 199.264L226.366 199.743L225.622 202.52L228.671 203.337L229.39 200.653L231.179 201.133L230.46 203.816L234.582 204.921L235.326 202.144L237.115 202.623L235.866 207.282L223.329 203.923Z" fill="white"/>
<path d="M226.04 193.804L227.829 194.283L227.133 196.881L237.881 199.761L237.379 201.636L224.841 198.276L226.04 193.804Z" fill="white"/>
<path d="M242.178 209.058C242.221 208.785 242.243 208.646 242.285 208.373L239.487 207.623C239.437 207.894 239.415 208.034 239.38 208.308L242.178 209.058Z" fill="white"/>
<path d="M239.113 210.392C239.085 210.668 239.07 210.81 239.042 211.086L241.762 211.815C241.79 211.538 241.805 211.397 241.833 211.12L239.113 210.392Z" fill="white"/>
<path d="M238.176 221.216C238.141 221.491 238.119 221.631 238.07 221.901L240.546 222.565C240.588 222.292 240.61 222.152 240.652 221.88L238.176 221.216Z" fill="white"/>
<path d="M237.177 199.242L238.451 199.982C238.36 200.035 238.284 200.091 238.222 200.151C230.851 207.909 238.406 219.33 232.637 227.578C232.466 227.786 232.528 228.04 232.829 228.236C233.127 228.439 233.603 228.551 234.069 228.53C236.068 228.398 238.056 228.248 240.032 228.087C241.204 229.498 242.24 230.926 243.068 232.36C243.209 232.605 243.659 232.787 244.197 232.839C244.743 232.893 245.321 232.795 245.573 232.571C252.357 225.43 246.586 215.278 249.879 207.14C249.867 207.183 249.953 207.007 250.072 206.763L259.122 212.033L259.626 210.151L238.112 197.614L237.164 199.231L237.177 199.242ZM244.448 225.006C244.387 225.289 244.356 225.434 244.296 225.717L240.889 224.804C240.821 225.116 240.779 225.273 240.698 225.574L244.105 226.486C244.03 226.766 243.992 226.909 243.917 227.188L236.632 225.236C236.706 224.957 236.752 224.815 236.82 224.534L240.033 225.395C240.115 225.088 240.155 224.937 240.224 224.626C239.501 224.432 237.733 223.959 237.01 223.765C237.078 223.484 237.109 223.339 237.163 223.054L244.448 225.006ZM244.705 222.214C244.666 222.503 244.649 222.652 244.61 222.94L241.325 222.06C241.29 222.334 241.268 222.474 241.218 222.745L244.589 223.648C244.543 223.935 244.519 224.082 244.466 224.366C242.906 223.948 238.841 222.859 237.281 222.441C237.439 221.594 237.5 221.165 237.608 220.305L244.707 222.207L244.705 222.214ZM238.658 216.329L244.497 217.894C244.516 217.623 244.527 217.495 244.546 217.224L243.673 216.99C243.691 216.696 243.7 216.545 243.725 216.253L245.264 216.665C245.214 217.395 245.193 217.758 245.136 218.487C245.122 218.682 244.982 218.775 244.803 218.727L238.241 216.969C238.062 216.921 237.944 216.759 237.958 216.563C238.008 215.833 238.036 215.472 238.086 214.742C238.623 214.885 238.887 214.956 239.424 215.1C239.407 215.395 239.397 215.545 239.372 215.838L238.707 215.66C238.688 215.931 238.677 216.058 238.658 216.329ZM238.935 212.315C238.915 212.594 238.9 212.735 238.886 213.015L245.398 214.76C245.373 215.053 245.364 215.204 245.346 215.498L238.834 213.753C238.813 214.031 238.805 214.175 238.784 214.453L238.119 214.275C238.173 213.415 238.204 212.986 238.272 212.13L238.937 212.308L238.935 212.315ZM245.72 211.411C245.689 211.701 245.672 211.85 245.64 212.141L242.498 211.299C242.47 211.575 242.455 211.717 242.427 211.993L245.569 212.835C245.544 213.127 245.527 213.276 245.503 213.569L238.303 211.64C238.376 210.769 238.415 210.335 238.523 209.474L245.722 211.403L245.72 211.411ZM242.781 207.754C242.96 207.802 243.063 207.96 243.028 208.15C242.95 208.582 242.914 208.802 242.842 209.243L245.876 210.056C245.83 210.343 245.813 210.492 245.774 210.781L238.604 208.859C238.7 208.126 238.759 207.766 238.891 207.042C238.927 206.852 239.081 206.763 239.26 206.811L242.781 207.754ZM240.217 204.413C240.146 204.678 240.102 204.812 240.038 205.079L246.536 206.82C246.462 207.099 246.423 207.242 246.363 207.525L239.865 205.784C239.801 206.051 239.772 206.189 239.715 206.457L239.05 206.279C239.225 205.452 239.32 205.04 239.56 204.23L240.226 204.408L240.217 204.413ZM246.98 204.937C246.887 205.196 246.844 205.33 246.758 205.591L246.086 205.411C246.171 205.15 246.214 205.016 246.307 204.757L246.98 204.937ZM244.074 204.158C244.719 204.385 245.041 204.502 245.684 204.735C245.627 204.889 245.604 204.975 245.548 205.128C244.869 205 244.532 204.941 243.851 204.82L239.686 203.704C239.771 203.443 239.815 203.309 239.907 203.049L244.072 204.165L244.074 204.158Z" fill="white"/>
<path d="M278.088 46.4177C278.574 46.5481 278.824 46.9602 278.69 47.4611L277.448 52.0984L273.326 50.9939L273.83 49.1118L276.156 49.735L276.612 48.0318L272.49 46.9273L272.034 48.6305L270.245 48.1511L270.701 46.4479L267.652 45.6311L267.196 47.3343L268.985 47.8137L268.481 49.6957L264.896 48.735L266.138 44.0978C266.272 43.5969 266.702 43.3669 267.182 43.4954L270.695 44.4369C271.411 44.6286 271.805 45.1025 271.845 45.7268C272.199 45.208 272.756 44.9891 273.486 45.1847L278.073 46.4138L278.088 46.4177Z" fill="white"/>
<path d="M268.149 36.652L280.694 40.0134L280.189 41.8955L276.067 40.791L275.588 42.5801L279.71 43.6846L279.206 45.5667L266.661 42.2052L268.149 36.652ZM269.433 39.0135L268.954 40.8025L273.792 42.0988L274.271 40.3097L269.433 39.0135Z" fill="white"/>
<path d="M274.339 32.1824C274.473 31.6815 274.903 31.4515 275.383 31.58L281.616 33.2501C282.102 33.3805 282.353 33.7927 282.218 34.2936L280.976 38.9309L268.438 35.5714L269.855 30.2829L271.644 30.7623L270.731 34.1687L273.601 34.9376L274.341 32.1753L274.339 32.1824ZM279.689 36.5765L280.145 34.8733L275.845 33.7209L275.388 35.4241L279.689 36.5765Z" fill="white"/>
<path d="M270.166 29.1236L271.414 24.4648L273.203 24.9442L272.459 27.7208L275.508 28.5377L276.227 25.8541L278.016 26.3335L277.297 29.0171L281.419 30.1216L282.163 27.3449L283.952 27.8243L282.704 32.4831L270.166 29.1236Z" fill="white"/>
<path d="M272.877 19.0046L274.666 19.484L273.97 22.0817L284.719 24.9618L284.215 26.8439L271.677 23.4844L272.877 19.0046Z" fill="white"/>
<path d="M289.016 34.2588C289.058 33.9863 289.08 33.8465 289.122 33.5741L286.324 32.8243C286.275 33.0949 286.253 33.2346 286.218 33.509L289.016 34.2588Z" fill="white"/>
<path d="M285.951 35.5928C285.923 35.8691 285.908 36.0108 285.88 36.2871L288.599 37.0157C288.627 36.7395 288.642 36.5977 288.67 36.3215L285.951 35.5928Z" fill="white"/>
<path d="M285.014 46.4173C284.979 46.6917 284.956 46.8315 284.907 47.102L287.383 47.7655C287.425 47.493 287.448 47.3532 287.49 47.0808L285.014 46.4173Z" fill="white"/>
<path d="M284.012 24.4503L285.286 25.1906C285.196 25.243 285.119 25.2992 285.057 25.3593C277.686 33.1175 285.241 44.5377 279.472 52.7866C279.302 52.994 279.364 53.2484 279.664 53.444C279.963 53.6467 280.439 53.7589 280.905 53.738C282.903 53.6063 284.892 53.4564 286.868 53.2956C288.039 54.7063 289.075 56.1345 289.903 57.5681C290.045 57.8131 290.494 57.995 291.033 58.0472C291.578 58.1013 292.157 58.0032 292.408 57.7792C299.192 50.6383 293.422 40.4863 296.714 32.3485C296.703 32.3915 296.789 32.215 296.908 31.9708L305.957 37.2413L306.462 35.3592L284.947 22.8217L284 24.4393L284.012 24.4503ZM291.283 50.2141C291.223 50.497 291.191 50.6421 291.131 50.925L287.725 50.0122C287.656 50.3238 287.614 50.4812 287.534 50.7818L290.94 51.6945C290.865 51.9736 290.827 52.1168 290.752 52.3959L283.467 50.4439C283.542 50.1648 283.587 50.0235 283.655 49.7425L286.868 50.6035C286.951 50.2958 286.991 50.1455 287.059 49.8339C286.336 49.6402 284.569 49.1666 283.846 48.973C283.913 48.6919 283.945 48.5469 283.998 48.2621L291.283 50.2141ZM291.542 47.4149C291.503 47.7036 291.486 47.8525 291.447 48.1412L288.163 47.261C288.127 47.5354 288.105 47.6752 288.056 47.9457L291.426 48.8489C291.38 49.1356 291.356 49.2826 291.303 49.5675C289.743 49.1495 285.678 48.0603 284.118 47.6423C284.276 46.7949 284.337 46.3664 284.445 45.5056L291.544 47.4078L291.542 47.4149ZM285.495 41.53L291.335 43.0947C291.353 42.8237 291.365 42.6963 291.384 42.4252L290.51 42.1913C290.528 41.8968 290.538 41.7461 290.562 41.4536L292.101 41.8658C292.051 42.5964 292.031 42.9591 291.973 43.6877C291.959 43.8834 291.819 43.9763 291.64 43.9283L285.078 42.17C284.899 42.122 284.782 41.9601 284.796 41.7645C284.846 41.0339 284.873 40.6731 284.923 39.9425C285.46 40.0864 285.725 40.1573 286.262 40.3011C286.244 40.5956 286.234 40.7463 286.21 41.0389L285.544 40.8605C285.525 41.1316 285.514 41.259 285.495 41.53ZM285.773 37.5163C285.752 37.7945 285.737 37.9362 285.723 38.2164L292.236 39.9613C292.211 40.2538 292.201 40.4046 292.184 40.6991L285.671 38.9541C285.651 39.2323 285.643 39.376 285.622 39.6542L284.956 39.4759C285.01 38.6159 285.041 38.1869 285.109 37.3308L285.775 37.5092L285.773 37.5163ZM292.558 36.6115C292.526 36.9021 292.509 37.051 292.477 37.3416L289.336 36.4998C289.308 36.7761 289.293 36.9178 289.265 37.1941L292.406 38.0358C292.382 38.3284 292.365 38.4773 292.34 38.7698L285.141 36.8408C285.213 35.9704 285.253 35.5361 285.361 34.6753L292.56 36.6043L292.558 36.6115ZM289.618 32.9552C289.797 33.0031 289.9 33.1612 289.865 33.3511C289.788 33.7829 289.751 34.0034 289.679 34.4442L292.714 35.2573C292.667 35.544 292.651 35.6929 292.612 35.9816L285.441 34.0602C285.538 33.3268 285.596 32.9666 285.729 32.2428C285.764 32.0529 285.918 31.9639 286.097 32.0118L289.618 32.9552ZM287.054 29.6143C286.983 29.8791 286.94 30.0132 286.876 30.2799L293.374 32.021C293.299 32.3001 293.261 32.4432 293.2 32.7261L286.702 30.985C286.638 31.2517 286.609 31.3896 286.552 31.6582L285.887 31.4799C286.063 30.6526 286.158 30.2408 286.398 29.4307L287.063 29.6091L287.054 29.6143ZM293.817 30.1378C293.724 30.3969 293.681 30.5309 293.596 30.7919L292.923 30.6116C293.008 30.3507 293.052 30.2166 293.144 29.9576L293.817 30.1378ZM290.911 29.3593C291.556 29.5858 291.878 29.7027 292.521 29.9363C292.464 30.0899 292.441 30.1758 292.385 30.3294C291.706 30.2012 291.369 30.1416 290.688 30.0205L286.523 28.9045C286.609 28.6436 286.652 28.5095 286.745 28.2505L290.91 29.3665L290.911 29.3593Z" fill="white"/>
<path fill-rule="evenodd" clip-rule="evenodd" d="M209.599 332.192C210.159 331.935 210.712 331.646 211.244 331.321C213.73 329.801 215.816 327.568 217.19 324.815L215.451 324.349C214.245 326.618 212.469 328.466 210.386 329.741C209.7 330.156 208.982 330.516 208.237 330.807L209.604 332.201L209.599 332.192Z" fill="white"/>
<path fill-rule="evenodd" clip-rule="evenodd" d="M206.096 338.026C204.795 335.637 202.609 333.778 199.861 333.042L192.247 331.001L192.724 329.22L200.338 331.26C201.677 331.618 203.303 331.816 204.631 331.727C203.524 330.993 202.016 330.352 200.678 329.993L193.063 327.953L193.541 326.171L201.155 328.211C203.903 328.947 206.724 328.438 209.047 327.012C210.432 326.164 211.643 324.993 212.561 323.574L214.335 324.05C213.236 325.949 211.693 327.499 209.912 328.594C208.564 329.414 207.079 329.975 205.539 330.229C206.609 331.015 207.602 331.833 208.297 332.702C207.258 333.114 205.992 333.319 204.672 333.464C205.886 334.457 206.892 335.685 207.641 337.067C208.644 338.908 209.198 341.02 209.2 343.214L207.425 342.739C207.341 341.051 206.877 339.432 206.102 338.004L206.096 338.026Z" fill="white"/>
<path fill-rule="evenodd" clip-rule="evenodd" d="M201.756 325.312C203.759 325.849 205.816 325.472 207.505 324.436C208.238 323.988 208.906 323.416 209.471 322.739L211.317 323.233C210.522 324.37 209.508 325.318 208.37 326.018C206.28 327.291 203.754 327.757 201.278 327.094L199.561 326.633L200.038 324.852L201.756 325.312Z" fill="white"/>
<path fill-rule="evenodd" clip-rule="evenodd" d="M197.221 335.395L197.698 333.613L199.416 334.073C201.885 334.734 203.846 336.403 205.019 338.55C205.663 339.728 206.066 341.055 206.18 342.436L204.333 341.941C204.182 341.072 203.891 340.242 203.479 339.488C202.528 337.745 200.942 336.392 198.938 335.855L197.221 335.395Z" fill="white"/>
<path fill-rule="evenodd" clip-rule="evenodd" d="M207.285 334.333C207.784 334.958 208.228 335.621 208.613 336.33C209.779 338.476 210.394 340.964 210.304 343.533L212.043 343.999C212.236 340.929 211.541 337.943 210.146 335.391C209.848 334.843 209.52 334.318 209.157 333.814L207.276 334.338L207.285 334.333Z" fill="white"/>
<path fill-rule="evenodd" clip-rule="evenodd" d="M214.952 315.908L214.941 315.951L208.866 315.635L208.373 317.474L218.435 320.17L218.84 318.66L214.524 317.504L211.575 317.005L211.594 316.934L217.057 317.239L217.435 315.83L212.543 313.391L212.562 313.32L215.374 314.334L219.689 315.49L220.094 313.98L210.032 311.284L209.539 313.123L214.954 315.901L214.952 315.908ZM219.281 311.231L212.096 309.306L212.501 307.796L219.686 309.721L219.281 311.231ZM221.352 309.255C221.46 308.854 221.257 308.524 220.87 308.42L212.132 306.079C211.746 305.975 211.405 306.16 211.298 306.561L210.439 309.767C210.331 310.168 210.534 310.498 210.92 310.602L219.658 312.943C220.045 313.047 220.386 312.862 220.493 312.461L221.352 309.255ZM222.934 303.351L219.628 302.465L219.223 303.975L221.091 304.476L220.725 305.843L213.54 303.917L213.906 302.551L215.345 302.936L215.749 301.426L212.872 300.655L211.875 304.376C211.768 304.777 211.971 305.108 212.357 305.211L221.095 307.553C221.481 307.656 221.822 307.471 221.93 307.071L222.927 303.349L222.934 303.351ZM213.085 299.861L223.147 302.557L223.552 301.047L214.928 298.736L215.486 296.654L214.048 296.268L213.085 299.861ZM223.229 296.497L216.044 294.571L216.449 293.061L223.634 294.987L223.229 296.497ZM225.298 294.528C225.406 294.127 225.203 293.796 224.816 293.693L216.079 291.351C215.692 291.248 215.351 291.433 215.244 291.833L214.385 295.039C214.277 295.44 214.48 295.771 214.867 295.874L223.605 298.216C223.991 298.319 224.332 298.134 224.439 297.734L225.298 294.528ZM217.488 289.183L217.874 287.744L221.752 288.784L221.367 290.222L217.488 289.183ZM223.419 288.317C223.526 287.917 223.323 287.586 222.937 287.483L217.505 286.027C217.119 285.924 216.778 286.108 216.67 286.509L215.654 290.302L225.716 292.998L226.12 291.488L222.814 290.602L223.426 288.319L223.419 288.317ZM228.288 283.371L224.982 282.485L224.577 283.995L226.445 284.495L226.079 285.862L218.894 283.937L219.26 282.57L220.698 282.956L221.103 281.446L218.226 280.675L217.229 284.396C217.122 284.797 217.324 285.127 217.711 285.231L226.449 287.572C226.835 287.676 227.176 287.491 227.284 287.09L228.281 283.369L228.288 283.371ZM218.439 279.881L228.501 282.577L228.905 281.067L220.282 278.756L220.706 277.174L229.329 279.485L229.734 277.975L219.672 275.279L218.439 279.881ZM228.93 275.221L221.745 273.296L222.15 271.786L229.334 273.711L228.93 275.221ZM230.999 273.252C231.107 272.851 230.904 272.521 230.517 272.417L221.779 270.076C221.393 269.972 221.052 270.157 220.945 270.558L220.086 273.764C219.978 274.165 220.181 274.495 220.568 274.599L229.305 276.94C229.692 277.043 230.033 276.859 230.14 276.458L230.999 273.252ZM223.189 267.907L223.574 266.469L227.453 267.508L227.068 268.946L223.189 267.907ZM229.118 267.049C229.225 266.648 229.022 266.318 228.636 266.214L223.204 264.759C222.818 264.655 222.477 264.84 222.369 265.241L221.353 269.034L231.415 271.73L231.819 270.22L228.513 269.334L229.125 267.051L229.118 267.049ZM224.113 264.458L224.499 263.019L233.122 265.33L233.526 263.82L224.903 261.509L225.289 260.071L223.85 259.686L222.675 264.072L224.113 264.458Z" fill="white"/>
<path d="M262.448 120.017L262.06 121.462L252.621 118.933L253.008 117.487L256.708 118.479L256.771 118.243C256.98 117.463 256.198 116.977 255.568 116.808L253.35 116.214L253.737 114.768L255.898 115.347C256.893 115.614 257.539 116.178 257.834 117.024C258.585 116.397 259.355 116.273 260.349 116.54L263.183 117.299L262.796 118.745L259.905 117.97C259.297 117.807 258.474 117.901 258.285 118.633L258.218 118.883L262.455 120.019L262.448 120.017ZM269.011 95.5207L259.572 92.9915L259.917 91.7034L265.435 93.1818L260.314 90.222L260.746 88.6119L270.185 91.1411L269.836 92.4435L263.266 90.6832L269.374 94.2221L269.009 95.5279L269.011 95.5207ZM270.459 90.1177L261.02 87.5885L261.365 86.3004L266.882 87.7788L261.762 84.819L262.193 83.2089L271.632 85.7381L271.283 87.0405L264.714 85.2803L270.822 88.8191L270.457 90.1249L270.459 90.1177ZM259.792 83.2099L260.902 83.5071L260.05 86.6845L258.941 86.3872L259.792 83.2099ZM268.027 99.1919L267.64 100.637L258.201 98.1082L258.588 96.6627L262.288 97.654L262.351 97.4179C262.56 96.6379 261.778 96.152 261.148 95.9833L258.93 95.3889L259.317 93.9433L261.478 94.5224C262.473 94.7889 263.119 95.3533 263.414 96.1993C264.165 95.5722 264.935 95.4485 265.929 95.7151L268.763 96.4744L268.376 97.92L265.485 97.1453C264.877 96.9823 264.054 97.0763 263.865 97.8082L263.798 98.0586L268.035 99.1938L268.027 99.1919ZM261.01 125.323L260.623 126.768L251.184 124.239L252.333 119.953L256.125 120.969L255.732 122.436L253.292 121.782L252.924 123.156L259.665 124.962L260.033 123.588L257.593 122.934L257.986 121.467L261.779 122.484L261.018 125.325L261.01 125.323ZM266.59 104.498L266.203 105.944L256.764 103.414L257.913 99.1277L261.705 100.144L261.312 101.611L258.872 100.957L258.504 102.331L265.245 104.138L265.613 102.763L263.173 102.11L263.566 100.643L267.359 101.659L266.598 104.5L266.59 104.498ZM251.862 127.09L251.502 128.435L258.243 130.242L258.603 128.896L251.862 127.09ZM259.59 130.626L259.202 132.071L249.763 129.542L250.912 125.255L260.351 127.784L259.59 130.626ZM256.096 111.289L255.735 112.634L262.477 114.441L262.837 113.095L256.096 111.289ZM263.821 114.832L263.434 116.277L253.995 113.748L255.144 109.461L264.583 111.991L263.821 114.832ZM257.149 107.36L259.682 108.039C259.854 107.51 260 106.851 259.034 106.592L258.175 106.362L257.467 106.172L257.149 107.36ZM261.034 108.401L263.897 109.168L264.215 107.98C263.6 107.816 262.992 107.653 262.383 107.49C261.417 107.231 261.157 107.859 261.042 108.403L261.034 108.401ZM258.169 104.811L259.328 105.122C260.08 105.323 260.548 105.778 260.767 106.366C261.331 105.95 262.055 105.852 262.857 106.067L265.948 106.895C265.712 107.776 265.478 108.649 265.242 109.529L264.855 110.974L255.416 108.445L255.803 107C256.039 106.119 256.273 105.246 256.509 104.366L258.169 104.811ZM255.002 135.295C253.086 134.375 250.964 133.277 248.984 132.508L249.503 130.569L258.942 133.098L258.605 134.358L254.869 133.357L251.532 132.302C252.572 132.772 256.382 134.552 258.058 135.968L258.022 136.104L257.985 136.24C255.819 136.626 251.629 136.262 250.493 136.15L253.911 136.904L257.647 137.905L257.309 139.165L247.87 136.636L248.39 134.696C250.483 135.012 252.87 135.122 254.995 135.293L255.002 135.295Z" fill="white"/>
<path d="M264.787 122.622L268.994 123.75C269.167 123.221 269.248 122.545 268.289 122.288L267.431 122.058L265.105 121.434L264.787 122.622ZM267.424 120.506L268.584 120.817C270.036 121.206 270.851 122.23 270.475 123.633L270.347 124.112L272.887 124.793L272.5 126.238L263.061 123.709C263.433 122.351 263.79 120.99 264.154 119.63L267.432 120.508L267.424 120.506ZM264.252 119.235L265.447 114.776L266.792 115.137L266.388 116.647L274.481 118.816L274.094 120.261L266 118.092L265.596 119.602L264.25 119.242L264.252 119.235ZM263.743 126.515L263.383 127.861L270.124 129.667L270.485 128.322L263.743 126.515ZM271.469 130.058L271.082 131.504L261.643 128.974L262.791 124.688L272.23 127.217L271.469 130.058ZM268.629 140.656L268.242 142.102L258.803 139.573L259.951 135.286L263.744 136.302L263.351 137.77L260.911 137.116L260.543 138.49L267.284 140.296L267.652 138.922L265.212 138.268L265.605 136.801L269.398 137.817L268.636 140.658L268.629 140.656ZM270.05 135.354L269.663 136.799L260.224 134.27L261.372 129.983L270.811 132.513L270.418 133.98L262.324 131.811L261.956 133.185L270.05 135.354Z" fill="white"/>
<path d="M259.958 153.382C260.483 153.139 261.002 152.864 261.497 152.559C263.827 151.136 265.785 149.037 267.076 146.453L265.444 146.016C264.314 148.144 262.644 149.883 260.69 151.077C260.047 151.473 259.375 151.807 258.673 152.079L259.958 153.382Z" fill="white"/>
<path d="M256.665 158.858C255.441 156.612 253.391 154.874 250.815 154.184L243.673 152.27L244.122 150.596L251.264 152.509C252.523 152.847 254.046 153.032 255.294 152.953C254.26 152.261 252.842 151.659 251.582 151.321L244.44 149.408L244.889 147.733L252.031 149.647C254.614 150.339 257.252 149.857 259.434 148.524C260.736 147.73 261.874 146.631 262.73 145.296L264.398 145.743C263.369 147.523 261.919 148.983 260.241 150.006C258.983 150.781 257.585 151.304 256.132 151.544C257.139 152.281 258.069 153.044 258.717 153.862C257.747 154.247 256.553 154.44 255.319 154.578C256.457 155.512 257.399 156.661 258.109 157.964C259.05 159.689 259.569 161.676 259.577 163.734L257.91 163.287C257.836 161.703 257.399 160.182 256.669 158.844L256.665 158.858Z" fill="white"/>
<path d="M252.597 146.93C254.48 147.434 256.407 147.084 257.994 146.113C258.682 145.692 259.309 145.154 259.839 144.522L261.571 144.986C260.825 146.051 259.874 146.939 258.801 147.595C256.845 148.797 254.467 149.226 252.149 148.605L250.539 148.173L250.987 146.499L252.597 146.93Z" fill="white"/>
<path d="M248.339 156.381L248.788 154.707L250.398 155.138C252.717 155.76 254.561 157.32 255.654 159.339C256.256 160.443 256.635 161.688 256.748 162.984L255.017 162.52C254.874 161.707 254.599 160.927 254.214 160.218C253.325 158.584 251.831 157.317 249.949 156.813L248.339 156.381Z" fill="white"/>
<path d="M257.786 155.392C258.25 155.977 258.673 156.604 259.032 157.268C260.127 159.279 260.697 161.618 260.618 164.028L262.25 164.465C262.431 161.584 261.778 158.786 260.472 156.388C260.195 155.876 259.883 155.379 259.55 154.906L257.786 155.392Z" fill="white"/>
</g>
</g>
<g clip-path="url(#clip3_1065_18440)">
<path d="M279.16 347H113.27C104.284 347 97 354.284 97 363.27V529.16C97 538.146 104.284 545.43 113.27 545.43H279.16C288.146 545.43 295.43 538.146 295.43 529.16V363.27C295.43 354.284 288.146 347 279.16 347Z" fill="#27306E"/>
<path d="M277.35 350.47H115.07C107.007 350.47 100.47 357.007 100.47 365.07V527.35C100.47 535.413 107.007 541.95 115.07 541.95H277.35C285.414 541.95 291.95 535.413 291.95 527.35V365.07C291.95 357.007 285.414 350.47 277.35 350.47Z" fill="#5EBDEB"/>
<path d="M251.4 504.66L250.49 504.41L278.63 402.37L279.54 402.62L251.4 504.66Z" fill="#ED1C24"/>
<path d="M216.03 402.69C216.03 404.02 215.14 404.95 213.77 404.95H201.03V393.64H206.19V400.03H210.86V388.72H206.19V383.8H210.86V375.44H206.19V380.36H201.03V370.52H213.77C215.15 370.52 216.03 371.45 216.03 372.78V382.42C216.03 384.39 215.09 385.71 213.52 386.26C215.09 386.8 216.03 388.08 216.03 390.1V402.69Z" fill="white"/>
<path d="M234.23 370.52V404.94H229.07V393.63H224.15V404.94H218.99V370.52H234.23ZM229.06 375.44H224.14V388.72H229.06V375.44Z" fill="white"/>
<path d="M249.91 383.31C251.29 383.31 252.17 384.24 252.17 385.57V402.68C252.17 404.01 251.29 404.94 249.91 404.94H237.17V370.52H251.68V375.44H242.34V383.31H249.91ZM242.34 400.03H247.01V388.23H242.34V400.03Z" fill="white"/>
<path d="M254.88 370.52H267.66V375.44H260.04V383.8H267.42V388.72H260.04V400.03H267.66V404.95H254.88V370.52Z" fill="white"/>
<path d="M282.66 370.52V375.44H275.53V404.95H270.37V370.52H282.66Z" fill="white"/>
<path d="M264.87 440.74C241.77 437.88 219.73 459.64 196.79 447.16C196.04 446.67 195.39 445.26 195.15 443.82C194.91 442.41 195.07 441.12 195.6 440.6C198.71 437.5 201.65 433.86 204.46 429.89C202.68 424.94 200.94 419.96 199.23 414.92C198.87 413.74 198.83 412.44 199.14 411.54C199.45 410.64 200.05 410.29 200.7 410.6C225.77 419.7 249.84 392.51 274.76 406.08C275.83 406.66 276.9 408.5 276.44 410.95C276.14 412.53 275.73 414.1 275.38 415.66C274.52 419.48 273.65 423.31 272.79 427.13C271.69 431.99 270.59 436.86 269.49 441.72C269.49 441.72 264.56 440.7 264.88 440.74H264.87Z" fill="#ED1C24"/>
<path d="M215.37 419.08C215.37 423.36 215.37 434.79 215.37 439.07C214.6 439.12 214.21 439.14 213.44 439.17C213.44 436.75 213.44 432.25 213.44 429.82C212.6 429.85 212.17 429.86 211.33 429.87C211.33 432.29 211.33 436.79 211.33 439.22C210.56 439.22 210.17 439.22 209.4 439.21C209.4 434.93 209.4 423.5 209.4 419.22C210.17 419.24 210.56 419.24 211.33 419.23C211.33 421.21 211.33 426.06 211.33 428.04C212.17 428.04 212.6 428.02 213.44 427.99C213.44 426.01 213.44 421.16 213.44 419.18C214.21 419.15 214.6 419.13 215.37 419.08Z" fill="white"/>
<path d="M222.71 418.33C222.71 422.61 222.71 433.53 222.71 437.82C221.94 437.93 221.55 437.98 220.78 438.07V429.05C220.05 429.14 219.68 429.18 218.94 429.26V438.51C218.17 438.59 217.78 438.63 217.01 438.69C217.01 434.41 217.01 423.26 217.01 418.97C219.29 418.78 220.42 418.65 222.7 418.34L222.71 418.33ZM220.79 420.41C220.06 420.5 219.69 420.54 218.95 420.62C218.95 422.6 218.95 425.43 218.95 427.41C219.68 427.33 220.05 427.29 220.79 427.2C220.79 425.22 220.79 422.39 220.79 420.41Z" fill="white"/>
<path d="M232.55 436.36C232.04 436.46 231.71 436.17 231.71 435.68V417.67C231.71 417.17 232.04 416.76 232.55 416.66C234.45 416.3 235.4 416.11 237.31 415.73C237.31 417.2 237.31 417.93 237.31 419.4C236.54 419.55 236.15 419.63 235.38 419.78V417.94C234.68 418.08 234.33 418.15 233.64 418.28V434.31C234.34 434.17 234.69 434.11 235.38 433.97V431.58C236.15 431.43 236.54 431.35 237.31 431.2V435.42C235.41 435.8 234.46 435.99 232.55 436.35V436.36Z" fill="white"/>
<path d="M238.5 415.5C240.74 415.06 241.86 414.84 244.1 414.42V416.26C243.37 416.4 243 416.46 242.26 416.6V434.48C241.49 434.63 241.1 434.7 240.33 434.85V416.97C239.6 417.11 239.23 417.19 238.49 417.33V415.49L238.5 415.5Z" fill="white"/>
<path d="M251.08 413.26V433.01C250.31 433.12 249.92 433.18 249.15 433.3V424.68C248.42 424.8 248.05 424.86 247.31 424.98V433.6C246.54 433.73 246.15 433.8 245.38 433.94C245.38 429.66 245.38 418.47 245.38 414.19C247.66 413.78 248.79 413.59 251.07 413.26H251.08ZM249.15 415.39C248.42 415.51 248.05 415.57 247.31 415.69V423.15C248.04 423.03 248.41 422.97 249.15 422.85C249.15 420.87 249.15 417.37 249.15 415.39Z" fill="white"/>
<path d="M254.66 424.16V432.48C253.89 432.57 253.5 432.61 252.73 432.71C252.73 428.43 252.73 417.32 252.73 413.03C254.67 412.78 255.64 412.67 257.58 412.51C258.09 412.47 258.42 412.79 258.42 413.29V422.96C258.42 423.46 258.09 423.83 257.58 423.87C256.41 423.96 255.83 424.02 254.66 424.15V424.16ZM254.66 422.32C255.39 422.24 255.76 422.2 256.5 422.13C256.5 420.15 256.5 416.43 256.5 414.44C255.77 414.51 255.4 414.55 254.66 414.63C254.66 416.61 254.66 420.33 254.66 422.32Z" fill="white"/>
<path d="M259.61 412.38C261.85 412.25 262.97 412.23 265.21 412.28V414.12C264.48 414.1 264.11 414.1 263.37 414.1C263.37 417.77 263.37 428.27 263.37 431.94C262.6 431.94 262.21 431.95 261.44 431.97V414.13C260.71 414.15 260.34 414.17 259.6 414.21V412.37L259.61 412.38Z" fill="white"/>
<path d="M267.05 428.26C266.9 426.43 266.83 425.52 266.68 423.7V412.26C267.41 412.3 267.78 412.32 268.52 412.38C268.52 414.38 268.52 421.81 268.52 423.82C268.37 425.63 268.3 426.53 268.15 428.34C267.71 428.31 267.49 428.29 267.05 428.27V428.26ZM266.68 429.82C267.41 429.86 267.78 429.88 268.52 429.94V431.79C267.79 431.73 267.42 431.71 266.68 431.67V429.82Z" fill="white"/>
<mask id="mask0_1065_18440" style="mask-type:luminance" maskUnits="userSpaceOnUse" x="100" y="350" width="192" height="192">
<path d="M277.35 350.47H115.07C107.007 350.47 100.47 357.007 100.47 365.07V527.35C100.47 535.413 107.007 541.95 115.07 541.95H277.35C285.414 541.95 291.95 535.413 291.95 527.35V365.07C291.95 357.007 285.414 350.47 277.35 350.47Z" fill="white"/>
</mask>
<g mask="url(#mask0_1065_18440)">
<path d="M130.45 458.32C130.16 457.33 129.08 456.32 128.04 456.49C127.56 456.57 127.35 456.74 127.29 457.29C127.25 457.64 127.26 458.01 127.22 458.36C127.17 458.83 127.12 459.31 127 459.76C126.72 460.82 126.06 461.58 125.26 462.19C124.76 462.56 124.25 462.92 123.73 463.25C122.66 463.92 122.08 464.95 121.86 466.26C121.84 466.38 121.86 466.51 121.86 466.73C121.86 466.73 121.76 468.39 122.76 469.06C122.76 469.06 122.44 467.03 123.76 466.73C123.76 466.73 124.46 466.38 125.24 467C125.24 467 126.23 465.87 125.48 465.01V464.71L128.81 463.74C129.09 463.42 129.36 463.15 129.59 462.84C129.8 462.57 130 462.28 130.13 461.96C130.3 461.54 130.42 461.1 130.51 460.65C130.67 459.88 130.69 459.11 130.46 458.33L130.45 458.32Z" fill="#271515"/>
<path d="M125.051 486.32C125.341 486.88 125.611 487.46 125.921 488.01C126.091 488.31 126.321 488.57 126.541 488.84C126.921 489.33 127.301 489.83 127.701 490.3C128.801 491.58 130.061 492.59 131.601 493.12C132.261 493.35 132.921 493.58 133.591 493.8C134.601 494.14 135.631 494.32 136.681 494.39C137.481 494.45 138.281 494.52 139.081 494.52C139.691 494.52 140.301 494.41 140.981 494.34C140.711 493.7 140.081 493.36 140.261 492.53C140.881 492.95 141.411 493.39 141.781 494.05C141.481 494.46 141.121 494.75 140.721 494.96C139.231 495.73 137.671 496.23 136.051 496.57C135.281 496.73 134.521 496.96 133.751 497.14C132.471 497.45 131.211 497.39 129.951 497.01C129.671 496.93 129.391 496.82 129.131 496.68C127.301 495.78 125.611 494.62 124.081 493.21C122.741 491.98 122.011 491.21 120.711 489.93C120.681 489.9 120.651 489.88 120.631 489.84C120.631 489.8 120.351 489.51 120.361 489.5C120.861 488.93 123.871 483.17 124.021 483.06C124.191 483.39 124.891 486 125.061 486.34L125.051 486.32Z" fill="#ED1C24"/>
<path d="M119.97 477.51C120.04 477.29 120.17 477.09 120.29 476.89C120.67 476.27 121.07 475.66 121.44 475.03C121.74 474.51 122 473.97 122.27 473.44C122.78 472.41 123.28 471.37 123.8 470.34C123.88 470.17 124.03 470.05 124.19 469.86C123.94 469.76 123.7 469.7 123.48 469.58C123.23 469.44 123.02 469.21 122.99 468.88C122.96 468.6 122.92 468.3 122.96 468.02C123.01 467.75 123.12 467.46 123.28 467.24C123.77 466.56 124.55 466.63 125.3 467.41C125.69 466.62 126.27 465.93 125.77 464.91C126.85 464.64 127.81 464.04 128.89 464.02C129.18 464.43 129.1 464.95 129.38 465.33C129.64 465.69 129.8 466.13 130.07 466.47C130.35 466.82 130.7 467.09 131.11 467.48C130.62 467.51 130.25 467.52 129.82 467.55C129.84 467.72 129.85 467.86 129.87 468.01C129.97 468.72 129.87 469.38 129.57 470.03C129.09 471.08 127.55 471.62 126.68 471.36C126.5 471.31 126.31 471.31 126.18 471.29C126 471.61 125.87 471.86 125.74 472.1C125.35 472.87 124.87 473.6 124.59 474.42C124.26 475.36 124.08 476.38 123.86 477.37C123.75 477.85 123.71 478.34 123.63 478.83C123.61 478.93 123.6 479.05 123.54 479.11C123.18 479.45 122.82 479.81 122.43 480.1C122.11 480.34 121.75 480.3 121.42 480.1C120.8 479.72 120.31 479.19 119.94 478.52C119.74 478.16 119.89 477.82 119.99 477.49L119.97 477.51Z" fill="#ED1C24"/>
<path d="M115.121 480.82C114.801 479.81 114.091 479.13 113.351 478.51C112.091 477.46 110.711 476.61 109.271 475.92C108.751 475.67 108.201 475.48 107.641 475.25C107.491 476.12 107.331 476.93 107.201 477.75C107.021 478.87 106.851 480 106.691 481.13C106.431 482.93 106.181 484.74 105.741 486.5C105.671 486.78 105.591 487.06 105.471 487.31C105.301 487.66 105.011 487.75 104.731 487.52C104.121 487.02 103.531 486.49 103.371 485.6C103.361 485.52 103.351 485.44 103.351 485.35C103.921 485.35 104.101 485.93 104.521 486.27C104.541 486.09 104.581 485.98 104.561 485.89C104.061 483.75 103.801 481.58 103.601 479.38C103.491 478.12 103.301 476.88 103.201 475.62C103.091 474.33 103.041 473.03 102.961 471.74C102.941 471.31 102.911 470.89 102.891 470.46C102.821 469.29 102.981 468.14 103.101 466.99C103.121 466.77 103.191 466.56 103.281 466.36C103.441 466.01 103.621 465.67 103.821 465.35C103.941 465.16 104.101 464.97 104.291 464.89C104.871 464.65 105.461 464.61 106.051 464.85C106.751 465.13 107.391 465.51 107.991 466.01C108.621 466.53 109.261 467.02 109.841 467.62C110.981 468.8 112.131 469.95 113.171 471.23C113.731 471.92 114.421 472.49 115.041 473.13C115.441 473.55 115.821 474 116.201 474.44C116.301 474.55 116.381 474.68 116.491 474.76C117.041 475.19 117.461 475.76 117.881 476.32C118.001 476.48 118.141 476.61 118.271 476.76C118.611 477.13 118.951 477.5 119.291 477.87C119.481 478.08 119.541 478.32 119.441 478.61C119.271 479.12 119.121 479.64 118.931 480.14C118.681 480.78 118.391 481.41 118.111 482.03C118.021 482.22 117.891 482.4 117.761 482.56C117.371 483 117.071 483.05 116.611 482.69C115.981 482.19 115.381 481.66 115.111 480.8L115.121 480.82Z" fill="#ED1C24"/>
<path d="M115.65 482.26C115.83 482.41 116.02 482.55 116.19 482.71C117.11 483.58 117.72 483.31 118.24 482.36C118.68 481.55 118.98 480.64 119.34 479.77C119.46 479.46 119.57 479.15 119.7 478.77C119.83 478.93 119.93 479.03 120 479.15C120.31 479.63 120.72 479.99 121.17 480.3C121.61 480.6 122.08 480.65 122.53 480.37C122.81 480.2 123.05 479.95 123.31 479.74C123.39 479.67 123.46 479.6 123.58 479.5C123.62 480.15 123.64 480.74 123.71 481.32C123.78 481.89 123.85 482.17 123.96 482.76C123.86 482.76 118 493.66 117.31 494.39C117.31 494.39 112.69 493.9 112.3 493.81C112.97 492.1 115.82 483.94 115.65 482.25V482.26Z" fill="#5EBDEB"/>
<path d="M112.27 510.33C111.45 511.82 110.68 513.33 109.8 514.77C109 516.08 108.29 517.47 107.34 518.66C106.82 519.31 106.25 519.87 105.58 520.3C104.84 520.78 104.02 520.83 103.2 520.67C101.61 520.34 100.1 519.78 98.6904 518.89C98.1004 518.52 97.4904 518.19 96.8904 517.83C96.6604 517.69 96.4304 517.54 96.2204 517.37C95.3004 516.63 94.3904 515.86 93.4604 515.13C92.9104 514.7 92.3304 514.31 91.7504 513.92C90.7304 513.22 89.7004 512.53 88.7904 511.65C88.5704 511.44 88.3204 511.26 88.0904 511.07C87.9704 510.97 87.8404 510.89 87.6904 510.78C87.9004 510.46 88.0904 510.18 88.3004 509.87C88.6504 510.02 88.9904 510.16 89.3304 510.3C89.9204 510.54 90.5204 510.77 91.1104 511C91.2104 511.04 91.3204 511.06 91.4204 511.11C92.3204 511.5 93.2204 511.9 94.1304 512.29C94.3404 512.38 94.5604 512.47 94.7904 512.54C95.8204 512.88 96.8604 513.22 97.8904 513.56C98.4304 513.74 98.9804 513.9 99.5104 514.13C100.11 514.39 100.72 514.37 101.33 514.37C101.82 514.37 102.31 514.31 102.8 514.23C102.97 514.2 103.15 514.09 103.27 513.95C103.51 513.66 103.72 513.35 103.92 513.02C104.29 512.39 104.6 511.72 105 511.11C105.63 510.13 106.1 509.06 106.61 508.01C106.7 507.83 106.77 507.65 106.87 507.44C108.7 508.4 110.64 508.95 112.58 509.68C112.47 509.92 112.38 510.12 112.28 510.31L112.27 510.33Z" fill="#ED1C24"/>
<path d="M112.771 509.37C111.851 509.26 107.541 507.6 107.021 507.15C107.361 506.53 107.711 505.91 108.031 505.27C108.441 504.47 108.801 503.64 109.211 502.84C109.611 502.04 110.041 501.25 110.501 500.38C110.641 500.55 110.731 500.65 110.811 500.77C111.151 501.27 111.581 501.64 112.101 501.89C112.581 502.12 113.031 502.43 113.501 502.67C114.131 502.99 114.771 503.27 115.481 503.6C114.781 505.67 113.571 507.41 112.761 509.37H112.771Z" fill="#5EBDEB"/>
<path d="M121.16 504.87C120.78 504.77 120.41 504.67 120.04 504.56C118.97 504.24 117.91 503.89 116.83 503.6C115.45 503.22 114.09 502.78 112.87 501.95C112.71 501.84 112.55 501.75 112.37 501.68C111.75 501.43 111.32 500.96 110.9 500.41C110.49 499.88 110.4 499.35 110.53 498.71C110.54 498.64 110.55 498.57 110.55 498.51C110.53 496.88 111.3 495.6 112.02 494.28C112.12 494.1 112.24 494.08 112.41 494.1C113.71 494.27 115.01 494.45 116.31 494.61C116.72 494.66 117.14 494.66 117.56 494.71C117.73 494.73 117.92 494.78 118.07 494.87C118.47 495.08 118.87 495.32 119.26 495.54C119.66 495.76 120.05 495.99 120.46 496.21C120.78 496.38 121.1 496.54 121.43 496.68C122.01 496.92 122.59 497.12 123.17 497.5C123.06 497.9 122.97 498.29 122.85 498.68C122.74 499.05 122.61 499.42 122.51 499.79C122.36 500.36 122.23 500.94 122.09 501.51C122.07 501.58 122.07 501.65 122.04 501.71C121.6 502.57 121.49 503.54 121.28 504.49C121.26 504.6 121.2 504.71 121.14 504.88L121.16 504.87Z" fill="#5EBDEB"/>
<path d="M143.95 524.33C143.16 522.83 142.38 521.32 141.58 519.82C141.07 518.86 140.57 517.9 140.02 516.98C139.62 516.3 139.15 515.66 138.72 515C138.62 514.85 138.52 514.7 138.42 514.54C138.04 513.9 137.69 513.24 137.29 512.61C136.46 511.33 135.44 510.23 134.36 509.22C133.94 508.83 133.45 508.61 132.94 508.38C131.53 507.76 130.02 507.5 128.58 507C127.58 506.65 126.59 506.27 125.59 505.93C125.05 505.75 124.48 505.64 123.93 505.49C123.13 505.29 122.34 505.09 121.49 504.87C121.73 503.83 121.81 502.8 122.28 501.89C122.35 501.76 122.38 501.6 122.4 501.45C122.58 500.14 123.13 498.96 123.43 497.62C123.75 497.74 124.05 497.82 124.31 497.97C125.18 498.48 126.13 498.7 127.06 499.04C127.91 499.35 128.79 499.54 129.64 499.84C130.81 500.25 131.99 500.66 133.09 501.3C133.73 501.67 134.4 501.99 135.04 502.36C135.88 502.86 136.73 503.34 137.41 504.12C137.69 504.44 138.04 504.67 138.31 505C139.22 506.13 139.9 507.42 140.46 508.8C140.72 509.44 140.99 510.07 141.23 510.71C141.59 511.67 141.93 512.64 142.27 513.61C142.46 514.15 142.61 514.71 142.82 515.24C143.37 516.61 143.54 518.09 143.93 519.51C144.32 520.91 144.7 522.31 145.08 523.72C145.16 524 145.24 524.27 145.32 524.55C145.5 525.2 145.68 525.85 145.85 526.5C145.89 526.66 145.92 526.83 145.97 527.03C145.8 527.07 145.66 527.1 145.47 527.14C144.96 526.19 144.46 525.26 143.96 524.32L143.95 524.33Z" fill="#ED1C24"/>
<path d="M179.181 483.29C179.571 484.06 179.941 484.85 180.371 485.59C180.601 486 180.921 486.35 181.211 486.72C181.731 487.39 182.241 488.07 182.801 488.71C184.301 490.46 186.031 491.84 188.141 492.57C189.041 492.88 189.951 493.19 190.861 493.5C192.241 493.96 193.651 494.2 195.091 494.3C196.181 494.38 197.281 494.48 198.371 494.47C199.201 494.47 200.041 494.32 200.971 494.22C200.611 493.34 199.731 492.89 199.991 491.75C200.841 492.32 201.561 492.92 202.071 493.83C201.671 494.4 201.171 494.78 200.621 495.07C198.581 496.12 196.451 496.81 194.241 497.26C193.191 497.48 192.151 497.79 191.101 498.04C189.361 498.46 187.621 498.38 185.901 497.86C185.521 497.75 185.141 497.59 184.771 497.41C182.271 496.17 179.961 494.6 177.871 492.66C176.041 490.98 174.291 489.19 172.511 487.44C172.471 487.4 172.441 487.33 172.411 487.28C172.411 487.22 172.401 487.16 172.411 487.13C173.101 486.35 173.721 485.47 174.491 484.82C175.591 483.89 176.811 483.13 177.981 482.3C178.141 482.19 178.291 482.06 178.501 481.9C178.731 482.35 178.961 482.8 179.201 483.26L179.181 483.29Z" fill="#F1645F"/>
<path d="M177.871 479.51C178.061 480.15 178.271 480.8 178.111 481.49C178.081 481.63 178.001 481.81 177.901 481.88C177.101 482.45 176.301 483 175.481 483.53C175.341 483.62 175.111 483.63 174.951 483.58C173.401 483.06 171.861 482.52 170.311 481.98C170.211 481.95 170.121 481.89 169.991 481.82C170.631 480.13 171.241 478.5 171.871 476.83C172.061 476.89 172.221 476.92 172.371 476.98C173.491 477.46 174.611 477.94 175.731 478.42C176.361 478.69 176.981 478.97 177.601 479.26C177.711 479.31 177.841 479.4 177.881 479.51H177.871Z" fill="#5EBDEB"/>
<path d="M172.241 471.25C172.341 470.95 172.511 470.67 172.671 470.4C173.191 469.55 173.741 468.72 174.241 467.86C174.651 467.15 175.011 466.42 175.381 465.68C176.081 464.27 176.761 462.85 177.471 461.45C177.581 461.22 177.791 461.05 178.001 460.8C177.661 460.67 177.321 460.58 177.031 460.42C176.681 460.23 176.411 459.92 176.361 459.46C176.321 459.07 176.261 458.66 176.321 458.29C176.391 457.92 176.541 457.53 176.761 457.23C177.431 456.3 178.501 456.4 179.521 457.46C180.051 456.38 180.851 455.44 180.161 454.05C181.641 453.67 182.951 452.87 184.421 452.83C184.821 453.39 184.711 454.1 185.091 454.62C185.441 455.11 185.671 455.71 186.041 456.18C186.421 456.66 186.911 457.03 187.471 457.56C186.801 457.59 186.291 457.62 185.711 457.65C185.731 457.88 185.751 458.08 185.771 458.28C185.901 459.25 185.771 460.16 185.361 461.05C184.701 462.48 182.611 463.23 181.411 462.87C181.161 462.8 180.901 462.8 180.731 462.78C180.491 463.22 180.301 463.55 180.131 463.89C179.591 464.94 178.941 465.95 178.551 467.06C178.101 468.35 177.851 469.74 177.551 471.09C177.401 471.74 177.341 472.42 177.231 473.08C177.211 473.21 177.191 473.38 177.111 473.46C176.621 473.93 176.131 474.41 175.601 474.82C175.171 475.15 174.671 475.09 174.211 474.82C173.361 474.31 172.701 473.57 172.191 472.66C171.921 472.17 172.121 471.71 172.261 471.25H172.241Z" fill="#F1645F"/>
<path d="M165.611 475.78C165.181 474.39 164.201 473.47 163.191 472.62C161.471 471.18 159.591 470.03 157.611 469.08C156.901 468.74 156.151 468.48 155.381 468.17C155.171 469.36 154.951 470.47 154.771 471.59C154.521 473.13 154.291 474.67 154.071 476.21C153.721 478.67 153.371 481.14 152.781 483.55C152.691 483.93 152.581 484.32 152.411 484.66C152.181 485.13 151.771 485.26 151.401 484.95C150.571 484.27 149.761 483.54 149.541 482.32C149.521 482.21 149.521 482.1 149.511 481.98C150.291 481.98 150.531 482.77 151.111 483.23C151.141 482.98 151.191 482.83 151.171 482.7C150.491 479.78 150.131 476.8 149.861 473.81C149.711 472.09 149.461 470.39 149.311 468.67C149.161 466.91 149.091 465.13 148.991 463.37C148.961 462.79 148.931 462.21 148.891 461.62C148.791 460.03 149.011 458.45 149.171 456.88C149.201 456.59 149.301 456.29 149.421 456.02C149.641 455.54 149.881 455.07 150.161 454.64C150.321 454.39 150.551 454.11 150.801 454.01C151.591 453.68 152.401 453.63 153.211 453.96C154.161 454.35 155.041 454.86 155.861 455.54C156.721 456.25 157.601 456.92 158.391 457.74C159.941 459.35 161.521 460.92 162.951 462.68C163.721 463.63 164.671 464.4 165.511 465.28C166.061 465.85 166.571 466.47 167.101 467.07C167.231 467.22 167.351 467.39 167.501 467.51C168.251 468.09 168.821 468.87 169.401 469.65C169.561 469.86 169.751 470.05 169.931 470.25C170.401 470.76 170.871 471.26 171.331 471.77C171.591 472.06 171.681 472.39 171.541 472.79C171.301 473.49 171.111 474.2 170.841 474.89C170.501 475.77 170.111 476.62 169.721 477.47C169.601 477.73 169.431 477.98 169.241 478.2C168.711 478.8 168.291 478.87 167.671 478.38C166.811 477.7 165.991 476.98 165.631 475.8L165.611 475.78Z" fill="#F1645F"/>
<path d="M166.341 477.75C166.591 477.95 166.841 478.15 167.071 478.37C168.331 479.56 169.161 479.19 169.871 477.89C170.471 476.78 170.891 475.54 171.371 474.35C171.541 473.93 171.681 473.5 171.861 472.99C172.041 473.21 172.171 473.35 172.281 473.51C172.711 474.17 173.261 474.66 173.881 475.08C174.481 475.49 175.121 475.56 175.741 475.18C176.121 474.95 176.451 474.61 176.811 474.32C176.921 474.23 177.021 474.13 177.171 473.99C177.231 474.88 177.251 475.68 177.351 476.48C177.441 477.25 177.611 478.01 177.751 478.81C177.611 478.8 177.541 478.81 177.491 478.78C175.821 478.05 174.161 477.32 172.491 476.59C172.391 476.55 172.301 476.49 172.201 476.46C171.721 476.29 171.631 476.34 171.431 476.86C170.971 478.09 170.531 479.32 170.061 480.54C169.881 481.01 169.651 481.45 169.441 481.91C169.701 482.28 170.071 482.33 170.401 482.44C171.211 482.71 172.031 482.92 172.831 483.2C173.471 483.42 174.081 483.71 174.701 483.97C173.801 484.92 172.931 485.85 172.001 486.84C171.191 486.41 170.361 485.92 169.491 485.52C168.931 485.26 168.331 485.13 167.741 484.96C167.281 484.83 166.811 484.73 166.291 484.61C167.201 482.27 166.571 480.04 166.341 477.73V477.75Z" fill="#5EBDEB"/>
<path d="M166.281 485.01C167.071 485.19 167.891 485.38 168.711 485.58C168.871 485.62 169.031 485.69 169.181 485.77C169.971 486.2 170.761 486.64 171.631 487.13C171.601 487.29 171.571 487.53 171.491 487.74C171.051 488.87 170.561 489.98 170.161 491.13C169.801 492.17 169.531 493.25 169.201 494.39C166.731 494.22 164.281 493.86 161.721 493.58C163.281 490.63 164.771 487.83 166.271 485.01H166.281Z" fill="#F1645F"/>
<path d="M127.501 516.87C127.101 517.37 126.741 517.95 126.151 518.26C126.011 518.33 125.751 518.39 125.701 518.32C125.581 518.16 125.471 517.88 125.521 517.71C125.801 516.73 126.241 515.83 126.921 515.11C127.001 515.03 127.151 514.97 127.261 514.99C127.641 515.07 128.021 515.19 128.551 515.33C128.061 515.73 127.681 516.04 127.271 516.38C127.331 516.52 127.401 516.67 127.501 516.87Z" fill="#F78F43"/>
<path d="M161.711 516.11C160.591 518.14 159.541 520.21 158.341 522.18C157.251 523.97 156.281 525.87 154.971 527.5C154.261 528.39 153.481 529.15 152.571 529.74C151.551 530.39 150.431 530.47 149.321 530.24C147.151 529.79 145.081 529.02 143.151 527.81C142.341 527.3 141.511 526.85 140.691 526.37C140.381 526.18 140.071 525.97 139.781 525.74C138.521 524.73 137.281 523.68 136.011 522.68C135.251 522.09 134.461 521.56 133.671 521.02C132.271 520.06 130.871 519.12 129.621 517.92C129.321 517.63 128.981 517.39 128.661 517.13C128.491 517 128.321 516.88 128.121 516.73C128.411 516.3 128.671 515.91 128.961 515.48C129.441 515.68 129.901 515.88 130.371 516.07C131.181 516.4 131.991 516.71 132.811 517.03C132.951 517.08 133.091 517.12 133.231 517.18C134.461 517.72 135.691 518.26 136.931 518.8C137.221 518.93 137.521 519.04 137.831 519.14C139.241 519.61 140.661 520.07 142.071 520.54C142.811 520.79 143.571 521.01 144.291 521.32C145.101 521.67 145.951 521.64 146.781 521.65C147.451 521.65 148.121 521.57 148.791 521.46C149.021 521.42 149.271 521.27 149.431 521.08C149.761 520.69 150.051 520.26 150.311 519.81C150.811 518.95 151.241 518.04 151.781 517.21C152.641 515.88 153.281 514.41 153.981 512.97C154.101 512.73 154.201 512.48 154.341 512.19C156.841 513.51 159.501 514.25 162.141 515.26C161.981 515.59 161.871 515.87 161.731 516.12L161.711 516.11Z" fill="#F1645F"/>
<path d="M162.391 514.8C161.131 514.65 155.241 512.38 154.541 511.77C155.001 510.92 155.491 510.07 155.931 509.2C156.481 508.1 156.991 506.97 157.541 505.87C158.091 504.77 158.681 503.7 159.301 502.51C159.491 502.75 159.621 502.88 159.721 503.04C160.191 503.73 160.781 504.22 161.491 504.57C162.141 504.89 162.761 505.31 163.411 505.64C164.271 506.07 165.151 506.46 166.121 506.91C165.171 509.74 163.501 512.12 162.401 514.8H162.391Z" fill="#5EBDEB"/>
<path d="M173.861 508.66C173.341 508.52 172.831 508.39 172.331 508.24C170.871 507.8 169.411 507.33 167.941 506.92C166.051 506.4 164.201 505.79 162.521 504.66C162.311 504.51 162.081 504.38 161.841 504.29C161.001 503.95 160.401 503.3 159.821 502.56C159.261 501.84 159.141 501.1 159.321 500.24C159.341 500.15 159.351 500.05 159.351 499.96C159.321 497.74 160.381 495.98 161.361 494.18C161.501 493.93 161.661 493.91 161.891 493.94C163.671 494.18 165.451 494.42 167.231 494.64C167.791 494.71 168.371 494.71 168.931 494.77C169.171 494.8 169.421 494.87 169.631 494.98C170.181 495.27 170.721 495.59 171.261 495.9C171.801 496.21 172.351 496.52 172.901 496.81C173.341 497.04 173.781 497.27 174.231 497.45C175.021 497.77 175.821 498.06 176.611 498.57C176.461 499.12 176.331 499.65 176.181 500.18C176.031 500.69 175.851 501.19 175.721 501.7C175.521 502.48 175.341 503.27 175.151 504.06C175.131 504.15 175.121 504.25 175.081 504.33C174.471 505.51 174.321 506.84 174.051 508.12C174.021 508.27 173.951 508.42 173.861 508.65V508.66Z" fill="#5EBDEB"/>
<path d="M205.021 535.26C203.941 533.21 202.871 531.14 201.781 529.09C201.091 527.78 200.401 526.47 199.651 525.2C199.101 524.26 198.461 523.39 197.871 522.49C197.731 522.28 197.591 522.08 197.471 521.86C196.951 520.98 196.471 520.08 195.921 519.23C194.781 517.48 193.391 515.98 191.911 514.59C191.341 514.06 190.661 513.75 189.971 513.45C188.041 512.6 185.981 512.25 184.011 511.57C182.641 511.1 181.291 510.57 179.921 510.11C179.181 509.86 178.401 509.71 177.641 509.51C176.551 509.23 175.471 508.96 174.301 508.67C174.631 507.25 174.741 505.84 175.371 504.59C175.461 504.41 175.501 504.19 175.531 503.99C175.771 502.2 176.521 500.59 176.931 498.76C177.361 498.93 177.771 499.03 178.131 499.24C179.321 499.93 180.621 500.24 181.881 500.7C183.041 501.12 184.241 501.39 185.411 501.8C187.021 502.36 188.631 502.92 190.131 503.79C191.011 504.3 191.921 504.73 192.791 505.25C193.941 505.93 195.101 506.59 196.031 507.65C196.411 508.08 196.891 508.41 197.261 508.86C198.511 510.4 199.441 512.17 200.201 514.05C200.551 514.92 200.931 515.78 201.261 516.66C201.751 517.97 202.211 519.3 202.681 520.63C202.941 521.37 203.151 522.13 203.441 522.85C204.191 524.72 204.421 526.75 204.961 528.69C205.501 530.6 206.011 532.52 206.541 534.44C206.641 534.82 206.761 535.19 206.871 535.57C207.121 536.46 207.361 537.35 207.601 538.24C207.661 538.46 207.701 538.69 207.761 538.96C207.531 539.01 207.331 539.06 207.071 539.12C206.381 537.82 205.691 536.55 205.011 535.26H205.021Z" fill="#F1645F"/>
<path d="M208.631 542.14C208.121 541.3 207.601 540.52 207.391 539.54C208.171 539.2 207.941 540.19 208.321 540.36C208.691 540.17 208.351 539.86 208.431 539.61C209.361 539.53 210.291 539.43 211.231 539.37C211.511 539.35 211.771 539.48 211.941 539.83C211.121 541.08 209.871 541.56 208.621 542.14H208.631Z" fill="#F78F43"/>
<path d="M183.911 455.82C183.211 455.62 182.951 455.16 183.151 454.53C183.251 454.2 183.491 454.12 183.731 454.34C184.051 454.63 184.141 455.29 183.911 455.82Z" fill="#F1645F"/>
<path d="M174.16 439.28C174.34 439.07 174.51 438.85 174.7 438.66C175.08 438.27 175.45 437.87 175.85 437.51C176.27 437.13 176.74 436.88 177.29 436.78C177.82 436.69 178.34 436.55 178.86 436.44C179.15 436.38 179.42 436.44 179.67 436.62C180.08 436.9 180.51 437.14 180.68 437.71C180.9 438.43 181.02 439.13 180.81 439.87C180.76 440.05 180.68 440.21 180.65 440.39C180.62 440.57 180.62 440.76 180.61 441.08C181.04 440.77 181.37 440.52 181.7 440.3C182.2 439.97 182.71 439.65 183.22 439.35C183.58 439.13 183.98 439.08 184.39 439.11C185.03 439.15 185.65 439.25 186.25 439.51C186.83 439.76 187.12 440.25 187.19 440.9C187.29 441.83 187.1 442.69 186.59 443.47C186.14 444.16 185.59 444.74 184.98 445.27C184.34 445.83 183.77 446.48 183.17 447.09C183.14 447.12 183.14 447.19 183.11 447.28C183.22 447.3 183.3 447.33 183.39 447.33C183.86 447.33 184.33 447.31 184.79 447.33C185.46 447.36 185.79 447.67 185.94 448.4C186.07 449.08 185.94 449.72 185.64 450.32C185.29 451.01 184.57 451.96 183.93 452.56C183.76 452.35 183.59 452.14 183.41 451.93C183.04 451.52 182.64 451.16 182.12 451.02C181.26 450.77 180.47 450.93 179.88 451.69C179.35 452.37 178.74 452.98 178.37 453.81C178.09 454.43 177.97 455.1 177.84 455.76C177.82 455.88 177.8 456.01 177.77 456.16C177.54 456.09 177.32 456.01 177.1 455.96C176.74 455.89 176.44 456.03 176.31 456.39C176.14 456.87 175.97 457.36 175.9 457.86C175.78 458.77 176.04 459.57 176.7 460.29C176.11 460.61 175.57 460.91 175.01 461.18C174.8 461.29 174.63 461.18 174.54 460.92C174.4 460.54 174.43 460.16 174.54 459.78C174.6 459.58 174.66 459.38 174.74 459.11C174.55 459.11 174.44 459.09 174.33 459.11C173.21 459.3 172.09 459.21 170.98 459.15C170.33 459.12 169.77 458.76 169.29 458.27C168.91 457.87 168.87 457.62 169.08 457.08C169.41 456.23 169.95 455.6 170.7 455.19C170.86 455.1 171.01 455 171.25 454.86C170.91 454.6 170.64 454.41 170.39 454.19C169.98 453.84 169.57 453.5 169.19 453.11C168.63 452.53 168.08 451.93 167.58 451.29C166.41 449.79 165.99 448.05 166.21 446.09C166.51 443.55 167.31 441.24 168.62 439.13C169.17 438.25 169.92 437.64 170.76 437.17C171.42 436.8 172.14 436.74 172.86 436.91C173.55 437.07 173.92 437.58 173.96 438.35C173.98 438.64 173.98 438.93 173.99 439.21C174.04 439.23 174.09 439.25 174.13 439.28H174.16Z" fill="#F78F43"/>
<path d="M184.421 452.84C184.421 452.84 182.051 449.6 180.891 450.7C180.891 450.7 177.341 452.9 177.761 455.82L177.961 456.6C177.961 456.6 176.481 455.33 176.111 456.06C176.111 456.06 174.171 459.93 177.991 460.8H182.041L182.431 457.71L184.411 452.84H184.421Z" fill="#F1645F"/>
<path d="M231.651 451.12C229.441 452.34 227.451 454.1 227.021 456.71C226.991 456.87 227.021 457.05 227.021 457.35C227.021 457.35 226.881 459.62 228.251 460.53C228.251 460.53 227.811 457.75 229.611 457.35C229.611 457.35 230.571 456.87 231.631 457.72C231.631 457.72 232.981 456.17 231.961 455V454.59L236.511 453.26C236.891 452.83 237.261 452.45 237.581 452.02C237.861 451.65 238.151 451.26 238.321 450.82C238.551 450.25 238.711 449.64 238.841 449.03C238.981 448.35 235.501 449.47 235.241 449.56C234.121 449.95 232.851 450.45 231.651 451.12Z" fill="#ED1C24"/>
<path d="M231.401 484.13C231.791 484.9 232.161 485.69 232.591 486.43C232.821 486.84 233.141 487.19 233.431 487.56C233.951 488.23 234.461 488.91 235.021 489.55C236.521 491.3 238.251 492.68 240.361 493.41C241.261 493.72 242.171 494.03 243.081 494.34C244.461 494.8 245.871 495.04 247.311 495.14C248.401 495.22 249.501 495.32 250.591 495.31C251.421 495.31 252.261 495.16 253.191 495.06C252.831 494.18 251.951 493.73 252.211 492.59C253.061 493.16 253.781 493.76 254.291 494.67C253.891 495.24 253.391 495.62 252.841 495.91C250.801 496.96 248.671 497.65 246.461 498.1C245.411 498.32 244.371 498.63 243.321 498.88C241.581 499.3 239.841 499.22 238.121 498.7C237.741 498.59 237.361 498.43 236.991 498.25C234.491 497.01 232.181 495.44 230.091 493.5C228.261 491.82 227.261 490.76 225.481 489.02C225.441 488.98 225.391 488.95 225.361 488.9C225.361 488.84 224.971 488.45 225.001 488.43C225.691 487.65 229.791 479.78 230.001 479.62C230.231 480.07 231.191 483.64 231.431 484.1L231.401 484.13Z" fill="white"/>
<path d="M224.46 472.09C224.56 471.79 224.73 471.51 224.89 471.24C225.41 470.39 225.96 469.56 226.46 468.7C226.87 467.99 227.23 467.26 227.6 466.52C228.3 465.11 228.98 463.69 229.69 462.29C229.8 462.06 230.01 461.89 230.22 461.64C229.88 461.51 229.54 461.42 229.25 461.26C228.9 461.07 228.63 460.76 228.58 460.3C228.54 459.91 228.48 459.5 228.54 459.13C228.61 458.76 228.76 458.37 228.98 458.07C229.65 457.14 230.72 457.24 231.74 458.3C232.27 457.22 233.07 456.28 232.38 454.89C233.86 454.51 235.17 453.71 236.64 453.67C237.04 454.23 236.93 454.94 237.31 455.46C237.66 455.95 237.89 456.55 238.26 457.02C238.64 457.5 239.13 457.87 239.69 458.4C239.02 458.43 238.51 458.46 237.93 458.49C237.95 458.72 237.97 458.92 237.99 459.12C238.12 460.09 237.99 461 237.58 461.89C236.92 463.32 234.83 464.07 233.63 463.71C233.38 463.64 233.12 463.64 232.95 463.62C232.71 464.06 232.52 464.39 232.35 464.73C231.81 465.78 231.16 466.79 230.77 467.9C230.32 469.19 230.07 470.58 229.77 471.93C229.62 472.58 229.56 473.26 229.45 473.92C229.43 474.05 229.41 474.22 229.33 474.3C228.84 474.77 228.35 475.25 227.82 475.66C227.39 475.99 226.89 475.93 226.43 475.66C225.58 475.15 224.92 474.41 224.41 473.5C224.14 473.01 224.34 472.55 224.48 472.09H224.46Z" fill="white"/>
<path d="M217.821 476.62C217.391 475.23 216.411 474.31 215.401 473.46C213.681 472.02 211.801 470.87 209.821 469.92C209.111 469.58 208.361 469.32 207.591 469.01C207.381 470.2 207.161 471.31 206.981 472.43C206.731 473.97 206.501 475.51 206.281 477.05C205.931 479.51 205.581 481.98 204.991 484.39C204.901 484.77 204.791 485.16 204.621 485.5C204.391 485.97 203.981 486.1 203.611 485.79C202.781 485.11 201.971 484.38 201.751 483.16C201.731 483.05 201.731 482.94 201.721 482.82C202.501 482.82 202.741 483.61 203.321 484.07C203.351 483.82 203.401 483.67 203.381 483.54C202.701 480.62 202.341 477.64 202.071 474.65C201.921 472.93 201.671 471.23 201.521 469.51C201.371 467.75 201.301 465.97 201.201 464.21C201.171 463.63 201.141 463.05 201.101 462.46C201.001 460.87 201.221 459.29 201.381 457.72C201.411 457.43 201.511 457.13 201.631 456.86C201.851 456.38 202.091 455.91 202.371 455.48C202.531 455.23 202.761 454.95 203.011 454.85C203.801 454.52 204.611 454.47 205.421 454.8C206.371 455.19 207.251 455.7 208.071 456.38C208.931 457.09 209.811 457.76 210.601 458.58C212.151 460.19 213.731 461.76 215.161 463.52C215.931 464.47 216.881 465.24 217.721 466.12C218.271 466.69 218.781 467.31 219.311 467.91C219.441 468.06 219.561 468.23 219.711 468.35C220.461 468.93 221.031 469.71 221.611 470.49C221.771 470.7 221.961 470.89 222.141 471.09C222.611 471.6 223.081 472.1 223.541 472.61C223.801 472.9 223.891 473.23 223.751 473.63C223.511 474.33 223.321 475.04 223.051 475.73C222.711 476.61 222.321 477.46 221.931 478.31C221.811 478.57 221.641 478.82 221.451 479.04C220.921 479.64 220.501 479.71 219.881 479.22C219.021 478.54 218.201 477.82 217.841 476.64L217.821 476.62Z" fill="white"/>
<path d="M218.55 478.59C218.8 478.79 219.05 478.99 219.28 479.21C220.54 480.4 221.37 480.03 222.08 478.73C222.68 477.62 223.1 476.38 223.58 475.19C223.75 474.77 223.89 474.34 224.07 473.83C224.25 474.05 224.38 474.19 224.49 474.35C224.92 475.01 225.47 475.5 226.09 475.92C226.69 476.33 227.33 476.4 227.95 476.02C228.33 475.79 228.66 475.45 229.02 475.16C229.13 475.07 229.23 474.97 229.38 474.83C229.44 475.72 229.46 476.52 229.56 477.32C229.65 478.09 229.76 478.49 229.9 479.28C229.76 479.27 221.75 494.19 220.81 495.18C220.81 495.18 214.49 494.52 213.96 494.39C214.87 492.05 218.78 480.89 218.54 478.59H218.55Z" fill="#5EBDEB"/>
<path d="M179.711 517.72C179.311 518.22 178.951 518.8 178.361 519.11C178.221 519.18 177.961 519.24 177.911 519.17C177.791 519.01 177.681 518.73 177.731 518.56C178.011 517.58 178.451 516.68 179.131 515.96C179.211 515.88 179.361 515.82 179.471 515.84C179.851 515.92 180.231 516.04 180.761 516.18C180.271 516.58 179.891 516.89 179.481 517.23C179.541 517.37 179.611 517.52 179.711 517.72Z" fill="#271515"/>
<path d="M213.931 516.95C212.811 518.98 211.761 521.05 210.561 523.02C209.471 524.81 208.501 526.71 207.191 528.34C206.481 529.23 205.701 529.99 204.791 530.58C203.771 531.23 202.651 531.31 201.541 531.08C199.371 530.63 197.301 529.86 195.371 528.65C194.561 528.14 193.731 527.69 192.911 527.21C192.601 527.02 192.291 526.81 192.001 526.58C190.741 525.57 189.501 524.52 188.231 523.52C187.471 522.93 186.681 522.4 185.891 521.86C184.491 520.9 183.091 519.96 181.841 518.76C181.541 518.47 181.201 518.23 180.881 517.97C180.711 517.84 180.541 517.72 180.341 517.57C180.631 517.14 180.891 516.75 181.181 516.32C181.661 516.52 182.121 516.72 182.591 516.91C183.401 517.24 184.211 517.55 185.031 517.87C185.171 517.92 185.311 517.96 185.451 518.02C186.681 518.56 187.911 519.1 189.151 519.64C189.441 519.77 189.741 519.88 190.051 519.98C191.461 520.45 192.881 520.91 194.291 521.38C195.031 521.63 195.791 521.85 196.511 522.16C197.321 522.51 198.171 522.48 199.001 522.49C199.671 522.49 200.341 522.41 201.011 522.3C201.241 522.26 201.491 522.11 201.651 521.92C201.981 521.53 202.271 521.1 202.531 520.65C203.031 519.79 203.461 518.88 204.001 518.05C204.861 516.72 205.501 515.25 206.201 513.81C206.321 513.57 206.421 513.32 206.561 513.03C209.061 514.35 211.721 515.09 214.361 516.1C214.201 516.43 214.091 516.71 213.951 516.96L213.931 516.95Z" fill="white"/>
<path d="M214.6 515.64C213.34 515.49 207.45 513.22 206.75 512.61C207.21 511.76 207.7 510.91 208.14 510.04C208.69 508.94 209.2 507.81 209.75 506.71C210.3 505.61 210.89 504.54 211.51 503.35C211.7 503.59 211.83 503.72 211.93 503.88C212.4 504.57 212.99 505.06 213.7 505.41C214.35 505.73 214.97 506.15 215.62 506.48C216.48 506.91 217.36 507.3 218.33 507.75C217.38 510.58 215.71 512.96 214.61 515.64H214.6Z" fill="#5EBDEB"/>
<path d="M226.071 509.5C225.551 509.36 225.041 509.23 224.541 509.08C223.081 508.64 221.621 508.17 220.151 507.76C218.261 507.24 216.411 506.63 214.731 505.5C214.521 505.35 214.291 505.22 214.051 505.13C213.211 504.79 212.611 504.14 212.031 503.4C211.471 502.68 211.351 501.94 211.531 501.08C211.551 500.99 211.561 500.89 211.561 500.8C211.531 498.58 212.591 496.82 213.571 495.02C213.711 494.77 213.871 494.75 214.101 494.78C215.881 495.02 217.661 495.26 219.441 495.48C220.001 495.55 220.581 495.55 221.141 495.61C221.381 495.64 221.631 495.71 221.841 495.82C222.391 496.11 222.931 496.43 223.471 496.74C224.011 497.05 224.561 497.36 225.111 497.65C225.551 497.88 225.991 498.11 226.441 498.29C227.231 498.61 228.031 498.9 228.821 499.41C228.671 499.96 228.541 500.49 228.391 501.02C228.241 501.53 228.061 502.03 227.931 502.54C227.731 503.32 227.551 504.11 227.361 504.9C227.341 504.99 227.331 505.09 227.291 505.17C226.681 506.35 226.531 507.68 226.261 508.96C226.231 509.11 226.161 509.26 226.071 509.49V509.5Z" fill="#5EBDEB"/>
<path d="M257.231 536.11C256.151 534.06 255.081 531.99 253.991 529.94C253.301 528.63 252.611 527.32 251.861 526.05C251.311 525.11 250.671 524.24 250.081 523.34C249.941 523.13 249.801 522.93 249.681 522.71C249.161 521.83 248.681 520.93 248.131 520.08C246.991 518.33 245.601 516.83 244.121 515.44C243.551 514.91 242.871 514.6 242.181 514.3C240.251 513.45 238.191 513.1 236.221 512.42C234.851 511.95 233.501 511.42 232.131 510.96C231.391 510.71 230.611 510.56 229.851 510.36C228.761 510.08 227.681 509.81 226.511 509.52C226.841 508.1 226.951 506.69 227.581 505.44C227.671 505.26 227.711 505.04 227.741 504.84C227.981 503.05 228.731 501.44 229.141 499.61C229.571 499.78 229.981 499.88 230.341 500.09C231.531 500.78 232.831 501.09 234.091 501.55C235.251 501.97 236.451 502.24 237.621 502.65C239.231 503.21 240.841 503.77 242.341 504.64C243.221 505.15 244.131 505.58 245.001 506.1C246.151 506.78 247.311 507.44 248.241 508.5C248.621 508.93 249.101 509.26 249.471 509.71C250.721 511.25 251.651 513.02 252.411 514.9C252.761 515.77 253.141 516.63 253.471 517.51C253.961 518.82 254.421 520.15 254.891 521.48C255.151 522.22 255.361 522.98 255.651 523.7C256.401 525.57 256.631 527.6 257.171 529.54C257.711 531.45 258.221 533.37 258.751 535.29C258.851 535.67 258.971 536.04 259.081 536.42C259.331 537.31 259.571 538.2 259.811 539.09C259.871 539.31 259.911 539.54 259.971 539.81C259.741 539.86 259.541 539.91 259.281 539.97C258.591 538.67 257.901 537.4 257.221 536.11H257.231Z" fill="white"/>
<path d="M260.381 542.65C259.891 541.84 259.381 541.08 259.181 540.13C259.931 539.8 259.721 540.76 260.091 540.93C260.451 540.74 260.121 540.45 260.201 540.2C261.101 540.12 262.011 540.03 262.921 539.97C263.191 539.95 263.441 540.07 263.611 540.42C262.821 541.63 261.601 542.1 260.391 542.66L260.381 542.65Z" fill="#271515"/>
<path d="M274.66 500.85C274.92 501.35 275.16 501.86 275.44 502.35C275.59 502.62 275.8 502.85 275.99 503.09C276.33 503.53 276.66 503.97 277.02 504.39C278 505.53 279.13 506.43 280.5 506.91C281.09 507.12 281.68 507.32 282.27 507.51C283.17 507.81 284.09 507.97 285.02 508.03C285.73 508.08 286.45 508.15 287.16 508.14C287.7 508.14 288.25 508.04 288.85 507.98C288.61 507.41 288.04 507.11 288.21 506.37C288.77 506.74 289.23 507.13 289.56 507.73C289.3 508.1 288.97 508.35 288.61 508.54C287.28 509.23 285.89 509.67 284.45 509.97C283.76 510.11 283.09 510.32 282.4 510.48C281.26 510.75 280.13 510.7 279.01 510.37C278.76 510.3 278.51 510.2 278.28 510.08C276.65 509.27 275.14 508.25 273.78 506.99C272.59 505.89 271.45 504.73 270.29 503.59C270.26 503.56 270.24 503.52 270.23 503.48C270.23 503.44 270.23 503.4 270.23 503.38C270.68 502.87 271.08 502.3 271.59 501.87C272.31 501.27 273.1 500.77 273.86 500.23C273.96 500.16 274.06 500.08 274.2 499.97C274.35 500.26 274.5 500.56 274.65 500.86L274.66 500.85Z" fill="#F78F43"/>
<path d="M273.8 498.39C273.92 498.81 274.06 499.23 273.96 499.68C273.94 499.77 273.89 499.89 273.82 499.94C273.3 500.31 272.77 500.67 272.24 501.02C272.15 501.08 272 501.09 271.89 501.05C270.88 500.71 269.87 500.36 268.87 500.01C268.81 499.99 268.75 499.95 268.66 499.91C269.08 498.81 269.47 497.75 269.89 496.65C270.01 496.69 270.12 496.71 270.21 496.75C270.94 497.06 271.67 497.37 272.4 497.69C272.81 497.87 273.22 498.05 273.62 498.24C273.69 498.27 273.78 498.33 273.8 498.4V498.39Z" fill="#5EBDEB"/>
<path d="M272.13 487.44C271.4 487.59 270.66 487.71 269.92 487.61C269.63 487.57 269.32 487.47 269.07 487.32C268.38 486.91 267.88 486.26 267.46 485.53C266.85 484.45 266.56 483.26 266.44 482C266.35 481.06 266.18 480.13 265.77 479.29C265.27 478.25 264.54 477.51 263.45 477.29C263.02 477.21 262.6 477.27 262.2 477.46C260.95 478.04 259.63 478.37 258.29 478.53C256.99 478.68 255.67 478.7 254.42 478.14C253.95 477.93 253.5 477.65 253.08 477.35C252.09 476.65 251.29 475.75 250.75 474.58C250.73 474.53 250.7 474.47 250.66 474.43C249.82 473.18 249.71 471.73 249.8 470.25C249.85 469.51 250 468.78 250.12 468.05C250.17 467.77 250.23 467.48 250.35 467.22C250.7 466.45 250.84 465.61 251.06 464.8C251.18 464.35 251.37 463.92 251.58 463.52C251.85 462.99 252.33 462.89 252.83 462.91C253.09 462.92 253.23 463.15 253.35 463.38C253.79 464.16 254 465.02 254.15 465.9C254.33 466.88 254.72 467.75 255.36 468.44C255.88 469 256.51 469.33 257.26 469.42C258.15 469.53 258.98 469.42 259.79 468.99C260.39 468.68 260.99 468.39 261.62 468.16C262.47 467.85 263.35 467.75 264.22 467.99C264.59 468.09 264.95 468.27 265.27 468.5C266.04 469.06 266.66 469.78 267.1 470.69C267.5 471.52 267.9 472.36 268.37 473.14C268.97 474.14 269.53 475.2 270.34 475.99C271.2 476.83 272.2 477.34 273.4 477.17C273.99 477.09 274.58 477.03 275.16 476.94C275.39 476.91 275.62 476.85 275.84 476.76C276.46 476.48 277.09 476.2 277.7 475.89C278.3 475.59 278.93 475.59 279.56 475.6C279.74 475.6 279.92 475.74 280.08 475.85C280.25 475.96 280.38 476.11 280.55 476.23C281.18 476.67 281.24 477.35 281.08 478.04C280.91 478.76 280.63 479.44 280.12 479.97C279.79 480.31 279.53 480.73 279.23 481.1C279.06 481.31 278.85 481.49 278.61 481.73C278.5 481.41 278.42 481.18 278.35 480.94C278.29 480.75 278.2 480.67 278.01 480.71C277.51 480.81 277.01 480.88 276.53 481.09C276.11 481.28 275.67 481.39 275.23 481.54C275.13 481.57 275.04 481.63 274.94 481.68C275.34 482.6 275.34 482.62 274.8 483.54C274.36 483.16 273.86 483.1 273.34 483.3C273.06 483.4 272.88 483.64 272.74 483.9C272.51 484.34 272.46 484.8 272.55 485.31C272.64 485.83 272.98 486.09 273.34 486.33C273.2 487.09 272.68 487.32 272.12 487.44H272.13Z" fill="#F1645F"/>
<path d="M270.14 493C270.2 492.8 270.31 492.62 270.42 492.45C270.76 491.9 271.12 491.36 271.44 490.79C271.71 490.33 271.94 489.85 272.18 489.37C272.64 488.45 273.08 487.53 273.54 486.61C273.61 486.46 273.75 486.35 273.89 486.19C273.67 486.11 273.45 486.05 273.26 485.94C273.03 485.81 272.85 485.61 272.82 485.32C272.79 485.07 272.75 484.8 272.8 484.56C272.84 484.32 272.95 484.06 273.08 483.87C273.52 483.26 274.21 483.33 274.88 484.02C275.23 483.32 275.75 482.7 275.3 481.8C276.26 481.56 277.12 481.03 278.08 481.01C278.34 481.37 278.27 481.84 278.51 482.18C278.74 482.5 278.89 482.89 279.13 483.19C279.38 483.5 279.69 483.74 280.06 484.09C279.62 484.11 279.29 484.13 278.91 484.15C278.93 484.3 278.93 484.43 278.95 484.56C279.04 485.19 278.95 485.78 278.68 486.36C278.25 487.29 276.88 487.78 276.11 487.55C275.95 487.5 275.78 487.5 275.66 487.49C275.5 487.78 275.38 487.99 275.27 488.22C274.92 488.91 274.5 489.56 274.24 490.29C273.94 491.13 273.78 492.03 273.59 492.92C273.5 493.35 273.45 493.79 273.38 494.22C273.37 494.31 273.35 494.42 273.3 494.47C272.98 494.77 272.66 495.09 272.31 495.35C272.03 495.56 271.7 495.53 271.41 495.35C270.86 495.02 270.42 494.54 270.09 493.94C269.91 493.62 270.04 493.32 270.14 493.02V493Z" fill="#F78F43"/>
<path d="M265.81 495.96C265.53 495.06 264.89 494.45 264.23 493.9C263.11 492.96 261.88 492.21 260.59 491.59C260.13 491.37 259.64 491.2 259.13 490.99C258.99 491.76 258.85 492.49 258.73 493.22C258.57 494.22 258.42 495.23 258.27 496.23C258.04 497.84 257.82 499.44 257.43 501.01C257.37 501.26 257.3 501.51 257.19 501.73C257.04 502.04 256.78 502.12 256.53 501.92C255.99 501.47 255.46 501 255.32 500.21C255.31 500.14 255.31 500.07 255.3 499.99C255.81 499.99 255.96 500.5 256.35 500.81C256.37 500.65 256.4 500.55 256.39 500.47C255.95 498.57 255.71 496.63 255.53 494.67C255.43 493.55 255.27 492.44 255.17 491.32C255.07 490.17 255.03 489.02 254.96 487.86C254.94 487.48 254.92 487.1 254.9 486.72C254.84 485.68 254.98 484.66 255.09 483.63C255.11 483.44 255.17 483.24 255.25 483.07C255.39 482.76 255.55 482.45 255.73 482.17C255.84 482 255.98 481.83 256.15 481.76C256.66 481.55 257.19 481.51 257.72 481.73C258.34 481.98 258.91 482.31 259.45 482.76C260.01 483.23 260.59 483.66 261.1 484.19C262.11 485.24 263.14 486.27 264.07 487.41C264.57 488.03 265.19 488.53 265.74 489.1C266.1 489.47 266.43 489.88 266.78 490.27C266.87 490.37 266.94 490.48 267.04 490.56C267.53 490.94 267.9 491.45 268.28 491.95C268.38 492.09 268.51 492.21 268.62 492.34C268.92 492.67 269.23 493 269.53 493.33C269.7 493.52 269.76 493.73 269.67 493.99C269.51 494.44 269.39 494.91 269.21 495.36C268.99 495.93 268.73 496.49 268.48 497.04C268.4 497.21 268.29 497.37 268.17 497.51C267.83 497.9 267.55 497.95 267.15 497.63C266.59 497.19 266.06 496.72 265.82 495.95L265.81 495.96Z" fill="#F78F43"/>
<path d="M266.29 497.24C266.45 497.37 266.62 497.5 266.77 497.64C267.59 498.42 268.14 498.18 268.6 497.33C268.99 496.61 269.26 495.8 269.58 495.03C269.69 494.76 269.78 494.48 269.9 494.14C270.02 494.28 270.1 494.38 270.17 494.48C270.45 494.91 270.81 495.23 271.21 495.5C271.6 495.77 272.02 495.81 272.43 495.56C272.68 495.41 272.9 495.19 273.13 495C273.2 494.94 273.27 494.88 273.37 494.79C273.41 495.37 273.43 495.89 273.49 496.41C273.55 496.91 273.66 497.41 273.75 497.93C273.66 497.93 273.61 497.93 273.58 497.91C272.49 497.44 271.41 496.96 270.32 496.48C270.26 496.45 270.19 496.42 270.13 496.39C269.82 496.28 269.76 496.31 269.63 496.65C269.33 497.45 269.04 498.25 268.74 499.05C268.62 499.35 268.47 499.64 268.34 499.94C268.51 500.18 268.75 500.21 268.97 500.28C269.49 500.46 270.03 500.59 270.55 500.78C270.96 500.92 271.37 501.11 271.77 501.28C271.19 501.9 270.62 502.5 270.01 503.15C269.48 502.87 268.94 502.55 268.37 502.29C268.01 502.12 267.61 502.04 267.23 501.93C266.93 501.85 266.62 501.78 266.28 501.7C266.88 500.18 266.47 498.72 266.31 497.22L266.29 497.24Z" fill="#5EBDEB"/>
<path d="M266.25 501.97C266.76 502.09 267.3 502.21 267.83 502.34C267.94 502.37 268.04 502.41 268.14 502.47C268.66 502.75 269.17 503.04 269.74 503.36C269.72 503.46 269.7 503.62 269.65 503.76C269.36 504.5 269.04 505.22 268.78 505.97C268.54 506.65 268.37 507.35 268.16 508.09C266.55 507.98 264.95 507.74 263.29 507.56C264.31 505.64 265.28 503.81 266.26 501.97H266.25Z" fill="#F78F43"/>
<path d="M240.97 522.74C240.71 523.06 240.47 523.44 240.09 523.64C240 523.69 239.83 523.72 239.79 523.68C239.71 523.58 239.64 523.4 239.67 523.28C239.85 522.64 240.14 522.06 240.59 521.58C240.64 521.53 240.74 521.49 240.81 521.5C241.06 521.55 241.31 521.63 241.65 521.72C241.33 521.98 241.09 522.18 240.81 522.4C240.85 522.49 240.9 522.59 240.96 522.72L240.97 522.74Z" fill="#F78F43"/>
<path d="M263.27 522.25C262.54 523.57 261.85 524.93 261.07 526.21C260.36 527.38 259.73 528.61 258.87 529.68C258.41 530.26 257.9 530.76 257.3 531.14C256.64 531.57 255.91 531.62 255.18 531.47C253.77 531.18 252.42 530.67 251.16 529.89C250.63 529.56 250.09 529.27 249.56 528.95C249.36 528.83 249.15 528.69 248.97 528.54C248.15 527.88 247.34 527.2 246.51 526.55C246.02 526.16 245.5 525.82 244.99 525.47C244.08 524.85 243.16 524.23 242.35 523.45C242.15 523.26 241.93 523.1 241.72 522.94C241.61 522.85 241.5 522.78 241.37 522.68C241.56 522.4 241.73 522.15 241.91 521.87C242.22 522 242.52 522.13 242.83 522.25C243.36 522.46 243.89 522.67 244.42 522.88C244.51 522.92 244.61 522.94 244.69 522.98C245.49 523.33 246.3 523.68 247.1 524.03C247.29 524.11 247.49 524.19 247.68 524.25C248.6 524.56 249.52 524.85 250.44 525.16C250.92 525.32 251.42 525.46 251.89 525.67C252.42 525.9 252.97 525.88 253.52 525.88C253.96 525.88 254.4 525.83 254.83 525.76C254.98 525.74 255.15 525.64 255.25 525.51C255.46 525.25 255.65 524.97 255.83 524.68C256.16 524.12 256.44 523.52 256.79 522.98C257.35 522.11 257.77 521.15 258.22 520.22C258.3 520.06 258.37 519.9 258.45 519.71C260.08 520.57 261.81 521.05 263.54 521.71C263.44 521.93 263.37 522.11 263.28 522.27L263.27 522.25Z" fill="#F78F43"/>
<path d="M263.71 521.39C262.89 521.3 259.05 519.81 258.59 519.41C258.89 518.85 259.21 518.3 259.49 517.73C259.85 517.01 260.18 516.28 260.54 515.56C260.9 514.84 261.28 514.14 261.69 513.37C261.81 513.52 261.9 513.61 261.97 513.72C262.27 514.17 262.66 514.49 263.12 514.72C263.55 514.93 263.95 515.2 264.37 515.42C264.93 515.7 265.5 515.95 266.13 516.25C265.51 518.09 264.42 519.65 263.7 521.39H263.71Z" fill="#5EBDEB"/>
<path d="M271.19 517.39C270.85 517.3 270.52 517.22 270.19 517.12C269.24 516.83 268.29 516.52 267.33 516.26C266.1 515.92 264.89 515.53 263.8 514.79C263.66 514.7 263.51 514.61 263.36 514.55C262.81 514.33 262.42 513.9 262.05 513.42C261.69 512.95 261.61 512.47 261.72 511.91C261.73 511.85 261.74 511.79 261.74 511.73C261.72 510.28 262.41 509.13 263.05 507.96C263.14 507.8 263.25 507.78 263.4 507.8C264.56 507.96 265.72 508.11 266.88 508.26C267.25 508.31 267.62 508.31 267.99 508.35C268.15 508.37 268.31 508.42 268.45 508.49C268.81 508.68 269.16 508.89 269.51 509.09C269.86 509.29 270.22 509.49 270.58 509.68C270.86 509.83 271.15 509.98 271.45 510.1C271.96 510.31 272.49 510.5 273 510.83C272.9 511.19 272.82 511.54 272.72 511.88C272.62 512.21 272.51 512.54 272.42 512.87C272.29 513.38 272.17 513.89 272.05 514.41C272.04 514.47 272.03 514.53 272 514.58C271.6 515.35 271.51 516.21 271.33 517.05C271.31 517.15 271.26 517.24 271.21 517.4L271.19 517.39Z" fill="#5EBDEB"/>
<path d="M291.5 534.73C290.79 533.39 290.1 532.05 289.39 530.71C288.94 529.86 288.49 529 288 528.17C287.64 527.56 287.23 526.99 286.84 526.4C286.75 526.27 286.66 526.13 286.58 525.99C286.24 525.42 285.93 524.83 285.57 524.27C284.83 523.13 283.92 522.15 282.96 521.25C282.59 520.9 282.15 520.7 281.7 520.5C280.44 519.95 279.1 519.72 277.82 519.27C276.93 518.96 276.05 518.62 275.15 518.32C274.66 518.16 274.16 518.06 273.67 517.93C272.96 517.75 272.25 517.57 271.49 517.38C271.71 516.45 271.78 515.54 272.19 514.72C272.25 514.6 272.28 514.46 272.3 514.33C272.46 513.16 272.95 512.11 273.22 510.92C273.5 511.03 273.77 511.1 274 511.23C274.77 511.68 275.63 511.88 276.45 512.18C277.21 512.46 277.99 512.63 278.75 512.9C279.8 513.27 280.85 513.63 281.83 514.2C282.4 514.53 283 514.81 283.57 515.15C284.32 515.59 285.08 516.03 285.69 516.71C285.94 516.99 286.25 517.2 286.49 517.5C287.3 518.5 287.91 519.66 288.41 520.89C288.64 521.46 288.88 522.02 289.1 522.59C289.42 523.45 289.72 524.31 290.02 525.18C290.19 525.66 290.32 526.16 290.51 526.63C291 527.85 291.15 529.17 291.5 530.43C291.85 531.68 292.19 532.93 292.53 534.18C292.6 534.43 292.68 534.67 292.74 534.92C292.9 535.5 293.06 536.08 293.22 536.66C293.26 536.8 293.28 536.95 293.32 537.13C293.17 537.16 293.04 537.19 292.87 537.23C292.42 536.38 291.97 535.55 291.53 534.71L291.5 534.73Z" fill="#F78F43"/>
<path d="M277.74 482.94C277.28 482.81 277.11 482.51 277.24 482.1C277.31 481.88 277.46 481.84 277.62 481.98C277.83 482.17 277.89 482.6 277.74 482.94Z" fill="#F78F43"/>
</g>
<path d="M167.5 393.63C167.12 394.1 166.7 394.55 166.27 394.97C164.22 396.94 161.6 398.36 158.67 398.97V397.2C161.1 396.63 163.29 395.41 165.01 393.76C165.57 393.21 166.09 392.62 166.55 391.99L167.51 393.64L167.5 393.63Z" fill="#ED1C24"/>
<path d="M173.85 391.78C171.93 389.93 170.74 387.38 170.74 384.58V376.82H168.95V384.58C168.95 385.94 168.73 387.55 168.31 388.78C167.9 387.54 167.67 385.94 167.67 384.58V376.82H165.88V384.58C165.88 387.38 164.69 389.93 162.77 391.78C161.63 392.88 160.22 393.74 158.66 394.25V396.06C160.72 395.5 162.56 394.43 164.04 393.01C165.15 391.94 166.05 390.67 166.68 389.26C167.15 390.48 167.66 391.64 168.31 392.52C168.95 391.64 169.47 390.49 169.94 389.26C170.57 390.67 171.47 391.94 172.58 393.01C174.06 394.43 175.9 395.5 177.96 396.06V394.25C176.4 393.74 174.99 392.89 173.85 391.78Z" fill="#ED1C24"/>
<path d="M163.02 384.41C163.02 386.45 162.15 388.31 160.75 389.66C160.15 390.24 159.44 390.73 158.66 391.1V392.98C159.93 392.51 161.07 391.79 162.02 390.88C163.74 389.22 164.81 386.93 164.81 384.41V382.66H163.02V384.41Z" fill="#ED1C24"/>
<path d="M173.61 382.66H171.82V384.41C171.82 386.93 172.89 389.22 174.61 390.88C175.55 391.79 176.69 392.51 177.96 392.98V391.1C177.19 390.73 176.48 390.25 175.88 389.66C174.48 388.31 173.61 386.46 173.61 384.41V382.66Z" fill="#ED1C24"/>
<path d="M170.09 391.97C170.55 392.6 171.06 393.19 171.63 393.74C173.35 395.4 175.53 396.61 177.96 397.18V398.95C175.03 398.35 172.41 396.93 170.36 394.96C169.92 394.54 169.51 394.09 169.13 393.62L170.09 391.97Z" fill="#ED1C24"/>
<path d="M124.25 383.45L118.5 394.78V395.77H124.25V398.96H115.15V394.33L120.9 383V379.81H118.51V383H115.16V378.08C115.16 377.22 115.73 376.61 116.63 376.61H122.79C123.68 376.61 124.26 377.22 124.26 378.08V383.44L124.25 383.45Z" fill="white"/>
<path d="M126.67 398.96C125.78 398.96 125.2 398.35 125.2 397.49V378.08C125.2 377.22 125.77 376.61 126.67 376.61H132.83C133.72 376.61 134.3 377.22 134.3 378.08V397.49C134.3 398.35 133.73 398.96 132.83 398.96H126.67ZM130.95 395.77V379.81H128.56V395.77H130.95Z" fill="white"/>
<path d="M144.59 383.45L138.84 394.78V395.77H144.59V398.96H135.49V394.33L141.24 383V379.81H138.85V383H135.5V378.08C135.5 377.22 136.07 376.61 136.97 376.61H143.13C144.02 376.61 144.6 377.22 144.6 378.08V383.44L144.59 383.45Z" fill="white"/>
<path d="M150.17 398.96V394.81H144.58V391.94L148.99 376.62H152.5L148.19 391.62H150.17V388.75L153.52 388.11V391.62H154.8V394.81H153.52V398.96H150.17Z" fill="white"/>
<path d="M177.96 370.23H114.66V372.29H177.96V370.23Z" fill="#ED1C24"/>
<path d="M177.97 404.62H115.38V406.41H177.97V404.62Z" fill="#ED1C24"/>
<path d="M213.9 357.48H178.53C172.18 357.48 167.03 354.34 167.03 350.48H225.4C225.4 354.35 220.25 357.48 213.9 357.48Z" fill="white"/>
</g>
<defs>
<clipPath id="clip0_1065_18440">
<rect width="400" height="353" fill="white"/>
</clipPath>
<clipPath id="clip1_1065_18440">
<rect width="733.196" height="42" fill="white" transform="translate(72.5688 -184) rotate(75)"/>
</clipPath>
<clipPath id="clip2_1065_18440">
<rect width="733.196" height="42" fill="white" transform="translate(132 524.213) rotate(-75)"/>
</clipPath>
<clipPath id="clip3_1065_18440">
<rect width="198.43" height="198.43" fill="white" transform="translate(97 347)"/>
</clipPath>
</defs>
</svg>
