<svg width="1170" height="1132" viewBox="0 0 1170 1132" fill="none" xmlns="http://www.w3.org/2000/svg">
<g clip-path="url(#clip0_928_68)">
<rect width="1170" height="1132" fill="#60D0FF"/>
<g filter="url(#filter0_d_928_68)">
<path d="M46.5036 1730.98C46.5036 1730.98 -111.293 1276.98 115.095 1168.39C341.483 1059.81 849.245 930.659 1043.25 907.698C1237.26 884.736 1356.29 1016.92 1358 1127.23L46.5036 1730.98Z" fill="#CAEFFC"/>
</g>
<g filter="url(#filter1_d_928_68)">
<path d="M1208.86 1103.39C1155.17 1191.39 993.259 1179.3 847.071 1184.57C732.186 1188.64 515.309 1361.14 219.657 1508.21C-79.2862 1657.01 -357.234 1491.87 -350.894 1377.75C-344.543 1261.38 -199.68 1213.43 200.094 1053.21C483.487 939.63 1084.67 893.032 1191.55 998.203C1222.85 1029.46 1232.44 1065.32 1208.86 1103.39Z" fill="#88D8FC"/>
</g>
<path d="M-297.11 1478.06C-334.21 1445.62 -353.661 1410.13 -351.889 1378.11C-345.46 1259.91 -195.098 1210.6 199.427 1052.2C334.317 998.017 549.646 955.945 761.363 942.404C981.557 928.346 1142.2 948.834 1191.31 997.254C1209.54 1015.49 1223.58 1038.08 1221.86 1065.25C1220.65 1079.17 1216.11 1092.48 1208.73 1103.78C1162.75 1179.32 1040.79 1181.55 911.682 1183.9C800.441 1185.97 795.824 1177.23 536.349 1332.2C443.559 1387.61 338.388 1450.43 219.551 1509.67C21.7695 1608.34 -187.533 1573.37 -297.11 1478.06ZM862.76 939.993C663.129 943.145 380.927 981.123 199.937 1053.83C-195.486 1212.67 -344.007 1261.71 -350.336 1378.22C-356.603 1491.32 -79.7708 1657.12 218.92 1508.09C337.711 1448.87 442.851 1386.08 535.611 1330.68C794.848 1175.88 801.685 1184.18 911.66 1182.18C1040.36 1179.82 1161.92 1177.61 1207.44 1102.8C1214.68 1091.75 1219.12 1078.74 1220.3 1065.12C1222.01 1038.4 1207.99 1016.3 1190.28 998.541C1149.34 958.178 1029.9 937.355 862.76 939.993Z" fill="#0F2572"/>
<path d="M250.543 998.172C233.28 991.424 240.702 975.598 237.3 960.55C235.579 952.983 230.984 948.752 230.785 943.758C230.767 943.737 230.767 943.737 230.784 943.712C230.746 943.545 230.714 943.375 230.69 943.203C229.034 932.213 212.796 923.324 204.315 923.915C195.617 924.521 187.305 936.314 182.12 945.642C170.308 966.895 181.597 968.13 167.187 986.198C163.395 993.188 137.221 1003.14 165.575 1041.29C169.994 1047.29 175.139 1052.27 180.799 1056.01C192.127 1062.7 201.71 1053.36 212.781 1052.22C223.492 1051.07 230.757 1053.93 244.338 1034.69C250.826 1025.67 258.553 1001.32 250.543 998.172Z" fill="white"/>
<path d="M190.562 1058.75C179.896 1059.49 172.47 1050.06 165.354 1041.58C162.135 1037.43 159.215 1032.89 156.631 1028.02C142.8 1000.89 164.082 991.259 166.936 985.957C181.244 968.011 170.035 966.707 181.874 945.402C189.106 932.398 197.87 921.108 209.505 923.999C214.651 925.212 229.32 932 230.991 943.126C231.887 949.766 235.883 952.868 237.592 960.432C241.069 975.758 233.581 991.123 250.629 997.781C256.595 1000.13 253.921 1013.54 251.157 1021.46C246.926 1033.43 239.734 1043.12 230.773 1048.93C225.031 1051.74 218.922 1052.99 212.807 1052.62C205.159 1053.41 198.082 1058.23 190.562 1058.75ZM165.914 1041.17C188.588 1070.96 195.827 1052.23 216.54 1051.6C220.554 1051.99 224.582 1051.22 228.348 1049.34C248.819 1039.9 259.277 1002.02 250.454 998.567C238.229 993.783 238.162 984.293 238.089 974.24C238.73 966.452 237.15 958.629 233.659 952.304C232.155 949.865 231.079 947.014 230.508 943.957C230.472 943.885 230.457 943.8 230.464 943.715C230.432 943.569 230.405 943.421 230.386 943.271C228.756 932.448 212.614 923.749 204.334 924.325C195.298 924.954 186.699 938.099 182.375 945.88C170.589 967.059 181.948 968.248 167.396 986.495C163.084 994.523 137.462 1003.02 165.759 1040.96C165.824 1041.01 165.877 1041.08 165.914 1041.17Z" fill="#0F2572"/>
<path d="M230.646 1048.56C230.611 1048.54 230.595 1048.56 230.578 1048.58C224.894 1051.39 218.838 1052.62 212.781 1052.22C200.846 1053.45 191.635 1063.58 179.035 1054.91C174.127 1051.15 169.603 1046.57 165.575 1041.29C157.535 1030.47 164.609 1041.18 172.444 1037.94C173.611 1037.55 174.668 1036.72 175.483 1035.54C176.298 1034.37 176.837 1032.91 177.032 1031.33C177.914 1022.77 168.72 1011.32 172.971 1004.42C175.41 1000.44 180.649 1001.12 184.915 1000.24C189.897 998.795 194.262 994.849 197.091 989.229C199.919 983.61 200.99 976.756 200.077 970.112C198.732 961.367 194.309 951.766 198.096 944.486C201.423 938.113 207.242 939.722 209.444 924.4C216.134 926.411 222.431 930.264 227.924 935.708C231.321 938.911 229.862 942.412 231.569 947.03C226.751 952.563 219.46 965.478 220.059 973.847C220.139 975.779 220.708 977.62 221.673 979.073C222.639 980.526 223.945 981.507 225.383 981.858C227.82 981.603 230.198 980.726 232.384 979.275C234.719 978.292 238.01 978.838 238.567 981.623C239.021 983.938 237.215 986.115 235.776 987.992C233.451 990.803 231.693 994.338 230.66 998.276C229.627 1002.21 229.352 1006.43 229.859 1010.55C230.181 1012.38 230.83 1014.08 231.752 1015.51C232.675 1016.94 233.843 1018.06 235.16 1018.77C236.476 1019.48 237.902 1019.75 239.316 1019.58C240.731 1019.41 242.093 1018.78 243.288 1017.77C247.402 1014.25 250.981 1009.74 253.839 1004.48C255.065 1016.43 245.69 1039.24 230.646 1048.56Z" fill="white"/>
<path d="M179.787 1055.85C172.932 1050.95 166.82 1044.41 161.759 1036.57C161.713 1036.5 161.686 1036.41 161.682 1036.32C161.679 1036.23 161.7 1036.13 161.741 1036.06C161.782 1035.98 161.841 1035.93 161.908 1035.91C161.976 1035.88 162.048 1035.89 162.112 1035.92C165.279 1038.03 168.901 1038.6 172.355 1037.56C173.469 1037.19 174.478 1036.41 175.256 1035.29C176.034 1034.17 176.547 1032.78 176.73 1031.28C177.587 1022.85 168.324 1011.33 172.731 1004.16C175.267 1000.02 180.643 1000.71 184.861 999.833C189.76 998.41 194.052 994.527 196.833 989C199.615 983.473 200.67 976.733 199.777 970.197C198.408 961.421 193.972 951.688 197.844 944.256C199.812 941.46 202.04 939.008 204.475 936.958C209.288 931.266 208.445 923.804 209.497 924C216.233 926.02 222.573 929.896 228.104 935.375C229.015 936.334 229.751 937.552 230.258 938.938C230.766 940.325 231.031 941.844 231.035 943.385C231.046 943.454 231.06 943.521 231.078 943.587C231.099 943.789 231.129 943.988 231.17 944.184C231.318 945.005 231.513 945.81 231.756 946.591L231.843 946.852C231.873 946.933 231.882 947.025 231.868 947.113C231.855 947.202 231.82 947.282 231.769 947.341C227.03 952.787 219.783 965.626 220.363 973.807C220.443 975.643 220.983 977.392 221.897 978.777C222.812 980.161 224.048 981.103 225.412 981.453C229.308 981.937 233.208 976.169 237.445 979.243C237.788 979.472 238.092 979.792 238.336 980.184C238.581 980.575 238.762 981.03 238.868 981.518C239.789 986.206 233.381 988.343 230.591 999.746C228.868 1006.96 229.775 1015.15 234.908 1018.18C244.456 1023.8 252.774 1003.67 253.923 1004.09C254.315 1004.26 254.222 1006.55 254.197 1007.1C253.698 1024.88 239.203 1048.34 224.072 1051.64C214.788 1053.75 216.29 1050.3 201.874 1055.7C193.615 1058.78 187.538 1060.7 179.787 1055.85ZM165.914 1041.17C188.361 1069.95 195.627 1053.59 212.757 1051.81C217.974 1052.03 223.187 1051.21 228.221 1049.38C228.257 1049.35 228.298 1049.34 228.339 1049.34C228.947 1049.04 229.62 1048.68 230.461 1048.21C241.325 1042.56 254.198 1020.75 253.592 1005.5C243.529 1021.59 238.576 1021.22 234.663 1018.93C227.483 1014.71 226.908 998.78 235.808 987.372C237.141 985.64 238.653 983.679 238.274 981.725C238.19 981.342 238.046 980.988 237.852 980.684C237.658 980.38 237.418 980.133 237.147 979.959C233.203 977.078 229.491 982.761 225.358 982.266C223.852 981.895 222.482 980.87 221.465 979.352C220.449 977.833 219.844 975.909 219.747 973.884C219.147 965.47 226.292 952.638 231.193 946.92C230.855 945.936 230.615 944.899 230.477 943.833L230.486 943.833L230.475 943.788C230.051 941.86 230.353 938.506 227.752 936.037C222.367 930.726 216.219 926.927 209.686 924.875C209.431 927.991 208.634 930.987 207.358 933.627C206.081 936.267 204.36 938.479 202.33 940.09C192.652 948.804 198.281 956.463 200.372 970.031C201.305 976.783 200.218 983.751 197.343 989.462C194.467 995.173 190.027 999.179 184.961 1000.63C180.776 1001.52 175.547 1000.87 173.216 1004.67C169.122 1011.3 178.242 1022.69 177.337 1031.39C177.141 1033.04 176.581 1034.58 175.728 1035.81C174.875 1037.05 173.766 1037.92 172.54 1038.33C165.299 1041.34 159.65 1032.77 165.759 1040.96C165.822 1041.02 165.875 1041.09 165.914 1041.17Z" fill="#0F2572"/>
<path d="M247.221 1028.49L247.403 1029.51C246.487 1031.34 245.462 1033.07 244.338 1034.69C240.542 1040.55 235.853 1045.29 230.578 1048.58C224.894 1051.39 218.838 1052.62 212.78 1052.22C196.853 1053.86 189.276 1068.55 169.426 1045.99C171.96 1047.62 174.591 1048.98 177.293 1050.04C178.82 1050.57 180.416 1050.67 181.974 1050.33C183.532 1049.98 185.016 1049.2 186.33 1048.04C187.643 1046.88 188.756 1045.36 189.593 1043.59C190.43 1041.81 190.973 1039.82 191.186 1037.75C191.28 1032.75 187.925 1027.54 188.626 1022.69C189.479 1016.87 195.168 1015.86 199.257 1013.16C201.624 1011.49 203.662 1009.11 205.208 1006.21C206.754 1003.31 207.765 999.965 208.159 996.453C209.199 986.721 205.296 977.22 205.082 967.485C204.962 963.108 206.052 961.802 208.741 959.577C222.599 948.005 215.253 939.536 218.07 928.105C221.526 930.228 224.825 932.773 227.924 935.708C231.113 938.714 230.257 943.129 230.785 943.758C230.785 943.771 230.786 943.783 230.789 943.795C230.793 943.806 230.798 943.817 230.804 943.826C230.811 943.987 230.835 944.146 230.875 944.299C231.378 946.97 231.749 946.242 230.608 947.529C224.844 954.423 217.761 962.32 214.398 973.374C213.096 977.048 212.787 981.204 213.524 985.144C213.94 987.078 214.856 988.757 216.111 989.89C217.366 991.022 218.881 991.535 220.392 991.341C221.653 991.048 222.856 990.144 224.114 989.761C225.372 989.377 226.95 989.722 227.437 991.147C228 992.77 226.959 994.711 227.064 996.503C227.199 998.589 228.609 999.448 230.303 999.626C230.015 1000.78 229.803 1001.96 229.668 1003.16C229.101 1007.82 230.125 1005.53 228.566 1008.31C225.366 1013.05 223.327 1018.96 222.719 1025.26C222.623 1026.66 222.769 1028.07 223.146 1029.39C223.523 1030.71 224.122 1031.89 224.896 1032.86C225.67 1033.82 226.6 1034.54 227.615 1034.96C228.63 1035.37 229.704 1035.48 230.755 1035.27C236.023 1033.89 242.178 1025.39 247.221 1028.49Z" fill="white"/>
<path d="M169.22 1046.3C169.165 1046.23 169.13 1046.14 169.119 1046.05C169.109 1045.95 169.125 1045.85 169.164 1045.77C169.203 1045.69 169.263 1045.63 169.333 1045.6C169.403 1045.57 169.478 1045.57 169.545 1045.61C172.071 1047.22 174.685 1048.56 177.365 1049.64C178.848 1050.16 180.398 1050.26 181.911 1049.93C183.424 1049.6 184.867 1048.84 186.144 1047.72C187.421 1046.59 188.504 1045.12 189.32 1043.4C190.136 1041.68 190.668 1039.75 190.879 1037.74C190.97 1032.8 187.592 1027.65 188.327 1022.61C189.221 1016.54 195.029 1015.49 199.121 1012.79C201.443 1011.15 203.442 1008.81 204.959 1005.96C206.477 1003.12 207.469 999.84 207.858 996.394C208.995 985.662 202.899 969.71 205.301 963.192C206.093 961.49 207.23 960.117 208.583 959.23C216.937 952.247 217.409 947.642 217.183 937.9C217.133 935.83 217.077 928.247 217.94 927.732C221.541 929.749 224.952 932.314 228.104 935.375C228.861 936.104 229.494 937.035 229.961 938.109C230.429 939.182 230.721 940.374 230.819 941.607C230.817 941.555 230.842 941.77 230.842 941.747C230.86 942.201 230.977 942.937 231.035 943.384C231.042 943.432 231.088 943.632 231.09 943.671C231.135 943.868 231.099 943.925 231.161 944.167C231.308 944.923 231.487 945.666 231.697 946.395C232.158 948.12 219.486 957.727 214.678 973.525C213.385 977.106 213.081 981.174 213.819 985.02C214.22 986.855 215.089 988.448 216.278 989.528C217.467 990.608 218.902 991.108 220.338 990.942C221.561 990.655 222.78 989.751 224.05 989.363C224.711 989.072 225.425 989.072 226.086 989.364C226.747 989.656 227.319 990.223 227.716 990.98C228.353 992.789 227.262 994.735 227.375 996.468C227.507 998.497 229.052 999.084 230.329 999.217C230.375 999.222 230.42 999.241 230.459 999.272C230.499 999.303 230.533 999.345 230.559 999.396C230.585 999.446 230.602 999.504 230.609 999.564C230.616 999.625 230.613 999.686 230.6 999.745C230.042 1001.97 229.768 1004.31 229.791 1006.66C229.816 1007.71 223.06 1016.5 223.034 1025.26C222.999 1026.77 223.218 1028.26 223.676 1029.64C224.134 1031.02 224.818 1032.25 225.68 1033.23C232.278 1040.39 240.162 1023.74 247.355 1028.12C247.536 1028.22 247.572 1028.66 247.61 1028.92L247.699 1029.42C247.972 1030.83 239.673 1043.44 230.773 1048.92C230.753 1048.94 230.73 1048.95 230.706 1048.96C226.293 1051.71 221.418 1052.9 216.555 1052.41C196.451 1053.03 190.083 1069.89 169.22 1046.3ZM171.307 1047.54C190.455 1068 197.107 1052.19 216.54 1051.6C220.549 1051.92 224.564 1051.15 228.339 1049.34C238.617 1044.29 247.281 1030.51 246.96 1028.77C240.115 1024.97 232.187 1041.42 225.292 1033.86C224.36 1032.8 223.619 1031.48 223.121 1029.99C222.623 1028.5 222.382 1026.89 222.414 1025.26C223.007 1018.86 225.067 1012.87 228.317 1008.07C229.786 1005.43 228.787 1007.78 229.366 1003.09C229.482 1002.04 229.659 1001 229.896 999.976C227.991 999.648 226.886 998.438 226.758 996.535C226.651 994.77 227.652 992.729 227.162 991.315C226.735 990.098 225.331 989.792 224.185 990.162C222.755 990.91 221.275 991.474 219.764 991.847C214.964 992.182 210.529 984.995 214.116 973.223C217.39 962.43 223.972 954.88 230.397 947.226C231.352 946.17 231.01 946.808 230.577 944.402C229.864 941.995 230.582 938.723 227.752 936.037C224.76 933.212 221.584 930.745 218.261 928.666C215.835 939.774 222.645 948.632 208.819 959.993C206.212 962.148 205.291 963.347 205.394 967.472C205.598 977.22 209.519 986.6 208.464 996.51C208.06 1000.09 207.029 1003.49 205.454 1006.44C203.878 1009.4 201.801 1011.82 199.391 1013.52C192.208 1018.28 186.303 1017.51 190.141 1030.61C191.037 1032.54 191.506 1034.77 191.494 1037.03C191.482 1039.3 190.99 1041.52 190.074 1043.43C188.812 1046.31 186.869 1048.55 184.547 1049.82C182.224 1051.09 179.65 1051.3 177.225 1050.44C175.196 1049.69 173.216 1048.72 171.307 1047.54Z" fill="#0F2572"/>
<path d="M210.809 1071.99L198.266 1072.86C200.8 1066.03 202.442 1058.68 203.122 1051.12C203.279 1049.88 204.532 1044.08 206.923 1044.63C207.128 1044.67 208.731 1045.7 208.889 1049.67C209.04 1053.49 207.194 1064.17 210.809 1071.99Z" fill="white"/>
<path d="M210.824 1072.4L198.281 1073.27C198.227 1073.28 198.173 1073.26 198.124 1073.23C198.076 1073.19 198.036 1073.14 198.008 1073.08C197.424 1071.95 200.559 1070.37 202.659 1052.33C203.964 1041.73 208.901 1042.16 209.198 1049.65C209.355 1053.6 207.512 1064.08 211.074 1071.78C211.101 1071.84 211.115 1071.91 211.116 1071.98C211.117 1072.05 211.105 1072.12 211.08 1072.18C211.055 1072.24 211.018 1072.3 210.973 1072.33C210.928 1072.37 210.877 1072.4 210.824 1072.4ZM198.798 1072.42L210.285 1071.62C206.955 1063.71 208.729 1053.4 208.581 1049.7C208.428 1045.84 206.874 1045.03 206.865 1045.02C205.069 1044.58 203.696 1048.96 203.422 1051.19C202.771 1058.56 201.208 1065.73 198.798 1072.42Z" fill="#0F2572"/>
<path d="M901.115 97.284C965.21 88.1388 1030.62 90.605 1061.13 94.4909C1097.21 99.0845 1109.18 102.532 1141.12 104.266C1169.5 105.808 1244.94 94.7485 1235.29 103.068C1222.7 113.912 1226.14 156.384 1244.94 174.092C1247.67 176.667 1158.33 183.044 1104.2 178.282C1029.57 171.715 1005.55 160.703 956.543 165.713C938.39 167.612 916.876 171.168 901.5 176.187C910.5 163 927 145.5 932 132.5C923.5 116 910.5 109.5 901.115 97.284Z" fill="#FC645D"/>
<path d="M991.799 122.4L995.179 115H998.519L993.139 125.82C991.919 128.26 990.519 129.22 988.559 129.22C987.359 129.22 986.419 128.9 985.539 128.4L986.739 126.14C987.299 126.48 987.859 126.6 988.399 126.6C988.959 126.6 989.599 126.34 990.159 125.48L984.559 115H987.999L991.799 122.4ZM1008.69 129V123.78C1007.75 124.24 1006.41 124.82 1004.99 124.82C1002.21 124.82 1000.29 123.36 1000.29 120.12V115H1003.37V119.22C1003.37 120.96 1004.05 121.94 1005.63 121.94C1006.87 121.94 1008.05 121.54 1008.69 121.04V115H1011.77V129H1008.69ZM1013.92 129L1019.92 114.9H1022.76L1028.76 129H1025.54L1024.26 125.86H1018.34L1017.06 129H1013.92ZM1019.44 123.14H1023.16L1021.3 118.6L1019.44 123.14ZM1037.48 129.24C1033.36 129.24 1030.3 126.06 1030.3 122C1030.3 118.02 1033.3 114.76 1037.6 114.76C1040.24 114.76 1041.72 115.76 1043.02 117.04L1041.18 119.16C1040.1 118.18 1039.18 117.6 1037.58 117.6C1035.22 117.6 1033.52 119.56 1033.52 122C1033.52 124.4 1035.18 126.4 1037.58 126.4C1039.18 126.4 1040.16 125.76 1041.26 124.76L1043.22 126.86C1041.78 128.4 1040.18 129.24 1037.48 129.24ZM1048.94 129V117.84H1044.68V115H1056.28V117.84H1052.02V129H1048.94ZM1070.71 115V129H1067.67V119.82L1061.55 129H1058.65V115H1061.69V124.18L1067.85 115H1070.71ZM1074.08 129V115H1084.64V117.74H1077.14V120.58H1083.74V123.32H1077.14V126.26H1084.74V129H1074.08ZM972.953 136.78V139.22H976.653C979.813 139.22 981.573 140.94 981.573 143.56C981.573 146.42 979.593 148 976.353 148H969.873V134H980.613V136.78H972.953ZM976.333 141.78H972.953V145.22H976.353C977.793 145.22 978.493 144.66 978.493 143.44C978.493 142.36 977.793 141.78 976.333 141.78ZM984.112 148V134H994.672V136.74H987.172V139.58H993.772V142.32H987.172V145.26H994.772V148H984.112ZM1004.07 148.24C999.95 148.24 996.89 145.06 996.89 141C996.89 137.02 999.89 133.76 1004.19 133.76C1006.83 133.76 1008.31 134.76 1009.61 136.04L1007.77 138.16C1006.69 137.18 1005.77 136.6 1004.17 136.6C1001.81 136.6 1000.11 138.56 1000.11 141C1000.11 143.4 1001.77 145.4 1004.17 145.4C1005.77 145.4 1006.75 144.76 1007.85 143.76L1009.81 145.86C1008.37 147.4 1006.77 148.24 1004.07 148.24ZM1012.28 148V134H1023.96V148H1020.88V136.78H1015.36V148H1012.28ZM1029.17 134H1039.17V148H1036.09V136.78H1032.05V137.84C1032.05 146.08 1030.71 148.18 1027.51 148.18C1027.01 148.18 1026.27 148.1 1025.89 148L1026.09 145.46C1026.23 145.48 1026.37 145.5 1026.57 145.5C1028.23 145.5 1029.17 144.44 1029.17 136.9V134ZM1041.33 148L1047.33 133.9H1050.17L1056.17 148H1052.95L1051.67 144.86H1045.75L1044.47 148H1041.33ZM1046.85 142.14H1050.57L1048.71 137.6L1046.85 142.14ZM1061.59 148V136.84H1057.33V134H1068.93V136.84H1064.67V148H1061.59ZM1071.3 148V134H1074.38V139.54H1080.06V134H1083.14V148H1080.06V142.38H1074.38V148H1071.3ZM1093.29 148.24C1088.97 148.24 1085.87 145.02 1085.87 141C1085.87 137.02 1089.01 133.76 1093.33 133.76C1097.65 133.76 1100.75 136.98 1100.75 141C1100.75 144.98 1097.61 148.24 1093.29 148.24ZM1093.33 145.4C1095.81 145.4 1097.53 143.44 1097.53 141C1097.53 138.6 1095.77 136.6 1093.29 136.6C1090.81 136.6 1089.09 138.56 1089.09 141C1089.09 143.4 1090.85 145.4 1093.33 145.4Z" fill="white"/>
<path d="M412.05 1041.79C415.411 1042.67 418.822 1043.35 422.266 1043.84C421.623 1045.7 425.438 1049.38 426.427 1050C429.039 1051.32 431.496 1052.9 433.755 1054.74C434.413 1055.85 432.953 1059.09 429.105 1058.62C425.654 1058.24 422.375 1056.96 419.623 1054.89C415.722 1052.55 415.63 1055.35 414.446 1055.12C406.415 1053.58 409.496 1049.35 412.05 1041.79Z" fill="#0F2572"/>
<path d="M429.533 1059.07C433.192 1059.26 434.989 1056 434.115 1054.53C431.833 1052.63 429.329 1050.99 426.653 1049.65C425.503 1048.94 422.145 1045.48 422.66 1043.97C422.682 1043.91 422.69 1043.85 422.681 1043.79C422.673 1043.73 422.649 1043.67 422.612 1043.62C422.225 1043.02 423.961 1044.15 416.185 1042.3C412.701 1041.49 411.833 1041.09 411.65 1041.67C409.001 1049.46 405.979 1053.91 414.365 1055.52C414.992 1055.69 415.342 1055.29 415.688 1054.98C418.474 1052.46 421.126 1058.64 429.533 1059.07ZM421.773 1044.21C421.699 1046.41 425.235 1049.74 426.198 1050.34C428.737 1051.65 431.145 1053.19 433.39 1054.94C433.942 1055.89 432.525 1058.56 429.153 1058.21C425.766 1057.84 422.547 1056.57 419.846 1054.54C415.901 1052.17 415.282 1054.76 414.565 1054.73C413.025 1054.53 411.573 1053.92 410.376 1052.95C408.383 1051.4 411.445 1044.83 412.328 1042.27C415.656 1042.97 419.125 1043.95 421.773 1044.21Z" fill="#0F2572"/>
<path d="M412.146 1041.64C411.717 1042.71 414.204 1045.55 417.44 1045.72C418.292 1045.93 419.183 1045.91 420.028 1045.68C420.873 1045.45 421.641 1045.01 422.259 1044.4C424.655 1040.84 440.157 1022.87 440.845 1022.07L428.792 1015.55C426.012 1018.3 423.539 1021.33 421.413 1024.58C419.203 1028.65 413.448 1038.8 412.146 1041.64Z" fill="#FFC9D4"/>
<path d="M418.201 1046.1C418.993 1046.2 419.798 1046.11 420.548 1045.84C421.298 1045.58 421.971 1045.14 422.509 1044.56C424.82 1041.13 439.101 1024.56 441.083 1022.26C441.112 1022.22 441.133 1022.18 441.144 1022.14C441.156 1022.1 441.157 1022.05 441.149 1022.01C441.141 1021.97 441.122 1021.93 441.096 1021.89C441.069 1021.86 441.035 1021.83 440.995 1021.81L428.941 1015.3C428.883 1015.26 428.814 1015.25 428.747 1015.26C428.68 1015.27 428.618 1015.3 428.572 1015.35C424.356 1019.37 420.923 1024.11 418.44 1029.32C415.922 1033.86 412.791 1039.51 411.868 1041.52L411.859 1041.53C411.343 1042.81 413.787 1045.87 418.201 1046.1ZM440.379 1022.15C437.614 1025.33 424.185 1041 422.003 1044.24C420.969 1045.79 418.087 1045.63 416.14 1045.21C413.873 1044.51 412.144 1042.49 412.423 1041.76C413.734 1038.92 419.824 1028.14 421.68 1024.72C423.748 1021.55 426.15 1018.6 428.847 1015.93L440.379 1022.15Z" fill="#0F2572"/>
<path d="M417.44 1045.72C418.292 1045.93 419.184 1045.91 420.028 1045.68C420.873 1045.45 421.641 1045.01 422.259 1044.4C424.007 1041.8 433.001 1031.22 437.744 1025.64C430.023 1032.48 419.63 1043.44 417.44 1045.72Z" fill="#0F2572"/>
<path d="M353.932 1001.64C356.25 1002 358.589 1002.24 360.936 1002.34C359.582 1003.67 358.698 1005.39 358.412 1007.24C358.077 1009.11 358.185 1011.04 358.725 1012.87C355.406 1012.27 354.167 1011.82 352.261 1012.9C350.508 1013.79 348.916 1014.96 347.547 1016.35C345.989 1018.78 344.164 1021.04 342.105 1023.08C340.914 1023.63 337.717 1021.95 338.515 1018.25C339.179 1014.93 340.764 1011.85 343.098 1009.34C345.815 1005.74 342.956 1005.42 343.286 1004.29C343.632 1002.76 344.409 1001.36 345.53 1000.23C347.097 998.613 351.827 1000.62 353.932 1001.64Z" fill="#0F2572"/>
<path d="M342.288 1023.45C343.886 1022.12 345.238 1020.53 346.288 1018.76C347.724 1016.35 349.884 1014.43 352.477 1013.25C354.29 1012.23 355.701 1012.74 358.653 1013.27C359.915 1013.37 358.086 1011.61 358.825 1007.31C359.101 1005.55 359.937 1003.91 361.216 1002.64C361.277 1002.59 361.32 1002.52 361.34 1002.44C361.361 1002.36 361.356 1002.28 361.329 1002.2C361.301 1002.12 361.251 1002.06 361.184 1002.01C361.118 1001.96 361.038 1001.93 360.955 1001.93C358.65 1001.83 356.352 1001.61 354.075 1001.24C346.618 997.667 344.385 998.999 342.879 1004.18C342.418 1005.75 345.669 1005.66 342.098 1009.93C339.21 1013.5 335.984 1020.04 339.614 1022.85C339.969 1023.16 340.402 1023.38 340.87 1023.49C341.338 1023.6 341.827 1023.58 342.288 1023.45ZM352.052 1012.54C350.251 1013.46 348.617 1014.66 347.216 1016.1C345.671 1018.46 343.899 1020.67 341.925 1022.71C340.896 1023.23 338.248 1021.46 338.93 1018.33C339.583 1015.07 341.143 1012.04 343.44 1009.58C346.226 1005.89 343.485 1005.07 343.69 1004.4C344.014 1002.94 344.758 1001.59 345.837 1000.51C346.787 999.523 349.748 1000.08 353.75 1002C355.82 1002.39 357.917 1002.62 360.024 1002.7C358.996 1004.07 358.294 1005.65 357.969 1007.32C357.643 1008.98 357.703 1010.7 358.142 1012.35C357.165 1011.98 356.122 1011.81 355.076 1011.84C354.031 1011.88 353.002 1012.12 352.052 1012.54Z" fill="#0F2572"/>
<path d="M354.5 1001.9C354.5 1001.9 372.495 1001.33 384.321 1007.13C385.62 1007.75 387.019 1008.15 388.458 1008.3L388.451 1008.32C388.451 1008.32 395.574 1016.05 392.872 1018.44C392.039 1019.18 391.029 1022.26 389.777 1022.35C382.489 1022.9 372.781 1015.23 354.799 1012.66C352.256 1012.3 349.64 1005.47 354.5 1001.9Z" fill="#FFC9D4"/>
<path d="M388.372 1022.66C390.344 1022.76 390.651 1022.75 392.129 1020.11C392.38 1019.59 392.698 1019.1 393.075 1018.66C395.878 1016.19 389.405 1008.92 388.728 1008.17L388.721 1008.17C388.699 1008.12 388.668 1008.09 388.629 1008.06C388.59 1008.03 388.545 1008.02 388.497 1008.01C387.092 1007.86 385.724 1007.47 384.454 1006.86C372.703 1001.1 354.662 1001.59 354.497 1001.61C354.434 1001.61 354.373 1001.63 354.322 1001.66C349.557 1005.09 351.623 1012.51 354.752 1012.96C370.91 1015.26 381.652 1022.32 388.372 1022.66ZM388.28 1008.58C390.236 1010.72 394.675 1016.44 392.665 1018.22C391.813 1018.98 390.75 1021.98 389.758 1022.06C382.271 1022.59 373.145 1014.98 354.844 1012.37C352.539 1012.04 350.132 1005.82 354.615 1002.19C356.083 1002.16 373.025 1001.92 384.186 1007.39C385.472 1008.01 386.856 1008.41 388.28 1008.58Z" fill="#0F2572"/>
<path d="M413.915 979.263L435.304 976.354C440.885 1015.34 444.126 1018.94 440.081 1022.9C437.674 1025.26 428.045 1016.41 428.045 1016.41C423.08 1002.5 409.168 992.912 413.915 979.263Z" fill="#0584DB"/>
<path d="M440.382 1023.19C443.154 1020.48 442.698 1017.97 440.537 1005.9C435.046 975.316 436.19 975.897 435.244 975.948L413.857 978.857C413.781 978.868 413.709 978.9 413.649 978.948C413.59 978.997 413.546 979.06 413.521 979.131C408.654 992.941 422.685 1002.64 427.647 1016.55C427.961 1017.43 437.898 1025.64 440.382 1023.19ZM434.943 976.818C440.441 1015.05 443.611 1018.87 439.785 1022.62C438.223 1024.12 432.02 1019.49 428.407 1016.18C423.408 1002.26 410.069 993.477 414.241 979.635L434.943 976.818Z" fill="#0F2572"/>
<path d="M396.346 980.927C397.908 977.301 400.426 974.143 403.647 971.774L424.036 980.91C419.925 989.499 403.029 1006.11 392.937 1021.04C391.901 1021.77 390.626 1022.1 389.357 1021.96C388.087 1021.83 386.911 1021.25 386.054 1020.33C383.934 1018.46 381.88 1013.14 383.335 1011.09C385.944 1007.41 393.999 985.471 396.346 980.927Z" fill="#0584DB"/>
<path d="M390.022 1022.43C390.61 1022.49 391.204 1022.42 391.762 1022.23C392.319 1022.03 392.825 1021.72 393.245 1021.32C402.569 1007.54 426.919 981.736 424.213 980.536L403.82 971.401C403.758 971.373 403.69 971.36 403.622 971.364C403.554 971.367 403.488 971.387 403.43 971.421C400.135 973.825 397.558 977.044 395.965 980.743C395.201 980.704 386.093 1006.47 382.989 1010.86C381.204 1013.37 383.895 1022.12 390.022 1022.43ZM423.472 981.107C419.133 989.663 402.461 1006.21 392.584 1020.81C391.309 1022.15 388.373 1021.81 386.331 1020.02C384.239 1018.18 382.42 1013.1 383.682 1011.32C386.315 1007.6 394.41 985.576 396.723 981.11C398.283 977.656 400.667 974.616 403.677 972.243L423.472 981.107Z" fill="#0F2572"/>
<path d="M445.127 938.882C443.203 937.348 440.913 936.312 438.469 935.869C436.025 935.426 433.505 935.591 431.144 936.348C431.612 932.886 432.279 929.452 433.143 926.063C436.095 913.574 449.403 914.684 449.049 925.051C448.157 929.763 446.844 934.391 445.127 938.882Z" fill="#CAEFFC"/>
<path d="M445.103 939.294C445.154 939.296 445.205 939.288 445.254 939.273C445.32 939.253 445.381 939.217 445.429 939.169C445.477 939.12 445.512 939.061 445.53 938.995C447.264 934.49 448.581 929.842 449.465 925.108C449.854 914.168 435.797 913.025 432.735 925.967C431.868 929.373 431.198 932.823 430.727 936.301C430.718 936.372 430.729 936.444 430.757 936.509C430.786 936.575 430.831 936.632 430.89 936.675C430.948 936.718 431.016 936.746 431.089 936.755C431.161 936.764 431.235 936.755 431.303 936.728C433.595 936.003 436.037 935.85 438.406 936.282C440.774 936.715 442.994 937.72 444.861 939.205C444.931 939.257 445.015 939.288 445.103 939.294ZM448.631 925.037C447.804 929.528 446.552 933.934 444.893 938.201C443.024 936.829 440.858 935.893 438.561 935.465C436.263 935.038 433.896 935.129 431.64 935.733C432.045 932.674 432.772 929.453 433.548 926.151C436.38 914.206 448.962 915.138 448.631 925.037Z" fill="#0F2572"/>
<path d="M405.286 933.762C408.022 954.604 404.618 954.91 397.872 970.442C397.472 971.338 397.388 972.339 397.634 973.286C397.881 974.233 398.443 975.074 399.232 975.677C407.193 981.605 425.915 985.641 434.352 981.773C437.97 980.115 437.89 971.063 437.627 963.415C437.28 953.322 441.457 949.765 445.642 937.399C448.567 928.758 446.284 917.743 443.447 916.922C439.944 915.885 440.988 916.677 437.811 916.429C433.329 918.681 426.165 917.16 421.944 914.711C417.323 915.27 408.508 918.021 406.121 921.044C404.316 928.32 404.262 926.02 405.286 933.762Z" fill="white"/>
<path d="M434.536 982.144C438.316 980.41 438.347 971.935 438.045 963.399C437.704 953.564 441.961 949.599 446.036 937.527C448.074 931.282 447.87 924.548 445.458 918.431C445.287 918.007 445.032 917.621 444.707 917.294C444.381 916.967 443.993 916.706 443.564 916.526C439.83 915.433 440.979 916.3 437.849 916.018C437.77 916.005 437.689 916.022 437.622 916.065C433.418 918.167 426.467 916.853 422.16 914.358C421.299 913.882 408.802 916.977 405.788 920.793L405.809 920.808C405.762 920.883 405.725 920.963 405.699 921.047C405.447 921.697 405.068 923.321 404.142 927.308C404.13 927.348 404.126 927.39 404.129 927.431C404.31 929.605 404.592 931.726 404.863 933.773C407.572 954.428 404.254 954.726 397.487 970.286C397.047 971.264 396.955 972.357 397.224 973.393C397.493 974.428 398.109 975.347 398.973 976.003C406.826 981.841 425.713 986.178 434.536 982.144ZM443.328 917.312C443.961 917.63 444.453 918.162 444.712 918.808C447.038 924.723 447.225 931.235 445.242 937.268C441.118 949.464 436.855 953.215 437.205 963.429C437.406 969.132 437.776 979.752 434.172 981.404C426.098 985.098 407.556 981.349 399.487 975.352C398.77 974.806 398.261 974.043 398.039 973.184C397.817 972.324 397.896 971.417 398.262 970.606C405.011 955.064 408.458 954.686 405.696 933.71C405.426 931.649 405.15 929.561 404.974 927.427C406.121 922.515 406.409 921.477 406.48 921.258C408.71 918.507 417.047 915.724 421.856 915.137C426.333 917.673 433.501 918.984 437.894 916.844C441.141 917.095 439.927 916.316 443.328 917.312Z" fill="#0F2572"/>
<path d="M399.712 966.231C403.242 963.003 405.883 958.962 407.392 954.479C409.254 946.141 410.491 937.682 411.092 929.169L405.286 933.762C408.078 955.028 404.263 955.682 399.712 966.231Z" fill="#0F2572"/>
<path d="M419.278 915.16C424.082 921.967 439.697 924.764 440.746 916.583C439.903 916.543 439.019 916.531 437.814 916.436C433.324 918.688 426.172 917.16 421.954 914.713C421.082 914.82 420.183 914.965 419.278 915.16Z" fill="#CAEFFC"/>
<path d="M432.463 922.011C440.367 922.416 442.025 916.236 440.772 916.172C440.005 916.133 439.033 916.122 437.848 916.026C437.79 915.993 437.691 916.036 437.622 916.073C433.425 918.179 426.467 916.857 422.167 914.358C421.16 914.381 420.16 914.517 419.184 914.763C417.313 915.168 424.212 921.588 432.463 922.011ZM440.25 916.973C438.579 924.094 424.823 921.318 420.001 915.432C420.598 915.317 421.209 915.22 421.864 915.137C426.282 917.649 433.332 919.074 437.894 916.852C438.705 916.922 439.359 916.939 440.25 916.973Z" fill="#0F2572"/>
<path d="M421.872 915.022C432.217 920.075 436.75 918.76 437.656 917.094C437.133 916.22 436.854 915.228 436.847 914.216C436.839 913.205 437.104 912.209 437.614 911.328C449.84 891.131 424.589 884.712 426.586 900.475C427.026 905.738 425.334 910.96 421.872 915.022Z" fill="#FFC9D4"/>
<path d="M433.117 918.884C436.765 919.071 438.257 917.299 437.883 916.895C436.436 915.354 437.557 912.279 437.893 911.443C450.42 890.772 424.202 884.222 426.287 900.51C426.7 905.689 425.034 910.822 421.641 914.827C421.609 914.861 421.587 914.901 421.574 914.945C421.562 914.989 421.56 915.036 421.57 915.08C421.579 915.125 421.599 915.167 421.627 915.203C421.656 915.239 421.693 915.268 421.736 915.287C425.292 917.11 429.141 918.326 433.117 918.884ZM437.274 917.108C434.57 920.151 426.055 916.646 422.346 914.918C425.712 910.837 427.339 905.65 426.889 900.432C424.943 885.196 449.286 891.442 437.355 911.176C436.855 912.086 436.587 913.1 436.573 914.132C436.559 915.164 436.799 916.185 437.274 917.108Z" fill="#0F2572"/>
<path d="M427.62 894.761C427.804 902.074 430.613 912.694 437.135 913.987C437.192 912.362 437.519 910.757 438.103 909.235C451.215 884.202 426.56 876.062 427.62 894.761Z" fill="#0F2572"/>
<path d="M425.776 890.034C425.138 891.253 428.442 904.867 432.765 908.791C436.835 912.489 439.197 912.815 441.49 912.199C448.256 910.385 450.873 889.218 442.509 886.021C438.094 884.333 430.123 881.734 425.776 890.034Z" fill="#FFC9D4"/>
<path d="M439.431 912.739C449 913.23 451.411 889.103 442.623 885.746C438.886 884.319 430.166 880.993 425.506 889.902C424.442 889.847 427.999 904.868 432.559 909.009C434.325 911.005 436.76 912.327 439.431 912.739ZM442.399 886.296C450.47 889.389 447.908 910.169 441.405 911.915C439.198 912.501 436.927 912.17 432.971 908.571C428.637 904.635 425.51 891.206 426.045 890.17C429.551 883.493 435.421 883.632 442.399 886.296Z" fill="#0F2572"/>
<path d="M448.661 893.418C446.592 893.826 444.886 891.565 442.777 891.468C441.88 891.427 440.999 891.79 440.102 891.739C438.169 891.628 437.944 890.28 434.103 891.959C432.072 892.846 429.678 893.999 429.438 896.352C429.28 897.903 429.553 897.573 428.151 898.993C427.334 899.821 426.388 901.568 424.834 901.495C423.551 901.435 422.758 900.041 422.669 898.792C422.681 898.207 422.628 897.622 422.51 897.049C422.109 895.726 420.57 894.908 420.331 893.548C420.114 892.318 421.044 891.198 421.348 889.986C421.706 888.558 421.199 886.944 421.91 885.647C422.371 884.988 422.922 884.394 423.548 883.88C425.046 882.358 425.877 880.069 427.884 879.281C429.432 878.937 431.034 878.892 432.6 879.15C436.431 879.2 441.019 876.57 444.402 879.103C446.347 880.558 445.061 880.425 448.665 881.968C451.09 883.006 453.127 884.774 452.33 887.014C451.851 888.358 450.948 889.046 450.819 890.519C450.843 891.167 450.643 891.805 450.252 892.33C449.861 892.856 449.301 893.238 448.661 893.418Z" fill="#0F2572"/>
<path d="M406.809 934.126C400.117 923.1 410.215 915.142 417.161 923.068C422.137 931.278 426.183 943.955 430.333 946.18C435.658 948.802 441.174 951.035 446.837 952.862C446.952 952.88 447.07 952.864 447.175 952.815C451.291 951.674 455.035 951.056 455.801 952.262C456.966 954.289 452.696 952.994 453.971 954.131C455.851 955.857 463.478 954.164 463.738 956.618C463.936 959.115 458.183 962.268 454.503 960.757C452.47 959.86 447.89 957.867 447.764 957.952C442.378 956.38 428.197 958.902 420.055 951.684C414.866 946.423 410.413 940.52 406.809 934.126Z" fill="#FFC9D4"/>
<path d="M464.044 956.596C463.737 953.741 456.308 955.607 454.152 953.889C455.663 953.709 456.888 953.552 456.069 952.12C454.983 950.397 449.098 951.932 447.084 952.531C447.055 952.541 447.028 952.554 447.003 952.571C447.002 952.567 446.949 952.575 446.918 952.573C441.274 950.763 435.778 948.539 430.477 945.922C426.476 943.771 422.333 931.032 417.424 922.918C410.211 914.703 399.646 922.901 406.546 934.278C419.399 955.461 424.347 956.926 440.712 957.558C447.965 957.835 447.396 957.94 454.376 961.027C458.294 962.638 464.251 959.302 464.044 956.596ZM453.819 953.353C453.391 953.48 453.227 953.885 453.767 954.35C455.65 956.083 463.216 954.619 463.435 956.647C463.599 958.805 458.221 961.96 454.618 960.483C452.424 959.414 450.164 958.478 447.851 957.681L447.855 957.668C442.444 956.093 428.282 958.576 420.26 951.464C415.056 946.256 410.618 940.37 407.075 933.976C400.556 923.252 410.224 915.631 416.93 923.259C421.814 931.349 425.96 944.179 430.188 946.442C435.542 949.081 441.091 951.325 446.789 953.155C446.927 953.175 447.068 953.166 447.202 953.128C448.459 952.754 454.691 951.051 455.54 952.422C456.151 953.483 454.771 953.07 453.819 953.353Z" fill="#0F2572"/>
<path d="M424.143 935.675C421.66 935.799 419.25 936.531 417.137 937.803C415.023 939.075 413.275 940.846 412.052 942.952C410.004 940.082 408.123 937.103 406.418 934.028C399.966 922.849 410.573 914.961 417.48 922.868C420.078 926.941 422.308 931.227 424.143 935.675Z" fill="#CAEFFC"/>
<path d="M412.427 943.132C413.622 941.093 415.324 939.38 417.376 938.149C419.428 936.918 421.766 936.208 424.175 936.084C424.244 936.079 424.31 936.057 424.368 936.021C424.427 935.985 424.475 935.936 424.51 935.878C424.544 935.82 424.564 935.754 424.567 935.687C424.57 935.62 424.556 935.553 424.527 935.492C422.672 931.031 420.43 926.731 417.827 922.637C410.565 914.318 399.354 922.612 406.053 934.226C407.553 936.826 411.773 944.402 412.427 943.132ZM411.99 942.169C410.19 939.66 408.496 936.792 406.786 933.825C400.583 923.071 410.612 915.641 417.156 923.134C419.65 926.999 421.775 931.079 423.504 935.321C421.167 935.507 418.909 936.223 416.91 937.413C414.91 938.602 413.226 940.231 411.99 942.169Z" fill="#0F2572"/>
</g>
<defs>
<filter id="filter0_d_928_68" x="-11" y="897.072" width="1373" height="833.912" filterUnits="userSpaceOnUse" color-interpolation-filters="sRGB">
<feFlood flood-opacity="0" result="BackgroundImageFix"/>
<feColorMatrix in="SourceAlpha" type="matrix" values="0 0 0 0 0 0 0 0 0 0 0 0 0 0 0 0 0 0 127 0" result="hardAlpha"/>
<feOffset dy="-4"/>
<feGaussianBlur stdDeviation="2"/>
<feComposite in2="hardAlpha" operator="out"/>
<feColorMatrix type="matrix" values="0 0 0 0 0 0 0 0 0 0 0 0 0 0 0 0 0 0 0.25 0"/>
<feBlend mode="normal" in2="BackgroundImageFix" result="effect1_dropShadow_928_68"/>
<feBlend mode="normal" in="SourceGraphic" in2="effect1_dropShadow_928_68" result="shape"/>
</filter>
<filter id="filter1_d_928_68" x="-355" y="929.375" width="1581" height="638.009" filterUnits="userSpaceOnUse" color-interpolation-filters="sRGB">
<feFlood flood-opacity="0" result="BackgroundImageFix"/>
<feColorMatrix in="SourceAlpha" type="matrix" values="0 0 0 0 0 0 0 0 0 0 0 0 0 0 0 0 0 0 127 0" result="hardAlpha"/>
<feOffset dy="-6"/>
<feGaussianBlur stdDeviation="2"/>
<feComposite in2="hardAlpha" operator="out"/>
<feColorMatrix type="matrix" values="0 0 0 0 0 0 0 0 0 0 0 0 0 0 0 0 0 0 0.25 0"/>
<feBlend mode="normal" in2="BackgroundImageFix" result="effect1_dropShadow_928_68"/>
<feBlend mode="normal" in="SourceGraphic" in2="effect1_dropShadow_928_68" result="shape"/>
</filter>
<clipPath id="clip0_928_68">
<rect width="1170" height="1132" fill="white"/>
</clipPath>
</defs>
</svg>
