<svg width="1170" height="1124" viewBox="0 0 1170 1124" fill="none" xmlns="http://www.w3.org/2000/svg">
<g clip-path="url(#clip0_932_547)">
<rect width="1170" height="1633" fill="#88D8FC"/>
<path d="M610 1533C563.984 1483.65 520.481 1414.11 488.16 1316.02C371.316 961.43 376.81 589.345 -88 764.87V1533H610Z" fill="#FC645D"/>
<path d="M-13.9999 1661H520L519.28 1659.84C479.903 1596.91 448.657 1513.96 426.408 1413.32C411.195 1344.51 398.73 1275.28 386.673 1208.32C369.215 1111.35 352.722 1019.75 330.336 943.509C305.278 858.163 276.086 803.146 238.472 770.365C209.471 745.084 175.916 733.547 135.983 735.146C93.1159 736.84 44.1464 753.499 -13.7276 786.073L-14 786.227L-13.9999 1661ZM518.019 1659.66H-13.206V787.185C96.9261 725.257 179.131 720.146 238.11 771.55C320.066 842.977 350.581 1012.46 385.918 1208.71C397.975 1275.68 410.448 1344.93 425.669 1413.79C447.824 1514.01 478.892 1596.72 518.019 1659.66Z" fill="#082054"/>
<path d="M528.161 1705.24L528.638 1704.15C431.85 1584.71 400.955 1402.87 371.078 1227.03C344.196 1068.81 318.805 919.372 247.518 828.196C220.059 794.012 187.974 771.846 154.153 763.695C122.702 755.873 90.748 755.66 59.2619 763.063C23.951 770.754 -10.7046 785.355 -43.9999 806.569L-43.6948 807.812C-10.4568 786.641 24.1382 772.071 59.3871 764.396C112.806 752.837 188.74 754.711 247.033 829.268C318.109 920.175 343.465 1069.41 370.307 1227.4C400.224 1403.46 431.154 1585.52 528.161 1705.24Z" fill="#082054"/>
<g filter="url(#filter0_d_932_547)">
<path d="M-244 1124C507.096 1065.3 287.542 1002.43 610.411 889.068C849.516 805.118 1302 869.768 1302 869.768L1302 1124L-244 1124Z" fill="#F89C43"/>
</g>
<path d="M-244.866 1125L1302 1125L1302 869.038L1301.51 868.967C1218.11 857.922 1132.21 850.565 1045.19 847.015C969.666 843.61 893.395 844.524 818.449 849.732C734.218 856.126 663.803 869.139 609.164 888.412C504.872 925.201 457.142 956.69 415.033 984.471C327.029 1042.53 263.443 1084.47 -245 1124.4L-244.866 1125ZM1300.56 1124.4L-237.103 1124.4C264.983 1084.6 328.489 1042.69 416.246 984.798C458.299 957.054 505.966 925.607 610.086 888.881C733.412 845.375 914.665 842.436 1045.03 847.62C1131.76 851.168 1217.4 858.492 1300.56 869.474L1300.56 1124.4Z" fill="#082054"/>
<path d="M405.35 1100C415.423 1076.73 431.224 1054.14 452.408 1032.72C485.783 998.207 548.209 949.791 656.096 915.13C803.886 867.649 997.215 857.304 1230.69 884.369L1231 883.718C997.134 856.604 803.442 866.988 655.328 914.579C547.17 949.329 484.597 997.862 451.149 1032.45C429.923 1053.93 414.092 1076.57 404 1099.89L405.35 1100Z" fill="#082054"/>
<path d="M1040.42 939.959C1045.22 958.721 1052.7 952.418 1062.8 951.788C1072.25 951.198 1081.34 959.965 1090.69 957.591C1106.45 953.627 1118.25 917.094 1102.7 883.595C1099.25 877.537 1096.33 870.948 1093.99 863.96C1092.09 856.602 1092.15 848.14 1090.38 840.671C1089.76 837.223 1088.6 834.001 1086.98 831.226C1085.37 828.452 1083.34 826.192 1081.02 824.601C1078.71 823.011 1076.18 822.128 1073.59 822.013C1071.01 821.898 1068.43 822.554 1066.05 823.936C1048.69 835.821 1047.53 874.575 1041.07 897.054C1037.22 910.811 1036.98 925.99 1040.42 939.959Z" fill="white"/>
<path d="M1086.98 959.964C1107.19 961.393 1121.45 919.953 1104.45 884.084C1100.96 878.07 1097.99 871.541 1095.6 864.622C1093.71 857.457 1093.71 848.745 1091.91 841.332C1091.24 837.754 1090.01 834.413 1088.29 831.539C1086.57 828.664 1084.4 826.325 1081.95 824.68C1079.49 823.036 1076.8 822.125 1074.05 822.012C1071.31 821.899 1068.58 822.585 1066.06 824.023C1047.88 836.265 1047.08 874.287 1040.18 897.718C1036.18 911.699 1035.95 927.121 1039.51 941.311C1044.58 960.948 1053.19 954.421 1063.09 953.777C1071.36 953.383 1078.83 959.388 1086.98 959.964ZM1090.6 841.923C1093.93 855.881 1090.1 860.146 1100.4 879.483C1119.69 915.785 1108.2 953.601 1091.45 957.728C1082.23 960.07 1072.51 951.203 1063.01 951.903C1053.24 952.479 1045.66 959.27 1040.83 940.694C1037.37 926.931 1037.6 911.972 1041.49 898.415C1048.46 874.625 1049.26 837.388 1066.69 825.712C1069.04 824.398 1071.57 823.783 1074.11 823.908C1076.66 824.032 1079.15 824.894 1081.42 826.434C1083.69 827.973 1085.68 830.155 1087.27 832.828C1088.85 835.502 1089.99 838.604 1090.6 841.923Z" fill="#0F2572"/>
<path d="M1040.46 940.09C1045.35 958.701 1052.97 952.449 1063.26 951.823C1076.28 951.032 1088.87 967.291 1101.87 950.017C1105.03 945.759 1107.46 940.643 1109 935.015C1108.44 933.117 1107.04 930.296 1105.59 930.9C1104.54 931.353 1104.09 933.407 1103.24 934.582C1100.8 938.006 1097.32 933.05 1095.32 931.849C1090.52 929.049 1083.94 935.381 1080.17 928.992C1076.76 923.325 1078.97 911.379 1089.09 909.125C1087.03 906.338 1088.51 900.716 1090.57 897.776C1092.64 894.869 1095.37 892.477 1096.07 888.238C1096.36 885.731 1095.96 883.168 1094.95 881.02C1093.94 878.872 1092.39 877.284 1090.57 876.548C1083.31 873.633 1076.34 881.881 1076.32 870.229C1076.2 862.847 1071.72 859.59 1066.94 857.208C1062.17 854.914 1060.32 836.888 1066.72 825.861L1066.57 825C1048.76 836.872 1047.85 874.798 1041.13 897.529C1037.2 911.176 1036.96 926.233 1040.46 940.09Z" fill="white"/>
<path d="M1086.51 960C1091.63 959.818 1096.58 957.397 1100.61 953.092C1104.65 948.788 1107.58 942.827 1108.95 936.086C1109.01 935.864 1109.02 935.621 1108.96 935.397C1108.21 932.911 1106.59 929.798 1104.72 930.669C1101.95 931.847 1102.99 939.085 1097.11 933.42C1094.64 931.106 1093.52 930.224 1088.16 931.267C1085.25 931.867 1082.03 932.243 1080.18 929.051C1079.33 927.088 1078.92 924.821 1079.01 922.539C1079.1 920.257 1079.69 918.065 1080.7 916.24C1082.66 912.928 1085.51 910.817 1088.62 910.371C1088.74 910.342 1088.86 910.266 1088.96 910.152C1089.05 910.038 1089.12 909.89 1089.16 909.724C1089.2 909.559 1089.2 909.382 1089.17 909.213C1089.14 909.044 1089.08 908.89 1088.99 908.768C1087.26 906.379 1088.72 901.133 1090.49 898.557C1092.6 895.566 1095.39 893.031 1096.11 888.417C1096.45 885.634 1096.04 882.777 1094.94 880.383C1093.85 877.989 1092.16 876.224 1090.18 875.42C1086.75 874.632 1083.26 874.658 1079.84 875.498C1072.08 875.919 1082.81 864.066 1066.72 855.799C1066.13 855.569 1065.59 855.169 1065.13 854.626C1063.41 850.025 1062.65 844.859 1062.94 839.703C1063.23 834.547 1064.56 829.602 1066.78 825.417C1066.84 825.306 1066.89 825.18 1066.91 825.045C1066.94 824.911 1066.94 824.771 1066.93 824.633L1066.79 823.748C1066.76 823.605 1066.72 823.472 1066.65 823.358C1066.58 823.244 1066.5 823.152 1066.4 823.09C1066.31 823.028 1066.2 822.997 1066.09 823C1065.99 823.003 1065.88 823.039 1065.79 823.106C1047.82 835.36 1046.82 874.272 1040.15 897.312C1036.19 911.393 1035.96 926.924 1039.49 941.215C1045.03 963.034 1055.65 953.119 1064.87 953.782C1072.01 954.294 1079.25 959.478 1086.51 960ZM1107.55 935.76C1106.33 941.014 1104.17 945.771 1101.27 949.608C1098.37 953.445 1094.82 956.241 1090.94 957.748C1081.81 960.107 1072.18 951.177 1062.77 951.882C1053.09 952.461 1045.58 959.301 1040.79 940.593C1037.36 926.733 1037.59 911.667 1041.44 898.013C1048.16 874.912 1048.73 839.9 1064.76 826.066C1062.98 830.125 1061.89 834.685 1061.58 839.402C1061.28 844.119 1061.76 848.869 1063 853.293C1063.21 854.335 1063.63 855.28 1064.2 856.033C1064.77 856.786 1065.47 857.319 1066.24 857.579C1070.73 859.877 1074.98 862.864 1075.11 869.94C1074.93 882.902 1083.32 874.456 1089.8 877.247C1091.43 877.931 1092.83 879.392 1093.74 881.365C1094.65 883.338 1095.02 885.693 1094.77 888.003C1094.12 892.072 1091.4 894.449 1089.49 897.254C1088.39 898.722 1087.61 900.571 1087.23 902.602C1086.84 904.632 1086.87 906.768 1087.3 908.78C1074.52 912.722 1073.93 935.829 1087.05 933.386C1089.47 932.506 1092.01 932.51 1094.42 933.399C1096.82 934.854 1100.74 941.248 1104 934.234C1104.36 933.412 1104.72 932.657 1105.14 932.473C1105.21 932.439 1105.28 932.427 1105.35 932.436C1106.26 932.501 1107.18 934.623 1107.55 935.76Z" fill="#0F2572"/>
<path d="M1040.43 939.977C1045.25 958.705 1052.76 952.414 1062.91 951.785C1075.76 950.988 1088.17 967.349 1101 949.967C1093.95 945.821 1084.81 957.613 1075.42 944.823C1066.99 933.355 1070.1 913.034 1078.86 909.582C1081.72 908.425 1081.59 907.11 1081.66 902.042C1081.66 899.143 1082.22 896.295 1083.29 893.787C1084.35 891.28 1085.89 889.201 1087.73 887.762C1087.54 886.955 1087.23 886.211 1086.82 885.58C1086.4 884.949 1085.9 884.444 1085.33 884.099C1084.76 883.755 1084.15 883.577 1083.53 883.58C1082.91 883.582 1082.29 883.763 1081.73 884.111C1079.57 885.696 1077.25 886.825 1074.84 887.458C1073.26 887.212 1071.79 886.196 1070.7 884.593C1069.62 882.991 1069 880.911 1068.94 878.732C1068.55 873.021 1068.01 873.531 1063.66 871.792C1055.47 868.439 1054.57 850.213 1053.11 844C1047.22 860.153 1046.06 879.986 1041.09 897.15C1037.21 910.883 1036.98 926.034 1040.43 939.977Z" fill="white"/>
<path d="M1102.8 951.637C1102.88 951.527 1102.94 951.392 1102.97 951.243C1103 951.094 1103.01 950.937 1102.99 950.785C1102.96 950.633 1102.91 950.491 1102.84 950.371C1102.76 950.252 1102.67 950.159 1102.56 950.101C1098 948.892 1093.29 949.167 1088.83 950.904C1069.75 953.195 1066.2 916.449 1080.11 911.12C1082.88 910.055 1083.18 907.862 1083.16 903.652C1083.04 900.76 1083.52 897.88 1084.55 895.332C1085.58 892.785 1087.11 890.67 1088.99 889.224C1090.18 888.474 1088.44 885.189 1087.25 884.283C1082.82 880.916 1079.12 887.13 1075.47 887.11C1072.54 887.555 1070.25 882.602 1070.08 878.466C1069.73 868.317 1062.33 876.492 1057.52 862.096C1055.95 856.206 1054.73 850.167 1053.85 844.029C1051.81 835.264 1043.88 885.029 1040.2 897.471C1036.18 911.504 1035.94 926.983 1039.53 941.226C1045.16 962.971 1055.96 953.09 1065.33 953.75C1077.58 954.612 1089.95 968.628 1102.8 951.637ZM1100.95 951.362C1087.53 967.613 1076.23 948.711 1057.94 952.727C1049.26 954.605 1044.4 954.173 1040.86 940.606C1037.37 926.792 1037.6 911.777 1041.52 898.17C1046.33 881.93 1047.75 862.618 1053 847.071C1054.67 856.781 1056.17 870.146 1063.82 873.206C1067.04 874.408 1068.49 874.211 1068.67 878.565C1068.6 881.078 1069.23 883.536 1070.44 885.462C1071.64 887.389 1073.34 888.647 1075.2 888.992C1078.01 889.189 1080.23 886.695 1082.74 885.589C1083.65 885.049 1084.68 884.985 1085.63 885.411C1086.57 885.837 1087.36 886.722 1087.84 887.89C1085.89 889.586 1084.31 891.93 1083.25 894.692C1082.18 897.454 1081.67 900.539 1081.76 903.646C1081.73 907.09 1081.78 908.485 1079.73 909.298C1064 915.511 1068.4 955.287 1088.96 952.788C1092.88 951.485 1096.92 951.004 1100.95 951.362Z" fill="#0F2572"/>
<path d="M1075.98 980.096C1076.46 985.091 1069.64 985.137 1067.26 981.123C1066.09 979.135 1069.18 973.375 1070.03 961.183C1069.72 955.877 1069.74 950.546 1070.1 945.244C1071.2 939.86 1075.19 944.469 1074.58 955.816C1074.06 963.953 1074.53 972.144 1075.98 980.096Z" fill="white"/>
<path d="M1076.97 980.093C1075.6 972.195 1075.15 964.06 1075.65 955.979C1076.43 940.755 1068.58 934.711 1069.76 954.734C1070.25 961.675 1069.58 968.675 1067.79 975.224C1067.07 978.499 1066.64 980.461 1067.4 981.794C1067.41 981.836 1068.84 984.219 1070.09 984.4C1073.43 985.86 1077.4 984.74 1076.97 980.093ZM1072.09 944.036C1072.86 944.209 1074.64 947.963 1074.23 955.854C1073.72 964.051 1074.18 972.304 1075.58 980.311C1075.87 983.431 1072.67 983.559 1070.46 982.577C1070.4 982.549 1070.33 982.531 1070.27 982.524L1070.25 982.523C1069.56 982.104 1068.96 981.458 1068.51 980.645C1068.19 980.082 1068.63 978.08 1069.13 975.753C1070.24 971.079 1070.97 966.259 1071.31 961.376C1071.6 957.1 1070.07 943.894 1072.09 944.036Z" fill="#0F2572"/>
<path d="M567.234 996.908C565.021 996.668 562.909 995.856 561.103 994.55C560.451 994.038 559.649 993.755 558.821 993.742C557.994 993.729 557.184 993.988 556.516 994.479C555.882 995.57 555.35 996.718 554.928 997.908C554.282 998.875 554.42 996.834 560.935 1003.53C561.393 1003.49 561.848 1003.42 562.297 1003.32C566.34 1002.34 570.904 1004.34 572.805 1003.71C575.717 1002.74 574.208 997.55 567.234 996.908Z" fill="#0F2572"/>
<path d="M572.197 1004.12C570.426 1004.07 568.664 1003.85 566.931 1003.49C564.939 1003.26 562.924 1003.38 560.974 1003.84L560.951 1003.85C558.988 1001.87 556.84 1000.09 554.537 998.534C554.2 998.355 554.438 998.047 554.664 997.741C555.082 996.552 555.611 995.406 556.244 994.317C556.959 993.749 557.843 993.438 558.755 993.433C559.667 993.428 560.555 993.73 561.276 994.289C563.041 995.565 565.104 996.359 567.266 996.595C575.354 997.339 576.194 1003.91 572.197 1004.12ZM564.206 1002.74C568.394 1002.52 574.293 1005.2 573.882 1001.54C573.67 999.679 571.312 997.599 567.207 997.22C564.933 997.024 562.761 996.19 560.937 994.814C560.342 994.342 559.61 994.076 558.852 994.056C558.094 994.035 557.35 994.262 556.731 994.702C556.127 995.816 555.595 996.968 555.136 998.15C557.327 999.556 559.316 1001.26 561.047 1003.21C562.092 1003 563.146 1002.84 564.206 1002.74Z" fill="#0F2572"/>
<path d="M560.921 1003.49C560.921 1003.49 528.313 1018.11 521.445 1015.64C521.338 1015.6 521.247 1015.52 521.186 1015.43C521.124 1015.33 521.095 1015.22 521.104 1015.1C521.022 1015.03 521.017 1014.95 521.009 1014.79C514.189 1005.28 494.427 980.695 496.931 969.433L513.647 969.966C515.797 971.414 520.4 982.538 521.229 984.586C525.644 994.972 526.841 1000.52 528.074 1003.1C528.493 1002.97 528.903 1002.82 529.304 1002.64C539.84 997.366 543.334 999.776 554.441 997.932C556.004 997.849 561.349 999.691 560.921 1003.49Z" fill="#FFC9D4"/>
<path d="M521.341 1015.93C521.191 1015.88 521.059 1015.79 520.964 1015.67C520.868 1015.54 520.813 1015.39 520.807 1015.23C514.661 1005.64 493.957 981.289 496.629 969.363C496.644 969.297 496.68 969.237 496.732 969.193C496.783 969.148 496.847 969.122 496.915 969.118C498.28 969.046 492.004 968.962 513.653 969.655C515.011 969.668 519.213 978.752 521.521 984.468C524.903 992.427 527.685 1001.5 528.246 1002.72C534.033 1000.76 534.055 998.938 544.995 998.504C548.147 998.446 551.29 998.152 554.398 997.624C556.512 997.765 558.507 998.659 560.023 1000.15C560.468 1000.58 560.808 1001.11 561.017 1001.69C561.227 1002.28 561.301 1002.9 561.233 1003.52C561.162 1004.36 527.758 1018.26 521.341 1015.93ZM497.185 969.753C495.062 980.854 514.18 1004.74 521.264 1014.61C525.093 1019.1 557.688 1004.58 560.631 1003.28C560.827 1000.26 556.47 998.141 554.461 998.247C550.771 998.803 547.049 999.124 543.318 999.207C532.897 999.757 528.349 1004.27 527.791 1003.23C527.424 1002.46 518.194 974.495 513.525 970.276L497.185 969.753Z" fill="#0F2572"/>
<path d="M526.973 1000.01C523.927 1003.36 520.227 1006.05 516.104 1007.9C509.629 999.299 494.743 979.273 496.931 969.433L513.647 969.966C517.532 972.583 526.67 999.237 526.973 1000.01Z" fill="#0584DB"/>
<path d="M515.761 1008.16C509.364 999.655 494.249 979.425 496.513 969.338C496.534 969.239 496.589 969.151 496.668 969.089C496.748 969.027 496.847 968.996 496.947 969L513.661 969.535C515.005 969.599 518.804 977.43 521.626 984.424C524.558 991.284 526.693 998.095 527.376 999.856C527.742 1000.9 516.79 1009.5 515.761 1008.16ZM497.283 969.874C495.539 979.485 509.954 999.015 516.256 1007.37C520.108 1005.57 523.579 1003.03 526.477 999.911C525.349 996.881 517.62 974.276 513.477 970.394L497.283 969.874Z" fill="#0F2572"/>
<path d="M524.928 1044.99C522.62 1046.2 519.954 1046.53 517.425 1045.91C517.293 1046.91 514.368 1049.09 513.42 1049.46C511.314 1050.06 509.281 1050.9 507.355 1051.94C506.706 1052.68 507.284 1055.34 510.166 1055.55C512.735 1055.78 515.317 1055.29 517.632 1054.15C518.156 1053.88 518.731 1053.72 519.319 1053.69C519.907 1053.66 520.495 1053.75 521.046 1053.96C521.653 1054.1 522.285 1054.09 522.889 1053.94C523.493 1053.78 524.05 1053.49 524.516 1053.07C524.981 1052.65 525.34 1052.13 525.563 1051.55C525.785 1050.96 525.865 1050.33 525.796 1049.71C525.792 1049.65 525.858 1049.9 525.103 1044.99L524.928 1044.99Z" fill="#0F2572"/>
<path d="M512.302 1055.89C510.058 1056.01 507.875 1055.86 507.02 1053.79C506.03 1051.38 508.157 1050.97 511.411 1049.84C513.47 1049.33 515.32 1048.19 516.711 1046.58C516.927 1046.4 517.072 1046.15 517.117 1045.87C517.123 1045.82 517.138 1045.78 517.162 1045.74C517.186 1045.7 517.218 1045.67 517.256 1045.64C517.294 1045.62 517.338 1045.6 517.383 1045.6C517.428 1045.59 517.473 1045.6 517.517 1045.61C520.08 1046.12 522.739 1045.8 525.103 1044.68C525.179 1044.68 525.252 1044.71 525.309 1044.75C525.366 1044.8 525.404 1044.87 525.416 1044.95C526.115 1049.53 526.113 1049.64 526.11 1049.72C526.179 1050.38 526.09 1051.06 525.849 1051.68C525.607 1052.31 525.22 1052.87 524.721 1053.31C524.221 1053.76 523.623 1054.08 522.976 1054.24C522.329 1054.41 521.652 1054.42 521 1054.27C519.328 1054.02 519.858 1053.78 518.089 1054.34C516.262 1055.18 514.305 1055.71 512.302 1055.89ZM517.652 1046.3C516.573 1047.76 515.161 1048.95 513.534 1049.75C511.482 1050.36 509.493 1051.16 507.592 1052.15C506.976 1052.85 507.815 1055.06 510.186 1055.23C512.712 1055.45 515.248 1054.97 517.528 1053.86C518.076 1053.58 518.675 1053.42 519.288 1053.38C519.901 1053.35 520.514 1053.44 521.09 1053.65C521.651 1053.79 522.237 1053.79 522.797 1053.65C523.357 1053.5 523.875 1053.23 524.306 1052.85C524.738 1052.46 525.07 1051.98 525.275 1051.43C525.48 1050.89 525.551 1050.31 525.483 1049.73C525.484 1049.61 525.395 1048.92 524.849 1045.38C522.619 1046.48 520.086 1046.8 517.652 1046.3Z" fill="#0F2572"/>
<path d="M522.243 1009.93L522.165 1009.94C521.442 1012.08 521.083 1014.33 521.104 1016.6C525.321 1025.4 524.811 1027.41 525.099 1045.01C522.707 1046.19 519.983 1046.5 517.389 1045.89C517.616 1038.25 510.338 1018.98 510.338 1018.98C508.764 1016.57 510.234 1004.3 511.829 972.657C517.026 973.007 513.159 972.779 531.082 973.765C535.41 984.166 527.164 992.96 522.243 1009.93Z" fill="#FFC9D4"/>
<path d="M517.325 1046.2C517.253 1046.18 517.189 1046.14 517.143 1046.09C517.096 1046.03 517.071 1045.96 517.071 1045.88C517.299 1038.39 510.116 1019.28 510.044 1019.09C508.364 1016.54 510.518 993.606 511.514 972.644C511.539 972.442 511.649 972.373 511.85 972.346C517.045 972.696 513.179 972.467 531.097 973.454C531.155 973.456 531.211 973.474 531.259 973.508C531.307 973.542 531.345 973.588 531.367 973.643C535.952 983.855 527.426 993.171 522.546 1010.02C521.747 1012.09 521.36 1014.3 521.409 1016.52C523.15 1020.05 524.353 1023.83 524.98 1027.72C525.2 1031.91 525.405 1044.88 525.411 1045.01C525.412 1045.07 525.394 1045.13 525.36 1045.18C525.326 1045.23 525.277 1045.28 525.22 1045.3C522.77 1046.5 519.982 1046.82 517.325 1046.2ZM517.701 1045.63C520.087 1046.15 522.575 1045.86 524.781 1044.81C524.509 1028.08 525.037 1025.46 520.824 1016.73C519.262 1011.13 531.953 987.726 532.072 980.69C532.054 978.43 531.647 976.189 530.868 974.068C513.465 973.109 516.937 973.314 512.121 972.992C510.998 995.973 509.074 1016.48 510.596 1018.8C510.923 1019.64 517.76 1037.86 517.701 1045.63Z" fill="#0F2572"/>
<path d="M522.243 1009.93L522.165 1009.94C520.37 1011.23 518.229 1011.94 516.023 1011.99C513.816 1012.03 511.648 1011.41 509.8 1010.2C510.57 991.373 511.037 988.381 511.829 972.657C517.026 973.007 513.159 972.779 531.082 973.765C535.41 984.166 527.164 992.96 522.243 1009.93Z" fill="#0584DB"/>
<path d="M516.764 1012.4C514.248 1012.48 511.761 1011.85 509.591 1010.57C508.783 1010.11 509.749 1005.68 511.398 972.635C511.401 972.577 511.415 972.521 511.44 972.469C511.465 972.417 511.5 972.371 511.543 972.333C511.586 972.295 511.636 972.266 511.69 972.248C511.744 972.229 511.802 972.222 511.859 972.226C517.054 972.576 513.189 972.348 531.105 973.334C531.186 973.339 531.264 973.366 531.33 973.413C531.396 973.459 531.447 973.524 531.479 973.598C535.969 985.072 527.854 992.123 522.654 1010.05C521.023 1011.5 518.939 1012.33 516.764 1012.4ZM510.239 1009.95C511.995 1011.06 514.041 1011.62 516.115 1011.56C518.19 1011.5 520.2 1010.82 521.889 1009.61C527.6 990.367 534.801 985.02 530.783 974.18L512.235 973.117C511.38 990.092 511.163 988.467 510.239 1009.95Z" fill="#0F2572"/>
<path d="M492.662 919.181C488.397 924.872 482.636 929.256 476.025 931.841C455.294 939.09 452.852 933.7 447.918 935.061C445.301 935.782 441.128 937.222 441.323 938.527C441.676 940.891 448.731 938.856 450.523 940.39C451.751 941.441 447.684 940.412 448.958 942.317C449.72 943.455 453.156 942.616 456.939 941.307C475.054 941.712 480.196 941.092 488.025 938.373C492.873 936.859 497.403 934.463 501.388 931.305C511.379 922.32 502.265 907.521 492.662 919.181Z" fill="#FFC9D4"/>
<path d="M448.697 942.491C448.563 942.341 448.471 942.158 448.43 941.961C448.389 941.764 448.4 941.559 448.461 941.367C448.735 940.754 449.667 940.751 450.32 940.628C448.632 939.197 441.419 941.322 441.009 938.574C440.779 936.958 445.185 935.489 447.832 934.758C452.992 933.381 455.255 938.763 475.926 931.547C482.413 929.025 488.073 924.74 492.271 919.173C501.493 906.879 512.365 921.846 501.603 931.54C495.354 936.178 488.146 939.347 480.513 940.812C472.697 941.62 464.835 941.89 456.983 941.62C454.989 942.311 449.783 944.128 448.697 942.491ZM449.307 935.148C447.926 935.221 441.44 937.22 441.631 938.479C441.9 940.29 449.005 938.678 450.724 940.154C451.26 940.621 451.282 941.135 450.042 941.303C449.03 941.445 448.797 941.522 449.214 942.142C449.587 942.702 451.177 942.963 456.836 941.014C456.85 941.001 456.868 940.993 456.887 940.99C456.906 940.987 456.925 940.989 456.942 940.997C472.884 941.198 478.608 941.31 487.929 938.079C496.955 934.94 507.561 929.292 505.12 919.973C503.75 914.708 498.483 912.82 492.765 919.554C488.495 925.222 482.732 929.58 476.126 932.136C457.238 938.747 453.437 934.93 449.307 935.148Z" fill="#0F2572"/>
<path d="M501.388 931.305C497.403 934.463 492.873 936.858 488.025 938.372C487.183 934.65 485.661 931.117 483.534 927.952C487.019 925.53 490.099 922.569 492.662 919.181C502.265 907.521 511.38 922.32 501.388 931.305Z" fill="#E04646"/>
<path d="M488.051 938.806C487.972 938.81 487.894 938.792 487.826 938.753C487.773 938.724 487.726 938.685 487.69 938.637C487.653 938.589 487.627 938.535 487.612 938.476C485.088 928.282 482.147 928.385 483.286 927.596C486.726 925.198 489.772 922.275 492.312 918.933C502.368 906.706 512.106 922.241 501.676 931.628C497.655 934.833 493.076 937.258 488.172 938.78C488.132 938.794 488.092 938.802 488.051 938.806ZM484.144 928.053C486.081 931.043 487.496 934.342 488.328 937.808C492.967 936.335 497.298 934.022 501.106 930.982C510.604 922.44 502.231 908.255 492.989 919.458C490.49 922.754 487.508 925.653 484.144 928.053Z" fill="#0F2572"/>
<path d="M532.377 980.723C529.418 984.501 508.715 987.615 499.514 982.034C497.392 978.195 496.496 973.794 496.948 969.427L531.062 973.802C531.925 976.006 532.371 978.354 532.377 980.723Z" fill="#0F2572"/>
<path d="M533.613 929.499C533.202 931.559 532.651 933.589 531.964 935.574C527.242 950.963 528.166 954.109 532.079 971.146C532.079 971.162 532.079 971.162 532.095 971.177C532.442 972.726 532.781 974.134 533.044 975.265C533.257 976.142 533.174 977.066 532.807 977.891C532.44 978.716 531.811 979.396 531.018 979.823C522.765 984.146 506.008 984.54 499 979.976C494.229 976.843 495.642 969.23 496.414 962.198C498.487 943.359 492.713 940.451 493.145 928.422C493.326 923.522 496.462 914.831 499.1 914.519C501.374 914.265 503.674 914.355 505.922 914.786C509.532 917.526 516.107 917.242 520.225 915.661C524.224 916.88 531.588 920.741 533.224 923.862C533.464 925.732 533.594 927.614 533.613 929.499Z" fill="#FC645D"/>
<path d="M498.765 980.339C494.209 977.347 494.996 970.617 495.764 964.106C498.315 941.073 492.219 942.042 492.716 928.407C492.898 923.402 496.093 914.44 499.044 914.092C500.598 913.857 502.179 913.856 503.734 914.091C503.927 914.118 506.075 914.361 506.177 914.442C508.287 915.609 510.63 916.288 513.034 916.429C515.439 916.571 517.845 916.171 520.076 915.259C520.9 914.877 531.558 919.743 533.606 923.661C533.629 923.702 533.644 923.747 533.652 923.793C533.891 925.683 534.021 927.585 534.042 929.489C533.614 931.629 533.047 933.738 532.345 935.804C527.768 950.675 528.525 953.767 532.483 970.996C532.498 971.023 532.509 971.052 532.518 971.082C532.83 972.489 532.823 972.41 533.458 975.168C533.699 976.139 533.609 977.163 533.202 978.077C532.795 978.991 532.095 979.741 531.213 980.209C523.021 984.497 506.102 985.118 498.765 980.339ZM499.149 914.947C496.899 915.215 493.754 923.541 493.575 928.438C493.139 940.639 498.941 943.101 496.845 962.244C496.178 968.163 494.569 976.551 499.232 979.616C506.022 984.027 522.554 983.739 530.821 979.443C531.532 979.062 532.096 978.453 532.423 977.714C532.751 976.974 532.822 976.146 532.627 975.361C532.414 974.457 532.003 972.721 531.688 971.322C531.665 971.274 531.652 971.223 531.65 971.17C527.825 954.568 526.743 951.106 531.521 935.548C532.029 933.937 532.743 931.551 533.188 929.846C533.147 929.059 533.119 926.203 532.813 923.998C531.235 921.158 524.398 917.405 520.243 916.118C517.909 917.037 515.402 917.432 512.9 917.274C510.397 917.117 507.959 916.41 505.758 915.205C503.581 914.784 501.353 914.697 499.149 914.947Z" fill="#0F2572"/>
<path d="M532.079 971.146C527.043 960.118 525.535 951.895 526.885 936.092L531.964 935.573C527.242 950.963 528.166 954.108 532.079 971.146Z" fill="#0F2572"/>
<path d="M522.513 916.48C517.195 921.941 502.945 922.088 503.303 914.475C504.055 914.568 504.838 914.693 505.919 914.792C509.537 917.533 516.102 917.241 520.217 915.661C520.971 915.893 521.743 916.163 522.513 916.48Z" fill="#0584DB"/>
<path d="M512.525 920.827C502.998 921.33 501.84 913.903 503.356 914.045C503.472 914.061 506.086 914.377 506.178 914.449C508.287 915.613 510.629 916.289 513.032 916.43C515.435 916.57 517.839 916.17 520.068 915.26C520.967 915.424 521.842 915.699 522.674 916.079C524.19 916.699 518.578 920.507 512.525 920.827ZM503.741 914.966C504.227 921.584 516.563 921.153 521.724 916.632C521.24 916.45 520.741 916.277 520.235 916.119C517.905 917.048 515.399 917.449 512.896 917.293C510.393 917.136 507.956 916.426 505.758 915.213C505.068 915.147 504.083 915.021 503.741 914.966Z" fill="#0F2572"/>
<path d="M572.414 917.801C570.384 916.754 568.013 923.404 565.821 923.944C564.317 924.315 567.392 921.713 565.203 921.642C563.431 921.586 561.916 927.368 561.388 928.721C556.167 933.602 550.515 937.995 544.5 941.846C538.668 936.849 536.52 927.18 534.027 924.936C526.927 918.522 519.098 926.89 526.19 936.359C530.402 941.978 533.727 947.777 543.091 951.283C543.669 951.522 544.289 951.641 544.914 951.635C545.539 951.629 546.156 951.497 546.729 951.247C553.975 948.331 564.157 933.058 565.786 931.306C565.724 931.25 565.669 931.21 565.608 931.155C567.218 929.426 569.096 927.969 571.17 926.842C574.134 924.785 574.444 918.849 572.414 917.801Z" fill="#FFC9D4"/>
<path d="M545.126 951.936C541.804 952.111 535.422 947.97 531.689 944.013C529.636 941.635 527.718 939.143 525.942 936.549C518.594 926.736 526.883 918.051 534.235 924.703C536.704 926.933 538.959 936.536 544.539 941.472C550.477 937.666 556.046 933.307 561.171 928.453C561.187 928.422 561.201 928.389 561.212 928.355C562.685 923.462 563.879 921.284 565.213 921.332C566.244 921.362 566.687 921.888 565.922 923.341C565.881 923.428 565.818 923.539 565.777 923.633C567.831 923.076 570.159 916.303 572.557 917.52C574.749 918.66 574.555 924.871 571.345 927.098C569.394 928.177 567.607 929.531 566.039 931.119C566.084 931.177 566.106 931.25 566.101 931.324C566.097 931.397 566.066 931.467 566.014 931.519C564.616 933.032 552.061 951.57 545.126 951.936ZM526.442 936.169C530.649 941.785 533.843 947.488 543.202 950.989C550.048 953.575 562.441 934.753 565.346 931.332C564.732 930.416 570.24 927.104 570.997 926.583C573.883 924.573 573.996 918.952 572.265 918.08C570.719 917.178 568.103 923.708 565.901 924.249C565.15 924.383 564.821 924.109 565.372 923.048C565.823 922.194 565.896 921.979 565.2 921.955C563.863 922.025 562.474 926.33 561.811 928.535C561.797 928.606 561.693 928.801 561.688 928.825C561.663 928.9 560.579 929.847 560.52 929.901C559.349 930.944 545.482 943.114 544.296 942.084C540.978 938.758 538.404 934.762 536.742 930.361C536.029 928.494 535.043 926.745 533.816 925.17C527.041 919.036 519.541 926.971 526.442 936.169Z" fill="#0F2572"/>
<path d="M520.225 915.66C517.118 916.813 513.843 917.441 510.532 917.52C506.582 917.242 505.923 914.785 505.923 914.785C506.51 913.804 506.89 912.712 507.04 911.577C507.19 910.442 507.107 909.289 506.795 908.188C501.943 892.472 507.677 890.446 510.588 887.298C513.484 884.168 521.566 888.804 519.226 897.783C517.877 903.718 518.223 909.914 520.225 915.66Z" fill="#FFC9D4"/>
<path d="M505.618 914.867C505.497 914.405 506.212 914.614 506.594 912.607C506.791 911.159 506.758 909.688 506.496 908.25C502.249 894.517 506.025 891.084 509.063 888.328C509.53 887.904 509.968 887.505 510.36 887.085C513.315 883.879 521.793 887.925 519.448 898.171C518.241 903.955 518.611 909.96 520.519 915.551C520.548 915.629 520.544 915.716 520.509 915.792C520.475 915.867 520.412 915.927 520.334 915.956C515.706 917.637 506.86 919.619 505.618 914.867ZM506.275 914.859C507.952 918.837 515.789 916.864 519.827 915.472C517.896 909.744 517.584 903.591 518.926 897.695C521.158 889.122 513.498 884.583 510.811 887.514C507.15 891.45 502.494 893.196 507.099 908.096C507.719 910.371 507.423 912.8 506.275 914.859Z" fill="#FFC9D4"/>
<path d="M518.341 896.617C517.029 903.249 512.876 912.491 506.905 912.665C507.11 911.176 507.073 909.664 506.795 908.188C501.943 892.473 507.677 890.446 510.588 887.298C513.347 884.317 520.611 886.738 518.341 896.617Z" fill="#0F2572"/>
<path d="M521.566 888.807C522.002 890.22 516.081 904.13 510.888 907.534C505.998 910.74 503.494 910.663 501.235 909.595C494.57 906.445 495.753 883.424 504.994 881.522C509.871 880.517 518.594 879.182 521.566 888.807Z" fill="#FFC9D4"/>
<path d="M504.344 910.564C493.071 911.159 494.973 883.268 504.933 881.213C509.051 880.377 518.673 878.402 521.867 888.713C523.023 888.652 516.513 904.224 511.054 907.799C509.095 909.29 506.782 910.243 504.344 910.564ZM505.057 881.828C496.122 883.665 494.97 906.285 501.363 909.312C503.544 910.334 505.979 910.378 510.713 907.272C515.928 903.856 521.634 890.092 521.265 888.898C518.907 881.258 512.915 880.199 505.057 881.828Z" fill="#0F2572"/>
<path d="M559.565 906.002C559.644 904.107 557.451 903.473 556.623 902.834C555.026 901.602 555.524 898.847 554.637 897.874C554.178 897.495 553.63 897.238 553.045 897.127C552.147 896.818 551.34 896.29 550.695 895.59C550.05 894.89 549.589 894.041 549.352 893.118C549.24 886.36 547.452 887.258 544.237 884.23C543.093 883.151 543.026 880.302 541.065 879.095C540.339 878.647 539.409 878.946 538.559 878.871C535.726 878.622 535.185 874.912 533.584 873.104C530.435 869.543 526.82 872.786 524.213 872.294C522.132 871.335 519.85 870.898 517.563 871.02C516.266 871.042 514.977 871.247 513.737 871.631C511.997 872.223 510.453 873.282 509.271 874.693C508.089 876.103 507.314 877.813 507.032 879.634C507.268 881.425 508.2 883.05 509.625 884.155C511.086 885.378 512.123 887.033 512.589 888.884C514.358 893.707 522.149 894.498 523.019 897.668C523.421 899.131 522.218 901.461 523.765 903.235C524.662 903.803 525.372 904.622 525.808 905.592C526.244 906.561 526.387 907.638 526.219 908.688C526.059 912.004 527.973 916.573 532.092 916.303C532.293 916.327 532.485 916.407 532.683 916.42C533.418 916.387 534.148 916.555 534.796 916.907C535.869 917.668 535.934 919.406 540.693 918.281C542.018 917.97 541.998 918.321 542.842 918.73C543.332 918.902 543.857 918.95 544.37 918.869C544.883 918.788 545.368 918.58 545.781 918.265C549.55 915.878 547.712 916.319 552.965 916.16C553.737 916.223 554.51 916.069 555.199 915.714C555.887 915.359 556.464 914.819 556.862 914.153C557.334 913.014 556.193 910.706 557.788 909.189C558.769 908.257 559.747 907.128 559.565 906.002Z" fill="#0F2572"/>
<path d="M522.302 887.195C526.928 876.219 509.92 870.746 506.034 879.623L522.302 887.195Z" fill="#0584DB"/>
<path d="M522.324 887.629C522.255 887.631 522.186 887.618 522.123 887.589L505.858 880.016C505.756 879.968 505.676 879.881 505.636 879.775C505.596 879.669 505.599 879.551 505.645 879.447C509.722 870.243 527.495 875.651 522.7 887.363C522.677 887.417 522.644 887.466 522.601 887.507C522.558 887.548 522.508 887.579 522.453 887.599C522.412 887.617 522.368 887.627 522.324 887.629ZM506.622 879.419L522.056 886.606C525.477 876.047 510.775 872.059 506.622 879.419Z" fill="#0F2572"/>
<path d="M501.559 887.983C504.01 887.017 504.042 884.212 508.888 886.1C509.436 886.313 510.893 887.71 511.441 887.924C512.493 888.334 514.487 887.785 515.649 888.82C516.998 890.022 515.499 892.633 516.736 893.951C517.132 894.372 517.733 894.553 518.122 894.981C518.872 895.807 518.529 897.096 518.509 898.214C518.49 899.332 519.467 900.731 520.434 900.177C521.243 899.713 520.964 898.515 520.944 897.581C521.126 896.016 521.742 894.535 522.723 893.306C524.866 889.766 523.263 888.641 522.403 887.429C519.962 883.987 522.702 879.478 514.177 879.419C511.5 879.4 508.664 877.192 506.406 878.635C505.781 879.156 505.184 879.71 504.616 880.293C503.58 881.118 501.695 881.072 500.573 881.775C499.902 882.195 499.604 883.519 499.047 884.648C498.752 885.248 497.64 885.275 497.729 886.119C497.788 886.537 497.948 886.934 498.196 887.275C498.444 887.616 498.771 887.89 499.15 888.074C499.528 888.258 499.946 888.346 500.366 888.33C500.786 888.314 501.196 888.195 501.559 887.983Z" fill="#0F2572"/>
<path d="M539.992 936.143C538.067 936.534 536.29 937.458 534.863 938.811C533.435 940.163 532.414 941.891 531.915 943.797C529.746 941.414 527.712 938.91 525.824 936.297C518.731 926.828 527.205 918.316 534.304 924.73C535.886 926.154 537.263 931.357 539.992 936.143Z" fill="#E04646"/>
<path d="M531.938 944.231C529.563 941.869 527.401 939.301 525.476 936.558C518.036 926.605 527.158 917.689 534.595 924.408C536.29 925.946 537.607 931.094 540.362 935.93C540.397 935.989 540.417 936.055 540.421 936.124C540.424 936.192 540.411 936.261 540.383 936.323C540.355 936.386 540.312 936.44 540.258 936.483C540.205 936.525 540.142 936.554 540.075 936.567C532.909 938.015 532.98 944.176 531.938 944.231ZM526.168 936.037C528.027 938.516 529.859 940.915 531.75 942.985C532.312 941.251 533.303 939.688 534.628 938.441C535.954 937.194 537.573 936.304 539.333 935.854C537.777 932.15 536.002 928.543 534.016 925.052C527.311 918.981 519.405 927.014 526.168 936.037Z" fill="#0F2572"/>
</g>
<defs>
<filter id="filter0_d_932_547" x="-248" y="834" width="1554" height="290" filterUnits="userSpaceOnUse" color-interpolation-filters="sRGB">
<feFlood flood-opacity="0" result="BackgroundImageFix"/>
<feColorMatrix in="SourceAlpha" type="matrix" values="0 0 0 0 0 0 0 0 0 0 0 0 0 0 0 0 0 0 127 0" result="hardAlpha"/>
<feOffset dy="-8"/>
<feGaussianBlur stdDeviation="2"/>
<feComposite in2="hardAlpha" operator="out"/>
<feColorMatrix type="matrix" values="0 0 0 0 0 0 0 0 0 0 0 0 0 0 0 0 0 0 0.25 0"/>
<feBlend mode="normal" in2="BackgroundImageFix" result="effect1_dropShadow_932_547"/>
<feBlend mode="normal" in="SourceGraphic" in2="effect1_dropShadow_932_547" result="shape"/>
</filter>
<clipPath id="clip0_932_547">
<rect width="1170" height="1125" fill="white"/>
</clipPath>
</defs>
</svg>
