<svg width="1170" height="866" viewBox="0 0 1170 866" fill="none" xmlns="http://www.w3.org/2000/svg">
<g clip-path="url(#clip0_903_10025)">
<rect width="1170" height="866" fill="#F89C43"/>
<g filter="url(#filter0_d_903_10025)">
<path d="M-89 1290V1005.33C-89 1005.33 10.4206 775.783 158.686 759.141C369.92 735.432 667.463 909.927 808.027 793.77C949.353 676.983 1132.77 688.012 1331 877.375V1290H-89Z" fill="#0461B5"/>
</g>
<path d="M107.19 61.2001C116.164 65.3102 123.825 71.8268 129.32 80.0265C129.544 80.3857 129.866 80.6729 130.248 80.8539C130.63 81.0349 131.057 81.1021 131.476 81.0474C131.895 80.9927 132.29 80.8185 132.613 80.5455C132.936 80.2725 133.174 79.9122 133.298 79.5078C133.896 75.9778 135.186 72.6008 137.093 69.571C139.315 66.7954 141.924 64.3529 144.839 62.3181C146.339 61.0953 144.702 58.8415 143.056 59.2491C138.945 60.5752 135.442 63.3239 133.175 67.0013C130.598 70.456 129.149 74.6211 129.024 78.9294C130.261 78.4171 131.5 77.9037 132.739 77.3892C126.361 69.1699 117.647 63.0707 107.741 59.8919C106.982 59.6535 106.445 60.8504 107.19 61.2001Z" fill="white"/>
<path d="M92.4606 150.981C96.8281 153.348 101.173 155.777 105.627 157.981C109.412 159.856 113.288 161.54 117.027 163.512C124.37 167.073 130.91 172.092 136.248 178.264C136.651 178.65 137.158 178.911 137.706 179.014C138.255 179.118 138.821 179.059 139.337 178.845C139.853 178.632 140.295 178.272 140.61 177.812C140.925 177.351 141.099 176.808 141.11 176.25C140.459 167.706 141.954 159.135 145.462 151.316C147.191 147.447 149.387 143.804 152.002 140.469C154.746 137.022 158.008 134.103 160.915 130.803C161.262 130.433 161.466 129.95 161.49 129.443C161.514 128.936 161.357 128.437 161.047 128.035C160.736 127.633 160.293 127.354 159.797 127.249C159.3 127.144 158.782 127.219 158.335 127.46C154.083 129.692 150.404 132.875 147.585 136.762C144.682 140.393 142.236 144.366 140.302 148.592C136.3 157.231 134.616 166.763 135.414 176.25C137.034 175.578 138.655 174.907 140.274 174.236C134.518 167.938 127.503 162.921 119.682 159.51C111.136 155.378 102.346 151.932 93.4642 148.6C92.0754 148.08 91.1765 150.287 92.4606 150.981Z" fill="white"/>
<path d="M78.5636 42.5775C85.8999 45.4148 91.8896 50.9251 95.3277 57.9999C95.6241 58.4754 96.0803 58.8296 96.6143 58.999C97.1484 59.1684 97.7253 59.1419 98.2415 58.9241C98.7578 58.7064 99.1794 58.3117 99.4308 57.811C99.6822 57.3103 99.7469 56.7364 99.6132 56.1923C98.3734 52.5928 98.4401 48.6717 99.8017 45.1165C101.16 41.3 103.557 37.9877 105.049 34.2502C105.793 32.3798 103.196 31.3568 101.951 32.4458C98.4643 35.669 95.9109 39.7723 94.5594 44.3239C93.0305 48.8095 93.306 53.7138 95.3277 57.9999L99.3781 55.6334C94.3825 48.642 87.2204 43.4936 79.0018 40.9859C77.9643 40.675 77.5937 42.2022 78.5636 42.5775Z" fill="white"/>
</g>
<defs>
<filter id="filter0_d_903_10025" x="-93" y="710" width="1428" height="580" filterUnits="userSpaceOnUse" color-interpolation-filters="sRGB">
<feFlood flood-opacity="0" result="BackgroundImageFix"/>
<feColorMatrix in="SourceAlpha" type="matrix" values="0 0 0 0 0 0 0 0 0 0 0 0 0 0 0 0 0 0 127 0" result="hardAlpha"/>
<feOffset dy="-4"/>
<feGaussianBlur stdDeviation="2"/>
<feComposite in2="hardAlpha" operator="out"/>
<feColorMatrix type="matrix" values="0 0 0 0 0 0 0 0 0 0 0 0 0 0 0 0 0 0 0.25 0"/>
<feBlend mode="normal" in2="BackgroundImageFix" result="effect1_dropShadow_903_10025"/>
<feBlend mode="normal" in="SourceGraphic" in2="effect1_dropShadow_903_10025" result="shape"/>
</filter>
<clipPath id="clip0_903_10025">
<rect width="1170" height="866" fill="white"/>
</clipPath>
</defs>
</svg>
