<svg width="270" height="100" viewBox="0 0 270 100" fill="none" xmlns="http://www.w3.org/2000/svg">
<path d="M1.11523 14.284C65.2102 5.13878 130.617 7.60498 161.135 11.4909C197.211 16.0845 209.179 19.5316 241.116 21.2665C269.503 22.8084 344.943 11.7485 335.285 20.0678C322.696 30.9123 326.139 73.3841 344.939 91.0918C347.673 93.6671 258.333 100.044 204.202 95.2816C129.573 88.7154 105.546 77.7034 56.5429 82.7131C38.3904 84.6122 16.8759 88.1675 1.50003 93.1869C10.4998 80 26.9999 62.5 31.9999 49.5C23.4999 33 10.4999 26.5 1.11523 14.284Z" fill="#FC645D"/>
<path d="M91.7992 39.4L95.1792 32H98.5192L93.1392 42.82C91.9192 45.26 90.5192 46.22 88.5592 46.22C87.3592 46.22 86.4192 45.9 85.5392 45.4L86.7392 43.14C87.2992 43.48 87.8592 43.6 88.3992 43.6C88.9592 43.6 89.5992 43.34 90.1592 42.48L84.5592 32H87.9992L91.7992 39.4ZM108.687 46V40.78C107.747 41.24 106.407 41.82 104.987 41.82C102.207 41.82 100.287 40.36 100.287 37.12V32H103.367V36.22C103.367 37.96 104.047 38.94 105.627 38.94C106.867 38.94 108.047 38.54 108.687 38.04V32H111.767V46H108.687ZM113.918 46L119.918 31.9H122.758L128.758 46H125.538L124.258 42.86H118.338L117.058 46H113.918ZM119.438 40.14H123.158L121.298 35.6L119.438 40.14ZM137.478 46.24C133.358 46.24 130.298 43.06 130.298 39C130.298 35.02 133.298 31.76 137.598 31.76C140.238 31.76 141.718 32.76 143.018 34.04L141.178 36.16C140.098 35.18 139.178 34.6 137.578 34.6C135.218 34.6 133.518 36.56 133.518 39C133.518 41.4 135.178 43.4 137.578 43.4C139.178 43.4 140.158 42.76 141.258 41.76L143.218 43.86C141.778 45.4 140.178 46.24 137.478 46.24ZM148.944 46V34.84H144.684V32H156.284V34.84H152.024V46H148.944ZM170.713 32V46H167.673V36.82L161.553 46H158.653V32H161.693V41.18L167.853 32H170.713ZM174.082 46V32H184.642V34.74H177.142V37.58H183.742V40.32H177.142V43.26H184.742V46H174.082ZM72.9534 53.78V56.22H76.6534C79.8134 56.22 81.5734 57.94 81.5734 60.56C81.5734 63.42 79.5934 65 76.3534 65H69.8734V51H80.6134V53.78H72.9534ZM76.3334 58.78H72.9534V62.22H76.3534C77.7934 62.22 78.4934 61.66 78.4934 60.44C78.4934 59.36 77.7934 58.78 76.3334 58.78ZM84.1116 65V51H94.6716V53.74H87.1716V56.58H93.7716V59.32H87.1716V62.26H94.7716V65H84.1116ZM104.07 65.24C99.9501 65.24 96.8901 62.06 96.8901 58C96.8901 54.02 99.8901 50.76 104.19 50.76C106.83 50.76 108.31 51.76 109.61 53.04L107.77 55.16C106.69 54.18 105.77 53.6 104.17 53.6C101.81 53.6 100.11 55.56 100.11 58C100.11 60.4 101.77 62.4 104.17 62.4C105.77 62.4 106.75 61.76 107.85 60.76L109.81 62.86C108.37 64.4 106.77 65.24 104.07 65.24ZM112.276 65V51H123.956V65H120.876V53.78H115.356V65H112.276ZM129.175 51H139.175V65H136.095V53.78H132.055V54.84C132.055 63.08 130.715 65.18 127.515 65.18C127.015 65.18 126.275 65.1 125.895 65L126.095 62.46C126.235 62.48 126.375 62.5 126.575 62.5C128.235 62.5 129.175 61.44 129.175 53.9V51ZM141.33 65L147.33 50.9H150.17L156.17 65H152.95L151.67 61.86H145.75L144.47 65H141.33ZM146.85 59.14H150.57L148.71 54.6L146.85 59.14ZM161.59 65V53.84H157.33V51H168.93V53.84H164.67V65H161.59ZM171.299 65V51H174.379V56.54H180.059V51H183.139V65H180.059V59.38H174.379V65H171.299ZM193.294 65.24C188.974 65.24 185.874 62.02 185.874 58C185.874 54.02 189.014 50.76 193.334 50.76C197.654 50.76 200.754 53.98 200.754 58C200.754 61.98 197.614 65.24 193.294 65.24ZM193.334 62.4C195.814 62.4 197.534 60.44 197.534 58C197.534 55.6 195.774 53.6 193.294 53.6C190.814 53.6 189.094 55.56 189.094 58C189.094 60.4 190.854 62.4 193.334 62.4Z" fill="white"/>
</svg>
