<svg width="1170" height="525" viewBox="0 0 1170 525" fill="none" xmlns="http://www.w3.org/2000/svg">
<path d="M722.536 927.114C757.829 870.882 791.194 791.634 815.984 679.86C905.6 275.792 901.387 -148.21 1257.88 51.8056V927.114H722.536Z" fill="#FC645D"/>
<path d="M1258.28 927.784H721.54L722.263 926.627C761.842 863.569 793.249 780.466 815.613 679.625C830.904 610.682 843.433 541.317 855.551 474.235C873.1 377.071 889.677 285.299 912.178 208.911C937.365 123.4 966.707 68.2775 1004.51 35.4334C1033.66 10.1032 1067.39 -1.45539 1107.53 0.146017C1150.62 1.84312 1199.84 18.5345 1258.01 51.1714L1258.28 51.326L1258.28 927.784ZM723.53 926.443H1257.49V52.2859C1146.79 -9.76212 1064.16 -14.8821 1004.88 36.6202C922.501 108.185 891.829 277.999 856.31 474.623C844.192 541.725 831.655 611.109 816.356 680.099C794.086 780.512 762.859 863.385 723.53 926.443Z" fill="#082054"/>
<path d="M713.477 972.243L713 971.151C809.788 851.705 840.683 669.872 870.561 494.031C897.442 335.815 922.833 186.372 994.12 95.1958C1021.58 61.0117 1053.66 38.8461 1087.49 30.6947C1118.94 22.8724 1150.89 22.6598 1182.38 30.0633C1217.69 37.7541 1252.34 52.3548 1285.64 73.5685L1285.33 74.8115C1252.09 53.6413 1217.5 39.0705 1182.25 31.3954C1128.83 19.8368 1052.9 21.7111 994.605 96.2681C923.529 187.174 898.173 336.407 871.331 494.399C841.414 670.464 810.484 852.521 713.477 972.243Z" fill="#082054"/>
<g filter="url(#filter0_d_1065_13769)">
<path d="M1414 525.25C662.904 466.548 882.458 403.678 559.589 290.318C320.484 206.368 -132 271.018 -132 271.018L-132 525.25L1414 525.25Z" fill="#F89C43"/>
</g>
<path d="M1414.87 526.25L-132 526.25L-132 270.288L-131.511 270.217C-48.1071 259.172 37.7945 251.815 124.807 248.265C200.334 244.86 276.605 245.774 351.551 250.982C435.782 257.376 506.197 270.389 560.836 289.662C665.128 326.451 712.858 357.94 754.967 385.721C842.971 443.776 906.557 485.725 1415 525.648L1414.87 526.25ZM-130.559 527.645L1407.1 527.645C905.017 487.849 841.511 443.942 753.754 386.048C711.701 358.304 664.034 326.857 559.914 290.131C436.588 246.625 255.335 243.686 124.973 248.87C38.2363 252.418 -47.3968 259.742 -130.559 270.724L-130.559 527.645Z" fill="#082054"/>
<path d="M764.65 494.25C754.577 470.981 738.776 448.389 717.592 426.965C684.217 392.457 621.791 344.041 513.904 309.38C366.114 261.899 172.785 251.554 -60.686 278.619L-61 277.968C172.866 250.854 366.558 261.238 514.672 308.829C622.83 343.579 685.403 392.112 718.851 426.705C740.077 448.177 755.908 470.819 766 494.139L764.65 494.25Z" fill="#082054"/>
<path d="M1134.85 469.752C1130.58 486.389 1123.94 480.8 1114.95 480.241C1106.56 479.718 1098.48 487.492 1090.16 485.388C1076.16 481.872 1065.67 449.476 1079.49 419.771C1082.55 414.398 1085.15 408.555 1087.23 402.359C1088.92 395.834 1088.87 388.33 1090.44 381.706C1090.99 378.649 1092.02 375.792 1093.46 373.332C1094.89 370.872 1096.7 368.867 1098.76 367.457C1100.81 366.046 1103.07 365.263 1105.36 365.161C1107.66 365.06 1109.95 365.642 1112.07 366.867C1127.5 377.406 1128.53 411.771 1134.27 431.705C1137.7 443.905 1137.9 457.365 1134.85 469.752Z" fill="white"/>
<path d="M1094.02 487.393C1076.24 488.659 1063.68 451.942 1078.65 420.159C1081.72 414.831 1084.33 409.046 1086.43 402.916C1088.1 396.566 1088.09 388.848 1089.68 382.279C1090.27 379.109 1091.35 376.149 1092.87 373.602C1094.38 371.055 1096.29 368.982 1098.45 367.525C1100.61 366.068 1102.98 365.261 1105.39 365.161C1107.81 365.06 1110.21 365.668 1112.43 366.943C1128.42 377.79 1129.13 411.479 1135.2 432.24C1138.72 444.628 1138.93 458.292 1135.79 470.866C1131.33 488.265 1123.75 482.482 1115.04 481.911C1107.77 481.562 1101.19 486.883 1094.02 487.393ZM1090.83 382.803C1087.9 395.17 1091.27 398.949 1082.21 416.083C1065.23 448.248 1075.34 481.755 1090.08 485.412C1098.19 487.487 1106.75 479.631 1115.11 480.251C1123.71 480.761 1130.38 486.778 1134.63 470.319C1137.68 458.124 1137.47 444.869 1134.05 432.857C1127.92 411.779 1127.21 378.784 1111.87 368.439C1109.8 367.275 1107.58 366.73 1105.34 366.84C1103.1 366.951 1100.91 367.714 1098.91 369.078C1096.92 370.443 1095.16 372.376 1093.76 374.745C1092.37 377.113 1091.37 379.862 1090.83 382.803Z" fill="#0F2572"/>
<path d="M1134.85 469.961C1130.58 486.368 1123.93 480.856 1114.94 480.305C1103.57 479.607 1092.58 493.941 1081.22 478.712C1078.47 474.959 1076.35 470.448 1075 465.487C1075.49 463.814 1076.71 461.327 1077.98 461.859C1078.9 462.259 1079.29 464.069 1080.03 465.105C1082.16 468.124 1085.2 463.754 1086.95 462.696C1091.14 460.227 1096.88 465.81 1100.18 460.177C1103.15 455.181 1101.22 444.65 1092.39 442.663C1094.18 440.205 1092.89 435.25 1091.09 432.658C1089.29 430.095 1086.9 427.986 1086.29 424.249C1086.04 422.039 1086.39 419.779 1087.27 417.886C1088.15 415.992 1089.51 414.592 1091.09 413.944C1097.43 411.374 1103.52 418.645 1103.54 408.373C1103.65 401.865 1107.55 398.993 1111.73 396.894C1115.89 394.872 1117.51 378.98 1111.92 369.259L1112.05 368.5C1127.6 378.966 1128.4 412.401 1134.27 432.44C1137.7 444.471 1137.91 457.745 1134.85 469.961Z" fill="white"/>
<path d="M1093.99 487.425C1089.44 487.265 1085.04 485.133 1081.45 481.344C1077.86 477.555 1075.27 472.308 1074.04 466.374C1073.99 466.179 1073.99 465.965 1074.04 465.767C1074.71 463.579 1076.14 460.838 1077.8 461.605C1080.27 462.642 1079.34 469.014 1084.57 464.027C1086.76 461.99 1087.76 461.214 1092.52 462.132C1095.11 462.659 1097.97 462.99 1099.61 460.181C1100.38 458.453 1100.74 456.457 1100.66 454.448C1100.58 452.44 1100.05 450.51 1099.16 448.904C1097.41 445.988 1094.88 444.129 1092.12 443.737C1092.01 443.711 1091.9 443.644 1091.82 443.544C1091.73 443.444 1091.67 443.313 1091.63 443.168C1091.6 443.022 1091.6 442.866 1091.62 442.718C1091.65 442.569 1091.71 442.434 1091.79 442.326C1093.33 440.222 1092.03 435.604 1090.46 433.338C1088.58 430.704 1086.1 428.473 1085.46 424.411C1085.15 421.961 1085.52 419.446 1086.49 417.339C1087.47 415.231 1088.97 413.678 1090.73 412.97C1093.78 412.276 1096.88 412.299 1099.92 413.039C1106.82 413.409 1097.28 402.975 1111.58 395.698C1112.1 395.495 1112.58 395.143 1112.99 394.665C1114.53 390.615 1115.2 386.068 1114.94 381.529C1114.69 376.99 1113.5 372.637 1111.53 368.953C1111.47 368.855 1111.43 368.744 1111.41 368.625C1111.39 368.507 1111.38 368.384 1111.4 368.263L1111.52 367.484C1111.54 367.358 1111.58 367.24 1111.64 367.14C1111.7 367.04 1111.78 366.959 1111.86 366.904C1111.95 366.85 1112.05 366.823 1112.14 366.825C1112.24 366.828 1112.33 366.859 1112.41 366.918C1128.38 377.706 1129.27 411.96 1135.2 432.241C1138.72 444.636 1138.93 458.308 1135.79 470.889C1130.86 490.096 1121.42 481.368 1113.23 481.951C1106.88 482.402 1100.44 486.966 1093.99 487.425ZM1075.29 466.087C1076.38 470.711 1078.3 474.9 1080.87 478.277C1083.45 481.655 1086.6 484.116 1090.05 485.442C1098.17 487.519 1106.73 479.658 1115.09 480.279C1123.7 480.789 1130.38 486.809 1134.63 470.342C1137.68 458.14 1137.47 444.877 1134.05 432.859C1128.08 412.523 1127.58 381.702 1113.32 369.524C1114.91 373.097 1115.88 377.111 1116.15 381.263C1116.42 385.416 1115.99 389.597 1114.89 393.492C1114.7 394.409 1114.33 395.241 1113.82 395.904C1113.32 396.566 1112.69 397.036 1112.01 397.265C1108.02 399.287 1104.24 401.917 1104.12 408.146C1104.29 419.556 1096.82 412.121 1091.07 414.578C1089.62 415.18 1088.37 416.466 1087.56 418.203C1086.75 419.94 1086.43 422.013 1086.65 424.047C1087.23 427.628 1089.64 429.721 1091.34 432.19C1092.32 433.483 1093.01 435.11 1093.36 436.898C1093.7 438.685 1093.67 440.566 1093.29 442.336C1104.65 445.806 1105.17 466.148 1093.51 463.997C1091.36 463.222 1089.1 463.226 1086.96 464.008C1084.83 465.289 1081.35 470.918 1078.44 464.743C1078.12 464.02 1077.8 463.355 1077.43 463.193C1077.37 463.164 1077.31 463.152 1077.24 463.161C1076.43 463.218 1075.62 465.086 1075.29 466.087Z" fill="#0F2572"/>
<path d="M1134.84 469.862C1130.55 486.372 1123.88 480.826 1114.85 480.271C1103.44 479.569 1092.4 493.992 1081 478.668C1087.26 475.013 1095.39 485.409 1103.74 474.133C1111.23 464.024 1108.47 446.109 1100.68 443.065C1098.13 442.046 1098.26 440.886 1098.19 436.418C1098.19 433.863 1097.69 431.352 1096.74 429.142C1095.8 426.931 1094.43 425.098 1092.79 423.83C1092.96 423.118 1093.24 422.462 1093.61 421.906C1093.98 421.349 1094.43 420.905 1094.93 420.601C1095.43 420.297 1095.98 420.141 1096.53 420.143C1097.08 420.144 1097.63 420.304 1098.13 420.611C1100.05 422.009 1102.11 423.003 1104.25 423.561C1105.66 423.345 1106.97 422.449 1107.93 421.036C1108.89 419.624 1109.45 417.79 1109.49 415.869C1109.84 410.834 1110.32 411.284 1114.19 409.751C1121.47 406.795 1122.27 390.727 1123.57 385.25C1128.8 399.49 1129.83 416.975 1134.25 432.106C1137.7 444.212 1137.91 457.569 1134.84 469.862Z" fill="white"/>
<path d="M1080.18 480.002C1080.11 479.905 1080.05 479.784 1080.03 479.652C1080 479.52 1079.99 479.38 1080.01 479.245C1080.03 479.11 1080.08 478.984 1080.14 478.879C1080.21 478.773 1080.29 478.69 1080.39 478.639C1084.39 477.565 1088.53 477.81 1092.45 479.351C1109.22 481.385 1112.34 448.769 1100.12 444.039C1097.68 443.093 1097.42 441.147 1097.44 437.41C1097.54 434.843 1097.12 432.286 1096.22 430.025C1095.31 427.764 1093.96 425.887 1092.31 424.603C1091.26 423.938 1092.79 421.022 1093.84 420.218C1097.73 417.229 1100.98 422.745 1104.19 422.728C1106.77 423.122 1108.78 418.726 1108.93 415.055C1109.24 406.046 1115.74 413.302 1119.97 400.525C1121.34 395.297 1122.42 389.936 1123.19 384.488C1124.99 376.709 1131.95 420.88 1135.18 431.924C1138.72 444.38 1138.93 458.119 1135.78 470.761C1130.83 490.062 1121.34 481.292 1113.1 481.878C1102.34 482.643 1091.47 495.083 1080.18 480.002ZM1081.8 479.757C1093.6 494.183 1103.53 477.405 1119.6 480.969C1127.23 482.637 1131.5 482.252 1134.61 470.211C1137.68 457.949 1137.47 444.622 1134.03 432.544C1129.8 418.13 1128.55 400.988 1123.94 387.188C1122.47 395.807 1121.16 407.67 1114.43 410.386C1111.6 411.453 1110.33 411.278 1110.17 415.142C1110.23 417.373 1109.67 419.555 1108.61 421.265C1107.55 422.975 1106.06 424.091 1104.43 424.397C1101.96 424.573 1100.01 422.359 1097.8 421.377C1097 420.898 1096.1 420.841 1095.27 421.219C1094.44 421.598 1093.75 422.383 1093.32 423.419C1095.03 424.925 1096.42 427.005 1097.36 429.457C1098.3 431.909 1098.75 434.647 1098.66 437.405C1098.69 440.462 1098.65 441.7 1100.45 442.421C1114.27 447.936 1110.41 483.241 1092.34 481.023C1088.9 479.867 1085.34 479.44 1081.8 479.757Z" fill="#0F2572"/>
<path d="M1104.02 504.176C1103.64 508.461 1108.95 508.501 1110.79 505.057C1111.71 503.351 1109.31 498.409 1108.64 487.95C1108.89 483.397 1108.87 478.824 1108.59 474.275C1107.74 469.656 1104.63 473.611 1105.1 483.345C1105.51 490.326 1105.14 497.353 1104.02 504.176Z" fill="white"/>
<path d="M1103.03 504.804C1104.26 497.727 1104.66 490.44 1104.22 483.2C1103.51 469.56 1110.58 464.145 1109.51 482.084C1109.07 488.302 1109.68 494.574 1111.29 500.442C1111.93 503.376 1112.32 505.133 1111.64 506.328C1111.63 506.365 1110.34 508.5 1109.22 508.663C1106.22 509.971 1102.64 508.967 1103.03 504.804ZM1107.42 472.5C1106.73 472.654 1105.12 476.018 1105.49 483.087C1105.95 490.431 1105.54 497.825 1104.28 504.999C1104.02 507.794 1106.9 507.909 1108.88 507.029C1108.94 507.004 1109 506.988 1109.06 506.982L1109.08 506.981C1109.7 506.605 1110.24 506.026 1110.64 505.298C1110.93 504.794 1110.54 503 1110.08 500.916C1109.08 496.728 1108.42 492.409 1108.12 488.034C1107.86 484.203 1109.23 472.372 1107.42 472.5Z" fill="#0F2572"/>
<path d="M348.815 237.05C349.599 238.44 350.336 239.86 351.181 241.219C351.642 241.96 352.272 242.593 352.856 243.256C353.9 244.461 354.914 245.696 356.005 246.854C359.001 250.019 362.427 252.504 366.621 253.832C368.418 254.403 370.216 254.959 372.028 255.515C374.763 256.349 377.59 256.796 380.432 256.966C382.614 257.105 384.78 257.29 386.961 257.275C388.62 257.275 390.28 256.997 392.123 256.827C391.401 255.237 389.665 254.419 390.172 252.365C391.862 253.4 393.291 254.481 394.305 256.132C393.506 257.151 392.523 257.862 391.417 258.371C387.361 260.27 383.105 261.521 378.727 262.339C376.622 262.74 374.563 263.296 372.474 263.759C369.002 264.516 365.545 264.377 362.135 263.435C361.367 263.234 360.614 262.956 359.892 262.632C354.93 260.394 350.321 257.537 346.157 254.048C342.516 251.007 339.044 247.765 335.495 244.6C335.403 244.522 335.357 244.399 335.296 244.306C335.296 244.198 335.265 244.09 335.311 244.044C336.678 242.623 337.907 241.033 339.459 239.86C341.656 238.177 344.083 236.803 346.403 235.305C346.726 235.105 347.018 234.873 347.432 234.595C347.893 235.413 348.354 236.232 348.815 237.05Z" fill="#F1645F"/>
<path d="M346.188 230.211C346.572 231.369 346.971 232.542 346.664 233.792C346.603 234.055 346.449 234.364 346.234 234.503C344.652 235.522 343.039 236.525 341.41 237.482C341.134 237.652 340.673 237.668 340.35 237.575C337.262 236.633 334.19 235.661 331.117 234.688C330.917 234.626 330.733 234.518 330.472 234.395C331.731 231.338 332.96 228.389 334.22 225.363C334.589 225.471 334.912 225.517 335.203 225.641C337.431 226.505 339.659 227.37 341.886 228.25C343.131 228.744 344.375 229.253 345.62 229.778C345.835 229.871 346.111 230.041 346.173 230.226L346.188 230.211Z" fill="#27306E"/>
<path d="M335.004 215.266C335.188 214.726 335.541 214.216 335.864 213.737C336.893 212.194 337.984 210.696 338.983 209.137C339.797 207.855 340.519 206.527 341.241 205.2C342.639 202.652 343.991 200.089 345.389 197.542C345.619 197.125 346.019 196.832 346.449 196.369C345.773 196.137 345.113 195.983 344.513 195.674C343.822 195.319 343.269 194.763 343.177 193.945C343.1 193.235 342.977 192.509 343.1 191.83C343.238 191.15 343.545 190.44 343.976 189.915C345.312 188.232 347.432 188.402 349.476 190.332C350.536 188.387 352.118 186.673 350.751 184.156C353.7 183.477 356.297 182.01 359.231 181.949C360.015 182.952 359.799 184.249 360.552 185.191C361.244 186.071 361.704 187.167 362.442 188.001C363.195 188.865 364.163 189.545 365.284 190.502C363.947 190.564 362.934 190.61 361.781 190.672C361.827 191.089 361.858 191.444 361.904 191.799C362.165 193.559 361.904 195.195 361.075 196.801C359.753 199.395 355.59 200.738 353.224 200.089C352.733 199.95 352.21 199.966 351.872 199.92C351.396 200.722 351.027 201.325 350.674 201.927C349.598 203.826 348.323 205.647 347.54 207.67C346.633 210.001 346.142 212.518 345.543 214.957C345.251 216.13 345.128 217.366 344.913 218.554C344.867 218.801 344.821 219.11 344.667 219.249C343.684 220.098 342.716 220.963 341.656 221.704C340.796 222.291 339.797 222.183 338.891 221.704C337.201 220.778 335.879 219.45 334.865 217.798C334.328 216.918 334.727 216.069 335.004 215.25V215.266Z" fill="#F1645F"/>
<path d="M321.791 223.464C320.931 220.963 318.995 219.28 316.983 217.751C313.557 215.142 309.808 213.058 305.875 211.344C304.462 210.727 302.972 210.264 301.435 209.692C301.021 211.838 300.591 213.861 300.222 215.883C299.73 218.662 299.269 221.457 298.839 224.236C298.148 228.698 297.456 233.159 296.258 237.513C296.074 238.208 295.843 238.903 295.521 239.52C295.06 240.385 294.261 240.601 293.508 240.045C291.849 238.81 290.251 237.498 289.806 235.29C289.76 235.089 289.76 234.889 289.744 234.688C291.281 234.688 291.772 236.108 292.94 236.957C293.001 236.51 293.109 236.232 293.047 236C291.695 230.72 290.973 225.332 290.436 219.913C290.128 216.81 289.637 213.722 289.345 210.619C289.053 207.423 288.915 204.227 288.7 201.016C288.638 199.966 288.577 198.916 288.5 197.851C288.316 194.964 288.746 192.123 289.068 189.282C289.13 188.757 289.314 188.201 289.56 187.723C290.005 186.858 290.466 186.009 291.035 185.222C291.357 184.758 291.803 184.264 292.31 184.079C293.877 183.477 295.49 183.384 297.103 183.987C299.008 184.681 300.744 185.608 302.388 186.858C304.093 188.155 305.86 189.359 307.427 190.826C310.515 193.728 313.649 196.585 316.491 199.765C318.027 201.479 319.902 202.868 321.576 204.459C322.667 205.493 323.681 206.62 324.741 207.701C325.002 207.979 325.233 208.287 325.54 208.504C327.046 209.569 328.167 210.974 329.319 212.379C329.642 212.765 330.011 213.104 330.364 213.459C331.286 214.37 332.223 215.281 333.145 216.208C333.667 216.732 333.836 217.319 333.559 218.045C333.083 219.311 332.699 220.608 332.161 221.843C331.47 223.433 330.702 224.977 329.918 226.505C329.673 226.984 329.335 227.432 328.966 227.818C327.921 228.914 327.092 229.037 325.847 228.142C324.142 226.907 322.513 225.61 321.776 223.464H321.791Z" fill="#F1645F"/>
<path d="M323.251 227.03C323.743 227.401 324.249 227.74 324.71 228.142C327.23 230.303 328.874 229.624 330.287 227.277C331.485 225.27 332.315 223.032 333.283 220.886C333.621 220.129 333.897 219.342 334.266 218.431C334.619 218.832 334.881 219.079 335.096 219.373C335.941 220.561 337.047 221.457 338.276 222.213C339.459 222.954 340.749 223.078 341.978 222.399C342.746 221.982 343.392 221.364 344.098 220.839C344.314 220.669 344.513 220.5 344.82 220.237C344.943 221.843 344.989 223.294 345.189 224.745C345.374 226.15 345.712 227.524 345.988 228.96C345.712 228.929 345.573 228.96 345.466 228.914C342.147 227.601 338.844 226.274 335.526 224.961C335.326 224.884 335.142 224.792 334.942 224.714C333.99 224.421 333.805 224.498 333.421 225.44C332.515 227.663 331.624 229.886 330.702 232.11C330.349 232.959 329.888 233.762 329.473 234.595C329.98 235.259 330.733 235.352 331.378 235.553C332.976 236.047 334.619 236.417 336.217 236.927C337.477 237.328 338.706 237.853 339.935 238.316C338.153 240.045 336.417 241.713 334.558 243.504C332.945 242.732 331.286 241.836 329.565 241.126C328.459 240.663 327.245 240.416 326.078 240.122C325.156 239.891 324.234 239.721 323.189 239.489C325.002 235.259 323.758 231.214 323.282 227.046L323.251 227.03Z" fill="#27306E"/>
<path d="M323.144 240.153C324.711 240.493 326.339 240.833 327.983 241.188C328.306 241.265 328.629 241.388 328.92 241.543C330.487 242.33 332.055 243.118 333.806 243.998C333.744 244.276 333.698 244.723 333.529 245.109C332.654 247.163 331.67 249.154 330.872 251.238C330.149 253.122 329.627 255.067 328.967 257.136C324.066 256.827 319.18 256.179 314.095 255.669C317.199 250.343 320.164 245.264 323.144 240.153Z" fill="#F1645F"/>
<path d="M245.975 297.818C245.177 298.713 244.47 299.763 243.287 300.319C243.01 300.442 242.488 300.55 242.381 300.427C242.15 300.149 241.92 299.639 242.027 299.331C242.596 297.555 243.471 295.934 244.823 294.622C244.977 294.467 245.284 294.375 245.499 294.421C246.267 294.56 247.02 294.776 248.08 295.039C247.112 295.764 246.36 296.32 245.53 296.938C245.653 297.185 245.791 297.462 245.991 297.833L245.975 297.818Z" fill="#F78F43"/>
<path d="M314.049 296.428C311.837 300.103 309.717 303.854 307.335 307.421C305.154 310.663 303.234 314.09 300.637 317.054C299.224 318.66 297.672 320.034 295.859 321.115C293.847 322.304 291.604 322.443 289.391 322.026C285.075 321.223 280.957 319.818 277.117 317.626C275.519 316.715 273.844 315.897 272.231 315.016C271.601 314.677 270.987 314.306 270.418 313.874C267.914 312.037 265.441 310.138 262.921 308.347C261.416 307.282 259.833 306.324 258.266 305.352C255.485 303.623 252.689 301.924 250.216 299.747C249.617 299.223 248.941 298.79 248.296 298.312C247.958 298.065 247.62 297.848 247.22 297.586C247.789 296.799 248.311 296.104 248.879 295.332C249.832 295.687 250.754 296.058 251.691 296.397C253.304 296.984 254.917 297.555 256.53 298.142C256.807 298.234 257.099 298.296 257.375 298.404C259.833 299.377 262.276 300.365 264.734 301.322C265.318 301.554 265.917 301.754 266.516 301.94C269.327 302.789 272.139 303.623 274.95 304.472C276.425 304.919 277.931 305.321 279.359 305.877C280.973 306.51 282.663 306.463 284.322 306.463C285.658 306.463 286.995 306.309 288.316 306.124C288.777 306.062 289.284 305.784 289.591 305.429C290.236 304.719 290.82 303.947 291.343 303.129C292.341 301.569 293.202 299.917 294.262 298.42C295.982 296.011 297.242 293.34 298.64 290.747C298.87 290.314 299.086 289.851 299.347 289.326C304.324 291.704 309.609 293.047 314.863 294.869C314.556 295.471 314.326 295.965 314.049 296.428Z" fill="#F1645F"/>
<path d="M315.401 294.066C312.881 293.804 301.175 289.681 299.777 288.585C300.699 287.041 301.651 285.513 302.527 283.938C303.633 281.946 304.632 279.909 305.738 277.917C306.844 275.925 307.996 273.98 309.24 271.834C309.624 272.266 309.87 272.513 310.085 272.791C311.007 274.042 312.19 274.937 313.604 275.57C314.909 276.157 316.123 276.913 317.414 277.5C319.119 278.287 320.87 278.982 322.791 279.785C320.901 284.895 317.583 289.218 315.386 294.051L315.401 294.066Z" fill="#27306E"/>
<path d="M338.215 282.95C337.186 282.687 336.172 282.471 335.173 282.193C332.254 281.406 329.366 280.541 326.431 279.8C322.668 278.859 318.98 277.762 315.647 275.709C315.216 275.447 314.771 275.2 314.295 275.03C312.62 274.412 311.437 273.239 310.285 271.896C309.179 270.599 308.933 269.256 309.286 267.696C309.317 267.526 309.348 267.357 309.348 267.187C309.302 263.157 311.391 259.977 313.358 256.735C313.634 256.287 313.957 256.241 314.418 256.302C317.951 256.735 321.485 257.167 325.033 257.568C326.155 257.692 327.292 257.692 328.413 257.815C328.89 257.862 329.381 258.001 329.811 258.201C330.902 258.726 331.977 259.297 333.053 259.853C334.128 260.409 335.219 260.98 336.31 261.505C337.17 261.922 338.046 262.324 338.952 262.663C340.519 263.25 342.117 263.759 343.684 264.686C343.392 265.674 343.131 266.646 342.824 267.604C342.532 268.53 342.163 269.425 341.902 270.352C341.487 271.772 341.149 273.192 340.765 274.613C340.719 274.783 340.704 274.953 340.627 275.091C339.413 277.222 339.121 279.631 338.568 281.962C338.507 282.24 338.368 282.502 338.199 282.919L338.215 282.95Z" fill="#27306E"/>
<path d="M400.204 331.088C398.053 327.368 395.933 323.631 393.767 319.926C392.384 317.564 391.017 315.186 389.527 312.886C388.436 311.188 387.161 309.613 385.978 307.976C385.701 307.606 385.425 307.235 385.179 306.849C384.15 305.259 383.197 303.623 382.091 302.079C379.833 298.914 377.067 296.212 374.118 293.68C372.981 292.707 371.644 292.167 370.262 291.611C366.421 290.083 362.334 289.434 358.417 288.199C355.697 287.35 353.009 286.393 350.274 285.559C348.799 285.111 347.263 284.833 345.742 284.478C343.576 283.984 341.41 283.49 339.105 282.95C339.766 280.372 339.981 277.824 341.241 275.57C341.425 275.246 341.502 274.86 341.564 274.489C342.04 271.247 343.545 268.329 344.36 265.025C345.22 265.334 346.034 265.519 346.756 265.89C349.122 267.141 351.718 267.696 354.223 268.53C356.527 269.287 358.924 269.781 361.243 270.522C364.439 271.541 367.65 272.544 370.63 274.134C372.366 275.061 374.194 275.833 375.93 276.774C378.22 278.01 380.539 279.198 382.383 281.113C383.136 281.9 384.104 282.487 384.826 283.29C387.314 286.069 389.158 289.28 390.679 292.692C391.37 294.267 392.123 295.826 392.784 297.416C393.751 299.794 394.673 302.202 395.595 304.595C396.117 305.938 396.517 307.313 397.101 308.625C398.591 312.006 399.052 315.68 400.127 319.185C401.187 322.643 402.216 326.117 403.261 329.591C403.461 330.27 403.707 330.949 403.906 331.644C404.398 333.25 404.874 334.871 405.35 336.477C405.473 336.878 405.55 337.279 405.658 337.789C405.197 337.882 404.813 337.959 404.29 338.067C402.908 335.72 401.54 333.404 400.189 331.088H400.204Z" fill="#F1645F"/>
<path d="M407.394 343.532C406.38 342.019 405.35 340.614 404.936 338.823C406.487 338.221 406.042 339.997 406.794 340.305C407.532 339.95 406.856 339.41 407.01 338.947C408.853 338.792 410.712 338.623 412.586 338.515C413.139 338.484 413.662 338.715 414 339.348C412.371 341.602 409.882 342.482 407.394 343.517V343.532Z" fill="#F78F43"/>
<path d="M358.217 187.352C356.819 186.982 356.297 186.163 356.696 185.021C356.896 184.419 357.372 184.28 357.848 184.681C358.494 185.206 358.678 186.395 358.217 187.352Z" fill="#F1645F"/>
<path d="M338.829 157.432C339.183 157.061 339.521 156.66 339.889 156.305C340.642 155.594 341.38 154.884 342.179 154.22C343.008 153.526 343.961 153.078 345.036 152.908C346.081 152.738 347.125 152.491 348.155 152.291C348.739 152.182 349.276 152.291 349.783 152.615C350.582 153.124 351.442 153.541 351.796 154.575C352.241 155.872 352.472 157.154 352.057 158.497C351.965 158.821 351.811 159.115 351.734 159.439C351.673 159.763 351.688 160.118 351.642 160.689C352.502 160.133 353.148 159.686 353.808 159.284C354.807 158.698 355.821 158.111 356.835 157.555C357.557 157.169 358.34 157.077 359.155 157.123C360.414 157.2 361.659 157.37 362.857 157.849C364.009 158.296 364.593 159.192 364.731 160.35C364.931 162.032 364.547 163.592 363.548 164.997C362.642 166.247 361.567 167.297 360.338 168.254C359.062 169.258 357.926 170.447 356.727 171.558C356.666 171.62 356.666 171.728 356.604 171.898C356.819 171.929 356.988 171.991 357.173 171.991C358.11 171.991 359.032 171.944 359.969 171.991C361.305 172.037 361.966 172.608 362.258 173.92C362.519 175.156 362.258 176.298 361.659 177.394C360.967 178.645 359.523 180.358 358.248 181.439C357.91 181.069 357.572 180.667 357.204 180.297C356.481 179.556 355.683 178.907 354.638 178.645C352.917 178.197 351.35 178.49 350.183 179.864C349.138 181.1 347.924 182.196 347.172 183.693C346.618 184.82 346.373 186.025 346.111 187.229C346.065 187.46 346.035 187.676 345.973 187.954C345.512 187.831 345.082 187.676 344.637 187.599C343.915 187.476 343.331 187.723 343.07 188.387C342.732 189.251 342.394 190.147 342.271 191.058C342.025 192.71 342.563 194.161 343.868 195.442C342.686 196.013 341.61 196.569 340.504 197.048C340.074 197.233 339.736 197.048 339.567 196.585C339.29 195.89 339.336 195.211 339.567 194.531C339.69 194.161 339.813 193.806 339.966 193.312C339.598 193.312 339.367 193.281 339.152 193.312C336.94 193.651 334.712 193.482 332.485 193.389C331.194 193.327 330.073 192.679 329.12 191.799C328.367 191.088 328.29 190.625 328.705 189.653C329.35 188.109 330.426 186.982 331.916 186.241C332.239 186.086 332.531 185.901 333.022 185.639C332.346 185.16 331.809 184.82 331.302 184.419C330.487 183.786 329.658 183.168 328.92 182.458C327.814 181.408 326.708 180.328 325.725 179.17C323.405 176.468 322.545 173.303 323.006 169.752C323.589 165.167 325.202 160.967 327.799 157.154C328.89 155.564 330.38 154.467 332.054 153.618C333.36 152.954 334.804 152.846 336.233 153.14C337.6 153.418 338.338 154.344 338.43 155.749C338.461 156.274 338.476 156.799 338.491 157.308C338.584 157.354 338.676 157.385 338.783 157.432H338.829Z" fill="#F78F43"/>
<path d="M359.216 181.949C359.216 181.949 354.5 176.082 352.195 178.074C352.195 178.074 345.143 182.057 345.973 187.352L346.373 188.757C346.373 188.757 343.423 186.457 342.701 187.785C342.701 187.785 338.845 194.778 346.449 196.353H354.5L355.268 190.764L359.216 181.949Z" fill="#F1645F"/>
<defs>
<filter id="filter0_d_1065_13769" x="-136" y="235.25" width="1554" height="290" filterUnits="userSpaceOnUse" color-interpolation-filters="sRGB">
<feFlood flood-opacity="0" result="BackgroundImageFix"/>
<feColorMatrix in="SourceAlpha" type="matrix" values="0 0 0 0 0 0 0 0 0 0 0 0 0 0 0 0 0 0 127 0" result="hardAlpha"/>
<feOffset dy="-8"/>
<feGaussianBlur stdDeviation="2"/>
<feComposite in2="hardAlpha" operator="out"/>
<feColorMatrix type="matrix" values="0 0 0 0 0 0 0 0 0 0 0 0 0 0 0 0 0 0 0.25 0"/>
<feBlend mode="normal" in2="BackgroundImageFix" result="effect1_dropShadow_1065_13769"/>
<feBlend mode="normal" in="SourceGraphic" in2="effect1_dropShadow_1065_13769" result="shape"/>
</filter>
</defs>
</svg>
