<?xml version="1.0" encoding="UTF-8"?>
<!DOCTYPE svg PUBLIC "-//W3C//DTD SVG 1.1//EN" "http://www.w3.org/Graphics/SVG/1.1/DTD/svg11.dtd">
<!-- Creator: CorelDRAW (Evaluation Version) -->
<svg xmlns="http://www.w3.org/2000/svg" xml:space="preserve" width="4.4122in" height="2.51439in" version="1.1" style="shape-rendering:geometricPrecision; text-rendering:geometricPrecision; image-rendering:optimizeQuality; fill-rule:evenodd; clip-rule:evenodd"
viewBox="0 0 4541.79 2588.24"
 xmlns:xlink="http://www.w3.org/1999/xlink"
 xmlns:xodm="http://www.corel.com/coreldraw/odm/2003">
 <defs>
  <style type="text/css">
   <![CDATA[
    .fil0 {fill:#0D2D65;fill-rule:nonzero}
    .fil1 {fill:white;fill-rule:nonzero}
   ]]>
  </style>
 </defs>
 <g id="Слой_x0020_1">
  <metadata id="CorelCorpID_0Corel-Layer"/>
  <path class="fil0" d="M1365.95 501.5l0 322.57c0,16.81 -5.25,30.67 -15.74,41.59 -10.52,10.93 -24.58,16.38 -42.22,16.38l-326.34 0 0 -289.82 132.3 0 0 163.81 119.69 0 0 -289.81 -119.69 0 0 -126 119.69 0 0 -214.21 -119.69 0 0 126 -132.3 0 0 -252.01 326.34 0c17.64,0 31.7,5.48 42.22,16.38 10.49,10.94 15.74,24.79 15.74,41.59l0 246.96c0,50.39 -21.42,83.16 -64.27,98.29 42.85,15.11 64.27,47.87 64.27,98.28z"/>
  <path class="fil0" d="M1699.83 126.01l-126 0 0 340.21 126 0 0 -340.21zm-258.3 -126.01l390.62 0 0 882.04 -132.31 0 0 -289.81 -126 0 0 289.81 -132.3 0 0 -882.04z"/>
  <path class="fil0" d="M2040.05 756.03l119.71 0 0 -302.42 -119.71 0 0 302.42zm0 -428.4l194.04 0c17.66,0 31.71,5.46 42.22,16.37 10.49,10.93 15.75,24.79 15.75,41.59l0 438.48c0,16.81 -5.26,30.67 -15.75,41.59 -10.51,10.92 -24.56,16.38 -42.22,16.38l-326.35 0 0 -882.04 371.72 0 0 126.01 -239.4 0 0 201.61z"/>
  <polygon class="fil0" points="2361.33,882.04 2361.33,0.01 2688.96,0.01 2688.96,126.02 2493.65,126.02 2493.65,340.21 2682.64,340.21 2682.64,466.23 2493.65,466.23 2493.65,756.04 2688.96,756.04 2688.96,882.04 "/>
  <polygon class="fil0" points="2758.23,0 3073.25,0 3073.25,126.02 2890.55,126.02 2890.55,882.03 2758.23,882.03 "/>
  <path class="fil0" d="M2588.78 2078.46l-326.35 0c-17.63,0 -31.71,-5.45 -42.2,-16.38 -10.52,-10.89 -15.76,-24.76 -15.76,-41.57l0 -766.09c0,-16.81 5.24,-30.67 15.76,-41.59 10.49,-10.91 24.58,-16.38 42.2,-16.38l326.35 0 0 252.01 -132.31 0 0 -126 -119.69 0 0 630.02 119.69 0 0 -163.81 132.31 0 0 289.81z"/>
  <polygon class="fil0" points="2632.87,1322.44 2632.87,1196.45 3017.16,1196.45 3017.16,1322.44 2891.17,1322.44 2891.17,2078.46 2758.86,2078.46 2758.86,1322.44 "/>
  <path class="fil0" d="M3325.87 1322.44l-126 0 0 340.22 126 0 0 -340.22zm-258.31 -126l390.62 0 0 882.03 -132.31 0 0 -289.81 -126 0 0 289.81 -132.31 0 0 -882.03z"/>
  <path class="fil0" d="M3666.08 1662.66l126 0 0 -340.22 -126 0 0 340.22zm200.34 126l-200.34 0 0 289.81 -132.3 0 0 -882.03 332.64 0c17.65,0 31.71,5.48 42.22,16.38 10.49,10.92 15.75,24.78 15.75,41.59l0 476.29c0,16.81 -5.26,30.68 -15.75,41.59 -10.51,10.92 -24.58,16.37 -42.22,16.37z"/>
  <polygon class="fil0" points="3968.49,1322.44 3968.49,1196.45 4352.78,1196.45 4352.78,1322.44 4226.78,1322.44 4226.78,2078.46 4094.48,2078.46 4094.48,1322.44 "/>
  <path class="fil0" d="M4415.8 1952.47l126 0 0 126 -126 0 0 -126zm100.79 -107.11l-75.6 0 -25.19 -308.71 0 -340.21 126 0 0 340.21 -25.21 308.71z"/>
  <polygon class="fil0" points="769.38,2290.75 769.45,2290.64 769.38,2290.64 769.38,2277.6 769.32,2277.6 769.32,1322.08 -0,1322.08 628.93,1955.16 -0,2588.24 1257.85,2588.24 1257.85,2587.55 1257.77,2587.67 "/>
  <polygon class="fil0" points="808.68,2290.64 1257.85,2563.7 1257.85,2290.64 "/>
  <polygon class="fil0" points="1263.55,2270.13 2047.68,2270.13 2047.68,1003.97 789.83,1003.97 789.83,1322.09 789.83,2270.13 1257.85,2270.13 "/>
  <polygon class="fil1" points="1256.91,1196.08 1389.23,1196.08 1389.23,2078.11 1256.91,2078.11 1256.91,1662.3 1112.02,1662.3 1112.02,2078.11 979.71,2078.11 979.71,1196.08 1112.02,1196.08 1112.02,1536.29 1256.91,1536.29 "/>
  <path class="fil1" d="M1698.46 1322.08l-126 0 0 340.22 126 0 0 -340.22zm-258.32 -126l390.62 0 0 882.03 -132.3 0 0 -289.81 -126 0 0 289.81 -132.32 0 0 -882.03z"/>
 </g>
</svg>
