<?xml version="1.0" encoding="UTF-8"?>
<!DOCTYPE svg PUBLIC "-//W3C//DTD SVG 1.1//EN" "http://www.w3.org/Graphics/SVG/1.1/DTD/svg11.dtd">
<!-- Creator: CorelDRAW (Evaluation Version) -->
<svg xmlns="http://www.w3.org/2000/svg" xml:space="preserve" width="4.41221in" height="2.51439in" version="1.1" style="shape-rendering:geometricPrecision; text-rendering:geometricPrecision; image-rendering:optimizeQuality; fill-rule:evenodd; clip-rule:evenodd"
viewBox="0 0 4498.66 2563.66"
 xmlns:xlink="http://www.w3.org/1999/xlink"
 xmlns:xodm="http://www.corel.com/coreldraw/odm/2003">
 <defs>
  <style type="text/css">
   <![CDATA[
    .fil0 {fill:#E95D57;fill-rule:nonzero}
    .fil1 {fill:white;fill-rule:nonzero}
   ]]>
  </style>
 </defs>
 <g id="Слой_x0020_1">
  <metadata id="CorelCorpID_0Corel-Layer"/>
  <path class="fil0" d="M1352.97 496.74l0 319.5c0,16.65 -5.2,30.38 -15.59,41.19 -10.42,10.82 -24.35,16.23 -41.82,16.23l-323.24 0 0 -287.07 131.05 0 0 162.26 118.56 0 0 -287.06 -118.56 0 0 -124.8 118.56 0 0 -212.17 -118.56 0 0 124.8 -131.05 0 0 -249.62 323.24 0c17.47,0 31.39,5.42 41.82,16.23 10.39,10.83 15.59,24.55 15.59,41.19l0 244.62c0,49.92 -21.21,82.37 -63.66,97.36 42.44,14.97 63.66,47.41 63.66,97.34z"/>
  <path class="fil0" d="M1683.69 124.82l-124.8 0 0 336.98 124.8 0 0 -336.98zm-255.85 -124.81l386.91 0 0 873.65 -131.06 0 0 -287.06 -124.8 0 0 287.06 -131.05 0 0 -873.65z"/>
  <path class="fil0" d="M2020.68 748.85l118.57 0 0 -299.55 -118.57 0 0 299.55zm0 -424.35l192.19 0c17.48,0 31.39,5.42 41.82,16.23 10.39,10.82 15.59,24.56 15.59,41.18l0 434.33c0,16.65 -5.2,30.38 -15.59,41.19 -10.42,10.82 -24.34,16.21 -41.82,16.21l-323.25 0 0 -873.65 368.19 0 0 124.81 -237.13 0 0 199.69z"/>
  <polygon class="fil0" points="2338.91,873.66 2338.91,0.01 2663.42,0.01 2663.42,124.82 2469.97,124.82 2469.97,336.98 2657.16,336.98 2657.16,461.8 2469.97,461.8 2469.97,748.86 2663.42,748.86 2663.42,873.66 "/>
  <polygon class="fil0" points="2732.04,0 3044.06,0 3044.06,124.82 2863.1,124.82 2863.1,873.66 2732.04,873.66 "/>
  <path class="fil0" d="M2564.19 2058.72l-323.26 0c-17.46,0 -31.41,-5.4 -41.8,-16.23 -10.42,-10.79 -15.6,-24.53 -15.6,-41.18l0 -758.82c0,-16.65 5.18,-30.36 15.6,-41.2 10.4,-10.8 24.35,-16.23 41.8,-16.23l323.26 0 0 249.62 -131.05 0 0 -124.8 -118.57 0 0 624.04 118.57 0 0 -162.26 131.05 0 0 287.06z"/>
  <polygon class="fil0" points="2607.86,1309.89 2607.86,1185.09 2988.51,1185.09 2988.51,1309.89 2863.71,1309.89 2863.71,2058.72 2732.66,2058.72 2732.66,1309.89 "/>
  <path class="fil0" d="M3294.3 1309.89l-124.8 0 0 336.99 124.8 0 0 -336.99zm-255.86 -124.8l386.91 0 0 873.64 -131.05 0 0 -287.04 -124.8 0 0 287.04 -131.06 0 0 -873.64z"/>
  <path class="fil0" d="M3631.27 1646.87l124.8 0 0 -336.99 -124.8 0 0 336.99zm198.44 124.8l-198.44 0 0 287.04 -131.05 0 0 -873.64 329.48 0c17.48,0 31.41,5.42 41.8,16.23 10.4,10.82 15.62,24.54 15.62,41.18l0 471.76c0,16.67 -5.22,30.4 -15.62,41.2 -10.39,10.83 -24.33,16.23 -41.8,16.23z"/>
  <polygon class="fil0" points="3930.8,1309.89 3930.8,1185.09 4311.44,1185.09 4311.44,1309.89 4186.64,1309.89 4186.64,2058.72 4055.6,2058.72 4055.6,1309.89 "/>
  <path class="fil0" d="M4373.86 1933.92l124.8 0 0 124.8 -124.8 0 0 -124.8zm99.84 -106.08l-74.88 0 -24.95 -305.78 0 -336.98 124.8 0 0 336.98 -24.96 305.78z"/>
  <polygon class="fil0" points="762.07,2268.99 762.15,2268.88 762.07,2268.88 762.07,2255.96 762.02,2255.96 762.02,1309.53 -0,1309.53 622.96,1936.59 -0,2563.66 1245.9,2563.66 1245.9,2562.98 1245.83,2563.09 "/>
  <polygon class="fil0" points="801,2268.89 1245.9,2539.35 1245.9,2268.89 "/>
  <polygon class="fil0" points="1251.55,2248.57 2028.23,2248.57 2028.23,994.44 782.33,994.44 782.33,1309.54 782.33,2248.57 1245.9,2248.57 "/>
  <polygon class="fil1" points="1244.98,1184.72 1376.03,1184.72 1376.03,2058.37 1244.98,2058.37 1244.98,1646.51 1101.45,1646.51 1101.45,2058.37 970.41,2058.37 970.41,1184.72 1101.45,1184.72 1101.45,1521.7 1244.98,1521.7 "/>
  <path class="fil1" d="M1682.33 1309.53l-124.8 0 0 336.99 124.8 0 0 -336.99zm-255.86 -124.8l386.91 0 0 873.64 -131.05 0 0 -287.04 -124.8 0 0 287.04 -131.06 0 0 -873.64z"/>
 </g>
</svg>
