<?xml version="1.0" encoding="UTF-8"?>
<!DOCTYPE svg PUBLIC "-//W3C//DTD SVG 1.1//EN" "http://www.w3.org/Graphics/SVG/1.1/DTD/svg11.dtd">
<!-- Creator: CorelDRAW (Evaluation Version) -->
<svg xmlns="http://www.w3.org/2000/svg" xml:space="preserve" width="4.41221in" height="2.51439in" version="1.1" style="shape-rendering:geometricPrecision; text-rendering:geometricPrecision; image-rendering:optimizeQuality; fill-rule:evenodd; clip-rule:evenodd"
viewBox="0 0 4456.34 2539.54"
 xmlns:xlink="http://www.w3.org/1999/xlink"
 xmlns:xodm="http://www.corel.com/coreldraw/odm/2003">
 <defs>
  <style type="text/css">
   <![CDATA[
    .fil0 {fill:#70C0E7;fill-rule:nonzero}
    .fil1 {fill:white;fill-rule:nonzero}
   ]]>
  </style>
 </defs>
 <g id="Слой_x0020_1">
  <metadata id="CorelCorpID_0Corel-Layer"/>
  <path class="fil0" d="M1340.24 492.07l0 316.5c0,16.49 -5.15,30.09 -15.44,40.81 -10.32,10.72 -24.11,16.08 -41.43,16.08l-320.2 0 0 -284.37 129.81 0 0 160.73 117.44 0 0 -284.36 -117.44 0 0 -123.63 117.44 0 0 -210.18 -117.44 0 0 123.63 -129.81 0 0 -247.27 320.2 0c17.31,0 31.1,5.39 41.43,16.08 10.29,10.73 15.44,24.32 15.44,40.81l0 242.31c0,49.45 -21.02,81.6 -63.05,96.44 42.04,14.83 63.05,46.97 63.05,96.43z"/>
  <path class="fil0" d="M1667.85 123.64l-123.63 0 0 333.81 123.63 0 0 -333.81zm-253.44 -123.63l383.26 0 0 865.43 -129.82 0 0 -284.36 -123.63 0 0 284.36 -129.81 0 0 -865.43z"/>
  <path class="fil0" d="M2001.67 741.81l117.46 0 0 -296.73 -117.46 0 0 296.73zm0 -420.36l190.39 0c17.31,0 31.1,5.37 41.43,16.07 10.29,10.72 15.44,24.31 15.44,40.79l0 430.23c0,16.51 -5.15,30.11 -15.44,40.81 -10.32,10.73 -24.11,16.08 -41.43,16.08l-320.21 0 0 -865.43 364.72 0 0 123.63 -234.9 0 0 197.82z"/>
  <polygon class="fil0" points="2316.9,865.44 2316.9,0.01 2638.36,0.01 2638.36,123.65 2446.73,123.65 2446.73,333.81 2632.16,333.81 2632.16,457.46 2446.73,457.46 2446.73,741.81 2638.36,741.81 2638.36,865.44 "/>
  <polygon class="fil0" points="2706.34,0.01 3015.42,0.01 3015.42,123.65 2836.16,123.65 2836.16,865.44 2706.34,865.44 "/>
  <path class="fil0" d="M2540.07 2039.36l-320.21 0c-17.29,0 -31.11,-5.34 -41.41,-16.08 -10.32,-10.69 -15.46,-24.3 -15.46,-40.79l0 -751.68c0,-16.49 5.13,-30.09 15.46,-40.81 10.3,-10.7 24.12,-16.08 41.41,-16.08l320.21 0 0 247.27 -129.81 0 0 -123.63 -117.45 0 0 618.16 117.45 0 0 -160.73 129.81 0 0 284.36z"/>
  <polygon class="fil0" points="2583.33,1297.56 2583.33,1173.94 2960.39,1173.94 2960.39,1297.56 2836.77,1297.56 2836.77,2039.35 2706.96,2039.35 2706.96,1297.56 "/>
  <path class="fil0" d="M3263.31 1297.57l-123.63 0 0 333.82 123.63 0 0 -333.82zm-253.45 -123.63l383.27 0 0 865.42 -129.81 0 0 -284.34 -123.64 0 0 284.34 -129.81 0 0 -865.42z"/>
  <path class="fil0" d="M3597.1 1631.37l123.63 0 0 -333.82 -123.63 0 0 333.82zm196.58 123.64l-196.58 0 0 284.34 -129.8 0 0 -865.42 326.38 0c17.31,0 31.1,5.37 41.41,16.06 10.3,10.73 15.46,24.33 15.46,40.81l0 467.32c0,16.5 -5.16,30.11 -15.46,40.81 -10.31,10.72 -24.1,16.08 -41.41,16.08z"/>
  <polygon class="fil0" points="3893.82,1297.56 3893.82,1173.94 4270.88,1173.94 4270.88,1297.56 4147.25,1297.56 4147.25,2039.35 4017.44,2039.35 4017.44,1297.56 "/>
  <path class="fil0" d="M4332.7 1915.73l123.63 0 0 123.63 -123.63 0 0 -123.63zm98.91 -105.1l-74.2 0 -24.72 -302.9 0 -333.79 123.64 0 0 333.79 -24.73 302.9z"/>
  <polygon class="fil0" points="754.91,2247.65 754.98,2247.54 754.91,2247.54 754.91,2234.74 754.85,2234.74 754.85,1297.21 -0,1297.21 617.1,1918.38 -0,2539.54 1234.18,2539.54 1234.18,2538.87 1234.11,2538.98 "/>
  <polygon class="fil0" points="793.47,2247.54 1234.18,2515.46 1234.18,2247.54 "/>
  <polygon class="fil0" points="1239.78,2227.42 2009.15,2227.42 2009.15,985.09 774.97,985.09 774.97,1297.22 774.97,2227.42 1234.18,2227.42 "/>
  <polygon class="fil1" points="1233.26,1173.58 1363.09,1173.58 1363.09,2039.01 1233.26,2039.01 1233.26,1631.03 1091.09,1631.03 1091.09,2039.01 961.26,2039.01 961.26,1173.58 1091.09,1173.58 1091.09,1507.38 1233.26,1507.38 "/>
  <path class="fil1" d="M1666.51 1297.22l-123.63 0 0 333.82 123.63 0 0 -333.82zm-253.45 -123.64l383.26 0 0 865.43 -129.8 0 0 -284.36 -123.64 0 0 284.36 -129.81 0 0 -865.43z"/>
 </g>
</svg>
