<?xml version="1.0" encoding="UTF-8"?>
<!DOCTYPE svg PUBLIC "-//W3C//DTD SVG 1.1//EN" "http://www.w3.org/Graphics/SVG/1.1/DTD/svg11.dtd">
<!-- Creator: CorelDRAW (Evaluation Version) -->
<svg xmlns="http://www.w3.org/2000/svg" xml:space="preserve" width="7.1308in" height="4.06364in" version="1.1" style="shape-rendering:geometricPrecision; text-rendering:geometricPrecision; image-rendering:optimizeQuality; fill-rule:evenodd; clip-rule:evenodd"
viewBox="0 0 3854.17 2196.38"
 xmlns:xlink="http://www.w3.org/1999/xlink"
 xmlns:xodm="http://www.corel.com/coreldraw/odm/2003">
 <defs>
  <style type="text/css">
   <![CDATA[
    .fil3 {fill:#003E7D;fill-rule:nonzero}
    .fil1 {fill:#0D2D65;fill-rule:nonzero}
    .fil2 {fill:#395DA3;fill-rule:nonzero}
    .fil0 {fill:#E95D57;fill-rule:nonzero}
    .fil4 {fill:white;fill-rule:nonzero}
   ]]>
  </style>
 </defs>
 <g id="Слой_x0020_1">
  <metadata id="CorelCorpID_0Corel-Layer"/>
  <path class="fil0" d="M1159.14 425.57l0 273.73c0,14.27 -4.46,26.03 -13.36,35.29 -8.92,9.27 -20.85,13.9 -35.82,13.9l-276.94 0 0 -245.93 112.27 0 0 139.01 101.57 0 0 -245.93 -101.57 0 0 -106.94 101.57 0 0 -181.76 -101.57 0 0 106.92 -112.27 0 0 -213.86 276.94 0c14.97,0 26.89,4.65 35.82,13.9 8.9,9.27 13.36,21.03 13.36,35.29l0 209.57c0,42.77 -18.18,70.57 -54.54,83.41 36.36,12.83 54.54,40.63 54.54,83.4z"/>
  <path class="fil0" d="M1442.48 106.93l-106.93 0 0 288.7 106.93 0 0 -288.7zm-219.2 -106.93l331.48 0 0 748.49 -112.28 0 0 -245.93 -106.93 0 0 245.93 -112.27 0 0 -748.49z"/>
  <path class="fil0" d="M1731.18 641.56l101.58 0 0 -256.63 -101.58 0 0 256.63zm0 -363.55l164.66 0c14.98,0 26.9,4.64 35.83,13.9 8.9,9.27 13.36,21.03 13.36,35.28l0 372.1c0,14.27 -4.46,26.03 -13.36,35.29 -8.93,9.28 -20.85,13.9 -35.83,13.9l-276.94 0 0 -748.49 315.45 0 0 106.93 -203.17 0 0 171.08z"/>
  <polygon class="fil0" points="2003.83,748.49 2003.83,0 2281.84,0 2281.84,106.93 2116.11,106.93 2116.11,288.7 2276.49,288.7 2276.49,395.63 2116.11,395.63 2116.11,641.56 2281.84,641.56 2281.84,748.49 "/>
  <polygon class="fil0" points="2340.63,0 2607.95,0 2607.95,106.93 2452.91,106.93 2452.91,748.49 2340.63,748.49 "/>
  <path class="fil1" d="M2196.84 1763.78l-276.94 0c-14.96,0 -26.91,-4.62 -35.82,-13.9 -8.93,-9.25 -13.37,-21.02 -13.37,-35.27l0 -650.12c0,-14.26 4.44,-26.01 13.37,-35.29 8.9,-9.25 20.85,-13.9 35.82,-13.9l276.94 0 0 213.85 -112.27 0 0 -106.93 -101.57 0 0 534.63 101.57 0 0 -139 112.27 0 0 245.93z"/>
  <polygon class="fil1" points="2234.25,1122.22 2234.25,1015.3 2560.37,1015.3 2560.37,1122.22 2453.44,1122.22 2453.44,1763.78 2341.18,1763.78 2341.18,1122.22 "/>
  <path class="fil1" d="M2822.34 1122.22l-106.93 0 0 288.71 106.93 0 0 -288.71zm-219.2 -106.92l331.47 0 0 748.48 -112.27 0 0 -245.93 -106.92 0 0 245.93 -112.28 0 0 -748.48z"/>
  <path class="fil1" d="M3111.04 1410.93l106.93 0 0 -288.71 -106.93 0 0 288.71zm170.02 106.93l-170.02 0 0 245.93 -112.27 0 0 -748.48 282.29 0c14.97,0 26.91,4.65 35.82,13.9 8.9,9.28 13.38,21.03 13.38,35.29l0 404.18c0,14.27 -4.48,26.04 -13.38,35.29 -8.91,9.27 -20.85,13.9 -35.82,13.9z"/>
  <polygon class="fil1" points="3367.65,1122.22 3367.65,1015.3 3693.78,1015.3 3693.78,1122.22 3586.85,1122.22 3586.85,1763.78 3474.58,1763.78 3474.58,1122.22 "/>
  <path class="fil1" d="M3747.24 1656.86l106.93 0 0 106.93 -106.93 0 0 -106.93zm85.54 -90.89l-64.16 0 -21.38 -261.97 0 -288.69 106.93 0 0 288.69 -21.39 261.97z"/>
  <polygon class="fil2" points="-0,1121.92 1067.4,1121.92 1067.4,2196.38 -0,2196.38 533.7,1659.15 "/>
  <polygon class="fil3" points="1067.4,2196.38 670.25,1926.43 1067.4,1926.43 "/>
  <polygon class="fil1" points="1737.65,1926.43 670.25,1926.43 670.25,851.97 1737.65,851.97 "/>
  <polygon class="fil4" points="1066.61,1014.99 1178.89,1014.99 1178.89,1763.48 1066.61,1763.48 1066.61,1410.63 943.66,1410.63 943.66,1763.48 831.38,1763.48 831.38,1014.99 943.66,1014.99 943.66,1303.69 1066.61,1303.69 "/>
  <path class="fil4" d="M1441.31 1121.92l-106.93 0 0 288.71 106.93 0 0 -288.71zm-219.21 -106.92l331.47 0 0 748.48 -112.27 0 0 -245.93 -106.93 0 0 245.93 -112.28 0 0 -748.48z"/>
 </g>
</svg>
