<svg width="480" height="322" viewBox="0 0 480 322" fill="none" xmlns="http://www.w3.org/2000/svg">
<g clip-path="url(#clip0_1619_114)">
<rect x="41" width="398" height="321" fill="#0F2572"/>
<path d="M93.7546 161.328C93.1428 159.451 90.905 157.542 88.7316 157.866C87.7334 158.011 87.2987 158.351 87.1538 159.37C87.0572 160.034 87.0894 160.729 87.0089 161.393C86.8962 162.283 86.7996 163.189 86.5581 164.046C85.9625 166.052 84.6101 167.508 82.9197 168.657C81.8893 169.369 80.8268 170.032 79.732 170.663C77.5103 171.941 76.2867 173.883 75.8359 176.358C75.7876 176.585 75.8359 176.828 75.8359 177.248C75.8359 177.248 75.6266 180.403 77.7035 181.665C77.7035 181.665 77.0273 177.814 79.7803 177.248C79.7803 177.248 81.2453 176.585 82.8714 177.766C82.8714 177.766 84.9321 175.63 83.3705 173.98V173.414L90.3093 171.569C90.8889 170.971 91.4524 170.453 91.9515 169.854C92.3862 169.337 92.8208 168.803 93.0784 168.188C93.4326 167.395 93.6741 166.554 93.8673 165.696C94.2054 164.224 94.2376 162.768 93.7546 161.296V161.328Z" fill="#271515"/>
<path d="M82.5006 214.411C83.0963 215.479 83.6598 216.563 84.3199 217.615C84.6741 218.181 85.157 218.667 85.6078 219.184C86.4128 220.106 87.1856 221.061 88.0227 221.951C90.3089 224.378 92.9492 226.287 96.1691 227.306C97.5536 227.743 98.9221 228.164 100.307 228.6C102.416 229.248 104.557 229.571 106.746 229.717C108.421 229.83 110.079 229.96 111.753 229.96C113.025 229.96 114.297 229.749 115.714 229.62C115.166 228.406 113.83 227.775 114.217 226.19C115.521 226.983 116.615 227.824 117.388 229.07C116.776 229.862 116.02 230.396 115.166 230.785C112.059 232.241 108.807 233.195 105.426 233.826C103.816 234.134 102.239 234.554 100.629 234.91C97.9722 235.493 95.3158 235.38 92.7077 234.668C92.1281 234.506 91.5485 234.296 90.985 234.053C87.1856 232.338 83.6437 230.154 80.456 227.468C77.6708 225.138 76.1414 223.666 73.4205 221.255C73.3561 221.19 73.2917 221.158 73.2434 221.093C73.2434 221.013 72.6478 220.479 72.68 220.446C73.7264 219.362 79.9891 208.458 80.295 208.231C80.6492 208.862 82.1142 213.813 82.4684 214.444L82.5006 214.411Z" fill="#ED1C24"/>
<path d="M71.9237 197.715C72.0686 197.294 72.3262 196.906 72.5838 196.534C73.3726 195.353 74.2098 194.204 74.9665 193.007C75.5944 192.036 76.1417 191 76.7052 189.981C77.7678 188.023 78.8143 186.066 79.8929 184.108C80.07 183.801 80.3759 183.558 80.714 183.202C80.1988 183.024 79.6836 182.911 79.2328 182.668C78.7016 182.409 78.283 181.973 78.2025 181.342C78.1381 180.808 78.0415 180.241 78.1542 179.724C78.2508 179.206 78.4923 178.656 78.8143 178.251C79.8285 176.957 81.4707 177.086 83.0323 178.575C83.8373 177.086 85.0608 175.76 83.9983 173.834C86.2522 173.317 88.2485 172.184 90.5024 172.152C91.1142 172.928 90.9371 173.915 91.5167 174.643C92.048 175.323 92.4022 176.148 92.9657 176.795C93.5452 177.459 94.2858 177.976 95.1391 178.721C94.1248 178.769 93.336 178.801 92.4505 178.85C92.4827 179.174 92.5149 179.449 92.5471 179.724C92.7403 181.067 92.5471 182.328 91.9192 183.558C90.9049 185.548 87.7172 186.584 85.898 186.082C85.5277 185.985 85.1252 185.985 84.8515 185.953C84.4813 186.567 84.2076 187.02 83.9339 187.49C83.1128 188.946 82.1307 190.337 81.5351 191.89C80.8428 193.686 80.4725 195.595 80.0056 197.472C79.7802 198.378 79.6836 199.316 79.5226 200.239C79.4904 200.417 79.4582 200.659 79.3294 200.773C78.5728 201.42 77.8322 202.083 77.0272 202.649C76.3671 203.102 75.5944 203.021 74.9182 202.649C73.6141 201.937 72.616 200.918 71.8271 199.656C71.4085 198.977 71.7144 198.33 71.9398 197.715H71.9237Z" fill="#ED1C24"/>
<path d="M61.7971 203.992C61.137 202.067 59.6559 200.789 58.1103 199.608C55.4861 197.618 52.6204 196.016 49.5937 194.689C48.499 194.22 47.372 193.864 46.1807 193.427C45.8587 195.078 45.5367 196.615 45.263 198.168C44.8927 200.303 44.5385 202.439 44.2004 204.575C43.6691 207.988 43.1379 211.418 42.2202 214.751C42.0753 215.285 41.9143 215.819 41.6567 216.288C41.3025 216.952 40.6907 217.13 40.1112 216.693C38.8393 215.738 37.6158 214.735 37.2616 213.052C37.2294 212.907 37.2294 212.745 37.2133 212.583C38.3885 212.583 38.7749 213.683 39.6604 214.314C39.7087 213.958 39.7892 213.764 39.7409 213.586C38.7105 209.542 38.147 205.4 37.7285 201.258C37.487 198.88 37.1167 196.517 36.8913 194.123C36.6659 191.68 36.5532 189.221 36.4083 186.762C36.36 185.953 36.3117 185.144 36.2634 184.335C36.1185 182.118 36.4566 179.95 36.6981 177.766C36.7464 177.361 36.8913 176.941 37.0845 176.569C37.4226 175.905 37.7767 175.258 38.2114 174.643C38.4529 174.287 38.8071 173.915 39.1935 173.77C40.401 173.317 41.6245 173.236 42.8642 173.705C44.3131 174.239 45.6494 174.951 46.9051 175.905C48.2092 176.892 49.5615 177.814 50.769 178.947C53.1356 181.18 55.5344 183.364 57.724 185.791C58.8992 187.101 60.3321 188.169 61.62 189.399C62.4572 190.191 63.23 191.049 64.051 191.874C64.2603 192.084 64.4374 192.327 64.6628 192.489C65.8059 193.298 66.6753 194.382 67.5607 195.45C67.8022 195.741 68.092 196 68.3657 196.275C69.0741 196.97 69.7985 197.666 70.5069 198.378C70.9094 198.783 71.0382 199.236 70.8289 199.786C70.4586 200.756 70.1688 201.743 69.7663 202.698C69.2351 203.911 68.6555 205.092 68.0437 206.273C67.8505 206.646 67.5929 206.985 67.3031 207.277C66.4982 208.118 65.8542 208.215 64.9204 207.519C63.6164 206.581 62.3606 205.578 61.7971 203.944V203.992Z" fill="#ED1C24"/>
<path d="M62.9076 206.726C63.2779 207.018 63.6643 207.276 64.0345 207.584C65.9665 209.234 67.2222 208.733 68.3009 206.921C69.2186 205.384 69.8464 203.669 70.587 202.018C70.8446 201.436 71.0539 200.837 71.3437 200.125C71.6174 200.433 71.8106 200.627 71.9716 200.853C72.6156 201.759 73.4688 202.455 74.4026 203.038C75.3203 203.604 76.3023 203.701 77.2522 203.167C77.8318 202.843 78.347 202.374 78.8782 201.97C79.0392 201.84 79.2002 201.711 79.4417 201.517C79.5383 202.746 79.5705 203.863 79.7154 204.979C79.8603 206.047 80.0213 206.597 80.2306 207.697C80.0213 207.681 67.8018 228.374 66.369 229.749C66.369 229.749 56.7254 228.827 55.9365 228.649C57.3372 225.413 63.2779 209.93 62.9237 206.726H62.9076Z" fill="#27306E"/>
<path d="M3.67754 260.991C3.06576 261.687 2.51838 262.479 1.61681 262.916C1.40752 263.013 1.00503 263.094 0.924536 262.997C0.747442 262.787 0.570349 262.398 0.650846 262.156C1.08553 260.797 1.76171 259.551 2.79207 258.548C2.90477 258.435 3.14626 258.354 3.30725 258.386C3.88683 258.499 4.46641 258.661 5.28749 258.855C4.54691 259.405 3.96733 259.842 3.33945 260.311C3.43605 260.506 3.54875 260.716 3.69364 260.991H3.67754Z" fill="#27306E"/>
<path d="M55.8563 259.923C54.1498 262.738 52.5399 265.618 50.7045 268.352C49.0302 270.844 47.5651 273.465 45.5688 275.73C44.4901 276.96 43.2988 278.011 41.8981 278.836C40.3526 279.742 38.646 279.856 36.9395 279.532C33.6391 278.917 30.4675 277.833 27.5374 276.167C26.3139 275.471 25.042 274.84 23.7862 274.161C23.3033 273.902 22.8364 273.611 22.4017 273.287C20.4859 271.879 18.5861 270.423 16.6542 269.048C15.495 268.223 14.2876 267.495 13.0801 266.751C10.955 265.424 8.79766 264.114 6.89792 262.447C6.44714 262.043 5.93196 261.703 5.43287 261.347C5.17528 261.169 4.90159 260.991 4.5957 260.797C5.03039 260.198 5.43287 259.664 5.86756 259.066C6.59203 259.341 7.30041 259.616 8.02489 259.891C9.26454 260.344 10.5042 260.781 11.7439 261.217C11.9531 261.298 12.1785 261.347 12.3878 261.428C14.2715 262.172 16.1551 262.932 18.0226 263.677C18.4734 263.855 18.9242 264.016 19.3911 264.146C21.5484 264.793 23.7057 265.424 25.847 266.087C26.9739 266.427 28.1331 266.735 29.2279 267.171C30.4675 267.657 31.7555 267.624 33.0273 267.624C34.0416 267.624 35.072 267.511 36.0862 267.366C36.4404 267.317 36.8268 267.107 37.0683 266.832C37.5674 266.282 38.0182 265.683 38.4206 265.068C39.1934 263.871 39.8374 262.609 40.6585 261.46C41.9786 259.616 42.9446 257.577 44.0071 255.587C44.1842 255.247 44.3452 254.908 44.5545 254.503C48.3701 256.331 52.4111 257.351 56.452 258.758C56.2105 259.227 56.0495 259.6 55.8402 259.956L55.8563 259.923Z" fill="#ED1C24"/>
<path d="M56.8862 258.111C54.9543 257.917 45.9869 254.746 44.9082 253.904C45.6166 252.723 46.3572 251.542 47.0172 250.345C47.8705 248.824 48.6272 247.255 49.4804 245.734C50.3176 244.213 51.2192 242.725 52.169 241.074C52.4588 241.398 52.652 241.592 52.813 241.803C53.5214 242.757 54.423 243.437 55.5177 243.938C56.5159 244.391 57.4497 244.974 58.4478 245.427C59.7519 246.025 61.1042 246.559 62.5693 247.19C61.1203 251.105 58.5766 254.422 56.8862 258.127V258.111Z" fill="#27306E"/>
<path d="M74.386 249.585C73.5972 249.391 72.8244 249.213 72.0516 249.002C69.8138 248.404 67.6082 247.74 65.3543 247.174C62.4725 246.462 59.6389 245.621 57.0952 244.035C56.7732 243.841 56.4191 243.647 56.0649 243.518C54.7769 243.048 53.8753 242.142 52.9899 241.107C52.1366 240.104 51.9595 239.084 52.2332 237.887C52.2654 237.758 52.2815 237.628 52.2815 237.499C52.2493 234.409 53.8593 231.982 55.3565 229.49C55.5658 229.151 55.8234 229.118 56.1615 229.151C58.8662 229.474 61.587 229.814 64.2917 230.121C65.1611 230.218 66.0304 230.218 66.8837 230.299C67.254 230.332 67.6243 230.445 67.9624 230.59C68.7995 230.995 69.6206 231.432 70.4578 231.852C71.2949 232.273 72.116 232.71 72.9532 233.114C73.6133 233.438 74.2894 233.745 74.9817 234.004C76.1892 234.457 77.4127 234.846 78.6041 235.557C78.3787 236.318 78.1855 237.062 77.944 237.79C77.7186 238.502 77.4449 239.182 77.2356 239.893C76.9298 240.977 76.6561 242.078 76.3663 243.162C76.3341 243.291 76.318 243.42 76.2536 243.534C75.3198 245.168 75.0944 247.012 74.6758 248.792C74.6275 249.002 74.5148 249.196 74.386 249.536V249.585Z" fill="#27306E"/>
<path d="M121.912 286.489C120.254 283.642 118.628 280.778 116.97 277.93C115.907 276.118 114.861 274.306 113.718 272.543C112.881 271.248 111.915 270.035 110.997 268.789C110.788 268.498 110.578 268.223 110.385 267.916C109.596 266.702 108.856 265.44 108.019 264.259C106.28 261.832 104.171 259.761 101.901 257.82C101.031 257.076 100.001 256.655 98.9385 256.234C95.9923 255.069 92.8529 254.568 89.8584 253.63C87.7654 252.982 85.7047 252.238 83.6118 251.607C82.4687 251.267 81.2935 251.041 80.1343 250.782C78.4761 250.394 76.8178 250.022 75.0469 249.617C75.5621 247.643 75.7231 245.686 76.689 243.971C76.8339 243.728 76.8983 243.421 76.9305 243.145C77.3008 240.67 78.4439 238.421 79.0717 235.881C79.7318 236.108 80.3597 236.253 80.9071 236.544C82.7102 237.499 84.7065 237.936 86.6385 238.567C88.4094 239.149 90.2447 239.521 92.0157 240.088C94.4628 240.864 96.926 241.641 99.2121 242.854C100.548 243.566 101.949 244.165 103.269 244.877C105.024 245.815 106.795 246.737 108.212 248.21C108.791 248.808 109.532 249.261 110.079 249.876C111.979 252.012 113.412 254.471 114.555 257.076C115.086 258.289 115.666 259.486 116.165 260.7C116.905 262.528 117.614 264.356 118.322 266.201C118.725 267.22 119.031 268.288 119.481 269.291C120.624 271.879 120.979 274.695 121.8 277.38C122.621 280.034 123.41 282.703 124.198 285.357C124.359 285.874 124.537 286.408 124.698 286.926C125.068 288.156 125.438 289.401 125.808 290.631C125.905 290.938 125.953 291.246 126.05 291.634C125.696 291.699 125.406 291.763 125.003 291.844C123.941 290.049 122.894 288.269 121.864 286.489H121.912Z" fill="#ED1C24"/>
<path d="M195.373 208.668C196.194 210.124 196.967 211.612 197.853 213.036C198.336 213.813 198.996 214.476 199.607 215.172C200.702 216.434 201.765 217.728 202.908 218.941C206.047 222.258 209.637 224.863 214.033 226.254C215.916 226.853 217.8 227.435 219.7 228.018C222.565 228.891 225.528 229.361 228.506 229.539C230.792 229.684 233.062 229.878 235.348 229.862C237.087 229.862 238.826 229.571 240.758 229.393C240.001 227.727 238.182 226.869 238.713 224.717C240.484 225.801 241.981 226.934 243.044 228.665C242.207 229.733 241.176 230.477 240.017 231.011C235.767 233.001 231.307 234.311 226.719 235.169C224.513 235.59 222.356 236.172 220.166 236.657C216.528 237.45 212.906 237.305 209.332 236.318C208.527 236.107 207.738 235.816 206.981 235.476C201.781 233.13 196.951 230.137 192.588 226.481C188.773 223.294 185.134 219.896 181.415 216.579C181.319 216.498 181.27 216.369 181.206 216.272C181.206 216.159 181.174 216.045 181.222 215.997C182.655 214.508 183.943 212.842 185.569 211.612C187.871 209.849 190.415 208.409 192.846 206.839C193.184 206.629 193.49 206.386 193.924 206.095C194.407 206.953 194.89 207.81 195.373 208.668Z" fill="#F1645F"/>
<path d="M192.62 201.5C193.023 202.714 193.441 203.943 193.119 205.254C193.055 205.529 192.894 205.853 192.668 205.998C191.01 207.066 189.32 208.118 187.613 209.121C187.323 209.299 186.84 209.315 186.502 209.218C183.266 208.231 180.046 207.212 176.827 206.192C176.617 206.128 176.424 206.014 176.15 205.885C177.471 202.681 178.759 199.591 180.079 196.42C180.465 196.533 180.803 196.582 181.109 196.711C183.443 197.617 185.778 198.523 188.112 199.446C189.416 199.963 190.72 200.497 192.024 201.047C192.25 201.144 192.54 201.322 192.604 201.517L192.62 201.5Z" fill="#27306E"/>
<path d="M180.9 185.839C181.093 185.273 181.463 184.739 181.802 184.237C182.88 182.62 184.023 181.05 185.07 179.416C185.923 178.073 186.68 176.682 187.436 175.29C188.901 172.621 190.318 169.935 191.783 167.266C192.025 166.829 192.443 166.521 192.894 166.036C192.186 165.793 191.493 165.632 190.866 165.308C190.141 164.936 189.562 164.353 189.465 163.496C189.384 162.752 189.256 161.991 189.384 161.279C189.529 160.568 189.851 159.823 190.302 159.273C191.703 157.51 193.924 157.688 196.066 159.71C197.177 157.671 198.835 155.876 197.402 153.238C200.493 152.527 203.214 150.99 206.289 150.925C207.11 151.976 206.885 153.335 207.673 154.322C208.398 155.245 208.881 156.393 209.654 157.267C210.443 158.173 211.457 158.885 212.632 159.888C211.231 159.953 210.169 160.001 208.961 160.066C209.01 160.503 209.042 160.875 209.09 161.247C209.364 163.091 209.09 164.806 208.221 166.489C206.836 169.207 202.473 170.615 199.994 169.935C199.479 169.79 198.931 169.806 198.577 169.757C198.078 170.599 197.692 171.229 197.321 171.86C196.194 173.851 194.858 175.76 194.037 177.879C193.087 180.322 192.572 182.959 191.944 185.516C191.638 186.745 191.51 188.04 191.284 189.285C191.236 189.544 191.188 189.868 191.027 190.013C189.996 190.903 188.982 191.809 187.871 192.586C186.97 193.201 185.923 193.087 184.973 192.586C183.202 191.615 181.818 190.224 180.755 188.493C180.192 187.57 180.61 186.68 180.9 185.823V185.839Z" fill="#F1645F"/>
<path d="M167.054 194.43C166.152 191.809 164.124 190.046 162.015 188.444C158.425 185.71 154.496 183.526 150.375 181.73C148.894 181.083 147.332 180.597 145.722 179.999C145.288 182.247 144.837 184.367 144.45 186.486C143.935 189.399 143.452 192.327 143.001 195.239C142.277 199.915 141.553 204.591 140.297 209.153C140.104 209.881 139.862 210.609 139.524 211.256C139.041 212.162 138.204 212.389 137.415 211.807C135.676 210.512 134.002 209.137 133.535 206.823C133.487 206.613 133.487 206.403 133.471 206.192C135.081 206.192 135.596 207.681 136.819 208.571C136.884 208.102 136.996 207.81 136.932 207.568C135.515 202.034 134.759 196.388 134.195 190.709C133.873 187.457 133.358 184.221 133.052 180.969C132.746 177.62 132.601 174.271 132.376 170.906C132.311 169.806 132.247 168.706 132.167 167.589C131.973 164.564 132.424 161.587 132.762 158.61C132.827 158.06 133.02 157.477 133.277 156.976C133.744 156.07 134.227 155.18 134.823 154.355C135.161 153.869 135.628 153.352 136.159 153.157C137.801 152.527 139.492 152.429 141.182 153.06C143.179 153.788 144.998 154.759 146.72 156.07C148.507 157.429 150.359 158.691 152.001 160.228C155.237 163.269 158.521 166.263 161.5 169.595C163.11 171.391 165.074 172.847 166.829 174.514C167.972 175.598 169.034 176.779 170.145 177.911C170.419 178.203 170.66 178.526 170.982 178.753C172.56 179.869 173.735 181.341 174.943 182.814C175.281 183.218 175.667 183.574 176.038 183.946C177.004 184.901 177.986 185.855 178.952 186.826C179.499 187.376 179.676 187.991 179.386 188.751C178.887 190.078 178.485 191.437 177.921 192.731C177.197 194.398 176.392 196.016 175.571 197.617C175.313 198.119 174.959 198.588 174.572 198.993C173.478 200.141 172.608 200.271 171.304 199.332C169.517 198.038 167.811 196.679 167.038 194.43H167.054Z" fill="#F1645F"/>
<path d="M168.584 198.168C169.099 198.556 169.63 198.912 170.113 199.332C172.754 201.598 174.476 200.886 175.957 198.426C177.213 196.323 178.083 193.977 179.097 191.728C179.451 190.936 179.741 190.11 180.127 189.156C180.498 189.577 180.771 189.835 180.997 190.143C181.882 191.389 183.041 192.327 184.329 193.12C185.569 193.896 186.921 194.026 188.209 193.314C189.014 192.877 189.69 192.23 190.431 191.68C190.656 191.502 190.866 191.324 191.188 191.049C191.316 192.731 191.365 194.252 191.574 195.773C191.767 197.245 192.121 198.685 192.411 200.19C192.121 200.158 191.976 200.19 191.864 200.141C188.386 198.766 184.925 197.375 181.447 196C181.238 195.919 181.045 195.822 180.836 195.741C179.837 195.433 179.644 195.514 179.242 196.501C178.292 198.831 177.358 201.161 176.392 203.491C176.022 204.38 175.539 205.222 175.104 206.095C175.635 206.791 176.424 206.888 177.101 207.098C178.775 207.616 180.498 208.004 182.172 208.538C183.492 208.959 184.78 209.509 186.068 209.994C184.2 211.807 182.381 213.554 180.433 215.431C178.743 214.622 177.004 213.683 175.201 212.939C174.042 212.454 172.77 212.195 171.546 211.887C170.58 211.645 169.614 211.467 168.52 211.224C170.419 206.791 169.115 202.552 168.616 198.184L168.584 198.168Z" fill="#27306E"/>
<path d="M168.471 211.92C170.113 212.276 171.82 212.632 173.542 213.004C173.88 213.085 174.218 213.214 174.524 213.376C176.166 214.201 177.809 215.026 179.644 215.948C179.579 216.24 179.531 216.709 179.354 217.113C178.436 219.265 177.406 221.352 176.569 223.536C175.812 225.51 175.265 227.549 174.573 229.717C169.437 229.393 164.317 228.714 158.988 228.18C162.24 222.598 165.348 217.275 168.471 211.92Z" fill="#F1645F"/>
<path d="M87.6036 272.349C86.7664 273.287 86.0258 274.387 84.7862 274.97C84.4964 275.099 83.949 275.212 83.8363 275.083C83.5948 274.792 83.3533 274.258 83.466 273.934C84.0617 272.073 84.9794 270.375 86.3961 268.999C86.5571 268.838 86.8791 268.741 87.1045 268.789C87.9095 268.935 88.6983 269.161 89.8092 269.436C88.7949 270.197 88.0061 270.779 87.1367 271.426C87.2655 271.685 87.4104 271.976 87.6197 272.365L87.6036 272.349Z" fill="#F78F43"/>
<path d="M158.941 270.892C156.622 274.743 154.401 278.674 151.905 282.412C149.619 285.809 147.607 289.401 144.886 292.507C143.405 294.19 141.779 295.63 139.879 296.763C137.77 298.008 135.419 298.154 133.101 297.717C128.577 296.876 124.263 295.404 120.238 293.106C118.563 292.152 116.809 291.294 115.118 290.372C114.458 290.016 113.814 289.628 113.218 289.175C110.594 287.249 108.002 285.259 105.362 283.383C103.784 282.266 102.126 281.263 100.484 280.244C97.5697 278.432 94.6396 276.652 92.0476 274.371C91.4197 273.821 90.7113 273.368 90.0352 272.866C89.681 272.607 89.3268 272.381 88.9082 272.106C89.5039 271.281 90.0513 270.553 90.6469 269.744C91.6451 270.116 92.6111 270.504 93.5931 270.86C95.2836 271.475 96.974 272.073 98.6645 272.688C98.9543 272.785 99.2601 272.85 99.5499 272.963C102.126 273.983 104.686 275.018 107.262 276.021C107.873 276.264 108.501 276.474 109.129 276.668C112.075 277.558 115.021 278.432 117.968 279.322C119.513 279.791 121.091 280.211 122.588 280.794C124.279 281.457 126.05 281.409 127.788 281.409C129.189 281.409 130.59 281.247 131.974 281.053C132.457 280.988 132.988 280.697 133.31 280.325C133.987 279.58 134.598 278.772 135.146 277.914C136.192 276.28 137.094 274.549 138.205 272.979C140.008 270.455 141.328 267.656 142.793 264.938C143.035 264.485 143.26 264 143.534 263.45C148.75 265.942 154.288 267.349 159.794 269.258C159.472 269.889 159.231 270.407 158.941 270.892Z" fill="#F1645F"/>
<path d="M160.358 268.417C157.717 268.142 145.449 263.822 143.984 262.673C144.95 261.055 145.949 259.454 146.866 257.804C148.025 255.716 149.072 253.581 150.231 251.494C151.39 249.407 152.598 247.368 153.902 245.119C154.304 245.572 154.562 245.831 154.787 246.122C155.753 247.433 156.993 248.371 158.474 249.034C159.842 249.649 161.114 250.442 162.467 251.057C164.254 251.882 166.089 252.61 168.101 253.451C166.121 258.807 162.644 263.337 160.341 268.401L160.358 268.417Z" fill="#27306E"/>
<path d="M184.265 256.768C183.186 256.493 182.123 256.267 181.077 255.975C178.018 255.15 174.991 254.244 171.916 253.468C167.972 252.481 164.108 251.332 160.615 249.18C160.164 248.905 159.697 248.646 159.198 248.468C157.443 247.821 156.203 246.591 154.996 245.184C153.837 243.825 153.579 242.417 153.949 240.783C153.982 240.605 154.014 240.427 154.014 240.249C153.965 236.027 156.155 232.694 158.216 229.296C158.505 228.827 158.844 228.778 159.327 228.843C163.029 229.296 166.732 229.749 170.451 230.17C171.627 230.299 172.818 230.299 173.993 230.429C174.492 230.477 175.007 230.623 175.458 230.833C176.601 231.383 177.728 231.982 178.855 232.564C179.982 233.147 181.125 233.745 182.268 234.295C183.17 234.732 184.088 235.153 185.037 235.509C186.68 236.124 188.354 236.658 189.996 237.628C189.69 238.664 189.416 239.683 189.094 240.686C188.789 241.657 188.402 242.595 188.128 243.566C187.694 245.054 187.34 246.543 186.937 248.031C186.889 248.209 186.873 248.387 186.792 248.533C185.52 250.766 185.214 253.29 184.635 255.733C184.57 256.024 184.426 256.299 184.249 256.736L184.265 256.768Z" fill="#27306E"/>
<path d="M249.226 307.214C246.972 303.315 244.75 299.4 242.48 295.517C241.031 293.042 239.598 290.55 238.037 288.139C236.894 286.36 235.557 284.709 234.318 282.994C234.028 282.606 233.738 282.218 233.48 281.813C232.402 280.147 231.404 278.432 230.244 276.814C227.878 273.497 224.98 270.666 221.889 268.013C220.698 266.993 219.297 266.427 217.848 265.845C213.823 264.243 209.541 263.563 205.435 262.269C202.586 261.379 199.768 260.376 196.903 259.502C195.357 259.033 193.747 258.742 192.153 258.37C189.883 257.852 187.613 257.334 185.198 256.768C185.891 254.066 186.116 251.397 187.436 249.035C187.629 248.695 187.71 248.29 187.774 247.902C188.273 244.504 189.851 241.447 190.704 237.984C191.606 238.308 192.459 238.502 193.216 238.89C195.695 240.201 198.416 240.783 201.04 241.657C203.455 242.45 205.967 242.967 208.398 243.744C211.746 244.812 215.111 245.863 218.234 247.53C220.054 248.501 221.969 249.31 223.789 250.297C226.187 251.591 228.618 252.837 230.55 254.843C231.339 255.668 232.354 256.283 233.11 257.124C235.718 260.036 237.65 263.402 239.244 266.977C239.969 268.627 240.757 270.261 241.45 271.928C242.464 274.419 243.43 276.943 244.396 279.451C244.943 280.859 245.362 282.299 245.974 283.674C247.535 287.217 248.018 291.068 249.145 294.74C250.256 298.364 251.335 302.005 252.43 305.645C252.639 306.357 252.896 307.069 253.106 307.797C253.621 309.479 254.12 311.178 254.619 312.861C254.748 313.282 254.828 313.702 254.941 314.236C254.458 314.333 254.056 314.414 253.508 314.527C252.059 312.068 250.626 309.641 249.21 307.214H249.226Z" fill="#F1645F"/>
<path d="M256.76 320.255C255.698 318.669 254.619 317.197 254.185 315.32C255.811 314.689 255.344 316.55 256.133 316.873C256.905 316.501 256.197 315.935 256.358 315.449C258.29 315.288 260.238 315.11 262.202 314.996C262.782 314.964 263.329 315.207 263.683 315.87C261.977 318.232 259.369 319.154 256.76 320.238V320.255Z" fill="#F78F43"/>
<path d="M205.226 156.587C203.76 156.199 203.213 155.342 203.632 154.144C203.841 153.513 204.34 153.368 204.839 153.788C205.515 154.339 205.708 155.584 205.226 156.587Z" fill="#F1645F"/>
<path d="M184.909 125.232C185.279 124.844 185.634 124.424 186.02 124.051C186.809 123.307 187.582 122.563 188.419 121.867C189.288 121.139 190.286 120.67 191.413 120.492C192.508 120.314 193.603 120.055 194.682 119.845C195.293 119.732 195.857 119.845 196.388 120.185C197.225 120.719 198.127 121.155 198.497 122.239C198.964 123.598 199.206 124.941 198.771 126.349C198.674 126.689 198.513 126.996 198.433 127.336C198.368 127.675 198.384 128.048 198.336 128.646C199.238 128.064 199.914 127.595 200.606 127.174C201.653 126.559 202.715 125.944 203.778 125.362C204.534 124.957 205.356 124.86 206.209 124.909C207.529 124.99 208.833 125.168 210.089 125.669C211.296 126.138 211.908 127.077 212.053 128.29C212.262 130.054 211.86 131.688 210.813 133.16C209.863 134.471 208.736 135.571 207.448 136.574C206.112 137.626 204.921 138.871 203.665 140.036C203.601 140.101 203.601 140.214 203.536 140.392C203.762 140.425 203.939 140.489 204.132 140.489C205.114 140.489 206.08 140.441 207.062 140.489C208.463 140.538 209.155 141.136 209.461 142.512C209.735 143.806 209.461 145.003 208.833 146.152C208.109 147.462 206.595 149.258 205.259 150.391C204.905 150.003 204.551 149.582 204.164 149.194C203.407 148.417 202.57 147.738 201.476 147.462C199.672 146.993 198.03 147.301 196.807 148.741C195.712 150.035 194.44 151.184 193.651 152.753C193.072 153.934 192.814 155.196 192.54 156.458C192.492 156.701 192.46 156.927 192.395 157.218C191.912 157.089 191.462 156.927 190.995 156.846C190.238 156.717 189.626 156.976 189.353 157.671C188.998 158.577 188.644 159.516 188.515 160.47C188.258 162.202 188.821 163.722 190.19 165.065C188.95 165.664 187.823 166.246 186.664 166.748C186.213 166.942 185.859 166.748 185.682 166.262C185.392 165.534 185.44 164.823 185.682 164.111C185.811 163.722 185.94 163.35 186.101 162.833C185.714 162.833 185.473 162.8 185.247 162.833C182.929 163.188 180.595 163.011 178.26 162.913C176.908 162.849 175.733 162.169 174.734 161.247C173.945 160.503 173.865 160.017 174.3 158.998C174.976 157.38 176.103 156.199 177.664 155.423C178.003 155.261 178.308 155.067 178.824 154.792C178.115 154.29 177.552 153.934 177.02 153.513C176.167 152.85 175.298 152.203 174.525 151.459C173.366 150.359 172.207 149.226 171.176 148.013C168.745 145.181 167.844 141.865 168.327 138.143C168.939 133.338 170.629 128.937 173.35 124.941C174.493 123.275 176.055 122.126 177.809 121.236C179.178 120.541 180.691 120.427 182.188 120.735C183.621 121.026 184.394 121.997 184.491 123.469C184.523 124.019 184.539 124.569 184.555 125.103C184.652 125.152 184.748 125.184 184.861 125.232H184.909Z" fill="#F78F43"/>
<path d="M206.273 150.925C206.273 150.925 201.33 144.777 198.915 146.864C198.915 146.864 191.526 151.038 192.395 156.588L192.814 158.06C192.814 158.06 189.723 155.649 188.966 157.041C188.966 157.041 184.925 164.37 192.894 166.02H201.33L202.135 160.163L206.273 150.925Z" fill="#F1645F"/>
<path d="M304.77 147.673C300.166 149.986 296.012 153.319 295.111 158.27C295.046 158.577 295.111 158.917 295.111 159.483C295.111 159.483 294.821 163.787 297.67 165.518C297.67 165.518 296.753 160.244 300.504 159.483C300.504 159.483 302.5 158.577 304.722 160.195C304.722 160.195 307.539 157.267 305.398 155.034V154.258L314.881 151.734C315.67 150.909 316.442 150.197 317.119 149.388C317.698 148.692 318.294 147.948 318.664 147.107C319.147 146.023 319.485 144.874 319.743 143.709C320.033 142.431 312.772 144.534 312.24 144.712C309.906 145.456 307.266 146.411 304.754 147.673H304.77Z" fill="#271515"/>
<path d="M304.222 210.27C305.043 211.726 305.816 213.214 306.701 214.638C307.184 215.414 307.844 216.078 308.456 216.773C309.551 218.035 310.614 219.33 311.757 220.543C314.896 223.86 318.486 226.465 322.881 227.856C324.765 228.455 326.649 229.037 328.548 229.62C331.414 230.493 334.376 230.962 337.355 231.14C339.641 231.286 341.911 231.48 344.197 231.464C345.936 231.464 347.674 231.173 349.606 230.995C348.85 229.328 347.03 228.471 347.562 226.319C349.333 227.403 350.83 228.536 351.892 230.267C351.055 231.335 350.025 232.079 348.866 232.613C344.616 234.603 340.156 235.913 335.568 236.771C333.362 237.191 331.205 237.774 329.015 238.259C325.377 239.052 321.754 238.906 318.18 237.919C317.375 237.709 316.586 237.418 315.83 237.078C310.63 234.732 305.8 231.739 301.437 228.083C297.621 224.895 295.544 222.889 291.825 219.589C291.729 219.508 291.648 219.459 291.584 219.362C291.584 219.249 290.779 218.521 290.827 218.472C292.26 216.984 300.825 202.083 301.244 201.776C301.727 202.633 303.723 209.412 304.222 210.27Z" fill="#5EBDEB"/>
<path d="M289.749 187.441C289.942 186.875 290.312 186.341 290.65 185.839C291.729 184.221 292.872 182.652 293.918 181.018C294.772 179.675 295.528 178.284 296.285 176.892C297.75 174.223 299.167 171.537 300.632 168.867C300.873 168.43 301.292 168.123 301.743 167.638C301.034 167.395 300.342 167.233 299.714 166.91C298.99 166.538 298.41 165.955 298.314 165.098C298.233 164.353 298.104 163.593 298.233 162.881C298.378 162.169 298.7 161.425 299.151 160.875C300.551 159.111 302.773 159.289 304.914 161.312C306.025 159.273 307.683 157.477 306.251 154.84C309.342 154.128 312.062 152.591 315.137 152.526C315.959 153.578 315.733 154.937 316.522 155.924C317.247 156.846 317.729 157.995 318.502 158.869C319.291 159.775 320.305 160.487 321.481 161.49C320.08 161.554 319.017 161.603 317.81 161.668C317.858 162.104 317.89 162.477 317.939 162.849C318.212 164.693 317.939 166.408 317.069 168.091C315.685 170.809 311.322 172.216 308.843 171.537C308.327 171.391 307.78 171.407 307.426 171.359C306.927 172.2 306.54 172.831 306.17 173.462C305.043 175.452 303.707 177.361 302.886 179.481C301.936 181.924 301.421 184.561 300.793 187.117C300.487 188.347 300.358 189.641 300.133 190.887C300.084 191.146 300.036 191.469 299.875 191.615C298.845 192.505 297.831 193.411 296.72 194.188C295.818 194.802 294.772 194.689 293.822 194.188C292.051 193.217 290.666 191.825 289.604 190.094C289.04 189.172 289.459 188.282 289.749 187.425V187.441Z" fill="#5EBDEB"/>
<path d="M275.919 196.032C275.018 193.411 272.989 191.647 270.88 190.046C267.29 187.311 263.362 185.127 259.24 183.331C257.759 182.684 256.197 182.199 254.588 181.6C254.153 183.849 253.702 185.969 253.316 188.088C252.8 191 252.317 193.929 251.867 196.841C251.142 201.517 250.418 206.192 249.162 210.755C248.969 211.483 248.727 212.211 248.389 212.858C247.906 213.764 247.069 213.991 246.28 213.408C244.541 212.114 242.867 210.739 242.4 208.425C242.352 208.215 242.352 208.004 242.336 207.794C243.946 207.794 244.461 209.283 245.685 210.172C245.749 209.703 245.862 209.412 245.797 209.169C244.38 203.636 243.624 197.99 243.06 192.311C242.738 189.059 242.223 185.823 241.917 182.571C241.611 179.222 241.466 175.873 241.241 172.508C241.177 171.407 241.112 170.307 241.032 169.191C240.839 166.165 241.289 163.188 241.627 160.212C241.692 159.661 241.885 159.079 242.143 158.577C242.61 157.671 243.093 156.782 243.688 155.956C244.026 155.471 244.493 154.953 245.024 154.759C246.667 154.128 248.357 154.031 250.047 154.662C252.044 155.39 253.863 156.361 255.586 157.671C257.373 159.03 259.224 160.292 260.866 161.829C264.102 164.871 267.387 167.864 270.365 171.197C271.975 172.993 273.939 174.449 275.694 176.116C276.837 177.2 277.9 178.381 279.01 179.513C279.284 179.804 279.526 180.128 279.848 180.354C281.425 181.471 282.601 182.943 283.808 184.415C284.146 184.82 284.532 185.176 284.903 185.548C285.869 186.502 286.851 187.457 287.817 188.428C288.364 188.978 288.541 189.593 288.251 190.353C287.752 191.68 287.35 193.039 286.786 194.333C286.062 196 285.257 197.617 284.436 199.219C284.178 199.721 283.824 200.19 283.438 200.594C282.343 201.743 281.474 201.873 280.17 200.934C278.382 199.64 276.676 198.281 275.903 196.032H275.919Z" fill="#5EBDEB"/>
<path d="M277.449 199.769C277.964 200.158 278.495 200.514 278.978 200.934C281.619 203.199 283.341 202.487 284.822 200.028C286.078 197.925 286.948 195.579 287.962 193.33C288.316 192.537 288.606 191.712 288.992 190.758C289.362 191.178 289.636 191.437 289.861 191.744C290.747 192.99 291.906 193.929 293.194 194.721C294.434 195.498 295.786 195.627 297.074 194.916C297.879 194.479 298.555 193.832 299.296 193.281C299.521 193.104 299.73 192.926 300.052 192.651C300.181 194.333 300.23 195.854 300.439 197.375C300.632 198.847 300.841 199.591 301.147 201.096C300.857 201.064 284.146 229.361 282.198 231.238C282.198 231.238 269.029 229.976 267.918 229.733C269.818 225.3 277.964 204.138 277.465 199.769H277.449Z" fill="#27306E"/>
<path d="M196.469 273.95C195.632 274.888 194.891 275.989 193.651 276.571C193.362 276.701 192.814 276.814 192.702 276.684C192.46 276.393 192.219 275.859 192.331 275.536C192.927 273.675 193.845 271.976 195.261 270.601C195.422 270.439 195.744 270.342 195.97 270.391C196.775 270.536 197.564 270.763 198.674 271.038C197.66 271.798 196.871 272.381 196.002 273.028C196.131 273.287 196.276 273.578 196.485 273.966L196.469 273.95Z" fill="#5EBDEB"/>
<path d="M267.805 272.494C265.487 276.345 263.265 280.276 260.77 284.014C258.483 287.411 256.471 291.003 253.75 294.109C252.269 295.792 250.643 297.232 248.743 298.364C246.634 299.61 244.284 299.756 241.965 299.319C237.441 298.478 233.127 297.005 229.102 294.708C227.428 293.753 225.673 292.896 223.982 291.974C223.322 291.618 222.678 291.229 222.083 290.776C219.458 288.851 216.866 286.861 214.226 284.984C212.648 283.868 210.99 282.865 209.348 281.846C206.434 280.034 203.504 278.254 200.912 275.973C200.284 275.423 199.576 274.97 198.899 274.468C198.545 274.209 198.191 273.983 197.772 273.708C198.368 272.882 198.916 272.154 199.511 271.345C200.509 271.718 201.475 272.106 202.457 272.462C204.148 273.077 205.838 273.675 207.529 274.29C207.819 274.387 208.124 274.452 208.414 274.565C210.99 275.584 213.55 276.62 216.126 277.623C216.738 277.866 217.365 278.076 217.993 278.27C220.94 279.16 223.886 280.034 226.832 280.923C228.378 281.393 229.955 281.813 231.452 282.396C233.143 283.059 234.914 283.01 236.653 283.01C238.053 283.01 239.454 282.849 240.838 282.655C241.321 282.59 241.853 282.299 242.175 281.926C242.851 281.182 243.463 280.373 244.01 279.516C245.057 277.882 245.958 276.151 247.069 274.581C248.872 272.057 250.192 269.258 251.657 266.54C251.899 266.087 252.124 265.602 252.398 265.052C257.614 267.543 263.152 268.951 268.658 270.86C268.336 271.491 268.095 272.009 267.805 272.494Z" fill="#5EBDEB"/>
<path d="M269.206 270.003C266.566 269.727 254.298 265.408 252.833 264.259C253.799 262.641 254.797 261.039 255.715 259.389C256.874 257.302 257.92 255.166 259.08 253.079C260.239 250.992 261.446 248.954 262.75 246.705C263.153 247.158 263.41 247.417 263.636 247.708C264.602 249.018 265.841 249.957 267.323 250.62C268.691 251.235 269.963 252.028 271.315 252.642C273.102 253.468 274.938 254.196 276.95 255.037C274.97 260.392 271.492 264.922 269.19 269.986L269.206 270.003Z" fill="#27306E"/>
<path d="M293.13 258.37C292.051 258.095 290.989 257.868 289.942 257.577C286.883 256.752 283.857 255.846 280.782 255.069C276.837 254.082 272.973 252.934 269.48 250.782C269.029 250.507 268.562 250.248 268.063 250.07C266.308 249.423 265.069 248.193 263.861 246.786C262.702 245.427 262.444 244.019 262.815 242.385C262.847 242.207 262.879 242.029 262.879 241.851C262.831 237.628 265.02 234.295 267.081 230.898C267.371 230.429 267.709 230.38 268.192 230.445C271.895 230.898 275.598 231.351 279.317 231.771C280.492 231.901 281.683 231.901 282.858 232.03C283.357 232.079 283.873 232.224 284.323 232.435C285.467 232.985 286.593 233.583 287.72 234.166C288.847 234.748 289.99 235.347 291.134 235.897C292.035 236.334 292.953 236.755 293.903 237.111C295.545 237.725 297.219 238.259 298.861 239.23C298.555 240.265 298.282 241.285 297.96 242.288C297.654 243.259 297.267 244.197 296.994 245.168C296.559 246.656 296.205 248.145 295.802 249.633C295.754 249.811 295.738 249.989 295.657 250.135C294.386 252.367 294.08 254.891 293.5 257.334C293.436 257.626 293.291 257.901 293.114 258.337L293.13 258.37Z" fill="#27306E"/>
<path d="M358.091 308.816C355.837 304.917 353.615 301.002 351.345 297.119C349.896 294.643 348.464 292.152 346.902 289.741C345.759 287.961 344.423 286.311 343.183 284.596C342.893 284.208 342.603 283.819 342.346 283.415C341.267 281.749 340.269 280.034 339.11 278.416C336.743 275.099 333.845 272.268 330.754 269.614C329.563 268.595 328.162 268.029 326.713 267.446C322.688 265.845 318.406 265.165 314.3 263.871C311.451 262.981 308.633 261.978 305.768 261.104C304.222 260.635 302.612 260.344 301.018 259.972C298.748 259.454 296.478 258.936 294.063 258.37C294.756 255.668 294.981 252.998 296.301 250.636C296.494 250.296 296.575 249.892 296.639 249.504C297.138 246.106 298.716 243.048 299.569 239.586C300.471 239.91 301.324 240.104 302.081 240.492C304.56 241.802 307.281 242.385 309.905 243.259C312.32 244.051 314.832 244.569 317.263 245.346C320.611 246.413 323.976 247.465 327.1 249.132C328.919 250.102 330.835 250.911 332.654 251.898C335.053 253.193 337.484 254.438 339.416 256.444C340.204 257.27 341.219 257.884 341.975 258.726C344.584 261.638 346.515 265.003 348.109 268.579C348.834 270.229 349.623 271.863 350.315 273.53C351.329 276.021 352.295 278.545 353.261 281.053C353.809 282.46 354.227 283.9 354.839 285.276C356.401 288.819 356.884 292.669 358.01 296.342C359.121 299.966 360.2 303.606 361.295 307.247C361.504 307.959 361.762 308.67 361.971 309.398C362.486 311.081 362.985 312.78 363.484 314.463C363.613 314.883 363.694 315.304 363.806 315.838C363.323 315.935 362.921 316.016 362.373 316.129C360.924 313.67 359.492 311.243 358.075 308.816H358.091Z" fill="#5EBDEB"/>
<path d="M364.659 321.225C363.629 319.688 362.583 318.248 362.164 316.436C363.742 315.822 363.291 317.634 364.048 317.941C364.788 317.585 364.112 317.019 364.273 316.55C366.157 316.404 368.04 316.226 369.94 316.113C370.504 316.08 371.019 316.307 371.373 316.954C369.731 319.251 367.187 320.141 364.659 321.193V321.225Z" fill="#271515"/>
<path d="M394.426 241.964C394.957 242.919 395.472 243.889 396.036 244.812C396.358 245.313 396.793 245.75 397.179 246.203C397.887 247.028 398.58 247.869 399.336 248.662C401.381 250.814 403.731 252.529 406.597 253.435C407.821 253.823 409.06 254.212 410.284 254.584C412.151 255.15 414.083 255.457 416.031 255.571C417.513 255.668 419.01 255.797 420.491 255.781C421.618 255.781 422.761 255.587 424.017 255.474C423.518 254.39 422.342 253.823 422.68 252.416C423.84 253.128 424.806 253.872 425.498 254.988C424.951 255.684 424.274 256.169 423.518 256.525C420.749 257.82 417.851 258.677 414.84 259.243C413.407 259.518 411.99 259.89 410.574 260.214C408.207 260.732 405.84 260.635 403.506 260.004C402.991 259.858 402.476 259.68 401.977 259.454C398.58 257.933 395.44 255.975 392.591 253.581C390.111 251.494 387.729 249.293 385.314 247.125C385.249 247.077 385.217 246.98 385.185 246.915C385.185 246.85 385.169 246.769 385.185 246.737C386.119 245.766 386.956 244.682 388.018 243.873C389.516 242.725 391.174 241.786 392.768 240.767C392.977 240.621 393.186 240.476 393.476 240.281C393.782 240.832 394.104 241.398 394.426 241.964Z" fill="#F78F43"/>
<path d="M392.639 237.288C392.897 238.081 393.171 238.874 392.961 239.731C392.913 239.909 392.816 240.12 392.671 240.217C391.593 240.912 390.498 241.608 389.387 242.255C389.194 242.369 388.888 242.385 388.663 242.32C386.554 241.673 384.461 241.01 382.352 240.346C382.223 240.298 382.094 240.233 381.917 240.152C382.786 238.065 383.624 236.043 384.477 233.972C384.734 234.036 384.944 234.085 385.153 234.15C386.682 234.732 388.196 235.331 389.709 235.929C390.562 236.269 391.416 236.609 392.253 236.965C392.398 237.03 392.591 237.143 392.623 237.272L392.639 237.288Z" fill="#27306E"/>
<path d="M389.146 216.547C387.633 216.838 386.087 217.065 384.526 216.87C383.914 216.806 383.286 216.612 382.755 216.32C381.306 215.528 380.259 214.314 379.406 212.923C378.134 210.868 377.538 208.619 377.281 206.241C377.088 204.461 376.733 202.698 375.896 201.096C374.866 199.122 373.336 197.714 371.066 197.31C370.181 197.148 369.296 197.278 368.458 197.634C365.85 198.734 363.097 199.365 360.312 199.656C357.607 199.947 354.854 199.98 352.246 198.912C351.28 198.507 350.33 197.99 349.445 197.423C347.384 196.097 345.71 194.382 344.583 192.165C344.535 192.068 344.47 191.971 344.406 191.874C342.651 189.496 342.426 186.761 342.619 183.962C342.715 182.555 343.037 181.179 343.295 179.788C343.392 179.254 343.52 178.704 343.762 178.219C344.486 176.763 344.776 175.161 345.243 173.624C345.501 172.783 345.887 171.957 346.322 171.197C346.885 170.194 347.883 170 348.93 170.048C349.461 170.081 349.751 170.501 350.024 170.938C350.926 172.41 351.377 174.045 351.699 175.727C352.069 177.588 352.89 179.222 354.226 180.548C355.305 181.616 356.625 182.231 358.203 182.409C360.054 182.619 361.777 182.409 363.468 181.584C364.707 180.985 365.979 180.435 367.283 179.998C369.054 179.416 370.889 179.222 372.709 179.659C373.465 179.837 374.222 180.193 374.882 180.629C376.492 181.681 377.78 183.056 378.698 184.771C379.535 186.341 380.372 187.926 381.354 189.415C382.594 191.308 383.769 193.314 385.475 194.835C387.262 196.42 389.355 197.391 391.851 197.083C393.074 196.922 394.298 196.808 395.522 196.647C396.005 196.582 396.487 196.485 396.938 196.307C398.242 195.789 399.53 195.239 400.818 194.657C402.058 194.09 403.378 194.09 404.698 194.107C405.068 194.107 405.439 194.382 405.793 194.576C406.131 194.786 406.421 195.077 406.759 195.288C408.079 196.129 408.208 197.407 407.87 198.718C407.532 200.093 406.936 201.371 405.873 202.39C405.197 203.037 404.65 203.83 404.006 204.542C403.652 204.946 403.217 205.286 402.718 205.739C402.493 205.141 402.315 204.688 402.171 204.235C402.058 203.862 401.849 203.733 401.462 203.798C400.416 203.992 399.369 204.105 398.371 204.526C397.502 204.882 396.568 205.092 395.666 205.383C395.457 205.448 395.264 205.561 395.071 205.642C395.892 207.39 395.892 207.422 394.781 209.169C393.863 208.457 392.833 208.344 391.738 208.716C391.159 208.91 390.788 209.363 390.499 209.849C390.016 210.674 389.919 211.564 390.096 212.518C390.289 213.505 390.998 214.007 391.738 214.46C391.448 215.9 390.37 216.337 389.178 216.563L389.146 216.547Z" fill="#F1645F"/>
<path d="M384.992 227.079C385.121 226.707 385.362 226.368 385.571 226.028C386.28 224.976 387.02 223.957 387.697 222.889C388.244 222.015 388.743 221.109 389.242 220.203C390.192 218.456 391.126 216.709 392.076 214.978C392.237 214.702 392.51 214.492 392.8 214.169C392.333 214.007 391.882 213.91 391.48 213.699C391.013 213.457 390.627 213.085 390.562 212.518C390.498 212.033 390.417 211.531 390.514 211.062C390.611 210.593 390.82 210.124 391.11 209.752C392.027 208.603 393.476 208.716 394.861 210.043C395.585 208.716 396.664 207.535 395.73 205.82C397.743 205.351 399.514 204.364 401.526 204.316C402.057 204.995 401.912 205.885 402.428 206.532C402.911 207.131 403.216 207.875 403.715 208.457C404.231 209.04 404.891 209.509 405.664 210.172C404.762 210.221 404.054 210.253 403.265 210.286C403.297 210.577 403.313 210.82 403.345 211.062C403.522 212.259 403.345 213.376 402.782 214.476C401.88 216.24 399.031 217.162 397.421 216.725C397.083 216.628 396.728 216.644 396.487 216.612C396.165 217.162 395.907 217.566 395.666 217.987C394.941 219.281 394.056 220.527 393.525 221.902C392.913 223.504 392.575 225.203 392.156 226.885C391.963 227.694 391.866 228.519 391.721 229.345C391.689 229.506 391.657 229.717 391.56 229.814C390.884 230.396 390.224 230.995 389.5 231.496C388.92 231.901 388.228 231.836 387.616 231.496C386.457 230.865 385.555 229.959 384.863 228.827C384.493 228.228 384.766 227.646 384.96 227.096L384.992 227.079Z" fill="#F78F43"/>
<path d="M375.977 232.677C375.397 230.962 374.061 229.814 372.692 228.778C370.358 226.999 367.798 225.575 365.109 224.394C364.144 223.973 363.129 223.649 362.067 223.261C361.777 224.733 361.487 226.109 361.246 227.484C360.908 229.377 360.602 231.286 360.296 233.195C359.813 236.237 359.346 239.295 358.541 242.272C358.412 242.741 358.267 243.21 358.042 243.647C357.736 244.229 357.172 244.391 356.673 244.003C355.546 243.161 354.436 242.255 354.146 240.751C354.114 240.621 354.114 240.476 354.097 240.33C355.144 240.33 355.482 241.301 356.271 241.883C356.303 241.576 356.384 241.382 356.351 241.236C355.434 237.628 354.935 233.939 354.564 230.25C354.355 228.131 354.017 226.028 353.824 223.892C353.631 221.708 353.534 219.524 353.389 217.34C353.341 216.628 353.309 215.9 353.26 215.188C353.131 213.214 353.421 211.272 353.647 209.331C353.695 208.975 353.824 208.603 353.985 208.263C354.291 207.681 354.613 207.098 354.983 206.548C355.208 206.241 355.514 205.901 355.852 205.772C356.915 205.367 358.026 205.302 359.137 205.707C360.441 206.192 361.616 206.823 362.743 207.665C363.902 208.554 365.109 209.363 366.188 210.383C368.297 212.373 370.438 214.314 372.386 216.482C373.433 217.647 374.721 218.602 375.864 219.686C376.604 220.397 377.313 221.158 378.021 221.902C378.198 222.08 378.359 222.307 378.569 222.452C379.599 223.18 380.372 224.135 381.145 225.089C381.354 225.348 381.611 225.591 381.869 225.834C382.497 226.465 383.141 227.079 383.769 227.71C384.123 228.066 384.236 228.471 384.059 228.972C383.737 229.83 383.479 230.72 383.109 231.561C382.642 232.645 382.11 233.697 381.579 234.748C381.418 235.072 381.177 235.379 380.919 235.654C380.195 236.399 379.631 236.496 378.794 235.881C377.635 235.039 376.508 234.15 376.009 232.694L375.977 232.677Z" fill="#F78F43"/>
<path d="M376.974 235.12C377.312 235.379 377.65 235.606 377.972 235.881C379.695 237.353 380.822 236.9 381.772 235.282C382.593 233.907 383.156 232.386 383.816 230.914C384.042 230.396 384.235 229.862 384.492 229.231C384.734 229.506 384.911 229.684 385.056 229.878C385.636 230.687 386.392 231.302 387.229 231.82C388.034 232.321 388.92 232.402 389.757 231.949C390.272 231.658 390.723 231.254 391.206 230.881C391.351 230.768 391.496 230.639 391.705 230.477C391.786 231.577 391.818 232.564 391.947 233.551C392.075 234.506 392.301 235.444 392.494 236.431C392.301 236.415 392.204 236.431 392.14 236.399C389.87 235.509 387.616 234.603 385.346 233.697C385.217 233.648 385.088 233.583 384.943 233.535C384.299 233.325 384.17 233.389 383.897 234.036C383.269 235.557 382.673 237.078 382.029 238.583C381.788 239.165 381.466 239.715 381.192 240.281C381.546 240.734 382.045 240.799 382.496 240.929C383.591 241.268 384.702 241.527 385.797 241.867C386.666 242.142 387.503 242.498 388.34 242.822C387.117 244.003 385.941 245.135 384.67 246.365C383.575 245.831 382.432 245.232 381.256 244.731C380.5 244.407 379.679 244.245 378.874 244.051C378.246 243.889 377.618 243.776 376.894 243.614C378.133 240.718 377.28 237.968 376.958 235.12H376.974Z" fill="#27306E"/>
<path d="M376.895 244.083C377.957 244.31 379.084 244.537 380.195 244.795C380.42 244.844 380.63 244.925 380.839 245.038C381.918 245.572 382.98 246.122 384.172 246.721C384.123 246.915 384.091 247.206 383.978 247.481C383.383 248.872 382.706 250.248 382.159 251.671C381.66 252.95 381.306 254.292 380.855 255.7C377.506 255.49 374.174 255.037 370.696 254.697C372.821 251.057 374.85 247.594 376.878 244.1L376.895 244.083Z" fill="#F78F43"/>
<path d="M324.185 283.479C323.637 284.094 323.154 284.806 322.349 285.194C322.156 285.275 321.802 285.356 321.738 285.259C321.577 285.065 321.432 284.725 321.496 284.515C321.883 283.301 322.478 282.201 323.412 281.295C323.525 281.198 323.734 281.134 323.879 281.15C324.394 281.247 324.909 281.392 325.634 281.57C324.974 282.072 324.458 282.444 323.895 282.865C323.975 283.043 324.072 283.221 324.201 283.479H324.185Z" fill="#F78F43"/>
<path d="M370.68 282.541C369.166 285.049 367.717 287.621 366.091 290.048C364.61 292.265 363.29 294.611 361.519 296.633C360.553 297.733 359.49 298.672 358.251 299.4C356.866 300.209 355.353 300.306 353.823 300.015C350.877 299.464 348.06 298.51 345.436 297.005C344.341 296.374 343.198 295.824 342.103 295.226C341.668 294.999 341.25 294.74 340.863 294.449C339.157 293.187 337.466 291.893 335.744 290.663C334.713 289.935 333.635 289.272 332.572 288.608C330.672 287.427 328.757 286.262 327.066 284.774C326.664 284.418 326.197 284.111 325.762 283.803C325.537 283.641 325.295 283.496 325.021 283.318C325.408 282.784 325.762 282.298 326.165 281.765C326.809 282.007 327.436 282.266 328.08 282.493C329.175 282.897 330.286 283.285 331.397 283.69C331.59 283.755 331.783 283.803 331.976 283.868C333.651 284.531 335.325 285.211 336.999 285.858C337.402 286.02 337.804 286.165 338.223 286.279C340.139 286.861 342.071 287.427 343.987 288.01C345.001 288.317 346.015 288.592 346.997 288.964C348.108 289.401 349.251 289.369 350.378 289.369C351.296 289.369 352.197 289.272 353.115 289.142C353.421 289.094 353.775 288.9 353.984 288.673C354.435 288.188 354.822 287.654 355.192 287.104C355.868 286.036 356.464 284.903 357.188 283.884C358.363 282.234 359.233 280.422 360.183 278.642C360.344 278.335 360.489 278.027 360.666 277.671C364.063 279.305 367.669 280.211 371.275 281.457C371.066 281.878 370.905 282.201 370.728 282.525L370.68 282.541Z" fill="#F78F43"/>
<path d="M371.613 280.907C369.891 280.729 361.889 277.914 360.939 277.154C361.567 276.102 362.227 275.05 362.823 273.982C363.58 272.623 364.256 271.232 365.013 269.873C365.769 268.514 366.558 267.187 367.411 265.715C367.669 266.006 367.846 266.184 367.991 266.362C368.619 267.22 369.424 267.818 370.39 268.255C371.275 268.66 372.112 269.177 372.998 269.582C374.173 270.116 375.365 270.585 376.669 271.151C375.381 274.646 373.111 277.59 371.613 280.907Z" fill="#27306E"/>
<path d="M387.198 273.319C386.489 273.141 385.797 272.996 385.121 272.801C383.125 272.267 381.161 271.669 379.148 271.167C376.572 270.52 374.061 269.776 371.775 268.368C371.485 268.19 371.179 268.029 370.857 267.899C369.714 267.479 368.909 266.67 368.12 265.764C367.363 264.874 367.202 263.968 367.444 262.9C367.476 262.787 367.492 262.673 367.476 262.56C367.444 259.81 368.877 257.642 370.213 255.425C370.406 255.118 370.631 255.085 370.937 255.134C373.352 255.425 375.767 255.733 378.182 255.991C378.955 256.072 379.728 256.072 380.5 256.153C380.822 256.186 381.161 256.283 381.45 256.412C382.207 256.768 382.931 257.172 383.672 257.545C384.413 257.917 385.153 258.305 385.894 258.677C386.489 258.968 387.085 259.243 387.697 259.47C388.776 259.874 389.854 260.214 390.933 260.861C390.74 261.541 390.547 262.204 390.353 262.851C390.16 263.482 389.903 264.097 389.725 264.728C389.452 265.699 389.21 266.67 388.953 267.64C388.92 267.754 388.92 267.867 388.856 267.964C388.035 269.42 387.826 271.07 387.455 272.656C387.407 272.85 387.311 273.028 387.198 273.319Z" fill="#27306E"/>
<path d="M429.539 306.211C428.074 303.671 426.625 301.115 425.144 298.591C424.21 296.973 423.261 295.355 422.246 293.786C421.506 292.637 420.636 291.553 419.815 290.436C419.622 290.178 419.445 289.935 419.268 289.66C418.559 288.576 417.916 287.46 417.159 286.408C415.613 284.24 413.73 282.396 411.701 280.681C410.928 280.017 410.011 279.645 409.061 279.273C406.437 278.221 403.635 277.784 400.963 276.943C399.111 276.361 397.26 275.697 395.408 275.131C394.394 274.824 393.348 274.63 392.317 274.387C390.836 274.047 389.355 273.707 387.777 273.351C388.228 271.588 388.373 269.857 389.242 268.32C389.371 268.093 389.419 267.834 389.468 267.575C389.79 265.359 390.82 263.369 391.384 261.104C391.963 261.314 392.527 261.444 393.026 261.703C394.636 262.56 396.423 262.948 398.129 263.515C399.707 264.032 401.349 264.372 402.927 264.874C405.116 265.569 407.306 266.249 409.351 267.333C410.542 267.964 411.782 268.498 412.973 269.129C414.535 269.97 416.112 270.795 417.384 272.089C417.899 272.623 418.559 273.028 419.059 273.578C420.765 275.487 422.021 277.671 423.051 280.001C423.534 281.085 424.033 282.137 424.484 283.237C425.144 284.855 425.772 286.505 426.4 288.139C426.754 289.045 427.028 290 427.43 290.889C428.445 293.203 428.767 295.711 429.491 298.105C430.215 300.467 430.924 302.846 431.632 305.208C431.777 305.677 431.938 306.146 432.083 306.599C432.421 307.7 432.743 308.8 433.081 309.9C433.162 310.175 433.21 310.45 433.29 310.79C432.985 310.854 432.711 310.903 432.357 310.984C431.407 309.382 430.473 307.797 429.555 306.211H429.539Z" fill="#F78F43"/>
<path d="M434.45 314.705C433.757 313.67 433.049 312.715 432.775 311.485C433.838 311.065 433.532 312.294 434.047 312.505C434.546 312.262 434.096 311.89 434.192 311.582C435.448 311.485 436.72 311.372 438.008 311.291C438.394 311.275 438.732 311.421 438.974 311.858C437.863 313.395 436.172 314.009 434.466 314.705H434.45Z" fill="#F78F43"/>
<path d="M400.85 208.021C399.9 207.778 399.546 207.212 399.819 206.419C399.964 206.014 400.27 205.917 400.608 206.192C401.043 206.548 401.172 207.357 400.85 208.021Z" fill="#F78F43"/>
<g clip-path="url(#clip1_1619_114)">
<path d="M375.19 119.171C374.398 120.142 373.544 121.071 372.648 121.937C368.417 126.018 362.998 128.951 356.954 130.193V126.529C361.977 125.35 366.479 122.835 370.032 119.411C371.199 118.284 372.262 117.063 373.21 115.758L375.201 119.171H375.19Z" fill="#ED1C24"/>
<path d="M388.299 115.351C384.339 111.531 381.88 106.26 381.88 100.467V84.4142H378.181V100.467C378.181 103.285 377.712 106.604 376.868 109.161C376.013 106.604 375.555 103.285 375.555 100.467V84.4142H371.845V100.467C371.845 106.26 369.386 111.531 365.426 115.351C363.071 117.637 360.163 119.401 356.943 120.444V124.191C361.195 123.022 364.999 120.82 368.041 117.877C370.334 115.664 372.189 113.044 373.481 110.132C374.45 112.658 375.513 115.048 376.847 116.864C378.181 115.048 379.244 112.658 380.213 110.132C381.505 113.044 383.36 115.674 385.652 117.877C388.695 120.82 392.499 123.022 396.75 124.191V120.444C393.53 119.39 390.633 117.626 388.268 115.351" fill="#ED1C24"/>
<path d="M365.937 100.133C365.937 104.36 364.144 108.201 361.258 110.978C360.007 112.188 358.559 113.19 356.954 113.952V117.845C359.57 116.885 361.925 115.393 363.884 113.514C367.437 110.08 369.636 105.352 369.636 100.133V96.5112H365.937V100.133Z" fill="#ED1C24"/>
<path d="M387.81 96.5112H384.11V100.133C384.11 105.341 386.32 110.08 389.873 113.514C391.822 115.393 394.177 116.885 396.792 117.845V113.952C395.198 113.19 393.739 112.188 392.489 110.978C389.602 108.191 387.81 104.35 387.81 100.133V96.5112Z" fill="#ED1C24"/>
<path d="M380.536 115.758C381.485 117.063 382.547 118.284 383.715 119.421C387.268 122.845 391.759 125.36 396.782 126.54V130.203C390.738 128.961 385.319 126.028 381.089 121.947C380.182 121.071 379.338 120.152 378.546 119.181L380.536 115.768V115.758Z" fill="#ED1C24"/>
<path d="M303.031 98.3V106.7L294.031 124.45V126H303.031V131H288.781V123.75L297.781 106V101H294.031V106H288.781V98.3C288.781 97.6333 288.981 97.0833 289.381 96.65C289.815 96.2167 290.381 96 291.081 96H300.731C301.431 96 301.981 96.2167 302.381 96.65C302.815 97.0833 303.031 97.6333 303.031 98.3ZM309.529 126H313.279V101H309.529V126ZM316.229 131H306.579C305.879 131 305.313 130.783 304.879 130.35C304.479 129.917 304.279 129.367 304.279 128.7V98.3C304.279 97.6333 304.479 97.0833 304.879 96.65C305.313 96.2167 305.879 96 306.579 96H316.229C316.929 96 317.479 96.2167 317.879 96.65C318.313 97.0833 318.529 97.6333 318.529 98.3V128.7C318.529 129.367 318.313 129.917 317.879 130.35C317.479 130.783 316.929 131 316.229 131ZM334.016 98.3V106.7L325.016 124.45V126H334.016V131H319.766V123.75L328.766 106V101H325.016V106H319.766V98.3C319.766 97.6333 319.966 97.0833 320.366 96.65C320.799 96.2167 321.366 96 322.066 96H331.716C332.416 96 332.966 96.2167 333.366 96.65C333.799 97.0833 334.016 97.6333 334.016 98.3ZM344.264 112.5H340.514V114.5H335.264V96H349.264V101H340.514V107.5H347.214C347.914 107.5 348.464 107.717 348.864 108.15C349.297 108.583 349.514 109.133 349.514 109.8V128.7C349.514 129.367 349.297 129.917 348.864 130.35C348.464 130.783 347.914 131 347.214 131H337.564C336.864 131 336.297 130.783 335.864 130.35C335.464 129.917 335.264 129.367 335.264 128.7V119.5H340.514V126H344.264V112.5Z" fill="#5EBDEB"/>
<path d="M353.015 86.5017H288V89.633H353.015V86.5017Z" fill="#ED1C24"/>
<path d="M397.949 138.825H289.24V141.549H397.949V138.825Z" fill="#ED1C24"/>
</g>
<path d="M242.525 33.8V26.6H253.325V77H245.765V33.8H242.525ZM268.811 50.36H263.411V53.24H255.851V26.6H276.011V33.8H263.411V43.16H273.059C275.075 43.16 276.371 44.528 276.371 46.472V73.688C276.371 75.632 275.075 77 273.059 77H259.163C257.147 77 255.851 75.632 255.851 73.688V60.44H263.411V69.8H268.811V50.36ZM311.985 77H304.425V48.776L296.145 66.128V77H288.585V26.6H296.145V52.232L304.425 34.88V26.6H311.985V77ZM342.496 77H328.96C326.944 77 325.648 75.632 325.648 73.688V53.96H321.688V77H314.128V26.6H321.688V46.76H325.648V29.912C325.648 27.968 326.944 26.6 328.96 26.6H342.496C344.512 26.6 345.808 27.968 345.808 29.912V73.688C345.808 75.632 344.512 77 342.496 77ZM333.208 69.8H338.248V33.8H333.208V69.8ZM363.808 26.6H371.368V77H363.808V53.24H355.528V77H347.968V26.6H355.528V46.04H363.808V26.6ZM380.064 77H372.072L379.488 53.24H377.184C375.168 53.24 373.872 51.872 373.872 49.928V29.912C373.872 27.968 375.168 26.6 377.184 26.6H395.832V77H388.272V53.24H387.552L380.064 77ZM388.272 46.04V33.8H381.432V46.04H388.272Z" fill="#F78F43"/>
<g clip-path="url(#clip2_1619_114)">
<path d="M101.713 55.9703C101.713 57.1948 100.893 58.0583 99.6208 58.0583H87.8525V47.6084H92.6233V53.5147H96.9419V43.0648H92.6233V38.5212H96.9419V30.8001H92.6233V35.3437H87.8525V26.2565H99.6208C100.893 26.2565 101.713 27.12 101.713 28.3444V37.2495C101.713 39.0676 100.849 40.292 99.3948 40.7913C100.849 41.2939 101.713 42.4745 101.713 44.3364V55.967V55.9703Z" fill="#ED1C24"/>
<path d="M118.525 26.2565V58.0583H113.754V47.6084H109.209V58.0583H104.438V26.2565H118.525ZM113.754 30.8001H109.209V43.0681H113.754V30.8001Z" fill="#ED1C24"/>
<path d="M133.019 38.0692C134.291 38.0692 135.111 38.9327 135.111 40.1605V55.9703C135.111 57.1982 134.295 58.0617 133.019 58.0617H121.251V26.2565H134.656V30.8001H126.022V38.0692H133.019ZM126.022 53.5147H130.34V42.6094H126.022V53.5147Z" fill="#ED1C24"/>
<path d="M137.607 26.2565H149.423V30.8001H142.378V38.5212H149.194V43.0681H142.378V53.5147H149.423V58.0583H137.607V26.2565Z" fill="#ED1C24"/>
<path d="M163.284 26.2565V30.8001H156.695V58.0583H151.924V26.2565H163.284Z" fill="#ED1C24"/>
<path d="M106.105 72.3468C105.427 72.4278 105.086 72.4682 104.408 72.5357V78.8131C105.086 78.7422 105.427 78.7051 106.105 78.6242C106.105 76.7926 106.105 74.1818 106.105 72.3468Z" fill="#5EBDEB"/>
<path d="M137.402 74.111C138.081 74.0368 138.421 73.9996 139.099 73.9389C139.099 72.1073 139.099 68.6701 139.099 66.8385C138.421 66.9026 138.081 66.9363 137.402 67.0105C137.402 68.8421 137.402 72.2794 137.402 74.111Z" fill="#5EBDEB"/>
<path d="M157.46 56.0479L156.515 59.5121C156.34 59.3367 156.158 59.195 155.975 59.0972C132.945 46.5661 110.701 71.6857 87.5386 63.2765C86.938 62.9966 86.3847 63.3204 86.1013 64.1468C85.8179 64.9732 85.8482 66.174 86.1856 67.2703C87.768 71.9218 89.374 76.5194 91.0171 81.0968C88.4259 84.76 85.7065 88.1263 82.8319 90.9901C80.568 93.2434 83.7665 97.0381 85.639 98.1175C91.3005 101.376 98.2947 101.12 104.543 100.118C111.446 99.0114 118.022 96.4984 124.659 94.397C131.798 92.1336 139.295 90.1941 146.842 91.1284C146.741 91.1149 147.2 91.2161 147.851 91.3544L140.884 116.95L145.321 118.157L161.897 57.2589L157.46 56.0513V56.0479ZM101.098 89.5869C100.386 89.6308 100.029 89.6476 99.317 89.6746V81.0394C98.5376 81.0698 98.1462 81.0765 97.3668 81.0833V89.7185C96.6549 89.7252 96.2973 89.7185 95.5854 89.705C95.5854 85.7483 95.5854 75.1904 95.5854 71.2337C96.2973 71.2506 96.6549 71.2506 97.3668 71.2472V79.3866C98.1462 79.3798 98.5376 79.3731 99.317 79.3427C99.317 77.5111 99.317 73.035 99.317 71.2034C100.029 71.1764 100.386 71.1595 101.098 71.1157V89.5869ZM107.887 88.4232C107.175 88.521 106.817 88.5682 106.105 88.6525V80.3176C105.427 80.3985 105.086 80.439 104.408 80.5065V89.054C103.696 89.1282 103.339 89.1619 102.627 89.2192C102.627 85.2626 102.627 74.961 102.627 71.0044C104.732 70.8323 105.781 70.7109 107.887 70.4208V88.4232ZM117.978 70.3871V85.1951C118.623 85.0703 118.946 85.0062 119.591 84.8814V82.6754C120.303 82.5337 120.66 82.4662 121.372 82.3246V86.2273C119.615 86.5747 118.737 86.7501 116.979 87.0874C116.504 87.1785 116.2 86.912 116.2 86.4566V69.817C116.2 69.3583 116.507 68.9805 116.979 68.8894C118.737 68.5521 119.615 68.3767 121.372 68.0293C121.372 69.3853 121.372 70.0633 121.372 71.4226C120.66 71.5643 120.303 71.6351 119.591 71.7734V70.0767C118.946 70.2049 118.623 70.2656 117.978 70.3904V70.3871ZM127.648 68.5049C126.97 68.6297 126.629 68.6938 125.951 68.8219V85.3401C125.239 85.4751 124.881 85.5459 124.169 85.6842V69.166C123.491 69.2976 123.15 69.365 122.472 69.4999V67.8033C124.54 67.3951 125.576 67.1894 127.648 66.8082V68.5049ZM134.095 83.9841C133.384 84.0853 133.026 84.1393 132.314 84.254V76.29C131.636 76.398 131.295 76.452 130.617 76.5666V84.5306C129.905 84.652 129.547 84.7127 128.835 84.8409V66.5957C130.941 66.2179 131.99 66.0425 134.095 65.7389V83.9841ZM140.88 74.708C140.88 75.1668 140.573 75.5075 140.101 75.548C139.021 75.6357 138.482 75.6863 137.402 75.8077V83.4917C136.69 83.5726 136.332 83.6131 135.62 83.7076V65.5298C137.412 65.297 138.309 65.1992 140.101 65.0542C140.577 65.0171 140.88 65.3173 140.88 65.776V74.708ZM147.159 66.5316C146.481 66.5147 146.14 66.5114 145.462 66.5147C145.462 69.9081 145.462 79.6058 145.462 82.9992C144.75 82.9992 144.393 83.0093 143.681 83.0295V66.5451C143.003 66.5653 142.662 66.5822 141.984 66.6193V64.9226C144.052 64.8079 145.088 64.7843 147.159 64.8315V66.5282V66.5316ZM150.213 82.8575C149.535 82.8036 149.194 82.7799 148.516 82.7496V81.036C149.194 81.0698 149.535 81.09 150.213 81.144V82.8575ZM150.213 75.4872C150.078 77.1569 150.01 77.9901 149.872 79.6598C149.464 79.6294 149.261 79.6159 148.853 79.5957C148.718 77.9091 148.651 77.0659 148.512 75.3793V64.8113C149.19 64.845 149.531 64.8653 150.209 64.9192C150.209 66.7711 150.209 73.6354 150.209 75.4872H150.213Z" fill="#5EBDEB"/>
<path d="M132.314 67.702C131.636 67.81 131.295 67.8639 130.617 67.9786V74.8699C131.295 74.7552 131.636 74.6979 132.314 74.5933V67.702Z" fill="#5EBDEB"/>
</g>
</g>
<defs>
<clipPath id="clip0_1619_114">
<rect width="480" height="321.417" fill="white"/>
</clipPath>
<clipPath id="clip1_1619_114">
<rect width="109.949" height="115.282" fill="white" transform="translate(288 26.2565)"/>
</clipPath>
<clipPath id="clip2_1619_114">
<rect width="81.2308" height="91.8974" fill="white" transform="translate(82.0518 26.2565)"/>
</clipPath>
</defs>
</svg>
