<svg width="480" height="1258" viewBox="0 0 480 1258" fill="none" xmlns="http://www.w3.org/2000/svg">
<g clip-path="url(#clip0_1088_10213)">
<rect width="480" height="1257" transform="translate(0 0.417236)" fill="#0098D7"/>
<path d="M-24.6397 1626.42C-24.6397 1626.42 -99.434 1359.81 7.87229 1296.05C115.178 1232.28 355.854 1156.44 447.813 1142.96C539.771 1129.48 596.188 1207.1 597 1271.87L-24.6397 1626.42Z" fill="#CAEFFC"/>
<g filter="url(#filter0_d_1088_10213)">
<path d="M526.759 1258.53C501.264 1310.09 424.374 1303.01 354.951 1306.09C300.393 1308.48 197.4 1409.56 56.9985 1495.74C-84.9662 1582.93 -216.961 1486.17 -213.949 1419.3C-210.934 1351.11 -142.14 1323.01 47.7081 1229.12C182.289 1162.57 467.784 1135.26 518.54 1196.89C533.404 1215.21 537.957 1236.22 526.759 1258.53Z" fill="#88D8FC"/>
</g>
<path d="M-187.95 1478.24C-205.557 1459.2 -214.788 1438.38 -213.947 1419.6C-210.896 1350.25 -139.536 1321.32 47.7 1228.38C111.717 1196.6 213.91 1171.91 314.388 1163.97C418.889 1155.72 495.13 1167.74 518.434 1196.15C527.085 1206.85 533.749 1220.1 532.932 1236.04C532.359 1244.21 530.206 1252.02 526.7 1258.65C504.882 1302.96 447.002 1304.27 385.727 1305.65C332.934 1306.87 330.743 1301.74 207.599 1392.66C163.562 1425.17 113.649 1462.02 57.2509 1496.78C-36.6139 1554.67 -135.946 1534.16 -187.95 1478.24ZM362.509 1162.55C267.767 1164.4 133.838 1186.68 47.942 1229.34C-139.721 1322.53 -210.207 1351.31 -213.21 1419.66C-216.185 1486.01 -84.8035 1583.29 56.9512 1495.86C113.328 1461.11 163.226 1424.27 207.249 1391.77C330.279 1300.95 333.524 1305.82 385.716 1304.64C446.796 1303.26 504.487 1301.96 526.092 1258.07C529.525 1251.59 531.632 1243.96 532.191 1235.97C533.006 1220.29 526.35 1207.32 517.948 1196.9C498.516 1173.22 441.832 1161.01 362.509 1162.55Z" fill="#0F2572"/>
<path d="M75.529 1198.62C67.3425 1195.52 70.8621 1188.23 69.249 1181.3C68.4328 1177.82 66.2535 1175.87 66.1595 1173.57C66.1509 1173.56 66.151 1173.56 66.1586 1173.55C66.1406 1173.48 66.1258 1173.4 66.1142 1173.32C65.3291 1168.26 57.6285 1164.17 53.6068 1164.44C49.4819 1164.72 45.5404 1170.15 43.0817 1174.44C37.4802 1184.23 42.8335 1184.79 36 1193.11C34.202 1196.33 21.7899 1200.91 35.2358 1218.47C37.3311 1221.24 39.7712 1223.53 42.455 1225.25C47.8269 1228.33 52.3714 1224.03 57.6214 1223.51C62.7011 1222.98 66.1458 1224.29 72.5865 1215.44C75.6633 1211.28 79.3273 1200.07 75.529 1198.62Z" fill="white"/>
<path d="M47.0854 1226.51C42.0276 1226.86 38.5063 1222.51 35.1314 1218.61C33.6049 1216.7 32.2201 1214.61 30.995 1212.37C24.4361 1199.88 34.5281 1195.44 35.8818 1193C42.6668 1184.74 37.3513 1184.14 42.9658 1174.33C46.3953 1168.34 50.551 1163.15 56.0688 1164.48C58.5091 1165.04 65.4653 1168.16 66.2577 1173.28C66.6827 1176.34 68.5777 1177.77 69.3882 1181.25C71.0368 1188.31 67.486 1195.38 75.5704 1198.44C78.3995 1199.52 77.1317 1205.7 75.8208 1209.35C73.8145 1214.86 70.4039 1219.32 66.1545 1221.99C63.4312 1223.29 60.5343 1223.86 57.6346 1223.69C54.0076 1224.06 50.6518 1226.27 47.0854 1226.51ZM35.3969 1218.42C46.1494 1232.14 49.5826 1223.51 59.405 1223.22C61.3081 1223.4 63.2186 1223.04 65.0044 1222.18C74.7119 1217.84 79.6716 1200.4 75.4876 1198.81C69.6902 1196.6 69.6582 1192.24 69.6237 1187.61C69.9276 1184.02 69.1783 1180.42 67.5229 1177.51C66.8098 1176.39 66.2994 1175.07 66.0286 1173.67C66.0117 1173.63 66.0044 1173.59 66.0078 1173.55C65.9924 1173.49 65.98 1173.42 65.9708 1173.35C65.1978 1168.37 57.5431 1164.36 53.6166 1164.63C49.3316 1164.92 45.2538 1170.97 43.203 1174.55C37.6141 1184.3 43.0007 1184.85 36.0997 1193.25C34.0551 1196.94 21.9045 1200.86 35.3235 1218.32C35.3542 1218.35 35.3796 1218.38 35.3969 1218.42Z" fill="#0F2572"/>
<path d="M66.0939 1221.82C66.0773 1221.81 66.0696 1221.82 66.0616 1221.83C63.3661 1223.12 60.4943 1223.69 57.6218 1223.51C51.9621 1224.07 47.5941 1228.74 41.6189 1224.74C39.2914 1223.01 37.1463 1220.91 35.2362 1218.47C31.4232 1213.49 34.7779 1218.43 38.4933 1216.93C39.0471 1216.75 39.548 1216.37 39.9346 1215.83C40.3212 1215.29 40.5765 1214.62 40.6693 1213.89C41.0874 1209.95 36.7276 1204.68 38.7432 1201.5C39.9 1199.67 42.3845 1199.98 44.4073 1199.57C46.7699 1198.91 48.8401 1197.09 50.1814 1194.51C51.5227 1191.92 52.0304 1188.77 51.5975 1185.71C50.9599 1181.68 48.8622 1177.26 50.6581 1173.91C52.2359 1170.98 54.9955 1171.72 56.0393 1164.66C59.2122 1165.59 62.1982 1167.36 64.8032 1169.87C66.4141 1171.34 65.7219 1172.95 66.5315 1175.08C64.2466 1177.63 60.7893 1183.57 61.0734 1187.43C61.1114 1188.32 61.381 1189.16 61.8389 1189.83C62.2968 1190.5 62.9163 1190.95 63.5978 1191.11C64.7539 1191 65.8814 1190.59 66.9183 1189.93C68.0254 1189.47 69.5858 1189.72 69.8503 1191.01C70.0653 1192.07 69.2088 1193.07 68.5264 1193.94C67.4241 1195.23 66.5904 1196.86 66.1005 1198.67C65.6106 1200.49 65.4801 1202.43 65.7208 1204.32C65.8732 1205.17 66.181 1205.95 66.6185 1206.61C67.0559 1207.27 67.6101 1207.78 68.2344 1208.11C68.8586 1208.43 69.5346 1208.56 70.2054 1208.48C70.8763 1208.4 71.5222 1208.11 72.089 1207.65C74.04 1206.03 75.7372 1203.95 77.0922 1201.53C77.6737 1207.03 73.228 1217.53 66.0939 1221.82Z" fill="white"/>
<path d="M41.9761 1225.18C38.7255 1222.92 35.8272 1219.91 33.4271 1216.3C33.4052 1216.27 33.3924 1216.23 33.3908 1216.19C33.3892 1216.14 33.3989 1216.1 33.4184 1216.07C33.4378 1216.03 33.4659 1216.01 33.4979 1216C33.5298 1215.99 33.5639 1215.99 33.5944 1216C35.0966 1216.97 36.814 1217.24 38.4519 1216.76C38.9802 1216.59 39.4586 1216.23 39.8276 1215.71C40.1966 1215.2 40.4398 1214.56 40.5268 1213.87C40.9331 1209.99 36.5402 1204.68 38.6303 1201.38C39.8327 1199.48 42.3821 1199.79 44.3824 1199.39C46.7056 1198.73 48.7408 1196.95 50.06 1194.4C51.3791 1191.86 51.8795 1188.75 51.456 1185.75C50.8065 1181.71 48.703 1177.22 50.5394 1173.8C51.4724 1172.52 52.529 1171.39 53.6836 1170.44C55.9661 1167.82 55.5662 1164.39 56.0651 1164.48C59.2598 1165.41 62.2663 1167.19 64.8892 1169.71C65.3209 1170.16 65.67 1170.72 65.9106 1171.35C66.1512 1171.99 66.2771 1172.69 66.2792 1173.4C66.284 1173.43 66.2907 1173.46 66.2993 1173.5C66.3091 1173.59 66.3237 1173.68 66.3431 1173.77C66.4129 1174.15 66.5058 1174.52 66.6209 1174.88L66.6623 1175C66.6764 1175.04 66.6805 1175.08 66.6741 1175.12C66.6677 1175.16 66.6511 1175.2 66.6269 1175.22C64.3796 1177.73 60.9432 1183.64 61.2181 1187.41C61.2561 1188.25 61.5122 1189.06 61.9457 1189.7C62.3793 1190.33 62.9657 1190.77 63.6124 1190.93C65.4599 1191.15 67.3095 1188.5 69.3188 1189.91C69.4814 1190.02 69.6253 1190.16 69.7414 1190.34C69.8576 1190.52 69.9434 1190.73 69.9936 1190.96C70.4301 1193.12 67.3916 1194.1 66.0685 1199.35C65.2511 1202.67 65.6813 1206.44 68.1156 1207.84C72.6434 1210.42 76.5881 1201.15 77.1326 1201.35C77.3187 1201.43 77.2744 1202.48 77.2627 1202.73C77.0263 1210.92 70.1524 1221.72 62.9771 1223.24C58.5742 1224.21 59.2865 1222.62 52.4501 1225.11C48.5337 1226.53 45.6518 1227.41 41.9761 1225.18ZM35.3972 1218.42C46.0422 1231.67 49.4876 1224.14 57.6112 1223.32C60.0853 1223.42 62.5571 1223.04 64.9444 1222.2C64.9615 1222.19 64.9809 1222.18 65.0005 1222.18C65.2886 1222.04 65.6078 1221.88 66.0067 1221.66C71.1584 1219.06 77.263 1209.02 76.9759 1202C72.2036 1209.41 69.8551 1209.24 67.9992 1208.18C64.5945 1206.24 64.3216 1198.9 68.5424 1193.65C69.1744 1192.86 69.8915 1191.95 69.712 1191.05C69.6719 1190.88 69.6037 1190.71 69.5116 1190.57C69.4196 1190.43 69.3057 1190.32 69.1774 1190.24C67.307 1188.91 65.5466 1191.53 63.587 1191.3C62.8726 1191.13 62.2229 1190.66 61.7409 1189.96C61.2589 1189.26 60.9722 1188.38 60.9261 1187.44C60.6414 1183.57 64.0299 1177.66 66.3539 1175.03C66.1936 1174.58 66.0795 1174.1 66.0144 1173.61L66.0186 1173.61L66.0136 1173.59C65.8124 1172.7 65.9556 1171.16 64.7221 1170.02C62.1683 1167.57 59.253 1165.83 56.1549 1164.88C56.034 1166.32 55.656 1167.69 55.0507 1168.91C54.4455 1170.12 53.6293 1171.14 52.6664 1171.89C48.0771 1175.9 50.7465 1179.42 51.7382 1185.67C52.1804 1188.78 51.6652 1191.99 50.3015 1194.61C48.9377 1197.24 46.8322 1199.09 44.4301 1199.76C42.4451 1200.16 39.9654 1199.87 38.8601 1201.62C36.9187 1204.67 41.2434 1209.91 40.8143 1213.92C40.7213 1214.68 40.456 1215.39 40.0515 1215.95C39.647 1216.52 39.1212 1216.93 38.5397 1217.11C35.1057 1218.5 32.427 1214.55 35.3241 1218.32C35.3537 1218.35 35.3787 1218.38 35.3972 1218.42Z" fill="#0F2572"/>
<path d="M73.9543 1212.58L74.0408 1213.05C73.6065 1213.89 73.1204 1214.69 72.5871 1215.44C70.7869 1218.14 68.5632 1220.32 66.0618 1221.83C63.3663 1223.12 60.4945 1223.69 57.622 1223.51C50.069 1224.26 46.4757 1231.03 37.0625 1220.64C38.2642 1221.39 39.512 1222.01 40.7932 1222.5C41.5174 1222.75 42.2741 1222.79 43.0129 1222.64C43.7517 1222.48 44.4559 1222.12 45.0787 1221.58C45.7016 1221.05 46.229 1220.35 46.626 1219.53C47.023 1218.72 47.2805 1217.8 47.3814 1216.85C47.426 1214.55 45.835 1212.15 46.1678 1209.91C46.5722 1207.23 49.2697 1206.77 51.2091 1205.52C52.3315 1204.75 53.2981 1203.66 54.0312 1202.32C54.7643 1200.99 55.2435 1199.45 55.4302 1197.83C55.9239 1193.35 54.0727 1188.98 53.9712 1184.5C53.9142 1182.48 54.4313 1181.88 55.7064 1180.86C62.2783 1175.53 58.7943 1171.63 60.1306 1166.37C61.7695 1167.35 63.3338 1168.52 64.8034 1169.87C66.3154 1171.25 65.9095 1173.28 66.1602 1173.57C66.1599 1173.58 66.1605 1173.59 66.1621 1173.59C66.1637 1173.6 66.1661 1173.6 66.1693 1173.6C66.1725 1173.68 66.1838 1173.75 66.2029 1173.82C66.4414 1175.05 66.6173 1174.72 66.076 1175.31C63.3428 1178.48 59.9838 1182.12 58.3892 1187.21C57.7714 1188.9 57.625 1190.81 57.9745 1192.63C58.172 1193.52 58.6061 1194.29 59.2013 1194.81C59.7964 1195.33 60.5149 1195.57 61.2316 1195.48C61.8298 1195.35 62.4001 1194.93 62.9965 1194.75C63.593 1194.58 64.3416 1194.73 64.5726 1195.39C64.8396 1196.14 64.346 1197.03 64.3958 1197.86C64.4597 1198.82 65.1283 1199.21 65.9313 1199.29C65.7949 1199.82 65.6943 1200.37 65.6306 1200.92C65.3617 1203.07 65.8471 1202.01 65.1079 1203.29C63.5902 1205.47 62.6233 1208.19 62.3353 1211.09C62.2896 1211.74 62.3588 1212.39 62.5376 1213C62.7164 1213.6 63.0002 1214.15 63.3674 1214.59C63.7346 1215.04 64.1755 1215.37 64.6569 1215.56C65.1383 1215.75 65.6474 1215.8 66.1457 1215.7C68.6439 1215.07 71.5628 1211.16 73.9543 1212.58Z" fill="white"/>
<path d="M36.9642 1220.78C36.9382 1220.75 36.9213 1220.71 36.9165 1220.67C36.9116 1220.62 36.9191 1220.58 36.9376 1220.54C36.9562 1220.5 36.9846 1220.47 37.0177 1220.46C37.0508 1220.45 37.0866 1220.45 37.1186 1220.47C38.3163 1221.2 39.556 1221.82 40.8269 1222.32C41.5301 1222.56 42.2648 1222.61 42.9825 1222.45C43.7001 1222.3 44.3843 1221.95 44.99 1221.43C45.5957 1220.92 46.109 1220.24 46.496 1219.45C46.8831 1218.66 47.1351 1217.77 47.2354 1216.84C47.2786 1214.57 45.6765 1212.19 46.025 1209.88C46.4489 1207.08 49.2033 1206.6 51.1439 1205.35C52.2449 1204.6 53.1931 1203.52 53.9125 1202.21C54.632 1200.9 55.1027 1199.39 55.2869 1197.81C55.8262 1192.87 52.9352 1185.52 54.0747 1182.52C54.45 1181.74 54.9892 1181.11 55.6308 1180.7C59.5924 1177.48 59.8163 1175.36 59.7093 1170.88C59.6853 1169.92 59.659 1166.43 60.0683 1166.2C61.7756 1167.12 63.3931 1168.31 64.8882 1169.71C65.2471 1170.05 65.547 1170.48 65.7688 1170.97C65.9905 1171.47 66.1291 1172.02 66.1755 1172.58C66.1745 1172.56 66.1867 1172.66 66.1863 1172.65C66.1948 1172.86 66.2504 1173.2 66.2782 1173.4C66.2812 1173.42 66.3033 1173.52 66.3041 1173.53C66.3255 1173.62 66.3082 1173.65 66.3378 1173.76C66.4074 1174.11 66.4922 1174.45 66.5919 1174.79C66.8105 1175.58 60.8013 1180.01 58.5212 1187.28C57.9079 1188.93 57.7638 1190.8 58.114 1192.57C58.304 1193.41 58.7161 1194.15 59.2799 1194.65C59.8437 1195.14 60.5243 1195.37 61.2054 1195.3C61.7853 1195.16 62.3633 1194.75 62.9655 1194.57C63.279 1194.44 63.6177 1194.44 63.9311 1194.57C64.2445 1194.7 64.5156 1194.97 64.704 1195.31C65.0062 1196.15 64.4889 1197.04 64.5424 1197.84C64.6051 1198.77 65.3376 1199.04 65.9433 1199.11C65.9651 1199.11 65.9862 1199.12 66.005 1199.13C66.0238 1199.15 66.04 1199.17 66.0522 1199.19C66.0645 1199.21 66.0726 1199.24 66.0759 1199.27C66.0793 1199.29 66.0779 1199.32 66.0717 1199.35C65.807 1200.38 65.6774 1201.45 65.6881 1202.53C65.6998 1203.02 62.4962 1207.06 62.4837 1211.1C62.467 1211.79 62.571 1212.48 62.7881 1213.11C63.0052 1213.75 63.33 1214.31 63.7385 1214.77C66.8675 1218.06 70.6059 1210.4 74.0172 1212.41C74.1029 1212.46 74.1201 1212.66 74.1381 1212.78L74.1803 1213.01C74.3097 1213.66 70.3742 1219.47 66.1537 1221.99C66.1441 1222 66.1333 1222 66.1219 1222.01C64.0292 1223.27 61.7175 1223.82 59.4115 1223.6C49.8776 1223.88 46.8577 1231.64 36.9642 1220.78ZM37.9538 1221.35C47.0341 1230.77 50.189 1223.49 59.4043 1223.22C61.3051 1223.37 63.2096 1223.02 64.9996 1222.18C69.8736 1219.86 73.9823 1213.51 73.8298 1212.71C70.584 1210.96 66.8245 1218.53 63.5546 1215.06C63.1128 1214.57 62.7611 1213.96 62.5251 1213.27C62.2891 1212.59 62.1746 1211.84 62.1899 1211.09C62.471 1208.15 63.448 1205.39 64.989 1203.18C65.6857 1201.97 65.2117 1203.05 65.4863 1200.89C65.5414 1200.4 65.6254 1199.92 65.7376 1199.46C64.8346 1199.3 64.3104 1198.75 64.2499 1197.87C64.1992 1197.06 64.6738 1196.12 64.4412 1195.47C64.239 1194.91 63.5728 1194.77 63.0294 1194.94C62.3515 1195.28 61.6496 1195.54 60.9332 1195.71C58.6569 1195.87 56.5535 1192.56 58.2546 1187.14C59.8074 1182.17 62.9284 1178.69 65.9754 1175.17C66.4281 1174.68 66.2663 1174.98 66.0609 1173.87C65.7226 1172.76 66.0634 1171.26 64.7212 1170.02C63.3023 1168.72 61.7962 1167.58 60.2206 1166.63C59.0701 1171.74 62.2995 1175.82 55.743 1181.05C54.5064 1182.04 54.07 1182.59 54.1186 1184.49C54.2155 1188.98 56.0747 1193.3 55.5746 1197.86C55.383 1199.51 54.8941 1201.07 54.1468 1202.43C53.3996 1203.79 52.4149 1204.91 51.2718 1205.69C47.8657 1207.88 45.0652 1207.53 46.8852 1213.56C47.3102 1214.45 47.5325 1215.47 47.5268 1216.52C47.5212 1217.56 47.2878 1218.58 46.8534 1219.46C46.2551 1220.79 45.3339 1221.82 44.2324 1222.4C43.1309 1222.99 41.9106 1223.09 40.7604 1222.69C39.798 1222.34 38.8593 1221.9 37.9538 1221.35Z" fill="#0F2572"/>
<path d="M56.6868 1232.61L50.7383 1233.01C51.9403 1229.87 52.719 1226.48 53.0413 1223C53.1159 1222.43 53.7097 1219.76 54.8439 1220.01C54.941 1220.03 55.7011 1220.5 55.776 1222.33C55.8478 1224.09 54.972 1229.01 56.6868 1232.61Z" fill="white"/>
<path d="M56.6943 1232.8L50.7466 1233.2C50.7207 1233.2 50.695 1233.19 50.6721 1233.18C50.6492 1233.16 50.63 1233.14 50.6167 1233.11C50.3402 1232.59 51.8267 1231.86 52.8227 1223.56C53.4412 1218.68 55.7825 1218.88 55.9236 1222.33C55.998 1224.14 55.1238 1228.97 56.813 1232.51C56.8257 1232.54 56.8327 1232.57 56.8331 1232.6C56.8336 1232.64 56.8276 1232.67 56.8157 1232.7C56.8038 1232.73 56.7864 1232.75 56.7651 1232.77C56.7438 1232.79 56.7195 1232.8 56.6943 1232.8ZM50.9914 1232.81L56.4391 1232.44C54.8596 1228.8 55.7008 1224.05 55.631 1222.35C55.5584 1220.57 54.8215 1220.2 54.8173 1220.19C53.9656 1219.99 53.3144 1222 53.1845 1223.03C52.8754 1226.42 52.1344 1229.73 50.9914 1232.81Z" fill="#0F2572"/>
<path d="M277 24.8655C322.292 18.3919 368.51 20.1376 390.075 22.8883C415.568 26.14 424.024 28.58 446.592 29.8081C466.652 30.8996 519.96 23.0707 513.135 28.9596C504.239 36.636 506.672 66.7003 519.957 79.235C521.889 81.058 458.758 85.5722 420.507 82.2008C367.772 77.5529 350.794 69.7578 316.167 73.304C303.34 74.6484 288.137 77.165 277.272 80.7181C283.631 71.3835 295.291 58.9959 298.824 49.7936C292.818 38.1139 283.631 33.5127 277 24.8655Z" fill="#FC645D"/>
<path d="M336.939 42.1372L339.643 36.2172H342.315L338.011 44.8732C337.035 46.8252 335.915 47.5932 334.347 47.5932C333.387 47.5932 332.635 47.3372 331.931 46.9372L332.891 45.1292C333.339 45.4012 333.787 45.4972 334.219 45.4972C334.667 45.4972 335.179 45.2892 335.627 44.6012L331.147 36.2172H333.899L336.939 42.1372ZM350.449 47.4172V43.2412C349.697 43.6092 348.625 44.0732 347.489 44.0732C345.265 44.0732 343.729 42.9052 343.729 40.3132V36.2172H346.193V39.5932C346.193 40.9852 346.737 41.7692 348.001 41.7692C348.993 41.7692 349.937 41.4492 350.449 41.0492V36.2172H352.913V47.4172H350.449ZM354.634 47.4172L359.434 36.1372H361.706L366.506 47.4172H363.93L362.906 44.9052H358.17L357.146 47.4172H354.634ZM359.05 42.7292H362.026L360.538 39.0972L359.05 42.7292ZM373.483 47.6092C370.187 47.6092 367.739 45.0652 367.739 41.8172C367.739 38.6332 370.139 36.0252 373.579 36.0252C375.691 36.0252 376.875 36.8252 377.915 37.8492L376.443 39.5452C375.579 38.7612 374.843 38.2972 373.563 38.2972C371.675 38.2972 370.315 39.8652 370.315 41.8172C370.315 43.7372 371.643 45.3372 373.563 45.3372C374.843 45.3372 375.627 44.8252 376.507 44.0252L378.075 45.7052C376.923 46.9372 375.643 47.6092 373.483 47.6092ZM382.655 47.4172V38.4892H379.247V36.2172H388.527V38.4892H385.119V47.4172H382.655ZM400.07 36.2172V47.4172H397.638V40.0732L392.742 47.4172H390.422V36.2172H392.854V43.5612L397.782 36.2172H400.07ZM402.766 47.4172V36.2172H411.214V38.4092H405.214V40.6812H410.494V42.8732H405.214V45.2252H411.294V47.4172H402.766ZM321.863 53.4412V55.3932H324.823C327.351 55.3932 328.759 56.7692 328.759 58.8652C328.759 61.1532 327.175 62.4172 324.583 62.4172H319.399V51.2172H327.991V53.4412H321.863ZM324.567 57.4412H321.863V60.1932H324.583C325.735 60.1932 326.295 59.7452 326.295 58.7692C326.295 57.9052 325.735 57.4412 324.567 57.4412ZM330.789 62.4172V51.2172H339.237V53.4092H333.237V55.6812H338.517V57.8732H333.237V60.2252H339.317V62.4172H330.789ZM346.756 62.6092C343.46 62.6092 341.012 60.0652 341.012 56.8172C341.012 53.6332 343.412 51.0252 346.852 51.0252C348.964 51.0252 350.148 51.8252 351.188 52.8492L349.716 54.5452C348.852 53.7612 348.116 53.2972 346.836 53.2972C344.948 53.2972 343.588 54.8652 343.588 56.8172C343.588 58.7372 344.916 60.3372 346.836 60.3372C348.116 60.3372 348.9 59.8252 349.78 59.0252L351.348 60.7052C350.196 61.9372 348.916 62.6092 346.756 62.6092ZM353.321 62.4172V51.2172H362.665V62.4172H360.201V53.4412H355.785V62.4172H353.321ZM366.84 51.2172H374.84V62.4172H372.376V53.4412H369.144V54.2892C369.144 60.8812 368.072 62.5612 365.512 62.5612C365.112 62.5612 364.52 62.4972 364.216 62.4172L364.376 60.3852C364.488 60.4012 364.6 60.4172 364.76 60.4172C366.088 60.4172 366.84 59.5692 366.84 53.5372V51.2172ZM376.564 62.4172L381.364 51.1372H383.636L388.436 62.4172H385.86L384.836 59.9052H380.1L379.076 62.4172H376.564ZM380.98 57.7292H383.956L382.468 54.0972L380.98 57.7292ZM392.772 62.4172V53.4892H389.364V51.2172H398.644V53.4892H395.236V62.4172H392.772ZM400.539 62.4172V51.2172H403.003V55.6492H407.547V51.2172H410.011V62.4172H407.547V57.9212H403.003V62.4172H400.539ZM418.136 62.6092C414.68 62.6092 412.2 60.0332 412.2 56.8172C412.2 53.6332 414.712 51.0252 418.168 51.0252C421.624 51.0252 424.104 53.6012 424.104 56.8172C424.104 60.0012 421.592 62.6092 418.136 62.6092ZM418.168 60.3372C420.152 60.3372 421.528 58.7692 421.528 56.8172C421.528 54.8972 420.12 53.2972 418.136 53.2972C416.152 53.2972 414.776 54.8652 414.776 56.8172C414.776 58.7372 416.184 60.3372 418.168 60.3372Z" fill="white"/>
</g>
<defs>
<filter id="filter0_d_1088_10213" x="-218" y="1152.42" width="755" height="378" filterUnits="userSpaceOnUse" color-interpolation-filters="sRGB">
<feFlood flood-opacity="0" result="BackgroundImageFix"/>
<feColorMatrix in="SourceAlpha" type="matrix" values="0 0 0 0 0 0 0 0 0 0 0 0 0 0 0 0 0 0 127 0" result="hardAlpha"/>
<feOffset dy="-6"/>
<feGaussianBlur stdDeviation="2"/>
<feComposite in2="hardAlpha" operator="out"/>
<feColorMatrix type="matrix" values="0 0 0 0 0 0 0 0 0 0 0 0 0 0 0 0 0 0 0.25 0"/>
<feBlend mode="normal" in2="BackgroundImageFix" result="effect1_dropShadow_1088_10213"/>
<feBlend mode="normal" in="SourceGraphic" in2="effect1_dropShadow_1088_10213" result="shape"/>
</filter>
<clipPath id="clip0_1088_10213">
<rect width="480" height="1257" fill="white" transform="translate(0 0.417236)"/>
</clipPath>
</defs>
</svg>
