<svg width="480" height="828" viewBox="0 0 480 828" fill="none" xmlns="http://www.w3.org/2000/svg">
<g clip-path="url(#clip0_1088_11134)">
<rect width="480" height="1027" transform="translate(0 0.417236)" fill="#88D8FC"/>
<path d="M225.871 1034.8C243.625 1006.51 260.41 966.646 272.88 910.419C317.961 707.154 315.841 493.861 495.176 594.478V1034.8H225.871Z" fill="#FC645D"/>
<path d="M495.377 1035.14H225.37L225.734 1034.55C245.644 1002.83 261.443 961.028 272.693 910.3C280.385 875.618 286.688 840.725 292.784 806.979C301.612 758.101 309.951 711.936 321.27 673.509C333.94 630.493 348.701 602.764 367.719 586.242C382.383 573.5 399.35 567.685 419.541 568.491C441.216 569.344 465.977 577.741 495.239 594.159L495.377 594.237L495.377 1035.14ZM226.372 1034.46H494.976V594.719C439.289 563.506 397.724 560.931 367.902 586.839C326.463 622.839 311.033 708.263 293.166 807.174C287.07 840.93 280.763 875.833 273.067 910.538C261.864 961.051 246.156 1002.74 226.372 1034.46Z" fill="#082054"/>
<path d="M221.314 1057.5L221.074 1056.95C269.763 996.864 285.305 905.394 300.335 816.938C313.857 737.348 326.63 662.171 362.491 616.305C376.304 599.109 392.444 587.959 409.458 583.858C425.279 579.923 441.353 579.816 457.192 583.54C474.955 587.409 492.389 594.754 509.138 605.426L508.984 606.051C492.264 595.401 474.861 588.072 457.129 584.211C430.257 578.396 392.059 579.339 362.735 616.845C326.98 662.575 314.225 737.645 300.722 817.123C285.673 905.692 270.113 997.275 221.314 1057.5Z" fill="#082054"/>
<g filter="url(#filter0_d_1088_11134)">
<path d="M573.71 829.121C195.873 799.591 306.319 767.964 143.901 710.939C23.6206 668.708 -204 701.231 -204 701.231L-204 829.121L573.71 829.121Z" fill="#F89C43"/>
</g>
<path d="M574.146 829.624L-204 829.624L-204 700.863L-203.754 700.828C-161.798 695.271 -118.585 691.571 -74.814 689.785C-36.8207 688.072 1.54721 688.531 39.2486 691.151C81.6209 694.368 117.043 700.914 144.528 710.61C196.992 729.116 221.003 744.956 242.185 758.932C286.455 788.136 318.442 809.238 574.213 829.321L574.146 829.624ZM-203.275 829.32L570.24 829.32C317.667 809.301 285.721 788.22 241.575 759.096C220.421 745.14 196.442 729.32 144.065 710.845C82.0259 688.96 -9.15276 687.482 -74.7309 690.089C-118.363 691.874 -161.441 695.558 -203.275 701.083L-203.275 829.32Z" fill="#082054"/>
<path d="M247.057 817.048C241.99 805.342 234.041 793.978 223.385 783.201C206.596 765.841 175.193 741.486 120.92 724.05C46.5748 700.165 -50.6783 694.961 -168.125 708.576L-168.283 708.248C-50.638 694.608 46.7983 699.832 121.307 723.773C175.715 741.253 207.192 765.668 224.018 783.07C234.696 793.871 242.659 805.261 247.736 816.992L247.057 817.048Z" fill="#082054"/>
<path d="M433.286 804.724C431.137 813.093 427.794 810.282 423.276 810.001C419.051 809.738 414.986 813.649 410.803 812.59C403.76 810.821 398.482 794.524 405.434 779.581C406.976 776.879 408.283 773.939 409.329 770.822C410.178 767.54 410.153 763.765 410.945 760.433C411.222 758.895 411.74 757.458 412.462 756.22C413.184 754.983 414.094 753.975 415.128 753.265C416.162 752.555 417.296 752.162 418.451 752.11C419.607 752.059 420.757 752.352 421.823 752.968C429.585 758.27 430.103 775.557 432.991 785.585C434.717 791.722 434.821 798.493 433.286 804.724Z" fill="white"/>
<path d="M412.744 813.599C403.799 814.235 397.485 795.765 405.012 779.777C406.556 777.096 407.87 774.186 408.928 771.102C409.767 767.908 409.763 764.026 410.56 760.721C410.856 759.126 411.404 757.637 412.166 756.356C412.927 755.075 413.885 754.032 414.972 753.299C416.059 752.566 417.251 752.161 418.466 752.11C419.68 752.059 420.888 752.365 422.006 753.006C430.051 758.463 430.407 775.41 433.46 785.854C435.231 792.086 435.336 798.959 433.756 805.285C431.513 814.037 427.703 811.128 423.318 810.841C419.66 810.665 416.354 813.342 412.744 813.599ZM411.142 760.985C409.666 767.206 411.363 769.107 406.803 777.726C398.262 793.907 403.349 810.763 410.765 812.602C414.845 813.646 419.15 809.694 423.354 810.006C427.68 810.262 431.036 813.289 433.174 805.01C434.707 798.875 434.605 792.207 432.884 786.164C429.797 775.561 429.44 758.963 421.724 753.759C420.685 753.174 419.564 752.899 418.439 752.955C417.314 753.01 416.211 753.395 415.206 754.081C414.201 754.767 413.318 755.739 412.616 756.931C411.915 758.123 411.412 759.506 411.142 760.985Z" fill="#0F2572"/>
<path d="M433.285 804.829C431.136 813.083 427.791 810.31 423.27 810.033C417.55 809.682 412.02 816.892 406.308 809.232C404.922 807.343 403.854 805.074 403.177 802.579C403.424 801.737 404.037 800.486 404.674 800.754C405.138 800.955 405.333 801.866 405.706 802.387C406.781 803.905 408.307 801.707 409.187 801.175C411.294 799.933 414.185 802.741 415.843 799.908C417.338 797.394 416.369 792.097 411.923 791.097C412.827 789.861 412.178 787.368 411.271 786.064C410.365 784.775 409.163 783.714 408.858 781.834C408.731 780.722 408.905 779.586 409.348 778.633C409.792 777.681 410.475 776.976 411.272 776.65C414.461 775.357 417.522 779.015 417.532 773.848C417.587 770.574 419.553 769.129 421.653 768.073C423.749 767.056 424.561 759.062 421.751 754.172L421.816 753.79C429.637 759.055 430.039 775.874 432.99 785.955C434.717 792.007 434.821 798.684 433.285 804.829Z" fill="white"/>
<path d="M412.728 813.615C410.439 813.534 408.229 812.462 406.423 810.556C404.617 808.65 403.311 806.01 402.695 803.025C402.668 802.927 402.667 802.819 402.692 802.72C403.029 801.619 403.749 800.24 404.587 800.626C405.826 801.148 405.359 804.353 407.989 801.844C409.093 800.82 409.595 800.429 411.991 800.891C413.294 801.156 414.731 801.323 415.559 799.91C415.942 799.04 416.124 798.036 416.083 797.026C416.043 796.015 415.78 795.044 415.33 794.237C414.45 792.77 413.176 791.835 411.788 791.637C411.732 791.624 411.679 791.591 411.637 791.54C411.594 791.49 411.562 791.424 411.545 791.351C411.528 791.278 411.526 791.199 411.539 791.125C411.553 791.05 411.581 790.982 411.622 790.928C412.396 789.87 411.742 787.546 410.952 786.406C410.008 785.082 408.761 783.959 408.437 781.916C408.284 780.683 408.47 779.418 408.959 778.358C409.448 777.298 410.206 776.516 411.091 776.16C412.622 775.811 414.185 775.823 415.713 776.195C419.183 776.381 414.383 771.132 421.58 767.471C421.841 767.37 422.083 767.192 422.289 766.952C423.061 764.915 423.401 762.627 423.271 760.344C423.141 758.061 422.546 755.871 421.552 754.018C421.524 753.968 421.505 753.912 421.493 753.853C421.482 753.793 421.48 753.731 421.486 753.67L421.549 753.279C421.56 753.215 421.58 753.156 421.61 753.106C421.64 753.055 421.678 753.015 421.722 752.987C421.765 752.96 421.812 752.946 421.86 752.947C421.908 752.949 421.955 752.965 421.997 752.994C430.031 758.421 430.476 775.652 433.459 785.855C435.231 792.09 435.336 798.967 433.755 805.296C431.279 814.958 426.528 810.568 422.408 810.861C419.216 811.088 415.977 813.383 412.728 813.615ZM403.322 802.88C403.87 805.207 404.835 807.314 406.13 809.013C407.426 810.712 409.012 811.95 410.748 812.617C414.831 813.662 419.139 809.708 423.346 810.02C427.675 810.276 431.033 813.305 433.172 805.021C434.707 798.883 434.604 792.211 432.882 786.165C429.878 775.935 429.625 760.431 422.456 754.305C423.254 756.102 423.739 758.122 423.876 760.21C424.013 762.299 423.797 764.403 423.245 766.362C423.148 766.823 422.962 767.242 422.707 767.575C422.452 767.909 422.137 768.145 421.793 768.26C419.787 769.277 417.887 770.6 417.827 773.734C417.909 779.473 414.155 775.733 411.261 776.969C410.531 777.272 409.905 777.919 409.497 778.793C409.088 779.667 408.925 780.71 409.036 781.732C409.328 783.534 410.544 784.587 411.397 785.829C411.888 786.479 412.238 787.298 412.41 788.197C412.583 789.096 412.571 790.042 412.376 790.933C418.09 792.679 418.355 802.911 412.487 801.829C411.408 801.439 410.272 801.441 409.193 801.835C408.121 802.479 406.369 805.311 404.908 802.205C404.747 801.841 404.586 801.506 404.401 801.425C404.37 801.41 404.338 801.404 404.305 801.409C403.899 801.437 403.488 802.377 403.322 802.88Z" fill="#0F2572"/>
<path d="M433.281 804.779C431.123 813.085 427.765 810.295 423.226 810.016C417.483 809.662 411.931 816.918 406.195 809.209C409.346 807.371 413.433 812.6 417.635 806.928C421.402 801.843 420.013 792.831 416.095 791.3C414.815 790.787 414.875 790.203 414.841 787.956C414.842 786.67 414.591 785.407 414.115 784.295C413.638 783.183 412.953 782.261 412.129 781.623C412.213 781.265 412.352 780.935 412.537 780.655C412.722 780.376 412.949 780.152 413.203 779.999C413.456 779.846 413.731 779.767 414.008 779.768C414.286 779.769 414.56 779.85 414.813 780.004C415.778 780.707 416.816 781.207 417.892 781.488C418.601 781.379 419.258 780.928 419.742 780.218C420.227 779.507 420.506 778.585 420.529 777.619C420.705 775.086 420.947 775.312 422.892 774.541C426.553 773.054 426.955 764.971 427.611 762.216C430.243 769.379 430.761 778.175 432.985 785.787C434.718 791.877 434.823 798.596 433.281 804.779Z" fill="white"/>
<path d="M405.783 809.881C405.747 809.831 405.72 809.771 405.705 809.705C405.691 809.638 405.688 809.568 405.699 809.5C405.709 809.432 405.732 809.369 405.764 809.315C405.797 809.262 405.839 809.221 405.887 809.195C407.902 808.655 409.983 808.778 411.955 809.553C420.39 810.576 421.96 794.169 415.813 791.789C414.588 791.314 414.456 790.334 414.464 788.455C414.517 787.163 414.304 785.877 413.85 784.74C413.395 783.602 412.715 782.658 411.887 782.012C411.358 781.678 412.129 780.211 412.655 779.806C414.613 778.303 416.248 781.077 417.861 781.069C419.159 781.267 420.17 779.056 420.247 777.209C420.399 772.677 423.672 776.327 425.8 769.9C426.49 767.27 427.032 764.573 427.42 761.833C428.322 757.919 431.828 780.14 433.452 785.695C435.233 791.961 435.338 798.872 433.75 805.232C431.261 814.941 426.487 810.529 422.346 810.824C416.932 811.209 411.461 817.467 405.783 809.881ZM406.597 809.757C412.532 817.014 417.528 808.574 425.612 810.367C429.451 811.206 431.6 811.013 433.164 804.955C434.706 798.787 434.603 792.083 432.872 786.007C430.743 778.756 430.117 770.133 427.795 763.191C427.059 767.527 426.395 773.494 423.013 774.86C421.587 775.397 420.948 775.309 420.867 777.253C420.898 778.375 420.62 779.473 420.087 780.333C419.554 781.193 418.803 781.755 417.981 781.909C416.74 781.997 415.758 780.883 414.647 780.39C414.244 780.148 413.79 780.12 413.373 780.31C412.956 780.5 412.607 780.895 412.395 781.417C413.255 782.174 413.954 783.221 414.425 784.454C414.896 785.687 415.122 787.065 415.082 788.452C415.095 789.99 415.075 790.613 415.981 790.976C422.933 793.75 420.99 811.51 411.901 810.394C410.168 809.813 408.379 809.598 406.597 809.757Z" fill="#0F2572"/>
<path d="M417.775 822.041C417.585 824.197 420.256 824.217 421.184 822.484C421.644 821.626 420.435 819.14 420.101 813.879C420.224 811.588 420.216 809.288 420.076 807C419.645 804.676 418.081 806.665 418.32 811.562C418.525 815.074 418.341 818.609 417.775 822.041Z" fill="white"/>
<path d="M417.276 822.357C417.896 818.797 418.097 815.131 417.874 811.489C417.52 804.627 421.075 801.904 420.539 810.928C420.317 814.056 420.621 817.211 421.43 820.163C421.756 821.639 421.952 822.523 421.609 823.124C421.602 823.142 420.956 824.216 420.388 824.298C418.88 824.956 417.081 824.451 417.276 822.357ZM419.483 806.106C419.138 806.184 418.33 807.876 418.514 811.433C418.746 815.127 418.54 818.846 417.905 822.455C417.773 823.861 419.222 823.919 420.222 823.477C420.25 823.464 420.28 823.456 420.31 823.453L420.319 823.452C420.631 823.263 420.902 822.972 421.107 822.606C421.249 822.352 421.052 821.45 420.824 820.401C420.321 818.295 419.99 816.122 419.836 813.921C419.708 811.994 420.397 806.042 419.483 806.106Z" fill="#0F2572"/>
<path d="M172.477 749.843C173.795 750.548 173.626 751.06 174.436 751.582C174.625 751.923 177.309 752.681 177.934 751.881C178.985 750.6 176.051 750.247 175.105 748.27C174.846 747.744 174.553 747.236 174.227 746.748C173.513 747.153 172.683 747.299 171.875 747.164C171.875 747.164 171.63 749.39 172.477 749.843Z" fill="#0A2778"/>
<path d="M156.695 709.15C156.727 709.451 156.803 709.746 156.92 710.025C158.933 714.968 163.455 718.554 163.437 718.898C164.994 720.554 170.283 726.671 169.997 728.891C169.874 731.224 168.735 732.024 169.113 735.361C169.584 738.991 172.069 747.483 172.069 747.483C172.416 747.728 172.812 747.893 173.23 747.967L173.229 747.984C173.483 748.044 173.75 748.016 173.987 747.906C174.223 747.795 174.415 747.608 174.533 747.375C174.56 746.85 174.449 732.101 174.938 729.37C175.332 728.061 175.299 726.66 174.844 725.371C174.857 725.123 169.821 712.379 166.51 707.533C166.165 707.007 165.772 706.428 165.363 705.831C165.19 705.86 156.342 705.212 156.695 709.15Z" fill="#FFC9D4"/>
<path d="M174.529 747.343C174.599 747.177 174.419 732.276 174.938 729.375C175.331 728.062 175.299 726.658 174.846 725.365C174.856 725.172 170.312 713.628 167.245 708.643C166.876 708.058 166.905 708.044 165.418 705.861C165.411 705.85 165.401 705.842 165.389 705.837C165.378 705.832 165.365 705.83 165.352 705.832C165.339 705.833 165.25 705.83 165.147 705.827C160.401 705.663 157.44 706.516 156.809 708.229C156.612 708.847 156.65 709.516 156.916 710.107C158.361 713.664 160.932 716.299 163.384 718.934C163.386 718.948 163.392 718.961 163.402 718.971C165.174 720.863 170.173 726.743 169.899 728.876C169.782 731.107 168.65 732.109 169.022 735.341C169.483 738.924 171.935 747.352 171.958 747.436C171.963 747.451 171.973 747.464 171.986 747.473C172.329 747.716 172.72 747.883 173.132 747.962C173.14 747.973 173.152 747.98 173.166 747.983C173.432 748.045 173.711 748.016 173.959 747.9C174.206 747.784 174.407 747.587 174.529 747.343ZM174.404 747.291C173.906 748.168 172.911 747.917 172.081 747.375C171.491 745.356 168.981 736.413 169.091 734.305C169.131 731.325 170.012 730.647 170.049 728.904C170.048 728.889 170.044 728.875 170.036 728.863C170.274 726.672 165.311 720.816 163.518 718.898C163.493 718.517 159.013 714.916 157.041 710.055C156.782 709.497 156.744 708.862 156.935 708.278C157.804 705.916 162.845 705.898 165.329 705.967C166.522 707.715 166.765 708.117 167.548 709.392C170.749 714.693 174.945 726.109 174.716 725.396C175.163 726.67 175.195 728.052 174.808 729.345C174.369 731.79 174.398 744.794 174.404 747.291Z" fill="#0F2572"/>
<path d="M156.695 709.151C156.727 709.452 156.803 709.746 156.92 710.026C158.933 714.97 163.455 718.556 163.437 718.9C164.994 720.556 170.283 726.674 169.997 728.894C169.881 731.093 168.752 732.176 169.113 735.365C169.949 735.815 170.869 736.089 171.815 736.171C172.761 736.253 173.714 736.14 174.615 735.84C174.609 733.68 174.717 731.522 174.938 729.373C175.332 728.063 175.299 726.663 174.844 725.373C174.857 725.126 169.821 712.38 166.51 707.533C166.165 707.007 165.772 706.428 165.363 705.831C165.19 705.86 156.342 705.212 156.695 709.151Z" fill="#0584DB"/>
<path d="M174.565 735.833C174.583 735.827 174.599 735.815 174.61 735.8C174.621 735.785 174.627 735.766 174.627 735.747C174.622 733.606 174.729 731.466 174.947 729.337C175.329 728.013 175.296 726.604 174.852 725.301C174.827 725.218 170.507 713.993 167.688 709.324C166.827 707.929 166.664 707.652 165.449 705.871C165.439 705.856 165.425 705.845 165.409 705.838C165.393 705.831 165.375 705.828 165.358 705.832C165.341 705.832 165.271 705.83 165.158 705.826C161.939 705.714 156.426 706.011 156.694 709.23C156.728 709.54 156.806 709.842 156.926 710.129C158.347 713.633 160.857 716.236 163.379 718.938C163.426 719.108 170.201 726.263 169.871 728.832C169.759 730.977 168.638 732.056 168.995 735.285C168.997 735.3 169.002 735.313 169.01 735.326C169.018 735.338 169.029 735.348 169.042 735.355C169.88 735.811 170.804 736.089 171.754 736.171C172.704 736.253 173.661 736.138 174.565 735.833ZM174.444 735.68C173.579 735.96 172.667 736.064 171.762 735.984C170.857 735.904 169.977 735.643 169.174 735.216C169.131 734.896 169.111 734.573 169.115 734.25C169.131 732.92 169.37 731.603 169.821 730.353C169.971 729.854 170.051 729.337 170.059 728.816C170.295 726.518 165.071 720.544 163.533 718.832C161.024 716.145 158.511 713.546 157.095 710.057C156.841 709.507 156.803 708.882 156.989 708.305C157.868 705.916 162.949 706.004 165.325 706.016C165.791 706.7 166.502 707.748 166.933 708.453C169.781 713.053 174.484 724.54 174.675 725.373C175.119 726.638 175.152 728.011 174.767 729.296C174.548 731.417 174.44 733.548 174.444 735.68Z" fill="#0F2572"/>
<path d="M174.247 697.306C174.246 697.309 174.247 697.311 174.247 697.313C174.248 697.315 174.249 697.317 174.251 697.319C174.252 697.32 174.254 697.321 174.256 697.322C174.258 697.323 174.26 697.324 174.262 697.324C174.873 698.097 175.958 699.719 176.894 700.997C177.787 701.997 178.078 703.188 180.108 702.765C183.714 702.072 185.921 699.091 190.383 695.351C191.109 695.024 191.748 694.527 192.246 693.902C192.356 693.721 192.428 693.52 192.458 693.31C192.488 693.1 192.475 692.886 192.42 692.682C192.365 692.477 192.269 692.286 192.138 692.12C192.007 691.954 191.844 691.817 191.658 691.717C190.525 691.034 189.77 691.095 189.286 691.406L189.287 691.39C188.997 691.189 187.791 691.563 187.776 691.865C187.848 692.523 188.017 693.167 188.277 693.776C185.352 694.928 182.555 696.387 179.933 698.129C178.834 695.497 177.687 689.311 175.451 687.359C173.087 685.269 171.598 685.707 170.463 687.549C170.463 687.566 170.428 687.598 170.427 687.614C169.262 689.757 172.129 694.351 174.247 697.306Z" fill="#FFC9D4"/>
<path d="M180.126 702.761C183.659 702.067 185.633 699.274 190.372 695.208C191.107 694.883 191.749 694.369 192.238 693.716C192.352 693.525 192.426 693.312 192.457 693.089C192.488 692.867 192.475 692.641 192.418 692.424C192.361 692.208 192.262 692.005 192.127 691.83C191.992 691.654 191.823 691.508 191.631 691.402C190.436 690.667 189.684 690.798 189.252 691.056C188.913 690.866 187.69 691.23 187.67 691.607C187.732 692.266 187.895 692.912 188.152 693.52C185.284 694.675 182.542 696.134 179.968 697.876C178.895 695.186 177.744 688.958 175.527 686.977C173.535 685.178 171.847 684.895 170.468 687.186C170.462 687.196 170.459 687.207 170.458 687.218C170.444 687.23 170.433 687.246 170.426 687.263C169.313 689.379 171.874 693.816 174.225 697.172C174.227 697.182 174.232 697.191 174.238 697.199C174.245 697.207 174.252 697.213 174.261 697.218C175.148 698.37 177.595 702.204 178.266 702.57C178.843 702.863 179.504 702.931 180.126 702.761ZM191.564 691.518C191.746 691.625 191.905 691.768 192.032 691.939C192.159 692.11 192.252 692.306 192.304 692.514C192.591 693.736 191.375 694.511 190.298 695.095C185.845 698.898 183.659 701.927 180.101 702.628C179.509 702.791 178.88 702.728 178.331 702.451C177.626 702.07 174.602 697.307 174.341 697.107C174.35 696.936 169.057 690.121 170.547 687.321C170.561 687.298 170.574 687.273 170.586 687.249C171.69 685.421 173.121 684.984 175.44 687.08C178.036 689.4 179.46 698.393 179.976 698.036C182.581 696.266 185.359 694.785 188.265 693.615C188.28 693.607 188.291 693.594 188.297 693.578C188.303 693.562 188.303 693.545 188.297 693.529C188.041 692.919 187.874 692.274 187.803 691.614C187.814 691.388 188.866 691.022 189.176 691.169C189.263 691.47 189.69 690.364 191.564 691.518Z" fill="#0F2572"/>
<path d="M176.895 700.982C177.272 701.569 177.718 702.104 178.221 702.575C178.783 702.864 179.426 702.93 180.031 702.761C183.089 702.151 185.146 699.726 186.824 698.264C187.103 698.001 187.57 697.622 188.264 696.944C186.092 698.571 183.83 700.062 181.489 701.407C180.762 701.794 179.946 701.959 179.133 701.884C178.321 701.809 177.545 701.497 176.895 700.982Z" fill="#0F2572"/>
<path d="M133.54 737.335C133.511 737.563 133.531 737.794 133.597 738.013C133.664 738.232 133.775 738.434 133.925 738.606C134.075 738.778 134.26 738.915 134.466 739.009C134.673 739.103 134.897 739.152 135.123 739.151C141.373 736.394 146.858 734.165 153.78 731.401C154.438 730.868 154.995 730.219 155.424 729.485C155.441 729.469 155.442 729.452 155.459 729.453C155.469 729.445 155.475 729.433 155.477 729.42C157.22 726.559 157.962 722.286 159.014 718.828C160.836 712.831 161.404 711.265 161.737 705.494L157.303 700.742C156.675 700.866 154.692 702.887 154.682 703.082C153.82 704.214 153.173 705.497 152.774 706.868C150.788 716.004 153.014 725.11 150.267 727.972C149.981 728.233 148.211 727.641 145.156 728.82C142.201 729.964 134.377 736.727 133.54 737.335Z" fill="#FFC9D4"/>
<path d="M135.179 739.151C135.347 739.16 141.524 736.285 147.859 733.798C147.867 733.795 147.874 733.79 147.881 733.784C147.877 733.79 147.907 733.78 147.919 733.775C147.931 733.775 147.943 733.771 147.954 733.764C148.147 733.645 153.564 731.508 153.776 731.423C153.782 731.42 153.788 731.417 153.793 731.414C154.452 730.864 155.017 730.207 155.464 729.471C155.483 729.456 155.496 729.436 155.503 729.413C157.243 726.546 157.978 722.292 159.025 718.852C160.802 712.981 161.402 711.366 161.737 705.549C161.738 705.54 161.736 705.53 161.733 705.522C161.73 705.513 161.725 705.506 161.719 705.499L157.307 700.764C157.299 700.755 157.29 700.749 157.279 700.745C157.268 700.742 157.257 700.742 157.246 700.744L157.178 700.758C157.171 700.759 157.164 700.762 157.158 700.766C156.168 701.368 155.299 702.155 154.597 703.084C153.744 704.237 153.096 705.532 152.683 706.91C150.827 715.44 152.82 725.514 150.176 727.924C145.175 728.115 144.635 728.102 133.938 736.917C133.797 737.022 133.664 737.137 133.54 737.262C133.51 737.498 133.531 737.738 133.6 737.965C133.668 738.192 133.784 738.402 133.939 738.581C134.094 738.76 134.285 738.903 134.498 739.001C134.712 739.099 134.944 739.151 135.179 739.151ZM135.171 739.015C134.959 739.014 134.749 738.967 134.555 738.879C134.361 738.79 134.188 738.661 134.047 738.501C133.905 738.34 133.798 738.152 133.733 737.947C133.668 737.742 133.645 737.525 133.668 737.311C144.703 728.424 144.712 728.295 150.205 728.058C150.22 728.058 150.235 728.052 150.247 728.041C152.4 726.109 151.738 718.033 151.934 714.263C152.048 711.762 152.35 709.273 152.836 706.818C153.545 704.372 155.1 702.268 157.216 700.888L157.235 700.883L161.602 705.571C161.271 711.295 160.688 712.923 158.896 718.812C157.863 722.218 157.11 726.513 155.384 729.352L155.379 729.364C154.927 730.092 154.368 730.746 153.719 731.301C147.333 733.853 147.916 733.634 147.868 733.65C147.582 733.707 137.046 738.154 135.171 739.015Z" fill="#0F2572"/>
<path d="M144.895 728.833C145.055 729.801 145.403 730.727 145.918 731.556C146.433 732.386 147.105 733.103 147.895 733.664C153.557 731.398 153.431 731.449 153.678 731.231C156.542 728.701 157.363 723.142 158.658 718.837C160.467 712.836 161.827 711.398 162.158 705.624L156.958 700.742C156.334 700.866 154.365 702.888 154.355 703.083C153.499 704.215 152.857 705.499 152.46 706.87C150.545 715.744 152.61 724.66 150.14 727.77C149.581 728.473 148.332 727.497 144.895 728.833Z" fill="#0584DB"/>
<path d="M148.022 733.664C148.035 733.665 148.048 733.663 148.06 733.658C153.413 731.551 153.671 731.464 153.95 731.222C156.883 728.681 157.701 723.176 159.026 718.854C160.818 713.028 162.243 711.433 162.579 705.694C162.58 705.68 162.578 705.666 162.573 705.654C162.568 705.641 162.56 705.629 162.55 705.62L157.279 700.766C157.268 700.757 157.255 700.75 157.241 700.746C157.227 700.742 157.212 700.742 157.198 700.744C156.588 700.866 155.064 702.335 154.503 703.09C153.633 704.242 152.975 705.54 152.563 706.923C150.646 715.609 152.705 724.597 150.23 727.652C149.713 728.29 148.377 727.376 144.954 728.68C144.934 728.688 144.918 728.702 144.907 728.72C144.897 728.738 144.893 728.759 144.896 728.78C145.06 729.763 145.422 730.702 145.959 731.542C146.497 732.381 147.198 733.103 148.022 733.664ZM162.392 705.727C162.054 711.383 160.664 712.895 158.848 718.8C157.531 723.108 156.707 728.588 153.829 731.082C153.597 731.283 153.871 731.172 148.039 733.467C146.488 732.365 145.429 730.7 145.09 728.828C146.584 728.267 148.175 728.01 149.77 728.072C149.887 728.069 150.002 728.041 150.107 727.989C150.212 727.936 150.304 727.861 150.376 727.769C152.944 724.597 150.801 715.781 152.746 706.947C153.242 705.298 154.098 703.779 155.253 702.501C155.816 701.888 156.466 701.361 157.181 700.936L157.188 700.934L162.392 705.727Z" fill="#0F2572"/>
<path d="M152.474 706.99L152.476 706.998C153.877 707.83 155.337 708.556 156.844 709.17C161.403 711.022 163.005 710.677 167.632 709.327C167.447 709.113 167.306 708.863 167.22 708.592C167.134 708.321 167.103 708.035 167.129 707.752C166.359 707.494 166.744 707.624 154.018 703.275C153.224 704.375 152.696 705.647 152.474 706.99Z" fill="#0A2778"/>
<path d="M152.474 706.195C154.333 707.288 156.302 708.187 158.348 708.877C161.227 709.891 164.377 709.846 167.225 708.75C166.363 703.644 171.679 698.404 173.135 695.04C174.336 692.272 176.149 686.284 173.168 685.774C172.638 685.679 172.1 685.634 171.561 685.64L171.558 685.69C171.667 686.258 171.579 686.846 171.308 687.358C171.037 687.87 170.599 688.276 170.066 688.511C167.743 689.515 165.817 687.234 165.561 684.704C162.869 685.338 159.079 685.961 157.08 687.598C155.29 690.725 157.17 694.893 156.221 699.314C155.719 701.603 155.106 702.166 154.209 702.966C153.39 703.897 152.797 705.002 152.474 706.195Z" fill="white"/>
<path d="M162.072 709.578C163.832 709.701 165.597 709.416 167.228 708.747C167.246 708.739 167.262 708.725 167.271 708.707C167.281 708.689 167.284 708.669 167.28 708.649C166.436 703.6 171.692 698.434 173.14 695.091C174.103 692.869 175.456 688.602 174.414 686.696C174.235 686.387 173.976 686.131 173.663 685.956C173.349 685.78 172.995 685.692 172.635 685.7C172.255 685.644 171.87 685.622 171.486 685.633C171.463 685.635 171.442 685.645 171.426 685.661C171.411 685.677 171.401 685.698 171.4 685.72L171.398 685.77C171.489 686.252 171.434 686.751 171.24 687.202C171.046 687.653 170.722 688.038 170.308 688.307C169.894 688.575 169.409 688.717 168.914 688.712C168.419 688.708 167.936 688.558 167.527 688.283C166.957 687.888 166.488 687.366 166.158 686.758C165.828 686.151 165.647 685.475 165.629 684.786C165.627 684.773 165.623 684.76 165.616 684.749C165.609 684.738 165.6 684.728 165.59 684.721C165.579 684.713 165.566 684.708 165.554 684.705C165.541 684.703 165.527 684.703 165.514 684.706C163.146 685.273 159.114 685.915 157.061 687.597C157.053 687.604 157.046 687.612 157.04 687.621C155.285 690.806 157.089 695.018 156.175 699.277C155.712 701.404 155.135 702.035 154.319 702.755C153.312 703.654 152.288 706.086 152.503 706.208C155.455 707.868 158.688 709.402 162.072 709.578ZM167.087 708.608C164.297 709.663 161.22 709.696 158.408 708.701C156.406 708.027 154.479 707.149 152.658 706.083C152.981 704.891 153.594 703.795 154.443 702.892C155.306 702.127 155.882 701.484 156.357 699.316C157.27 695.062 155.474 690.731 157.193 687.728C159.109 686.167 162.787 685.516 165.456 684.908C165.482 685.116 165.51 685.234 165.53 685.413C165.622 686.014 165.836 686.59 166.159 687.107C166.482 687.625 166.906 688.072 167.408 688.422C167.84 688.719 168.352 688.884 168.878 688.895C169.404 688.907 169.922 688.765 170.367 688.487C170.813 688.209 171.166 687.807 171.383 687.332C171.601 686.857 171.672 686.329 171.59 685.813C172.088 685.816 172.585 685.862 173.075 685.949C175.944 686.442 174.123 692.362 172.97 695.018C171.553 698.301 166.282 703.511 167.087 708.608Z" fill="#0A2778"/>
<path d="M171 698.21C170.657 698.531 167.311 701.859 166.595 704.039C166.197 705.611 166.325 707.268 166.961 708.762C166.333 705.062 168.915 701.367 171 698.21Z" fill="#0F2572"/>
<path d="M154.158 707.1C154.66 707.364 155.23 707.632 155.833 707.918C156.945 705.445 158.546 701.503 158.924 698.924C159.269 696.472 159.303 693.986 159.026 691.525L157.712 691.457C156.722 697.689 159.221 699.103 154.158 707.1Z" fill="#15A7F9"/>
<path d="M158.936 698.949C159.267 696.514 159.299 694.047 159.033 691.604C159.03 691.583 159.02 691.563 159.004 691.549C158.989 691.534 158.969 691.526 158.948 691.524L157.683 691.457C157.66 691.456 157.638 691.463 157.621 691.477C157.603 691.492 157.592 691.512 157.588 691.535C156.633 697.703 159.04 699.093 154.175 706.974C154.08 707.124 154.351 707.191 155.827 707.915C156.105 708.055 158.557 701.598 158.936 698.949ZM158.862 691.705C159.115 694.107 159.079 696.53 158.757 698.923C158.363 701.672 156.603 705.918 155.821 707.708C155.364 707.487 154.811 707.218 154.382 706.989C159.161 699.203 156.852 697.624 157.756 691.646L158.862 691.705Z" fill="#0F2572"/>
<path d="M163.421 685.166C164.36 687.418 166.134 690.283 168.948 690.188C172.528 690.065 172.756 687.064 172.671 685.717C172.311 685.665 171.946 685.646 171.582 685.66L171.579 685.712C171.672 686.225 171.61 686.755 171.401 687.234C171.192 687.712 170.845 688.119 170.404 688.403C169.963 688.687 169.447 688.836 168.922 688.83C168.396 688.824 167.884 688.665 167.449 688.371C166.943 688.017 166.513 687.564 166.186 687.042C165.859 686.519 165.642 685.936 165.546 685.328C165.523 685.12 165.481 684.929 165.458 684.704C164.365 684.962 164.658 684.913 163.421 685.166Z" fill="#15A7F9"/>
<path d="M168.596 690.183C171.17 690.316 172.855 688.702 172.671 685.764C172.669 685.743 172.66 685.723 172.645 685.707C172.631 685.692 172.611 685.682 172.589 685.679C172.23 685.629 171.866 685.611 171.504 685.623C171.481 685.625 171.46 685.635 171.444 685.651C171.428 685.667 171.419 685.688 171.418 685.71L171.415 685.76C171.506 686.24 171.451 686.736 171.255 687.185C171.06 687.634 170.733 688.016 170.316 688.284C169.899 688.552 169.411 688.692 168.912 688.688C168.414 688.684 167.928 688.536 167.516 688.261C166.945 687.865 166.475 687.344 166.143 686.74C165.812 686.136 165.627 685.465 165.603 684.779C165.579 684.604 165.521 684.738 163.496 685.147C163.483 685.149 163.47 685.155 163.459 685.163C163.448 685.171 163.439 685.181 163.433 685.193C163.426 685.205 163.422 685.218 163.422 685.231C163.421 685.245 163.423 685.258 163.428 685.271C164.191 687.075 165.855 690.042 168.596 690.183ZM172.489 685.851C172.616 688.3 171.452 689.918 168.927 690.003C166.373 690.083 164.639 687.609 163.644 685.303C164.171 685.196 165.175 684.959 165.429 684.901C165.456 685.109 165.484 685.226 165.504 685.404C165.597 686.002 165.813 686.576 166.138 687.091C166.463 687.606 166.891 688.052 167.395 688.401C167.831 688.696 168.346 688.86 168.876 688.871C169.406 688.883 169.928 688.741 170.377 688.465C170.826 688.188 171.182 687.788 171.401 687.315C171.619 686.842 171.692 686.316 171.608 685.803C171.903 685.798 172.197 685.814 172.489 685.851Z" fill="#0F2572"/>
<path d="M157.049 687.587C157.381 687.473 157.725 687.394 158.075 687.35C158.879 687.255 160.184 686.997 160.442 687.824C161.673 691.759 160.403 693.836 156.484 695.256C156.359 692.367 155.831 689.713 157.049 687.587Z" fill="#0F2572"/>
<path d="M165.696 684.593C168.78 684.266 168.447 678.795 168.447 678.795C171.948 684.019 171.512 683.234 171.468 683.637C171.481 683.629 171.496 683.625 171.509 683.616C171.33 685.92 171.239 685.097 171.843 687.043C170.084 691.47 164.489 687.014 165.696 684.593Z" fill="#FFC9D4"/>
<path d="M171.837 687.029C171.84 687.022 171.842 687.014 171.843 687.006C171.843 686.998 171.842 686.991 171.839 686.983C171.223 685.1 171.299 685.984 171.494 683.626C171.494 683.614 171.492 683.602 171.486 683.591C171.481 683.58 171.473 683.571 171.463 683.564L171.459 683.563L171.483 683.366C171.484 683.35 171.48 683.334 171.471 683.321L168.281 678.823C168.273 678.811 168.261 678.803 168.247 678.798C168.233 678.793 168.218 678.794 168.204 678.798C168.19 678.803 168.178 678.812 168.17 678.824C168.162 678.836 168.158 678.85 168.159 678.865C168.163 678.918 168.466 684.206 165.344 684.52C165.333 684.521 165.323 684.525 165.314 684.531C165.304 684.537 165.297 684.545 165.292 684.555C163.981 687.038 169.97 691.472 171.837 687.029ZM171.704 687.001C169.906 691.212 164.249 686.962 165.393 684.647C168.227 684.327 168.321 680.108 168.302 679.081C171.776 683.981 171.359 683.269 171.316 683.634C171.315 683.646 171.317 683.659 171.323 683.67C171.328 683.681 171.337 683.69 171.347 683.697L171.354 683.7L171.207 685.473C171.207 685.481 171.208 685.488 171.209 685.496C171.277 685.733 171.504 686.386 171.704 687.001Z" fill="#0F2572"/>
<path d="M168.79 678.665C167.57 682.846 170.203 685.509 171.288 685.081C172.799 684.464 176.367 679.843 174.002 677.456C172.75 676.179 170.113 676.425 168.79 678.665Z" fill="#FFC9D4"/>
<path d="M171 685.125C172.119 685.184 174.302 682.293 174.705 680.315C175.357 677.131 172.13 675.689 169.891 677.434C169.444 677.781 169.068 678.21 168.782 678.698C167.703 682.408 169.707 685.057 171 685.125ZM174.575 680.289C174.154 682.351 172.28 684.541 171.27 684.953C170.224 685.362 167.749 682.734 168.909 678.744C170.788 675.56 175.33 676.56 174.575 680.289Z" fill="#0F2572"/>
<path d="M158.984 686.238C159.705 686.468 160.554 687.713 160.754 688.539C160.882 688.957 160.923 689.396 160.875 689.83C160.827 690.263 160.691 690.683 160.475 691.062C160.259 691.441 159.968 691.771 159.62 692.033C159.271 692.295 158.873 692.482 158.449 692.583C156.537 693.155 153.618 692.469 149.971 692.416C148.783 692.376 147.594 692.448 146.42 692.632C146.174 695.355 145.171 701.008 144.866 702.722C144.633 704.037 145.738 704.666 145.59 706.363C145.582 706.676 145.594 706.99 145.627 707.302C145.589 707.625 145.35 707.998 144.423 707.902C143.974 707.899 143.53 707.805 143.118 707.627C142.706 707.448 142.333 707.189 142.023 706.864C141.756 706.479 142.292 704.792 142.284 703.794C142.177 701.136 141.79 692.373 142.018 691.504C142.125 690.879 142.389 690.291 142.783 689.795C144.374 688.203 155.358 685.031 158.984 686.238Z" fill="#FFC9D4"/>
<path d="M144.614 707.914C145.322 707.952 145.808 707.696 145.717 706.973C145.74 706.367 145.704 705.76 145.608 705.16C145.553 704.61 144.796 703.732 144.979 702.7C146.035 696.77 146.399 694 146.518 692.715C148.328 692.334 151.975 692.59 153.709 692.736C155.588 692.896 157.217 693.036 158.422 692.676C158.85 692.571 159.251 692.38 159.603 692.114C159.955 691.849 160.248 691.514 160.467 691.13C160.685 690.747 160.824 690.323 160.874 689.884C160.924 689.445 160.884 689.001 160.757 688.578C160.627 688.088 160.4 687.628 160.09 687.227C159.781 686.826 159.394 686.491 158.954 686.242C155.289 685.018 144.358 688.23 142.797 689.794C142.396 690.295 142.129 690.89 142.018 691.522C141.778 692.445 142.218 702.233 142.281 703.756C142.293 704.733 141.739 706.42 142.034 706.842C142.539 707.572 143.743 707.868 144.614 707.914ZM151.316 692.425C150.66 692.39 146.426 692.316 146.389 692.654C146.276 693.914 145.915 696.675 144.846 702.676C144.805 703.038 144.832 703.404 144.924 703.756C145.136 704.22 145.321 704.697 145.478 705.184C145.477 705.19 145.479 705.196 145.482 705.202C145.568 705.794 145.602 706.392 145.586 706.99C145.677 707.677 145.165 707.846 144.478 707.769C143.672 707.687 142.613 707.446 142.142 706.766C141.903 706.422 142.425 704.722 142.415 703.753C142.367 702.585 141.915 692.452 142.147 691.556C142.253 690.947 142.509 690.374 142.89 689.889C144.454 688.323 155.313 685.175 158.913 686.369C159.332 686.61 159.7 686.931 159.995 687.316C160.289 687.7 160.505 688.14 160.628 688.609C160.755 689.015 160.796 689.444 160.751 689.867C160.705 690.29 160.572 690.7 160.362 691.07C160.151 691.439 159.866 691.761 159.526 692.016C159.186 692.27 158.796 692.451 158.383 692.548C156.751 693.037 154.289 692.582 151.316 692.425Z" fill="#0F2572"/>
<path d="M131.59 738.849C131.609 740.343 131.069 740.439 131.002 741.4C130.982 742.291 131.211 743.169 131.664 743.941C131.741 744.1 131.851 744.243 131.987 744.358C132.123 744.474 132.282 744.561 132.454 744.614C134.113 744.924 132.987 742.18 134.285 740.404C134.627 739.926 134.937 739.426 135.211 738.907C134.5 738.473 133.961 737.815 133.685 737.041C133.685 737.041 131.578 737.89 131.59 738.849Z" fill="#0A2778"/>
<path fill-rule="evenodd" clip-rule="evenodd" d="M168.331 673.194C170.29 672.71 169.979 673.009 170.895 672.452C171.811 671.896 173.752 671.752 174.763 673.008C175.379 673.73 176.056 674.392 176.787 674.988C177.197 675.435 178.599 679.341 174.066 679.239C172.513 679.204 171.351 677.299 170.623 678.946C170.358 679.506 170.152 680.093 170.009 680.699C169.469 683.301 167.489 682 167.415 680.278C167.484 679.05 167.16 677.833 166.492 676.816C166.171 676.309 166.372 673.679 168.331 673.194Z" fill="#0F2572"/>
<path d="M135.21 738.729C145.145 734.509 152.252 731.889 153.758 731.31C154.424 730.791 154.987 730.158 155.421 729.443C155.204 729.697 154.142 730.8 151.354 731.517C148.255 732.318 135.977 738.355 135.21 738.729Z" fill="#0F2572"/>
<path d="M168.899 734.376C168.785 736.514 171.33 745.468 171.937 747.531C172.286 747.775 172.685 747.941 173.105 748.015C172.988 747.653 169.254 736.036 169.355 733.487C169.423 732.204 169.533 731.093 169.661 730.288C169.176 731.598 168.918 732.981 168.899 734.376Z" fill="#0A2778"/>
</g>
<defs>
<filter id="filter0_d_1088_11134" x="-208" y="677.274" width="785.71" height="151.847" filterUnits="userSpaceOnUse" color-interpolation-filters="sRGB">
<feFlood flood-opacity="0" result="BackgroundImageFix"/>
<feColorMatrix in="SourceAlpha" type="matrix" values="0 0 0 0 0 0 0 0 0 0 0 0 0 0 0 0 0 0 127 0" result="hardAlpha"/>
<feOffset dy="-8"/>
<feGaussianBlur stdDeviation="2"/>
<feComposite in2="hardAlpha" operator="out"/>
<feColorMatrix type="matrix" values="0 0 0 0 0 0 0 0 0 0 0 0 0 0 0 0 0 0 0.25 0"/>
<feBlend mode="normal" in2="BackgroundImageFix" result="effect1_dropShadow_1088_11134"/>
<feBlend mode="normal" in="SourceGraphic" in2="effect1_dropShadow_1088_11134" result="shape"/>
</filter>
<clipPath id="clip0_1088_11134">
<rect width="480" height="827" fill="white" transform="translate(0 0.417236)"/>
</clipPath>
</defs>
</svg>
