<svg width="480" height="1070" viewBox="0 0 480 1070" fill="none" xmlns="http://www.w3.org/2000/svg">
<g clip-path="url(#clip0_1088_11134)">
<rect width="480" height="1027" transform="translate(0 0.417236)" fill="#88D8FC"/>
<path d="M225.871 1276.8C243.625 1248.51 260.41 1208.65 272.88 1152.42C317.961 949.154 315.841 735.861 495.176 836.478V1276.8H225.871Z" fill="#FC645D"/>
<path d="M495.377 1277.14H225.37L225.734 1276.55C245.644 1244.83 261.443 1203.03 272.693 1152.3C280.385 1117.62 286.688 1082.72 292.784 1048.98C301.612 1000.1 309.951 953.936 321.27 915.509C333.94 872.493 348.701 844.764 367.719 828.242C382.383 815.5 399.35 809.685 419.541 810.491C441.216 811.344 465.977 819.741 495.239 836.159L495.377 836.237L495.377 1277.14ZM226.372 1276.46H494.976V836.719C439.289 805.506 397.724 802.931 367.902 828.839C326.463 864.839 311.033 950.263 293.166 1049.17C287.07 1082.93 280.763 1117.83 273.067 1152.54C261.864 1203.05 246.156 1244.74 226.372 1276.46Z" fill="#082054"/>
<path d="M221.314 1299.5L221.074 1298.95C269.763 1238.86 285.305 1147.39 300.335 1058.94C313.857 979.348 326.63 904.171 362.491 858.305C376.304 841.109 392.444 829.959 409.458 825.858C425.279 821.923 441.353 821.816 457.192 825.54C474.955 829.409 492.389 836.754 509.138 847.426L508.984 848.051C492.264 837.401 474.861 830.072 457.129 826.211C430.257 820.396 392.059 821.339 362.735 858.845C326.98 904.575 314.225 979.645 300.722 1059.12C285.673 1147.69 270.113 1239.27 221.314 1299.5Z" fill="#082054"/>
<g filter="url(#filter0_d_1088_11134)">
<path d="M573.71 1071.12C195.873 1041.59 306.319 1009.96 143.901 952.939C23.6206 910.708 -204 943.231 -204 943.231L-204 1071.12L573.71 1071.12Z" fill="#F89C43"/>
</g>
<path d="M574.146 1071.62L-204 1071.62L-204 942.863L-203.754 942.828C-161.798 937.271 -118.585 933.571 -74.814 931.785C-36.8207 930.072 1.54721 930.531 39.2486 933.151C81.6209 936.368 117.043 942.914 144.528 952.61C196.992 971.116 221.003 986.956 242.185 1000.93C286.455 1030.14 318.442 1051.24 574.213 1071.32L574.146 1071.62ZM-203.275 1071.32L570.24 1071.32C317.667 1051.3 285.721 1030.22 241.575 1001.1C220.421 987.14 196.442 971.32 144.065 952.845C82.0259 930.96 -9.15276 929.482 -74.7309 932.089C-118.363 933.874 -161.441 937.558 -203.275 943.083L-203.275 1071.32Z" fill="#082054"/>
<path d="M247.057 1059.05C241.99 1047.34 234.041 1035.98 223.385 1025.2C206.596 1007.84 175.193 983.486 120.92 966.05C46.5748 942.165 -50.6783 936.961 -168.125 950.576L-168.283 950.248C-50.638 936.608 46.7983 941.832 121.307 965.773C175.715 983.253 207.192 1007.67 224.018 1025.07C234.696 1035.87 242.659 1047.26 247.736 1058.99L247.057 1059.05Z" fill="#082054"/>
<path d="M433.286 1046.72C431.137 1055.09 427.794 1052.28 423.276 1052C419.051 1051.74 414.986 1055.65 410.803 1054.59C403.76 1052.82 398.482 1036.52 405.434 1021.58C406.976 1018.88 408.283 1015.94 409.329 1012.82C410.178 1009.54 410.153 1005.77 410.945 1002.43C411.222 1000.9 411.74 999.458 412.462 998.22C413.184 996.983 414.094 995.975 415.128 995.265C416.162 994.555 417.296 994.162 418.451 994.11C419.607 994.059 420.757 994.352 421.823 994.968C429.585 1000.27 430.103 1017.56 432.991 1027.58C434.717 1033.72 434.821 1040.49 433.286 1046.72Z" fill="white"/>
<path d="M412.744 1055.6C403.799 1056.24 397.485 1037.76 405.012 1021.78C406.556 1019.1 407.87 1016.19 408.928 1013.1C409.767 1009.91 409.763 1006.03 410.56 1002.72C410.856 1001.13 411.404 999.637 412.166 998.356C412.927 997.075 413.885 996.032 414.972 995.299C416.059 994.566 417.251 994.161 418.466 994.11C419.68 994.059 420.888 994.365 422.006 995.006C430.051 1000.46 430.407 1017.41 433.46 1027.85C435.231 1034.09 435.336 1040.96 433.756 1047.28C431.513 1056.04 427.703 1053.13 423.318 1052.84C419.66 1052.67 416.354 1055.34 412.744 1055.6ZM411.142 1002.98C409.666 1009.21 411.363 1011.11 406.803 1019.73C398.262 1035.91 403.349 1052.76 410.765 1054.6C414.845 1055.65 419.15 1051.69 423.354 1052.01C427.68 1052.26 431.036 1055.29 433.174 1047.01C434.707 1040.88 434.605 1034.21 432.884 1028.16C429.797 1017.56 429.44 1000.96 421.724 995.759C420.685 995.174 419.564 994.899 418.439 994.955C417.314 995.01 416.211 995.395 415.206 996.081C414.201 996.767 413.318 997.739 412.616 998.931C411.915 1000.12 411.412 1001.51 411.142 1002.98Z" fill="#0F2572"/>
<path d="M433.285 1046.83C431.136 1055.08 427.791 1052.31 423.27 1052.03C417.55 1051.68 412.02 1058.89 406.308 1051.23C404.922 1049.34 403.854 1047.07 403.177 1044.58C403.424 1043.74 404.037 1042.49 404.674 1042.75C405.138 1042.95 405.333 1043.87 405.706 1044.39C406.781 1045.91 408.307 1043.71 409.187 1043.17C411.294 1041.93 414.185 1044.74 415.843 1041.91C417.338 1039.39 416.369 1034.1 411.923 1033.1C412.827 1031.86 412.178 1029.37 411.271 1028.06C410.365 1026.77 409.163 1025.71 408.858 1023.83C408.731 1022.72 408.905 1021.59 409.348 1020.63C409.792 1019.68 410.475 1018.98 411.272 1018.65C414.461 1017.36 417.522 1021.02 417.532 1015.85C417.587 1012.57 419.553 1011.13 421.653 1010.07C423.749 1009.06 424.561 1001.06 421.751 996.172L421.816 995.79C429.637 1001.05 430.039 1017.87 432.99 1027.95C434.717 1034.01 434.821 1040.68 433.285 1046.83Z" fill="white"/>
<path d="M412.728 1055.61C410.439 1055.53 408.229 1054.46 406.423 1052.56C404.617 1050.65 403.311 1048.01 402.695 1045.02C402.668 1044.93 402.667 1044.82 402.692 1044.72C403.029 1043.62 403.749 1042.24 404.587 1042.63C405.826 1043.15 405.359 1046.35 407.989 1043.84C409.093 1042.82 409.595 1042.43 411.991 1042.89C413.294 1043.16 414.731 1043.32 415.559 1041.91C415.942 1041.04 416.124 1040.04 416.083 1039.03C416.043 1038.02 415.78 1037.04 415.33 1036.24C414.45 1034.77 413.176 1033.83 411.788 1033.64C411.732 1033.62 411.679 1033.59 411.637 1033.54C411.594 1033.49 411.562 1033.42 411.545 1033.35C411.528 1033.28 411.526 1033.2 411.539 1033.12C411.553 1033.05 411.581 1032.98 411.622 1032.93C412.396 1031.87 411.742 1029.55 410.952 1028.41C410.008 1027.08 408.761 1025.96 408.437 1023.92C408.284 1022.68 408.47 1021.42 408.959 1020.36C409.448 1019.3 410.206 1018.52 411.091 1018.16C412.622 1017.81 414.185 1017.82 415.713 1018.19C419.183 1018.38 414.383 1013.13 421.58 1009.47C421.841 1009.37 422.083 1009.19 422.289 1008.95C423.061 1006.91 423.401 1004.63 423.271 1002.34C423.141 1000.06 422.546 997.871 421.552 996.018C421.524 995.968 421.505 995.912 421.493 995.853C421.482 995.793 421.48 995.731 421.486 995.67L421.549 995.279C421.56 995.215 421.58 995.156 421.61 995.106C421.64 995.055 421.678 995.015 421.722 994.987C421.765 994.96 421.812 994.946 421.86 994.947C421.908 994.949 421.955 994.965 421.997 994.994C430.031 1000.42 430.476 1017.65 433.459 1027.85C435.231 1034.09 435.336 1040.97 433.755 1047.3C431.279 1056.96 426.528 1052.57 422.408 1052.86C419.216 1053.09 415.977 1055.38 412.728 1055.61ZM403.322 1044.88C403.87 1047.21 404.835 1049.31 406.13 1051.01C407.426 1052.71 409.012 1053.95 410.748 1054.62C414.831 1055.66 419.139 1051.71 423.346 1052.02C427.675 1052.28 431.033 1055.3 433.172 1047.02C434.707 1040.88 434.604 1034.21 432.882 1028.17C429.878 1017.94 429.625 1002.43 422.456 996.305C423.254 998.102 423.739 1000.12 423.876 1002.21C424.013 1004.3 423.797 1006.4 423.245 1008.36C423.148 1008.82 422.962 1009.24 422.707 1009.58C422.452 1009.91 422.137 1010.14 421.793 1010.26C419.787 1011.28 417.887 1012.6 417.827 1015.73C417.909 1021.47 414.155 1017.73 411.261 1018.97C410.531 1019.27 409.905 1019.92 409.497 1020.79C409.088 1021.67 408.925 1022.71 409.036 1023.73C409.328 1025.53 410.544 1026.59 411.397 1027.83C411.888 1028.48 412.238 1029.3 412.41 1030.2C412.583 1031.1 412.571 1032.04 412.376 1032.93C418.09 1034.68 418.355 1044.91 412.487 1043.83C411.408 1043.44 410.272 1043.44 409.193 1043.83C408.121 1044.48 406.369 1047.31 404.908 1044.2C404.747 1043.84 404.586 1043.51 404.401 1043.43C404.37 1043.41 404.338 1043.4 404.305 1043.41C403.899 1043.44 403.488 1044.38 403.322 1044.88Z" fill="#0F2572"/>
<path d="M433.281 1046.78C431.123 1055.08 427.765 1052.29 423.226 1052.02C417.483 1051.66 411.931 1058.92 406.195 1051.21C409.346 1049.37 413.433 1054.6 417.635 1048.93C421.402 1043.84 420.013 1034.83 416.095 1033.3C414.815 1032.79 414.875 1032.2 414.841 1029.96C414.842 1028.67 414.591 1027.41 414.115 1026.3C413.638 1025.18 412.953 1024.26 412.129 1023.62C412.213 1023.27 412.352 1022.94 412.537 1022.66C412.722 1022.38 412.949 1022.15 413.203 1022C413.456 1021.85 413.731 1021.77 414.008 1021.77C414.286 1021.77 414.56 1021.85 414.813 1022C415.778 1022.71 416.816 1023.21 417.892 1023.49C418.601 1023.38 419.258 1022.93 419.742 1022.22C420.227 1021.51 420.506 1020.58 420.529 1019.62C420.705 1017.09 420.947 1017.31 422.892 1016.54C426.553 1015.05 426.955 1006.97 427.611 1004.22C430.243 1011.38 430.761 1020.17 432.985 1027.79C434.718 1033.88 434.823 1040.6 433.281 1046.78Z" fill="white"/>
<path d="M405.783 1051.88C405.747 1051.83 405.72 1051.77 405.705 1051.7C405.691 1051.64 405.688 1051.57 405.699 1051.5C405.709 1051.43 405.732 1051.37 405.764 1051.32C405.797 1051.26 405.839 1051.22 405.887 1051.19C407.902 1050.65 409.983 1050.78 411.955 1051.55C420.39 1052.58 421.96 1036.17 415.813 1033.79C414.588 1033.31 414.456 1032.33 414.464 1030.45C414.517 1029.16 414.304 1027.88 413.85 1026.74C413.395 1025.6 412.715 1024.66 411.887 1024.01C411.358 1023.68 412.129 1022.21 412.655 1021.81C414.613 1020.3 416.248 1023.08 417.861 1023.07C419.159 1023.27 420.17 1021.06 420.247 1019.21C420.399 1014.68 423.672 1018.33 425.8 1011.9C426.49 1009.27 427.032 1006.57 427.42 1003.83C428.322 999.919 431.828 1022.14 433.452 1027.7C435.233 1033.96 435.338 1040.87 433.75 1047.23C431.261 1056.94 426.487 1052.53 422.346 1052.82C416.932 1053.21 411.461 1059.47 405.783 1051.88ZM406.597 1051.76C412.532 1059.01 417.528 1050.57 425.612 1052.37C429.451 1053.21 431.6 1053.01 433.164 1046.96C434.706 1040.79 434.603 1034.08 432.872 1028.01C430.743 1020.76 430.117 1012.13 427.795 1005.19C427.059 1009.53 426.395 1015.49 423.013 1016.86C421.587 1017.4 420.948 1017.31 420.867 1019.25C420.898 1020.38 420.62 1021.47 420.087 1022.33C419.554 1023.19 418.803 1023.75 417.981 1023.91C416.74 1024 415.758 1022.88 414.647 1022.39C414.244 1022.15 413.79 1022.12 413.373 1022.31C412.956 1022.5 412.607 1022.9 412.395 1023.42C413.255 1024.17 413.954 1025.22 414.425 1026.45C414.896 1027.69 415.122 1029.06 415.082 1030.45C415.095 1031.99 415.075 1032.61 415.981 1032.98C422.933 1035.75 420.99 1053.51 411.901 1052.39C410.168 1051.81 408.379 1051.6 406.597 1051.76Z" fill="#0F2572"/>
<path d="M417.775 1064.04C417.585 1066.2 420.256 1066.22 421.184 1064.48C421.644 1063.63 420.435 1061.14 420.101 1055.88C420.224 1053.59 420.216 1051.29 420.076 1049C419.645 1046.68 418.081 1048.67 418.32 1053.56C418.525 1057.07 418.341 1060.61 417.775 1064.04Z" fill="white"/>
<path d="M417.276 1064.36C417.896 1060.8 418.097 1057.13 417.874 1053.49C417.52 1046.63 421.075 1043.9 420.539 1052.93C420.317 1056.06 420.621 1059.21 421.43 1062.16C421.756 1063.64 421.952 1064.52 421.609 1065.12C421.602 1065.14 420.956 1066.22 420.388 1066.3C418.88 1066.96 417.081 1066.45 417.276 1064.36ZM419.483 1048.11C419.138 1048.18 418.33 1049.88 418.514 1053.43C418.746 1057.13 418.54 1060.85 417.905 1064.46C417.773 1065.86 419.222 1065.92 420.222 1065.48C420.25 1065.46 420.28 1065.46 420.31 1065.45L420.319 1065.45C420.631 1065.26 420.902 1064.97 421.107 1064.61C421.249 1064.35 421.052 1063.45 420.824 1062.4C420.321 1060.29 419.99 1058.12 419.836 1055.92C419.708 1053.99 420.397 1048.04 419.483 1048.11Z" fill="#0F2572"/>
<path d="M172.477 969.143C173.795 970.054 173.626 970.717 174.436 971.391C174.625 971.832 177.309 972.812 177.934 971.778C178.985 970.121 176.051 969.665 175.105 967.11C174.846 966.43 174.553 965.772 174.227 965.143C173.513 965.665 172.683 965.855 171.875 965.68C171.875 965.68 171.63 968.558 172.477 969.143Z" fill="#0A2778"/>
<path d="M156.695 916.542C156.727 916.932 156.803 917.312 156.92 917.674C158.933 924.063 163.455 928.698 163.437 929.143C164.994 931.284 170.283 939.191 169.997 942.06C169.874 945.076 168.735 946.11 169.113 950.423C169.584 955.115 172.069 966.092 172.069 966.092C172.416 966.409 172.812 966.623 173.23 966.718L173.229 966.74C173.483 966.817 173.75 966.781 173.987 966.638C174.223 966.496 174.415 966.254 174.533 965.953C174.56 965.274 174.449 946.209 174.938 942.679C175.332 940.987 175.299 939.176 174.844 937.509C174.857 937.19 169.821 920.717 166.51 914.452C166.165 913.772 165.772 913.023 165.363 912.252C165.19 912.289 156.342 911.452 156.695 916.542Z" fill="#FFC9D4"/>
<path d="M174.529 965.911C174.599 965.697 174.419 946.435 174.938 942.685C175.331 940.988 175.299 939.174 174.846 937.502C174.856 937.252 170.312 922.33 167.245 915.887C166.876 915.13 166.905 915.113 165.418 912.29C165.411 912.276 165.401 912.266 165.389 912.259C165.378 912.253 165.365 912.251 165.352 912.254C165.339 912.255 165.25 912.251 165.147 912.247C160.401 912.035 157.44 913.137 156.809 915.352C156.612 916.15 156.65 917.015 156.916 917.779C158.361 922.377 160.932 925.783 163.384 929.189C163.386 929.207 163.392 929.224 163.402 929.237C165.174 931.682 170.173 939.284 169.899 942.04C169.782 944.924 168.65 946.219 169.022 950.397C169.483 955.029 171.935 965.923 171.958 966.032C171.963 966.051 171.973 966.068 171.986 966.079C172.329 966.394 172.72 966.609 173.132 966.711C173.14 966.725 173.152 966.735 173.166 966.738C173.432 966.819 173.711 966.781 173.959 966.631C174.206 966.481 174.407 966.227 174.529 965.911ZM174.404 965.845C173.906 966.978 172.911 966.653 172.081 965.953C171.491 963.343 168.981 951.783 169.091 949.058C169.131 945.206 170.012 944.33 170.049 942.076C170.048 942.058 170.044 942.04 170.036 942.024C170.274 939.192 165.311 931.622 163.518 929.143C163.493 928.65 159.013 923.996 157.041 917.711C156.782 916.991 156.744 916.17 156.935 915.415C157.804 912.362 162.845 912.339 165.329 912.428C166.522 914.687 166.765 915.207 167.548 916.855C170.749 923.707 174.945 938.464 174.716 937.542C175.163 939.189 175.195 940.976 174.808 942.647C174.369 945.807 174.398 962.616 174.404 965.845Z" fill="#0F2572"/>
<path d="M156.695 916.543C156.727 916.932 156.803 917.313 156.92 917.674C158.933 924.065 163.455 928.7 163.437 929.145C164.994 931.286 170.283 939.194 169.997 942.063C169.881 944.906 168.752 946.307 169.113 950.428C169.949 951.01 170.869 951.364 171.815 951.47C172.761 951.576 173.714 951.43 174.615 951.042C174.609 948.25 174.717 945.46 174.938 942.683C175.332 940.99 175.299 939.18 174.844 937.513C174.857 937.193 169.821 920.718 166.51 914.452C166.165 913.772 165.772 913.024 165.363 912.252C165.19 912.289 156.342 911.452 156.695 916.543Z" fill="#0584DB"/>
<path d="M174.565 951.034C174.583 951.026 174.599 951.011 174.61 950.991C174.621 950.971 174.627 950.947 174.627 950.922C174.622 948.155 174.729 945.389 174.947 942.636C175.329 940.925 175.296 939.104 174.852 937.419C174.827 937.312 170.507 922.803 167.688 916.767C166.827 914.964 166.664 914.606 165.449 912.304C165.439 912.284 165.425 912.269 165.409 912.26C165.393 912.251 165.375 912.249 165.358 912.253C165.341 912.254 165.271 912.25 165.158 912.246C161.939 912.101 156.426 912.485 156.694 916.646C156.728 917.046 156.806 917.437 156.926 917.808C158.347 922.337 160.857 925.702 163.379 929.194C163.426 929.415 170.201 938.663 169.871 941.983C169.759 944.756 168.638 946.151 168.995 950.325C168.997 950.344 169.002 950.362 169.01 950.377C169.018 950.393 169.029 950.406 169.042 950.415C169.88 951.004 170.804 951.364 171.754 951.47C172.704 951.576 173.661 951.428 174.565 951.034ZM174.444 950.835C173.579 951.198 172.667 951.331 171.762 951.228C170.857 951.126 169.977 950.788 169.174 950.236C169.131 949.822 169.111 949.405 169.115 948.987C169.131 947.268 169.37 945.566 169.821 943.95C169.971 943.305 170.051 942.636 170.059 941.963C170.295 938.992 165.071 931.27 163.533 929.057C161.024 925.584 158.511 922.225 157.095 917.715C156.841 917.004 156.803 916.195 156.989 915.449C157.868 912.361 162.949 912.475 165.325 912.491C165.791 913.375 166.502 914.73 166.933 915.641C169.781 921.587 174.484 936.436 174.675 937.512C175.119 939.147 175.152 940.923 174.767 942.583C174.548 945.325 174.44 948.079 174.444 950.835Z" fill="#0F2572"/>
<path d="M174.247 901.233C174.246 901.236 174.247 901.238 174.247 901.241C174.248 901.244 174.249 901.246 174.251 901.249C174.252 901.251 174.254 901.252 174.256 901.254C174.258 901.255 174.26 901.255 174.262 901.255C174.873 902.254 175.958 904.351 176.894 906.003C177.787 907.296 178.078 908.835 180.108 908.289C183.714 907.393 185.921 903.539 190.383 898.705C191.109 898.282 191.748 897.64 192.246 896.832C192.356 896.598 192.428 896.338 192.458 896.067C192.488 895.796 192.475 895.519 192.42 895.255C192.365 894.99 192.269 894.743 192.138 894.529C192.007 894.315 191.844 894.137 191.658 894.008C190.525 893.126 189.77 893.204 189.286 893.606L189.287 893.585C188.997 893.325 187.791 893.808 187.776 894.199C187.848 895.05 188.017 895.883 188.277 896.669C185.352 898.158 182.555 900.044 179.933 902.296C178.834 898.893 177.687 890.898 175.451 888.374C173.087 885.673 171.598 886.239 170.463 888.62C170.463 888.642 170.428 888.683 170.427 888.705C169.262 891.474 172.129 897.412 174.247 901.233Z" fill="#FFC9D4"/>
<path d="M180.126 908.284C183.659 907.386 185.633 903.776 190.372 898.52C191.107 898.1 191.749 897.436 192.238 896.592C192.352 896.345 192.426 896.069 192.457 895.782C192.488 895.495 192.475 895.202 192.418 894.922C192.361 894.642 192.262 894.381 192.127 894.153C191.992 893.926 191.823 893.738 191.631 893.601C190.436 892.651 189.684 892.819 189.252 893.153C188.913 892.908 187.69 893.379 187.67 893.865C187.732 894.718 187.895 895.553 188.152 896.338C185.284 897.831 182.542 899.718 179.968 901.969C178.895 898.492 177.744 890.441 175.527 887.881C173.535 885.555 171.847 885.19 170.468 888.151C170.462 888.164 170.459 888.178 170.458 888.193C170.444 888.208 170.433 888.228 170.426 888.251C169.313 890.986 171.874 896.721 174.225 901.059C174.227 901.072 174.232 901.084 174.238 901.094C174.245 901.104 174.252 901.113 174.261 901.119C175.148 902.608 177.595 907.564 178.266 908.037C178.843 908.416 179.504 908.504 180.126 908.284ZM191.564 893.751C191.746 893.889 191.905 894.074 192.032 894.295C192.159 894.516 192.252 894.769 192.304 895.038C192.591 896.618 191.375 897.62 190.298 898.375C185.845 903.29 183.659 907.206 180.101 908.111C179.509 908.322 178.88 908.241 178.331 907.882C177.626 907.39 174.602 901.234 174.341 900.975C174.35 900.754 169.057 891.944 170.547 888.325C170.561 888.295 170.574 888.264 170.586 888.232C171.69 885.87 173.121 885.304 175.44 888.014C178.036 891.013 179.46 902.637 179.976 902.175C182.581 899.888 185.359 897.973 188.265 896.462C188.28 896.452 188.291 896.434 188.297 896.414C188.303 896.393 188.303 896.37 188.297 896.349C188.041 895.562 187.874 894.728 187.803 893.875C187.814 893.583 188.866 893.11 189.176 893.299C189.263 893.689 189.69 892.258 191.564 893.751Z" fill="#0F2572"/>
<path d="M176.895 905.985C177.272 906.742 177.718 907.434 178.221 908.043C178.783 908.417 179.426 908.502 180.031 908.283C183.089 907.496 185.146 904.36 186.824 902.47C187.103 902.131 187.57 901.641 188.264 900.764C186.092 902.868 183.83 904.794 181.489 906.534C180.762 907.034 179.946 907.247 179.133 907.15C178.321 907.053 177.545 906.649 176.895 905.985Z" fill="#0F2572"/>
<path d="M133.54 952.975C133.511 953.269 133.531 953.568 133.597 953.851C133.664 954.134 133.775 954.395 133.925 954.617C134.075 954.839 134.26 955.017 134.466 955.139C134.673 955.26 134.897 955.323 135.123 955.322C141.373 951.758 146.858 948.877 153.78 945.304C154.438 944.615 154.995 943.776 155.424 942.828C155.441 942.807 155.442 942.785 155.459 942.786C155.469 942.776 155.475 942.761 155.477 942.744C157.22 939.045 157.962 933.523 159.014 929.053C160.836 921.3 161.404 919.276 161.737 911.816L157.303 905.674C156.675 905.834 154.692 908.447 154.682 908.698C153.82 910.161 153.173 911.821 152.774 913.592C150.788 925.401 153.014 937.173 150.267 940.871C149.981 941.209 148.211 940.444 145.156 941.968C142.201 943.447 134.377 952.189 133.54 952.975Z" fill="#FFC9D4"/>
<path d="M135.179 955.322C135.347 955.334 141.524 951.617 147.859 948.402C147.867 948.398 147.874 948.392 147.881 948.385C147.877 948.392 147.907 948.38 147.919 948.373C147.931 948.373 147.943 948.368 147.954 948.359C148.147 948.205 153.564 945.442 153.776 945.332C153.782 945.329 153.788 945.325 153.793 945.321C154.452 944.61 155.017 943.761 155.464 942.809C155.483 942.79 155.496 942.764 155.503 942.735C157.243 939.029 157.978 933.53 159.025 929.083C160.802 921.494 161.402 919.407 161.737 911.887C161.738 911.875 161.736 911.863 161.733 911.852C161.73 911.841 161.725 911.831 161.719 911.823L157.307 905.702C157.299 905.691 157.29 905.683 157.279 905.678C157.268 905.674 157.257 905.673 157.246 905.677L157.178 905.694C157.171 905.696 157.164 905.699 157.158 905.705C156.168 906.483 155.299 907.5 154.597 908.702C153.744 910.192 153.096 911.865 152.683 913.647C150.827 924.673 152.82 937.694 150.176 940.81C145.175 941.057 144.635 941.04 133.938 952.434C133.797 952.57 133.664 952.719 133.54 952.881C133.51 953.186 133.531 953.495 133.6 953.789C133.668 954.083 133.784 954.354 133.939 954.585C134.094 954.816 134.285 955.001 134.498 955.128C134.712 955.255 134.944 955.322 135.179 955.322ZM135.171 955.147C134.959 955.145 134.749 955.085 134.555 954.97C134.361 954.855 134.188 954.689 134.047 954.482C133.905 954.274 133.798 954.03 133.733 953.765C133.668 953.501 133.645 953.221 133.668 952.944C144.703 941.456 144.712 941.29 150.205 940.983C150.22 940.982 150.235 940.975 150.247 940.962C152.4 938.464 151.738 928.025 151.934 923.151C152.048 919.918 152.35 916.701 152.836 913.527C153.545 910.367 155.1 907.646 157.216 905.863L157.235 905.856L161.602 911.915C161.271 919.315 160.688 921.419 158.896 929.032C157.863 933.435 157.11 938.986 155.384 942.655L155.379 942.671C154.927 943.613 154.368 944.458 153.719 945.176C147.333 948.474 147.916 948.19 147.868 948.212C147.582 948.285 137.046 954.033 135.171 955.147Z" fill="#0F2572"/>
<path d="M144.895 941.985C145.055 943.236 145.403 944.433 145.918 945.505C146.433 946.578 147.105 947.504 147.895 948.23C153.557 945.301 153.431 945.367 153.678 945.085C156.542 941.814 157.363 934.628 158.658 929.063C160.467 921.307 161.827 919.447 162.158 911.984L156.958 905.674C156.334 905.835 154.365 908.448 154.355 908.699C153.499 910.163 152.857 911.823 152.46 913.595C150.545 925.065 152.61 936.59 150.14 940.61C149.581 941.52 148.332 940.258 144.895 941.985Z" fill="#0584DB"/>
<path d="M148.022 948.23C148.035 948.23 148.048 948.228 148.06 948.222C153.413 945.499 153.671 945.386 153.95 945.073C156.883 941.788 157.701 934.672 159.026 929.086C160.818 921.555 162.243 919.493 162.579 912.075C162.58 912.057 162.578 912.039 162.573 912.023C162.568 912.006 162.56 911.991 162.55 911.979L157.279 905.705C157.268 905.693 157.255 905.684 157.241 905.679C157.227 905.674 157.212 905.673 157.198 905.676C156.588 905.834 155.064 907.733 154.503 908.709C153.633 910.197 152.975 911.875 152.563 913.663C150.646 924.891 152.705 936.509 150.23 940.459C149.713 941.283 148.377 940.101 144.954 941.788C144.934 941.797 144.918 941.815 144.907 941.838C144.897 941.862 144.893 941.889 144.896 941.916C145.06 943.186 145.422 944.401 145.959 945.486C146.497 946.571 147.198 947.504 148.022 948.23ZM162.392 912.117C162.054 919.429 160.664 921.384 158.848 929.016C157.531 934.584 156.707 941.668 153.829 944.892C153.597 945.151 153.871 945.008 148.039 947.975C146.488 946.551 145.429 944.398 145.09 941.978C146.584 941.253 148.175 940.921 149.77 941.001C149.887 940.998 150.002 940.961 150.107 940.893C150.212 940.826 150.304 940.729 150.376 940.609C152.944 936.509 150.801 925.114 152.746 913.695C153.242 911.562 154.098 909.599 155.253 907.947C155.816 907.155 156.466 906.473 157.181 905.924L157.188 905.922L162.392 912.117Z" fill="#0F2572"/>
<path d="M152.474 913.749L152.476 913.761C153.877 914.836 155.337 915.774 156.844 916.567C161.403 918.962 163.005 918.516 167.632 916.77C167.447 916.494 167.306 916.171 167.22 915.821C167.134 915.471 167.103 915.101 167.129 914.735C166.359 914.401 166.744 914.57 154.018 908.948C153.224 910.369 152.696 912.014 152.474 913.749Z" fill="#0A2778"/>
<path d="M152.474 912.722C154.333 914.135 156.302 915.297 158.348 916.189C161.227 917.5 164.377 917.442 167.225 916.025C166.363 909.425 171.679 902.652 173.135 898.303C174.336 894.725 176.149 886.984 173.168 886.326C172.638 886.203 172.1 886.145 171.561 886.153L171.558 886.218C171.667 886.952 171.579 887.712 171.308 888.374C171.037 889.035 170.599 889.56 170.066 889.863C167.743 891.161 165.817 888.213 165.561 884.942C162.869 885.763 159.079 886.567 157.08 888.683C155.29 892.726 157.17 898.114 156.221 903.827C155.719 906.787 155.106 907.514 154.209 908.549C153.39 909.752 152.797 911.18 152.474 912.722Z" fill="white"/>
<path d="M162.072 917.096C163.832 917.254 165.597 916.886 167.228 916.022C167.246 916.011 167.262 915.993 167.271 915.97C167.281 915.947 167.284 915.92 167.28 915.894C166.436 909.369 171.692 902.69 173.14 898.369C174.103 895.497 175.456 889.981 174.414 887.518C174.235 887.118 173.976 886.787 173.663 886.561C173.349 886.334 172.995 886.22 172.635 886.23C172.255 886.158 171.87 886.129 171.486 886.144C171.463 886.146 171.442 886.159 171.426 886.179C171.411 886.2 171.401 886.227 171.4 886.256L171.398 886.321C171.489 886.944 171.434 887.588 171.24 888.172C171.046 888.755 170.722 889.252 170.308 889.599C169.894 889.947 169.409 890.129 168.914 890.124C168.419 890.118 167.936 889.925 167.527 889.568C166.957 889.058 166.488 888.383 166.158 887.598C165.828 886.813 165.647 885.94 165.629 885.048C165.627 885.031 165.623 885.015 165.616 885.001C165.609 884.986 165.6 884.974 165.59 884.964C165.579 884.954 165.566 884.948 165.554 884.944C165.541 884.941 165.527 884.942 165.514 884.945C163.146 885.678 159.114 886.508 157.061 888.683C157.053 888.691 157.046 888.701 157.04 888.713C155.285 892.83 157.089 898.274 156.175 903.781C155.712 906.529 155.135 907.346 154.319 908.276C153.312 909.438 152.288 912.582 152.503 912.739C155.455 914.885 158.688 916.868 162.072 917.096ZM167.087 915.842C164.297 917.205 161.22 917.248 158.408 915.962C156.406 915.09 154.479 913.956 152.658 912.578C152.981 911.037 153.594 909.62 154.443 908.453C155.306 907.464 155.882 906.633 156.357 903.831C157.27 898.331 155.474 892.733 157.193 888.852C159.109 886.834 162.787 885.992 165.456 885.206C165.482 885.475 165.51 885.628 165.53 885.859C165.622 886.636 165.836 887.381 166.159 888.049C166.482 888.718 166.906 889.296 167.408 889.749C167.84 890.133 168.352 890.346 168.878 890.36C169.404 890.375 169.922 890.192 170.367 889.832C170.813 889.473 171.166 888.954 171.383 888.34C171.601 887.725 171.672 887.043 171.59 886.377C172.088 886.38 172.585 886.439 173.075 886.552C175.944 887.189 174.123 894.842 172.97 898.275C171.553 902.518 166.282 909.253 167.087 915.842Z" fill="#0A2778"/>
<path d="M171 902.401C170.657 902.815 167.311 907.118 166.595 909.935C166.197 911.967 166.325 914.109 166.961 916.04C166.333 911.258 168.915 906.482 171 902.401Z" fill="#0F2572"/>
<path d="M154.158 913.893C154.66 914.234 155.23 914.58 155.833 914.949C156.945 911.753 158.546 906.658 158.924 903.324C159.269 900.154 159.303 896.941 159.026 893.76L157.712 893.672C156.722 901.728 159.221 903.555 154.158 913.893Z" fill="#15A7F9"/>
<path d="M158.936 903.356C159.267 900.209 159.299 897.02 159.033 893.862C159.03 893.835 159.02 893.809 159.004 893.791C158.989 893.772 158.969 893.76 158.948 893.759L157.683 893.672C157.66 893.67 157.638 893.68 157.621 893.698C157.603 893.717 157.592 893.743 157.588 893.772C156.633 901.746 159.04 903.542 154.175 913.73C154.08 913.924 154.351 914.009 155.827 914.946C156.105 915.126 158.557 906.78 158.936 903.356ZM158.862 893.993C159.115 897.097 159.079 900.23 158.757 903.323C158.363 906.876 156.603 912.364 155.821 914.678C155.364 914.392 154.811 914.045 154.382 913.748C159.161 903.685 156.852 901.644 157.756 893.916L158.862 893.993Z" fill="#0F2572"/>
<path d="M163.421 885.539C164.36 888.451 166.134 892.154 168.948 892.032C172.528 891.873 172.756 887.994 172.671 886.252C172.311 886.186 171.946 886.161 171.582 886.179L171.579 886.245C171.672 886.909 171.61 887.594 171.401 888.212C171.192 888.831 170.845 889.357 170.404 889.724C169.963 890.091 169.447 890.283 168.922 890.276C168.396 890.269 167.884 890.062 167.449 889.683C166.943 889.225 166.513 888.64 166.186 887.964C165.859 887.289 165.642 886.535 165.546 885.749C165.523 885.481 165.481 885.233 165.458 884.942C164.365 885.276 164.658 885.213 163.421 885.539Z" fill="#15A7F9"/>
<path d="M168.596 892.025C171.17 892.197 172.855 890.111 172.671 886.313C172.669 886.285 172.66 886.26 172.645 886.24C172.631 886.22 172.611 886.207 172.589 886.203C172.23 886.139 171.866 886.115 171.504 886.131C171.481 886.133 171.46 886.146 171.444 886.167C171.428 886.187 171.419 886.214 171.418 886.243L171.415 886.307C171.506 886.928 171.451 887.569 171.255 888.149C171.06 888.73 170.733 889.224 170.316 889.57C169.899 889.916 169.411 890.098 168.912 890.093C168.414 890.087 167.928 889.895 167.516 889.541C166.945 889.028 166.475 888.355 166.143 887.574C165.812 886.794 165.627 885.926 165.603 885.04C165.579 884.813 165.521 884.986 163.496 885.515C163.483 885.518 163.47 885.525 163.459 885.536C163.448 885.546 163.439 885.559 163.433 885.575C163.426 885.59 163.422 885.607 163.422 885.624C163.421 885.642 163.423 885.659 163.428 885.675C164.191 888.008 165.855 891.843 168.596 892.025ZM172.489 886.426C172.616 889.591 171.452 891.682 168.927 891.793C166.373 891.896 164.639 888.697 163.644 885.717C164.171 885.579 165.175 885.272 165.429 885.198C165.456 885.466 165.484 885.617 165.504 885.847C165.597 886.621 165.813 887.363 166.138 888.028C166.463 888.694 166.891 889.27 167.395 889.721C167.831 890.103 168.346 890.315 168.876 890.33C169.406 890.344 169.928 890.161 170.377 889.804C170.826 889.446 171.182 888.929 171.401 888.318C171.619 887.706 171.692 887.026 171.608 886.363C171.903 886.357 172.197 886.378 172.489 886.426Z" fill="#0F2572"/>
<path d="M157.049 888.669C157.381 888.522 157.725 888.42 158.075 888.363C158.879 888.24 160.184 887.907 160.442 888.976C161.673 894.063 160.403 896.747 156.484 898.582C156.359 894.848 155.831 891.417 157.049 888.669Z" fill="#0F2572"/>
<path d="M165.696 884.799C168.78 884.376 168.447 877.304 168.447 877.304C171.948 884.057 171.512 883.043 171.468 883.563C171.481 883.553 171.496 883.547 171.509 883.537C171.33 886.515 171.239 885.45 171.843 887.966C170.084 893.688 164.489 887.929 165.696 884.799Z" fill="#FFC9D4"/>
<path d="M171.837 887.947C171.84 887.939 171.842 887.929 171.843 887.919C171.843 887.909 171.842 887.898 171.839 887.889C171.223 885.454 171.299 886.597 171.494 883.549C171.494 883.534 171.492 883.518 171.486 883.504C171.481 883.49 171.473 883.478 171.463 883.47L171.459 883.468L171.483 883.213C171.484 883.192 171.48 883.172 171.471 883.155L168.281 877.341C168.273 877.326 168.261 877.314 168.247 877.308C168.233 877.303 168.218 877.303 168.204 877.309C168.19 877.315 168.178 877.327 168.17 877.342C168.162 877.358 168.158 877.376 168.159 877.395C168.163 877.464 168.466 884.299 165.344 884.704C165.333 884.706 165.323 884.711 165.314 884.719C165.304 884.727 165.297 884.737 165.292 884.75C163.981 887.96 169.97 893.692 171.837 887.947ZM171.704 887.911C169.906 893.356 164.249 887.861 165.393 884.87C168.227 884.456 168.321 879.002 168.302 877.674C171.776 884.008 171.359 883.088 171.316 883.559C171.315 883.575 171.317 883.591 171.323 883.606C171.328 883.62 171.337 883.632 171.347 883.641L171.354 883.645L171.207 885.937C171.207 885.947 171.208 885.957 171.209 885.966C171.277 886.273 171.504 887.117 171.704 887.911Z" fill="#0F2572"/>
<path d="M168.79 877.137C167.57 882.541 170.203 885.983 171.288 885.43C172.799 884.633 176.367 878.66 174.002 875.574C172.75 873.922 170.113 874.241 168.79 877.137Z" fill="#FFC9D4"/>
<path d="M171 885.487C172.119 885.563 174.302 881.826 174.705 879.27C175.357 875.154 172.13 873.289 169.891 875.545C169.444 875.993 169.068 876.548 168.782 877.18C167.703 881.975 169.707 885.399 171 885.487ZM174.575 879.236C174.154 881.901 172.28 884.731 171.27 885.264C170.224 885.793 167.749 882.397 168.909 877.239C170.788 873.123 175.33 874.416 174.575 879.236Z" fill="#0F2572"/>
<path d="M158.984 886.925C159.705 887.222 160.554 888.832 160.754 889.9C160.882 890.44 160.923 891.007 160.875 891.568C160.827 892.129 160.691 892.671 160.475 893.161C160.259 893.651 159.968 894.078 159.62 894.417C159.271 894.755 158.873 894.997 158.449 895.128C156.537 895.867 153.618 894.98 149.971 894.911C148.783 894.86 147.594 894.953 146.42 895.19C146.174 898.71 145.171 906.018 144.866 908.233C144.633 909.932 145.738 910.746 145.59 912.94C145.582 913.345 145.594 913.75 145.627 914.153C145.589 914.571 145.35 915.053 144.423 914.93C143.974 914.925 143.53 914.804 143.118 914.573C142.706 914.343 142.333 914.007 142.023 913.587C141.756 913.089 142.292 910.909 142.284 909.619C142.177 906.183 141.79 894.855 142.018 893.732C142.125 892.925 142.389 892.165 142.783 891.524C144.374 889.465 155.358 885.365 158.984 886.925Z" fill="#FFC9D4"/>
<path d="M144.614 914.945C145.322 914.993 145.808 914.663 145.717 913.729C145.74 912.945 145.704 912.16 145.608 911.385C145.553 910.674 144.796 909.539 144.979 908.204C146.035 900.54 146.399 896.959 146.518 895.298C148.328 894.805 151.975 895.136 153.709 895.325C155.588 895.532 157.217 895.713 158.422 895.248C158.85 895.112 159.251 894.865 159.603 894.522C159.955 894.178 160.248 893.745 160.467 893.25C160.685 892.754 160.824 892.206 160.874 891.639C160.924 891.071 160.884 890.497 160.757 889.95C160.627 889.316 160.4 888.723 160.09 888.204C159.781 887.686 159.394 887.253 158.954 886.931C155.289 885.348 144.358 889.501 142.797 891.522C142.396 892.17 142.129 892.938 142.018 893.756C141.778 894.948 142.218 907.602 142.281 909.57C142.293 910.833 141.739 913.013 142.034 913.559C142.539 914.502 143.743 914.885 144.614 914.945ZM151.316 894.923C150.66 894.878 146.426 894.782 146.389 895.219C146.276 896.847 145.915 900.416 144.846 908.174C144.805 908.641 144.832 909.115 144.924 909.569C145.136 910.17 145.321 910.787 145.478 911.415C145.477 911.424 145.479 911.432 145.482 911.439C145.568 912.204 145.602 912.977 145.586 913.75C145.677 914.638 145.165 914.856 144.478 914.757C143.672 914.652 142.613 914.34 142.142 913.46C141.903 913.015 142.425 910.818 142.415 909.566C142.367 908.056 141.915 894.958 142.147 893.8C142.253 893.013 142.509 892.272 142.89 891.645C144.454 889.62 155.313 885.552 158.913 887.095C159.332 887.406 159.7 887.822 159.995 888.319C160.289 888.816 160.505 889.384 160.628 889.99C160.755 890.516 160.796 891.069 160.751 891.617C160.705 892.164 160.572 892.693 160.362 893.171C160.151 893.649 159.866 894.065 159.526 894.394C159.186 894.723 158.796 894.957 158.383 895.082C156.751 895.715 154.289 895.126 151.316 894.923Z" fill="#0F2572"/>
<path d="M131.59 954.932C131.609 956.863 131.069 956.988 131.002 958.23C130.982 959.38 131.211 960.516 131.664 961.514C131.741 961.72 131.851 961.904 131.987 962.053C132.123 962.203 132.282 962.316 132.454 962.384C134.113 962.784 132.987 959.238 134.285 956.942C134.627 956.324 134.937 955.677 135.211 955.007C134.5 954.446 133.961 953.595 133.685 952.594C133.685 952.594 131.578 953.692 131.59 954.932Z" fill="#0A2778"/>
<path fill-rule="evenodd" clip-rule="evenodd" d="M168.331 870.065C170.29 869.438 169.979 869.825 170.895 869.106C171.811 868.387 173.752 868.201 174.763 869.824C175.379 870.757 176.056 871.613 176.787 872.383C177.197 872.962 178.599 878.01 174.066 877.878C172.513 877.833 171.351 875.371 170.623 877.499C170.358 878.223 170.152 878.983 170.009 879.766C169.469 883.13 167.489 881.447 167.415 879.222C167.484 877.634 167.16 876.061 166.492 874.746C166.171 874.092 166.372 870.691 168.331 870.065Z" fill="#0F2572"/>
<path d="M135.21 954.777C145.145 949.322 152.252 945.935 153.758 945.187C154.424 944.515 154.987 943.698 155.421 942.774C155.204 943.102 154.142 944.528 151.354 945.455C148.255 946.49 135.977 954.293 135.21 954.777Z" fill="#0F2572"/>
<path d="M168.899 949.151C168.785 951.914 171.33 963.488 171.937 966.154C172.286 966.47 172.685 966.684 173.105 966.78C172.988 966.312 169.254 951.296 169.355 948C169.423 946.343 169.533 944.906 169.661 943.865C169.176 945.559 168.918 947.346 168.899 949.151Z" fill="#0A2778"/>
</g>
<defs>
<filter id="filter0_d_1088_11134" x="-208" y="919.274" width="785.71" height="151.847" filterUnits="userSpaceOnUse" color-interpolation-filters="sRGB">
<feFlood flood-opacity="0" result="BackgroundImageFix"/>
<feColorMatrix in="SourceAlpha" type="matrix" values="0 0 0 0 0 0 0 0 0 0 0 0 0 0 0 0 0 0 127 0" result="hardAlpha"/>
<feOffset dy="-8"/>
<feGaussianBlur stdDeviation="2"/>
<feComposite in2="hardAlpha" operator="out"/>
<feColorMatrix type="matrix" values="0 0 0 0 0 0 0 0 0 0 0 0 0 0 0 0 0 0 0.25 0"/>
<feBlend mode="normal" in2="BackgroundImageFix" result="effect1_dropShadow_1088_11134"/>
<feBlend mode="normal" in="SourceGraphic" in2="effect1_dropShadow_1088_11134" result="shape"/>
</filter>
<clipPath id="clip0_1088_11134">
<rect width="480" height="1069" fill="white" transform="translate(0 0.417236)"/>
</clipPath>
</defs>
</svg>
