<svg width="480" height="2850" viewBox="0 0 480 2850" fill="none" xmlns="http://www.w3.org/2000/svg">
<g clip-path="url(#clip0_1088_11250)">
<rect width="480" height="2849" transform="translate(0 0.417236)" fill="#0461B5"/>
<path d="M40.9487 3017.58C40.9487 3017.58 -18.2828 2888.63 66.6958 2857.79C151.674 2826.95 342.272 2790.27 415.096 2783.75C487.92 2777.22 532.598 2814.77 533.241 2846.1L40.9487 3017.58Z" fill="#CAEFFC"/>
<path d="M-254.994 2862.22C-254.994 2862.22 -259.535 2805.93 -19.6383 2808.3C49.5677 2808.98 136.466 2837.57 198.016 2815.78C348.945 2762.34 474.454 2774.73 482.398 2862.22H-254.994Z" fill="#60D0FF"/>
<path d="M482.978 2862.22H-254.978L-254.995 2861.99C-255.003 2861.91 -255.527 2853.52 -242.811 2843.52C-222.007 2827.17 -168.808 2808.06 -33.9528 2808.06C-29.1802 2808.06 -24.3193 2808.08 -19.3393 2808.13C5.04126 2808.37 32.2036 2812.13 58.472 2815.77C107.579 2822.56 158.355 2829.59 198.141 2815.59C246.026 2798.74 292.755 2788.13 333.273 2784.9C373.946 2781.67 408.801 2785.85 434.069 2796.99C448.207 2803.14 459.942 2811.96 468.101 2822.57C476.996 2834.68 482.077 2848.15 482.952 2861.96L482.978 2862.22ZM-254.342 2861.73H482.271C479.473 2832.01 463.145 2810.38 433.735 2797.41C408.586 2786.32 373.866 2782.17 333.344 2785.39C292.896 2788.61 246.242 2799.21 198.421 2816.04C158.438 2830.1 107.558 2823.06 58.3531 2816.25C30.9044 2812.45 4.97711 2808.86 -19.3488 2808.63C-164.703 2807.22 -220.82 2826.98 -242.293 2843.83C-253.66 2852.75 -254.323 2860.33 -254.342 2861.73Z" fill="#082054"/>
</g>
<defs>
<clipPath id="clip0_1088_11250">
<rect width="480" height="2849" fill="white" transform="translate(0 0.417236)"/>
</clipPath>
</defs>
</svg>
