<svg width="480" height="1388" viewBox="0 0 480 1388" fill="none" xmlns="http://www.w3.org/2000/svg">
<g clip-path="url(#clip0_1088_11316)">
<rect width="480" height="1387" transform="translate(0 0.416992)" fill="#60D0FF"/>
<g filter="url(#filter0_d_1088_11316)">
<path d="M-74.2133 1791C-74.2133 1791 -179.758 1487.57 -28.3348 1414.99C123.088 1342.42 462.712 1256.1 592.478 1240.75C722.243 1225.41 801.854 1313.76 803 1387.48L-74.2133 1791Z" fill="#CAEFFC"/>
</g>
<g filter="url(#filter1_d_1088_11316)">
<path d="M703.211 1370.95C667.306 1429.95 559.022 1421.84 461.253 1425.37C384.419 1428.1 239.375 1543.74 41.6471 1642.33C-158.282 1742.08 -344.169 1631.38 -339.929 1554.87C-335.682 1476.86 -238.799 1444.72 28.5635 1337.31C218.093 1261.17 620.156 1229.93 691.635 1300.44C712.568 1321.39 718.981 1345.43 703.211 1370.95Z" fill="#88D8FC"/>
</g>
<path d="M-304.279 1621.49C-329.098 1599.83 -342.111 1576.14 -340.926 1554.77C-336.625 1475.86 -236.033 1442.94 27.9024 1337.2C118.143 1301.03 262.198 1272.94 403.836 1263.9C551.145 1254.52 658.617 1268.19 691.467 1300.52C703.661 1312.69 713.055 1327.77 711.904 1345.91C711.096 1355.2 708.062 1364.09 703.12 1371.63C672.364 1422.06 590.774 1423.55 504.398 1425.12C429.979 1426.5 426.89 1420.67 253.302 1524.12C191.226 1561.11 120.867 1603.04 41.3657 1642.59C-90.9496 1708.46 -230.972 1685.12 -304.279 1621.49ZM471.67 1262.29C338.117 1264.4 149.326 1289.75 28.2435 1338.29C-236.293 1444.32 -335.653 1477.06 -339.887 1554.84C-344.08 1630.34 -158.88 1741.02 40.9432 1641.54C120.414 1602 190.752 1560.09 252.808 1523.1C426.237 1419.76 430.811 1425.3 504.383 1423.97C590.483 1422.4 671.808 1420.92 702.262 1370.98C707.102 1363.6 710.072 1354.91 710.86 1345.82C712.009 1327.98 702.625 1313.23 690.783 1301.38C663.391 1274.43 583.486 1260.53 471.67 1262.29Z" fill="#0F2572"/>
<path d="M62.7262 1307.08C51.1783 1303.21 56.1431 1294.13 53.8676 1285.5C52.7163 1281.17 49.6422 1278.74 49.5096 1275.88C49.4975 1275.87 49.4975 1275.87 49.5084 1275.85C49.483 1275.75 49.4621 1275.66 49.4457 1275.56C48.3383 1269.26 37.4758 1264.16 31.8029 1264.5C25.9844 1264.85 20.4244 1271.61 16.9563 1276.96C9.05487 1289.14 16.6061 1289.85 6.96693 1300.21C4.43064 1304.22 -13.0777 1309.92 5.88895 1331.8C8.84457 1335.24 12.2866 1338.09 16.0723 1340.24C23.6498 1344.07 30.0603 1338.72 37.4659 1338.06C44.6312 1337.4 49.4903 1339.04 58.5754 1328.01C62.9156 1322.84 68.084 1308.88 62.7262 1307.08Z" fill="white"/>
<path d="M22.6025 1341.81C15.468 1342.23 10.5008 1336.83 5.74023 1331.96C3.587 1329.58 1.63364 1326.98 -0.0945036 1324.19C-9.3464 1308.64 4.88932 1303.11 6.79883 1300.07C16.3697 1289.78 8.87171 1289.03 16.7914 1276.82C21.6291 1269.36 27.491 1262.89 35.2744 1264.55C38.7166 1265.24 48.5289 1269.14 49.6468 1275.52C50.2462 1279.32 52.9192 1281.1 54.0625 1285.44C56.3881 1294.22 51.3793 1303.03 62.7831 1306.85C66.7739 1308.2 64.9855 1315.89 63.1363 1320.43C60.3063 1327.29 55.4953 1332.85 49.5011 1336.18C45.6597 1337.79 41.5734 1338.51 37.4831 1338.3C32.3669 1338.75 27.6332 1341.51 22.6025 1341.81ZM6.11474 1331.73C21.2821 1348.81 26.1249 1338.07 39.9804 1337.71C42.6649 1337.93 45.3598 1337.49 47.8789 1336.41C61.5721 1331 68.5683 1309.28 62.6663 1307.3C54.4886 1304.56 54.4435 1299.12 54.3948 1293.35C54.8234 1288.89 53.7665 1284.4 51.4314 1280.78C50.4255 1279.38 49.7055 1277.74 49.3236 1275.99C49.2998 1275.95 49.2894 1275.9 49.2942 1275.85C49.2725 1275.77 49.2551 1275.68 49.242 1275.6C48.1517 1269.39 37.354 1264.4 31.8153 1264.74C25.771 1265.1 20.0188 1272.63 17.126 1277.09C9.24241 1289.24 16.8406 1289.92 7.10613 1300.38C4.22201 1304.98 -12.9175 1309.86 6.0113 1331.61C6.05461 1331.64 6.09038 1331.68 6.11474 1331.73Z" fill="#0F2572"/>
<path d="M49.4165 1335.96C49.393 1335.95 49.3822 1335.97 49.371 1335.98C45.5687 1337.59 41.5177 1338.29 37.4659 1338.06C29.4823 1338.77 23.3208 1344.58 14.8923 1339.6C11.6091 1337.45 8.58328 1334.83 5.88894 1331.8C0.510389 1325.59 5.24247 1331.73 10.4834 1329.88C11.2645 1329.65 11.9712 1329.17 12.5164 1328.5C13.0617 1327.83 13.422 1326.99 13.5528 1326.09C14.1425 1321.18 7.99275 1314.61 10.8358 1310.66C12.4676 1308.38 15.9723 1308.77 18.8255 1308.26C22.1583 1307.43 25.0784 1305.17 26.9704 1301.95C28.8625 1298.73 29.5787 1294.8 28.968 1290.99C28.0686 1285.97 25.1096 1280.47 27.6429 1276.29C29.8685 1272.64 33.7612 1273.56 35.2335 1264.78C39.7093 1265.93 43.9212 1268.14 47.5958 1271.26C49.8682 1273.1 48.8918 1275.11 50.0337 1277.75C46.8107 1280.93 41.9339 1288.33 42.3346 1293.13C42.3883 1294.24 42.7686 1295.29 43.4144 1296.13C44.0603 1296.96 44.9341 1297.52 45.8956 1297.72C47.5263 1297.58 49.1167 1297.07 50.5793 1296.24C52.141 1295.68 54.3422 1295.99 54.7153 1297.59C55.0185 1298.91 53.8103 1300.16 52.8477 1301.24C51.2929 1302.85 50.1168 1304.88 49.4258 1307.14C48.7348 1309.39 48.5507 1311.81 48.8902 1314.17C49.1052 1315.22 49.5394 1316.2 50.1565 1317.02C50.7735 1317.84 51.5553 1318.48 52.4358 1318.88C53.3164 1319.29 54.2699 1319.45 55.2162 1319.35C56.1625 1319.25 57.0737 1318.89 57.8731 1318.31C60.6252 1316.29 63.0193 1313.71 64.9306 1310.69C65.7508 1317.55 59.4797 1330.62 49.4165 1335.96Z" fill="white"/>
<path d="M15.3947 1340.15C10.8095 1337.33 6.72119 1333.59 3.3356 1329.09C3.30467 1329.05 3.28663 1329 3.28441 1328.95C3.28219 1328.89 3.29588 1328.84 3.32334 1328.8C3.35079 1328.75 3.39032 1328.72 3.43544 1328.71C3.48056 1328.7 3.52864 1328.7 3.57167 1328.72C5.69055 1329.93 8.11321 1330.26 10.4236 1329.66C11.1688 1329.45 11.8437 1329 12.3641 1328.36C12.8846 1327.72 13.2276 1326.92 13.3504 1326.06C13.9235 1321.23 7.7269 1314.62 10.6752 1310.51C12.3713 1308.14 15.9674 1308.53 18.7891 1308.03C22.0662 1307.21 24.937 1304.99 26.7978 1301.82C28.6586 1298.65 29.3644 1294.78 28.767 1291.04C27.8508 1286 24.8836 1280.42 27.4741 1276.16C28.7902 1274.56 30.2805 1273.15 31.9092 1271.98C35.1289 1268.72 34.5648 1264.44 35.2686 1264.55C39.7749 1265.71 44.0159 1267.93 47.7157 1271.07C48.3248 1271.62 48.8172 1272.32 49.1565 1273.11C49.4959 1273.91 49.6735 1274.78 49.6764 1275.66C49.6832 1275.7 49.6927 1275.74 49.7048 1275.78C49.7186 1275.89 49.7393 1276.01 49.7666 1276.12C49.8651 1276.59 49.9961 1277.05 50.1585 1277.5L50.2169 1277.65C50.2367 1277.7 50.2426 1277.75 50.2335 1277.8C50.2245 1277.85 50.2011 1277.9 50.167 1277.93C46.997 1281.05 42.1496 1288.42 42.5374 1293.11C42.591 1294.16 42.9522 1295.16 43.5638 1295.96C44.1754 1296.75 45.0026 1297.29 45.9147 1297.49C48.5208 1297.77 51.1299 1294.46 53.9641 1296.22C54.1934 1296.35 54.3964 1296.54 54.5603 1296.76C54.7241 1296.99 54.8452 1297.25 54.916 1297.53C55.5317 1300.21 51.2457 1301.44 49.3792 1307.98C48.2263 1312.12 48.8331 1316.81 52.2669 1318.55C58.6538 1321.77 64.218 1310.23 64.9862 1310.47C65.2488 1310.56 65.1862 1311.88 65.1697 1312.19C64.8363 1322.39 55.14 1335.84 45.0185 1337.73C38.8079 1338.94 39.8126 1336.96 30.1693 1340.06C24.6449 1341.83 20.5797 1342.93 15.3947 1340.15ZM6.11465 1331.73C21.1303 1348.23 25.9905 1338.85 37.4495 1337.83C40.9394 1337.95 44.4261 1337.48 47.7936 1336.44C47.8178 1336.42 47.845 1336.41 47.8728 1336.41C48.2792 1336.24 48.7295 1336.03 49.292 1335.77C56.5591 1332.53 65.1702 1320.02 64.7651 1311.28C58.0334 1320.5 54.7207 1320.29 52.1027 1318.98C47.3001 1316.56 46.9151 1307.42 52.8689 1300.88C53.7604 1299.89 54.772 1298.77 54.5187 1297.65C54.4622 1297.43 54.366 1297.22 54.2361 1297.05C54.1062 1296.87 53.9456 1296.73 53.7646 1296.63C51.1263 1294.98 48.6431 1298.24 45.8788 1297.96C44.8712 1297.74 43.9547 1297.16 43.2748 1296.28C42.5949 1295.41 42.1904 1294.31 42.1255 1293.15C41.7239 1288.33 46.5037 1280.97 49.7818 1277.69C49.5558 1277.13 49.3948 1276.53 49.303 1275.92L49.3089 1275.92L49.3018 1275.89C49.018 1274.79 49.22 1272.87 47.4801 1271.45C43.8777 1268.41 39.7654 1266.23 35.3952 1265.05C35.2246 1266.84 34.6915 1268.55 33.8377 1270.07C32.9839 1271.58 31.8327 1272.85 30.4743 1273.77C24.0008 1278.77 27.7662 1283.16 29.165 1290.94C29.7888 1294.81 29.0621 1298.81 27.1384 1302.08C25.2147 1305.36 22.2448 1307.65 18.8563 1308.49C16.0563 1308.99 12.5585 1308.62 10.9994 1310.8C8.26082 1314.6 14.3613 1321.14 13.7559 1326.12C13.6248 1327.07 13.2505 1327.95 12.6799 1328.66C12.1093 1329.37 11.3676 1329.87 10.5474 1330.1C5.70349 1331.83 1.92497 1326.91 6.01146 1331.61C6.05334 1331.64 6.0886 1331.68 6.11465 1331.73Z" fill="#0F2572"/>
<path d="M60.5031 1324.46L60.625 1325.04C60.0124 1326.09 59.3267 1327.08 58.5745 1328.01C56.0352 1331.37 52.8985 1334.09 49.3701 1335.98C45.5678 1337.58 41.5168 1338.29 37.4649 1338.06C26.8108 1339.01 21.7421 1347.43 8.46387 1334.49C10.159 1335.43 11.919 1336.2 13.7263 1336.81C14.748 1337.12 15.8153 1337.17 16.8574 1336.98C17.8996 1336.78 18.8929 1336.33 19.7715 1335.67C20.6501 1335 21.3941 1334.13 21.954 1333.11C22.514 1332.1 22.8773 1330.96 23.0197 1329.77C23.0825 1326.9 20.8383 1323.92 21.3076 1321.13C21.8782 1317.79 25.6833 1317.21 28.419 1315.67C30.0022 1314.71 31.3656 1313.34 32.3997 1311.68C33.4339 1310.02 34.1098 1308.1 34.3732 1306.09C35.0695 1300.51 32.4582 1295.06 32.3151 1289.48C32.2347 1286.97 32.9641 1286.22 34.7628 1284.95C44.0331 1278.31 39.1186 1273.46 41.0035 1266.9C43.3153 1268.12 45.522 1269.58 47.5949 1271.26C49.7278 1272.99 49.1552 1275.52 49.5087 1275.88C49.5083 1275.88 49.5092 1275.89 49.5114 1275.9C49.5137 1275.9 49.5172 1275.91 49.5217 1275.92C49.5262 1276.01 49.5421 1276.1 49.569 1276.19C49.9055 1277.72 50.1535 1277.3 49.3901 1278.04C45.5345 1281.99 40.7965 1286.52 38.5472 1292.86C37.6757 1294.96 37.4691 1297.35 37.9621 1299.61C38.2408 1300.71 38.8531 1301.68 39.6926 1302.33C40.5321 1302.98 41.5456 1303.27 42.5566 1303.16C43.4003 1302.99 44.2048 1302.47 45.0461 1302.25C45.8875 1302.03 46.9435 1302.23 47.2693 1303.05C47.646 1303.98 46.9496 1305.09 47.0199 1306.12C47.1101 1307.31 48.0532 1307.81 49.1859 1307.91C48.9935 1308.57 48.8516 1309.25 48.7618 1309.93C48.3825 1312.61 49.0672 1311.29 48.0244 1312.89C45.8836 1315.6 44.5197 1318.99 44.1134 1322.6C44.049 1323.41 44.1466 1324.22 44.3988 1324.97C44.6511 1325.73 45.0513 1326.41 45.5693 1326.96C46.0872 1327.51 46.7093 1327.93 47.3883 1328.17C48.0673 1328.41 48.7855 1328.47 49.4884 1328.34C53.0124 1327.56 57.1296 1322.68 60.5031 1324.46Z" fill="white"/>
<path d="M8.32617 1334.67C8.28957 1334.63 8.26573 1334.58 8.25887 1334.52C8.25202 1334.47 8.26258 1334.41 8.28872 1334.37C8.31486 1334.32 8.35492 1334.28 8.40164 1334.27C8.44837 1334.25 8.49879 1334.25 8.54393 1334.28C10.2334 1335.2 11.9821 1335.97 13.7749 1336.59C14.7669 1336.88 15.8032 1336.94 16.8155 1336.75C17.8278 1336.56 18.793 1336.13 19.6473 1335.48C20.5016 1334.84 21.2257 1333.99 21.7717 1333.01C22.3177 1332.02 22.6731 1330.92 22.8146 1329.76C22.8756 1326.93 20.6157 1323.97 21.1073 1321.09C21.7053 1317.6 25.5905 1317.01 28.328 1315.45C29.881 1314.51 31.2185 1313.18 32.2333 1311.54C33.2482 1309.91 33.9121 1308.03 34.172 1306.06C34.9328 1299.9 30.8548 1290.76 32.462 1287.02C32.9914 1286.04 33.7521 1285.26 34.6571 1284.75C40.2453 1280.74 40.5611 1278.1 40.4101 1272.52C40.3764 1271.33 40.3393 1266.98 40.9165 1266.69C43.3249 1267.85 45.6066 1269.32 47.7155 1271.07C48.2217 1271.49 48.6448 1272.02 48.9576 1272.64C49.2704 1273.25 49.4659 1273.94 49.5313 1274.64C49.53 1274.61 49.5471 1274.74 49.5465 1274.72C49.5586 1274.98 49.637 1275.41 49.6762 1275.66C49.6805 1275.69 49.7117 1275.81 49.7127 1275.83C49.7429 1275.94 49.7186 1275.97 49.7604 1276.11C49.8584 1276.55 49.978 1276.97 50.1187 1277.39C50.4271 1278.38 41.9505 1283.89 38.7343 1292.94C37.8692 1295 37.6659 1297.33 38.1598 1299.54C38.4278 1300.59 39.0092 1301.5 39.8045 1302.12C40.5998 1302.74 41.5598 1303.03 42.5206 1302.93C43.3385 1302.77 44.1539 1302.25 45.0034 1302.02C45.4455 1301.86 45.9234 1301.86 46.3654 1302.03C46.8074 1302.19 47.1899 1302.52 47.4557 1302.95C47.882 1303.99 47.1522 1305.11 47.2277 1306.1C47.3161 1307.26 48.3494 1307.6 49.2038 1307.67C49.2345 1307.68 49.2643 1307.69 49.2908 1307.71C49.3174 1307.72 49.3402 1307.75 49.3575 1307.78C49.3748 1307.81 49.3862 1307.84 49.3909 1307.87C49.3957 1307.91 49.3936 1307.94 49.3849 1307.98C49.0116 1309.26 48.8287 1310.6 48.8439 1311.94C48.8603 1312.54 44.3413 1317.59 44.3237 1322.61C44.3002 1323.47 44.4469 1324.33 44.7531 1325.12C45.0594 1325.91 45.5174 1326.61 46.0938 1327.18C50.5075 1331.28 55.7809 1321.74 60.5928 1324.24C60.7136 1324.3 60.7379 1324.56 60.7633 1324.7L60.8229 1324.99C61.0053 1325.8 55.4541 1333.03 49.5007 1336.17C49.4871 1336.18 49.4718 1336.19 49.4557 1336.19C46.5039 1337.77 43.243 1338.45 39.9901 1338.17C26.5418 1338.53 22.2819 1348.2 8.32617 1334.67ZM9.72216 1335.38C22.5306 1347.11 26.9809 1338.05 39.9799 1337.71C42.6613 1337.89 45.3476 1337.45 47.8726 1336.41C54.7478 1333.52 60.5435 1325.62 60.3285 1324.62C55.7499 1322.44 50.4468 1331.87 45.8343 1327.54C45.2111 1326.93 44.7151 1326.17 44.3821 1325.32C44.0492 1324.47 43.8877 1323.54 43.9093 1322.61C44.3059 1318.94 45.684 1315.5 47.8576 1312.75C48.8405 1311.24 48.1719 1312.59 48.5592 1309.9C48.6369 1309.29 48.7554 1308.69 48.9137 1308.11C47.6398 1307.92 46.9005 1307.23 46.8151 1306.14C46.7436 1305.13 47.413 1303.95 47.0849 1303.14C46.7997 1302.45 45.86 1302.27 45.0935 1302.48C44.1373 1302.91 43.1471 1303.24 42.1366 1303.45C38.9256 1303.64 35.9586 1299.52 38.3582 1292.77C40.5485 1286.58 44.951 1282.25 49.2491 1277.87C49.8876 1277.26 49.6594 1277.63 49.3697 1276.25C48.8925 1274.87 49.3732 1272.99 47.4799 1271.45C45.4785 1269.83 43.3539 1268.42 41.1314 1267.22C39.5085 1273.59 44.0638 1278.67 34.8153 1285.19C33.071 1286.42 32.4554 1287.11 32.524 1289.47C32.6607 1295.06 35.2832 1300.44 34.5778 1306.12C34.3076 1308.17 33.6179 1310.12 32.5639 1311.82C31.5098 1313.51 30.1208 1314.9 28.5083 1315.87C23.7037 1318.6 19.7533 1318.16 22.3207 1325.68C22.9201 1326.78 23.2337 1328.06 23.2257 1329.36C23.2178 1330.66 22.8886 1331.93 22.2757 1333.02C21.4318 1334.67 20.1324 1335.96 18.5786 1336.69C17.0249 1337.41 15.3035 1337.54 13.681 1337.04C12.3235 1336.61 10.9994 1336.06 9.72216 1335.38Z" fill="#0F2572"/>
<path d="M36.1467 1349.4L27.7559 1349.9C29.4514 1345.98 30.5498 1341.77 31.0045 1337.43C31.1097 1336.72 31.9473 1333.4 33.5473 1333.71C33.6842 1333.74 34.7564 1334.32 34.862 1336.6C34.9632 1338.79 33.728 1344.92 36.1467 1349.4Z" fill="white"/>
<path d="M36.1566 1349.63L27.7669 1350.13C27.7304 1350.14 27.6941 1350.13 27.6618 1350.11C27.6295 1350.09 27.6025 1350.06 27.5837 1350.02C27.1936 1349.38 29.2905 1348.47 30.6954 1338.13C31.5679 1332.05 34.8705 1332.3 35.0695 1336.59C35.1745 1338.86 33.9413 1344.87 36.3241 1349.28C36.342 1349.31 36.3518 1349.35 36.3525 1349.39C36.3532 1349.43 36.3447 1349.47 36.3279 1349.51C36.3111 1349.54 36.2865 1349.57 36.2565 1349.6C36.2265 1349.62 36.1922 1349.63 36.1566 1349.63ZM28.1122 1349.64L35.7966 1349.19C33.5686 1344.65 34.7552 1338.74 34.6568 1336.62C34.5544 1334.41 33.5149 1333.94 33.5089 1333.94C32.3075 1333.69 31.389 1336.19 31.2058 1337.48C30.7697 1341.7 29.7245 1345.81 28.1122 1349.64Z" fill="#0F2572"/>
<path d="M170.093 1329.98C172.341 1330.57 174.623 1331.03 176.927 1331.35C176.496 1332.6 179.049 1335.06 179.71 1335.47C181.457 1336.35 183.101 1337.41 184.612 1338.64C185.052 1339.39 184.075 1341.55 181.501 1341.24C179.193 1340.99 177 1340.13 175.159 1338.75C172.549 1337.18 172.488 1339.05 171.696 1338.9C166.324 1337.87 168.384 1335.04 170.093 1329.98Z" fill="#0F2572"/>
<path d="M181.788 1341.54C184.236 1341.66 185.438 1339.49 184.853 1338.5C183.327 1337.23 181.652 1336.13 179.862 1335.24C179.093 1334.76 176.846 1332.45 177.191 1331.44C177.206 1331.4 177.21 1331.36 177.205 1331.32C177.199 1331.28 177.183 1331.24 177.159 1331.2C176.899 1330.81 178.061 1331.56 172.859 1330.32C170.529 1329.78 169.948 1329.51 169.826 1329.9C168.054 1335.11 166.032 1338.09 171.642 1339.17C172.061 1339.28 172.295 1339.01 172.527 1338.81C174.39 1337.12 176.164 1341.25 181.788 1341.54ZM176.597 1331.6C176.548 1333.07 178.913 1335.3 179.557 1335.7C181.256 1336.58 182.866 1337.61 184.368 1338.78C184.738 1339.42 183.789 1341.2 181.534 1340.97C179.268 1340.72 177.115 1339.87 175.309 1338.51C172.669 1336.92 172.255 1338.66 171.776 1338.63C170.746 1338.5 169.775 1338.09 168.973 1337.45C167.64 1336.41 169.689 1332.01 170.279 1330.3C172.506 1330.77 174.826 1331.43 176.597 1331.6Z" fill="#0F2572"/>
<path d="M170.157 1329.88C169.87 1330.59 171.533 1332.5 173.698 1332.61C174.268 1332.75 174.864 1332.74 175.429 1332.58C175.994 1332.43 176.508 1332.13 176.921 1331.73C178.525 1329.34 188.894 1317.32 189.354 1316.79L181.292 1312.43C179.432 1314.27 177.778 1316.29 176.356 1318.47C174.878 1321.19 171.028 1327.98 170.157 1329.88Z" fill="#FFC9D4"/>
<path d="M174.208 1332.86C174.737 1332.93 175.276 1332.87 175.778 1332.69C176.279 1332.51 176.729 1332.22 177.089 1331.83C178.635 1329.54 188.188 1318.46 189.514 1316.91C189.533 1316.89 189.547 1316.86 189.555 1316.84C189.563 1316.81 189.564 1316.78 189.558 1316.75C189.552 1316.72 189.54 1316.69 189.522 1316.67C189.505 1316.65 189.482 1316.63 189.455 1316.61L181.392 1312.26C181.353 1312.24 181.307 1312.23 181.262 1312.23C181.217 1312.24 181.176 1312.26 181.145 1312.29C178.325 1314.98 176.029 1318.15 174.368 1321.64C172.683 1324.68 170.589 1328.46 169.971 1329.8L169.965 1329.81C169.62 1330.67 171.255 1332.71 174.208 1332.86ZM189.043 1316.84C187.193 1318.97 178.21 1329.45 176.751 1331.62C176.059 1332.66 174.131 1332.55 172.829 1332.27C171.312 1331.8 170.156 1330.45 170.342 1329.96C171.219 1328.06 175.293 1320.85 176.535 1318.56C177.918 1316.44 179.525 1314.47 181.329 1312.68L189.043 1316.84Z" fill="#0F2572"/>
<path d="M173.699 1332.61C174.268 1332.75 174.865 1332.74 175.43 1332.58C175.995 1332.43 176.509 1332.13 176.922 1331.73C178.091 1329.99 184.108 1322.91 187.28 1319.18C182.116 1323.75 175.164 1331.09 173.699 1332.61Z" fill="#0F2572"/>
<path d="M131.216 1303.12C132.767 1303.37 134.332 1303.52 135.901 1303.59C134.996 1304.48 134.405 1305.63 134.213 1306.87C133.99 1308.12 134.061 1309.41 134.423 1310.63C132.203 1310.23 131.374 1309.93 130.099 1310.65C128.926 1311.25 127.861 1312.03 126.946 1312.96C125.903 1314.59 124.683 1316.1 123.305 1317.47C122.508 1317.83 120.37 1316.71 120.904 1314.23C121.348 1312.01 122.408 1309.95 123.97 1308.27C125.787 1305.87 123.874 1305.65 124.095 1304.9C124.326 1303.87 124.846 1302.93 125.596 1302.18C126.645 1301.1 129.808 1302.44 131.216 1303.12Z" fill="#0F2572"/>
<path d="M123.428 1317.71C124.496 1316.82 125.401 1315.76 126.103 1314.58C127.064 1312.96 128.509 1311.68 130.244 1310.89C131.456 1310.21 132.4 1310.55 134.375 1310.9C135.219 1310.97 133.995 1309.8 134.49 1306.91C134.674 1305.74 135.234 1304.64 136.089 1303.79C136.13 1303.76 136.159 1303.71 136.172 1303.66C136.186 1303.6 136.183 1303.55 136.164 1303.5C136.146 1303.45 136.112 1303.4 136.068 1303.37C136.023 1303.34 135.97 1303.32 135.915 1303.31C134.372 1303.25 132.835 1303.1 131.312 1302.86C126.324 1300.47 124.83 1301.36 123.823 1304.82C123.514 1305.87 125.689 1305.81 123.3 1308.67C121.369 1311.05 119.211 1315.43 121.639 1317.31C121.876 1317.52 122.166 1317.67 122.479 1317.74C122.792 1317.81 123.119 1317.8 123.428 1317.71ZM129.959 1310.42C128.754 1311.03 127.661 1311.84 126.724 1312.8C125.691 1314.38 124.505 1315.86 123.184 1317.22C122.496 1317.56 120.725 1316.38 121.181 1314.29C121.618 1312.1 122.662 1310.08 124.198 1308.44C126.062 1305.96 124.228 1305.42 124.365 1304.97C124.582 1303.99 125.08 1303.09 125.801 1302.37C126.437 1301.71 128.418 1302.08 131.095 1303.36C132.479 1303.62 133.882 1303.78 135.291 1303.83C134.604 1304.75 134.135 1305.8 133.917 1306.92C133.699 1308.04 133.739 1309.18 134.033 1310.28C133.379 1310.04 132.682 1309.93 131.982 1309.95C131.282 1309.97 130.595 1310.13 129.959 1310.42Z" fill="#0F2572"/>
<path d="M131.597 1303.3C131.597 1303.3 143.634 1302.91 151.544 1306.79C152.413 1307.21 153.35 1307.48 154.312 1307.58L154.307 1307.59C154.307 1307.59 159.072 1312.76 157.265 1314.36C156.707 1314.85 156.032 1316.91 155.194 1316.98C150.319 1317.34 143.825 1312.21 131.797 1310.5C130.096 1310.25 128.346 1305.68 131.597 1303.3Z" fill="#FFC9D4"/>
<path d="M154.254 1317.19C155.573 1317.25 155.778 1317.24 156.767 1315.48C156.935 1315.13 157.147 1314.8 157.4 1314.51C159.275 1312.85 154.945 1307.99 154.492 1307.49L154.487 1307.49C154.473 1307.46 154.452 1307.44 154.426 1307.42C154.4 1307.4 154.369 1307.39 154.338 1307.38C153.397 1307.28 152.482 1307.02 151.633 1306.62C143.772 1302.76 131.704 1303.09 131.594 1303.1C131.552 1303.1 131.511 1303.11 131.477 1303.14C128.289 1305.43 129.671 1310.4 131.765 1310.69C142.573 1312.24 149.758 1316.96 154.254 1317.19ZM154.192 1307.77C155.5 1309.2 158.47 1313.02 157.125 1314.21C156.555 1314.72 155.845 1316.73 155.181 1316.78C150.172 1317.13 144.068 1312.05 131.826 1310.3C130.284 1310.08 128.674 1305.92 131.673 1303.49C132.654 1303.47 143.987 1303.31 151.453 1306.97C152.314 1307.39 153.24 1307.65 154.192 1307.77Z" fill="#0F2572"/>
<path d="M171.341 1288.15L185.648 1286.21C189.382 1312.29 191.55 1314.7 188.844 1317.35C187.234 1318.92 180.793 1313.01 180.793 1313.01C177.471 1303.7 168.165 1297.29 171.341 1288.15Z" fill="#0584DB"/>
<path d="M189.045 1317.54C190.899 1315.72 190.594 1314.05 189.148 1305.98C185.475 1285.51 186.24 1285.9 185.607 1285.94L171.301 1287.88C171.25 1287.89 171.202 1287.91 171.162 1287.94C171.123 1287.98 171.093 1288.02 171.076 1288.07C167.821 1297.3 177.207 1303.79 180.526 1313.1C180.736 1313.69 187.383 1319.18 189.045 1317.54ZM185.406 1286.52C189.084 1312.09 191.205 1314.65 188.645 1317.15C187.6 1318.16 183.451 1315.06 181.034 1312.85C177.69 1303.54 168.768 1297.66 171.558 1288.4L185.406 1286.52Z" fill="#0F2572"/>
<path d="M159.588 1289.27C160.633 1286.84 162.317 1284.73 164.472 1283.14L178.11 1289.26C175.361 1295 164.059 1306.11 157.307 1316.1C156.615 1316.59 155.762 1316.81 154.913 1316.72C154.063 1316.63 153.277 1316.24 152.704 1315.62C151.285 1314.38 149.912 1310.81 150.885 1309.44C152.63 1306.98 158.018 1292.31 159.588 1289.27Z" fill="#0584DB"/>
<path d="M155.358 1317.03C155.751 1317.07 156.148 1317.02 156.521 1316.89C156.894 1316.76 157.233 1316.56 157.514 1316.29C163.751 1307.07 180.039 1289.81 178.229 1289.01L164.587 1282.9C164.546 1282.88 164.501 1282.87 164.455 1282.87C164.41 1282.87 164.366 1282.89 164.327 1282.91C162.122 1284.52 160.398 1286.67 159.333 1289.14C158.822 1289.12 152.73 1306.35 150.653 1309.29C149.459 1310.97 151.259 1316.82 155.358 1317.03ZM177.733 1289.39C174.83 1295.11 163.678 1306.18 157.072 1315.95C156.218 1316.84 154.255 1316.61 152.888 1315.42C151.489 1314.19 150.272 1310.79 151.117 1309.6C152.878 1307.11 158.292 1292.38 159.84 1289.39C160.883 1287.08 162.478 1285.05 164.492 1283.46L177.733 1289.39Z" fill="#0F2572"/>
<path d="M192.219 1261.14C190.932 1260.12 189.4 1259.42 187.765 1259.13C186.131 1258.83 184.445 1258.94 182.866 1259.45C183.179 1257.13 183.625 1254.83 184.203 1252.57C186.178 1244.21 195.08 1244.96 194.843 1251.89C194.246 1255.04 193.368 1258.14 192.219 1261.14Z" fill="#CAEFFC"/>
<path d="M192.203 1261.42C192.237 1261.42 192.271 1261.41 192.304 1261.4C192.348 1261.39 192.388 1261.37 192.421 1261.33C192.453 1261.3 192.476 1261.26 192.488 1261.22C193.648 1258.2 194.529 1255.1 195.121 1251.93C195.381 1244.61 185.978 1243.85 183.93 1252.5C183.35 1254.78 182.901 1257.09 182.586 1259.42C182.58 1259.46 182.587 1259.51 182.606 1259.56C182.626 1259.6 182.656 1259.64 182.695 1259.67C182.734 1259.7 182.78 1259.71 182.828 1259.72C182.877 1259.73 182.926 1259.72 182.971 1259.7C184.505 1259.22 186.138 1259.11 187.723 1259.4C189.307 1259.69 190.792 1260.37 192.041 1261.36C192.088 1261.39 192.144 1261.41 192.203 1261.42ZM194.563 1251.88C194.009 1254.89 193.172 1257.83 192.062 1260.69C190.812 1259.77 189.363 1259.14 187.826 1258.86C186.29 1258.57 184.706 1258.63 183.197 1259.04C183.468 1256.99 183.954 1254.84 184.473 1252.63C186.368 1244.64 194.784 1245.26 194.563 1251.88Z" fill="#0F2572"/>
<path d="M165.568 1257.72C167.399 1271.66 165.122 1271.86 160.61 1282.25C160.342 1282.85 160.286 1283.52 160.45 1284.16C160.615 1284.79 160.991 1285.35 161.519 1285.76C166.845 1289.72 179.368 1292.42 185.012 1289.83C187.432 1288.72 187.378 1282.67 187.202 1277.55C186.97 1270.8 189.764 1268.42 192.564 1260.15C194.521 1254.37 192.993 1247 191.095 1246.45C188.752 1245.76 189.451 1246.29 187.326 1246.12C184.327 1247.63 179.536 1246.61 176.712 1244.97C173.621 1245.35 167.724 1247.19 166.127 1249.21C164.92 1254.08 164.884 1252.54 165.568 1257.72Z" fill="white"/>
<path d="M185.134 1290.08C187.663 1288.92 187.684 1283.25 187.481 1277.54C187.254 1270.96 190.102 1268.31 192.827 1260.24C194.19 1256.06 194.054 1251.55 192.441 1247.46C192.326 1247.18 192.155 1246.92 191.938 1246.7C191.72 1246.48 191.461 1246.31 191.174 1246.19C188.676 1245.46 189.445 1246.04 187.35 1245.85C187.298 1245.84 187.243 1245.85 187.199 1245.88C184.387 1247.29 179.737 1246.41 176.856 1244.74C176.28 1244.42 167.921 1246.49 165.904 1249.04L165.919 1249.05C165.887 1249.1 165.862 1249.16 165.845 1249.21C165.676 1249.65 165.423 1250.73 164.803 1253.4C164.795 1253.43 164.792 1253.46 164.794 1253.48C164.916 1254.94 165.104 1256.36 165.285 1257.73C167.098 1271.54 164.878 1271.74 160.351 1282.15C160.057 1282.8 159.995 1283.54 160.175 1284.23C160.355 1284.92 160.767 1285.53 161.346 1285.97C166.599 1289.88 179.233 1292.78 185.134 1290.08ZM191.015 1246.71C191.439 1246.93 191.769 1247.28 191.942 1247.71C193.497 1251.67 193.622 1256.03 192.296 1260.06C189.537 1268.22 186.686 1270.73 186.92 1277.56C187.054 1281.38 187.302 1288.48 184.891 1289.59C179.49 1292.06 167.087 1289.55 161.689 1285.54C161.21 1285.17 160.869 1284.66 160.721 1284.09C160.572 1283.51 160.625 1282.91 160.87 1282.36C165.385 1271.97 167.69 1271.71 165.843 1257.68C165.662 1256.3 165.477 1254.91 165.359 1253.48C166.127 1250.19 166.319 1249.5 166.367 1249.35C167.859 1247.51 173.436 1245.65 176.653 1245.26C179.647 1246.96 184.442 1247.83 187.381 1246.4C189.553 1246.57 188.741 1246.05 191.015 1246.71Z" fill="#0F2572"/>
<path d="M161.84 1279.44C164.201 1277.28 165.968 1274.57 166.977 1271.58C168.223 1266 169.05 1260.34 169.452 1254.65L165.568 1257.72C167.436 1271.94 164.884 1272.38 161.84 1279.44Z" fill="#0F2572"/>
<path d="M174.927 1245.27C178.141 1249.83 188.587 1251.7 189.288 1246.23C188.724 1246.2 188.133 1246.19 187.327 1246.13C184.323 1247.63 179.539 1246.61 176.717 1244.98C176.134 1245.05 175.533 1245.14 174.927 1245.27Z" fill="#CAEFFC"/>
<path d="M183.748 1249.86C189.035 1250.13 190.144 1245.99 189.306 1245.95C188.793 1245.93 188.143 1245.92 187.35 1245.85C187.312 1245.83 187.245 1245.86 187.199 1245.88C184.391 1247.29 179.737 1246.41 176.861 1244.74C176.187 1244.75 175.518 1244.84 174.866 1245.01C173.614 1245.28 178.229 1249.57 183.748 1249.86ZM188.957 1246.49C187.839 1251.25 178.638 1249.39 175.412 1245.46C175.811 1245.38 176.22 1245.31 176.658 1245.26C179.614 1246.94 184.329 1247.89 187.381 1246.41C187.924 1246.45 188.361 1246.46 188.957 1246.49Z" fill="#0F2572"/>
<path d="M176.664 1245.18C183.584 1248.56 186.616 1247.68 187.222 1246.57C186.872 1245.98 186.685 1245.32 186.68 1244.64C186.676 1243.97 186.853 1243.3 187.194 1242.71C195.372 1229.2 178.481 1224.91 179.817 1235.45C180.111 1238.97 178.98 1242.46 176.664 1245.18Z" fill="#FFC9D4"/>
<path d="M184.185 1247.77C186.626 1247.89 187.623 1246.7 187.373 1246.43C186.406 1245.4 187.155 1243.35 187.38 1242.79C195.76 1228.96 178.222 1224.58 179.616 1235.47C179.893 1238.94 178.779 1242.37 176.508 1245.05C176.487 1245.07 176.472 1245.1 176.464 1245.13C176.456 1245.16 176.455 1245.19 176.461 1245.22C176.467 1245.25 176.48 1245.28 176.5 1245.3C176.519 1245.33 176.544 1245.35 176.572 1245.36C178.951 1246.58 181.525 1247.39 184.185 1247.77ZM186.966 1246.58C185.157 1248.61 179.461 1246.27 176.98 1245.11C179.232 1242.38 180.32 1238.91 180.019 1235.42C178.717 1225.23 195.001 1229.41 187.02 1242.61C186.686 1243.22 186.506 1243.9 186.497 1244.59C186.488 1245.28 186.648 1245.96 186.966 1246.58Z" fill="#0F2572"/>
<path d="M180.509 1231.63C180.631 1236.52 182.511 1243.62 186.874 1244.49C186.911 1243.4 187.13 1242.33 187.521 1241.31C196.292 1224.57 179.8 1219.12 180.509 1231.63Z" fill="#0F2572"/>
<path d="M179.274 1228.47C178.847 1229.28 181.058 1238.39 183.949 1241.01C186.672 1243.49 188.252 1243.71 189.786 1243.29C194.311 1242.08 196.062 1227.92 190.467 1225.78C187.514 1224.65 182.182 1222.92 179.274 1228.47Z" fill="#FFC9D4"/>
<path d="M188.409 1243.65C194.81 1243.98 196.423 1227.84 190.544 1225.6C188.044 1224.64 182.212 1222.42 179.094 1228.38C178.383 1228.34 180.762 1238.39 183.812 1241.16C184.994 1242.49 186.622 1243.38 188.409 1243.65ZM190.394 1225.97C195.793 1228.04 194.08 1241.94 189.73 1243.1C188.253 1243.5 186.734 1243.27 184.088 1240.87C181.188 1238.23 179.097 1229.25 179.455 1228.56C181.8 1224.09 185.727 1224.18 190.394 1225.97Z" fill="#0F2572"/>
<path d="M194.582 1230.73C193.199 1231 192.057 1229.49 190.647 1229.43C190.046 1229.4 189.458 1229.64 188.858 1229.61C187.564 1229.53 187.414 1228.63 184.845 1229.75C183.486 1230.35 181.885 1231.12 181.724 1232.69C181.618 1233.73 181.801 1233.51 180.863 1234.46C180.317 1235.01 179.683 1236.18 178.644 1236.13C177.786 1236.09 177.256 1235.16 177.196 1234.33C177.204 1233.93 177.168 1233.54 177.09 1233.16C176.821 1232.27 175.792 1231.73 175.632 1230.82C175.487 1229.99 176.109 1229.25 176.313 1228.43C176.552 1227.48 176.213 1226.4 176.688 1225.53C176.996 1225.09 177.365 1224.69 177.784 1224.35C178.786 1223.33 179.342 1221.8 180.685 1221.27C181.72 1221.04 182.792 1221.01 183.839 1221.19C186.401 1221.22 189.471 1219.46 191.734 1221.15C193.035 1222.13 192.175 1222.04 194.585 1223.07C196.207 1223.77 197.57 1224.95 197.037 1226.45C196.716 1227.35 196.113 1227.81 196.026 1228.79C196.042 1229.22 195.909 1229.65 195.647 1230C195.385 1230.35 195.011 1230.61 194.582 1230.73Z" fill="#0F2572"/>
<path d="M166.587 1257.96C162.11 1250.59 168.865 1245.26 173.511 1250.56C176.84 1256.06 179.546 1264.54 182.323 1266.02C185.885 1267.78 189.575 1269.27 193.363 1270.49C193.44 1270.51 193.519 1270.49 193.589 1270.46C196.342 1269.7 198.847 1269.29 199.359 1270.09C200.138 1271.45 197.282 1270.58 198.135 1271.34C199.392 1272.5 204.494 1271.36 204.668 1273.01C204.801 1274.68 200.952 1276.79 198.491 1275.77C197.131 1275.17 194.067 1273.84 193.983 1273.9C190.38 1272.85 180.894 1274.53 175.447 1269.71C171.977 1266.19 168.997 1262.24 166.587 1257.96Z" fill="#FFC9D4"/>
<path d="M204.873 1272.99C204.668 1271.08 199.698 1272.33 198.256 1271.18C199.267 1271.06 200.086 1270.96 199.538 1270C198.812 1268.85 194.875 1269.87 193.528 1270.27C193.509 1270.28 193.49 1270.29 193.473 1270.3C193.473 1270.3 193.438 1270.3 193.416 1270.3C189.641 1269.09 185.965 1267.6 182.419 1265.85C179.743 1264.41 176.971 1255.89 173.687 1250.46C168.863 1244.97 161.795 1250.45 166.411 1258.06C175.008 1272.23 178.318 1273.21 189.266 1273.64C194.117 1273.82 193.736 1273.89 198.405 1275.96C201.027 1277.03 205.011 1274.8 204.873 1272.99ZM198.033 1270.82C197.746 1270.91 197.637 1271.18 197.998 1271.49C199.258 1272.65 204.319 1271.67 204.466 1273.03C204.575 1274.47 200.978 1276.58 198.567 1275.59C197.1 1274.88 195.588 1274.25 194.041 1273.72L194.043 1273.71C190.424 1272.66 180.951 1274.32 175.585 1269.56C172.103 1266.08 169.135 1262.14 166.765 1257.86C162.404 1250.69 168.871 1245.59 173.357 1250.69C176.624 1256.1 179.398 1264.69 182.225 1266.2C185.807 1267.96 189.519 1269.47 193.331 1270.69C193.423 1270.7 193.517 1270.7 193.607 1270.67C194.447 1270.42 198.616 1269.28 199.184 1270.2C199.593 1270.91 198.67 1270.63 198.033 1270.82Z" fill="#0F2572"/>
<path d="M178.182 1259C176.521 1259.08 174.909 1259.57 173.496 1260.42C172.082 1261.27 170.912 1262.46 170.094 1263.87C168.724 1261.95 167.466 1259.95 166.326 1257.9C162.009 1250.42 169.105 1245.14 173.725 1250.43C175.463 1253.16 176.955 1256.02 178.182 1259Z" fill="#CAEFFC"/>
<path d="M170.346 1263.99C171.145 1262.62 172.283 1261.48 173.656 1260.65C175.029 1259.83 176.593 1259.35 178.204 1259.27C178.25 1259.27 178.295 1259.25 178.334 1259.23C178.373 1259.2 178.405 1259.17 178.428 1259.13C178.451 1259.09 178.464 1259.05 178.466 1259.01C178.468 1258.96 178.459 1258.92 178.44 1258.87C177.198 1255.89 175.699 1253.01 173.958 1250.28C169.1 1244.71 161.601 1250.26 166.082 1258.03C167.085 1259.77 169.908 1264.83 170.346 1263.99ZM170.054 1263.34C168.849 1261.66 167.716 1259.74 166.572 1257.76C162.423 1250.57 169.131 1245.6 173.509 1250.61C175.178 1253.19 176.599 1255.92 177.756 1258.76C176.192 1258.88 174.681 1259.36 173.344 1260.16C172.007 1260.96 170.88 1262.04 170.054 1263.34Z" fill="#0F2572"/>
<path d="M211.115 116.701C275.21 107.556 340.617 110.022 371.135 113.908C407.211 118.502 419.179 121.949 451.116 123.683C479.503 125.225 554.943 114.165 545.285 122.485C532.696 133.329 536.139 175.801 554.939 193.509C557.673 196.084 468.333 202.461 414.202 197.699C339.573 191.132 315.546 180.12 266.543 185.13C248.39 187.029 226.876 190.585 211.5 195.604C220.5 182.417 237 164.917 242 151.917C233.5 135.417 220.5 128.917 211.115 116.701Z" fill="#FC645D"/>
<path d="M301.799 141.817L305.179 134.417H308.519L303.139 145.237C301.919 147.677 300.519 148.637 298.559 148.637C297.359 148.637 296.419 148.317 295.539 147.817L296.739 145.557C297.299 145.897 297.859 146.017 298.399 146.017C298.959 146.017 299.599 145.757 300.159 144.897L294.559 134.417H297.999L301.799 141.817ZM318.687 148.417V143.197C317.747 143.657 316.407 144.237 314.987 144.237C312.207 144.237 310.287 142.777 310.287 139.537V134.417H313.367V138.637C313.367 140.377 314.047 141.357 315.627 141.357C316.867 141.357 318.047 140.957 318.687 140.457V134.417H321.767V148.417H318.687ZM323.918 148.417L329.918 134.317H332.758L338.758 148.417H335.538L334.258 145.277H328.338L327.058 148.417H323.918ZM329.438 142.557H333.158L331.298 138.017L329.438 142.557ZM347.478 148.657C343.358 148.657 340.298 145.477 340.298 141.417C340.298 137.437 343.298 134.177 347.598 134.177C350.238 134.177 351.718 135.177 353.018 136.457L351.178 138.577C350.098 137.597 349.178 137.017 347.578 137.017C345.218 137.017 343.518 138.977 343.518 141.417C343.518 143.817 345.178 145.817 347.578 145.817C349.178 145.817 350.158 145.177 351.258 144.177L353.218 146.277C351.778 147.817 350.178 148.657 347.478 148.657ZM358.944 148.417V137.257H354.684V134.417H366.284V137.257H362.024V148.417H358.944ZM380.713 134.417V148.417H377.673V139.237L371.553 148.417H368.653V134.417H371.693V143.597L377.853 134.417H380.713ZM384.082 148.417V134.417H394.642V137.157H387.142V139.997H393.742V142.737H387.142V145.677H394.742V148.417H384.082ZM282.953 156.197V158.637H286.653C289.813 158.637 291.573 160.357 291.573 162.977C291.573 165.837 289.593 167.417 286.353 167.417H279.873V153.417H290.613V156.197H282.953ZM286.333 161.197H282.953V164.637H286.353C287.793 164.637 288.493 164.077 288.493 162.857C288.493 161.777 287.793 161.197 286.333 161.197ZM294.112 167.417V153.417H304.672V156.157H297.172V158.997H303.772V161.737H297.172V164.677H304.772V167.417H294.112ZM314.07 167.657C309.95 167.657 306.89 164.477 306.89 160.417C306.89 156.437 309.89 153.177 314.19 153.177C316.83 153.177 318.31 154.177 319.61 155.457L317.77 157.577C316.69 156.597 315.77 156.017 314.17 156.017C311.81 156.017 310.11 157.977 310.11 160.417C310.11 162.817 311.77 164.817 314.17 164.817C315.77 164.817 316.75 164.177 317.85 163.177L319.81 165.277C318.37 166.817 316.77 167.657 314.07 167.657ZM322.276 167.417V153.417H333.956V167.417H330.876V156.197H325.356V167.417H322.276ZM339.175 153.417H349.175V167.417H346.095V156.197H342.055V157.257C342.055 165.497 340.715 167.597 337.515 167.597C337.015 167.597 336.275 167.517 335.895 167.417L336.095 164.877C336.235 164.897 336.375 164.917 336.575 164.917C338.235 164.917 339.175 163.857 339.175 156.317V153.417ZM351.33 167.417L357.33 153.317H360.17L366.17 167.417H362.95L361.67 164.277H355.75L354.47 167.417H351.33ZM356.85 161.557H360.57L358.71 157.017L356.85 161.557ZM371.59 167.417V156.257H367.33V153.417H378.93V156.257H374.67V167.417H371.59ZM381.299 167.417V153.417H384.379V158.957H390.059V153.417H393.139V167.417H390.059V161.797H384.379V167.417H381.299ZM403.294 167.657C398.974 167.657 395.874 164.437 395.874 160.417C395.874 156.437 399.014 153.177 403.334 153.177C407.654 153.177 410.754 156.397 410.754 160.417C410.754 164.397 407.614 167.657 403.294 167.657ZM403.334 164.817C405.814 164.817 407.534 162.857 407.534 160.417C407.534 158.017 405.774 156.017 403.294 156.017C400.814 156.017 399.094 157.977 399.094 160.417C399.094 162.817 400.854 164.817 403.334 164.817Z" fill="white"/>
</g>
<defs>
<filter id="filter0_d_1088_11316" x="-114" y="1231" width="921" height="560" filterUnits="userSpaceOnUse" color-interpolation-filters="sRGB">
<feFlood flood-opacity="0" result="BackgroundImageFix"/>
<feColorMatrix in="SourceAlpha" type="matrix" values="0 0 0 0 0 0 0 0 0 0 0 0 0 0 0 0 0 0 127 0" result="hardAlpha"/>
<feOffset dy="-4"/>
<feGaussianBlur stdDeviation="2"/>
<feComposite in2="hardAlpha" operator="out"/>
<feColorMatrix type="matrix" values="0 0 0 0 0 0 0 0 0 0 0 0 0 0 0 0 0 0 0.25 0"/>
<feBlend mode="normal" in2="BackgroundImageFix" result="effect1_dropShadow_1088_11316"/>
<feBlend mode="normal" in="SourceGraphic" in2="effect1_dropShadow_1088_11316" result="shape"/>
</filter>
<filter id="filter1_d_1088_11316" x="-344" y="1251" width="1060" height="431" filterUnits="userSpaceOnUse" color-interpolation-filters="sRGB">
<feFlood flood-opacity="0" result="BackgroundImageFix"/>
<feColorMatrix in="SourceAlpha" type="matrix" values="0 0 0 0 0 0 0 0 0 0 0 0 0 0 0 0 0 0 127 0" result="hardAlpha"/>
<feOffset dy="-6"/>
<feGaussianBlur stdDeviation="2"/>
<feComposite in2="hardAlpha" operator="out"/>
<feColorMatrix type="matrix" values="0 0 0 0 0 0 0 0 0 0 0 0 0 0 0 0 0 0 0.25 0"/>
<feBlend mode="normal" in2="BackgroundImageFix" result="effect1_dropShadow_1088_11316"/>
<feBlend mode="normal" in="SourceGraphic" in2="effect1_dropShadow_1088_11316" result="shape"/>
</filter>
<clipPath id="clip0_1088_11316">
<rect width="480" height="1387" fill="white" transform="translate(0 0.416992)"/>
</clipPath>
</defs>
</svg>
