<svg width="480" height="796" viewBox="0 0 480 796" fill="none" xmlns="http://www.w3.org/2000/svg">
<g clip-path="url(#clip0_1088_11392)">
<rect width="480" height="795" transform="translate(0 0.416992)" fill="#88D8FC"/>
<path d="M165.178 993.028C143.102 969.355 122.232 935.991 106.726 888.935C50.6716 718.824 53.3071 540.32 -169.681 624.526V993.028H165.178Z" fill="#FC645D"/>
<path d="M-134.18 1054.43H122.001L121.656 1053.88C102.765 1023.69 87.7748 983.896 77.1011 935.612C69.8029 902.601 63.8228 869.388 58.0388 837.268C49.6634 790.744 41.751 746.802 31.0119 710.226C18.9902 669.282 4.98566 642.888 -13.0591 627.162C-26.9721 615.033 -43.0695 609.499 -62.227 610.266C-82.7922 611.078 -106.285 619.07 -134.049 634.698L-134.18 634.772L-134.18 1054.43ZM121.051 1053.79H-133.799V635.231C-80.9643 605.522 -41.5273 603.07 -13.2326 627.73C26.0849 661.996 40.7242 743.306 57.6767 837.453C63.4607 869.583 69.4445 902.805 76.7464 935.839C87.3754 983.918 102.28 1023.6 121.051 1053.79Z" fill="#082054"/>
<path d="M125.916 1075.66L126.145 1075.14C79.7115 1017.83 64.89 930.601 50.5564 846.243C37.6604 770.34 25.4793 698.647 -8.72006 654.906C-21.8933 638.506 -37.2856 627.873 -53.511 623.962C-68.599 620.209 -83.9287 620.107 -99.0339 623.659C-115.974 627.349 -132.6 634.353 -148.573 644.53L-148.426 645.127C-132.481 634.97 -115.884 627.98 -98.9738 624.298C-73.3468 618.753 -36.918 619.652 -8.95277 655.42C25.1453 699.032 37.3095 770.624 50.1868 846.419C64.5391 930.885 79.3775 1018.22 125.916 1075.66Z" fill="#082054"/>
<g filter="url(#filter0_d_1088_11392)">
<path d="M-244.52 796.815C115.81 768.653 10.4818 738.492 165.375 684.108C280.083 643.834 497.157 674.85 497.157 674.85L497.157 796.815L-244.52 796.815Z" fill="#F89C43"/>
</g>
<path d="M-244.936 797.295L497.157 797.295L497.157 674.5L496.923 674.466C456.91 669.167 415.7 665.638 373.957 663.935C337.724 662.301 301.133 662.739 265.179 665.238C224.77 668.305 190.989 674.548 164.777 683.794C114.743 701.443 91.8452 716.55 71.6441 729.878C29.4252 757.729 -1.07978 777.853 -245 797.006L-244.936 797.295ZM496.466 797.005L-241.212 797.005C-0.340702 777.913 30.1253 757.809 72.2261 730.034C92.4003 716.725 115.268 701.638 165.219 684.019C224.383 663.148 311.337 661.738 373.877 664.225C415.488 665.927 456.57 669.44 496.466 674.709L496.466 797.005Z" fill="#082054"/>
<path d="M66.9986 785.301C71.8312 774.138 79.4113 763.3 89.5744 753.022C105.585 736.467 135.534 713.24 187.292 696.612C258.192 673.833 350.94 668.87 462.945 681.855L463.096 681.542C350.901 668.535 257.979 673.516 186.923 696.348C135.035 713.018 105.017 736.301 88.9701 752.897C78.7873 763.198 71.1927 774.06 66.3511 785.248L66.9986 785.301Z" fill="#082054"/>
<path d="M371.665 708.523C373.969 717.524 377.556 714.5 382.404 714.198C386.937 713.915 391.297 718.121 395.785 716.982C403.342 715.08 409.005 697.554 401.546 681.483C399.891 678.577 398.489 675.416 397.368 672.064C396.456 668.534 396.483 664.474 395.633 660.891C395.336 659.236 394.78 657.691 394.006 656.36C393.231 655.029 392.255 653.945 391.146 653.182C390.037 652.418 388.82 651.995 387.58 651.94C386.34 651.885 385.106 652.2 383.963 652.863C375.635 658.564 375.079 677.156 371.981 687.94C370.129 694.54 370.017 701.822 371.665 708.523Z" fill="white"/>
<path d="M394.003 718.12C403.698 718.806 410.54 698.926 402.383 681.718C400.709 678.833 399.285 675.7 398.139 672.381C397.23 668.944 397.234 664.764 396.37 661.208C396.049 659.491 395.456 657.889 394.63 656.51C393.805 655.131 392.768 654.008 391.589 653.219C390.411 652.43 389.119 651.994 387.803 651.939C386.487 651.885 385.178 652.214 383.966 652.904C375.248 658.777 374.862 677.018 371.553 688.258C369.634 694.966 369.521 702.364 371.232 709.172C373.663 718.592 377.793 715.461 382.545 715.152C386.509 714.963 390.092 717.844 394.003 718.12ZM395.74 661.492C397.34 668.187 395.5 670.234 400.442 679.511C409.698 696.926 404.185 715.068 396.148 717.048C391.726 718.171 387.061 713.918 382.505 714.253C377.817 714.529 374.18 717.787 371.863 708.876C370.202 702.273 370.313 695.097 372.178 688.593C375.523 677.18 375.909 659.316 384.272 653.714C385.398 653.084 386.613 652.789 387.832 652.849C389.051 652.909 390.246 653.322 391.335 654.061C392.424 654.799 393.382 655.846 394.142 657.128C394.902 658.411 395.447 659.899 395.74 661.492Z" fill="#0F2572"/>
<path d="M371.686 708.586C374.033 717.514 377.686 714.515 382.623 714.215C388.87 713.835 394.909 721.635 401.148 713.348C402.661 711.305 403.827 708.851 404.567 706.151C404.298 705.241 403.628 703.887 402.932 704.177C402.426 704.394 402.212 705.38 401.805 705.943C400.631 707.586 398.965 705.208 398.004 704.632C395.703 703.289 392.545 706.327 390.735 703.261C389.102 700.543 390.16 694.812 395.016 693.731C394.028 692.393 394.737 689.697 395.728 688.286C396.717 686.891 398.03 685.744 398.362 683.71C398.502 682.508 398.312 681.278 397.828 680.247C397.343 679.217 396.597 678.455 395.726 678.102C392.243 676.704 388.901 680.661 388.89 675.071C388.83 671.529 386.683 669.967 384.39 668.824C382.101 667.724 381.213 659.076 384.282 653.786L384.211 653.373C375.67 659.068 375.231 677.263 372.008 688.168C370.122 694.715 370.008 701.938 371.686 708.586Z" fill="white"/>
<path d="M393.78 718.137C396.236 718.05 398.607 716.889 400.545 714.824C402.482 712.759 403.884 709.899 404.545 706.665C404.574 706.559 404.575 706.442 404.548 706.335C404.186 705.142 403.414 703.648 402.515 704.066C401.185 704.631 401.686 708.104 398.865 705.386C397.68 704.276 397.142 703.853 394.571 704.353C393.173 704.641 391.631 704.821 390.743 703.29C390.333 702.348 390.137 701.261 390.181 700.166C390.224 699.071 390.506 698.019 390.989 697.144C391.933 695.555 393.3 694.542 394.789 694.328C394.849 694.314 394.905 694.278 394.951 694.223C394.997 694.169 395.032 694.098 395.05 694.018C395.068 693.939 395.07 693.854 395.056 693.773C395.041 693.692 395.011 693.618 394.967 693.559C394.137 692.413 394.839 689.896 395.686 688.661C396.699 687.226 398.036 686.01 398.384 683.796C398.548 682.461 398.349 681.09 397.824 679.942C397.3 678.794 396.486 677.947 395.537 677.561C393.895 677.183 392.217 677.196 390.578 677.599C386.855 677.8 392.005 672.114 384.283 668.148C384.003 668.038 383.744 667.846 383.523 667.585C382.694 665.378 382.33 662.9 382.469 660.426C382.609 657.953 383.247 655.58 384.314 653.573C384.343 653.519 384.364 653.459 384.376 653.394C384.388 653.33 384.391 653.262 384.384 653.197L384.316 652.772C384.305 652.704 384.283 652.639 384.251 652.585C384.219 652.53 384.178 652.486 384.131 652.456C384.085 652.427 384.034 652.412 383.983 652.413C383.932 652.414 383.881 652.432 383.835 652.464C375.216 658.343 374.739 677.01 371.538 688.064C369.638 694.819 369.525 702.269 371.221 709.126C373.878 719.593 378.974 714.836 383.395 715.154C386.82 715.4 390.295 717.887 393.78 718.137ZM403.872 706.508C403.284 709.029 402.249 711.311 400.859 713.152C399.469 714.993 397.767 716.334 395.905 717.057C391.524 718.189 386.902 713.905 382.389 714.243C377.745 714.521 374.141 717.802 371.846 708.827C370.2 702.178 370.31 694.95 372.158 688.4C375.381 677.317 375.652 660.521 383.344 653.884C382.488 655.831 381.967 658.019 381.82 660.282C381.673 662.545 381.905 664.823 382.497 666.946C382.601 667.446 382.8 667.899 383.074 668.26C383.347 668.622 383.686 668.877 384.055 669.002C386.207 670.104 388.246 671.537 388.309 674.932C388.222 681.15 392.249 677.099 395.354 678.438C396.138 678.766 396.809 679.466 397.247 680.413C397.685 681.36 397.861 682.49 397.741 683.598C397.429 685.549 396.124 686.69 395.208 688.036C394.682 688.74 394.306 689.627 394.121 690.601C393.936 691.575 393.949 692.6 394.158 693.565C388.028 695.456 387.744 706.542 394.039 705.37C395.197 704.947 396.416 704.949 397.573 705.376C398.723 706.074 400.602 709.141 402.17 705.776C402.343 705.382 402.516 705.02 402.714 704.932C402.747 704.915 402.782 704.909 402.817 704.914C403.253 704.945 403.694 705.963 403.872 706.508Z" fill="#0F2572"/>
<path d="M371.67 708.532C373.985 717.516 377.588 714.498 382.458 714.196C388.62 713.814 394.576 721.663 400.729 713.324C397.349 711.335 392.964 716.992 388.456 710.856C384.414 705.355 385.905 695.606 390.108 693.95C391.482 693.395 391.417 692.764 391.454 690.333C391.453 688.942 391.722 687.576 392.233 686.373C392.744 685.17 393.479 684.172 394.364 683.482C394.273 683.095 394.124 682.738 393.925 682.435C393.727 682.132 393.483 681.89 393.211 681.725C392.939 681.56 392.645 681.475 392.347 681.476C392.049 681.477 391.755 681.564 391.483 681.731C390.449 682.491 389.335 683.032 388.181 683.336C387.42 683.218 386.715 682.731 386.195 681.962C385.676 681.193 385.376 680.195 385.351 679.15C385.162 676.41 384.903 676.655 382.816 675.821C378.888 674.212 378.456 665.468 377.753 662.488C374.93 670.237 374.374 679.752 371.988 687.986C370.128 694.574 370.015 701.843 371.67 708.532Z" fill="white"/>
<path d="M401.591 714.125C401.631 714.073 401.659 714.008 401.675 713.936C401.691 713.865 401.694 713.789 401.683 713.716C401.671 713.643 401.647 713.575 401.611 713.518C401.576 713.461 401.53 713.416 401.478 713.389C399.292 712.808 397.033 712.94 394.893 713.774C385.739 714.873 384.036 697.244 390.707 694.688C392.036 694.177 392.18 693.125 392.171 691.105C392.113 689.717 392.344 688.336 392.837 687.114C393.331 685.891 394.068 684.877 394.967 684.183C395.541 683.823 394.705 682.247 394.133 681.813C392.009 680.198 390.235 683.178 388.484 683.169C387.075 683.383 385.978 681.006 385.895 679.022C385.729 674.153 382.178 678.075 379.869 671.169C379.12 668.343 378.532 665.446 378.11 662.501C377.132 658.297 373.327 682.171 371.564 688.14C369.632 694.872 369.517 702.298 371.241 709.131C373.942 719.563 379.123 714.822 383.617 715.139C389.492 715.553 395.429 722.277 401.591 714.125ZM400.708 713.993C394.267 721.79 388.845 712.722 380.072 714.648C375.906 715.549 373.575 715.342 371.877 708.833C370.203 702.206 370.315 695.003 372.194 688.475C374.504 680.684 375.183 671.419 377.703 663.961C378.502 668.619 379.222 675.031 382.893 676.499C384.44 677.075 385.134 676.981 385.222 679.07C385.188 680.275 385.49 681.454 386.069 682.379C386.647 683.303 387.461 683.906 388.353 684.072C389.7 684.167 390.767 682.97 391.972 682.439C392.409 682.18 392.902 682.15 393.354 682.354C393.807 682.559 394.185 682.983 394.416 683.543C393.483 684.357 392.723 685.481 392.212 686.806C391.701 688.132 391.456 689.612 391.5 691.102C391.485 692.755 391.508 693.424 390.524 693.813C382.98 696.794 385.089 715.876 394.952 714.677C396.833 714.052 398.774 713.822 400.708 713.993Z" fill="#0F2572"/>
<path d="M388.724 727.778C388.958 730.175 385.683 730.197 384.545 728.271C383.98 727.317 385.463 724.554 385.873 718.705C385.722 716.159 385.732 713.602 385.904 711.058C386.431 708.475 388.349 710.687 388.057 716.13C387.805 720.034 388.03 723.963 388.724 727.778Z" fill="white"/>
<path d="M389.2 727.777C388.544 723.988 388.33 720.086 388.567 716.209C388.942 708.905 385.175 706.006 385.743 715.611C385.979 718.941 385.656 722.3 384.799 725.441C384.453 727.013 384.246 727.954 384.609 728.593C384.617 728.613 385.301 729.756 385.903 729.844C387.502 730.544 389.407 730.006 389.2 727.777ZM386.862 710.479C387.228 710.562 388.084 712.363 387.888 716.149C387.643 720.081 387.861 724.04 388.534 727.882C388.674 729.378 387.139 729.44 386.079 728.969C386.049 728.955 386.017 728.947 385.986 728.944L385.976 728.943C385.645 728.742 385.358 728.432 385.141 728.042C384.991 727.772 385.199 726.812 385.441 725.695C385.974 723.453 386.325 721.14 386.488 718.798C386.624 716.746 385.894 710.411 386.862 710.479Z" fill="#0F2572"/>
<path d="M144.661 735.844C143.599 735.729 142.586 735.339 141.72 734.712C141.407 734.467 141.022 734.331 140.625 734.325C140.228 734.319 139.839 734.443 139.519 734.678C139.215 735.202 138.96 735.753 138.757 736.324C138.447 736.787 138.513 735.808 141.639 739.022C141.859 739.001 142.077 738.966 142.292 738.918C144.232 738.452 146.422 739.408 147.334 739.106C148.731 738.643 148.007 736.152 144.661 735.844Z" fill="#0F2572"/>
<path d="M147.042 739.302C146.192 739.277 145.347 739.176 144.515 738.999C143.56 738.892 142.594 738.95 141.658 739.17L141.647 739.173C140.705 738.226 139.675 737.372 138.57 736.624C138.408 736.538 138.522 736.39 138.63 736.243C138.831 735.673 139.085 735.123 139.389 734.6C139.732 734.328 140.156 734.179 140.594 734.176C141.031 734.174 141.457 734.318 141.803 734.587C142.649 735.199 143.639 735.58 144.676 735.693C148.556 736.05 148.959 739.201 147.042 739.302ZM143.208 738.643C145.217 738.537 148.048 739.821 147.851 738.066C147.749 737.173 146.617 736.175 144.648 735.993C143.557 735.899 142.515 735.499 141.64 734.839C141.355 734.612 141.004 734.485 140.64 734.475C140.276 734.465 139.919 734.574 139.622 734.785C139.333 735.319 139.077 735.872 138.857 736.439C139.908 737.114 140.862 737.93 141.693 738.864C142.194 738.765 142.7 738.691 143.208 738.643Z" fill="#0F2572"/>
<path d="M141.633 739C141.633 739 125.989 746.013 122.695 744.829C122.644 744.81 122.6 744.775 122.57 744.729C122.541 744.682 122.527 744.628 122.531 744.573C122.492 744.538 122.49 744.5 122.486 744.425C119.214 739.862 109.733 728.065 110.935 722.663L118.954 722.918C119.985 723.613 122.194 728.95 122.591 729.932C124.709 734.915 125.284 737.575 125.875 738.813C126.076 738.752 126.273 738.678 126.465 738.593C131.519 736.063 133.196 737.22 138.524 736.335C139.274 736.295 141.838 737.179 141.633 739Z" fill="#FFC9D4"/>
<path d="M122.644 744.969C122.573 744.946 122.509 744.902 122.463 744.842C122.418 744.782 122.391 744.71 122.388 744.634C119.44 740.034 109.507 728.35 110.789 722.629C110.796 722.597 110.814 722.568 110.838 722.547C110.863 722.526 110.894 722.513 110.926 722.511C111.581 722.477 108.57 722.437 118.956 722.769C119.608 722.775 121.623 727.133 122.731 729.876C124.353 733.694 125.688 738.045 125.957 738.632C128.733 737.692 128.744 736.817 133.992 736.609C135.504 736.581 137.012 736.44 138.503 736.187C139.518 736.255 140.474 736.684 141.202 737.396C141.415 737.604 141.578 737.858 141.679 738.139C141.779 738.42 141.815 738.72 141.782 739.016C141.748 739.417 125.723 746.089 122.644 744.969ZM111.056 722.816C110.037 728.141 119.209 739.599 122.608 744.337C124.445 746.49 140.082 739.523 141.493 738.899C141.587 737.45 139.497 736.435 138.533 736.486C136.763 736.753 134.978 736.906 133.188 736.946C128.188 737.21 126.007 739.376 125.739 738.878C125.563 738.508 121.135 725.091 118.895 723.067L111.056 722.816Z" fill="#0F2572"/>
<mask id="mask0_1088_11392" style="mask-type:luminance" maskUnits="userSpaceOnUse" x="110" y="722" width="32" height="23">
<path d="M141.633 739C141.633 739 125.989 746.013 122.695 744.829C122.644 744.81 122.6 744.775 122.57 744.729C122.541 744.682 122.527 744.628 122.531 744.573C122.492 744.538 122.49 744.5 122.486 744.425C119.214 739.862 109.733 728.065 110.935 722.663L118.954 722.918C119.174 723.287 120.049 723.649 122.591 729.932C124.404 734.198 125.48 737.986 125.875 738.813C126.061 738.766 133.196 737.219 138.524 736.335C139.274 736.295 141.838 737.179 141.633 739Z" fill="white"/>
</mask>
<g mask="url(#mask0_1088_11392)">
<path d="M129.379 742.909C129.39 742.881 129.412 742.858 129.439 742.846C129.467 742.834 129.498 742.833 129.526 742.844C129.554 742.855 129.577 742.876 129.59 742.904C129.602 742.931 129.603 742.963 129.593 742.991C129.582 743.019 129.56 743.042 129.532 743.054C129.505 743.066 129.474 743.067 129.446 743.056C129.417 743.046 129.395 743.024 129.382 742.996C129.37 742.969 129.369 742.938 129.379 742.909Z" fill="#0F2572"/>
<path d="M131.484 741.131C131.487 741.107 131.498 741.086 131.515 741.07C131.533 741.055 131.555 741.047 131.579 741.047C131.602 741.048 131.624 741.057 131.641 741.073C131.658 741.09 131.668 741.112 131.669 741.135C131.667 741.158 131.655 741.179 131.638 741.195C131.621 741.21 131.598 741.218 131.575 741.218C131.551 741.217 131.529 741.208 131.512 741.192C131.496 741.176 131.486 741.154 131.484 741.131Z" fill="#0F2572"/>
<path d="M129.275 741.861C129.329 741.72 129.414 741.774 129.438 741.924C129.468 742.101 129.221 742.003 129.275 741.861Z" fill="#0F2572"/>
<path d="M131.499 742.957C131.462 743.055 131.403 743.017 131.385 742.913C131.365 742.79 131.537 742.858 131.499 742.957Z" fill="#0F2572"/>
<path d="M131.092 743.987C131.146 743.846 131.23 743.9 131.255 744.05C131.284 744.228 131.038 744.129 131.092 743.987Z" fill="#0F2572"/>
<path d="M130.847 743.092C130.885 742.994 130.856 742.999 130.806 743.077C130.746 743.169 130.81 743.191 130.847 743.092Z" fill="#0F2572"/>
<path d="M128.018 742.991C128.071 742.849 128.156 742.904 128.181 743.053C128.21 743.231 127.964 743.133 128.018 742.991Z" fill="#0F2572"/>
<path d="M130.666 743.923C130.72 743.782 130.804 743.836 130.829 743.986C130.858 744.164 130.612 744.065 130.666 743.923Z" fill="#0F2572"/>
<path d="M129.825 742.566C129.879 742.425 129.964 742.479 129.988 742.629C130.017 742.807 129.771 742.708 129.825 742.566Z" fill="#0F2572"/>
<path d="M128.62 742.723C128.583 742.821 128.524 742.783 128.507 742.679C128.486 742.556 128.658 742.624 128.62 742.723Z" fill="#0F2572"/>
<path d="M128.676 741.495C128.638 741.593 128.579 741.555 128.562 741.451C128.542 741.328 128.713 741.396 128.676 741.495Z" fill="#0F2572"/>
<path d="M126.514 742.633C126.567 742.491 126.652 742.545 126.677 742.695C126.706 742.873 126.46 742.774 126.514 742.633Z" fill="#0F2572"/>
<path d="M129.649 740.519C129.702 740.378 129.947 740.479 129.812 740.582C129.76 740.884 129.644 740.766 129.649 740.519Z" fill="#0F2572"/>
<path d="M130.547 743.778C130.336 743.772 130.37 743.569 130.557 743.415C130.78 743.232 130.759 743.784 130.547 743.778Z" fill="#0F2572"/>
<path d="M129.117 743.718C128.879 743.712 128.917 743.508 129.127 743.355C129.377 743.173 129.355 743.725 129.117 743.718Z" fill="#0F2572"/>
<path d="M129.283 744.01C129.339 743.749 129.595 744.132 129.465 744.203C129.429 744.341 129.139 744.044 129.283 744.01Z" fill="#0F2572"/>
<path d="M129.28 741.38C129.257 741.488 129.165 741.336 129.219 741.307C129.283 741.271 129.34 741.366 129.28 741.38Z" fill="#0F2572"/>
<path d="M129.774 743.551C129.93 743.607 129.971 743.822 129.823 743.811C129.647 743.799 129.634 743.5 129.774 743.551Z" fill="#0F2572"/>
<path d="M130.19 741.253C130.337 741.258 130.315 741.353 130.185 741.424C130.031 741.509 130.042 741.249 130.19 741.253Z" fill="#0F2572"/>
<path d="M128.492 743.162C128.466 743.014 128.826 743.155 128.704 743.244C128.549 743.357 128.297 743.267 128.492 743.162Z" fill="#0F2572"/>
<path d="M126.979 743.984C126.921 744.09 126.765 743.822 126.886 743.827C127.04 743.833 127.047 743.86 126.979 743.984Z" fill="#0F2572"/>
<path d="M132.602 742.883C132.587 742.796 132.798 742.879 132.727 742.931C132.636 742.998 132.62 742.985 132.602 742.883Z" fill="#0F2572"/>
<path d="M129.118 740.357C129.103 740.27 129.314 740.352 129.243 740.405C129.151 740.471 129.135 740.458 129.118 740.357Z" fill="#0F2572"/>
<path d="M127.72 743.367C127.73 743.428 127.583 743.37 127.632 743.334C127.696 743.287 127.707 743.296 127.72 743.367Z" fill="#0F2572"/>
<path d="M130.96 741.767C131 741.709 131.075 741.874 131.005 741.864C130.915 741.851 130.913 741.835 130.96 741.767Z" fill="#0F2572"/>
<path d="M127.638 741.382C127.578 741.405 127.513 741.297 127.636 741.288C127.723 741.282 127.707 741.355 127.638 741.382Z" fill="#0F2572"/>
<path d="M126.212 744.43C126.161 744.488 126.047 744.399 126.168 744.324C126.254 744.271 126.271 744.363 126.212 744.43Z" fill="#0F2572"/>
<path d="M130.92 740.936C130.944 741.021 130.725 740.962 130.791 740.902C130.874 740.826 130.891 740.837 130.92 740.936Z" fill="#0F2572"/>
<path d="M131.986 742.797C132.002 742.852 131.862 742.814 131.903 742.776C131.957 742.727 131.968 742.734 131.986 742.797Z" fill="#0F2572"/>
<path d="M128.812 743.949C128.826 743.798 129.23 744.061 129.089 744.115C128.908 744.185 128.796 744.125 128.812 743.949Z" fill="#0F2572"/>
<path d="M131.229 742.56C131.169 742.44 131.335 742.408 131.326 742.539C131.315 742.707 131.298 742.699 131.229 742.56Z" fill="#0F2572"/>
<path d="M130.352 744.285C130.438 744.457 130.2 744.503 130.212 744.314C130.229 744.072 130.253 744.084 130.352 744.285Z" fill="#0F2572"/>
<path d="M130.757 742.178C130.778 742.281 130.523 742.184 130.608 742.121C130.608 742.121 130.725 742.021 130.757 742.178Z" fill="#0F2572"/>
<path d="M128.145 741.744C128.165 741.847 127.911 741.75 127.996 741.687C127.996 741.687 128.113 741.587 128.145 741.744Z" fill="#0F2572"/>
<path d="M130.537 742.444C130.606 742.525 130.377 742.604 130.398 742.43C130.398 742.43 130.219 742.071 130.537 742.444Z" fill="#0F2572"/>
<path d="M130.062 743.174C130.097 743.215 129.98 743.261 129.991 743.173C129.991 743.173 129.901 742.985 130.062 743.174Z" fill="#0F2572"/>
<path d="M131.776 742.094C131.783 742.142 131.642 742.115 131.708 742.056C131.708 742.056 131.742 741.871 131.776 742.094Z" fill="#0F2572"/>
<path d="M128.902 742.272C128.88 742.225 129.059 742.137 129.032 742.208C129.109 742.269 128.871 742.373 128.902 742.272Z" fill="#0F2572"/>
<path d="M127.123 744.563L127.085 744.61C127.085 744.61 127.016 744.65 127.032 744.607C126.979 744.565 127.145 744.492 127.123 744.563Z" fill="#0F2572"/>
<path d="M128.477 743.758C128.509 743.827 128.4 743.855 128.4 743.855C128.401 743.903 128.259 743.937 128.292 743.85C128.183 743.763 128.522 743.615 128.477 743.758Z" fill="#0F2572"/>
<path d="M130.208 741.661C130.213 741.682 130.21 741.703 130.199 741.721C130.188 741.739 130.171 741.752 130.151 741.757C130.13 741.763 130.109 741.76 130.091 741.749C130.073 741.738 130.059 741.721 130.054 741.701C130.049 741.68 130.052 741.659 130.063 741.641C130.074 741.623 130.091 741.61 130.112 741.605C130.132 741.599 130.153 741.602 130.172 741.613C130.19 741.624 130.203 741.641 130.208 741.661Z" fill="#0F2572"/>
<path d="M130.188 742.833C130.084 742.587 130.513 742.751 130.448 742.885C130.498 743.018 130.089 742.944 130.188 742.833Z" fill="#0F2572"/>
<path d="M129.468 742.427C129.361 742.32 129.737 742.227 129.689 742.37C129.628 742.555 129.368 742.626 129.468 742.427Z" fill="#0F2572"/>
<path d="M129.627 744.263C129.552 744.132 129.939 744.14 129.855 744.266C129.748 744.428 129.715 744.416 129.627 744.263Z" fill="#0F2572"/>
<path d="M129.05 743.165C128.975 743.033 129.362 743.042 129.278 743.168C129.171 743.33 129.137 743.318 129.05 743.165Z" fill="#0F2572"/>
<path d="M127.494 743.007C127.547 743.098 127.277 743.093 127.335 743.005C127.41 742.892 127.433 742.901 127.494 743.007Z" fill="#0F2572"/>
<path d="M128.117 742.5C128.169 742.591 127.899 742.585 127.958 742.498C128.032 742.385 128.055 742.393 128.117 742.5Z" fill="#0F2572"/>
<path d="M129.262 741.461C129.217 741.434 129.281 741.38 129.281 741.38C129.281 741.38 129.315 741.27 129.331 741.334C129.429 741.339 129.295 741.561 129.262 741.461Z" fill="#0F2572"/>
<path d="M129.696 743.241C129.761 743.279 129.689 743.367 129.689 743.367C129.718 743.405 129.621 743.516 129.597 743.424C129.457 743.417 129.649 743.097 129.696 743.241Z" fill="#0F2572"/>
<path d="M131.377 743.531C131.374 743.476 131.581 743.459 131.528 743.519C131.476 743.554 131.614 743.674 131.377 743.531Z" fill="#0F2572"/>
<path d="M128.335 742.303L128.316 742.284C128.316 742.284 128.321 742.204 128.335 742.303Z" fill="#0F2572"/>
<path d="M132.213 743.644L132.283 743.659C132.283 743.659 132.291 743.765 132.213 743.644Z" fill="#0F2572"/>
<path d="M127.829 744.792C127.846 744.836 127.86 744.883 127.87 744.93C127.87 744.93 127.593 744.873 127.724 744.803C127.757 744.754 127.906 744.586 127.829 744.792Z" fill="#0F2572"/>
<path d="M132.652 741.739L132.567 741.756C132.567 741.756 132.591 741.595 132.64 741.676C132.673 741.698 132.784 741.795 132.652 741.739Z" fill="#0F2572"/>
<path d="M129.689 742.115L129.621 742.153C129.621 742.153 129.618 742 129.671 742.061C129.671 742.061 129.807 742.132 129.689 742.115Z" fill="#0F2572"/>
<path d="M127.47 742.201C127.48 742.165 127.493 742.13 127.509 742.096C127.509 742.096 127.655 742.261 127.541 742.243C127.497 742.258 127.327 742.292 127.47 742.201Z" fill="#0F2572"/>
<path d="M130.194 743.573C130.267 743.44 130.343 743.505 130.347 743.657C130.351 743.837 130.121 743.705 130.194 743.573Z" fill="#0F2572"/>
<path d="M127.588 743.979C127.599 743.951 127.621 743.929 127.648 743.917C127.676 743.905 127.707 743.904 127.735 743.915C127.763 743.926 127.786 743.947 127.798 743.974C127.811 744.002 127.812 744.033 127.801 744.061C127.79 744.089 127.769 744.112 127.741 744.124C127.714 744.136 127.682 744.137 127.654 744.126C127.626 744.115 127.604 744.094 127.591 744.066C127.579 744.039 127.578 744.008 127.588 743.979Z" fill="#0F2572"/>
<path d="M130.139 744.111C130.295 744.168 130.336 744.382 130.188 744.372C130.012 744.36 129.999 744.061 130.139 744.111Z" fill="#0F2572"/>
<path d="M128.922 743.411C129.078 743.467 129.119 743.682 128.971 743.672C128.795 743.659 128.782 743.36 128.922 743.411Z" fill="#0F2572"/>
<path d="M128.517 744.517C128.552 744.558 128.435 744.604 128.446 744.516C128.446 744.516 128.356 744.328 128.517 744.517Z" fill="#0F2572"/>
<path d="M128.687 744.439C128.612 744.307 129 744.316 128.916 744.442C128.808 744.604 128.775 744.592 128.687 744.439Z" fill="#0F2572"/>
<path d="M128.258 744.352C128.323 744.39 128.25 744.477 128.25 744.477C128.279 744.516 128.182 744.627 128.159 744.535C128.019 744.528 128.211 744.208 128.258 744.352Z" fill="#0F2572"/>
<path d="M129.845 743.9C129.847 743.962 129.709 743.885 129.764 743.855C129.833 743.818 129.843 743.828 129.845 743.9Z" fill="#0F2572"/>
<path d="M129.65 743.084C129.648 743.103 129.639 743.12 129.625 743.132C129.611 743.144 129.593 743.149 129.575 743.148C129.556 743.146 129.539 743.138 129.527 743.123C129.515 743.109 129.509 743.091 129.511 743.073C129.512 743.064 129.514 743.055 129.518 743.047C129.523 743.038 129.528 743.031 129.535 743.025C129.542 743.019 129.55 743.015 129.559 743.012C129.568 743.009 129.577 743.008 129.586 743.009C129.595 743.01 129.604 743.012 129.612 743.017C129.62 743.021 129.628 743.026 129.633 743.033C129.639 743.04 129.644 743.049 129.647 743.057C129.649 743.066 129.65 743.075 129.65 743.084Z" fill="#0F2572"/>
<path d="M133.987 740.701C133.974 740.615 134.133 740.606 134.145 740.692C134.158 740.779 134 740.788 133.987 740.701Z" fill="#0F2572"/>
<path d="M132.532 741.5C132.519 741.651 132.423 741.623 132.358 741.486C132.281 741.323 132.545 741.349 132.532 741.5Z" fill="#0F2572"/>
<path d="M130.309 743.948C130.297 744.099 130.201 744.071 130.135 743.934C130.058 743.771 130.322 743.797 130.309 743.948Z" fill="#0F2572"/>
<path d="M131.121 741.717C131.108 741.868 131.012 741.839 130.947 741.702C130.87 741.54 131.133 741.566 131.121 741.717Z" fill="#0F2572"/>
<path d="M130.738 743.892C130.726 744.043 130.629 744.014 130.564 743.878C130.487 743.715 130.751 743.741 130.738 743.892Z" fill="#0F2572"/>
<path d="M131.675 739.503C131.613 739.526 131.575 739.414 131.649 739.43C131.765 739.36 131.759 739.433 131.675 739.503Z" fill="#0F2572"/>
<path d="M131.672 741.832C131.659 741.647 131.904 741.852 131.831 741.925C131.744 742.012 131.582 741.882 131.672 741.832Z" fill="#0F2572"/>
<path d="M129.074 743.847C129.062 743.662 129.307 743.867 129.233 743.941C129.146 744.027 128.984 743.898 129.074 743.847Z" fill="#0F2572"/>
<path d="M132.041 743.422C132.059 743.689 131.707 743.393 131.813 743.288C131.809 743.146 132.171 743.35 132.041 743.422Z" fill="#0F2572"/>
<path d="M130.93 742.756C130.824 743.001 130.42 742.414 130.789 742.531C130.85 742.403 131.078 742.751 130.93 742.756Z" fill="#0F2572"/>
<path d="M131.136 740.866C131.143 740.966 131.011 740.855 131.05 740.815C131.098 740.768 131.186 740.839 131.136 740.866Z" fill="#0F2572"/>
<path d="M128.606 742.35C128.613 742.45 128.48 742.339 128.52 742.299C128.567 742.252 128.655 742.323 128.606 742.35Z" fill="#0F2572"/>
<path d="M131.697 744C131.531 743.99 131.432 743.795 131.577 743.764C131.75 743.726 131.845 744.01 131.697 744Z" fill="#0F2572"/>
<path d="M134.875 742.16C134.907 742.09 135.042 742.144 134.946 742.25C134.878 742.325 134.837 742.241 134.875 742.16Z" fill="#0F2572"/>
<path d="M132.87 739.639C132.836 739.689 132.745 739.625 132.831 739.555C132.892 739.506 132.91 739.58 132.87 739.639Z" fill="#0F2572"/>
<path d="M131.659 740.578C131.621 740.593 131.573 740.525 131.653 740.518C131.709 740.513 131.703 740.56 131.659 740.578Z" fill="#0F2572"/>
<path d="M129.654 743.812C129.692 743.763 129.748 743.911 129.688 743.899C129.61 743.883 129.609 743.868 129.654 743.812Z" fill="#0F2572"/>
<path d="M130.204 742.437C130.263 742.458 130.14 742.558 130.133 742.497C130.123 742.418 130.137 742.413 130.204 742.437Z" fill="#0F2572"/>
<path d="M128.522 744.17C128.439 744.14 128.615 743.997 128.625 744.085C128.638 744.197 128.619 744.205 128.522 744.17Z" fill="#0F2572"/>
<path d="M129.285 742.14C129.343 742.161 129.22 742.261 129.213 742.199C129.203 742.121 129.217 742.115 129.285 742.14Z" fill="#0F2572"/>
<path d="M131.385 741.515C131.418 741.603 131.219 741.582 131.293 741.499C131.242 741.306 131.473 741.453 131.385 741.515Z" fill="#0F2572"/>
<path d="M132.511 743.349C132.539 743.498 132.078 743.358 132.199 743.267C132.353 743.149 132.478 743.175 132.511 743.349Z" fill="#0F2572"/>
<path d="M130.404 741.886C130.484 741.915 130.314 742.052 130.304 741.968C130.292 741.859 130.31 741.852 130.404 741.886Z" fill="#0F2572"/>
<path d="M130.938 743.457C130.809 743.315 131.025 743.204 131.065 743.389C131.116 743.626 131.09 743.622 130.938 743.457Z" fill="#0F2572"/>
<path d="M128.846 743.254C128.764 743.164 128.901 743.093 128.927 743.211C128.959 743.361 128.943 743.359 128.846 743.254Z" fill="#0F2572"/>
<path d="M131.66 742.937C131.73 743.072 131.34 743.038 131.432 742.918C131.432 742.918 131.336 742.315 131.66 742.937Z" fill="#0F2572"/>
<path d="M129.478 742.487C129.429 742.393 129.701 742.416 129.637 742.5C129.637 742.5 129.704 742.922 129.478 742.487Z" fill="#0F2572"/>
<path d="M132.43 740.516C132.381 740.423 132.653 740.446 132.588 740.529C132.588 740.529 132.504 740.658 132.43 740.516Z" fill="#0F2572"/>
<path d="M133.442 741.597C133.394 741.504 133.665 741.527 133.601 741.611C133.601 741.611 133.516 741.74 133.442 741.597Z" fill="#0F2572"/>
<path d="M132.154 739.878C132.184 739.823 132.284 739.933 132.183 739.957C132.183 739.957 132.012 740.134 132.154 739.878Z" fill="#0F2572"/>
<path d="M133.127 740.035C133.196 740.003 133.214 740.181 133.098 740.132C133.098 740.132 132.804 740.182 133.127 740.035Z" fill="#0F2572"/>
<path d="M130.976 739.937C130.989 740.013 130.867 740.069 130.874 739.943C130.874 739.943 130.923 739.609 130.976 739.937Z" fill="#0F2572"/>
<path d="M131.874 741.251C131.886 741.327 131.764 741.383 131.772 741.256C131.772 741.256 131.82 740.922 131.874 741.251Z" fill="#0F2572"/>
<path d="M133.962 742.288L133.985 742.231C133.985 742.231 134.04 742.173 134.037 742.219C134.1 742.245 133.96 742.361 133.962 742.288Z" fill="#0F2572"/>
<path d="M131.459 740.25L131.482 740.194C131.482 740.194 131.538 740.136 131.534 740.182C131.597 740.207 131.458 740.324 131.459 740.25Z" fill="#0F2572"/>
<path d="M130.068 741.439L130.092 741.383C130.092 741.383 130.147 741.325 130.143 741.371C130.206 741.396 130.067 741.513 130.068 741.439Z" fill="#0F2572"/>
<path d="M131.728 742.245C131.723 742.236 131.721 742.225 131.724 742.215C131.727 742.206 131.733 742.197 131.742 742.192C131.751 742.187 131.761 742.185 131.771 742.188C131.781 742.19 131.79 742.197 131.795 742.205C131.8 742.214 131.801 742.225 131.799 742.235C131.796 742.245 131.79 742.253 131.781 742.258C131.772 742.264 131.761 742.265 131.752 742.262C131.742 742.26 131.733 742.254 131.728 742.245Z" fill="#0F2572"/>
<path d="M131.641 743.275C131.75 743.38 131.375 743.48 131.421 743.336C131.479 743.151 131.514 743.153 131.641 743.275Z" fill="#0F2572"/>
<path d="M135.419 741.26C135.472 741.311 135.298 741.352 135.32 741.281C135.349 741.191 135.357 741.2 135.419 741.26Z" fill="#0F2572"/>
<path d="M133.123 741.275C133.157 741.315 133.01 741.448 133.016 741.372C132.925 741.335 133.124 741.169 133.123 741.275Z" fill="#0F2572"/>
<path d="M130.577 740.493C130.611 740.532 130.464 740.666 130.47 740.59C130.379 740.553 130.579 740.387 130.577 740.493Z" fill="#0F2572"/>
<path d="M130.089 743.479C130.04 743.421 130.137 743.363 130.137 743.363C130.122 743.317 130.25 743.244 130.242 743.338C130.372 743.391 130.086 743.63 130.089 743.479Z" fill="#0F2572"/>
<path d="M132.111 742.717C132.079 742.758 131.918 742.641 131.994 742.632C132.011 742.536 132.214 742.697 132.111 742.717Z" fill="#0F2572"/>
<path d="M129.851 740.718C129.869 740.77 129.673 740.84 129.709 740.769C129.637 740.697 129.896 740.617 129.851 740.718Z" fill="#0F2572"/>
<path d="M130.48 741.08L130.433 741.076L130.412 741.041C130.412 741.041 130.422 740.949 130.48 741.08Z" fill="#0F2572"/>
<path d="M130.938 742.298L130.962 742.312C130.962 742.312 130.98 742.389 130.938 742.298Z" fill="#0F2572"/>
<path d="M132.417 740.982L132.355 740.944C132.355 740.944 132.358 740.851 132.417 740.982Z" fill="#0F2572"/>
<path d="M129.263 741.097L129.258 741.144L129.222 741.164C129.222 741.164 129.131 741.153 129.263 741.097Z" fill="#0F2572"/>
<path d="M129.317 744.59L129.273 744.606L129.239 744.583C129.239 744.583 129.209 744.496 129.317 744.59Z" fill="#0F2572"/>
<path d="M133.221 742.266C133.192 742.228 133.166 742.187 133.144 742.144C133.144 742.144 133.414 742.132 133.308 742.237C133.29 742.293 133.204 742.485 133.221 742.266Z" fill="#0F2572"/>
<path d="M134.062 741.428C134.1 741.427 134.137 741.43 134.173 741.435C134.173 741.435 134.059 741.622 134.043 741.508C134.016 741.471 133.934 741.318 134.062 741.428Z" fill="#0F2572"/>
<path d="M133.502 740.726L133.437 740.666C133.437 740.666 133.602 740.607 133.554 740.687C133.554 740.687 133.526 740.86 133.502 740.726Z" fill="#0F2572"/>
<path d="M129.69 741.597L129.745 741.542C129.745 741.542 129.791 741.689 129.723 741.645C129.723 741.645 129.573 741.614 129.69 741.597Z" fill="#0F2572"/>
<path d="M132.454 742.055L132.457 741.977C132.457 741.977 132.59 742.055 132.51 742.068C132.51 742.068 132.379 742.147 132.454 742.055Z" fill="#0F2572"/>
<path d="M131.287 744.096C131.254 744.244 131.163 744.202 131.117 744.058C131.063 743.886 131.321 743.948 131.287 744.096Z" fill="#0F2572"/>
<path d="M133.046 741.944C132.881 741.933 132.782 741.738 132.927 741.707C133.099 741.67 133.194 741.953 133.046 741.944Z" fill="#0F2572"/>
<path d="M131.192 743.564C131.026 743.553 130.927 743.358 131.072 743.327C131.245 743.29 131.34 743.573 131.192 743.564Z" fill="#0F2572"/>
<path d="M132.637 742.721C132.592 742.691 132.691 742.614 132.705 742.702C132.705 742.702 132.844 742.857 132.637 742.721Z" fill="#0F2572"/>
<path d="M132.496 742.844C132.604 742.949 132.23 743.049 132.275 742.905C132.334 742.719 132.369 742.721 132.496 742.844Z" fill="#0F2572"/>
<path d="M132.931 742.807C132.858 742.789 132.904 742.685 132.904 742.685C132.865 742.656 132.928 742.522 132.976 742.604C133.112 742.571 133.016 742.932 132.931 742.807Z" fill="#0F2572"/>
<path d="M132.399 742.376C132.366 742.523 132.275 742.482 132.229 742.337C132.175 742.165 132.433 742.228 132.399 742.376Z" fill="#0F2572"/>
<path d="M130.678 743.41C130.724 743.553 130.349 743.465 130.456 743.36C130.594 743.225 130.856 743.279 130.678 743.41Z" fill="#0F2572"/>
<path d="M131.531 743.684C131.512 743.625 131.666 743.661 131.622 743.704C131.565 743.76 131.553 743.752 131.531 743.684Z" fill="#0F2572"/>
<path d="M130.594 742.945C130.602 743.096 130.261 742.911 130.393 742.837C130.562 742.743 130.586 742.768 130.594 742.945Z" fill="#0F2572"/>
<path d="M130.939 743.168C130.898 743.104 131.002 743.06 131.002 743.06C130.994 743.012 131.131 742.958 131.11 743.05C131.232 743.121 130.916 743.317 130.939 743.168Z" fill="#0F2572"/>
<path d="M131.205 742.29C131.181 742.248 131.161 742.204 131.145 742.159C131.145 742.159 131.427 742.175 131.307 742.264C131.281 742.317 131.158 742.504 131.205 742.29Z" fill="#0F2572"/>
<path d="M130.501 741.984L130.515 741.907C130.515 741.907 130.636 742.003 130.555 742.004C130.555 742.004 130.414 742.064 130.501 741.984Z" fill="#0F2572"/>
<path d="M131.749 740.081C131.663 740.096 131.65 739.937 131.736 739.923C131.822 739.908 131.835 740.067 131.749 740.081Z" fill="#0F2572"/>
<path d="M132.578 741.524C132.728 741.533 132.702 741.629 132.567 741.697C132.408 741.778 132.428 741.515 132.578 741.524Z" fill="#0F2572"/>
<path d="M136.543 741.321C136.693 741.33 136.666 741.427 136.532 741.495C136.372 741.576 136.392 741.312 136.543 741.321Z" fill="#0F2572"/>
<path d="M132.825 742.935C132.975 742.944 132.948 743.04 132.814 743.108C132.655 743.189 132.675 742.926 132.825 742.935Z" fill="#0F2572"/>
<path d="M135.092 740.456C135.241 740.465 135.215 740.562 135.081 740.629C134.921 740.71 134.941 740.447 135.092 740.456Z" fill="#0F2572"/>
<path d="M135.527 740.952C135.422 740.946 135.441 740.878 135.535 740.831C135.646 740.774 135.632 740.959 135.527 740.952Z" fill="#0F2572"/>
<path d="M136.711 740.636C136.606 740.63 136.624 740.562 136.718 740.515C136.83 740.458 136.816 740.643 136.711 740.636Z" fill="#0F2572"/>
<path d="M134.981 738.907C135.131 738.916 135.105 739.013 134.971 739.081C134.811 739.161 134.831 738.898 134.981 738.907Z" fill="#0F2572"/>
<path d="M130.608 742.428C130.632 742.49 130.523 742.517 130.537 742.443C130.465 742.329 130.536 742.346 130.608 742.428Z" fill="#0F2572"/>
<path d="M134.729 741.725C134.664 741.495 134.869 741.471 135.077 741.626C135.325 741.811 134.794 741.955 134.729 741.725Z" fill="#0F2572"/>
<path d="M132.928 742.378C132.743 742.395 132.943 742.145 133.017 742.217C133.106 742.302 132.98 742.467 132.928 742.378Z" fill="#0F2572"/>
<path d="M134.502 741.973C134.767 741.949 134.481 742.308 134.374 742.205C134.232 742.212 134.427 741.845 134.502 741.973Z" fill="#0F2572"/>
<path d="M137.002 741.181C136.892 741.191 137.009 741.058 137.053 741.1C137.106 741.151 137.033 741.234 137.002 741.181Z" fill="#0F2572"/>
<path d="M131.977 742.938C132.077 742.929 131.969 743.064 131.929 743.025C131.881 742.979 131.949 742.889 131.977 742.938Z" fill="#0F2572"/>
<path d="M135.07 740.961C135.204 740.892 135.178 741.28 135.056 741.19C134.901 741.075 134.912 740.805 135.07 740.961Z" fill="#0F2572"/>
<path d="M133.836 739.759C133.717 739.735 133.926 739.505 133.958 739.622C133.999 739.772 133.974 739.786 133.836 739.759Z" fill="#0F2572"/>
<path d="M137.924 740.72C138.003 740.679 137.987 740.905 137.916 740.853C137.825 740.786 137.833 740.767 137.924 740.72Z" fill="#0F2572"/>
<path d="M134.645 740.282C134.59 740.31 134.601 740.152 134.651 740.189C134.714 740.236 134.709 740.249 134.645 740.282Z" fill="#0F2572"/>
<path d="M136.507 739.609C136.467 739.559 136.55 739.465 136.595 739.579C136.628 739.66 136.553 739.667 136.507 739.609Z" fill="#0F2572"/>
<path d="M133.181 739.157C133.111 739.127 133.161 738.991 133.269 739.084C133.345 739.15 133.263 739.193 133.181 739.157Z" fill="#0F2572"/>
<path d="M130.715 741.225C130.766 741.259 130.704 741.352 130.633 741.267C130.583 741.207 130.656 741.187 130.715 741.225Z" fill="#0F2572"/>
<path d="M131.679 742.421C131.695 742.458 131.629 742.508 131.62 742.428C131.613 742.372 131.66 742.377 131.679 742.421Z" fill="#0F2572"/>
<path d="M132.618 742.674C132.706 742.639 132.69 742.838 132.604 742.766C132.413 742.822 132.554 742.587 132.618 742.674Z" fill="#0F2572"/>
<path d="M134.419 741.503C134.566 741.471 134.438 741.937 134.344 741.818C134.224 741.666 134.246 741.54 134.419 741.503Z" fill="#0F2572"/>
<path d="M134.029 742.366C134.161 742.292 134.137 742.684 134.015 742.594C134.015 742.594 133.416 742.705 134.029 742.366Z" fill="#0F2572"/>
<path d="M131.6 741.647C131.508 741.698 131.525 741.426 131.61 741.488C131.61 741.488 131.74 741.57 131.6 741.647Z" fill="#0F2572"/>
<path d="M136.315 740.203C136.223 740.253 136.24 739.981 136.325 740.044C136.325 740.044 136.455 740.125 136.315 740.203Z" fill="#0F2572"/>
<path d="M132.654 740.607C132.562 740.658 132.579 740.385 132.663 740.448C132.663 740.448 132.794 740.53 132.654 740.607Z" fill="#0F2572"/>
<path d="M130.97 741.939C130.914 741.91 131.021 741.808 131.048 741.909C131.048 741.909 131.229 742.075 130.97 741.939Z" fill="#0F2572"/>
<path d="M131.104 740.959C131.07 740.89 131.248 740.868 131.202 740.986C131.202 740.986 131.258 741.278 131.104 740.959Z" fill="#0F2572"/>
<path d="M131.055 743.12C131.131 743.106 131.189 743.226 131.063 743.222C131.063 743.222 130.731 743.181 131.055 743.12Z" fill="#0F2572"/>
<path d="M132.343 742.19C132.418 742.176 132.476 742.296 132.35 742.291C132.35 742.291 132.018 742.25 132.343 742.19Z" fill="#0F2572"/>
<path d="M136.039 741.087C136.078 741.051 136.214 741.196 136.138 741.191C136.104 741.283 135.934 741.087 136.039 741.087Z" fill="#0F2572"/>
<path d="M133.33 740.069L133.273 740.047C133.273 740.047 133.214 739.993 133.26 739.996C133.284 739.932 133.403 740.069 133.33 740.069Z" fill="#0F2572"/>
<path d="M131.357 742.628L131.3 742.606C131.3 742.606 131.241 742.552 131.287 742.555C131.311 742.491 131.43 742.628 131.357 742.628Z" fill="#0F2572"/>
<path d="M134.499 741.126C134.443 741.176 134.383 741.081 134.383 741.081C134.338 741.097 134.263 740.971 134.356 740.977C134.406 740.846 134.649 741.125 134.499 741.126Z" fill="#0F2572"/>
<path d="M133.338 742.313C133.294 742.341 133.264 742.263 133.308 742.236C133.351 742.209 133.381 742.286 133.338 742.313Z" fill="#0F2572"/>
<path d="M135.236 741.496C135.339 741.385 135.447 741.758 135.302 741.715C135.116 741.661 135.117 741.626 135.236 741.496Z" fill="#0F2572"/>
<path d="M134.919 739.958C134.847 740.036 134.772 739.776 134.873 739.806C135.003 739.843 135.002 739.868 134.919 739.958Z" fill="#0F2572"/>
<path d="M135.598 740.396C135.526 740.474 135.44 740.22 135.541 740.25C135.671 740.288 135.681 740.306 135.598 740.396Z" fill="#0F2572"/>
<path d="M132.273 738.632C132.323 738.578 132.376 738.759 132.305 738.739C132.214 738.712 132.215 738.695 132.273 738.632Z" fill="#0F2572"/>
<path d="M136.918 741.189C136.929 741.137 137.001 741.182 137.001 741.182C137.001 741.182 137.121 741.176 137.065 741.21C137.09 741.305 136.832 741.25 136.918 741.189Z" fill="#0F2572"/>
<path d="M132.355 740.944C132.394 740.909 132.417 740.982 132.417 740.982C132.417 740.982 132.506 741.045 132.44 741.041C132.406 741.132 132.25 740.945 132.355 740.944Z" fill="#0F2572"/>
<path d="M131.619 743.508C131.658 743.473 131.794 743.617 131.719 743.613C131.684 743.705 131.514 743.509 131.619 743.508Z" fill="#0F2572"/>
<path d="M133.799 741.917C133.841 741.948 133.728 742.112 133.717 742.036C133.62 742.021 133.777 741.814 133.799 741.917Z" fill="#0F2572"/>
<path d="M132.205 743.592L132.212 743.643L132.167 743.662C132.167 743.662 132.076 743.654 132.205 743.592Z" fill="#0F2572"/>
<path d="M132.072 741.629L132.069 741.677L132.034 741.699C132.034 741.699 131.943 741.691 132.072 741.629Z" fill="#0F2572"/>
<path d="M135.84 740.554L135.853 740.53C135.853 740.53 135.93 740.51 135.84 740.554Z" fill="#0F2572"/>
<path d="M133.323 740.814C133.286 740.843 133.247 740.87 133.205 740.894C133.205 740.894 133.176 740.613 133.281 740.717C133.338 740.734 133.541 740.825 133.323 740.814Z" fill="#0F2572"/>
<path d="M135.678 739.694C135.715 739.693 135.752 739.695 135.789 739.7C135.789 739.7 135.676 739.888 135.659 739.774C135.632 739.737 135.548 739.585 135.678 739.694Z" fill="#0F2572"/>
<path d="M132.471 739.988C132.47 739.951 132.471 739.914 132.476 739.877C132.476 739.877 132.665 739.987 132.552 740.006C132.515 740.034 132.364 740.12 132.471 739.988Z" fill="#0F2572"/>
<path d="M131.784 740.567L131.725 740.634C131.725 740.634 131.663 740.47 131.743 740.515C131.743 740.515 131.917 740.54 131.784 740.567Z" fill="#0F2572"/>
<path d="M133.132 741.589L133.054 741.587C133.054 741.587 133.128 741.453 133.143 741.532C133.143 741.532 133.225 741.662 133.132 741.589Z" fill="#0F2572"/>
<path d="M134.024 740.341C134.054 740.343 134.082 740.356 134.102 740.379C134.122 740.402 134.132 740.432 134.13 740.462C134.128 740.492 134.114 740.52 134.092 740.54C134.069 740.56 134.04 740.571 134.01 740.569C133.98 740.567 133.952 740.553 133.932 740.53C133.912 740.508 133.902 740.478 133.904 740.448C133.905 740.418 133.919 740.389 133.942 740.369C133.964 740.349 133.994 740.339 134.024 740.341Z" fill="#0F2572"/>
<path d="M133.007 740.998C133 741.164 132.808 741.268 132.774 741.123C132.733 740.951 133.013 740.849 133.007 740.998Z" fill="#0F2572"/>
<path d="M134.964 741.448C134.957 741.614 134.765 741.718 134.731 741.573C134.69 741.401 134.97 741.299 134.964 741.448Z" fill="#0F2572"/>
<path d="M133.791 741.39C133.762 741.436 133.683 741.338 133.77 741.322C133.77 741.322 133.922 741.18 133.791 741.39Z" fill="#0F2572"/>
<path d="M133.908 741.517C134.01 741.405 134.127 741.792 133.982 741.749C133.796 741.695 133.788 741.647 133.908 741.517Z" fill="#0F2572"/>
<path d="M133.869 741.092C133.853 741.165 133.748 741.122 133.748 741.122C133.721 741.161 133.587 741.102 133.667 741.052C133.632 740.917 133.991 741.005 133.869 741.092Z" fill="#0F2572"/>
<path d="M133.451 741.637C133.598 741.667 133.559 741.759 133.416 741.807C133.247 741.865 133.303 741.607 133.451 741.637Z" fill="#0F2572"/>
<path d="M133.394 742.837C133.353 742.861 133.31 742.882 133.266 742.9C133.266 742.9 133.275 742.618 133.366 742.735C133.419 742.76 133.608 742.879 133.394 742.837Z" fill="#0F2572"/>
<path d="M135.599 740.397C135.512 740.274 135.708 740.135 135.796 740.258C135.883 740.381 135.687 740.521 135.599 740.397Z" fill="#0F2572"/>
<path d="M138.498 739.789C138.445 739.714 138.571 739.632 138.624 739.707C138.678 739.782 138.552 739.864 138.498 739.789Z" fill="#0F2572"/>
<path d="M135.3 737.646C135.207 737.581 135.312 737.43 135.406 737.495C135.498 737.56 135.393 737.712 135.3 737.646Z" fill="#0F2572"/>
<path d="M134.683 739.897C134.595 739.774 134.687 739.734 134.824 739.796C134.987 739.869 134.77 740.019 134.683 739.897Z" fill="#0F2572"/>
<path d="M136.822 738.646C136.883 738.732 136.819 738.76 136.723 738.717C136.609 738.665 136.761 738.56 136.822 738.646Z" fill="#0F2572"/>
<path d="M137.452 739.556C137.365 739.433 137.456 739.393 137.594 739.455C137.757 739.529 137.539 739.679 137.452 739.556Z" fill="#0F2572"/>
<path d="M136.573 739.266C136.513 739.18 136.501 739.207 136.537 739.292C136.581 739.393 136.634 739.352 136.573 739.266Z" fill="#0F2572"/>
<path d="M134.923 741.573C134.836 741.451 134.927 741.411 135.064 741.472C135.227 741.546 135.01 741.696 134.923 741.573Z" fill="#0F2572"/>
<path d="M137.162 739.877C137.075 739.754 137.166 739.714 137.304 739.776C137.467 739.849 137.249 739.999 137.162 739.877Z" fill="#0F2572"/>
<path d="M135.57 739.828C135.483 739.706 135.574 739.666 135.712 739.727C135.875 739.801 135.658 739.951 135.57 739.828Z" fill="#0F2572"/>
<path d="M135.035 740.922C135.096 741.008 135.032 741.036 134.936 740.992C134.822 740.941 134.974 740.836 135.035 740.922Z" fill="#0F2572"/>
<path d="M134.047 740.196C134.108 740.282 134.044 740.31 133.948 740.267C133.833 740.216 133.986 740.11 134.047 740.196Z" fill="#0F2572"/>
<path d="M133.793 742.634C133.706 742.511 133.797 742.471 133.934 742.533C134.098 742.606 133.88 742.756 133.793 742.634Z" fill="#0F2572"/>
<path d="M133.775 738.843C133.688 738.72 133.907 738.571 133.918 738.741C134.14 738.952 133.978 738.983 133.775 738.843Z" fill="#0F2572"/>
<path d="M136.977 739.896C136.855 740.069 136.705 739.928 136.681 739.686C136.653 739.399 137.099 739.722 136.977 739.896Z" fill="#0F2572"/>
<path d="M136.136 741.06C135.999 741.255 135.851 741.111 135.84 740.85C135.827 740.541 136.273 740.864 136.136 741.06Z" fill="#0F2572"/>
<path d="M138.458 738.832C138.587 738.965 138.268 738.967 138.277 738.863C138.287 738.741 138.495 738.735 138.458 738.832Z" fill="#0F2572"/>
<path d="M136.47 741.081C136.285 740.889 136.743 740.887 136.73 741.036C136.825 741.142 136.418 741.22 136.47 741.081Z" fill="#0F2572"/>
<path d="M137.746 740.869C137.669 740.613 138.355 740.8 137.998 740.949C138.034 741.087 137.636 740.968 137.746 740.869Z" fill="#0F2572"/>
<path d="M134.286 739.627C134.362 739.706 134.185 739.699 134.191 739.638C134.197 739.565 134.307 739.569 134.286 739.627Z" fill="#0F2572"/>
<path d="M139.78 739.671C139.71 739.599 139.884 739.598 139.879 739.654C139.873 739.721 139.76 739.724 139.78 739.671Z" fill="#0F2572"/>
<path d="M136.36 740.416C136.493 740.318 136.693 740.402 136.603 740.519C136.495 740.658 136.241 740.505 136.36 740.416Z" fill="#0F2572"/>
<path d="M134.684 738.797C134.77 738.675 134.837 738.748 134.824 738.896C134.809 739.072 134.599 738.919 134.684 738.797Z" fill="#0F2572"/>
<path d="M135.32 741.282C135.182 741.22 135.508 740.989 135.515 741.14C135.523 741.334 135.299 741.504 135.32 741.282Z" fill="#0F2572"/>
<path d="M137.372 737.682C137.291 737.647 137.477 737.517 137.481 737.605C137.486 737.718 137.466 737.724 137.372 737.682Z" fill="#0F2572"/>
<path d="M133.347 739.196C133.267 739.16 133.452 739.03 133.456 739.119C133.461 739.232 133.442 739.238 133.347 739.196Z" fill="#0F2572"/>
<path d="M135.07 742.032C135.126 742.057 134.997 742.148 134.994 742.086C134.99 742.007 135.004 742.003 135.07 742.032Z" fill="#0F2572"/>
<path d="M135.537 738.438C135.511 738.372 135.689 738.401 135.642 738.454C135.582 738.522 135.567 738.514 135.537 738.438Z" fill="#0F2572"/>
<path d="M133.378 741.001C133.364 741.063 133.238 741.058 133.299 740.95C133.341 740.875 133.394 740.928 133.378 741.001Z" fill="#0F2572"/>
<path d="M138.04 739.236C138.042 739.297 137.904 739.22 137.958 739.191C138.027 739.153 138.037 739.164 138.04 739.236Z" fill="#0F2572"/>
<path d="M138.506 740.641C138.448 740.663 138.477 740.507 138.522 740.549C138.58 740.603 138.573 740.615 138.506 740.641Z" fill="#0F2572"/>
<path d="M138.673 738.228C138.756 738.196 138.715 738.419 138.65 738.359C138.567 738.282 138.577 738.264 138.673 738.228Z" fill="#0F2572"/>
<path d="M139.398 740.272C139.341 740.293 139.37 740.137 139.415 740.18C139.473 740.234 139.466 740.246 139.398 740.272Z" fill="#0F2572"/>
<path d="M134.825 738.011C134.909 738.038 134.739 738.187 134.725 738.1C134.708 737.988 134.727 737.98 134.825 738.011Z" fill="#0F2572"/>
<path d="M136.959 738.15C137.013 738.167 136.904 738.263 136.895 738.207C136.884 738.135 136.896 738.13 136.959 738.15Z" fill="#0F2572"/>
<path d="M136.158 741.442C136.04 741.346 136.482 741.154 136.449 741.302C136.406 741.492 136.294 741.553 136.158 741.442Z" fill="#0F2572"/>
<path d="M136.344 738.651C136.211 738.635 136.276 738.479 136.381 738.559C136.514 738.661 136.498 738.671 136.344 738.651Z" fill="#0F2572"/>
<path d="M137.288 740.34C137.478 740.363 137.384 740.587 137.236 740.472C137.045 740.326 137.067 740.312 137.288 740.34Z" fill="#0F2572"/>
<path d="M139.015 739.138C139.136 739.153 139.076 739.296 138.981 739.223C138.859 739.129 138.873 739.12 139.015 739.138Z" fill="#0F2572"/>
<path d="M137.066 741.211C136.926 741.153 137.25 740.932 137.257 741.084C137.257 741.084 137.714 741.476 137.066 741.211Z" fill="#0F2572"/>
<path d="M139.027 740.132C139.124 740.172 138.902 740.33 138.897 740.225C138.897 740.225 138.575 739.948 139.027 740.132Z" fill="#0F2572"/>
<path d="M135.766 738.835C135.863 738.875 135.641 739.033 135.636 738.927C135.636 738.927 135.618 738.774 135.766 738.835Z" fill="#0F2572"/>
<path d="M133.959 740.778C134.057 740.818 133.834 740.976 133.83 740.871C133.83 740.871 133.811 740.718 133.959 740.778Z" fill="#0F2572"/>
<path d="M135.854 739.158C135.958 739.146 135.907 739.387 135.775 739.274C135.775 739.274 135.37 739.217 135.854 739.158Z" fill="#0F2572"/>
<path d="M136.207 739.967C136.26 739.961 136.234 740.083 136.167 740.026C136.167 740.026 135.961 739.997 136.207 739.967Z" fill="#0F2572"/>
<path d="M136.259 737.937C136.304 737.957 136.203 738.06 136.191 737.972C136.191 737.972 136.055 737.841 136.259 737.937Z" fill="#0F2572"/>
<path d="M134.817 740.437C134.765 740.429 134.791 740.232 134.835 740.294C134.928 740.263 134.883 740.519 134.817 740.437Z" fill="#0F2572"/>
<path d="M135.816 741.615C135.891 741.626 135.854 741.734 135.854 741.734C135.895 741.759 135.844 741.898 135.789 741.821C135.656 741.865 135.721 741.497 135.816 741.615Z" fill="#0F2572"/>
<path d="M135.034 739.008C135.043 739.011 135.052 739.017 135.06 739.024C135.068 739.031 135.074 739.039 135.079 739.049C135.083 739.058 135.086 739.068 135.087 739.079C135.087 739.089 135.086 739.099 135.082 739.109C135.079 739.119 135.074 739.128 135.067 739.136C135.06 739.144 135.051 739.15 135.042 739.155C135.032 739.159 135.022 739.162 135.012 739.163C135.001 739.163 134.991 739.162 134.981 739.158C134.961 739.151 134.945 739.137 134.936 739.118C134.926 739.099 134.925 739.077 134.932 739.057C134.939 739.037 134.954 739.02 134.973 739.011C134.992 739.002 135.014 739.001 135.034 739.008Z" fill="#0F2572"/>
<path d="M135.993 739.673C135.732 739.624 136.105 739.356 136.18 739.485C136.318 739.516 136.031 739.817 135.993 739.673Z" fill="#0F2572"/>
<path d="M135.258 740.05C135.11 740.08 135.241 739.714 135.334 739.834C135.452 739.987 135.368 740.244 135.258 740.05Z" fill="#0F2572"/>
<path d="M136.87 740.933C136.719 740.924 136.941 740.604 136.999 740.744C137.074 740.924 137.046 740.945 136.87 740.933Z" fill="#0F2572"/>
<path d="M135.639 740.808C135.488 740.798 135.709 740.479 135.767 740.619C135.842 740.798 135.814 740.819 135.639 740.808Z" fill="#0F2572"/>
<path d="M134.647 742.022C134.752 742.029 134.598 742.251 134.557 742.153C134.505 742.029 134.525 742.014 134.647 742.022Z" fill="#0F2572"/>
<path d="M134.571 741.22C134.676 741.226 134.522 741.448 134.481 741.351C134.429 741.226 134.449 741.212 134.571 741.22Z" fill="#0F2572"/>
<path d="M134.344 739.687C134.297 739.71 134.286 739.627 134.286 739.627C134.286 739.627 134.214 739.537 134.276 739.559C134.334 739.481 134.445 739.715 134.344 739.687Z" fill="#0F2572"/>
<path d="M136.061 740.311C136.129 740.277 136.161 740.386 136.161 740.386C136.208 740.383 136.247 740.525 136.158 740.495C136.074 740.608 135.916 740.27 136.061 740.311Z" fill="#0F2572"/>
<path d="M137.923 739.772C137.997 739.784 137.961 739.891 137.961 739.891C138.001 739.916 137.951 740.055 137.896 739.978C137.763 740.022 137.827 739.654 137.923 739.772Z" fill="#0F2572"/>
<path d="M137.231 739.065C137.184 739.037 137.285 738.855 137.304 738.932C137.305 738.995 137.481 738.946 137.231 739.065Z" fill="#0F2572"/>
<path d="M134.529 740.928L134.502 740.933C134.502 740.933 134.439 740.885 134.529 740.928Z" fill="#0F2572"/>
<path d="M137.796 738.423L137.819 738.382L137.86 738.377C137.86 738.377 137.939 738.425 137.796 738.423Z" fill="#0F2572"/>
<path d="M136.451 737.007L136.418 737.088C136.418 737.088 136.297 736.979 136.392 736.982C136.428 736.968 136.57 736.928 136.451 737.007Z" fill="#0F2572"/>
<path d="M135.122 739.693L135.116 739.77C135.116 739.77 134.986 739.688 135.066 739.678C135.066 739.678 135.201 739.604 135.122 739.693Z" fill="#0F2572"/>
<path d="M133.965 741.595C133.944 741.571 133.925 741.545 133.908 741.517C133.908 741.517 134.117 741.474 134.039 741.559C134.027 741.604 133.961 741.764 133.965 741.595Z" fill="#0F2572"/>
<path d="M136.611 740.077C136.542 739.944 136.638 739.916 136.765 739.997C136.917 740.092 136.681 740.211 136.611 740.077Z" fill="#0F2572"/>
<path d="M137.026 740.422C137.159 740.323 137.359 740.407 137.269 740.524C137.161 740.664 136.907 740.51 137.026 740.422Z" fill="#0F2572"/>
<path d="M135.772 741.051C135.905 740.953 136.105 741.037 136.015 741.154C135.907 741.293 135.653 741.139 135.772 741.051Z" fill="#0F2572"/>
<path d="M137.516 740.207C137.388 740.127 137.733 739.949 137.718 740.101C137.7 740.294 137.464 740.423 137.516 740.207Z" fill="#0F2572"/>
<path d="M136.689 740.55C136.742 740.583 136.601 740.655 136.607 740.594C136.614 740.515 136.628 740.512 136.689 740.55Z" fill="#0F2572"/>
<path d="M137.88 740.508C137.777 740.398 138.156 740.317 138.103 740.459C138.035 740.641 138 740.637 137.88 740.508Z" fill="#0F2572"/>
<path d="M137.474 740.561C137.546 740.583 137.495 740.684 137.495 740.684C137.532 740.715 137.463 740.845 137.419 740.762C137.281 740.786 137.396 740.431 137.474 740.561Z" fill="#0F2572"/>
<path d="M137.037 739.595C137.033 739.613 137.021 739.628 137.006 739.638C136.99 739.647 136.971 739.65 136.953 739.645C136.936 739.641 136.92 739.63 136.911 739.614C136.901 739.599 136.898 739.58 136.902 739.562C136.907 739.545 136.918 739.529 136.934 739.52C136.95 739.511 136.968 739.508 136.986 739.512C137.004 739.517 137.019 739.528 137.029 739.543C137.038 739.559 137.041 739.578 137.037 739.595Z" fill="#0F2572"/>
<path d="M140.132 738.485C140.096 738.632 139.992 738.592 139.949 738.446C139.898 738.273 140.168 738.337 140.132 738.485Z" fill="#0F2572"/>
<path d="M137.554 740.552C137.518 740.7 137.428 740.656 137.385 740.511C137.334 740.338 137.59 740.405 137.554 740.552Z" fill="#0F2572"/>
<path d="M138.704 738.476C138.668 738.623 138.577 738.58 138.534 738.435C138.483 738.262 138.74 738.329 138.704 738.476Z" fill="#0F2572"/>
<path d="M137.986 740.564C137.95 740.711 137.859 740.668 137.816 740.523C137.765 740.35 138.022 740.417 137.986 740.564Z" fill="#0F2572"/>
<path d="M139.596 736.377C139.531 736.39 139.511 736.274 139.582 736.301C139.707 736.25 139.69 736.321 139.596 736.377Z" fill="#0F2572"/>
<path d="M139.23 738.676C139.247 738.492 139.456 738.733 139.373 738.793C139.273 738.866 139.133 738.712 139.23 738.676Z" fill="#0F2572"/>
<path d="M136.35 740.259C136.367 740.075 136.576 740.316 136.492 740.376C136.393 740.449 136.253 740.295 136.35 740.259Z" fill="#0F2572"/>
<path d="M139.347 740.304C139.323 740.57 139.022 740.223 139.142 740.136C139.161 739.995 139.486 740.253 139.347 740.304Z" fill="#0F2572"/>
<path d="M138.353 739.473C138.211 739.698 137.904 739.055 138.249 739.229C138.33 739.112 138.5 739.492 138.353 739.473Z" fill="#0F2572"/>
<path d="M138.851 737.637C138.843 737.737 138.729 737.607 138.774 737.574C138.828 737.535 138.904 737.618 138.851 737.637Z" fill="#0F2572"/>
<path d="M136.121 738.707C136.112 738.807 135.998 738.677 136.044 738.644C136.098 738.604 136.174 738.688 136.121 738.707Z" fill="#0F2572"/>
<path d="M140.756 736.698C140.714 736.742 140.634 736.664 140.73 736.609C140.798 736.571 140.805 736.646 140.756 736.698Z" fill="#0F2572"/>
<path d="M139.412 737.435C139.373 737.445 139.335 737.371 139.416 737.376C139.472 737.38 139.459 737.425 139.412 737.435Z" fill="#0F2572"/>
<path d="M136.929 740.315C136.974 740.273 137.006 740.428 136.948 740.406C136.874 740.378 136.876 740.364 136.929 740.315Z" fill="#0F2572"/>
<path d="M137.686 739.044C137.74 739.073 137.603 739.153 137.605 739.091C137.609 739.012 137.623 739.009 137.686 739.044Z" fill="#0F2572"/>
<path d="M135.754 740.491C135.677 740.449 135.873 740.334 135.869 740.423C135.865 740.536 135.845 740.54 135.754 740.491Z" fill="#0F2572"/>
<path d="M136.824 738.606C136.878 738.635 136.741 738.715 136.743 738.653C136.746 738.574 136.76 738.571 136.824 738.606Z" fill="#0F2572"/>
<path d="M138.996 738.317C139.015 738.41 138.822 738.358 138.908 738.287C138.888 738.089 139.093 738.27 138.996 738.317Z" fill="#0F2572"/>
<path d="M139.822 740.307C139.826 740.458 139.393 740.248 139.526 740.176C139.697 740.084 139.816 740.13 139.822 740.307Z" fill="#0F2572"/>
<path d="M137.969 738.53C138.044 738.571 137.854 738.68 137.858 738.595C137.863 738.486 137.883 738.482 137.969 738.53Z" fill="#0F2572"/>
<path d="M138.252 740.166C138.146 740.006 138.377 739.93 138.388 740.119C138.401 740.361 138.376 740.353 138.252 740.166Z" fill="#0F2572"/>
<path d="M136.218 739.637C136.15 739.535 136.297 739.487 136.304 739.607C136.313 739.761 136.297 739.755 136.218 739.637Z" fill="#0F2572"/>
<path d="M139.052 739.783C139.1 739.926 138.715 739.816 138.825 739.712C138.825 739.712 138.829 739.117 139.052 739.783Z" fill="#0F2572"/>
<path d="M136.961 738.978C136.927 738.877 137.193 738.943 137.116 739.016C137.116 739.016 137.117 739.444 136.961 738.978Z" fill="#0F2572"/>
<path d="M140.184 737.496C140.15 737.397 140.415 737.462 140.338 737.534C140.338 737.534 140.234 737.648 140.184 737.496Z" fill="#0F2572"/>
<path d="M141.015 738.723C140.981 738.623 141.246 738.688 141.169 738.761C141.169 738.761 141.065 738.875 141.015 738.723Z" fill="#0F2572"/>
<path d="M140.011 736.822C140.049 736.773 140.13 736.896 140.026 736.905C140.026 736.905 139.831 737.053 140.011 736.822Z" fill="#0F2572"/>
<path d="M140.947 737.13C141.021 737.109 141.011 737.288 140.903 737.221C140.903 737.221 140.606 737.225 140.947 737.13Z" fill="#0F2572"/>
<path d="M138.839 736.696C138.839 736.773 138.71 736.809 138.737 736.685C138.737 736.685 138.837 736.363 138.839 736.696Z" fill="#0F2572"/>
<path d="M139.52 738.134C139.521 738.211 139.392 738.247 139.419 738.123C139.419 738.123 139.519 737.801 139.52 738.134Z" fill="#0F2572"/>
<path d="M141.421 739.487L141.479 739.436C141.537 739.471 141.408 739.559 141.421 739.487Z" fill="#0F2572"/>
<path d="M139.266 737.081L139.298 737.029C139.298 737.029 139.362 736.98 139.351 737.025C139.409 737.06 139.254 737.153 139.266 737.081Z" fill="#0F2572"/>
<path d="M137.708 738.037L137.74 737.985C137.74 737.985 137.803 737.936 137.792 737.981C137.851 738.016 137.695 738.109 137.708 738.037Z" fill="#0F2572"/>
<path d="M139.22 739.093C139.217 739.083 139.217 739.072 139.221 739.063C139.225 739.053 139.233 739.046 139.242 739.042C139.252 739.038 139.263 739.039 139.272 739.043C139.282 739.047 139.289 739.055 139.293 739.064C139.297 739.074 139.296 739.085 139.292 739.094C139.288 739.104 139.281 739.111 139.271 739.115C139.261 739.119 139.251 739.118 139.241 739.114C139.232 739.11 139.224 739.102 139.22 739.093Z" fill="#0F2572"/>
<path d="M138.974 740.097C139.065 740.218 138.68 740.258 138.747 740.122C138.834 739.948 138.868 739.956 138.974 740.097Z" fill="#0F2572"/>
<path d="M140.749 738.354C140.777 738.399 140.61 738.508 140.628 738.434C140.545 738.383 140.767 738.25 140.749 738.354Z" fill="#0F2572"/>
<path d="M138.356 737.181C138.384 737.226 138.218 737.334 138.236 737.261C138.152 737.21 138.375 737.078 138.356 737.181Z" fill="#0F2572"/>
<path d="M137.409 740.054C137.37 739.99 137.475 739.947 137.475 739.947C137.467 739.9 137.605 739.848 137.583 739.94C137.702 740.013 137.383 740.204 137.409 740.054Z" fill="#0F2572"/>
<path d="M139.526 739.619C139.488 739.655 139.348 739.514 139.424 739.517C139.456 739.425 139.631 739.616 139.526 739.619Z" fill="#0F2572"/>
<path d="M137.606 737.29C137.614 737.344 137.41 737.382 137.457 737.318C137.397 737.235 137.665 737.197 137.606 737.29Z" fill="#0F2572"/>
<path d="M137.327 741.041C137.337 741.095 137.256 741.084 137.256 741.084C137.256 741.084 137.14 741.129 137.179 741.072C137.226 741.03 137.075 740.929 137.327 741.041Z" fill="#0F2572"/>
<path d="M138.17 737.746L138.124 737.735L138.108 737.697C138.108 737.697 138.132 737.608 138.17 737.746Z" fill="#0F2572"/>
<path d="M138.433 739.021L138.454 739.038C138.454 739.038 138.459 739.118 138.433 739.021Z" fill="#0F2572"/>
<path d="M140.118 737.966L140.072 737.955L140.042 737.917C140.042 737.917 140.08 737.827 140.118 737.966Z" fill="#0F2572"/>
<path d="M136.965 737.572L136.953 737.618L136.914 737.632C136.914 737.632 136.826 737.607 136.965 737.572Z" fill="#0F2572"/>
<path d="M136.475 741.031L136.428 741.04L136.399 741.012C136.399 741.012 136.383 740.921 136.475 741.031Z" fill="#0F2572"/>
<path d="M140.692 739.348C140.67 739.305 140.65 739.261 140.635 739.216C140.635 739.216 140.917 739.237 140.795 739.323C140.769 739.376 140.642 739.561 140.692 739.348Z" fill="#0F2572"/>
<path d="M141.654 738.653C141.691 738.658 141.727 738.666 141.763 738.677C141.763 738.677 141.62 738.844 141.622 738.729C141.602 738.688 141.544 738.524 141.654 738.653Z" fill="#0F2572"/>
<path d="M141.211 737.871L141.155 737.802C141.155 737.802 141.328 737.77 141.269 737.841C141.269 737.841 141.214 738.007 141.211 737.871Z" fill="#0F2572"/>
<path d="M137.31 738.134L137.373 738.087C137.373 738.087 137.394 738.24 137.335 738.185C137.335 738.185 137.191 738.132 137.31 738.134Z" fill="#0F2572"/>
<path d="M139.968 739.019L139.983 738.943C139.983 738.943 140.102 739.04 140.021 739.041C140.021 739.041 139.879 739.098 139.968 739.019Z" fill="#0F2572"/>
<path d="M138.496 740.852C138.44 740.993 138.357 740.937 138.334 740.787C138.307 740.609 138.552 740.711 138.496 740.852Z" fill="#0F2572"/>
<path d="M140.571 739.002C140.409 738.966 140.341 738.758 140.489 738.75C140.666 738.74 140.715 739.035 140.571 739.002Z" fill="#0F2572"/>
<path d="M138.486 740.311C138.324 740.275 138.256 740.067 138.404 740.059C138.581 740.049 138.63 740.344 138.486 740.311Z" fill="#0F2572"/>
<path d="M140.044 739.705C140.004 739.669 140.114 739.609 140.114 739.697C140.114 739.697 140.227 739.873 140.044 739.705Z" fill="#0F2572"/>
<path d="M139.886 739.805C139.977 739.926 139.592 739.966 139.659 739.83C139.746 739.657 139.78 739.664 139.886 739.805Z" fill="#0F2572"/>
<path d="M140.322 739.837C140.253 739.808 140.314 739.712 140.314 739.712C140.281 739.678 140.363 739.556 140.398 739.644C140.538 739.633 140.387 739.974 140.322 739.837Z" fill="#0F2572"/>
<path d="M139.864 739.327C139.809 739.468 139.725 739.412 139.702 739.263C139.675 739.084 139.92 739.186 139.864 739.327Z" fill="#0F2572"/>
<path d="M138.001 740.079C138.025 740.228 137.668 740.082 137.79 739.995C137.948 739.883 138.198 739.978 138.001 740.079Z" fill="#0F2572"/>
<path d="M138.802 740.483C138.793 740.422 138.939 740.482 138.889 740.518C138.824 740.564 138.813 740.555 138.802 740.483Z" fill="#0F2572"/>
<path d="M137.993 739.606C137.977 739.756 137.669 739.521 137.811 739.468C137.992 739.401 138.012 739.43 137.993 739.606Z" fill="#0F2572"/>
<path d="M138.298 739.88C138.268 739.811 138.377 739.784 138.377 739.784C138.376 739.736 138.532 739.702 138.498 739.79C138.606 739.878 138.252 740.023 138.298 739.88Z" fill="#0F2572"/>
<path d="M138.697 739.056C138.68 739.011 138.667 738.964 138.658 738.917C138.658 738.917 138.935 738.977 138.803 739.046C138.769 739.095 138.618 739.26 138.697 739.056Z" fill="#0F2572"/>
<path d="M138.049 738.643L138.075 738.569C138.075 738.569 138.179 738.682 138.099 738.671C138.099 738.671 137.951 738.709 138.049 738.643Z" fill="#0F2572"/>
<path d="M140.904 735.802C140.827 735.761 140.914 735.629 140.991 735.67C141.068 735.712 140.981 735.844 140.904 735.802Z" fill="#0F2572"/>
<path d="M140.675 737.452C140.788 737.552 140.708 737.612 140.56 737.583C140.385 737.548 140.562 737.353 140.675 737.452Z" fill="#0F2572"/>
<path d="M140.005 738.718C140.118 738.817 140.038 738.877 139.89 738.848C139.715 738.814 139.892 738.618 140.005 738.718Z" fill="#0F2572"/>
<path d="M138.568 736.951C138.548 737.015 138.437 736.978 138.493 736.928C138.506 736.794 138.561 736.842 138.568 736.951Z" fill="#0F2572"/>
<path d="M140.427 738.342C140.271 738.242 140.582 738.168 140.597 738.27C140.615 738.392 140.414 738.445 140.427 738.342Z" fill="#0F2572"/>
<path d="M141.918 738.994C142.142 739.139 141.696 739.245 141.675 739.098C141.558 739.016 141.938 738.847 141.918 738.994Z" fill="#0F2572"/>
<path d="M140.723 739.492C140.856 739.723 140.146 739.698 140.46 739.472C140.394 739.346 140.808 739.37 140.723 739.492Z" fill="#0F2572"/>
<path d="M139.335 738.197C139.419 738.252 139.251 738.292 139.243 738.237C139.233 738.171 139.342 738.142 139.335 738.197Z" fill="#0F2572"/>
<path d="M139.389 736.068C139.409 736.126 139.303 736.161 139.299 736.05C139.296 735.972 139.366 736.001 139.389 736.068Z" fill="#0F2572"/>
<path d="M139.416 737.605C139.406 737.644 139.323 737.643 139.365 737.574C139.395 737.526 139.428 737.559 139.416 737.605Z" fill="#0F2572"/>
<path d="M140.035 739.886C140.086 739.852 140.094 740.01 140.04 739.98C139.971 739.94 139.975 739.926 140.035 739.886Z" fill="#0F2572"/>
<path d="M139.249 740.449C139.3 740.415 139.307 740.573 139.254 740.543C139.185 740.503 139.189 740.489 139.249 740.449Z" fill="#0F2572"/>
<path d="M140.003 738.384C140.093 738.411 139.972 738.555 139.948 738.445C139.764 738.372 140.006 738.277 140.003 738.384Z" fill="#0F2572"/>
<path d="M139.714 739.396C139.785 739.349 139.794 739.568 139.72 739.525C139.626 739.47 139.631 739.451 139.714 739.396Z" fill="#0F2572"/>
<path d="M141.304 739.012C141.453 739.036 141.194 739.33 141.153 739.184C141.153 739.184 140.613 738.901 141.304 739.012Z" fill="#0F2572"/>
<path d="M139.827 736.947C139.723 736.93 139.904 736.726 139.932 736.827C139.932 736.827 139.985 736.972 139.827 736.947Z" fill="#0F2572"/>
<path d="M141.296 736.776C141.193 736.759 141.373 736.555 141.402 736.657C141.402 736.657 141.454 736.801 141.296 736.776Z" fill="#0F2572"/>
<path d="M139.153 736.788C139.127 736.731 139.275 736.716 139.234 736.812C139.234 736.812 139.274 737.055 139.153 736.788Z" fill="#0F2572"/>
<path d="M139.858 736.098C139.874 736.023 140.028 736.115 139.919 736.179C139.919 736.179 139.784 736.445 139.858 736.098Z" fill="#0F2572"/>
<path d="M138.496 737.772C138.564 737.807 138.537 737.938 138.44 737.857C138.44 737.857 138.203 737.62 138.496 737.772Z" fill="#0F2572"/>
<path d="M140.082 737.833C140.15 737.868 140.138 737.998 140.041 737.917C140.041 737.917 139.789 737.681 140.082 737.833Z" fill="#0F2572"/>
<path d="M139.036 737.57L139.005 737.517C139.005 737.517 138.991 737.438 139.026 737.469C139.084 737.433 139.094 737.615 139.036 737.57Z" fill="#0F2572"/>
<path d="M139.157 739.399L139.126 739.347C139.126 739.347 139.112 739.268 139.147 739.298C139.205 739.263 139.215 739.444 139.157 739.399Z" fill="#0F2572"/>
<path d="M140.791 738.545C140.781 738.543 140.772 738.538 140.765 738.53C140.759 738.522 140.756 738.512 140.757 738.502C140.758 738.491 140.763 738.482 140.771 738.476C140.779 738.469 140.789 738.466 140.8 738.467C140.81 738.468 140.819 738.473 140.826 738.481C140.832 738.49 140.835 738.5 140.834 738.51C140.833 738.52 140.828 738.53 140.82 738.536C140.812 738.543 140.801 738.546 140.791 738.545Z" fill="#0F2572"/>
<path d="M141.563 739.229C141.712 739.204 141.568 739.559 141.48 739.436C141.367 739.278 141.389 739.258 141.563 739.229Z" fill="#0F2572"/>
<path d="M140.848 736.842C140.9 736.839 140.919 737.037 140.862 736.986C140.779 737.037 140.765 736.778 140.848 736.842Z" fill="#0F2572"/>
<path d="M138.703 738.426C138.756 738.422 138.775 738.62 138.718 738.57C138.634 738.621 138.62 738.362 138.703 738.426Z" fill="#0F2572"/>
<path d="M141.397 738.517C141.412 738.568 141.222 738.627 141.259 738.561C141.193 738.489 141.443 738.422 141.397 738.517Z" fill="#0F2572"/>
<path d="M138.45 739.144C138.502 739.162 138.441 739.36 138.406 739.289C138.305 739.304 138.396 739.048 138.45 739.144Z" fill="#0F2572"/>
<path d="M139.114 738.854L139.083 738.89L139.042 738.886C139.042 738.886 138.974 738.823 139.114 738.854Z" fill="#0F2572"/>
<path d="M140.362 739.212L140.388 739.201C140.388 739.201 140.46 739.234 140.362 739.212Z" fill="#0F2572"/>
<path d="M140.213 737.224L140.181 737.26L140.14 737.255C140.14 737.255 140.073 737.193 140.213 737.224Z" fill="#0F2572"/>
<path d="M138.403 739.844L138.437 739.876L138.432 739.917C138.432 739.917 138.369 739.984 138.403 739.844Z" fill="#0F2572"/>
<path d="M141.697 737.353C141.65 737.354 141.602 737.35 141.555 737.343C141.555 737.343 141.704 737.104 141.723 737.251C141.758 737.299 141.861 737.496 141.697 737.353Z" fill="#0F2572"/>
<path d="M141.531 736.176C141.553 736.146 141.577 736.117 141.603 736.091C141.603 736.091 141.685 736.295 141.584 736.239C141.538 736.239 141.366 736.213 141.531 736.176Z" fill="#0F2572"/>
<path d="M140.635 736.208L140.548 736.225C140.548 736.225 140.6 736.057 140.635 736.142C140.635 736.142 140.757 736.268 140.635 736.208Z" fill="#0F2572"/>
<path d="M139.052 739.782L139.046 739.722C139.046 739.722 139.191 739.773 139.115 739.801C139.115 739.801 138.996 739.887 139.052 739.782Z" fill="#0F2572"/>
<path d="M141.072 737.846L141.012 737.797C141.012 737.797 141.153 737.737 141.116 737.809C141.116 737.809 141.101 737.961 141.072 737.846Z" fill="#0F2572"/>
<path d="M141.335 737.302C141.228 737.428 141.014 737.391 141.075 737.257C141.148 737.097 141.43 737.189 141.335 737.302Z" fill="#0F2572"/>
<path d="M141.728 738.284C141.877 738.259 141.733 738.621 141.645 738.497C141.532 738.34 141.554 738.313 141.728 738.284Z" fill="#0F2572"/>
<path d="M141.295 738.081C141.392 738.195 141.305 738.243 141.163 738.194C140.994 738.136 141.197 737.966 141.295 738.081Z" fill="#0F2572"/>
<path d="M140.674 739.874C140.799 739.959 140.448 740.123 140.468 739.973C140.493 739.78 140.528 739.776 140.674 739.874Z" fill="#0F2572"/>
<path d="M141.058 739.73C140.983 739.725 141.009 739.615 141.009 739.615C140.967 739.593 141.005 739.451 141.066 739.522C141.195 739.467 141.164 739.839 141.058 739.73Z" fill="#0F2572"/>
<path d="M140.514 738.993C140.467 738.987 140.42 738.977 140.374 738.963C140.374 738.963 140.555 738.745 140.555 738.895C140.582 738.947 140.658 739.158 140.514 738.993Z" fill="#0F2572"/>
<path d="M139.85 739.377L139.797 739.32C139.797 739.32 139.945 739.28 139.898 739.346C139.898 739.346 139.862 739.495 139.85 739.377Z" fill="#0F2572"/>
</g>
<path d="M125.346 737.332C123.885 738.939 122.11 740.227 120.132 741.116C117.026 736.99 109.885 727.383 110.934 722.663L118.953 722.918C120.818 724.173 125.201 736.961 125.346 737.332Z" fill="#0584DB"/>
<path d="M119.967 741.24C116.898 737.162 109.647 727.456 110.733 722.617C110.743 722.57 110.769 722.528 110.807 722.498C110.845 722.468 110.893 722.453 110.941 722.455L118.96 722.712C119.604 722.742 121.427 726.499 122.78 729.855C124.187 733.146 125.211 736.413 125.539 737.258C125.715 737.76 120.46 741.885 119.967 741.24ZM111.102 722.874C110.266 727.485 117.181 736.855 120.204 740.865C122.053 739.998 123.717 738.783 125.108 737.284C124.566 735.83 120.859 724.986 118.871 723.124L111.102 722.874Z" fill="#0F2572"/>
<path d="M124.365 758.912C123.258 759.491 121.979 759.647 120.766 759.351C120.702 759.834 119.299 760.876 118.844 761.055C117.834 761.345 116.858 761.744 115.935 762.246C115.623 762.601 115.9 763.874 117.283 763.975C118.516 764.085 119.754 763.853 120.865 763.305C121.116 763.175 121.392 763.101 121.674 763.085C121.956 763.069 122.239 763.113 122.503 763.214C122.794 763.282 123.097 763.278 123.387 763.204C123.676 763.129 123.944 762.986 124.167 762.787C124.39 762.587 124.563 762.336 124.67 762.056C124.776 761.776 124.815 761.474 124.781 761.176C124.779 761.148 124.811 761.267 124.449 758.912L124.365 758.912Z" fill="#0F2572"/>
<path d="M118.309 764.14C117.232 764.196 116.185 764.122 115.774 763.131C115.3 761.977 116.32 761.78 117.881 761.239C118.869 760.991 119.757 760.443 120.424 759.671C120.527 759.585 120.597 759.465 120.619 759.331C120.621 759.31 120.629 759.289 120.64 759.27C120.652 759.252 120.667 759.236 120.685 759.224C120.704 759.212 120.724 759.204 120.746 759.202C120.767 759.199 120.789 759.201 120.81 759.207C122.04 759.453 123.315 759.296 124.45 758.761C124.486 758.761 124.521 758.774 124.549 758.797C124.576 758.821 124.594 758.853 124.6 758.889C124.935 761.089 124.934 761.143 124.933 761.178C124.966 761.498 124.923 761.821 124.807 762.121C124.691 762.421 124.506 762.689 124.266 762.903C124.027 763.116 123.74 763.27 123.429 763.35C123.119 763.43 122.794 763.434 122.482 763.363C121.679 763.243 121.934 763.128 121.085 763.394C120.208 763.799 119.269 764.051 118.309 764.14ZM120.875 759.537C120.357 760.24 119.68 760.808 118.899 761.194C117.915 761.487 116.961 761.872 116.049 762.345C115.754 762.681 116.156 763.741 117.294 763.825C118.505 763.926 119.722 763.697 120.816 763.164C121.079 763.031 121.366 762.953 121.66 762.936C121.954 762.919 122.248 762.964 122.525 763.066C122.794 763.131 123.075 763.13 123.343 763.062C123.612 762.995 123.86 762.863 124.067 762.679C124.274 762.494 124.434 762.262 124.532 762.002C124.63 761.742 124.665 761.462 124.632 761.186C124.633 761.126 124.59 760.796 124.328 759.097C123.258 759.625 122.043 759.78 120.875 759.537Z" fill="#0F2572"/>
<path d="M123.077 742.092L123.04 742.094C122.693 743.123 122.521 744.204 122.531 745.29C124.554 749.515 124.309 750.478 124.447 758.921C123.3 759.485 121.993 759.634 120.749 759.343C120.858 755.677 117.366 746.43 117.366 746.43C116.611 745.275 117.316 739.391 118.081 724.209C120.575 724.377 118.719 724.268 127.318 724.741C129.394 729.731 125.438 733.949 123.077 742.092Z" fill="#FFC9D4"/>
<path d="M120.718 759.491C120.683 759.483 120.652 759.464 120.63 759.436C120.608 759.409 120.596 759.374 120.596 759.339C120.705 755.744 117.259 746.576 117.225 746.484C116.418 745.263 117.452 734.259 117.93 724.203C117.942 724.106 117.995 724.073 118.091 724.06C120.583 724.228 118.729 724.118 127.324 724.592C127.352 724.592 127.379 724.602 127.402 724.618C127.425 724.634 127.443 724.656 127.454 724.682C129.654 729.581 125.563 734.051 123.222 742.135C122.839 743.128 122.653 744.186 122.677 745.251C123.512 746.946 124.089 748.757 124.39 750.624C124.495 752.636 124.594 758.857 124.597 758.919C124.597 758.949 124.589 758.978 124.572 759.003C124.556 759.028 124.532 759.047 124.505 759.059C123.33 759.636 121.992 759.789 120.718 759.491ZM120.898 759.219C122.043 759.466 123.236 759.327 124.294 758.825C124.164 750.796 124.417 749.543 122.396 745.354C121.647 742.667 127.735 731.439 127.792 728.063C127.784 726.979 127.588 725.904 127.215 724.886C118.866 724.426 120.531 724.525 118.221 724.37C117.682 735.395 116.759 745.235 117.489 746.348C117.646 746.751 120.926 755.489 120.898 759.219Z" fill="#0F2572"/>
<path d="M123.077 742.092L123.039 742.094C122.178 742.712 121.151 743.055 120.093 743.077C119.034 743.099 117.994 742.8 117.107 742.219C117.477 733.188 117.701 731.753 118.081 724.209C120.574 724.377 118.719 724.268 127.317 724.741C129.393 729.731 125.437 733.949 123.077 742.092Z" fill="#0584DB"/>
<path d="M120.449 743.274C119.242 743.316 118.049 743.012 117.007 742.399C116.62 742.178 117.083 740.05 117.875 724.199C117.876 724.171 117.883 724.144 117.895 724.12C117.907 724.095 117.923 724.072 117.944 724.054C117.964 724.036 117.988 724.022 118.015 724.013C118.041 724.004 118.068 724.001 118.096 724.003C120.588 724.171 118.734 724.061 127.329 724.534C127.368 724.537 127.405 724.55 127.437 724.572C127.468 724.595 127.493 724.625 127.508 724.661C129.662 730.166 125.769 733.548 123.275 742.151C122.492 742.845 121.492 743.242 120.449 743.274ZM117.319 742.098C118.161 742.631 119.142 742.9 120.138 742.871C121.133 742.843 122.097 742.517 122.907 741.936C125.647 732.706 129.102 730.141 127.174 724.94L118.276 724.43C117.866 732.574 117.762 731.794 117.319 742.098Z" fill="#0F2572"/>
<path d="M108.885 698.555C106.839 701.285 104.076 703.388 100.904 704.628C90.9589 708.106 89.7872 705.52 87.4201 706.173C86.1647 706.519 84.1626 707.21 84.2561 707.836C84.4258 708.97 87.8103 707.994 88.6698 708.73C89.2592 709.234 87.3079 708.74 87.9191 709.654C88.2849 710.2 89.9331 709.797 91.7477 709.17C100.438 709.364 102.905 709.066 106.661 707.762C108.987 707.035 111.16 705.886 113.072 704.371C117.865 700.061 113.493 692.961 108.885 698.555Z" fill="#FFC9D4"/>
<path d="M87.794 709.738C87.7299 709.666 87.6858 709.578 87.666 709.483C87.6462 709.389 87.6514 709.291 87.6811 709.199C87.8123 708.904 88.2595 708.903 88.5728 708.844C87.7628 708.157 84.3027 709.177 84.1057 707.858C83.9954 707.083 86.1093 706.378 87.3794 706.028C89.8545 705.367 90.9401 707.949 100.857 704.487C103.969 703.278 106.684 701.222 108.698 698.551C113.122 692.653 118.338 699.833 113.175 704.484C110.177 706.709 106.719 708.229 103.057 708.932C99.3078 709.32 95.5363 709.449 91.7691 709.32C90.8128 709.651 88.3149 710.523 87.794 709.738ZM88.0865 706.215C87.4244 706.25 84.3126 707.209 84.4044 707.813C84.5332 708.682 87.9421 707.909 88.7666 708.616C89.0239 708.841 89.0342 709.087 88.4393 709.168C87.9541 709.236 87.8419 709.273 88.042 709.57C88.2212 709.839 88.9839 709.964 91.6987 709.029C91.7056 709.023 91.714 709.019 91.7231 709.018C91.7321 709.016 91.7414 709.017 91.7498 709.021C99.3976 709.117 102.144 709.171 106.615 707.621C110.945 706.115 116.034 703.406 114.863 698.935C114.205 696.409 111.678 695.504 108.935 698.734C106.887 701.453 104.122 703.544 100.953 704.77C91.8914 707.942 90.068 706.111 88.0865 706.215Z" fill="#0F2572"/>
<path d="M113.072 704.371C111.16 705.886 108.987 707.035 106.661 707.761C106.258 705.976 105.527 704.281 104.507 702.763C106.178 701.6 107.656 700.18 108.886 698.555C113.493 692.961 117.865 700.061 113.072 704.371Z" fill="#E04646"/>
<path d="M106.673 707.97C106.636 707.972 106.598 707.963 106.566 707.944C106.54 707.93 106.518 707.912 106.5 707.889C106.483 707.866 106.47 707.839 106.463 707.811C105.252 702.921 103.841 702.97 104.388 702.592C106.038 701.441 107.499 700.039 108.718 698.436C113.542 692.57 118.214 700.023 113.21 704.526C111.281 706.063 109.084 707.227 106.731 707.957C106.713 707.964 106.693 707.968 106.673 707.97ZM104.799 702.811C105.728 704.245 106.407 705.828 106.806 707.491C109.032 706.784 111.11 705.675 112.937 704.216C117.493 700.118 113.477 693.313 109.043 698.687C107.844 700.269 106.413 701.659 104.799 702.811Z" fill="#0F2572"/>
<path d="M127.938 728.079C126.519 729.892 116.587 731.385 112.172 728.708C111.154 726.866 110.725 724.755 110.942 722.66L127.307 724.759C127.721 725.816 127.935 726.942 127.938 728.079Z" fill="#0F2572"/>
<path d="M128.532 703.505C128.334 704.493 128.07 705.467 127.74 706.419C125.475 713.802 125.919 715.311 127.795 723.485C127.796 723.492 127.796 723.492 127.804 723.499C127.97 724.243 128.132 724.918 128.258 725.46C128.361 725.882 128.321 726.325 128.145 726.721C127.969 727.116 127.667 727.442 127.287 727.647C123.327 729.721 115.288 729.91 111.926 727.721C109.638 726.218 110.315 722.565 110.686 719.192C111.68 710.154 108.91 708.759 109.118 702.988C109.204 700.638 110.709 696.468 111.974 696.318C113.065 696.197 114.169 696.24 115.247 696.446C116.979 697.761 120.133 697.625 122.109 696.866C124.027 697.451 127.56 699.303 128.345 700.801C128.46 701.698 128.522 702.601 128.532 703.505Z" fill="#FC645D"/>
<path d="M111.814 727.895C109.628 726.46 110.006 723.231 110.375 720.107C111.599 709.058 108.674 709.522 108.912 702.981C108.999 700.58 110.533 696.281 111.948 696.114C112.694 696.001 113.452 696 114.198 696.113C114.291 696.126 115.321 696.243 115.37 696.281C116.382 696.841 117.506 697.167 118.66 697.235C119.813 697.303 120.968 697.111 122.038 696.674C122.433 696.49 127.546 698.825 128.529 700.704C128.54 700.724 128.547 700.745 128.551 700.767C128.665 701.674 128.728 702.587 128.738 703.5C128.533 704.527 128.261 705.539 127.924 706.53C125.728 713.664 126.092 715.148 127.99 723.413C127.997 723.426 128.003 723.44 128.007 723.454C128.156 724.129 128.153 724.091 128.458 725.414C128.574 725.88 128.53 726.372 128.335 726.81C128.14 727.248 127.804 727.608 127.381 727.833C123.451 729.89 115.334 730.188 111.814 727.895ZM111.999 696.524C110.919 696.653 109.41 700.647 109.324 702.996C109.115 708.85 111.899 710.03 110.893 719.214C110.573 722.054 109.802 726.078 112.038 727.548C115.296 729.664 123.227 729.526 127.193 727.465C127.534 727.282 127.805 726.99 127.962 726.636C128.119 726.281 128.153 725.884 128.059 725.507C127.957 725.073 127.76 724.24 127.609 723.569C127.598 723.546 127.591 723.522 127.59 723.496C125.756 715.532 125.237 713.871 127.529 706.407C127.772 705.634 128.115 704.489 128.328 703.671C128.309 703.294 128.295 701.924 128.149 700.866C127.391 699.503 124.111 697.703 122.118 697.086C120.998 697.527 119.796 697.716 118.595 697.64C117.395 697.565 116.225 697.226 115.169 696.648C114.125 696.446 113.056 696.404 111.999 696.524Z" fill="#0F2572"/>
<path d="M127.796 723.485C125.38 718.194 124.657 714.249 125.304 706.668L127.741 706.419C125.476 713.802 125.919 715.311 127.796 723.485Z" fill="#0F2572"/>
<path d="M123.206 697.259C120.655 699.879 113.819 699.949 113.99 696.297C114.351 696.342 114.727 696.402 115.246 696.449C116.981 697.764 120.13 697.624 122.105 696.866C122.467 696.977 122.837 697.107 123.206 697.259Z" fill="#0584DB"/>
<path d="M118.415 699.344C113.844 699.585 113.289 696.022 114.016 696.091C114.072 696.098 115.325 696.25 115.37 696.285C116.382 696.843 117.505 697.167 118.658 697.235C119.811 697.302 120.964 697.11 122.033 696.673C122.465 696.752 122.884 696.884 123.283 697.066C124.011 697.364 121.319 699.191 118.415 699.344ZM114.201 696.532C114.434 699.707 120.352 699.5 122.828 697.332C122.596 697.244 122.356 697.161 122.114 697.086C120.996 697.531 119.793 697.724 118.593 697.649C117.392 697.573 116.223 697.233 115.168 696.651C114.837 696.619 114.365 696.559 114.201 696.532Z" fill="#0F2572"/>
<path d="M147.147 697.892C146.173 697.39 145.035 700.58 143.983 700.84C143.262 701.017 144.737 699.769 143.687 699.735C142.837 699.708 142.11 702.482 141.857 703.131C139.352 705.473 136.641 707.58 133.755 709.428C130.957 707.03 129.927 702.392 128.731 701.315C125.325 698.238 121.569 702.253 124.971 706.795C126.992 709.491 128.587 712.273 133.079 713.955C133.356 714.07 133.654 714.127 133.954 714.124C134.253 714.121 134.55 714.058 134.825 713.938C138.3 712.539 143.185 705.212 143.967 704.371C143.937 704.344 143.911 704.325 143.882 704.299C144.654 703.469 145.555 702.77 146.55 702.23C147.972 701.243 148.12 698.395 147.147 697.892Z" fill="#FFC9D4"/>
<path d="M134.054 714.269C132.461 714.353 129.399 712.366 127.608 710.468C126.623 709.327 125.703 708.131 124.851 706.887C121.326 702.18 125.302 698.013 128.83 701.204C130.014 702.274 131.096 706.881 133.773 709.249C136.622 707.423 139.293 705.332 141.752 703.003C141.76 702.988 141.766 702.972 141.772 702.956C142.478 700.609 143.051 699.564 143.691 699.587C144.186 699.601 144.398 699.854 144.031 700.551C144.011 700.593 143.981 700.646 143.962 700.691C144.947 700.423 146.064 697.174 147.214 697.758C148.266 698.305 148.172 701.285 146.633 702.353C145.697 702.871 144.84 703.52 144.087 704.282C144.109 704.31 144.119 704.345 144.117 704.38C144.115 704.416 144.1 704.449 144.075 704.474C143.405 705.2 137.381 714.093 134.054 714.269ZM125.091 706.705C127.109 709.399 128.641 712.135 133.131 713.815C136.416 715.055 142.361 706.026 143.755 704.384C143.46 703.945 146.103 702.356 146.466 702.106C147.85 701.142 147.904 698.445 147.074 698.027C146.333 697.594 145.077 700.727 144.021 700.986C143.661 701.051 143.503 700.919 143.767 700.41C143.983 700.001 144.018 699.898 143.684 699.886C143.043 699.92 142.377 701.985 142.059 703.042C142.052 703.076 142.002 703.17 142 703.182C141.988 703.218 141.468 703.672 141.44 703.698C140.878 704.198 134.225 710.037 133.656 709.543C132.065 707.947 130.829 706.03 130.032 703.918C129.69 703.023 129.217 702.184 128.628 701.428C125.378 698.485 121.78 702.292 125.091 706.705Z" fill="#0F2572"/>
<path d="M122.109 696.866C120.618 697.419 119.047 697.72 117.458 697.758C115.564 697.625 115.247 696.446 115.247 696.446C115.529 695.975 115.712 695.451 115.784 694.907C115.856 694.363 115.815 693.809 115.666 693.281C113.338 685.742 116.089 684.769 117.485 683.259C118.875 681.758 122.752 683.982 121.629 688.289C120.982 691.136 121.148 694.109 122.109 696.866Z" fill="#FFC9D4"/>
<path d="M115.102 696.485C115.044 696.263 115.387 696.364 115.57 695.401C115.664 694.706 115.648 694 115.523 693.311C113.485 686.722 115.297 685.075 116.754 683.753C116.978 683.55 117.189 683.358 117.376 683.157C118.794 681.619 122.861 683.56 121.737 688.475C121.157 691.25 121.335 694.131 122.25 696.813C122.264 696.851 122.262 696.892 122.246 696.928C122.229 696.965 122.199 696.993 122.161 697.007C119.941 697.814 115.697 698.764 115.102 696.485ZM115.417 696.481C116.221 698.389 119.981 697.443 121.918 696.775C120.992 694.027 120.842 691.075 121.486 688.247C122.557 684.134 118.882 681.956 117.593 683.363C115.837 685.251 113.603 686.088 115.812 693.236C116.11 694.328 115.968 695.493 115.417 696.481Z" fill="#FFC9D4"/>
<path d="M121.205 687.73C120.576 690.912 118.583 695.346 115.718 695.429C115.817 694.715 115.799 693.99 115.666 693.281C113.338 685.742 116.089 684.77 117.485 683.26C118.809 681.829 122.294 682.991 121.205 687.73Z" fill="#0F2572"/>
<path d="M122.752 683.983C122.961 684.661 120.121 691.334 117.63 692.967C115.283 694.505 114.083 694.468 112.999 693.956C109.801 692.445 110.369 681.401 114.802 680.488C117.142 680.006 121.327 679.366 122.752 683.983Z" fill="#FFC9D4"/>
<path d="M114.49 694.421C109.082 694.706 109.995 681.326 114.773 680.34C116.749 679.939 121.364 678.992 122.897 683.938C123.452 683.909 120.328 691.379 117.71 693.094C116.77 693.81 115.66 694.267 114.49 694.421ZM114.833 680.635C110.546 681.516 109.993 692.368 113.06 693.82C114.107 694.31 115.275 694.331 117.546 692.841C120.048 691.202 122.785 684.599 122.608 684.027C121.477 680.362 118.602 679.853 114.833 680.635Z" fill="#0F2572"/>
<path d="M140.983 692.232C141.021 691.323 139.968 691.019 139.571 690.713C138.805 690.121 139.044 688.8 138.618 688.333C138.398 688.151 138.135 688.028 137.855 687.975C137.424 687.826 137.036 687.573 136.727 687.237C136.418 686.902 136.197 686.494 136.083 686.051C136.029 682.809 135.172 683.24 133.629 681.787C133.08 681.27 133.048 679.903 132.107 679.324C131.759 679.109 131.313 679.252 130.905 679.217C129.546 679.097 129.286 677.317 128.518 676.45C127.008 674.742 125.273 676.297 124.023 676.061C123.025 675.601 121.93 675.391 120.833 675.45C120.21 675.461 119.592 675.559 118.997 675.743C118.163 676.027 117.422 676.535 116.854 677.212C116.287 677.889 115.916 678.709 115.78 679.583C115.894 680.442 116.341 681.221 117.024 681.751C117.725 682.338 118.223 683.132 118.447 684.02C119.295 686.334 123.032 686.714 123.45 688.234C123.643 688.936 123.066 690.054 123.808 690.905C124.238 691.177 124.579 691.57 124.788 692.035C124.997 692.5 125.066 693.017 124.985 693.521C124.909 695.112 125.827 697.304 127.803 697.174C127.899 697.186 127.991 697.224 128.086 697.23C128.439 697.214 128.789 697.295 129.1 697.464C129.615 697.829 129.646 698.663 131.929 698.123C132.565 697.974 132.555 698.142 132.96 698.338C133.195 698.421 133.447 698.444 133.693 698.405C133.939 698.366 134.171 698.267 134.37 698.115C136.178 696.97 135.296 697.182 137.816 697.106C138.187 697.136 138.558 697.062 138.888 696.892C139.218 696.721 139.495 696.462 139.686 696.143C139.912 695.596 139.365 694.489 140.13 693.761C140.601 693.314 141.07 692.772 140.983 692.232Z" fill="#0F2572"/>
<path d="M123.105 683.21C125.324 677.944 117.165 675.319 115.301 679.577L123.105 683.21Z" fill="#0584DB"/>
<path d="M123.116 683.418C123.083 683.419 123.05 683.413 123.019 683.399L115.217 679.766C115.167 679.743 115.129 679.701 115.11 679.65C115.091 679.599 115.092 679.543 115.114 679.493C117.07 675.077 125.596 677.672 123.296 683.29C123.285 683.316 123.269 683.34 123.249 683.359C123.228 683.379 123.204 683.394 123.177 683.404C123.158 683.412 123.137 683.417 123.116 683.418ZM115.583 679.479L122.987 682.927C124.628 677.862 117.575 675.948 115.583 679.479Z" fill="#0F2572"/>
<path d="M113.154 683.588C114.33 683.124 114.346 681.779 116.67 682.684C116.933 682.787 117.632 683.457 117.895 683.56C118.4 683.756 119.357 683.493 119.914 683.989C120.561 684.566 119.842 685.818 120.436 686.451C120.625 686.653 120.914 686.74 121.1 686.945C121.46 687.341 121.296 687.96 121.286 688.496C121.277 689.032 121.745 689.704 122.21 689.438C122.597 689.215 122.464 688.641 122.454 688.192C122.541 687.442 122.837 686.731 123.308 686.141C124.336 684.443 123.567 683.903 123.154 683.322C121.983 681.671 123.298 679.508 119.208 679.479C117.924 679.47 116.563 678.411 115.48 679.103C115.18 679.353 114.893 679.619 114.621 679.899C114.124 680.294 113.219 680.273 112.682 680.61C112.359 680.811 112.216 681.446 111.949 681.988C111.808 682.276 111.274 682.289 111.317 682.694C111.345 682.894 111.422 683.084 111.541 683.248C111.66 683.412 111.817 683.543 111.999 683.632C112.18 683.72 112.38 683.762 112.582 683.755C112.784 683.747 112.98 683.69 113.154 683.588Z" fill="#0F2572"/>
<path d="M131.592 706.692C130.669 706.879 129.816 707.323 129.131 707.972C128.446 708.621 127.957 709.45 127.717 710.364C126.677 709.221 125.701 708.019 124.795 706.766C121.392 702.223 125.457 698.14 128.863 701.217C129.622 701.9 130.283 704.396 131.592 706.692Z" fill="#E04646"/>
<path d="M127.728 710.572C126.589 709.439 125.552 708.208 124.628 706.891C121.059 702.116 125.435 697.839 129.003 701.062C129.816 701.8 130.448 704.27 131.77 706.59C131.786 706.618 131.796 706.65 131.798 706.683C131.8 706.716 131.793 706.749 131.78 706.779C131.766 706.809 131.746 706.835 131.72 706.855C131.694 706.876 131.664 706.89 131.632 706.896C128.194 707.59 128.228 710.546 127.728 710.572ZM124.96 706.642C125.852 707.831 126.731 708.982 127.638 709.975C127.908 709.143 128.383 708.393 129.019 707.795C129.655 707.197 130.432 706.77 131.276 706.553C130.53 704.777 129.678 703.046 128.725 701.372C125.508 698.459 121.716 702.313 124.96 706.642Z" fill="#0F2572"/>
</g>
<defs>
<filter id="filter0_d_1088_11392" x="-248.521" y="651.447" width="749.678" height="145.368" filterUnits="userSpaceOnUse" color-interpolation-filters="sRGB">
<feFlood flood-opacity="0" result="BackgroundImageFix"/>
<feColorMatrix in="SourceAlpha" type="matrix" values="0 0 0 0 0 0 0 0 0 0 0 0 0 0 0 0 0 0 127 0" result="hardAlpha"/>
<feOffset dy="-8"/>
<feGaussianBlur stdDeviation="2"/>
<feComposite in2="hardAlpha" operator="out"/>
<feColorMatrix type="matrix" values="0 0 0 0 0 0 0 0 0 0 0 0 0 0 0 0 0 0 0.25 0"/>
<feBlend mode="normal" in2="BackgroundImageFix" result="effect1_dropShadow_1088_11392"/>
<feBlend mode="normal" in="SourceGraphic" in2="effect1_dropShadow_1088_11392" result="shape"/>
</filter>
<clipPath id="clip0_1088_11392">
<rect width="480" height="795" fill="white" transform="translate(0 0.416992)"/>
</clipPath>
</defs>
</svg>
