<svg width="136" height="163" viewBox="0 0 136 163" fill="none" xmlns="http://www.w3.org/2000/svg">
<path d="M103.836 24.7448C100.159 33.8557 89.7993 38.2743 80.6644 34.6434C71.5518 30.9661 67.1125 20.6065 70.7899 11.4716C74.4431 2.33667 84.8027 -2.10266 93.9376 1.5747C103.05 5.25035 107.489 15.6116 103.836 24.7448Z" fill="white"/>
<path d="M57.0541 102.007L47.3877 116.391L36.5414 121.572C33.1874 123.168 30.6676 125.965 29.443 129.457C28.1943 132.928 28.4024 136.696 29.9968 140.026C30.2049 140.466 30.4595 140.858 30.6917 141.276L19.823 157.487C17.673 160.702 13.9492 162.436 10.0861 162.02C8.42115 161.836 6.82499 161.258 5.41459 160.332C0.67427 157.119 -0.59853 150.666 2.59379 145.926L41.4675 87.9736L41.4916 87.9977L41.5604 88.0665L57.0541 102.007Z" fill="white"/>
<path d="M36.5876 74.4667C37.3513 78.9989 34.2983 83.2542 29.7884 84.0178C29.3258 84.0866 28.8631 84.1331 28.4004 84.1331C28.354 84.1331 28.3075 84.109 28.2387 84.109C28.0306 84.109 27.8448 84.0849 27.6367 84.0626C27.3134 84.0178 27.0124 83.9938 26.7114 83.925C26.5032 83.8785 26.2951 83.8321 26.087 83.7616C25.8101 83.6687 25.5091 83.5775 25.2305 83.4623C25.0464 83.3918 24.8607 83.3006 24.6525 83.1836C24.398 83.0684 24.1434 82.9067 23.8889 82.7451C23.7272 82.6298 23.5414 82.5146 23.3797 82.3976C23.1493 82.2136 22.9171 82.0037 22.7089 81.7956C22.5473 81.6563 22.4079 81.5187 22.2703 81.357C22.0622 81.1265 21.8765 80.872 21.6924 80.6174C21.5772 80.4557 21.4619 80.3164 21.345 80.1324C21.1609 79.8314 21.0216 79.5304 20.8823 79.207C20.8118 79.0453 20.7206 78.906 20.6501 78.7443C20.4884 78.2576 20.3267 77.7261 20.2339 77.1946L15.2613 37.1186C15.2613 37.0481 15.2613 37.0034 15.2613 36.9569C15.2149 36.6559 15.2149 36.3549 15.1925 36.0557C15.1925 35.7787 15.1685 35.5242 15.1685 35.2473C15.1925 35.2008 15.1685 35.132 15.1685 35.0856C15.1925 34.8775 15.2613 34.6693 15.2837 34.4612C15.3301 34.1843 15.3766 33.9074 15.4454 33.6287C15.5142 33.3518 15.6294 33.0973 15.7223 32.8427C15.8152 32.5881 15.884 32.3577 16.0009 32.1495C16.1162 31.8709 16.2779 31.6163 16.4395 31.3635C16.5789 31.1777 16.6941 30.9696 16.8334 30.7856C16.9951 30.5551 17.2032 30.347 17.4113 30.1148C17.573 29.9531 17.7347 29.7673 17.8964 29.6057C18.1286 29.4216 18.3591 29.2359 18.5913 29.0742C18.7753 28.9349 18.9611 28.7955 19.1915 28.6579C19.4461 28.4963 19.7247 28.381 20.0017 28.2417C20.2098 28.1488 20.4179 28.0577 20.626 27.9871C20.9494 27.8478 21.2727 27.779 21.5961 27.7102C21.7578 27.6638 21.8971 27.6173 22.0811 27.5709C22.1276 27.5709 22.174 27.5709 22.2205 27.5709C22.5215 27.5245 22.8448 27.5245 23.1458 27.5004C23.3539 27.5004 23.562 27.478 23.7702 27.478C23.8166 27.478 23.863 27.5004 23.9318 27.5004C23.9559 27.5004 24.0024 27.5004 24.0247 27.5004C24.0488 27.5004 24.0488 27.5004 24.0712 27.5004C24.0953 27.5004 24.0952 27.5004 24.1176 27.5004C24.1176 27.5004 60.0553 29.5128 62.7144 30.3453C64.4258 30.8767 92.1074 44.2205 93.1257 50.6963L101.057 71.6012L122.452 55.1563C122.892 54.8553 123.331 54.6007 123.793 54.3926C123.931 54.3221 124.07 54.2773 124.208 54.2309C124.531 54.0916 124.88 53.9763 125.202 53.8835C125.365 53.837 125.525 53.8129 125.687 53.7682C126.034 53.6994 126.404 53.653 126.752 53.6289C126.889 53.6289 127.029 53.6065 127.146 53.6065C127.214 53.6065 127.238 53.6065 127.307 53.6065C127.447 53.6065 127.562 53.6289 127.701 53.653C128.117 53.653 128.534 53.6994 128.952 53.7923C129.16 53.8387 129.368 53.8852 129.574 53.954C129.946 54.0469 130.315 54.1845 130.685 54.3479C130.869 54.4407 131.079 54.5319 131.263 54.6248C131.635 54.8329 131.958 55.0634 132.304 55.3179C132.443 55.4332 132.605 55.5261 132.766 55.6654C133.231 56.0593 133.647 56.5219 134.039 57.0293C136.698 60.7531 135.866 65.9321 132.142 68.6153L101.963 90.8376C101.917 90.8841 101.87 90.8841 101.824 90.9305C101.593 91.0939 101.315 91.2315 101.062 91.3708C100.807 91.5102 100.577 91.6478 100.345 91.7406C100.276 91.7647 100.229 91.8112 100.183 91.8335C99.9747 91.9041 99.7889 91.9264 99.5808 91.9969C99.3263 92.0898 99.0476 92.181 98.7707 92.2274C98.4938 92.2979 98.2152 92.2979 97.9382 92.3426C97.6854 92.3667 97.4291 92.3891 97.1986 92.3891C96.8976 92.3891 96.5966 92.365 96.2974 92.3426C96.0652 92.3186 95.833 92.2979 95.6042 92.2498C95.3032 92.2051 95.0246 92.1122 94.7476 92.0176C94.5172 91.9488 94.285 91.9041 94.0768 91.8112C93.7999 91.6959 93.5436 91.5566 93.2908 91.4397C93.0827 91.3244 92.8505 91.2092 92.6424 91.0699C92.3895 90.9082 92.1573 90.7224 91.9268 90.5366C91.7411 90.399 91.5553 90.2597 91.3936 90.098C91.1614 89.8658 90.931 89.5889 90.7228 89.3344C90.63 89.2208 90.4906 89.1039 90.3995 88.9646C90.3754 88.9198 90.353 88.8717 90.3307 88.827C90.1466 88.5948 90.0073 88.3178 89.8663 88.0392C89.7287 87.8087 89.6134 87.5765 89.4965 87.3461C89.4724 87.2773 89.45 87.2325 89.4277 87.1844L82.5356 71.5977C82.5356 71.5977 76.569 82.3976 74.8129 85.4282L95.2774 103.882C97.3345 105.733 98.5609 108.299 98.7002 111.051C98.769 112.578 98.4921 114.082 97.9365 115.446C97.8918 115.585 97.8918 115.7 97.8436 115.815C96.9183 118.43 95.0211 120.533 92.5254 121.713L46.9454 143.452C45.535 144.123 44.0318 144.447 42.482 144.447C38.5037 144.447 34.8263 142.133 33.1166 138.549C33.0238 138.365 33.0014 138.155 32.9085 137.971C31.9608 135.613 31.8438 133.022 32.7004 130.618C33.6258 128.003 35.5212 125.9 38.0186 124.72L43.5914 122.061L70.3254 109.319L58.994 99.1194L43.8924 85.4988C43.7308 85.3371 43.6155 85.1754 43.4762 85.0137C37.2085 78.0288 41.8336 66.3741 43.06 63.3452L49.9279 46.2329L32.9068 44.8449L36.5876 74.4667Z" fill="white"/>
</svg>
