<svg width="58" height="70" viewBox="0 0 58 70" fill="none" xmlns="http://www.w3.org/2000/svg">
<path fill-rule="evenodd" clip-rule="evenodd" d="M41.4496 0.153953C41.4496 0.255099 41.5163 0.296259 41.5978 0.245207C41.6793 0.194315 41.9807 0.297376 42.2677 0.474461C42.5546 0.651546 42.7362 0.796724 42.6712 0.797043C42.6063 0.797362 42.6949 0.941264 42.8682 1.11675C43.0416 1.29224 43.1835 1.55676 43.1835 1.70449C43.1835 1.85238 43.3339 2.28759 43.5177 2.67191C43.7637 3.18626 43.8491 3.65992 43.8416 4.46797C43.8332 5.37909 43.8967 5.66274 44.2167 6.13991C44.6993 6.8599 44.6982 6.9904 44.208 7.17913C43.9313 7.28554 43.814 7.45066 43.814 7.73352C43.814 7.95512 43.7383 8.13635 43.6458 8.13635C43.5528 8.13635 43.5195 8.27068 43.5716 8.4366C43.631 8.62597 43.5768 8.7713 43.4247 8.83033C43.2807 8.88617 43.1835 9.12133 43.1835 9.4128C43.1835 10.1963 42.3109 10.3387 41.3259 9.71608C41.0219 9.524 40.9377 9.55032 40.4982 9.97596C39.883 10.5715 39.4645 11.2631 39.3306 11.9054C39.2339 12.3687 39.2771 12.4338 39.9453 12.8301C40.9191 13.4077 41.894 14.4468 42.2773 15.3155C42.4515 15.7103 43.1401 16.6436 43.8078 17.3895C44.4754 18.1353 45.2263 19.1045 45.4764 19.5432C46.0358 20.5243 46.3148 20.8275 46.4874 20.6418C47.6013 19.4419 48.8579 17.247 48.8579 16.5012C48.8579 16.2981 48.9288 16.0876 49.0155 16.0334C49.2274 15.9008 49.2162 14.738 48.9991 14.3273C48.6861 13.7353 48.5658 12.2502 48.7887 11.7264C48.9008 11.4628 49.0384 11.1037 49.0945 10.9282C49.1932 10.6197 49.2067 10.6218 49.5049 10.9919C49.797 11.3544 49.8244 11.3593 50.0208 11.0873C50.1704 10.8804 50.2609 10.8533 50.3446 10.9903C50.4084 11.095 50.5935 11.1379 50.756 11.0857C50.9527 11.0225 51.1188 11.1002 51.2534 11.3185C51.3647 11.4987 51.5403 11.6461 51.6436 11.6461C51.747 11.6461 51.8745 11.783 51.927 11.9505C51.9795 12.1179 52.126 12.2951 52.2528 12.3443C52.6694 12.506 52.4969 13.3667 51.7638 14.7852C51.319 15.6459 51.0761 16.2998 51.1273 16.4983C51.1729 16.6749 51.1171 16.9297 51.0033 17.0645C50.8895 17.1993 50.6007 17.9558 50.3616 18.7455C50.1225 19.5352 49.7835 20.4685 49.6082 20.8195C49.0619 21.9133 47.7262 24.0665 47.4205 24.3465C46.9146 24.81 45.9726 24.2956 44.1642 22.569C43.2943 21.7384 42.5119 21.0588 42.4256 21.0588C42.3394 21.0588 41.937 21.3996 41.5313 21.8161C40.822 22.5442 40.7961 22.6036 40.8606 23.3534C40.929 24.1496 40.3638 26.2878 39.9489 26.8021C39.8427 26.9337 39.7067 27.6875 39.6466 28.4772C39.555 29.6824 39.4631 30.0306 39.0749 30.645C38.817 31.0531 38.6124 31.5966 38.6124 31.8738C38.6124 32.1472 38.5325 32.5484 38.4348 32.7654C38.1946 33.2991 38.3205 33.7076 39.1296 35.0195C40.2727 36.8727 41.2197 38.6215 41.7639 39.8841C42.0477 40.5422 42.5896 41.7491 42.968 42.5659C43.3466 43.3829 43.6564 44.1044 43.6564 44.1694C43.6564 44.2345 44.0537 44.9661 44.5395 45.795C45.7308 47.8285 45.7376 47.8494 45.8601 49.886C45.9192 50.8683 46.0396 51.7657 46.1276 51.8802C46.3722 52.1985 48.0123 57.0234 48.3795 58.5055C48.813 60.254 48.9273 60.5368 49.6629 61.6838C50.1624 62.4623 50.3564 62.6467 50.6066 62.5805C50.8042 62.5282 51.0024 62.6087 51.139 62.7968C51.3231 63.0507 51.5397 63.0912 52.5519 63.0613C53.2094 63.0419 53.9417 63.1067 54.1792 63.2054C54.9968 63.5452 55.6714 63.4803 56.3733 62.9943C57.4802 62.2282 58 62.477 58 63.7727C58 65.5932 55.3144 68.3359 53.8113 68.0505C53.3525 67.9634 53.2255 68.0221 52.7679 68.5322C52.1347 69.2378 50.9883 69.8498 50.0579 69.979C49.1821 70.1004 48.7003 69.6925 48.7003 68.8294C48.7003 67.8742 48.0487 66.9365 47.2637 66.7619C47.0155 66.7067 46.77 66.5922 46.7182 66.5073C46.5689 66.2629 46.9691 65.8885 47.3797 65.8885C48.2733 65.8885 47.518 63.9712 45.2866 60.5756C44.295 59.0666 43.1691 57.1858 42.7845 56.3961C42.1673 55.1286 42.0658 54.764 41.9176 53.2851C41.6003 50.1161 41.6648 50.3307 40.6902 49.1986C40.1977 48.6265 38.9553 47.2478 37.9293 46.135C36.9033 45.0223 35.6733 43.5196 35.1957 42.7956C34.7182 42.0716 34.2699 41.4794 34.1995 41.4794C34.129 41.4794 33.7487 42.0359 33.3542 42.7158C32.5348 44.1284 31.8571 44.9643 29.3127 47.701C28.3158 48.7733 27.133 50.0545 26.684 50.5481C25.953 51.3523 25.805 51.4439 25.2612 51.4296C24.9275 51.4206 24.1597 51.1944 23.5552 50.9267C22.1191 50.2908 20.9077 49.9837 18.9829 49.7675C18.0805 49.666 16.641 49.3478 15.5996 49.0194C13.8533 48.4689 13.68 48.4454 10.8709 48.3789L7.95488 48.3098L7.79726 48.6836C7.69181 48.9338 7.48327 49.0748 7.16677 49.1101C6.90669 49.1391 6.5399 49.3079 6.35154 49.4851C6.0776 49.7431 5.88672 49.7867 5.39635 49.7027C4.88187 49.6148 4.59847 49.693 3.63335 50.1893C2.87266 50.5805 2.38545 50.9479 2.19425 51.2751C2.03521 51.547 1.82715 51.8593 1.73194 51.9689C1.48794 52.2499 0.538589 52.2172 0.242574 51.9177C-0.0978904 51.5731 -0.076612 50.2887 0.285289 49.3243C0.644353 48.3679 1.9761 46.653 2.54607 46.4134C2.95383 46.2419 3.30502 45.5825 3.30502 44.9884C3.30502 44.6304 5.04501 42.717 5.93259 42.0989C6.73205 41.5421 6.80345 41.5686 7.54159 42.6967C8.16058 43.6426 8.9974 44.2118 9.59179 44.0915C10.1725 43.9739 10.3608 44.2697 9.98001 44.7014L9.68873 45.0317L12.4471 44.9042C13.9642 44.834 16.2014 44.7707 17.4184 44.7633L19.6314 44.7499L21.285 45.564C22.5386 46.1811 23.0223 46.3469 23.2838 46.2489C23.6766 46.102 24.9155 44.4656 25.4456 43.3939C25.6409 42.999 25.956 42.1835 26.1458 41.5817C26.5398 40.332 26.7025 40.0412 27.8104 38.6078C28.7257 37.4234 29.0656 36.6626 28.9861 35.9754C28.9557 35.7122 28.928 34.8828 28.9247 34.1322C28.9191 32.889 28.9672 32.6687 29.464 31.6593C29.764 31.0499 30.2088 30.3136 30.4526 30.0231C30.6965 29.7328 30.8514 29.4223 30.797 29.3333C30.7428 29.2443 30.839 29.0153 31.0108 28.8244C31.1828 28.6334 31.416 28.0824 31.5292 27.5998C31.6424 27.1172 31.8637 26.5741 32.0213 26.393C32.2262 26.1573 32.3075 25.8058 32.3075 25.1566C32.3075 24.6576 32.2674 24.2495 32.2183 24.2495C31.9304 24.2495 31.5437 24.6066 31.6184 24.8036C31.6761 24.9559 31.5675 25.0689 31.2973 25.1377C31.0727 25.1946 30.8889 25.3412 30.8889 25.4633C30.8889 25.6203 30.6798 25.6853 30.1746 25.6853C29.2977 25.6853 28.4529 25.346 28.1786 24.8837C28.0655 24.693 27.0351 23.7862 25.8887 22.8686C23.7122 21.1263 21.0377 18.3247 20.4635 17.1857C19.8847 16.0374 20.3558 15.479 22.6926 14.5435C23.3428 14.2833 24.2477 13.8798 24.7035 13.6469C25.1594 13.414 25.9364 13.0828 26.4306 12.9106C26.9246 12.7387 27.766 12.3097 28.3002 11.9572C29.436 11.2084 29.9002 11.0541 31.4474 10.9123C32.872 10.7816 32.9667 10.7259 32.7892 10.1242C32.7126 9.86445 32.6417 9.75963 32.6316 9.89125C32.6157 10.0982 32.5938 10.0969 32.4693 9.88152C32.3901 9.74464 32.2908 9.00854 32.2486 8.24563C32.2064 7.48289 32.1222 6.84108 32.0613 6.81954C32.0007 6.798 31.8232 7.02135 31.667 7.31617C31.5108 7.61084 31.1988 7.94874 30.9736 8.06695C30.6465 8.23877 30.7513 8.03473 31.495 7.05246C32.1444 6.19463 32.5329 5.4855 32.7806 4.70632C32.9759 4.09211 33.3023 3.36302 33.5063 3.08623C33.7102 2.80943 34.0305 2.16778 34.2181 1.66029C34.5792 0.683453 35.123 0 35.5391 0C35.6774 0 35.9546 0.179478 36.1554 0.398841C36.6122 0.897551 37.212 0.91175 37.8434 0.438725C38.2488 0.135127 38.5636 0.0713127 39.8862 0.0248877C40.9929 -0.0138796 41.4496 0.0237709 41.4496 0.153953ZM35.7297 1.75474C35.6175 2.18868 35.8775 2.31726 36.0826 1.92943C36.3003 1.51767 36.2916 1.43583 36.0301 1.43583C35.9102 1.43583 35.7749 1.57941 35.7297 1.75474ZM34.8076 7.65391C34.7579 8.97232 34.7847 9.17238 35.0164 9.21912C35.2083 9.25773 35.3287 9.10346 35.4491 8.66457C35.6849 7.80483 35.658 7.12808 35.3574 6.36773C35.0068 5.48087 34.8782 5.78191 34.8076 7.65391ZM34.5626 7.61483C34.6027 7.77006 34.638 7.68167 34.6411 7.41844C34.6443 7.1552 34.6117 7.02821 34.5685 7.13622C34.5253 7.24422 34.5226 7.4596 34.5626 7.61483ZM29.1431 15.8901C28.462 16.1317 27.2977 16.3748 26.3573 16.4718C25.1055 16.6007 24.7417 16.6918 24.7417 16.8757C24.7417 17.0064 25.0484 17.7677 25.4234 18.5675C25.9643 19.7219 26.2977 20.1998 27.039 20.8852C28.0978 21.864 28.7946 22.3336 29.189 22.3344C29.3378 22.3348 29.709 22.1132 30.0141 21.8421C30.5053 21.4056 30.6416 21.3614 31.2018 21.4572C31.8229 21.5634 31.8347 21.5565 31.8347 21.0904C31.8347 20.0153 30.9063 16.1507 30.5335 15.6744C30.3418 15.4296 30.5192 15.4021 29.1431 15.8901ZM31.2751 22.6904C31.9571 23.0445 32.2361 22.9217 31.7171 22.4957C31.5029 22.3199 31.2291 22.2405 31.0245 22.2947C30.7208 22.3751 30.7466 22.4158 31.2751 22.6904ZM9.45686 44.3449C9.32935 44.4265 9.27307 44.5419 9.33187 44.6014C9.47609 44.7474 9.92516 44.5617 9.92516 44.356C9.92516 44.1534 9.76202 44.1496 9.45686 44.3449ZM47.1004 66.2873C47.1004 66.3706 47.1767 66.4646 47.2699 66.496C47.363 66.5274 47.4393 66.4336 47.4393 66.2873C47.4393 66.141 47.363 66.0472 47.2699 66.0787C47.1767 66.1101 47.1004 66.204 47.1004 66.2873Z" fill="#EBEBEB"/>
</svg>
