<svg width="28" height="42" viewBox="0 0 28 42" fill="none" xmlns="http://www.w3.org/2000/svg">
<path fill-rule="evenodd" clip-rule="evenodd" d="M17.7767 0.159811C17.2516 0.354326 17.1017 0.439577 16.6453 0.802794C16.2379 1.12705 15.6869 1.87623 15.4111 2.48086C15.0799 3.20709 14.7515 4.80518 14.9335 4.80518C15.0503 4.80518 15.1104 4.98128 15.0605 5.17733C15.0353 5.27619 15.0488 5.33883 15.0952 5.33883C15.1449 5.33883 15.1587 5.43655 15.1352 5.62233C15.1073 5.84413 15.1147 5.87681 15.1694 5.77242C15.224 5.66842 15.2313 5.70244 15.203 5.92658C15.1601 6.26511 15.2078 6.37978 15.3448 6.26778C15.464 6.17032 15.476 6.28266 15.3675 6.48217C15.3275 6.55588 15.2828 6.73399 15.2683 6.87801C15.2468 7.0908 15.2636 7.1401 15.358 7.1409C15.4475 7.1417 15.4534 7.15491 15.3839 7.19833C15.3123 7.24303 15.3178 7.26391 15.4106 7.29899C15.4778 7.32441 15.5762 7.29993 15.6417 7.24156C15.8062 7.09494 15.8467 7.11448 15.8467 7.34069C15.8467 7.57696 15.9314 7.50318 14.3907 8.60844C13.7202 9.08939 12.9813 9.61964 12.7484 9.78681C12.5157 9.95391 12.3252 10.1134 12.3252 10.1414C12.3252 10.1692 12.0469 10.2908 11.7069 10.4116C11.3668 10.5325 10.7954 10.7793 10.4371 10.9601C9.07526 11.6476 6.48731 13.7866 6.0906 14.5525L5.95665 14.8111H5.21714C4.81034 14.8111 4.46036 14.8385 4.43937 14.872C4.4183 14.9055 4.27176 14.9542 4.1137 14.9802C3.95557 15.0062 3.75004 15.0801 3.65692 15.1444C3.5638 15.2087 3.33525 15.3256 3.14901 15.4042C2.51034 15.6739 2.47181 15.7029 2.47181 15.9143C2.47181 16.0896 2.49734 16.1143 2.69827 16.1333C2.85592 16.1481 3.00667 16.1013 3.19398 15.9792C3.56055 15.7402 3.64195 15.7947 3.38827 16.1092C3.13757 16.4199 3.14543 16.5707 3.41387 16.6009C3.56997 16.6185 3.65746 16.571 3.84383 16.3675L4.07774 16.1119L4.03128 16.3287C3.98591 16.54 3.99065 16.5455 4.2167 16.5455C4.47614 16.5455 4.63772 16.4086 4.70862 16.1286C4.75224 15.9565 4.87589 15.8684 4.87589 16.0092C4.87589 16.0445 4.99779 16.1058 5.14678 16.1453C5.44935 16.2255 5.45098 16.2279 5.33348 16.4132C5.13662 16.7237 5.61689 16.9243 6.06053 16.7169C6.18378 16.6594 6.3497 16.6122 6.42914 16.6122C6.65214 16.6122 6.88754 16.4271 6.92993 16.2184C7.01289 15.8096 8.83431 14.3968 10.2597 13.6356C10.5204 13.4963 10.7692 13.3483 10.8126 13.3067C10.915 13.2085 11.1402 13.1258 11.885 12.9127C12.2202 12.8168 12.5453 12.7216 12.6074 12.7011C12.7043 12.6691 12.7157 12.7049 12.6878 12.9537C12.6698 13.1131 12.6109 13.4236 12.5568 13.6438C12.5027 13.8639 12.4136 14.4643 12.3588 14.9779C12.2701 15.8084 12.1397 16.7153 11.9128 18.0797C11.8081 18.7087 11.7378 19.9398 11.7896 20.2346C11.8333 20.4827 11.738 20.6813 11.5754 20.6813C11.5408 20.6813 11.5125 20.7713 11.5125 20.8814C11.5125 21.0757 11.4673 21.1088 11.2324 21.0863C11.113 21.0749 10.9415 21.448 11.0134 21.5625C11.036 21.5984 10.9917 21.7115 10.915 21.8137C10.6473 22.1703 10.5451 22.7627 10.5846 23.7297C10.6118 24.3975 10.5997 24.6272 10.5341 24.6807C10.4866 24.7196 10.4303 24.8937 10.409 25.0678C10.3878 25.2417 10.2962 25.5492 10.2056 25.751C9.97899 26.2555 9.54863 27.4759 9.54863 27.6139C9.54863 27.6761 9.48768 27.7915 9.41318 27.8702C9.33869 27.949 9.27774 28.0502 9.27774 28.0952C9.27774 28.1403 9.17108 28.3801 9.04072 28.6282C8.91036 28.8764 8.80356 29.1635 8.80343 29.2663C8.80289 29.6807 8.33778 30.1156 7.65813 30.3372C7.04235 30.538 6.3625 31.1646 5.17942 32.6217C3.86956 34.2351 3.52866 34.6072 2.91091 35.0974C2.66122 35.2956 2.53391 35.3456 2.19463 35.3788C1.70128 35.4271 1.24579 35.6095 1.02096 35.8489C0.930618 35.9451 0.823146 36.0238 0.782039 36.0238C0.740933 36.0238 0.65513 36.0838 0.591337 36.1572C0.524836 36.2337 0.391561 36.2906 0.278806 36.2906C0.0671113 36.2906 0 36.3854 0 36.6844C0 36.8812 0.14499 37.0891 0.778789 37.8012C1.00227 38.0522 1.62496 38.7531 2.16259 39.3587C3.73338 41.1281 4.27697 41.6987 4.55815 41.8735C4.78887 42.017 4.84671 42.0278 5.01581 41.9588C5.13892 41.9086 5.26258 41.7715 5.35563 41.5822L5.5019 41.2845L5.33789 41.1056C5.24768 41.0072 5.13554 40.8765 5.08867 40.8151C5.007 40.7082 4.60501 39.6495 4.60501 39.5414C4.60501 39.5127 4.6774 39.4621 4.76585 39.4289C5.02529 39.3318 5.06497 38.933 4.85761 38.5072C4.80316 38.3955 4.80479 38.3351 4.8637 38.2771C4.96495 38.1774 4.96549 37.9074 4.86533 37.5383C4.75928 37.148 4.82754 36.9362 5.17827 36.5668C5.34147 36.3949 5.49493 36.1762 5.51924 36.0807C5.55893 35.925 6.1869 35.3843 7.74116 34.1673C7.89719 34.0451 8.42107 33.5929 8.90528 33.1625C9.86332 32.3107 10.234 32.0398 10.8637 31.7305C11.3345 31.4993 11.9312 30.9467 12.0743 30.6097C12.1598 30.408 12.2217 30.3669 12.5925 30.2653C13.1782 30.1049 13.8079 29.7796 13.8784 29.6011C13.9106 29.5198 13.9704 29.3298 14.0113 29.1789C14.0625 28.9902 14.1906 28.808 14.4215 28.5952C14.6062 28.425 14.7849 28.2858 14.8184 28.2858C14.8521 28.2858 15.1776 28.616 15.5419 29.0196C15.9247 29.4438 16.256 29.7534 16.327 29.7534C16.4945 29.7534 16.7988 29.6202 16.9705 29.4719C17.0485 29.4045 17.2677 29.3312 17.4575 29.309C17.7954 29.2696 17.8121 29.2761 18.249 29.6185C18.7245 29.9913 18.8946 30.2328 18.8933 30.5338C18.8922 30.7834 18.7448 31.2917 18.5199 31.8213C18.3442 32.2348 18.3374 32.2919 18.3736 33.0553C18.3948 33.5023 18.5188 34.4597 18.6544 35.2233C19.18 38.184 19.204 38.7061 18.8354 39.1579C18.5201 39.5443 18.4389 39.781 18.3841 40.4725C18.3505 40.8963 18.3067 41.0964 18.2423 41.1207C18.108 41.1716 18.1278 41.4529 18.2786 41.6364L18.4082 41.7939H21.863C25.2661 41.7939 25.3206 41.7918 25.5089 41.6538C25.7329 41.4897 25.7968 41.165 25.6362 41.0067C25.5784 40.9498 25.5488 40.8578 25.5704 40.8023C25.6001 40.7262 25.5458 40.6921 25.3502 40.6637C24.8383 40.5895 24.1373 40.4052 23.8546 40.2703C23.6102 40.1537 23.5666 40.1023 23.5653 39.9295C23.5629 39.6064 23.2321 39.2924 22.8941 39.2924C22.7928 39.2924 22.7542 39.2496 22.7542 39.1372C22.7542 38.9597 22.5285 38.731 22.2801 38.6567C21.8371 38.5242 21.705 38.3193 21.6471 37.6748C21.6261 37.4399 21.5679 37.2472 21.4971 37.1774C21.3968 37.0787 21.3877 36.9755 21.4281 36.3936C21.4537 36.0251 21.4905 34.6429 21.5099 33.3222L21.5453 30.9207L21.7264 30.4871C22.0074 29.8148 21.9795 29.3383 21.6182 28.6411C21.4628 28.3412 21.3044 28.0768 21.2661 28.0535C21.2279 28.0302 21.1964 27.9454 21.1962 27.865C21.1955 27.6158 19.8084 25.1385 19.6131 25.0378C19.5188 24.9891 19.383 24.8187 19.3113 24.6591C19.2397 24.4996 19.0693 24.285 18.9326 24.1824C18.796 24.0797 18.604 23.8609 18.5059 23.6961C18.3287 23.3981 18.3283 23.3947 18.4416 23.0805C18.5042 22.9068 18.5555 22.7078 18.5555 22.6383C18.5555 22.452 18.364 22.2155 18.213 22.2155C18.0443 22.2155 18.0335 21.9597 18.2 21.907C18.6814 21.7546 18.6447 21.816 18.9229 20.6956C19.0661 20.1191 19.2686 19.4651 19.3729 19.2423C19.4773 19.0195 19.5836 18.7551 19.6092 18.6548C19.6348 18.5544 19.8158 18.3146 20.0115 18.1218C20.4116 17.7277 20.5002 17.4713 20.5673 16.5121C20.5988 16.0633 20.6464 15.8998 20.8668 15.4837C21.011 15.2116 21.1289 14.9489 21.1289 14.9001C21.1289 14.7675 21.1917 14.7846 21.8861 15.1064C23.3393 15.7798 23.5067 15.8004 24.3097 15.4045C25.0785 15.0255 25.6312 14.5951 26.533 13.6733C27.7176 12.4625 28.0042 11.929 28 10.9422C27.998 10.4768 27.9583 10.3202 27.755 9.97492C27.7118 9.90154 27.6553 9.79648 27.6295 9.74145C27.6037 9.68642 27.5077 9.63245 27.4162 9.62151C27.2954 9.6071 27.2325 9.54333 27.186 9.38804C27.1255 9.18578 27.1042 9.17411 26.7836 9.16871C26.5247 9.16431 26.4398 9.13689 26.4231 9.05204C26.3945 8.90715 26.148 8.84932 25.9211 8.93423C25.7155 9.01128 25.6234 9.32267 25.6888 9.71977C25.7115 9.85725 25.6816 10.1157 25.6179 10.3331C25.4864 10.7815 25.4813 11.076 25.598 11.4631C25.6697 11.7009 25.6687 11.7801 25.5923 11.9205C25.5035 12.0842 24.2216 12.9622 23.7443 13.1864C23.5231 13.2903 23.5032 13.2888 23.3121 13.1548C23.2019 13.0776 22.8561 12.8922 22.5436 12.7429C22.1992 12.5784 21.9825 12.4361 21.9935 12.3815C22.0035 12.3319 21.728 12.0349 21.3813 11.7214C20.8191 11.2131 20.7347 11.1059 20.6006 10.73C20.4392 10.2774 20.3988 9.56314 20.5218 9.33681C20.5702 9.24762 20.6638 9.2078 20.8249 9.2078C21.025 9.2078 21.0975 9.15864 21.3364 8.86079C21.4896 8.66994 21.6808 8.48143 21.7613 8.44194C21.8441 8.40125 21.9112 8.30186 21.9158 8.21274C21.9203 8.12622 21.9736 8.02803 22.0343 7.99461C22.1023 7.95712 22.1447 7.84739 22.1447 7.70864C22.1447 7.48257 22.163 7.46116 22.6828 7.07913L22.8484 6.95739L22.6616 6.54735C22.4517 6.08674 22.4547 6.06206 22.8005 5.39179C23.1136 4.7847 23.1782 4.03225 22.9675 3.44663C22.8387 3.08889 22.8352 3.03532 22.9258 2.82146C22.9804 2.69285 23.0251 2.49874 23.0251 2.39021C23.0251 2.14272 22.6308 1.5475 22.2595 1.23445C21.8665 0.90312 20.6388 0.301295 20.0255 0.139465C19.2929 -0.0539833 18.3301 -0.0452448 17.7767 0.159811ZM14.8986 4.99742C14.8986 5.03411 14.929 5.08267 14.9663 5.10535C15.0035 5.12803 15.034 5.11656 15.034 5.07987C15.034 5.04318 15.0035 4.99462 14.9663 4.97194C14.929 4.94926 14.8986 4.96074 14.8986 4.99742Z" fill="#EBEBEB"/>
</svg>
