<svg width="28" height="58" viewBox="0 0 28 58" fill="none" xmlns="http://www.w3.org/2000/svg">
<path fill-rule="evenodd" clip-rule="evenodd" d="M16.3346 0.627168C16.0825 0.972187 15.7364 1.47866 15.5656 1.75285C15.0813 2.53021 14.9808 4.3339 15.3175 6.20259C15.6714 8.1656 15.5795 8.81838 14.8984 9.17892C13.9582 9.67627 12.1101 10.7924 11.3659 11.3121C10.958 11.597 10.5452 11.83 10.4486 11.83C10.059 11.83 7.10763 13.3622 6.50759 13.8761C5.87476 14.4181 5.86713 14.4429 5.98554 15.6177C6.14913 17.2428 6.56708 18.7974 7.28267 20.4421C7.6131 21.202 7.94983 22.1729 8.03067 22.5998C8.39924 24.5424 8.54395 24.9656 9.01758 25.4859C9.42009 25.9277 9.64489 26.023 10.1176 25.9524C10.7004 25.8654 10.7102 25.8771 10.6276 26.5603C10.5813 26.9436 10.394 27.8148 10.2114 28.4965C9.85348 29.8328 9.88094 30.2529 10.4184 31.6677C10.766 32.5826 10.7653 32.5949 10.2257 35.2576C9.92765 36.7273 9.61438 38.0172 9.52915 38.1241C9.44411 38.2312 9.19967 38.7701 8.98612 39.3218C8.77238 39.8735 8.32964 40.7028 8.00207 41.1647C7.67469 41.6267 6.9284 42.7906 6.34381 43.7511C5.75921 44.7117 4.86496 46.1576 4.35644 46.9642C3.84812 47.7709 3.43207 48.5131 3.43207 48.6136C3.43226 49.0041 2.19748 51.222 1.97993 51.222C1.50325 51.222 0 53.5743 0 54.32C0 54.5729 3.13806 56.5514 5.11627 57.5457C5.97543 57.9777 6.32264 58.0446 7.35608 57.9777C8.02876 57.934 8.67361 57.8023 8.78935 57.6845C9.14533 57.3222 8.78001 56.668 7.9933 56.2596C6.98312 55.735 5.98935 54.164 5.83128 52.8412C5.71764 51.8907 5.74529 51.8046 6.38327 51.1163C6.7526 50.7177 7.05844 50.251 7.06283 50.0791C7.08475 49.2218 8.65721 47.252 11.9545 43.951C13.8904 42.0132 14.2347 41.5087 17.3144 36.0978C17.4441 35.8702 17.6395 35.9395 18.3656 36.4702C18.8564 36.8288 19.2577 37.1608 19.2577 37.2082C19.2577 37.2555 18.8716 37.8169 18.3997 38.4559C17.9278 39.0947 17.5417 39.6804 17.5417 39.7572C17.5417 39.8343 17.2199 40.3409 16.8267 40.8833C16.4335 41.4257 15.983 42.0656 15.8257 42.3057C15.6684 42.5455 15.2697 43.111 14.9394 43.5618C14.6094 44.0127 14.2418 44.5673 14.1224 44.7942C14.003 45.021 13.78 45.2065 13.6263 45.2065C13.2163 45.2065 11.2496 47.2621 11.2496 47.6905C11.2496 48.1555 11.4473 48.326 14.1096 50.1583C16.5426 51.8329 17.5756 52.3757 18.3408 52.3821C19.0669 52.3881 19.1296 52.1428 18.5946 51.3914C17.5347 49.9033 17.1039 48.8347 17.1375 47.7777C17.1564 47.1895 17.0873 46.7589 16.9745 46.7589C16.1721 46.7589 18.1337 44.3529 21.0199 41.7967C22.0957 40.8439 23.4693 39.5764 24.0722 38.9797C25.0433 38.0187 25.1685 37.8068 25.1685 37.1255C25.1685 36.6879 24.9567 35.9238 24.6772 35.3527C24.2058 34.3902 21.6856 31.4814 19.7821 29.7031C18.8219 28.806 18.7227 28.4622 19.0484 27.1599C19.1418 26.7864 19.3699 25.5421 19.5548 24.3947L19.8913 22.3087H20.7112C21.1624 22.3087 22.1565 22.0993 22.9209 21.8436C24.5523 21.2977 27.453 20.0614 27.7052 19.8047C27.8019 19.7063 27.9226 19.247 27.9735 18.7842C28.0463 18.1201 27.9784 17.83 27.652 17.4089C27.0848 16.6774 26.753 16.7356 25.8477 17.725C25.209 18.423 24.8833 18.6126 24.023 18.7869C23.442 18.9045 22.6788 18.9334 22.3085 18.8519C21.6835 18.7141 21.6373 18.6512 21.5813 17.8603C21.5483 17.3959 21.6156 16.7841 21.7309 16.5006C21.8941 16.0999 21.8757 15.8269 21.648 15.2723C21.4869 14.8801 21.3551 14.2421 21.3551 13.8545C21.3551 12.712 20.8518 11.8791 19.903 11.452C18.5866 10.8594 18.8139 10.5869 20.5038 10.7323C21.6836 10.834 21.9563 10.8043 22.0291 10.5668C22.078 10.4078 22.1742 10.1249 22.2433 9.93804C22.3121 9.75137 22.3519 9.49212 22.3315 9.36191C22.3111 9.2319 22.4692 9.01437 22.6828 8.87873C22.8965 8.74289 23.0712 8.48267 23.0712 8.30007C23.0712 8.11767 23.2144 7.88675 23.3894 7.78701C23.6674 7.62866 23.6765 7.52912 23.4607 6.99878C23.267 6.52297 23.2613 6.21404 23.434 5.5696C23.5553 5.11728 23.6733 4.2394 23.6964 3.61863C23.7377 2.50848 23.7242 2.47626 22.8605 1.64554C21.7832 0.609315 20.5072 0.162225 18.3591 0.0684995L16.7931 0L16.3346 0.627168ZM10.9918 16.1476C10.9256 16.708 10.8707 18.6006 10.8699 20.3534L10.8682 23.5407L10.3971 23.0901C10.138 22.8425 9.8367 22.3644 9.72745 22.0279C9.37166 20.9307 8.9621 18.1655 8.96171 16.8594L8.96152 15.582L9.86721 15.3821C10.3652 15.2723 10.8492 15.1702 10.9424 15.1556C11.036 15.1409 11.0581 15.5855 10.9918 16.1476Z" fill="#EBEBEB"/>
</svg>
