<svg width="200" height="56" viewBox="0 0 200 56" fill="none" xmlns="http://www.w3.org/2000/svg">
<g clip-path="url(#clip0_1185_9076)">
<path opacity="0.9" fill-rule="evenodd" clip-rule="evenodd" d="M71.5285 0.212487L71.529 0.212478C71.7824 0.203887 72.0317 0.195435 72.2891 0.195435C82.118 0.195435 90.1114 8.1892 90.1073 18.0263V37.5085C90.1073 47.3369 82.118 55.3306 72.2891 55.3306C67.6153 55.3306 63.3563 53.518 60.1762 50.5606L60.1819 50.553C63.3614 53.5068 67.6179 55.3173 72.2891 55.3173V52.7753H72.2937C80.707 52.7753 87.552 45.9347 87.552 37.5172V18.0307C87.552 9.61761 80.7111 2.77267 72.2937 2.77267C72.0623 2.77267 71.835 2.7814 71.6082 2.79013L71.6077 2.79014C71.5775 2.79232 71.5479 2.79341 71.5183 2.7945L71.5086 2.79486L71.4907 2.79557C71.4799 2.796 71.4692 2.79647 71.459 2.79702C71.4488 2.79755 71.4391 2.79815 71.4289 2.79887C71.3338 2.80731 71.2378 2.81472 71.1428 2.82211C71.0401 2.83001 70.9384 2.83789 70.8393 2.84692C70.8286 2.84844 70.8174 2.84942 70.8061 2.85025L70.798 2.85084L70.7913 2.85129L70.7908 2.8513L70.7775 2.85222L70.7719 2.85264L70.7642 2.85327C70.7571 2.85391 70.7499 2.85467 70.7428 2.85566C70.54 2.87517 70.3443 2.90165 70.1425 2.92889L70.0705 2.93865C70.0337 2.94535 69.9995 2.94947 69.9637 2.95496C69.953 2.95665 69.9418 2.95845 69.9305 2.96049C69.7798 2.98013 69.6368 3.00714 69.4937 3.03414L69.4932 3.03419L69.4631 3.03992C69.4462 3.04302 69.4299 3.04611 69.4135 3.04918C69.3921 3.05314 69.3711 3.05708 69.3497 3.06096C69.3144 3.06533 69.2797 3.0697 69.245 3.07844C69.013 3.12649 68.7903 3.17454 68.5676 3.23132L68.5154 3.24443C68.4669 3.25753 68.4184 3.2704 68.3704 3.28325L68.3678 3.2839C68.2074 3.32654 68.0475 3.36901 67.8907 3.41915C67.8646 3.42789 67.8381 3.43226 67.812 3.441C67.3579 3.58078 66.9119 3.7424 66.4797 3.92149C66.471 3.92149 66.4623 3.92586 66.4536 3.93023C64.6626 4.67282 63.0462 5.74741 61.6746 7.07967V7.07533C60.9497 7.77423 60.2989 8.54741 59.7267 9.37735C60.1982 10.2292 60.6089 11.1159 60.941 12.0463C63.0462 7.99263 67.2879 5.21011 72.1625 5.21011H72.4337C79.4008 5.21011 85.0708 10.8713 85.0708 17.8386V37.6963C85.0708 44.6635 79.4008 50.3335 72.4337 50.3335H72.1625C67.2843 50.3335 63.0478 47.5564 60.942 43.4952C60.9446 43.4886 60.9466 43.482 60.9492 43.4754C63.0544 47.5378 67.292 50.3159 72.1711 50.3159H72.3065L72.2891 47.7606H72.1538C66.5972 47.7606 62.0807 43.2395 62.0807 37.6875V21.9184H59.4161V37.5041C59.4161 39.5965 58.988 41.5796 58.2232 43.3924C58.2232 43.3923 58.2232 43.3921 58.2232 43.392C58.9854 41.5817 59.412 39.5973 59.412 37.5085V18.022C59.412 9.60887 52.5671 2.76393 44.1539 2.76393C35.7407 2.76393 28.8958 9.60453 28.8958 18.022V37.5085C28.8958 45.9172 35.7407 52.7666 44.1539 52.7666H44.1579V55.3173C48.831 55.3173 53.0891 53.5053 56.2692 50.5491L56.2713 50.5519C53.0912 53.5094 48.8322 55.3219 44.1583 55.3219C37.5099 55.3219 31.7046 51.657 28.6425 46.2405V55.5012H26.087V0.889974H28.6425V9.27692C31.7046 3.86034 37.5142 0.195435 44.1626 0.195435C49.8762 0.195435 54.9696 2.90371 58.2238 7.08841C59.9842 4.82571 62.282 2.99544 64.9201 1.78982L64.9466 1.77672C65.4227 1.55394 65.9203 1.35737 66.423 1.18264L66.5017 1.15644C66.9905 0.986076 67.4886 0.83756 67.9954 0.715251C68.0046 0.713406 68.0143 0.711368 68.0235 0.709217C68.0409 0.705283 68.0582 0.700974 68.0756 0.696793L68.0894 0.6934L68.1058 0.689475C68.1129 0.687775 68.1195 0.686161 68.1267 0.68467C68.6202 0.566731 69.1223 0.47063 69.6337 0.392004C69.6618 0.387635 69.6894 0.384358 69.7165 0.381081C69.7435 0.377807 69.7711 0.37453 69.7992 0.370162C70.306 0.300272 70.8128 0.247851 71.3282 0.221645C71.3579 0.219387 71.3895 0.218296 71.4222 0.217167L71.4232 0.217139C71.4386 0.216597 71.4549 0.216045 71.4708 0.215349C71.4861 0.214698 71.5009 0.213918 71.5162 0.212908L71.5285 0.212487ZM56.2692 50.5491L56.2708 50.5475C55.8513 49.9971 55.2184 49.1235 54.7944 48.4289C52.0383 51.1109 48.2858 52.762 44.1579 52.762V52.7666C48.293 52.7655 52.0439 51.1058 54.7903 48.4333C55.2133 49.1267 55.8498 49.9986 56.2692 50.5491ZM57.0268 21.9141H57.0309V37.5041C57.0309 39.5876 57.459 41.5793 58.2232 43.392C58.2222 43.3951 58.2207 43.3981 58.2197 43.4012C57.4549 41.5883 57.0268 39.5965 57.0268 37.5085V21.9141ZM54.3668 21.9141H57.0268V18.022C57.0268 17.9302 57.0314 17.8429 57.0355 17.7555C57.0401 16.9562 56.9267 14.4663 55.5111 12.0332C55.5111 12.0354 55.5101 12.0376 55.5091 12.0398L55.508 12.0413C55.5075 12.0429 55.507 12.0446 55.507 12.0463C53.4013 7.98828 49.1642 5.21011 44.2849 5.21011H44.0184C37.0512 5.21011 31.3857 10.88 31.3857 17.8386V37.6919C31.3857 44.6592 37.0556 50.3291 44.0184 50.3291H44.2849C49.1642 50.3291 53.4013 47.5465 55.507 43.4885C55.8866 44.5544 56.3673 45.5677 56.9354 46.5332C57.3241 47.2233 57.7609 47.9091 58.2197 48.4333L58.2238 48.4289L58.2284 48.4333C58.6866 47.9135 59.128 47.2277 59.5126 46.5332C59.8544 45.9567 60.1635 45.3579 60.4393 44.7399C60.6212 44.3333 60.7888 43.9184 60.942 43.4952C60.9415 43.4944 60.941 43.4937 60.941 43.4929C60.7883 43.9164 60.6207 44.3323 60.4393 44.7399C60.1655 45.3505 59.8595 45.9424 59.5208 46.5156C59.1361 47.2058 58.6953 47.8916 58.2365 48.4158C58.2324 48.4158 58.2319 48.4114 58.2319 48.4114C58.2278 48.4114 58.2278 48.4158 58.2278 48.4158C57.7691 47.8916 57.3323 47.2102 56.9436 46.5156C56.3755 45.5503 55.8953 44.5369 55.5152 43.471C53.4095 47.5291 49.1726 50.3116 44.2933 50.3116H44.1579V47.7606H44.2936C49.8456 47.7606 54.3668 43.2439 54.3668 37.6875V21.9141ZM54.3668 21.9141H54.3663V37.6832C54.3663 43.2395 49.8453 47.7562 44.2933 47.7562H44.1579V47.7606H44.0272C38.4709 47.7606 33.9542 43.2395 33.9542 37.6875V17.8298C33.9542 12.2734 38.4753 7.75676 44.0272 7.75676H44.2936C49.85 7.75676 54.3668 12.2778 54.3668 17.8298V21.9141ZM72.2891 52.7753V52.762C68.1522 52.762 64.4046 51.1109 61.6526 48.4289C61.2373 49.1138 60.612 49.9583 60.2008 50.5139L60.1762 50.5475L60.1819 50.553C60.5972 49.998 61.2352 49.1334 61.6572 48.442C64.4082 51.1231 68.1543 52.7742 72.2891 52.7753ZM72.1538 7.75237C66.6018 7.75237 62.0807 12.2691 62.0807 17.8254V37.6788C62.0807 43.2308 66.5977 47.7519 72.1538 47.7519H72.4245C77.9765 47.7519 82.4976 43.2352 82.4976 37.6788V17.8254C82.4976 12.2734 77.9811 7.75237 72.4245 7.75237H72.1538ZM72.2891 45.3275H72.2932V45.3319C68.8685 45.3319 65.9556 43.0871 64.9502 39.9921C65.9591 43.0869 68.8654 45.3275 72.2891 45.3275ZM72.284 42.7721C69.4447 42.767 67.1346 40.4539 67.1346 37.6134V17.8998C67.1346 15.056 69.4498 12.7409 72.2937 12.7409C75.1372 12.7409 77.4524 15.056 77.4524 17.8998V37.6134C77.4524 40.457 75.1372 42.7722 72.2937 42.7722L72.2891 42.7721L72.2932 45.3275C76.5461 45.3253 80.0077 41.8622 80.0077 37.609V17.8954C80.0077 13.6407 76.5441 10.1768 72.2891 10.1768C68.0347 10.1768 64.5706 13.6407 64.5706 17.8954V37.609C64.5722 38.4404 64.7055 39.2414 64.9502 39.9921C64.7065 39.2424 64.5747 38.4429 64.5747 37.6133V30.6985H67.13V37.6133C67.13 40.4554 69.4427 42.7695 72.284 42.7721ZM36.4351 17.9084C36.4351 13.6538 39.8991 10.1898 44.1537 10.1898C48.4083 10.1898 51.8723 13.645 51.8723 17.904V37.6176C51.8723 41.8722 48.4083 45.3362 44.1537 45.3362C39.8991 45.3362 36.4351 41.8722 36.4351 37.6176V17.9084ZM49.3124 30.6985H51.8723V37.6133C51.8723 41.868 48.4082 45.3319 44.1536 45.3319V42.7765C46.3052 42.7765 48.154 41.4486 48.9266 39.5706C48.1536 41.4471 46.3039 42.7721 44.1493 42.7721C41.3056 42.7721 38.9905 40.4569 38.9905 37.6133V17.904C38.9905 15.0603 41.3056 12.7452 44.1493 12.7452C46.993 12.7452 49.3125 15.0603 49.3125 17.904L49.3124 30.6985ZM49.3124 30.6985V37.6133L49.3125 37.6133L49.3124 30.6985ZM15.9788 55.5012V29.0429C16.8306 28.5318 17.6387 27.9465 18.3857 27.3044L18.5342 27.1734V55.5012H15.9788ZM18.5342 0.890014H15.9788C15.9788 10.2292 9.01155 17.9652 0 19.1883V21.7655C10.4225 20.525 18.5342 11.6401 18.5342 0.890014ZM0 31.9172V29.3531C7.3036 28.7197 13.8384 25.33 18.5342 20.2192V23.8274C13.5632 28.3877 7.11576 31.3494 0 31.9172ZM21.0328 0.885636V0.898745C21.0328 13.0248 11.8029 23.0411 0 24.286V26.8545C9.2824 25.9721 17.1626 20.2061 21.0328 12.1555V55.5012H23.5882V0.885636H21.0328Z" fill="white"/>
<path d="M72.1006 50.1115C67.3307 50.0849 63.1923 47.3594 61.1305 43.3814L60.9154 42.9664L60.757 43.4061C60.377 44.4601 59.906 45.4619 59.345 46.4117L59.3435 46.4139L59.342 46.4162C59.0038 47.0237 58.6247 47.6215 58.2324 48.104C57.8406 47.6223 57.4641 47.0277 57.1218 46.4159L57.1208 46.4139L57.1197 46.4121C56.5578 45.4572 56.0832 44.4554 55.7077 43.4024L55.5499 42.9602L55.3338 43.377C53.272 47.3512 49.1327 50.081 44.3622 50.1071V47.9604C49.9954 47.9232 54.5706 43.3294 54.5706 37.6832V22.1184H56.8265V37.5041C56.8265 39.6159 57.2602 41.6347 58.0352 43.4718L58.2232 43.9183L58.4117 43.4718C59.1862 41.6348 59.6204 39.6247 59.6204 37.5041V22.1228H61.8763V37.6876C61.8763 43.3298 66.448 47.9283 72.0858 47.9647L72.1006 50.1115ZM44.3622 55.1119V52.9653C48.3748 52.9127 52.0255 51.3209 54.754 48.7504C55.1341 49.3483 55.625 50.0301 55.9959 50.5228C52.9139 53.3295 48.836 55.0608 44.3622 55.1119ZM61.6929 48.7508C64.4173 51.3214 68.0638 52.9127 72.0848 52.9653V55.1119C67.6102 55.0608 63.5315 53.329 60.4495 50.5215C60.8132 50.0294 61.3108 49.3515 61.6929 48.7508ZM49.5167 37.6133V30.9029H51.6679V37.6133C51.6679 41.6868 48.4057 45.0161 44.3579 45.1248V42.9771C47.2204 42.869 49.5167 40.5012 49.5167 37.6133ZM66.9256 37.6133C66.9256 40.5016 69.2224 42.865 72.0853 42.9727L72.0888 45.1248C68.0413 45.0159 64.779 41.6867 64.779 37.6133V30.9029H66.9256V37.6133Z" stroke="white"/>
<path opacity="0.9" d="M101.982 16.7983H98.8208V14.52H99.7322L100.504 0.859558H106.33V16.7983H103.941V3.13776H102.758L101.982 16.7983Z" fill="white"/>
<path opacity="0.9" d="M108.067 0.859558H113.993V3.13776H110.462V7.00898H113.879V9.2828H110.462V14.52H113.993V16.7983H108.067V0.859558Z" fill="white"/>
<path opacity="0.9" d="M115.117 0.859558H122.065V3.13776H119.785V16.7983H117.392V3.13776H115.117V0.859558Z" fill="white"/>
<path opacity="0.9" d="M106.27 20.4253H109.191V36.364H106.795V29.5319L107.184 24.9786H107.07L105.404 33.1771H103.17L101.455 24.9786H101.341L101.779 29.5319V36.364H99.3828V20.4253H102.299L104.241 29.5319H104.311L106.27 20.4253Z" fill="white"/>
<path opacity="0.9" d="M111.973 36.4107C111.337 36.4107 110.928 35.9772 110.928 35.3599V21.4761C110.928 20.8588 111.337 20.4253 111.973 20.4253H117.036C117.671 20.4253 118.08 20.8588 118.08 21.4761V35.3642C118.08 35.9816 117.671 36.4151 117.036 36.4151H111.973V36.4107ZM115.695 22.7064H113.309V34.1252H115.695V22.7064Z" fill="white"/>
<path opacity="0.9" d="M120.865 36.364C120.227 36.364 119.817 35.9318 119.817 35.3163V21.473C119.817 20.8575 120.227 20.4253 120.865 20.4253H126.765V24.9786H124.371V22.6998H122.205V34.0852H124.371V31.1253H126.765V36.364H120.865Z" fill="white"/>
<path opacity="0.9" d="M136.011 36.364H133.471L131.37 28.8508H130.752V36.364H128.349V20.4253H130.752V26.572H131.436L133.471 20.4253H136.011L133.542 27.7114L136.011 36.364Z" fill="white"/>
<path opacity="0.9" d="M138.18 36.4107C137.544 36.4107 137.135 35.9772 137.135 35.3599V21.4761C137.135 20.8588 137.544 20.4253 138.18 20.4253H143.243C143.878 20.4253 144.287 20.8588 144.287 21.4761V35.3642C144.287 35.9816 143.878 36.4151 143.243 36.4151H138.18V36.4107ZM141.902 22.7064H139.516V34.1252H141.902V22.7064Z" fill="white"/>
<path opacity="0.9" d="M152.972 25.9347C152.972 26.8471 152.491 27.4582 151.788 27.7114C152.495 27.9603 152.972 28.554 152.972 29.4882V35.3163C152.972 35.9318 152.561 36.364 151.923 36.364H146.024V20.4253H151.923C152.561 20.4253 152.972 20.8575 152.972 21.473V25.9347ZM150.583 22.6998H148.421V26.572H150.583V22.6998ZM148.417 34.0895H150.578V28.8508H148.417V34.0895Z" fill="white"/>
<path opacity="0.9" d="M155.756 36.364C155.119 36.364 154.708 35.9318 154.708 35.3163V21.473C154.708 20.8575 155.119 20.4253 155.756 20.4253H161.656V24.9786H159.263V22.6998H157.097V34.0852H159.263V31.1253H161.656V36.364H155.756Z" fill="white"/>
<path opacity="0.9" d="M170.903 36.364H168.364L166.26 28.8508H165.642V36.364H163.24V20.4253H165.642V26.572H166.326L168.364 20.4253H170.903L168.43 27.7114L170.903 36.364Z" fill="white"/>
<path opacity="0.9" d="M173.078 36.4107C172.438 36.4107 172.026 35.9772 172.026 35.3599V21.4761C172.026 20.8588 172.438 20.4253 173.078 20.4253H178.177C178.817 20.4253 179.229 20.8588 179.229 21.4761V35.3642C179.229 35.9816 178.817 36.4151 178.177 36.4151H173.078V36.4107ZM176.831 22.7064H174.428V34.1252H176.831V22.7064Z" fill="white"/>
<path opacity="0.9" d="M187.804 20.4253H190.724V36.364H188.329V29.5319L188.713 24.9786H188.599L186.939 33.1771H184.7L182.992 24.9786H182.878L183.31 29.5319V36.364H180.916V20.4253H183.835L185.776 29.5319H185.841L187.804 20.4253Z" fill="white"/>
<path opacity="0.9" d="M197.36 36.364H194.111V34.0895H195.348L195.83 31.1297H194.111L191.848 20.4253H194.295L196.08 28.8508H196.194L197.589 20.4253H199.97L197.36 36.364Z" fill="white"/>
<path opacity="0.9" d="M100.431 55.9809C99.793 55.9809 99.3828 55.5477 99.3828 54.93V41.0419C99.3828 40.4246 99.793 39.9911 100.431 39.9911H106.33V44.5577H103.937V42.2722H101.771V53.6912H103.937V50.7225H106.33V55.9763H100.431V55.9809Z" fill="white"/>
<path opacity="0.9" d="M115.219 39.9911V55.9809H112.837V42.2766H110.343V55.9809H107.965V39.9911H115.219Z" fill="white"/>
<path opacity="0.9" d="M118.001 55.9809C117.366 55.9809 116.957 55.5477 116.957 54.93V41.0419C116.957 40.4246 117.366 39.9911 118.001 39.9911H123.064C123.699 39.9911 124.109 40.4246 124.109 41.0419V54.93C124.109 55.5477 123.699 55.9809 123.064 55.9809H118.001ZM121.723 42.2766H119.338V53.6953H121.723V42.2766Z" fill="white"/>
<path opacity="0.9" d="M128.234 50.7268V55.9809H125.845V39.9911H131.848C132.485 39.9911 132.895 40.4246 132.895 41.0419V49.676C132.895 50.2934 132.485 50.7268 131.848 50.7268H128.234ZM128.234 48.4413H130.51V42.2766H128.234V48.4413Z" fill="white"/>
<path opacity="0.9" d="M134.07 39.9911H141.017V42.2766H138.738V55.9809H136.345V42.2766H134.07V39.9911Z" fill="white"/>
<path opacity="0.9" d="M147.194 55.9809H143.945V53.6953H145.182L145.664 50.7268H143.945L141.682 39.9911H144.129L145.914 48.4413H146.028L147.423 39.9911H149.804L147.194 55.9809Z" fill="white"/>
</g>
<defs>
<clipPath id="clip0_1185_9076">
<rect width="200" height="55.7854" fill="white" transform="translate(0 0.195435)"/>
</clipPath>
</defs>
</svg>
