<svg width="341" height="202" viewBox="0 0 341 202" fill="none" xmlns="http://www.w3.org/2000/svg">
<path d="M250.403 48.561C252.788 46.8868 256.688 44.5883 261.942 43.3432C263.496 42.9734 267.027 42.1782 272.744 42.5967C280.584 43.1688 283.146 45.6626 295.469 48.7459C295.469 48.7459 298.672 49.5481 303.106 50.4235C309.545 51.6931 321.508 52.8302 340.917 48.561C339.283 44.1489 337.609 38.3485 336.818 31.4146C334.88 14.4391 337.052 9.57003 337.749 8.86199C337.86 8.75038 338.634 8.01443 338.453 7.3901C338.136 7.05876 337.818 6.72741 337.501 6.39606C334.838 6.36467 331.61 6.50418 327.981 7.05876C324.042 7.65867 322.589 8.29695 319.207 8.63179C315.15 9.03289 312.037 8.63179 309.604 8.30044C301.83 7.2471 299.09 5.1474 292.467 3.33021C285.454 1.40491 279.817 1.37002 275.662 1.34212C269.997 1.30724 261.094 1.9525 250.494 5.81358C250.466 20.0685 250.435 34.313 250.403 48.561Z" fill="#FC655D"/>
<path d="M264.988 13.9902L267.627 29.459L265.309 29.8566L264.065 22.5634L261.523 22.9959L262.768 30.2891L260.45 30.6867L257.811 15.218L260.129 14.8204L261.147 20.7881L263.688 20.3556L262.67 14.3879L264.988 13.9902Z" fill="#0F2572"/>
<path d="M275.38 13.2959L276.105 28.9739L273.756 29.082L273.519 23.9304L271.281 24.0351L271.518 29.1867L269.168 29.2948L268.443 13.6168L275.38 13.2959ZM273.135 15.6467L270.897 15.7514L271.176 21.7993L273.414 21.6947L273.135 15.6467Z" fill="#0F2572"/>
<path d="M287.138 30.0191C286.521 29.897 286.21 29.4017 286.325 28.8088L288.971 15.4397C289.09 14.8468 289.567 14.5085 290.181 14.6271L295.873 15.7536L295.002 20.1519L292.694 19.6949L293.13 17.4976L291.042 17.0825L288.867 28.0763L290.955 28.4914L291.519 25.6313L293.827 26.0882L292.827 31.1457L287.138 30.0191Z" fill="#0F2572"/>
<path d="M297.637 16.3154L304.292 17.8675L303.783 20.0509L301.601 19.5417L298.55 32.6387L296.26 32.1051L299.31 19.0081L297.128 18.4988L297.637 16.3154Z" fill="#0F2572"/>
<path d="M312.351 19.431L309.566 34.8718L307.251 34.4533L308.164 29.3784L305.958 28.9808L305.045 34.0557L302.73 33.6371L305.515 18.1963L312.351 19.431ZM309.636 21.2203L307.432 20.8227L306.359 26.78L308.565 27.1776L309.636 21.2203Z" fill="#0F2572"/>
<path d="M315.161 30.3721L314.628 35.5028L312.289 35.2586L313.91 19.6504L319.794 20.2608C320.418 20.327 320.773 20.7909 320.714 21.3943L319.839 29.8245C319.776 30.4279 319.33 30.8081 318.706 30.7453L315.161 30.3721ZM315.394 28.1399L317.622 28.3701L318.246 22.35L316.018 22.1198L315.394 28.1399Z" fill="#0F2572"/>
<path d="M321.867 20.4277L328.696 20.6719L328.616 22.9111L326.378 22.8309L325.9 36.2732L323.547 36.1895L324.025 22.7472L321.787 22.667L321.867 20.4277Z" fill="#0F2572"/>
<path d="M164.038 48.304C164.038 50.2432 162.741 51.607 160.733 51.607H142.136V35.0849H149.673V44.422H156.495V27.8999H149.673V20.7184H156.495V8.50729H149.673V15.6888H142.136V1.32227H160.733C162.741 1.32227 164.038 2.68602 164.038 4.62528V18.7059C164.038 21.5799 162.671 23.5191 160.374 24.3074C162.671 25.0991 164.038 26.9651 164.038 29.9124V48.304Z" fill="white"/>
<path d="M190.6 1.32227V51.6105H183.064V35.0884H175.886V51.6105H168.346V1.32227H190.6ZM183.064 8.5073H175.883V27.9034H183.064V8.5073Z" fill="white"/>
<path d="M213.502 19.9999C215.513 19.9999 216.806 21.3636 216.806 23.3064V48.304C216.806 50.2432 215.517 51.6105 213.502 51.6105H194.908V1.32227H216.088V8.5073H202.445V19.9999H213.502ZM202.448 44.4255H209.27V27.1849H202.448V44.4255Z" fill="white"/>
<path d="M220.753 1.32227H239.42V8.50729H228.293V20.7184H239.061V27.9034H228.293V44.4255H239.42V51.607H220.753V1.32227Z" fill="white"/>
<path d="M261.321 1.32227V8.50729H250.909V51.607H243.373V1.32227H261.321Z" fill="white"/>
<path d="M80.541 153.341C77.0412 157.624 73.2834 161.715 69.3095 165.562C50.6427 183.563 26.6983 196.517 0 202V185.82C22.1841 180.616 42.0779 169.542 57.7469 154.408C62.8955 149.438 67.591 144.035 71.7706 138.27L80.541 153.341Z" fill="#E04747"/>
<path d="M138.434 136.484C120.967 119.627 110.105 96.3771 110.105 70.8074V0H93.7663V70.8074C93.7663 83.2487 91.7166 97.8594 87.9589 109.153C84.2046 97.8594 82.1584 83.2522 82.1584 70.8074V0H65.7992V70.8074C65.7992 96.3771 54.9547 119.624 37.4661 136.484C27.0573 146.547 14.2467 154.339 0.00341797 158.974V175.489C18.7574 170.345 35.5767 160.617 49.0252 147.642C59.1307 137.893 67.34 126.317 73.0533 113.468C77.313 124.601 82.0294 135.134 87.9136 143.156L87.9554 143.205L87.9972 143.156C93.8744 135.134 98.5768 124.601 102.847 113.468C108.571 126.321 116.766 137.897 126.889 147.642C140.341 160.62 157.136 170.345 175.893 175.489V158.978C161.657 154.339 148.867 146.547 138.434 136.484Z" fill="#E04747"/>
<path d="M39.6692 69.3252C39.6692 87.9575 31.7528 104.898 19.0189 117.186C13.5077 122.505 7.0798 126.948 0 130.286V147.461C11.5591 143.216 21.9645 136.634 30.585 128.337C46.2749 113.21 56.0075 92.3208 56.0075 69.3217V53.3682H39.6692V69.3252Z" fill="#E04747"/>
<path d="M136.248 53.3721H119.889V69.3256C119.889 92.3212 129.643 113.207 145.333 128.341C153.932 136.631 164.334 143.227 175.897 147.468V130.29C168.834 126.949 162.41 122.505 156.895 117.186C144.154 104.895 136.248 87.9683 136.248 69.3256V53.3721Z" fill="#E04747"/>
<path d="M104.151 138.27C108.32 144.032 113.016 149.434 118.171 154.415C133.851 169.535 153.713 180.609 175.897 185.816V201.993C149.202 196.514 125.272 183.56 106.605 165.559C102.607 161.712 98.8524 157.617 95.3735 153.341L104.151 138.27Z" fill="#E04747"/>
<path d="M136.273 0.00390625V3.36622H120.58V1.01539H134.032V0.00390625H136.273Z" fill="#E04747"/>
<path d="M120.58 21.3035H129.367L123.964 18.726H120.58V16.3682H136.273V18.726H128.294L133.697 21.3035H136.273V23.6613H120.58V21.3035Z" fill="#E04747"/>
<path d="M120.58 29.6228C120.58 28.995 121.005 28.5939 121.611 28.5939H127.754V27.3592H120.58V25.0049H136.273V27.3592H129.998V28.5939H135.241C135.848 28.5939 136.273 28.995 136.273 29.6228V33.8397C136.273 34.4675 135.848 34.8721 135.241 34.8721H121.611C121.008 34.8721 120.58 34.471 120.58 33.8397V29.6228ZM122.821 32.5178H134.032V30.9482H122.821V32.5178Z" fill="#E04747"/>
<path d="M136.273 43.5045H120.58V41.1467H127.98V38.5692H120.58V36.2148H136.273V38.5692H130.222V41.1467H136.273V43.5045Z" fill="#E04747"/>
<path d="M120.58 44.3975L127.977 46.7064V45.9879C127.977 45.3601 128.402 44.9555 129.008 44.9555H135.241C135.848 44.9555 136.273 45.3636 136.273 45.9879V51.7953H120.58V49.4409H127.977V49.2177L120.58 46.8843V44.3975ZM134.032 47.3133H130.222V49.4444H134.032V47.3133Z" fill="#E04747"/>
<path d="M128.782 8.04991H127.879V5.68164H136.224V11.9982H133.969V8.04991H131.037V11.0739C131.037 11.7052 130.608 12.1133 130.002 12.1133H121.479C120.869 12.1133 120.44 11.7087 120.44 11.0739V6.72103C120.44 6.08973 120.869 5.68164 121.479 5.68164H125.627V8.04991H122.695V9.74153H128.785V8.04991H128.782Z" fill="#E04747"/>
</svg>
