<svg width="562" height="364" viewBox="0 0 562 364" fill="none" xmlns="http://www.w3.org/2000/svg">
<path d="M138.872 279.606C132.841 287.015 126.384 294.062 119.534 300.714C86.4928 332.598 45.117 354.418 0.213379 363.638V335.697C37.6117 326.925 71.9576 308.183 99.6268 281.448C108.47 272.886 116.547 263.561 123.765 253.581L138.872 279.606Z" fill="#E04646"/>
<path d="M238.536 250.499C223.204 235.874 210.979 218.286 202.597 198.793C194.216 179.301 189.85 158.308 189.763 137.078V14.791H161.638V137.078C161.634 159.53 158.263 181.854 151.639 203.299C145.021 181.852 141.654 159.529 141.652 137.078V14.791H113.49V137.078C113.411 158.31 109.047 179.306 100.664 198.799C92.2805 218.292 80.0502 235.879 64.711 250.499C46.4221 268.183 24.37 281.465 0.219238 289.344V317.862C31.9163 309.165 60.9344 292.629 84.6181 269.765C102.065 252.948 116.112 232.908 125.988 210.746C133.318 229.975 141.437 248.166 151.571 262.017L151.639 262.103L151.712 262.017C161.828 248.166 169.929 229.975 177.277 210.746C187.154 232.913 201.208 252.954 218.665 269.765C242.338 292.628 271.346 309.165 303.034 317.862V289.344C278.885 281.457 256.833 268.175 238.536 250.499Z" fill="#E04646"/>
<path d="M0 269.764V239.662L0.122573 239.604C12.179 233.922 23.2233 226.29 32.8136 217.013C43.9893 206.393 52.8973 193.603 58.9967 179.42C65.0961 165.238 68.2595 149.959 68.2947 134.511V106.744H96.8445V134.511C96.8162 153.619 92.9161 172.522 85.3813 190.07C77.8466 207.618 66.8348 223.444 53.0154 236.587C37.89 251.13 19.9403 262.388 0.286691 269.658L0 269.764ZM0.425878 239.933V269.151C19.913 261.897 37.7112 250.709 52.7204 236.278C66.4985 223.176 77.4775 207.397 84.9897 189.903C92.5019 172.408 96.3904 153.562 96.4186 134.511V107.171H68.7206V134.511C68.6854 150.016 65.5105 165.352 59.3886 179.588C53.2667 193.823 44.3257 206.661 33.1086 217.321C23.5169 226.599 12.4766 234.237 0.425878 239.933Z" fill="#082054"/>
<path d="M303.246 269.777L302.96 269.67C283.312 262.405 265.373 251.141 250.268 236.587C236.444 223.446 225.426 207.621 217.885 190.073C210.344 172.526 206.437 153.622 206.402 134.511V106.744H234.989V134.511C235.022 149.959 238.184 165.239 244.284 179.422C250.383 193.604 259.292 206.394 270.47 217.013C280.056 226.278 291.087 233.909 303.125 239.604L303.246 239.662V269.777ZM206.828 107.171V134.511C206.863 153.564 210.758 172.411 218.277 189.906C225.796 207.4 236.78 223.178 250.563 236.278C265.551 250.722 283.339 261.916 302.82 269.164V239.933C290.788 234.224 279.762 226.587 270.175 217.321C258.956 206.663 250.014 193.825 243.892 179.589C237.77 165.353 234.596 150.017 234.563 134.511V107.171H206.828Z" fill="#082054"/>
<path d="M179.512 253.581C186.726 263.57 194.804 272.902 203.651 281.467C231.32 308.181 265.652 326.915 303.034 335.697V363.632C258.138 354.412 216.772 332.592 183.744 300.708C176.876 294.076 170.418 287.029 164.406 279.607L179.512 253.581Z" fill="#E04646"/>
<path d="M234.816 14.792V20.6034H207.801V16.5352H230.958V14.792H234.816Z" fill="#E04646"/>
<path d="M207.801 24.8989C207.787 24.6613 207.823 24.4235 207.908 24.2011C207.992 23.9786 208.122 23.7767 208.29 23.6084C208.458 23.4401 208.659 23.3093 208.881 23.2247C209.102 23.14 209.339 23.1033 209.576 23.1171H233.041C233.278 23.1033 233.515 23.14 233.736 23.2246C233.958 23.3093 234.159 23.4401 234.327 23.6084C234.494 23.7767 234.625 23.9786 234.709 24.2011C234.793 24.4235 234.83 24.6613 234.816 24.8989V32.3753C234.83 32.6129 234.793 32.8507 234.709 33.0731C234.625 33.2954 234.494 33.4974 234.327 33.6656C234.159 33.8339 233.958 33.9647 233.736 34.0494C233.515 34.1341 233.278 34.1708 233.041 34.1571H209.576C209.339 34.1708 209.102 34.1341 208.881 34.0494C208.659 33.9647 208.458 33.8339 208.29 33.6656C208.123 33.4974 207.992 33.2954 207.908 33.073C207.824 32.8507 207.787 32.6129 207.801 32.3753V24.8989ZM211.66 30.09H230.957V27.1842H211.66V30.09Z" fill="#E04646"/>
<path d="M207.801 51.5812H222.93L213.629 47.1262H207.801V43.0591H234.816V47.1263H221.077L230.378 51.5813H234.816V55.6484H207.801V51.5812Z" fill="#E04646"/>
<path d="M207.801 65.9469C207.787 65.7093 207.824 65.4715 207.908 65.2491C207.992 65.0268 208.123 64.8248 208.29 64.6566C208.458 64.4883 208.659 64.3575 208.881 64.2728C209.102 64.1881 209.339 64.1514 209.576 64.1651H220.151V62.0341H207.801V57.9668H234.816V62.034H224.011V64.1649H233.041C233.278 64.1513 233.515 64.188 233.736 64.2727C233.958 64.3574 234.159 64.4882 234.327 64.6564C234.494 64.8247 234.625 65.0267 234.709 65.249C234.793 65.4714 234.83 65.7092 234.816 65.9467V73.2293C234.83 73.4669 234.793 73.7047 234.709 73.9271C234.625 74.1495 234.494 74.3515 234.327 74.5198C234.159 74.6881 233.958 74.8188 233.736 74.9035C233.515 74.9882 233.278 75.0248 233.041 75.0111H209.576C209.339 75.0248 209.102 74.9882 208.881 74.9035C208.659 74.8188 208.458 74.6881 208.29 74.5198C208.122 74.3515 207.992 74.1495 207.908 73.9271C207.823 73.7047 207.787 73.4669 207.801 73.2293V65.9469ZM211.66 70.944H230.957V68.2323H211.66V70.944Z" fill="#E04646"/>
<path d="M234.816 89.9184H207.801V85.8513H220.537V81.3963H207.801V77.3291H234.816V81.3963H224.396V85.8513H234.816V89.9184Z" fill="#E04646"/>
<path d="M207.801 91.4624L220.537 95.4524V94.2128C220.524 93.9751 220.56 93.7372 220.644 93.5147C220.729 93.2923 220.859 93.0902 221.027 92.9218C221.194 92.7534 221.396 92.6225 221.617 92.5378C221.839 92.453 222.076 92.4162 222.313 92.4298H233.041C233.278 92.4162 233.515 92.453 233.737 92.5378C233.958 92.6225 234.159 92.7534 234.327 92.9218C234.495 93.0902 234.625 93.2923 234.709 93.5147C234.794 93.7372 234.83 93.9751 234.816 94.2128V104.246H207.801V100.179H220.537V99.7908L207.801 95.7622V91.4624ZM230.958 100.178V96.4981H224.396V100.179L230.958 100.178Z" fill="#E04646"/>
<path d="M0 363.901V335.529L0.164118 335.49C37.5282 326.734 71.8418 308.009 99.4786 281.294C108.311 272.739 116.38 263.424 123.592 253.456L123.784 253.191L123.948 253.473L139.129 279.627L139.037 279.742C132.999 287.156 126.536 294.21 119.681 300.869C86.6315 332.809 45.2104 354.652 0.255527 363.846L0 363.901ZM0.425878 335.867V363.375C45.2054 354.167 86.4591 332.384 119.386 300.561C126.194 293.948 132.614 286.945 138.614 279.586L123.745 253.971C116.566 263.86 108.545 273.105 99.7736 281.602C72.1233 308.331 37.8017 327.078 0.425878 335.867Z" fill="#082054"/>
<path d="M303.246 318.141L302.977 318.068C271.262 309.344 242.227 292.791 218.518 269.919C201.149 253.222 187.151 233.32 177.292 211.302C171.233 227.122 162.893 247.069 151.883 262.145L151.63 262.439L151.404 262.149C142.728 250.291 134.877 234.595 125.973 211.302C116.115 233.315 102.124 253.217 84.7656 269.919C61.0472 292.795 32.001 309.348 0.275361 318.068L0.00634766 318.141V289.19L0.153852 289.142C24.2636 281.25 46.2829 267.987 64.5638 250.345C79.9129 235.769 92.147 218.211 100.521 198.738C108.896 179.266 113.236 158.287 113.277 137.078V14.5771H141.864V137.078C141.845 159.292 145.14 181.383 151.638 202.618C158.144 181.385 161.443 159.293 161.425 137.078V14.5771H189.976V137.078C190.024 158.286 194.367 179.262 202.74 198.733C211.113 218.204 223.342 235.764 238.684 250.345C256.974 267.977 278.993 281.239 303.099 289.142L303.246 289.19L303.246 318.141ZM177.263 210.188L177.472 210.657C187.317 232.811 201.358 252.833 218.813 269.61C242.402 292.368 271.277 308.857 302.82 317.582V289.499C278.71 281.57 256.688 268.294 238.389 250.653C223.277 236.107 211.146 218.735 202.678 199.515C194.001 179.853 189.529 158.583 189.55 137.078V15.0046H161.851V137.078C161.875 159.555 158.5 181.906 151.84 203.365L151.638 203.974L151.437 203.365C144.784 181.904 141.413 159.554 141.438 137.078V15.0046H113.703V137.078C113.726 158.582 109.257 179.852 100.586 199.515C92.1198 218.74 79.982 236.114 64.8588 250.653C46.5694 268.304 24.5465 281.582 0.432204 289.499V317.582C31.9858 308.86 60.8716 292.371 84.4705 269.61C101.915 252.827 115.948 232.806 125.793 210.657L126.002 210.186L126.186 210.668C135.118 234.101 142.973 249.865 151.642 261.753C162.676 246.594 171.031 226.496 177.079 210.668L177.263 210.188Z" fill="#082054"/>
<path d="M68.5077 134.511C68.4446 149.983 65.2628 165.282 59.1539 179.487C53.045 193.692 44.1353 206.51 32.9613 217.167C23.3499 226.455 12.2874 234.1 0.213379 239.798V269.458C19.8518 262.224 37.7814 250.978 52.8685 236.433C66.6401 223.29 77.6175 207.483 85.139 189.966C92.6604 172.45 96.5701 153.585 96.6324 134.511V106.957H68.5077V134.511Z" fill="#E04646"/>
<path d="M234.776 106.957H206.615V134.511C206.684 153.588 210.601 172.453 218.129 189.969C225.656 207.486 236.639 223.291 250.415 236.433C265.482 250.989 283.402 262.24 303.034 269.47V239.798C290.978 234.088 279.93 226.444 270.323 217.167C259.145 206.512 250.233 193.696 244.124 179.49C238.014 165.284 234.835 149.984 234.776 134.511V106.957Z" fill="#E04646"/>
<path d="M303.246 363.894L302.99 363.84C258.045 354.645 216.634 332.802 183.596 300.863C176.724 294.222 170.26 287.169 164.24 279.742L164.148 279.627L164.222 279.498L179.493 253.191L179.685 253.456C186.894 263.433 194.963 272.754 203.798 281.312C231.438 308.002 265.736 326.718 303.082 335.489L303.246 335.529L303.246 363.894ZM164.663 279.585C170.644 286.958 177.065 293.961 183.891 300.554C216.806 332.376 258.05 354.16 302.82 363.368V335.867C265.463 327.062 231.157 308.324 203.503 281.62C194.728 273.12 186.708 263.869 179.532 253.971L164.663 279.585Z" fill="#082054"/>
<path d="M430.542 26.0131C455.353 18.7175 479.013 20.6849 490.826 23.7848C504.792 27.4495 509.424 30.1994 521.787 31.5834C532.775 32.8135 561.978 23.9904 558.239 30.6271C553.366 39.2783 554.699 73.1603 561.976 87.2867C563.035 89.3412 528.451 94.4286 507.497 90.6291C478.609 85.3909 469.308 76.606 450.339 80.6026C443.312 82.1176 436.643 84.9539 430.691 88.9581C432.626 68.0692 428.607 46.9019 430.542 26.0131Z" fill="#FC645D"/>
<path d="M447.319 42.3758L448.11 51.1983L444.284 51.5297L443.494 42.7072L440 43.0088L442.054 65.8858L445.547 65.5842L444.576 54.7985L448.402 54.4671L449.373 65.2528L452.862 64.9512L450.813 42.0742L447.319 42.3758ZM457.448 42L457.211 64.9661L460.715 65.0007L460.795 57.4541L464.133 57.4887L464.058 65.0303L467.561 65.065L467.798 42.1039L457.448 42ZM464.168 54.205L460.826 54.1753L460.921 45.3183L464.259 45.348L464.168 54.205ZM493.023 68.5711L494.639 61.1927L491.211 60.4657L490.3 64.6346L487.199 63.9818L490.713 47.9442L493.814 48.6019L493.114 51.8065L496.542 52.5335L497.947 46.1194L489.489 44.3292C489.292 44.2758 489.085 44.2641 488.883 44.2946C488.681 44.3252 488.487 44.3975 488.315 44.5068C488.143 44.616 487.996 44.7597 487.885 44.9286C487.773 45.0974 487.699 45.2875 487.667 45.4864L483.388 64.9859C483.334 65.1803 483.322 65.3839 483.353 65.5833C483.384 65.7827 483.457 65.9734 483.568 66.1428C483.68 66.3123 483.826 66.4568 483.998 66.5668C484.17 66.6767 484.364 66.7498 484.566 66.781L493.023 68.5711ZM500.514 50.2834L503.771 51.0054L499.381 70.2081L502.799 70.9647L507.194 51.762L510.451 52.4791L511.186 49.2795L501.244 47.0838L500.514 50.2834ZM513.079 49.6257L509.686 72.3444L513.154 72.8439L514.267 65.3814L517.574 65.8562L516.457 73.3236L519.925 73.8231L523.318 51.0994L513.079 49.6257ZM518.058 62.612L514.755 62.1323L516.064 53.3692L519.366 53.849L518.058 62.612ZM529.122 54.7935L532.45 55.0359L531.79 63.8682L528.458 63.6258L529.122 54.7935ZM533.507 67.2804C533.71 67.3076 533.917 67.2922 534.113 67.2351C534.31 67.178 534.492 67.0807 534.648 66.9494C534.803 66.8181 534.929 66.6558 535.016 66.4733C535.103 66.2909 535.15 66.0923 535.153 65.8908L536.079 53.5225C536.107 53.3224 536.091 53.1188 536.032 52.9252C535.974 52.7316 535.874 52.5525 535.74 52.3996C535.606 52.2467 535.44 52.1236 535.254 52.0384C535.068 51.9532 534.865 51.9079 534.66 51.9054L525.87 51.2675L524.154 74.1692L527.647 74.4263L528.216 66.8996L533.507 67.2804ZM537.816 55.3177L541.154 55.3127L541.184 75L544.693 74.995L544.662 55.3078L548 55.3028L547.995 52.0241L537.811 52.0389L537.816 55.3177Z" fill="#0F2572"/>
<path d="M280.6 66.76V97.48C280.6 100.72 278.44 103 275.08 103H244V75.4H256.6V91H268V63.4H256.6V51.4H268V31H256.6V43H244V19H275.08C278.44 19 280.6 21.28 280.6 24.52V48.04C280.6 52.84 278.32 56.08 274.48 57.4C278.32 58.72 280.6 61.84 280.6 66.76ZM287.842 19H325.042V103H312.442V75.4H300.442V103H287.842V19ZM312.442 63.4V31H300.442V63.4H312.442ZM344.856 62.2V91H356.256V62.2H344.856ZM344.856 50.2H363.336C366.696 50.2 368.856 52.48 368.856 55.72V97.48C368.856 100.72 366.696 103 363.336 103H332.256V19H367.656V31H344.856V50.2ZM375.498 103V19H406.698V31H388.098V51.4H406.098V63.4H388.098V91H406.698V103H375.498ZM413.35 19H443.35V31H425.95V103H413.35V19Z" fill="white"/>
</svg>
