<svg width="64" height="64" viewBox="0 0 64 64" fill="none" xmlns="http://www.w3.org/2000/svg">
<g clip-path="url(#clip0_933_5105)">
<path d="M32.0001 0.640137C14.6817 0.640137 0.640137 14.6817 0.640137 32.0001C0.640137 49.3185 14.6817 63.3601 32.0001 63.3601C49.3121 63.3601 63.3601 49.3185 63.3601 32.0001C63.3601 14.6817 49.3121 0.640137 32.0001 0.640137ZM12.1153 19.8465C12.5569 18.3937 13.4913 17.4913 14.9569 17.1905C15.5649 17.0625 16.2049 17.0433 16.8257 17.0369C21.8817 17.0241 26.9441 17.0305 32.0001 17.0305C37.1777 17.0305 42.3489 17.0305 47.5265 17.0305C49.3761 17.0305 50.9249 17.5745 51.7505 19.3985C52.1153 20.2113 52.0449 20.7745 51.1553 21.3249C45.0369 25.1393 38.9505 29.0113 32.8769 32.8961C32.2177 33.3185 31.7825 33.3185 31.1169 32.9025C24.9793 28.9665 18.8225 25.0625 12.6529 21.1841C12.0897 20.8257 11.9233 20.4865 12.1153 19.8465ZM51.9233 24.1665V40.6081C47.5649 37.8305 43.3345 35.1425 39.0145 32.3905C43.3473 29.6257 47.5585 26.9441 51.9233 24.1665ZM25.0049 32.3841C20.6465 35.1617 16.4225 37.8433 12.0705 40.6209V24.1537C16.3905 26.9057 20.6337 29.6065 25.0049 32.3841ZM51.8273 45.2097C51.2769 46.7969 49.8177 47.7057 47.7057 47.7057C42.4513 47.7121 37.1969 47.7057 31.9425 47.7057C26.6881 47.7057 21.4337 47.7121 16.1793 47.7057C14.0609 47.7057 12.6529 46.7137 12.1217 44.9793C11.9297 44.3521 12.0257 43.9873 12.6081 43.6289C17.4209 40.6145 22.2145 37.5553 27.0401 34.5601C27.3601 34.3617 27.9937 34.3745 28.3457 34.5537C29.3505 35.0721 30.3041 35.7057 31.2385 36.3521C31.7633 36.7169 32.1793 36.7361 32.7169 36.3649C33.6513 35.7249 34.6561 35.1873 35.5905 34.5345C36.1345 34.1505 36.5121 34.2145 37.0497 34.5601C41.7665 37.5809 46.5025 40.5825 51.2577 43.5457C52.0001 44.0001 52.0705 44.5057 51.8273 45.2097Z" fill="white"/>
</g>
<defs>
<clipPath id="clip0_933_5105">
<rect width="64" height="64" fill="white"/>
</clipPath>
</defs>
</svg>
