<svg width="200" height="54" viewBox="0 0 200 54" fill="none" xmlns="http://www.w3.org/2000/svg">
<g clip-path="url(#clip0_1185_9121)">
<path fill-rule="evenodd" clip-rule="evenodd" d="M25.4971 40.8814C26.4316 42.0146 27.4339 43.0902 28.4985 44.1021C33.6501 48.9787 40.0706 52.3064 47.0252 53.7043V49.4412C41.2335 48.1084 35.9038 45.2505 31.5889 41.1637C30.2157 39.8592 28.9612 38.4353 27.8401 36.9088L25.4971 40.8814Z" fill="white"/>
<path fill-rule="evenodd" clip-rule="evenodd" d="M10.0158 36.442C12.3905 34.2246 14.2872 31.5456 15.5896 28.569C16.8919 25.5925 17.5724 22.3813 17.5893 19.1323L17.5899 0.472107H21.9604L21.961 19.1323C21.9621 22.5607 22.4853 25.9688 23.5125 29.2396C24.5399 25.9688 25.0632 22.5607 25.0644 19.1323L25.0648 0.472107H29.4352L29.4358 19.1323C29.4528 22.3813 30.1333 25.5925 31.4357 28.5691C32.738 31.5456 34.6348 34.2247 37.0096 36.442C39.8607 39.1443 43.2841 41.1695 47.0254 42.3671V46.7189C42.1148 45.3997 37.6105 42.8776 33.9194 39.3805C31.2168 36.822 29.0349 33.7646 27.4941 30.3769C26.3535 33.308 25.0947 36.0826 23.5228 38.1958L23.5125 38.2099L23.5023 38.1958C21.9306 36.0826 20.6718 33.308 19.5311 30.3769C17.9903 33.7646 15.8083 36.822 13.1056 39.3805C9.41467 42.8776 4.91043 45.3997 0 46.7189L0 42.3671C3.74132 41.1695 7.1647 39.1443 10.0158 36.442Z" fill="white"/>
<path fill-rule="evenodd" clip-rule="evenodd" d="M36.4235 18.7424C36.436 21.1099 36.9321 23.4498 37.8812 25.6188C38.8304 27.7877 40.2126 29.7399 41.9432 31.3555C43.4386 32.7745 45.1552 33.9404 47.0256 34.8073V39.3332C43.9828 38.2353 41.2002 36.5196 38.8528 34.294C36.7199 32.3017 35.0165 29.8945 33.8471 27.2203C32.6778 24.546 32.0672 21.6611 32.0527 18.7424V14.5379H36.4235V18.7424Z" fill="white"/>
<path fill-rule="evenodd" clip-rule="evenodd" d="M10.6018 14.5379H14.9726V18.7424C14.9582 21.6611 14.3476 24.546 13.1782 27.2203C12.0089 29.8945 10.3055 32.3017 8.17257 34.294C5.82527 36.5197 3.04272 38.2354 0 39.3332L0 34.8073C1.87038 33.9404 3.58699 32.7745 5.08235 31.3555C6.81291 29.7399 8.19514 27.7877 9.14425 25.6188C10.0934 23.4498 10.5894 21.1098 10.6018 18.7424V14.5379Z" fill="white"/>
<path fill-rule="evenodd" clip-rule="evenodd" d="M19.1849 36.9088C18.0638 38.4352 16.8093 39.8591 15.4363 41.1637C11.1214 45.2504 5.7917 48.1084 0 49.4412L0 53.7043C6.95452 52.3064 13.375 48.9787 18.5265 44.1021C19.5911 43.0902 20.5934 42.0146 21.5279 40.8814L19.1849 36.9088Z" fill="white"/>
<path fill-rule="evenodd" clip-rule="evenodd" d="M66.0088 43.1369H65.903L62.9088 29.0472H58.4004V53.7043H62.0987V43.1369L61.4294 36.092H61.6057L64.2477 48.773H67.6993L70.2709 36.092H70.4468L69.8483 43.1369V53.7043H73.5468V29.0472H69.0378L66.0088 43.1369ZM79.3587 50.1816V32.5698H83.0573V50.1816H79.3587ZM85.1352 53.7043C85.3513 53.7167 85.5676 53.6834 85.7698 53.6063C85.9721 53.5293 86.1558 53.4104 86.3088 53.2573C86.4619 53.1043 86.5808 52.9206 86.6579 52.7183C86.7349 52.5161 86.7683 52.2998 86.7558 52.0837V30.6678C86.7682 30.4517 86.7348 30.2355 86.6578 30.0332C86.5807 29.831 86.4618 29.6473 86.3088 29.4942C86.1557 29.3412 85.9721 29.2223 85.7698 29.1452C85.5676 29.0682 85.3513 29.0348 85.1352 29.0472H77.2805C77.0645 29.0348 76.8482 29.0682 76.646 29.1452C76.4438 29.2223 76.2601 29.3412 76.1071 29.4943C75.9541 29.6473 75.8351 29.831 75.7581 30.0332C75.6811 30.2355 75.6477 30.4517 75.6602 30.6678V52.0837C75.6477 52.2998 75.681 52.516 75.758 52.7183C75.835 52.9206 75.954 53.1043 76.107 53.2573C76.26 53.4103 76.4437 53.5293 76.646 53.6063C76.8482 53.6834 77.0645 53.7167 77.2805 53.7043H85.1352ZM99.6123 53.7043V45.6026H95.9138V50.1816H92.5677V32.5698H95.9138V36.092H99.6123V29.0472H90.4895C90.2734 29.0348 90.0572 29.0682 89.855 29.1452C89.6527 29.2223 89.4691 29.3412 89.3161 29.4943C89.163 29.6473 89.0441 29.831 88.9671 30.0332C88.8901 30.2355 88.8567 30.4517 88.8692 30.6678V52.0837C88.8567 52.2998 88.89 52.516 88.967 52.7183C89.044 52.9206 89.163 53.1042 89.316 53.2573C89.469 53.4103 89.6527 53.5293 89.8549 53.6063C90.0572 53.6834 90.2734 53.7167 90.4895 53.7043H99.6123ZM101.55 29.0472V53.7043H105.248V32.5698H110.356V29.0472H101.55ZM115.463 50.1816V32.5698H119.161V50.1816H115.463ZM121.24 53.7043C121.456 53.7167 121.672 53.6834 121.874 53.6063C122.077 53.5293 122.26 53.4103 122.413 53.2573C122.566 53.1042 122.685 52.9205 122.762 52.7183C122.839 52.516 122.872 52.2998 122.86 52.0837V30.6678C122.872 30.4517 122.839 30.2355 122.762 30.0332C122.685 29.831 122.566 29.6473 122.413 29.4943C122.26 29.3412 122.076 29.2223 121.874 29.1452C121.672 29.0682 121.456 29.0348 121.24 29.0472H113.385C113.169 29.0348 112.953 29.0682 112.75 29.1452C112.548 29.2223 112.364 29.3412 112.211 29.4943C112.058 29.6473 111.94 29.831 111.863 30.0332C111.786 30.2355 111.752 30.4517 111.765 30.6678V52.0837C111.752 52.2998 111.786 52.516 111.862 52.7183C111.939 52.9205 112.058 53.1042 112.211 53.2573C112.364 53.4103 112.548 53.5293 112.75 53.6063C112.953 53.6834 113.169 53.7167 113.385 53.7043H121.24ZM128.672 32.5698H132.195V42.0805H128.672V32.5698ZM134.273 45.6026C134.489 45.6151 134.705 45.5818 134.907 45.5048C135.109 45.4278 135.293 45.3089 135.446 45.1559C135.599 45.0029 135.718 44.8192 135.795 44.617C135.872 44.4148 135.906 44.1986 135.893 43.9825V30.6678C135.906 30.4517 135.872 30.2355 135.795 30.0332C135.718 29.831 135.599 29.6473 135.446 29.4942C135.293 29.3412 135.109 29.2223 134.907 29.1452C134.705 29.0682 134.489 29.0348 134.273 29.0472H124.973V53.7043H128.672V45.6026H134.273ZM148.573 53.7043V45.6026H144.875V50.1816H141.529V32.5698H144.875V36.092H148.573V29.0472H139.451C139.234 29.0348 139.018 29.0682 138.816 29.1452C138.614 29.2223 138.43 29.3412 138.277 29.4943C138.124 29.6473 138.005 29.831 137.928 30.0332C137.851 30.2355 137.818 30.4517 137.83 30.6678V52.0837C137.818 52.2998 137.851 52.516 137.928 52.7183C138.005 52.9206 138.124 53.1043 138.277 53.2573C138.43 53.4104 138.614 53.5293 138.816 53.6063C139.018 53.6834 139.234 53.7167 139.451 53.7043H148.573ZM150.511 29.0472V53.7043H154.209V32.5698H158.084V53.7043H161.782V29.0472H150.511ZM167.594 50.1816V32.5698H171.293V50.1816H167.594ZM173.371 53.7043C173.587 53.7167 173.803 53.6834 174.005 53.6063C174.208 53.5293 174.391 53.4103 174.544 53.2573C174.697 53.1042 174.816 52.9205 174.893 52.7183C174.97 52.516 175.003 52.2998 174.991 52.0837V30.6678C175.003 30.4517 174.97 30.2355 174.893 30.0332C174.816 29.831 174.697 29.6473 174.544 29.4943C174.391 29.3412 174.208 29.2223 174.005 29.1452C173.803 29.0682 173.587 29.0348 173.371 29.0472H165.516C165.3 29.0348 165.084 29.0682 164.881 29.1452C164.679 29.2223 164.496 29.3412 164.343 29.4943C164.19 29.6473 164.071 29.831 163.994 30.0332C163.917 30.2355 163.883 30.4517 163.896 30.6678V52.0837C163.883 52.2998 163.917 52.516 163.994 52.7183C164.071 52.9205 164.189 53.1042 164.342 53.2573C164.495 53.4103 164.679 53.5293 164.881 53.6063C165.084 53.6834 165.3 53.7167 165.516 53.7043H173.371ZM180.803 32.5698H184.326V42.0805H180.803V32.5698ZM186.404 45.6026C186.62 45.6151 186.836 45.5818 187.038 45.5048C187.24 45.4278 187.424 45.3089 187.577 45.1559C187.73 45.0029 187.849 44.8192 187.926 44.617C188.003 44.4148 188.037 44.1986 188.024 43.9825V30.6678C188.037 30.4517 188.003 30.2355 187.926 30.0332C187.849 29.831 187.73 29.6473 187.577 29.4942C187.424 29.3412 187.24 29.2223 187.038 29.1452C186.836 29.0682 186.62 29.0348 186.404 29.0472H177.105V53.7043H180.803V45.6026H186.404ZM189.257 32.5698H192.779V53.7043H196.477V32.5698H200V29.0472H189.257V32.5698Z" fill="white"/>
</g>
<defs>
<clipPath id="clip0_1185_9121">
<rect width="200" height="53.2322" fill="white" transform="translate(0 0.472107)"/>
</clipPath>
</defs>
</svg>
