<svg width="101" height="28" viewBox="0 0 101 28" fill="none" xmlns="http://www.w3.org/2000/svg">
<g clip-path="url(#clip0_1186_9301)">
<path fill-rule="evenodd" clip-rule="evenodd" d="M13.3965 20.858C13.8637 21.4246 14.3649 21.9624 14.8972 22.4684C17.473 24.9067 20.6833 26.5705 24.1606 27.2695V25.1379C21.2647 24.4715 18.5998 23.0426 16.4424 20.9992C15.7558 20.3469 15.1286 19.635 14.568 18.8717L13.3965 20.858Z" fill="#EB3333"/>
<path fill-rule="evenodd" clip-rule="evenodd" d="M5.65535 18.6382C6.84272 17.5296 7.79107 16.19 8.44224 14.7018C9.09341 13.2135 9.43366 11.6079 9.44213 9.98344L9.44243 0.65332H11.6276L11.6279 9.98344C11.6285 11.6976 11.8901 13.4017 12.4037 15.0371C12.9174 13.4017 13.1791 11.6976 13.1797 9.98344L13.1799 0.65332H15.3651L15.3654 9.98344C15.3738 11.6079 15.7141 13.2135 16.3653 14.7018C17.0165 16.1901 17.9649 17.5296 19.1523 18.6382C20.5778 19.9894 22.2895 21.002 24.1601 21.6008V23.7767C21.7049 23.1171 19.4527 21.8561 17.6072 20.1075C16.2559 18.8283 15.1649 17.2995 14.3945 15.6057C13.8242 17.0713 13.1948 18.4586 12.4089 19.5152L12.4037 19.5222L12.3986 19.5152C11.6128 18.4586 10.9833 17.0713 10.413 15.6057C9.6426 17.2996 8.55161 18.8283 7.20024 20.1075C5.3548 21.8561 3.10267 23.1171 0.647461 23.7767L0.647461 21.6008C2.51812 21.002 4.22981 19.9894 5.65535 18.6382Z" fill="#EB3333"/>
<path fill-rule="evenodd" clip-rule="evenodd" d="M18.8592 9.78839C18.8655 10.9721 19.1135 12.1421 19.5881 13.2266C20.0626 14.3111 20.7538 15.2871 21.6191 16.095C22.3667 16.8045 23.225 17.3874 24.1602 17.8209V20.0838C22.6389 19.5349 21.2476 18.677 20.0739 17.5642C19.0074 16.568 18.1557 15.3645 17.571 14.0273C16.9864 12.6902 16.681 11.2477 16.6738 9.78839V7.68616H18.8592V9.78839Z" fill="#EB3333"/>
<path fill-rule="evenodd" clip-rule="evenodd" d="M5.94836 7.68616H8.13377V9.78839C8.12655 11.2477 7.82124 12.6902 7.23658 14.0273C6.65191 15.3645 5.80022 16.568 4.73375 17.5642C3.5601 18.677 2.16882 19.5349 0.647461 20.0838L0.647461 17.8209C1.58265 17.3874 2.44096 16.8045 3.18864 16.095C4.05391 15.2871 4.74503 14.3111 5.21959 13.2266C5.69415 12.1421 5.94214 10.9721 5.94836 9.78839V7.68616Z" fill="#EB3333"/>
<path fill-rule="evenodd" clip-rule="evenodd" d="M10.2399 18.8717C9.67936 19.6349 9.05213 20.3469 8.36561 20.9992C6.20815 23.0425 3.54331 24.4715 0.647461 25.1379L0.647461 27.2695C4.12472 26.5705 7.33495 24.9067 9.91072 22.4684C10.443 21.9624 10.9442 21.4246 11.4114 20.858L10.2399 18.8717Z" fill="#EB3333"/>
<path fill-rule="evenodd" clip-rule="evenodd" d="M33.6519 21.9857H33.599L32.1019 14.9408H29.8477V27.2694H31.6968V21.9857L31.3622 18.4633H31.4503L32.7713 24.8037H34.4971L35.7829 18.4633H35.8709L35.5716 21.9857V27.2694H37.4209V14.9408H35.1664L33.6519 21.9857ZM40.3268 25.5081V16.7021H42.1761V25.5081H40.3268ZM43.2151 27.2694C43.3231 27.2756 43.4312 27.2589 43.5324 27.2204C43.6335 27.1819 43.7254 27.1224 43.8019 27.0459C43.8784 26.9694 43.9379 26.8775 43.9764 26.7764C44.0149 26.6753 44.0316 26.5671 44.0254 26.4591V15.7511C44.0316 15.6431 44.0149 15.535 43.9764 15.4338C43.9378 15.3327 43.8784 15.2409 43.8018 15.1644C43.7253 15.0878 43.6335 15.0284 43.5324 14.9898C43.4312 14.9513 43.3231 14.9346 43.2151 14.9408H39.2877C39.1797 14.9346 39.0716 14.9513 38.9705 14.9899C38.8693 15.0284 38.7775 15.0878 38.701 15.1644C38.6245 15.2409 38.565 15.3327 38.5265 15.4338C38.488 15.535 38.4713 15.6431 38.4775 15.7511V26.4591C38.4713 26.5671 38.488 26.6753 38.5265 26.7764C38.565 26.8775 38.6244 26.9694 38.701 27.0459C38.7775 27.1224 38.8693 27.1819 38.9704 27.2204C39.0716 27.2589 39.1797 27.2756 39.2877 27.2694H43.2151ZM50.4536 27.2694V23.2186H48.6044V25.5081H46.9313V16.7021H48.6044V18.4633H50.4536V14.9408H45.8922C45.7842 14.9346 45.6761 14.9513 45.5749 14.9899C45.4738 15.0284 45.382 15.0879 45.3055 15.1644C45.229 15.2409 45.1695 15.3327 45.131 15.4339C45.0925 15.535 45.0758 15.6431 45.082 15.7511V26.4591C45.0758 26.5671 45.0925 26.6753 45.131 26.7764C45.1695 26.8775 45.2289 26.9694 45.3055 27.0459C45.382 27.1224 45.4738 27.1819 45.5749 27.2204C45.676 27.2589 45.7842 27.2756 45.8922 27.2694H50.4536ZM51.4224 14.9408V27.2694H53.2715V16.7021H55.8255V14.9408H51.4224ZM58.3789 25.5081V16.7021H60.2282V25.5081H58.3789ZM61.2673 27.2694C61.3754 27.2756 61.4835 27.2589 61.5846 27.2204C61.6857 27.1819 61.7776 27.1224 61.8541 27.0459C61.9306 26.9694 61.99 26.8775 62.0285 26.7764C62.067 26.6752 62.0837 26.5671 62.0774 26.4591V15.7511C62.0837 15.6431 62.067 15.535 62.0285 15.4339C61.99 15.3327 61.9305 15.2409 61.854 15.1644C61.7775 15.0879 61.6857 15.0284 61.5846 14.9899C61.4835 14.9513 61.3754 14.9346 61.2673 14.9408H57.3399C57.2319 14.9346 57.1238 14.9513 57.0226 14.9899C56.9215 15.0284 56.8297 15.0879 56.7532 15.1644C56.6767 15.2409 56.6172 15.3327 56.5787 15.4339C56.5402 15.535 56.5236 15.6431 56.5298 15.7511V26.4591C56.5236 26.5671 56.5402 26.6752 56.5787 26.7764C56.6172 26.8775 56.6767 26.9694 56.7532 27.0459C56.8297 27.1224 56.9215 27.1819 57.0226 27.2204C57.1237 27.2589 57.2319 27.2756 57.3399 27.2694H61.2673ZM64.9835 16.7021H66.7448V21.4575H64.9835V16.7021ZM67.7838 23.2186C67.8918 23.2248 67.9999 23.2081 68.101 23.1696C68.2022 23.1311 68.294 23.0717 68.3705 22.9952C68.447 22.9187 68.5065 22.8269 68.545 22.7257C68.5836 22.6246 68.6003 22.5165 68.5941 22.4085V15.7511C68.6003 15.6431 68.5836 15.535 68.545 15.4338C68.5065 15.3327 68.4471 15.2409 68.3705 15.1644C68.294 15.0878 68.2022 15.0284 68.1011 14.9898C67.9999 14.9513 67.8918 14.9346 67.7838 14.9408H63.1342V27.2694H64.9835V23.2186H67.7838ZM74.9341 27.2694V23.2186H73.0849V25.5081H71.4117V16.7021H73.0849V18.4633H74.9341V14.9408H70.3727C70.2647 14.9346 70.1566 14.9513 70.0555 14.9899C69.9543 15.0284 69.8625 15.0878 69.786 15.1644C69.7095 15.2409 69.65 15.3327 69.6115 15.4338C69.573 15.535 69.5563 15.6431 69.5625 15.7511V26.4591C69.5562 26.5671 69.5729 26.6753 69.6114 26.7764C69.65 26.8775 69.7094 26.9694 69.7859 27.0459C69.8625 27.1224 69.9543 27.1819 70.0554 27.2204C70.1566 27.2589 70.2647 27.2756 70.3727 27.2694H74.9341ZM75.9028 14.9408V27.2694H77.752V16.7021H79.6893V27.2694H81.5385V14.9408H75.9028ZM84.4446 25.5081V16.7021H86.2939V25.5081H84.4446ZM87.3329 27.2694C87.4409 27.2756 87.549 27.2589 87.6501 27.2204C87.7513 27.1819 87.8431 27.1224 87.9196 27.0459C87.9961 26.9694 88.0555 26.8775 88.094 26.7764C88.1325 26.6752 88.1492 26.5671 88.1429 26.4591V15.7511C88.1492 15.6431 88.1325 15.535 88.094 15.4339C88.0555 15.3327 87.9961 15.2409 87.9195 15.1644C87.843 15.0879 87.7512 15.0284 87.6501 14.9899C87.549 14.9513 87.4409 14.9346 87.3329 14.9408H83.4054C83.2974 14.9346 83.1893 14.9513 83.0882 14.9899C82.987 15.0284 82.8952 15.0879 82.8187 15.1644C82.7422 15.2409 82.6828 15.3327 82.6443 15.4339C82.6058 15.535 82.5891 15.6431 82.5953 15.7511V26.4591C82.5891 26.5671 82.6057 26.6752 82.6442 26.7764C82.6827 26.8775 82.7422 26.9694 82.8187 27.0459C82.8952 27.1224 82.987 27.1819 83.0881 27.2204C83.1893 27.2589 83.2974 27.2756 83.4054 27.2694H87.3329ZM91.049 16.7021H92.8103V21.4575H91.049V16.7021ZM93.8493 23.2186C93.9573 23.2248 94.0654 23.2081 94.1665 23.1696C94.2677 23.1311 94.3595 23.0717 94.436 22.9952C94.5126 22.9187 94.572 22.8269 94.6105 22.7257C94.6491 22.6246 94.6658 22.5165 94.6596 22.4085V15.7511C94.6658 15.6431 94.6491 15.535 94.6106 15.4338C94.572 15.3327 94.5126 15.2409 94.4361 15.1644C94.3595 15.0878 94.2677 15.0284 94.1666 14.9898C94.0654 14.9513 93.9573 14.9346 93.8493 14.9408H89.1997V27.2694H91.049V23.2186H93.8493ZM95.2759 16.7021H97.037V27.2694H98.8861V16.7021H100.647V14.9408H95.2759V16.7021Z" fill="#EB3333"/>
</g>
<defs>
<clipPath id="clip0_1186_9301">
<rect width="100" height="26.6161" fill="white" transform="translate(0.647461 0.65332)"/>
</clipPath>
</defs>
</svg>
