<svg width="101" height="27" viewBox="0 0 101 27" fill="none" xmlns="http://www.w3.org/2000/svg">
<g clip-path="url(#clip0_1186_9444)">
<path fill-rule="evenodd" clip-rule="evenodd" d="M13.0439 20.4404C13.5112 21.007 14.0124 21.5448 14.5447 22.0508C17.1205 24.4891 20.3307 26.1529 23.808 26.8519V24.7203C20.9122 24.0539 18.2473 22.625 16.0899 20.5816C15.4033 19.9293 14.776 19.2174 14.2155 18.4541L13.0439 20.4404Z" fill="white"/>
<path fill-rule="evenodd" clip-rule="evenodd" d="M5.30281 18.2208C6.49018 17.1121 7.43853 15.7726 8.0897 14.2843C8.74087 12.796 9.08112 11.1904 9.08959 9.56596L9.08989 0.23584H11.2751L11.2754 9.56596C11.276 11.2801 11.5376 12.9842 12.0512 14.6196C12.5649 12.9842 12.8265 11.2801 12.8271 9.56596L12.8273 0.23584H15.0125L15.0128 9.56596C15.0213 11.1904 15.3616 12.7961 16.0128 14.2843C16.6639 15.7726 17.6123 17.1121 18.7997 18.2208C20.2253 19.572 21.937 20.5846 23.8076 21.1833V23.3592C21.3523 22.6996 19.1002 21.4386 17.2546 19.69C15.9033 18.4108 14.8124 16.8821 14.042 15.1882C13.4717 16.6538 12.8423 18.0411 12.0563 19.0977L12.0512 19.1047L12.0461 19.0977C11.2602 18.0411 10.6308 16.6538 10.0605 15.1882C9.29006 16.8821 8.19907 18.4108 6.8477 19.69C5.00226 21.4386 2.75013 22.6997 0.294922 23.3592L0.294922 21.1833C2.16558 20.5846 3.87727 19.572 5.30281 18.2208Z" fill="white"/>
<path fill-rule="evenodd" clip-rule="evenodd" d="M18.5067 9.37079C18.5129 10.5545 18.7609 11.7245 19.2355 12.809C19.7101 13.8935 20.4012 14.8695 21.2665 15.6773C22.0142 16.3869 22.8725 16.9698 23.8077 17.4033V19.6662C22.2863 19.1173 20.895 18.2594 19.7213 17.1466C18.6549 16.1504 17.8032 14.9469 17.2185 13.6097C16.6338 12.2726 16.3285 10.8301 16.3213 9.37079V7.26855H18.5067V9.37079Z" fill="white"/>
<path fill-rule="evenodd" clip-rule="evenodd" d="M5.59583 7.26855H7.78123V9.37079C7.77401 10.8301 7.4687 12.2726 6.88404 13.6097C6.29937 14.9469 5.44768 16.1504 4.38121 17.1466C3.20756 18.2594 1.81628 19.1173 0.294922 19.6662L0.294922 17.4033C1.23011 16.9698 2.08842 16.3869 2.8361 15.6773C3.70137 14.8695 4.39249 13.8934 4.86705 12.809C5.34161 11.7245 5.5896 10.5545 5.59583 9.37079V7.26855Z" fill="white"/>
<path fill-rule="evenodd" clip-rule="evenodd" d="M9.88737 18.4541C9.32682 19.2173 8.69959 19.9293 8.01307 20.5816C5.85561 22.6249 3.19077 24.0539 0.294922 24.7203L0.294922 26.8519C3.77218 26.1529 6.98241 24.4891 9.55818 22.0508C10.0905 21.5448 10.5916 21.007 11.0589 20.4404L9.88737 18.4541Z" fill="white"/>
<path fill-rule="evenodd" clip-rule="evenodd" d="M33.2993 21.5681H33.2464L31.7493 14.5232H29.4951V26.8518H31.3443V21.5681L31.0096 18.0457H31.0978L32.4188 24.3861H34.1446L35.4304 18.0457H35.5183L35.219 21.5681V26.8518H37.0683V14.5232H34.8138L33.2993 21.5681ZM39.9743 25.0905V16.2845H41.8235V25.0905H39.9743ZM42.8625 26.8518C42.9706 26.858 43.0787 26.8413 43.1798 26.8028C43.281 26.7643 43.3728 26.7048 43.4493 26.6283C43.5259 26.5518 43.5853 26.4599 43.6239 26.3588C43.6624 26.2577 43.6791 26.1495 43.6728 26.0415V15.3335C43.679 15.2255 43.6623 15.1174 43.6238 15.0162C43.5853 14.9151 43.5258 14.8233 43.4493 14.7468C43.3728 14.6702 43.281 14.6108 43.1798 14.5722C43.0787 14.5337 42.9706 14.517 42.8625 14.5232H38.9352C38.8272 14.517 38.719 14.5337 38.6179 14.5722C38.5168 14.6108 38.425 14.6702 38.3485 14.7468C38.2719 14.8233 38.2125 14.9151 38.174 15.0162C38.1355 15.1174 38.1188 15.2255 38.125 15.3335V26.0415C38.1188 26.1495 38.1354 26.2577 38.1739 26.3588C38.2124 26.4599 38.2719 26.5518 38.3484 26.6283C38.4249 26.7048 38.5168 26.7643 38.6179 26.8028C38.719 26.8413 38.8272 26.858 38.9352 26.8518H42.8625ZM50.1011 26.8518V22.801H48.2518V25.0905H46.5788V16.2845H48.2518V18.0457H50.1011V14.5232H45.5397C45.4316 14.517 45.3235 14.5337 45.2224 14.5723C45.1213 14.6108 45.0295 14.6703 44.953 14.7468C44.8764 14.8233 44.817 14.9151 44.7785 15.0163C44.74 15.1174 44.7233 15.2255 44.7295 15.3335V26.0415C44.7233 26.1495 44.7399 26.2577 44.7784 26.3588C44.8169 26.4599 44.8764 26.5518 44.9529 26.6283C45.0294 26.7048 45.1213 26.7643 45.2224 26.8028C45.3235 26.8413 45.4316 26.858 45.5397 26.8518H50.1011ZM51.0699 14.5232V26.8518H52.919V16.2845H55.473V14.5232H51.0699ZM58.0263 25.0905V16.2845H59.8756V25.0905H58.0263ZM60.9148 26.8518C61.0228 26.858 61.131 26.8413 61.2321 26.8028C61.3332 26.7643 61.425 26.7048 61.5015 26.6283C61.578 26.5517 61.6375 26.4599 61.676 26.3588C61.7145 26.2576 61.7311 26.1495 61.7249 26.0415V15.3335C61.7311 15.2255 61.7145 15.1174 61.676 15.0163C61.6375 14.9151 61.578 14.8233 61.5015 14.7468C61.425 14.6703 61.3332 14.6108 61.2321 14.5723C61.1309 14.5337 61.0228 14.517 60.9148 14.5232H56.9874C56.8793 14.517 56.7712 14.5337 56.6701 14.5723C56.569 14.6108 56.4772 14.6703 56.4007 14.7468C56.3242 14.8233 56.2647 14.9151 56.2262 15.0163C56.1877 15.1174 56.171 15.2255 56.1773 15.3335V26.0415C56.171 26.1495 56.1877 26.2576 56.2262 26.3588C56.2647 26.4599 56.3241 26.5517 56.4006 26.6283C56.4771 26.7048 56.569 26.7643 56.6701 26.8028C56.7712 26.8413 56.8793 26.858 56.9874 26.8518H60.9148ZM64.6309 16.2845H66.3922V21.0399H64.6309V16.2845ZM67.4312 22.801C67.5392 22.8072 67.6474 22.7905 67.7485 22.752C67.8496 22.7135 67.9414 22.6541 68.018 22.5776C68.0945 22.5011 68.154 22.4093 68.1925 22.3081C68.231 22.207 68.2477 22.0989 68.2415 21.9909V15.3335C68.2477 15.2255 68.231 15.1174 68.1925 15.0162C68.154 14.9151 68.0945 14.8233 68.018 14.7468C67.9415 14.6702 67.8496 14.6108 67.7485 14.5722C67.6474 14.5337 67.5393 14.517 67.4312 14.5232H62.7817V26.8518H64.6309V22.801H67.4312ZM74.5816 26.8518V22.801H72.7323V25.0905H71.0592V16.2845H72.7323V18.0457H74.5816V14.5232H70.0202C69.9122 14.517 69.804 14.5337 69.7029 14.5722C69.6018 14.6108 69.51 14.6702 69.4334 14.7468C69.3569 14.8233 69.2975 14.9151 69.2589 15.0162C69.2204 15.1174 69.2037 15.2255 69.2099 15.3335V26.0415C69.2037 26.1495 69.2204 26.2577 69.2589 26.3588C69.2974 26.4599 69.3569 26.5518 69.4334 26.6283C69.5099 26.7048 69.6018 26.7643 69.7029 26.8028C69.804 26.8413 69.9122 26.858 70.0202 26.8518H74.5816ZM75.5502 14.5232V26.8518H77.3995V16.2845H79.3367V26.8518H81.186V14.5232H75.5502ZM84.0921 25.0905V16.2845H85.9413V25.0905H84.0921ZM86.9803 26.8518C87.0883 26.858 87.1965 26.8413 87.2976 26.8028C87.3987 26.7643 87.4905 26.7048 87.567 26.6283C87.6436 26.5517 87.703 26.4599 87.7415 26.3588C87.78 26.2576 87.7967 26.1495 87.7904 26.0415V15.3335C87.7966 15.2255 87.78 15.1174 87.7415 15.0163C87.703 14.9151 87.6435 14.8233 87.567 14.7468C87.4905 14.6703 87.3987 14.6108 87.2976 14.5723C87.1965 14.5337 87.0883 14.517 86.9803 14.5232H83.0529C82.9448 14.517 82.8367 14.5337 82.7356 14.5723C82.6345 14.6108 82.5427 14.6703 82.4662 14.7468C82.3897 14.8233 82.3302 14.9151 82.2917 15.0163C82.2532 15.1174 82.2365 15.2255 82.2428 15.3335V26.0415C82.2365 26.1495 82.2532 26.2576 82.2917 26.3588C82.3302 26.4599 82.3896 26.5517 82.4661 26.6283C82.5426 26.7048 82.6345 26.7643 82.7356 26.8028C82.8367 26.8413 82.9448 26.858 83.0529 26.8518H86.9803ZM90.6965 16.2845H92.4578V21.0399H90.6965V16.2845ZM93.4967 22.801C93.6048 22.8072 93.7129 22.7905 93.814 22.752C93.9151 22.7135 94.007 22.6541 94.0835 22.5776C94.16 22.5011 94.2195 22.4093 94.258 22.3081C94.2965 22.207 94.3132 22.0989 94.307 21.9909V15.3335C94.3132 15.2255 94.2965 15.1174 94.258 15.0162C94.2195 14.9151 94.16 14.8233 94.0835 14.7468C94.007 14.6702 93.9152 14.6108 93.814 14.5722C93.7129 14.5337 93.6048 14.517 93.4967 14.5232H88.8472V26.8518H90.6965V22.801H93.4967ZM94.9234 16.2845H96.6845V26.8518H98.5336V16.2845H100.295V14.5232H94.9234V16.2845Z" fill="white"/>
</g>
<defs>
<clipPath id="clip0_1186_9444">
<rect width="100" height="26.6161" fill="white" transform="translate(0.294922 0.23584)"/>
</clipPath>
</defs>
</svg>
