<svg width="102" height="59" viewBox="0 0 102 59" fill="none" xmlns="http://www.w3.org/2000/svg">
<path fill-rule="evenodd" clip-rule="evenodd" d="M65.9674 24.1256C65.5548 24.2784 65.437 24.3454 65.0784 24.6308C64.7583 24.8855 64.3254 25.4742 64.1087 25.9492C63.8485 26.5199 63.5904 27.7755 63.7335 27.7755C63.8253 27.7755 63.8725 27.9139 63.8332 28.0679C63.8134 28.1456 63.824 28.1948 63.8605 28.1948C63.8996 28.1948 63.9104 28.2716 63.892 28.4175C63.87 28.5918 63.8759 28.6175 63.9189 28.5355C63.9617 28.4538 63.9675 28.4805 63.9452 28.6566C63.9115 28.9226 63.949 29.0127 64.0566 28.9247C64.1503 28.8481 64.1597 28.9364 64.0745 29.0931C64.043 29.1511 64.0079 29.291 63.9965 29.4042C63.9796 29.5713 63.9929 29.6101 64.067 29.6107C64.1373 29.6113 64.142 29.6217 64.0873 29.6558C64.0311 29.6909 64.0354 29.7074 64.1083 29.7349C64.1611 29.7549 64.2385 29.7357 64.2899 29.6898C64.4192 29.5746 64.4509 29.59 64.4509 29.7677C64.4509 29.9533 64.5175 29.8954 63.3069 30.7638C62.7802 31.1417 62.1996 31.5583 62.0166 31.6896C61.8337 31.8209 61.6841 31.9462 61.6841 31.9682C61.6841 31.9901 61.4654 32.0857 61.1983 32.1806C60.9311 32.2755 60.4821 32.4694 60.2006 32.6115C59.1306 33.1517 57.0972 34.8323 56.7855 35.4341L56.6802 35.6373H56.0992C55.7796 35.6373 55.5046 35.6589 55.4881 35.6852C55.4715 35.7115 55.3564 35.7497 55.2322 35.7702C55.1079 35.7906 54.9465 35.8486 54.8733 35.8992C54.8001 35.9497 54.6206 36.0416 54.4742 36.1033C53.9724 36.3152 53.9421 36.338 53.9421 36.5041C53.9421 36.6418 53.9622 36.6612 54.1201 36.6761C54.2439 36.6878 54.3624 36.651 54.5096 36.5551C54.7976 36.3673 54.8615 36.4101 54.6622 36.6572C54.4652 36.9013 54.4714 37.0198 54.6823 37.0436C54.805 37.0574 54.8737 37.0201 55.0202 36.8601L55.2039 36.6594L55.1674 36.8297C55.1318 36.9957 55.1355 37 55.3131 37C55.517 37 55.6439 36.8924 55.6996 36.6725C55.7339 36.5373 55.8311 36.468 55.8311 36.5787C55.8311 36.6064 55.9268 36.6545 56.0439 36.6856C56.2816 36.7486 56.2829 36.7505 56.1906 36.8961C56.0359 37.1401 56.4133 37.2977 56.7618 37.1347C56.8587 37.0895 56.9891 37.0524 57.0515 37.0524C57.2267 37.0524 57.4116 36.907 57.4449 36.7431C57.5101 36.4218 58.9412 35.3117 60.0612 34.7137C60.266 34.6042 60.4615 34.488 60.4956 34.4553C60.5761 34.3781 60.753 34.3131 61.3382 34.1457C61.6016 34.0704 61.857 33.9955 61.9058 33.9794C61.982 33.9543 61.9909 33.9825 61.9689 34.1779C61.9548 34.3032 61.9086 34.5471 61.8661 34.7201C61.8236 34.8931 61.7536 35.3648 61.7105 35.7683C61.6408 36.4209 61.5383 37.1334 61.36 38.2055C61.2778 38.6997 61.2225 39.667 61.2633 39.8986C61.2976 40.0936 61.2227 40.2496 61.095 40.2496C61.0678 40.2496 61.0456 40.3203 61.0456 40.4068C61.0456 40.5595 61.01 40.5854 60.8254 40.5678C60.7317 40.5588 60.5969 40.852 60.6534 40.942C60.6711 40.9702 60.6363 41.059 60.576 41.1393C60.3657 41.4195 60.2855 41.885 60.3165 42.6448C60.3379 43.1695 60.3283 43.3499 60.2768 43.392C60.2395 43.4226 60.1953 43.5594 60.1785 43.6961C60.1618 43.8328 60.0899 44.0744 60.0187 44.2329C59.8406 44.6293 59.5025 45.5882 59.5025 45.6966C59.5025 45.7455 59.4546 45.8361 59.3961 45.898C59.3375 45.9599 59.2897 46.0395 59.2897 46.0748C59.2897 46.1102 59.2059 46.2986 59.1034 46.4936C59.001 46.6886 58.9171 46.9142 58.917 46.9949C58.9166 47.3205 58.5511 47.6622 58.0171 47.8364C57.5333 47.9941 56.9991 48.4865 56.0695 49.6314C55.0404 50.899 54.7725 51.1914 54.2871 51.5765C54.091 51.7323 53.9909 51.7716 53.7243 51.7976C53.3367 51.8356 52.9788 51.9789 52.8022 52.167C52.7312 52.2426 52.6468 52.3044 52.6145 52.3044C52.5822 52.3044 52.5147 52.3516 52.4646 52.4092C52.4124 52.4693 52.3077 52.514 52.2191 52.514C52.0527 52.514 52 52.5885 52 52.8235C52 52.9781 52.1139 53.1414 52.6119 53.701C52.7875 53.8982 53.2768 54.4489 53.6992 54.9247C54.9334 56.3149 55.3605 56.7632 55.5814 56.9006C55.7627 57.0134 55.8081 57.0218 55.941 56.9677C56.0377 56.9282 56.1349 56.8205 56.208 56.6717L56.3229 56.4378L56.1941 56.2972C56.1232 56.2199 56.0351 56.1172 55.9982 56.069C55.9341 55.985 55.6182 55.1532 55.6182 55.0682C55.6182 55.0457 55.6751 55.0059 55.7446 54.9799C55.9484 54.9036 55.9796 54.5902 55.8167 54.2557C55.7739 54.1679 55.7752 54.1205 55.8215 54.0749C55.901 53.9965 55.9015 53.7844 55.8228 53.4944C55.7394 53.1877 55.7931 53.0213 56.0686 52.7311C56.1969 52.596 56.3174 52.4241 56.3365 52.3491C56.3677 52.2268 56.8611 51.8019 58.0823 50.8457C58.2049 50.7497 58.6166 50.3944 58.997 50.0562C59.7498 49.387 60.041 49.1741 60.5358 48.9311C60.9057 48.7495 61.3745 48.3153 61.4869 48.0505C61.5541 47.892 61.6028 47.8597 61.8941 47.7799C62.3543 47.6539 62.849 47.3983 62.9045 47.258C62.9297 47.1941 62.9767 47.0448 63.0089 46.9263C63.0491 46.778 63.1498 46.6349 63.3312 46.4677C63.4763 46.334 63.6167 46.2246 63.6431 46.2246C63.6695 46.2246 63.9253 46.484 64.2115 46.8011C64.5123 47.1344 64.7726 47.3776 64.8284 47.3776C64.9599 47.3776 65.1991 47.273 65.3339 47.1565C65.3952 47.1035 65.5675 47.0459 65.7166 47.0285C65.9821 46.9975 65.9952 47.0027 66.3385 47.2717C66.7121 47.5646 66.8457 47.7544 66.8447 47.9909C66.8439 48.187 66.728 48.5864 66.5513 49.0024C66.4133 49.3273 66.408 49.3722 66.4364 49.972C66.453 50.3233 66.5505 51.0755 66.657 51.6754C67.07 54.0018 67.0888 54.4119 66.7992 54.7669C66.5515 55.0705 66.4877 55.2565 66.4446 55.7998C66.4182 56.1328 66.3839 56.29 66.3333 56.3091C66.2277 56.3491 66.2433 56.5702 66.3618 56.7143L66.4636 56.838H69.178C71.852 56.838 71.8947 56.8364 72.0427 56.728C72.2187 56.5991 72.2689 56.3439 72.1427 56.2196C72.0973 56.1749 72.0741 56.1026 72.091 56.0589C72.1143 55.9992 72.0717 55.9723 71.918 55.9501C71.5158 55.8918 70.965 55.7469 70.7429 55.6409C70.5509 55.5493 70.5166 55.509 70.5156 55.3732C70.5137 55.1193 70.2538 54.8726 69.9882 54.8726C69.9086 54.8726 69.8783 54.8389 69.8783 54.7507C69.8783 54.6112 69.701 54.4315 69.5058 54.3731C69.1577 54.269 69.054 54.108 69.0085 53.6016C68.9919 53.4171 68.9462 53.2656 68.8906 53.2109C68.8118 53.1332 68.8046 53.0522 68.8364 52.595C68.8564 52.3054 68.8854 51.2195 68.9007 50.1817L68.9284 48.2949L69.0708 47.9542C69.2915 47.4259 69.2696 47.0515 68.9857 46.5037C68.8636 46.2681 68.7392 46.0603 68.7091 46.042C68.679 46.0237 68.6543 45.9571 68.6541 45.8939C68.6536 45.6981 67.5637 43.7517 67.4103 43.6725C67.3362 43.6343 67.2295 43.5004 67.1732 43.375C67.1169 43.2497 66.983 43.0811 66.8756 43.0004C66.7683 42.9198 66.6174 42.7479 66.5404 42.6184C66.4011 42.3842 66.4008 42.3816 66.4898 42.1347C66.539 41.9982 66.5793 41.8419 66.5793 41.7873C66.5793 41.6409 66.4288 41.4551 66.3102 41.4551C66.1777 41.4551 66.1692 41.2541 66.3 41.2127C66.6782 41.0929 66.6494 41.1411 66.868 40.2609C66.9805 39.8079 67.1396 39.294 67.2216 39.119C67.3036 38.9439 67.3871 38.7362 67.4072 38.6573C67.4273 38.5785 67.5695 38.39 67.7233 38.2386C68.0377 37.9289 68.1073 37.7275 68.16 36.9738C68.1848 36.6212 68.2222 36.4927 68.3953 36.1658C68.5086 35.952 68.6013 35.7456 68.6013 35.7072C68.6013 35.603 68.6506 35.6165 69.1962 35.8693C70.3381 36.3984 70.4695 36.4146 71.1005 36.1035C71.7045 35.8057 72.1388 35.4676 72.8473 34.7433C73.7781 33.792 74.0033 33.3727 74 32.5974C73.9984 32.2318 73.9672 32.1087 73.8075 31.8374C73.7736 31.7798 73.7292 31.6972 73.7089 31.654C73.6886 31.6108 73.6132 31.5684 73.5413 31.5598C73.4464 31.5484 73.3969 31.4983 73.3604 31.3763C73.3129 31.2174 73.2962 31.2082 73.0442 31.204C72.8408 31.2005 72.7741 31.179 72.761 31.1123C72.7385 30.9985 72.5449 30.953 72.3666 31.0198C72.2051 31.0803 72.1327 31.325 72.1841 31.637C72.2019 31.745 72.1784 31.948 72.1283 32.1188C72.0251 32.4712 72.021 32.7026 72.1127 33.0068C72.169 33.1935 72.1683 33.2558 72.1083 33.3661C72.0385 33.4947 71.0313 34.1846 70.6562 34.3608C70.4825 34.4424 70.4668 34.4412 70.3167 34.3359C70.2301 34.2752 69.9584 34.1296 69.7128 34.0123C69.4422 33.883 69.272 33.7712 69.2806 33.7283C69.2885 33.6894 69.072 33.456 68.7996 33.2097C68.3578 32.8103 68.2915 32.7261 68.1862 32.4307C68.0594 32.0751 68.0277 31.5139 68.1242 31.3361C68.1623 31.266 68.2359 31.2347 68.3625 31.2347C68.5196 31.2347 68.5766 31.1961 68.7643 30.962C68.8847 30.8121 69.0349 30.664 69.0982 30.633C69.1633 30.601 69.2159 30.5229 69.2195 30.4529C69.2231 30.3849 69.265 30.3077 69.3127 30.2815C69.3661 30.252 69.3994 30.1658 69.3994 30.0568C69.3994 29.8792 69.4138 29.8623 69.8222 29.5622L69.9523 29.4665L69.8055 29.1443C69.6406 28.7824 69.643 28.763 69.9147 28.2364C70.1607 27.7594 70.2115 27.1682 70.0459 26.7081C69.9447 26.427 69.9419 26.3849 70.0132 26.2169C70.056 26.1158 70.0911 25.9633 70.0911 25.878C70.0911 25.6836 69.7813 25.2159 69.4896 24.9699C69.1808 24.7096 68.2162 24.2367 67.7343 24.1096C67.1587 23.9576 66.4022 23.9645 65.9674 24.1256ZM63.706 27.9265C63.706 27.9554 63.73 27.9935 63.7592 28.0114C63.7885 28.0292 63.8124 28.0202 63.8124 27.9913C63.8124 27.9625 63.7885 27.9243 63.7592 27.9065C63.73 27.8887 63.706 27.8977 63.706 27.9265Z" fill="#EBEBEB"/>
<path fill-rule="evenodd" clip-rule="evenodd" d="M90.3346 0.627168C90.0825 0.972187 89.7364 1.47866 89.5656 1.75285C89.0813 2.53021 88.9808 4.3339 89.3175 6.20259C89.6714 8.1656 89.5795 8.81838 88.8984 9.17892C87.9582 9.67627 86.1101 10.7924 85.3659 11.3121C84.958 11.597 84.5452 11.83 84.4486 11.83C84.059 11.83 81.1076 13.3622 80.5076 13.8761C79.8748 14.4181 79.8671 14.4429 79.9855 15.6177C80.1491 17.2428 80.5671 18.7974 81.2827 20.4421C81.6131 21.202 81.9498 22.1729 82.0307 22.5998C82.3992 24.5424 82.544 24.9656 83.0176 25.4859C83.4201 25.9277 83.6449 26.023 84.1176 25.9524C84.7004 25.8654 84.7102 25.8771 84.6276 26.5603C84.5813 26.9436 84.394 27.8148 84.2114 28.4965C83.8535 29.8328 83.8809 30.2529 84.4184 31.6677C84.766 32.5826 84.7653 32.5949 84.2257 35.2576C83.9277 36.7273 83.6144 38.0172 83.5292 38.1241C83.4441 38.2312 83.1997 38.7701 82.9861 39.3218C82.7724 39.8735 82.3296 40.7028 82.0021 41.1647C81.6747 41.6267 80.9284 42.7906 80.3438 43.7511C79.7592 44.7117 78.865 46.1576 78.3564 46.9642C77.8481 47.7709 77.4321 48.5131 77.4321 48.6136C77.4323 49.0041 76.1975 51.222 75.9799 51.222C75.5032 51.222 74 53.5743 74 54.32C74 54.5729 77.1381 56.5514 79.1163 57.5457C79.9754 57.9777 80.3226 58.0446 81.3561 57.9777C82.0288 57.934 82.6736 57.8023 82.7893 57.6845C83.1453 57.3222 82.78 56.668 81.9933 56.2596C80.9831 55.735 79.9893 54.164 79.8313 52.8412C79.7176 51.8907 79.7453 51.8046 80.3833 51.1163C80.7526 50.7177 81.0584 50.251 81.0628 50.0791C81.0848 49.2218 82.6572 47.252 85.9545 43.951C87.8904 42.0132 88.2347 41.5087 91.3144 36.0978C91.4441 35.8702 91.6395 35.9395 92.3656 36.4702C92.8564 36.8288 93.2577 37.1608 93.2577 37.2082C93.2577 37.2555 92.8716 37.8169 92.3997 38.4559C91.9278 39.0947 91.5417 39.6804 91.5417 39.7572C91.5417 39.8343 91.2199 40.3409 90.8267 40.8833C90.4335 41.4257 89.983 42.0656 89.8257 42.3057C89.6684 42.5455 89.2697 43.111 88.9394 43.5618C88.6094 44.0127 88.2418 44.5673 88.1224 44.7942C88.003 45.021 87.78 45.2065 87.6263 45.2065C87.2163 45.2065 85.2496 47.2621 85.2496 47.6905C85.2496 48.1555 85.4473 48.326 88.1096 50.1583C90.5426 51.8329 91.5756 52.3757 92.3408 52.3821C93.0669 52.3881 93.1296 52.1428 92.5946 51.3914C91.5347 49.9033 91.1039 48.8347 91.1375 47.7777C91.1564 47.1895 91.0873 46.7589 90.9745 46.7589C90.1721 46.7589 92.1337 44.3529 95.0199 41.7967C96.0957 40.8439 97.4693 39.5764 98.0722 38.9797C99.0433 38.0187 99.1685 37.8068 99.1685 37.1255C99.1685 36.6879 98.9567 35.9238 98.6772 35.3527C98.2058 34.3902 95.6856 31.4814 93.7821 29.7031C92.8219 28.806 92.7227 28.4622 93.0484 27.1599C93.1418 26.7864 93.3699 25.5421 93.5548 24.3947L93.8913 22.3087H94.7112C95.1624 22.3087 96.1565 22.0993 96.9209 21.8436C98.5523 21.2977 101.453 20.0614 101.705 19.8047C101.802 19.7063 101.923 19.247 101.973 18.7842C102.046 18.1201 101.978 17.83 101.652 17.4089C101.085 16.6774 100.753 16.7356 99.8477 17.725C99.209 18.423 98.8833 18.6126 98.023 18.7869C97.442 18.9045 96.6788 18.9334 96.3085 18.8519C95.6835 18.7141 95.6373 18.6512 95.5813 17.8603C95.5483 17.3959 95.6156 16.7841 95.7309 16.5006C95.8941 16.0999 95.8757 15.8269 95.648 15.2723C95.4869 14.8801 95.3551 14.2421 95.3551 13.8545C95.3551 12.712 94.8518 11.8791 93.903 11.452C92.5866 10.8594 92.8139 10.5869 94.5038 10.7323C95.6836 10.834 95.9563 10.8043 96.0291 10.5668C96.078 10.4078 96.1742 10.1249 96.2433 9.93804C96.3121 9.75137 96.3519 9.49212 96.3315 9.36191C96.3111 9.2319 96.4692 9.01437 96.6828 8.87873C96.8965 8.74289 97.0712 8.48267 97.0712 8.30007C97.0712 8.11767 97.2144 7.88675 97.3894 7.78701C97.6674 7.62866 97.6765 7.52912 97.4607 6.99878C97.267 6.52297 97.2613 6.21404 97.434 5.5696C97.5553 5.11728 97.6733 4.2394 97.6964 3.61863C97.7377 2.50848 97.7242 2.47626 96.8605 1.64554C95.7832 0.609315 94.5072 0.162225 92.3591 0.0684995L90.7931 0L90.3346 0.627168ZM84.9918 16.1476C84.9256 16.708 84.8707 18.6006 84.8699 20.3534L84.8682 23.5407L84.3971 23.0901C84.138 22.8425 83.8367 22.3644 83.7274 22.0279C83.3717 20.9307 82.9621 18.1655 82.9617 16.8594L82.9615 15.582L83.8672 15.3821C84.3652 15.2723 84.8492 15.1702 84.9424 15.1556C85.036 15.1409 85.0581 15.5855 84.9918 16.1476Z" fill="#EBEBEB"/>
<path fill-rule="evenodd" clip-rule="evenodd" d="M35.0178 0.12976C35.0178 0.215012 35.0741 0.249704 35.143 0.206675C35.2118 0.16378 35.4664 0.250645 35.7089 0.399903C35.9513 0.54916 36.1047 0.671525 36.0498 0.671794C35.995 0.672063 36.0698 0.793351 36.2163 0.941264C36.3628 1.08918 36.4826 1.31212 36.4826 1.43664C36.4826 1.56129 36.6096 1.92811 36.7649 2.25204C36.9728 2.68556 37.045 3.08479 37.0386 3.76586C37.0315 4.5338 37.0852 4.77288 37.3555 5.17507C37.7632 5.78192 37.7623 5.89191 37.3482 6.05098C37.1143 6.14067 37.0153 6.27984 37.0153 6.51825C37.0153 6.70503 36.9513 6.85778 36.8732 6.85778C36.7946 6.85778 36.7665 6.971 36.8105 7.11085C36.8607 7.27046 36.8148 7.39296 36.6863 7.44271C36.5648 7.48977 36.4826 7.68798 36.4826 7.93365C36.4826 8.59401 35.7454 8.71409 34.9133 8.18927C34.6564 8.02737 34.5853 8.04956 34.214 8.40831C33.6943 8.91027 33.3407 9.49319 33.2275 10.0345C33.1459 10.425 33.1824 10.4799 33.7469 10.8139C34.5696 11.3008 35.3932 12.1766 35.717 12.9088C35.8642 13.2416 36.446 14.0282 37.0101 14.6568C37.574 15.2855 38.2084 16.1023 38.4197 16.4721C38.8923 17.2991 39.128 17.5546 39.2739 17.3981C40.2149 16.3867 41.2765 14.5367 41.2765 13.9081C41.2765 13.7369 41.3364 13.5596 41.4097 13.5139C41.5886 13.4021 41.5792 12.422 41.3958 12.0759C41.1314 11.5769 41.0297 10.3251 41.218 9.88368C41.3127 9.66154 41.429 9.35885 41.4764 9.21094C41.5597 8.95088 41.5712 8.95263 41.8231 9.26459C42.0699 9.5701 42.0931 9.57427 42.259 9.345C42.3854 9.1706 42.4618 9.14774 42.5325 9.26325C42.5864 9.35146 42.7428 9.38763 42.8801 9.34366C43.0462 9.29041 43.1866 9.3559 43.3003 9.53985C43.3943 9.69179 43.5427 9.81604 43.6299 9.81604C43.7173 9.81604 43.825 9.93141 43.8693 10.0726C43.9137 10.2137 44.0375 10.363 44.1446 10.4045C44.4965 10.5408 44.3509 11.2663 43.7315 12.4618C43.3557 13.1872 43.1505 13.7384 43.1938 13.9057C43.2323 14.0546 43.1851 14.2693 43.089 14.3829C42.9928 14.4965 42.7489 15.1342 42.5469 15.7998C42.3449 16.4654 42.0584 17.252 41.9104 17.5479C41.4488 18.4698 40.3204 20.2846 40.0622 20.5206C39.6347 20.9113 38.8389 20.4777 37.3112 19.0224C36.5762 18.3224 35.9152 17.7496 35.8424 17.7496C35.7695 17.7496 35.4295 18.0368 35.0868 18.3879C34.4875 19.0016 34.4657 19.0516 34.5202 19.6836C34.578 20.3547 34.1004 22.1568 33.75 22.5903C33.6602 22.7013 33.5453 23.3366 33.4945 24.0022C33.4172 25.018 33.3395 25.3115 33.0116 25.8294C32.7937 26.1733 32.6209 26.6315 32.6209 26.865C32.6209 27.0955 32.5533 27.4337 32.4708 27.6166C32.2678 28.0663 32.3742 28.4107 33.0578 29.5164C34.0235 31.0784 34.8235 32.5524 35.2833 33.6166C35.523 34.1712 35.9808 35.1885 36.3006 35.877C36.6204 36.5656 36.8821 37.1737 36.8821 37.2285C36.8821 37.2833 37.2178 37.9 37.6282 38.5987C38.6347 40.3126 38.6404 40.3302 38.7439 42.0468C38.7938 42.8747 38.8955 43.6311 38.9698 43.7276C39.1765 43.9959 40.5621 48.0626 40.8723 49.3117C41.2385 50.7855 41.3351 51.0239 41.9566 51.9906C42.3786 52.6468 42.5425 52.8022 42.7538 52.7464C42.9208 52.7023 43.0882 52.7702 43.2036 52.9288C43.3592 53.1427 43.5421 53.1768 44.3973 53.1517C44.9528 53.1353 45.5714 53.1899 45.7721 53.2731C46.4628 53.5595 47.0328 53.5048 47.6257 53.0952C48.5608 52.4495 49 52.6592 49 53.7513C49 55.2857 46.7312 57.5974 45.4613 57.3569C45.0737 57.2834 44.9663 57.3329 44.5798 57.7628C44.0448 58.3576 43.0763 58.8734 42.2903 58.9823C41.5504 59.0846 41.1433 58.7408 41.1433 58.0133C41.1433 57.2083 40.5928 56.4179 39.9297 56.2708C39.7199 56.2243 39.5126 56.1277 39.4688 56.0562C39.3427 55.8502 39.6808 55.5346 40.0277 55.5346C40.7826 55.5346 40.1445 53.9186 38.2594 51.0566C37.4217 49.7847 36.4705 48.1994 36.1456 47.5338C35.6241 46.4655 35.5383 46.1582 35.4132 44.9117C35.1451 42.2407 35.1996 42.4216 34.3762 41.4674C33.9601 40.9852 32.9105 39.8231 32.0437 38.8852C31.177 37.9473 30.1378 36.6808 29.7343 36.0706C29.3309 35.4604 28.9522 34.9612 28.8927 34.9612C28.8331 34.9612 28.5118 35.4303 28.1785 36.0033C27.4863 37.1939 26.9137 37.8985 24.7642 40.2052C23.9219 41.1089 22.9227 42.1888 22.5434 42.6048C21.9258 43.2827 21.8008 43.3599 21.3414 43.3478C21.0594 43.3402 20.4108 43.1496 19.9001 42.9239C18.6869 42.3879 17.6634 42.1291 16.0373 41.9469C15.2749 41.8614 14.0588 41.5931 13.1789 41.3164C11.7036 40.8523 11.5573 40.8326 9.18403 40.7765L6.7205 40.7183L6.58734 41.0333C6.49825 41.2442 6.32207 41.363 6.05468 41.3928C5.83496 41.4172 5.52509 41.5595 5.36596 41.7089C5.13452 41.9263 4.97326 41.963 4.55899 41.8923C4.12434 41.8182 3.88491 41.8841 3.06955 42.3024C2.4269 42.6321 2.01529 42.9418 1.85376 43.2176C1.7194 43.4467 1.54362 43.71 1.4632 43.8024C1.25706 44.0392 0.455013 44.0116 0.204933 43.7592C-0.0827026 43.4688 -0.064724 42.3862 0.24102 41.5733C0.544369 40.7672 1.66947 39.3218 2.15099 39.1199C2.49548 38.9753 2.79217 38.4196 2.79217 37.9188C2.79217 37.6171 4.26217 36.0043 5.01201 35.4834C5.68742 35.0141 5.74774 35.0364 6.37135 35.9872C6.89428 36.7845 7.60125 37.2642 8.10341 37.1628C8.59398 37.0637 8.75311 37.3131 8.43139 37.6769L8.1853 37.9553L10.5157 37.8478C11.7974 37.7887 13.6874 37.7353 14.7155 37.7291L16.5851 37.7178L17.9822 38.404C19.0412 38.9241 19.4499 39.0638 19.6708 38.9812C20.0027 38.8574 21.0493 37.4782 21.4972 36.5748C21.6621 36.242 21.9283 35.5546 22.0887 35.0474C22.4216 33.9942 22.559 33.749 23.495 32.5408C24.2683 31.5426 24.5554 30.9013 24.4883 30.3222C24.4626 30.1003 24.4391 29.4012 24.4363 28.7685C24.4317 27.7208 24.4723 27.5351 24.892 26.6843C25.1454 26.1706 25.5212 25.5501 25.7272 25.3052C25.9332 25.0605 26.0641 24.7988 26.0182 24.7238C25.9724 24.6487 26.0536 24.4558 26.1988 24.2948C26.344 24.1339 26.5411 23.6694 26.6367 23.2627C26.7324 22.8559 26.9193 22.3982 27.0525 22.2456C27.2256 22.0468 27.2943 21.7506 27.2943 21.2035C27.2943 20.7828 27.2603 20.4389 27.2189 20.4389C26.9756 20.4389 26.649 20.7398 26.7121 20.9059C26.7609 21.0343 26.6691 21.1295 26.4409 21.1875C26.2511 21.2355 26.0958 21.359 26.0958 21.4619C26.0958 21.5942 25.9191 21.6491 25.4923 21.6491C24.7515 21.6491 24.0378 21.3631 23.8061 20.9734C23.7105 20.8127 22.84 20.0484 21.8715 19.2749C20.0327 17.8064 17.7732 15.4451 17.2881 14.4851C16.7991 13.5172 17.1972 13.0466 19.1713 12.2581C19.7206 12.0388 20.4851 11.6987 20.8702 11.5024C21.2553 11.3061 21.9118 11.0269 22.3293 10.8818C22.7466 10.7369 23.4575 10.3753 23.9087 10.0782C24.8683 9.44706 25.2605 9.31703 26.5676 9.19749C27.7712 9.08737 27.8512 9.04044 27.7013 8.53323C27.6365 8.31432 27.5766 8.22598 27.5681 8.33691C27.5546 8.51131 27.5361 8.51024 27.4309 8.32871C27.3641 8.21334 27.2802 7.59291 27.2445 6.94989C27.2088 6.30701 27.1377 5.76605 27.0863 5.7479C27.035 5.72974 26.8851 5.918 26.7531 6.16649C26.6212 6.41485 26.3576 6.69965 26.1673 6.79929C25.891 6.94411 25.9796 6.77213 26.6078 5.94422C27.1565 5.22119 27.4847 4.62349 27.6939 3.96676C27.8589 3.44906 28.1347 2.83455 28.307 2.60125C28.4793 2.36795 28.7499 1.82713 28.9084 1.39939C29.2135 0.576054 29.6729 0 30.0244 0C30.1412 0 30.3754 0.151275 30.5451 0.336166C30.931 0.756507 31.4377 0.768475 31.9712 0.369782C32.3136 0.113893 32.5796 0.0601065 33.697 0.0209768C34.6319 -0.0116986 35.0178 0.0200355 35.0178 0.12976ZM30.1854 1.47899C30.0906 1.84474 30.3103 1.95312 30.4836 1.62624C30.6675 1.27918 30.6602 1.2102 30.4392 1.2102C30.3379 1.2102 30.2236 1.33122 30.1854 1.47899ZM29.4064 6.45116C29.3645 7.56238 29.3871 7.73101 29.5829 7.7704C29.7449 7.80295 29.8467 7.67291 29.9484 7.303C30.1476 6.57836 30.1248 6.00795 29.8709 5.36709C29.5747 4.61959 29.4661 4.87333 29.4064 6.45116ZM29.1995 6.41821C29.2333 6.54905 29.2631 6.47455 29.2658 6.25268C29.2685 6.03081 29.2409 5.92378 29.2044 6.01481C29.1679 6.10585 29.1657 6.28737 29.1995 6.41821ZM24.6209 13.3931C24.0455 13.5967 23.0618 13.8016 22.2674 13.8834C21.2098 13.992 20.9024 14.0688 20.9024 14.2238C20.9024 14.334 21.1616 14.9756 21.4784 15.6497C21.9354 16.6227 22.217 17.0256 22.8433 17.6033C23.7378 18.4282 24.3265 18.8241 24.6597 18.8247C24.7854 18.825 25.099 18.6382 25.3568 18.4098C25.7717 18.0419 25.8869 18.0046 26.3602 18.0853C26.8848 18.1749 26.8948 18.1691 26.8948 17.7762C26.8948 16.87 26.1105 13.6127 25.7955 13.2113C25.6336 13.0049 25.7834 12.9818 24.6209 13.3931ZM26.4221 19.1247C26.9983 19.4233 27.234 19.3197 26.7955 18.9607C26.6145 18.8125 26.3832 18.7455 26.2104 18.7913C25.9537 18.859 25.9756 18.8933 26.4221 19.1247ZM7.98942 37.3764C7.88169 37.4452 7.83415 37.5424 7.88382 37.5926C8.00566 37.7156 8.38505 37.5591 8.38505 37.3858C8.38505 37.215 8.24722 37.2118 7.98942 37.3764ZM39.7917 55.8708C39.7917 55.9409 39.8562 56.0201 39.9349 56.0466C40.0136 56.0731 40.078 55.9941 40.078 55.8708C40.078 55.7474 40.0136 55.6684 39.9349 55.6949C39.8562 55.7214 39.7917 55.8006 39.7917 55.8708Z" fill="#EBEBEB"/>
</svg>
