<svg width="96" height="29" viewBox="0 0 96 29" fill="none" xmlns="http://www.w3.org/2000/svg">
<path d="M52.5512 15.4297H50.7389V3.73167H52.5512V8.3196H52.8519C53.8352 8.3196 54.1521 7.27069 54.1521 6.48603V3.73167H55.9725V6.40593C56.0051 6.94316 55.8967 7.47962 55.6575 7.96349C55.4184 8.44737 55.0566 8.86232 54.6072 9.1683C55.0628 9.46637 55.4295 9.87871 55.6694 10.3628C55.9094 10.847 56.014 11.3854 55.9725 11.9226V15.4296H54.1521V11.8426C54.1521 11.09 53.7864 10.1692 52.8681 10.1772H52.5512V15.4297ZM83.3516 15.4297V3.73167H84.9688V10.5695L86.8379 3.73165H88.8614V15.4297H87.228V7.29472L85.0012 15.4457L83.3516 15.4297ZM90.1455 15.4297V3.73167H91.7628V10.5695L93.6239 3.73165H95.6474V15.4297H94.0139V7.29472L91.7871 15.4457L90.1455 15.4297ZM94.8916 2.33047H90.9013V0.961304H94.8916V2.33047ZM78.7356 15.4297H76.9234V3.73167H78.7356V8.3196H79.0364C80.0197 8.3196 80.3367 7.27069 80.3367 6.48603V3.73167H82.157V6.40593C82.1897 6.94316 82.0811 7.47961 81.842 7.96349C81.6028 8.44736 81.2411 8.86232 80.7917 9.1683C81.2473 9.46637 81.6139 9.87871 81.8539 10.3629C82.0939 10.847 82.1985 11.3854 82.157 11.9226V15.4296H80.3367V11.8426C80.3367 11.09 79.979 10.1692 79.0526 10.1772H78.7356V15.4297ZM45.8792 15.4057H44.0669V3.71565H49.4549V8.40764H47.602V5.38104H45.8791V13.7402H47.602V10.7136H49.4548V15.4056L45.8792 15.4057ZM72.0636 15.4057H70.2513V3.71565H75.6394V8.40764H73.7865V5.38104H72.0636V13.7402H73.7865V10.7136H75.6394V15.4056L72.0636 15.4057ZM40.93 5.38108H39.2396V13.7402H40.93V5.38108ZM39.2071 15.4057H37.3948V3.71565H42.7829V15.4057H39.2071ZM60.7918 5.38108H59.1014V13.7402H60.7918V5.38108ZM59.0689 15.4057H57.2566V3.71565H62.6447V15.4057H59.0689ZM65.741 5.38108V8.51976C66.4155 8.55979 67.2363 8.51976 67.2363 7.32673V6.26184V5.38108H65.741ZM65.741 10.1932V13.7402H67.2363V11.4663C67.2363 10.2733 66.4155 10.1612 65.741 10.1932ZM69.0485 5.77341V7.20664C69.0661 7.60381 68.9832 7.99906 68.8073 8.35684C68.6314 8.71463 68.368 9.02374 68.0409 9.2564C68.3796 9.54035 68.6468 9.89781 68.8217 10.3007C68.9965 10.7036 69.0742 11.1409 69.0485 11.5784V15.4057H63.9287V3.71565H69.0485V5.77341ZM32.2912 11.5463C32.7625 9.04826 33.3802 6.25383 33.6646 3.73167H36.1108V15.4297H34.526V10.8017L34.713 6.62214C34.266 9.58436 33.5089 12.493 32.4538 15.3016V15.3096H32.1205V15.3016C31.0675 12.4929 30.3131 9.5842 29.8694 6.62214L30.0564 10.8017V15.4297H28.4717V3.73167H30.9096C31.194 6.25384 31.8116 9.04821 32.2912 11.5463Z" fill="#E04646"/>
<path d="M50.226 18.9367V24.1491C50.9086 24.1892 51.7213 24.0691 51.7213 22.876V21.8191V18.9367H50.226ZM53.5417 21.3307V22.7639C53.5417 24.5655 52.599 25.8226 50.8355 25.8226H50.226V28.9612H48.4138V17.2712C50.1204 17.2793 51.8351 17.2712 53.5417 17.2712V21.3307ZM54.0375 17.2712H59.6449V18.9366H57.7513V28.9612H55.939V18.9367H54.0374L54.0375 17.2712ZM45.3337 18.9366H43.6433V27.2958H45.3337V18.9366ZM43.6108 28.9612H41.7985V17.2712H47.1785V28.9612L43.6108 28.9612ZM30.2829 28.9612H28.4707V17.2712H33.8587V21.9632H32.0058V18.9366H30.2829V27.2958H32.0058V24.2692H33.8587V28.9612L30.2829 28.9612ZM36.9469 28.9612H35.1346V17.2712H40.5227V28.9612H38.6698V18.9367H36.9469L36.9469 28.9612Z" fill="#E04646"/>
<path d="M12.624 22.884C13.0765 23.4178 13.5595 23.9257 14.0706 24.4053C16.5491 26.7231 19.6426 28.3026 22.9937 28.9612V26.9435C20.2035 26.3102 17.636 24.9528 15.5578 23.0121C14.897 22.3934 14.2933 21.7182 13.7536 20.9944L12.624 22.884Z" fill="#E04646"/>
<path d="M5.17176 20.7783C6.31512 19.7255 7.2284 18.454 7.85581 17.0414C8.48323 15.6289 8.81151 14.1051 8.82062 12.5633V3.7157H10.9255V12.5633C10.924 14.1903 11.1762 15.8078 11.6731 17.3594C12.1661 15.8069 12.4182 14.19 12.4208 12.5633V3.7157H14.5256V12.5633C14.5351 14.1043 14.8627 15.6273 15.4886 17.0396C16.1146 18.4519 17.0256 19.724 18.1664 20.7783C19.5428 22.0579 21.1921 23.0181 22.9937 23.5887V25.6545C20.6299 25.0234 18.4608 23.827 16.6792 22.1715C15.3768 20.9582 14.3278 19.5058 13.5911 17.8959C13.1175 19.2108 12.4728 20.4596 11.6731 21.611H11.665C10.8712 20.4574 10.2294 19.209 9.75519 17.8959C9.01268 19.5045 7.96128 20.9564 6.65892 22.1715C4.8803 23.8269 2.71389 25.0233 0.352539 25.6545V23.5887C2.15254 23.0199 3.79965 22.0594 5.17176 20.7783Z" fill="#E04646"/>
<path d="M17.89 12.3791C17.8956 13.5019 18.1342 14.6117 18.5912 15.6403C19.0482 16.6688 19.714 17.5944 20.5474 18.3602C21.2666 19.035 22.0929 19.5895 22.9936 20.0016V22.1474C21.5277 21.6276 20.1881 20.8123 19.0603 19.7533C18.0323 18.8096 17.2113 17.6684 16.648 16.4001C16.0848 15.1319 15.7911 13.7634 15.7852 12.379V10.3854H17.89V12.3791Z" fill="#E04646"/>
<path d="M5.45614 10.3854H7.56099V12.379C7.55501 13.7634 7.26136 15.1319 6.6981 16.4001C6.13484 17.6684 5.31392 18.8096 4.28594 19.7533C3.15814 20.8122 1.81842 21.6276 0.352539 22.1474V20.0017C1.25327 19.5895 2.07956 19.0351 2.7987 18.3603C3.63219 17.5945 4.29791 16.6689 4.75491 15.6403C5.21192 14.6118 5.45055 13.5019 5.45614 12.3791V10.3854Z" fill="#E04646"/>
<path d="M9.58457 20.9944C9.04727 21.7201 8.44335 22.3955 7.78044 23.0121C5.70528 24.9526 3.14041 26.3101 0.352539 26.9435V28.9612C3.70189 28.3043 6.79331 26.7244 9.26761 24.4053C9.78294 23.9298 10.2662 23.4217 10.7142 22.884L9.58457 20.9944Z" fill="#E04646"/>
</svg>
