<svg width="96" height="29" viewBox="0 0 96 29" fill="none" xmlns="http://www.w3.org/2000/svg">
<path d="M52.1987 15.0123H50.3864V3.31431H52.1987V7.90224H52.4994C53.4827 7.90224 53.7996 6.85333 53.7996 6.06867V3.31431H55.62V5.98857C55.6526 6.52581 55.5441 7.06226 55.305 7.54613C55.0658 8.03001 54.704 8.44496 54.2547 8.75094C54.7102 9.04901 55.0769 9.46135 55.3169 9.94549C55.5569 10.4296 55.6615 10.9681 55.62 11.5053V15.0122H53.7996V11.4253C53.7996 10.6726 53.4339 9.75181 52.5155 9.75986H52.1987V15.0123ZM82.999 15.0123V3.31431H84.6162V10.1521L86.4854 3.31429H88.5089V15.0123H86.8754V6.87736L84.6486 15.0283L82.999 15.0123ZM89.793 15.0123V3.31431H91.4103V10.1521L93.2713 3.31429H95.2948V15.0123H93.6613V6.87736L91.4346 15.0283L89.793 15.0123ZM94.539 1.91312H90.5488V0.543945H94.539V1.91312ZM78.3831 15.0123H76.5709V3.31431H78.3831V7.90224H78.6838C79.6671 7.90224 79.9841 6.85333 79.9841 6.06867V3.31431H81.8045V5.98857C81.8371 6.5258 81.7286 7.06225 81.4894 7.54613C81.2503 8.03 80.8886 8.44496 80.4392 8.75094C80.8947 9.04901 81.2614 9.46135 81.5013 9.94549C81.7413 10.4296 81.846 10.9681 81.8045 11.5053V15.0122H79.9841V11.4253C79.9841 10.6726 79.6265 9.75181 78.7001 9.75986H78.3831V15.0123ZM45.5266 14.9883H43.7144V3.29829H49.1024V7.99028H47.2494V4.96368H45.5265V13.3228H47.2494V10.2962H49.1023V14.9882L45.5266 14.9883ZM71.7111 14.9883H69.8988V3.29829H75.2868V7.99028H73.4339V4.96368H71.7111V13.3228H73.4339V10.2962H75.2868V14.9882L71.7111 14.9883ZM40.5775 4.96372H38.8871V13.3229H40.5775V4.96372ZM38.8546 14.9883H37.0423V3.29829H42.4304V14.9883H38.8546ZM60.4393 4.96372H58.7489V13.3229H60.4393V4.96372ZM58.7163 14.9883H56.9041V3.29829H62.2922V14.9883H58.7163ZM65.3884 4.96372V8.1024C66.0629 8.14244 66.8838 8.1024 66.8838 6.90938V5.84448V4.96372H65.3884ZM65.3884 9.77584V13.3229H66.8838V11.0489C66.8838 9.8559 66.0629 9.74381 65.3884 9.77584ZM68.696 5.35605V6.78928C68.7135 7.18645 68.6307 7.5817 68.4548 7.93948C68.2789 8.29727 68.0155 8.60638 67.6883 8.83904C68.027 9.12299 68.2943 9.48045 68.4691 9.88334C68.644 10.2862 68.7216 10.7236 68.696 11.161V14.9883H63.5761V3.29829H68.696V5.35605ZM31.9386 11.129C32.41 8.6309 33.0277 5.83647 33.3121 3.31431H35.7582V15.0123H34.1735V10.3844L34.3604 6.20478C33.9134 9.167 33.1563 12.0756 32.1012 14.8842V14.8922H31.768V14.8842C30.715 12.0756 29.9606 9.16684 29.5169 6.20478L29.7038 10.3844V15.0123H28.1191V3.31431H30.5571C30.8415 5.83648 31.4591 8.63085 31.9386 11.129Z" fill="white"/>
<path d="M49.8735 18.5189V23.7314C50.5561 23.7714 51.3688 23.6513 51.3688 22.4583V21.4014V18.5189H49.8735ZM53.1892 20.913V22.3462C53.1892 24.1478 52.2465 25.4048 50.483 25.4048H49.8735V28.5435H48.0612V16.8535C49.7678 16.8615 51.4826 16.8535 53.1892 16.8535V20.913ZM53.6849 16.8535H59.2924V18.5189H57.3988V28.5435H55.5865V18.5189H53.6848L53.6849 16.8535ZM44.9811 18.5189H43.2908V26.8781H44.9811V18.5189ZM43.2583 28.5435H41.446V16.8535H46.8259V28.5435L43.2583 28.5435ZM29.9304 28.5435H28.1182V16.8535H33.5061V21.5455H31.6533V18.5189H29.9304V26.8781H31.6533V23.8515H33.5061V28.5435L29.9304 28.5435ZM36.5943 28.5435H34.7821V16.8535H40.1702V28.5435H38.3173V18.5189H36.5944L36.5943 28.5435Z" fill="white"/>
<path d="M12.2705 22.4668C12.723 23.0006 13.2059 23.5085 13.7171 23.9881C16.1956 26.3059 19.2891 27.8853 22.6402 28.544V26.5262C19.8499 25.893 17.2825 24.5356 15.2042 22.5949C14.5435 21.9762 13.9398 21.3009 13.4001 20.5771L12.2705 22.4668Z" fill="white"/>
<path d="M4.81922 20.3609C5.96258 19.3082 6.87586 18.0366 7.50328 16.6241C8.13069 15.2115 8.45897 13.6878 8.46808 12.1459V3.29834H10.5729V12.1459C10.5715 13.7729 10.8236 15.3904 11.3206 16.942C11.8136 15.3896 12.0657 13.7726 12.0683 12.1459V3.29834H14.1731V12.1459C14.1826 13.687 14.5102 15.21 15.1361 16.6223C15.762 18.0346 16.6731 19.3066 17.8139 20.3609C19.1902 21.6405 20.8396 22.6007 22.6412 23.1713V25.2371C20.2774 24.6061 18.1083 23.4097 16.3266 21.7542C15.0242 20.5409 13.9752 19.0884 13.2385 17.4785C12.765 18.7934 12.1202 20.0422 11.3206 21.1937H11.3125C10.5186 20.04 9.87688 18.7916 9.40265 17.4785C8.66014 19.0872 7.60874 20.5391 6.30638 21.7542C4.52776 23.4095 2.36135 24.606 0 25.2371V23.1714C1.8 22.6025 3.44711 21.642 4.81922 20.3609Z" fill="white"/>
<path d="M17.5375 11.962C17.5431 13.0848 17.7817 14.1946 18.2387 15.2231C18.6957 16.2517 19.3614 17.1773 20.1949 17.9431C20.914 18.6179 21.7403 19.1723 22.6411 19.5845V21.7303C21.1752 21.2105 19.8355 20.3951 18.7077 19.3362C17.6798 18.3925 16.8588 17.2513 16.2955 15.983C15.7322 14.7148 15.4386 13.3463 15.4326 11.9619V9.96826H17.5375V11.962Z" fill="white"/>
<path d="M5.1036 9.96826H7.20845V11.9619C7.20247 13.3463 6.90882 14.7147 6.34556 15.983C5.7823 17.2513 4.96138 18.3925 3.9334 19.3362C2.8056 20.3951 1.46588 21.2105 0 21.7303V19.5845C0.900732 19.1724 1.72703 18.618 2.44616 17.9431C3.27965 17.1774 3.94537 16.2518 4.40238 15.2232C4.85938 14.1946 5.09801 13.0848 5.1036 11.962V9.96826Z" fill="white"/>
<path d="M9.23203 20.5771C8.69473 21.3028 8.09081 21.9782 7.4279 22.5949C5.35274 24.5354 2.78787 25.8929 0 26.5262V28.544C3.34935 27.887 6.44077 26.3072 8.91507 23.9881C9.4304 23.5126 9.91364 23.0044 10.3616 22.4668L9.23203 20.5771Z" fill="white"/>
</svg>
