<svg width="64" height="64" viewBox="0 0 64 64" fill="none" xmlns="http://www.w3.org/2000/svg">
<path d="M32 0C14.3274 0 0 14.3269 0 32C0 49.6731 14.3274 64 32 64C49.6726 64 64 49.6731 64 32C64 14.3269 49.6726 0 32 0ZM48.2321 35.4609C49.7236 36.9176 51.3016 38.2888 52.6405 39.8961C53.2336 40.6072 53.7928 41.3424 54.2184 42.1693C54.8259 43.3484 54.2773 44.6415 53.2217 44.7116L46.666 44.7103C44.9729 44.8505 43.6254 44.1675 42.4894 43.01C41.5827 42.0874 40.7414 41.102 39.868 40.1481C39.5112 39.7566 39.1352 39.3881 38.6874 39.098C37.7937 38.5165 37.0172 38.6947 36.5052 39.6282C35.9833 40.5784 35.8643 41.6312 35.8145 42.6885C35.7432 44.2344 35.2769 44.6383 33.7258 44.711C30.4117 44.8662 27.2669 44.3633 24.3442 42.6924C21.7658 41.2186 19.7703 39.1385 18.0312 36.7834C14.6451 32.1925 12.0517 27.1537 9.72143 21.9702C9.19704 20.8027 9.58067 20.1782 10.8685 20.154C13.0082 20.1128 15.1479 20.1179 17.2875 20.152C18.1583 20.1657 18.7345 20.664 19.0691 21.4856C20.2253 24.3304 21.6428 27.0372 23.4191 29.5474C23.8924 30.2158 24.3756 30.8825 25.0637 31.3543C25.8232 31.8756 26.4021 31.7033 26.7602 30.8555C26.9894 30.3167 27.0882 29.7405 27.138 29.163C27.3081 27.185 27.3285 25.2078 27.0339 23.2377C26.8505 22.0049 26.1572 21.2088 24.9283 20.9756C24.3023 20.8571 24.394 20.6253 24.6983 20.2679C25.2268 19.6498 25.7218 19.2675 26.7112 19.2675L34.118 19.2662C35.2855 19.4952 35.5474 20.0191 35.7058 21.1949L35.7124 29.4263C35.6985 29.8813 35.9408 31.23 36.7579 31.5279C37.4126 31.744 37.8448 31.2189 38.2363 30.8044C40.0126 28.9194 41.2782 26.6947 42.4116 24.392C42.9117 23.3766 43.3431 22.3256 43.7623 21.2728C44.0739 20.4944 44.5584 20.1113 45.4371 20.1244L52.5697 20.133C52.7799 20.133 52.9933 20.135 53.2015 20.1709C54.4036 20.3766 54.7329 20.8937 54.361 22.0663C53.7757 23.9088 52.6385 25.4436 51.5267 26.9821C50.3352 28.6295 49.0643 30.2191 47.8844 31.8736C46.8002 33.3861 46.8859 34.1476 48.2321 35.4609Z" fill="white"/>
</svg>
