<svg width="400" height="280" viewBox="0 0 400 280" fill="none" xmlns="http://www.w3.org/2000/svg">
<path d="M59.0918 118.113V194.489H90.6359V177.034C86.143 177.034 86.143 180.579 86.143 182.899C86.143 185.741 86.1197 191.396 86.1197 191.396H77.1743V151.482H86.1197V154.464C86.1197 157.835 90.3104 157.975 90.3104 154.383V148.035V145.054C90.3104 141.38 86.1197 141.543 86.1197 145.135V148.291H77.1743V120.816H86.1197C86.1197 120.816 86.1197 120.833 86.1197 120.839C86.1197 121.816 86.143 126.605 86.143 129.151C86.143 131.47 86.143 135.016 90.6359 135.016V118.072L59.0918 118.113Z" fill="#003DA6"/>
<path d="M10 81V194.482H36.7896V85.5628H50.1349C50.1349 85.5628 50.1699 93.0027 50.1699 97.1645C50.1699 100.565 50.1699 105.761 56.7495 105.761V81H10Z" fill="#003DA6"/>
<path d="M132.488 118.072C124.85 118.06 103.896 118.072 103.896 118.072V194.488H121.979V169.146C121.979 169.146 128.948 169.204 132.482 169.128C135.935 169.053 150.716 166.425 150.716 143.78C150.716 121.135 134.906 118.077 132.482 118.077L132.488 118.072ZM130.041 160.067C130.041 166.117 127.693 166.181 125.06 166.181H121.985V121.042H125.06C127.693 121.042 130.041 120.937 130.041 126.988C130.041 130.586 130.041 156.463 130.041 160.061V160.067Z" fill="#003DA6"/>
<path d="M200.302 129.134C203.924 129.134 206.865 126.199 206.865 122.572C206.865 118.945 203.93 116.009 200.302 116.009C197.826 116.009 195.67 117.381 194.553 119.41V119.398C194.553 119.398 190.496 127.332 188.055 132.075C186.353 135.376 181.94 141.142 175.594 141.142L175.362 118.061H157.191L157.529 194.477H175.623V144.118C181.034 144.118 183.358 151.448 184.358 158.76C184.957 163.95 185.085 170.042 185.114 177.563V194.483H203.191V186.695C203.191 158.022 203.574 147.257 191.194 134.876C192.449 132.406 193.995 129.471 195.333 126.844C196.535 128.239 198.315 129.128 200.302 129.128V129.134Z" fill="#003DA6"/>
<path d="M256.106 121.583C256.1 121.531 256.09 121.49 256.078 121.444C256.055 121.299 256.02 121.153 255.991 121.014C255.991 121.008 255.991 120.996 255.985 120.991C255.275 118.131 252.7 116.009 249.625 116.009C246.005 116.009 243.063 118.945 243.063 122.572C243.063 126.199 245.998 129.134 249.625 129.134C250.045 129.134 250.457 129.093 250.852 129.018H250.875C250.875 129.018 246.336 146.153 244.906 151.64C244.469 153.314 244.016 155.04 243.604 156.615C243.417 157.307 242.785 157.813 242.034 157.813C241.332 157.813 240.733 157.365 240.507 156.743C240.507 156.743 240.507 156.743 240.507 156.737C240.186 155.575 239.867 154.395 239.583 153.372C237.17 144.548 229.905 118.084 229.905 118.084H211.811C211.811 118.084 229.549 183.3 230.137 185.445C232.223 193.053 227.888 196.738 223.806 195.942C225.969 194.873 227.464 192.646 227.464 190.066C227.464 186.445 224.527 183.503 220.9 183.503C218.198 183.503 215.878 185.137 214.873 187.473C214.873 187.473 214.873 187.473 214.873 187.479C214.542 188.246 214.361 189.089 214.35 189.973C214.35 189.984 214.35 189.996 214.35 190.002C214.35 190.019 214.35 190.043 214.35 190.06C214.35 190.083 214.35 190.107 214.35 190.13C214.24 193.838 216.535 197.756 220.215 198.848C224.057 199.993 235.925 202.568 240.919 183.503C242.005 179.348 243.191 174.07 244.691 168.513C248.283 155.168 252.056 141.148 255.555 127.78C256.234 125.193 256.456 123.699 256.113 121.601L256.106 121.583Z" fill="#003DA6"/>
<path d="M291.108 118.066H280.081H279.052H273.007C259.454 152.017 257.535 180.492 257.587 194.506H261.697H262.452C262.436 188.85 262.737 180.829 263.992 171.053C268.52 143.386 275.158 141.142 277.019 141.142C278.548 149.605 286.266 194.5 286.266 194.5H304.373L291.126 118.066H291.108Z" fill="#003DA6"/>
<path d="M312.514 118.113V194.489H344.058V177.034C339.565 177.034 339.565 180.579 339.565 182.899C339.565 185.741 339.542 191.396 339.542 191.396H330.597V151.482H339.542V154.464C339.542 157.835 343.733 157.975 343.733 154.383V148.035V145.054C343.733 141.38 339.542 141.543 339.542 145.135V148.291H330.597V120.816H339.542C339.542 120.816 339.542 120.833 339.542 120.839C339.542 121.816 339.565 126.605 339.565 129.151C339.565 131.47 339.565 135.016 344.058 135.016V118.072L312.514 118.113Z" fill="#003DA6"/>
<path d="M389.993 135.015V118.071C383.438 114.648 369.22 114.688 360.762 125.424C356.415 130.289 351.771 141.077 351.771 154.847C351.771 174.644 360.385 188.832 368.627 194.098C371.144 195.819 375.37 196.499 377.718 196.539C379.328 196.568 389.987 195.975 389.987 187.059C389.987 187.036 389.987 187.013 389.987 186.99C389.987 186.972 389.987 186.949 389.987 186.931C389.987 186.92 389.987 186.908 389.987 186.902C389.977 186.019 389.79 185.176 389.464 184.409C389.464 184.409 389.464 184.409 389.464 184.403C388.46 182.072 386.14 180.433 383.438 180.433C379.816 180.433 376.874 183.368 376.874 186.995C376.874 189.564 378.356 191.779 380.507 192.86C379.025 192.86 377.613 192.895 376.405 192.5C376.37 192.488 376.335 192.476 376.3 192.465C374.213 191.727 372.776 189.628 372.776 183.688C372.776 178.009 372.776 134.817 372.776 129.138C372.776 119.588 376.479 119.757 380.63 119.757H385.484C385.484 119.757 385.484 120.844 385.484 120.85C385.484 121.826 385.506 126.615 385.506 129.161C385.506 131.481 385.506 135.026 390 135.026L389.993 135.015Z" fill="#003DA6"/>
</svg>
