<svg xmlns="http://www.w3.org/2000/svg" width="160.036" height="37.659" viewBox="0 0 160.036 37.659">
  <g id="Group_102" data-name="Group 102" transform="translate(-368.69 -152.926)">
    <path id="Path_52" data-name="Path 52" d="M394.541,135.868a1.331,1.331,0,0,0-.992.553,4.6,4.6,0,0,0-.8,1.877,3.391,3.391,0,0,0,1.816-.493,1.422,1.422,0,0,0,.691-1.22.806.806,0,0,0-.162-.51.646.646,0,0,0-.554-.207m1.919,5.2a3.159,3.159,0,0,1-.479.62,3.936,3.936,0,0,1-.738.586,4.5,4.5,0,0,1-.933.436,3.264,3.264,0,0,1-1.064.173,2.849,2.849,0,0,1-2.081-.727,2.763,2.763,0,0,1-.744-2.067,5.729,5.729,0,0,1,.331-1.954,5.113,5.113,0,0,1,.926-1.614,4.3,4.3,0,0,1,1.412-1.1,3.923,3.923,0,0,1,1.792-.406,2.5,2.5,0,0,1,1.487.415,1.3,1.3,0,0,1,.588,1.132,1.963,1.963,0,0,1-1.017,1.684,7.263,7.263,0,0,1-3.3.825,3.968,3.968,0,0,0-.067.426c-.014.144-.023.283-.023.415a1.816,1.816,0,0,0,.438,1.314,1.471,1.471,0,0,0,1.115.459,1.785,1.785,0,0,0,.571-.093,2.454,2.454,0,0,0,.554-.239,4.167,4.167,0,0,0,.481-.322,4.941,4.941,0,0,0,.384-.338Zm-15.625-8.9v-.482a5.819,5.819,0,0,1,.579-.187c.234-.063.492-.126.766-.178s.56-.107.848-.144a6.148,6.148,0,0,1,.828-.06l.314.133-1.334,6.133h.077a7.524,7.524,0,0,1,.639-.914,5.3,5.3,0,0,1,.744-.758,3.385,3.385,0,0,1,.825-.513,2.258,2.258,0,0,1,.887-.187,1.4,1.4,0,0,1,1.067.4,1.371,1.371,0,0,1,.374.98,5.2,5.2,0,0,1-.075.867c-.049.309-.109.609-.179.9l-.856,3.487h1.11v.521a3.208,3.208,0,0,1-.888.466,3.826,3.826,0,0,1-1.328.214,1.076,1.076,0,0,1-.726-.2.627.627,0,0,1-.225-.487,2.3,2.3,0,0,1,.066-.559c.044-.19.092-.407.141-.658l.557-2.508c.069-.312.133-.594.187-.85a3.473,3.473,0,0,0,.084-.729.872.872,0,0,0-.11-.45.375.375,0,0,0-.335-.181,1.143,1.143,0,0,0-.683.25,3.7,3.7,0,0,0-.642.594,5.737,5.737,0,0,0-.524.718,4.772,4.772,0,0,0-.337.632l-.885,4.3h-2.075l2.1-10.338ZM374.249,142.7h-5.17l.121-.571c.222-.09.467-.175.738-.257a5.6,5.6,0,0,1,.81-.179l1.819-8.532h-1.744l-1.519,2.57h-.614c0-.2.012-.453.038-.764s.054-.631.089-.965.08-.657.126-.983.106-.6.167-.831h9.569c-.051.239-.118.518-.2.839s-.178.646-.279.975-.205.651-.306.954-.2.564-.294.775h-.631l-.4-2.57h-1.744L373,141.693c.253.051.5.109.738.179a3.543,3.543,0,0,1,.629.257Z" transform="translate(0 22.589)"/>
    <path id="Path_53" data-name="Path 53" d="M398.956,146.723l3.066-8.258,3.1,8.258h1.952l5.307-16.117h-4.236l-2.369,7.744-2.877-7.744h-1.586l-2.746,7.744-2.485-7.744h-4.465L397,146.723Z" transform="translate(12.182 22.319)"/>
    <path id="Path_54" data-name="Path 54" d="M412.123,141.424H417.9v-3.406h-5.776v-3.709h6.928v-3.592h-11.2v15.968h11.528v-3.594h-7.254Z" transform="translate(20.806 22.378)"/>
    <path id="Path_55" data-name="Path 55" d="M423.062,130.7h-4.275v15.991h11.061V143.1h-6.785Z" transform="translate(26.617 22.37)"/>
    <path id="Path_56" data-name="Path 56" d="M464.3,136.986c0-3.547-2.419-6.269-6.715-6.269h-6.058v15.968H455.8v-3.666h1.6l2.231,3.666h4.626l-2.841-4.534a5.6,5.6,0,0,0,2.887-5.165m-6.928,2.631H455.8v-5.285h1.571a2.642,2.642,0,0,1,0,5.285" transform="translate(44.013 22.378)"/>
    <path id="Path_57" data-name="Path 57" d="M445.21,141.424h5.775v-3.406H445.21v-3.709h6.924v-3.592h-11.2v15.968h11.529v-3.594H445.21Z" transform="translate(38.384 22.378)"/>
    <path id="Path_58" data-name="Path 58" d="M434.847,130.718h-6.179v15.967h6.179c4.6,0,8.078-3.03,8.078-7.984s-3.478-7.983-8.078-7.983m-.469,12.348h-1.435v-8.735h1.435c2.582,0,4.177,1.715,4.177,4.369s-1.6,4.366-4.177,4.366" transform="translate(31.866 22.378)"/>
    <path id="Path_59" data-name="Path 59" d="M421.461,151.936h-5.543v-7.3h-4.274V160.6h4.274v-5.075h5.543V160.6h4.272V144.634h-4.272Z" transform="translate(22.822 29.772)"/>
    <path id="Path_60" data-name="Path 60" d="M400.7,148.226h4.228V160.6H409.2V148.226h4.226v-3.592H400.7Z" transform="translate(17.009 29.772)"/>
    <path id="Path_61" data-name="Path 61" d="M387.646,157.168c-2.444,0-3.923-1.975-3.923-4.485s1.435-4.459,3.779-4.459a3.946,3.946,0,0,1,3.618,1.9l3.216-2.184a7.756,7.756,0,0,0-6.9-3.429,8.053,8.053,0,0,0-8.079,8.171,8.14,8.14,0,0,0,8.313,8.194c3.24,0,5.447-1.15,7.021-3.8L391.4,154.96a3.837,3.837,0,0,1-3.756,2.208" transform="translate(5.667 29.707)"/>
    <path id="Path_62" data-name="Path 62" d="M398.917,144.7h-1.792L390.132,160.6h4.179l.588-1.482h6.01l.609,1.482h4.413l-7-15.975c0,.043-.008.067-.014.067m-2.657,10.952,1.6-4.033,1.643,4.033Z" transform="translate(11.392 29.77)"/>
    <path id="Path_63" data-name="Path 63" d="M469.945,157.008v-1.666h5.775v-3.407h-5.775v-3.709h6.928v-3.592h-11.2V160.6H477.2v-3.594Z" transform="translate(51.526 29.772)"/>
    <rect id="Rectangle_20" data-name="Rectangle 20" width="4.275" height="15.968" transform="translate(487.663 174.406)"/>
    <path id="Path_64" data-name="Path 64" d="M428.642,155.341h5.776v-3.406h-5.776v-3.709h6.928v-3.592h-11.2V160.6H435.9v-3.6h-7.257Z" transform="translate(29.583 29.772)"/>
    <path id="Path_65" data-name="Path 65" d="M463.118,144.642v7.909l-8.274-7.894h-2.081v15.97h4.012v-8.076l8.4,8.076h1.966l-.006-15.985Z" transform="translate(44.668 29.776)"/>
    <path id="Path_66" data-name="Path 66" d="M447.738,150.9c0-3.545-2.419-6.269-6.716-6.269h-6.059V160.6h4.275v-3.666h1.6l2.23,3.666h4.626l-2.842-4.534a5.589,5.589,0,0,0,2.89-5.165m-6.928,2.631h-1.573v-5.285h1.573a2.642,2.642,0,0,1,0,5.285" transform="translate(35.21 29.772)"/>
  </g>
</svg>
